<?xml version="1.0" encoding="UTF-8" standalone="no"?><!DOCTYPE svg PUBLIC "-//W3C//DTD SVG 1.1//EN" "http://www.w3.org/Graphics/SVG/1.1/DTD/svg11.dtd"><svg width="100%" height="100%" viewBox="0 0 938 942" version="1.1" xmlns="http://www.w3.org/2000/svg" xmlns:xlink="http://www.w3.org/1999/xlink" xml:space="preserve" xmlns:serif="http://www.serif.com/" style="fill-rule:evenodd;clip-rule:evenodd;stroke-linejoin:round;stroke-miterlimit:2;"><rect id="COLOUR-BRIGHT" x="0" y="3.871" width="933.497" height="935.066" style="fill:none;"/><clipPath id="_clip1"><rect x="0" y="3.871" width="933.497" height="935.066"/></clipPath><g clip-path="url(#_clip1)"><path id="BRIGHT" d="M784.297,475.766c-0,1.398 -0,2.779 -0.205,4.178c0.205,2.762 0,5.338 -0.187,8.134c-0.205,5.372 -0.614,10.914 -1.211,16.286c-0.597,5.355 -1.177,10.727 -2.166,16.099c-0.409,3.154 -0.989,6.343 -1.586,9.515c-0.204,0.597 -0.204,0.989 -0.409,1.586c-0.392,3.377 -1.177,6.566 -1.978,9.721c-0.802,3.785 -1.791,7.571 -2.78,11.118c-1.006,4.161 -2.387,8.135 -3.581,12.313c-1.381,4.758 -2.984,9.345 -4.57,13.898c-0.597,2.2 -1.586,4.196 -2.371,6.378c-4.178,11.102 -8.953,22.033 -14.495,32.76c-3.598,6.94 -7.555,13.677 -11.528,20.447c-2.183,3.359 -4.178,6.736 -6.361,9.925c-0.972,1.398 -1.774,2.779 -2.984,3.956c-5.133,7.947 -11.102,15.689 -17.668,23.056c-1.978,2.78 -4.365,5.355 -6.94,7.93c-3.36,3.973 -7.146,7.947 -10.932,11.511c-3.751,3.786 -7.315,7.538 -11.306,10.914c-3.581,3.581 -7.145,6.753 -10.726,9.755c-3.769,3.172 -7.743,6.326 -11.921,9.123c-3.155,2.575 -6.548,4.98 -9.925,7.35c-4.758,3.155 -9.516,6.344 -14.29,9.328c-4.179,2.78 -8.322,5.168 -12.705,7.555c-2.985,1.569 -6.156,3.377 -9.124,4.962c-2.575,1.382 -5.354,2.576 -7.964,3.769c-2.558,1.382 -5.167,2.575 -7.742,3.769c-0.375,0.205 -0.801,0.392 -1.177,0.58c-0.204,-0 -0.409,0.205 -0.596,0.205l-0.205,-0c-40.706,17.871 -84.585,26.62 -128.872,26.398c-15.484,0 -31.174,-1.364 -46.453,-3.769c-3.377,-0.375 -6.549,-0.972 -9.738,-1.603c-3.751,-0.767 -7.537,-1.552 -11.323,-2.336c-5.15,-1.023 -10.522,-2.405 -15.672,-3.991c-5.355,-1.398 -10.539,-2.984 -15.502,-4.757c-5.15,-1.603 -10.112,-3.394 -15.075,-5.372c-1.194,-0.392 -2.387,-0.989 -3.581,-1.569c-2.37,-0.819 -4.963,-2.012 -7.333,-3.001c-0.205,-0 -0.205,-0.205 -0.409,-0.205c-0.188,-0 -0.188,-0.188 -0.392,-0.188l-0.205,0c-0.205,-0.187 -0.392,-0.187 -0.58,-0.392l-0.222,0c-0.187,0 -0.375,-0.222 -0.596,-0.222c-6.14,-2.762 -12.108,-5.747 -18.06,-9.123c-0.784,-0.188 -1.586,-0.785 -2.37,-1.194c-6.77,-3.564 -13.507,-7.537 -19.867,-11.716c-6.344,-3.973 -12.313,-8.134 -18.265,-12.704c-0.784,-0.58 -1.79,-1.177 -2.575,-1.774c-4.979,-3.564 -9.737,-7.537 -14.307,-11.528c-2.183,-1.773 -4.383,-3.564 -6.566,-5.951c-4.161,-3.582 -8.339,-7.555 -12.278,-11.511c-2.797,-2.593 -5.577,-5.338 -7.964,-8.34c-1.177,-1.21 -2.388,-2.37 -3.36,-3.581c-9.737,-10.334 -18.468,-21.419 -26.211,-33.151c-2.779,-3.957 -5.371,-8.152 -8.168,-12.313c-0.375,-0.409 -0.785,-1.006 -0.972,-1.398c-4.178,-6.549 -7.93,-13.285 -11.511,-20.26c-1.808,-3.564 -3.581,-7.35 -5.389,-11.101c-0.785,-1.774 -1.586,-3.786 -2.558,-5.56c-0,-0.409 -0.205,-0.597 -0.409,-1.006c-0.597,-1.381 -1.194,-2.575 -1.569,-3.769c-6.566,-15.279 -11.733,-31.361 -15.689,-47.459c-0,-0.188 -0.205,-0.597 -0.205,-0.785c0,-0.409 -0.205,-0.596 -0.205,-1.006c-0.972,-3.956 -1.773,-7.929 -2.575,-11.903c-1.006,-4.366 -1.79,-8.936 -2.387,-13.284c-0.802,-4.4 -1.399,-8.953 -1.774,-13.319c-0.221,-2.78 -0.597,-5.559 -0.801,-8.356c-0.222,-2.575 -0.597,-5.338 -0.597,-8.118c-0.409,-6.361 -0.597,-12.5 -0.597,-18.895l0,-0.375c0,-5.372 0.188,-10.522 0.392,-15.877c0.205,-3.581 0.393,-7.367 0.58,-10.931c0.222,-1.176 0.222,-2.575 0.426,-3.786c0,-0.17 0.188,-0.409 0.188,-0.562c0,-1.416 0,-2.797 0.409,-4.195c0.785,-8.152 1.961,-16.269 3.752,-24.216c0.188,-2.2 0.614,-4.383 1.211,-6.566c0.58,-3.155 1.381,-6.344 2.183,-9.311c0.579,-2.779 1.176,-5.559 2.182,-8.151c0.785,-3.36 1.774,-6.958 2.968,-10.318c1.79,-5.968 3.751,-11.715 5.968,-17.479c1.979,-4.963 3.957,-10.13 6.14,-15.092c0.409,-0.99 0.801,-1.791 1.381,-2.763c2.814,-6.378 5.952,-12.722 9.345,-18.878c1.569,-2.984 3.172,-5.969 4.963,-8.936c1.586,-3.001 3.393,-5.969 5.371,-8.936c3.36,-5.355 6.924,-10.727 10.727,-15.894c1.774,-2.779 3.752,-5.559 5.935,-8.151c2.796,-3.939 5.968,-7.725 9.14,-11.494c4.178,-4.98 8.544,-9.942 13.097,-14.683c4.178,-4.775 8.766,-9.345 13.506,-13.506c2.405,-2.575 4.963,-4.98 7.538,-6.958c1.211,-1.194 2.2,-2.183 3.394,-2.967c2.575,-2.405 5.15,-4.588 7.929,-6.566c4.963,-4.365 10.13,-8.134 15.502,-11.937c4.178,-2.967 8.339,-5.935 12.705,-8.51c8.543,-5.559 17.275,-10.539 26.415,-15.092c2.183,-1.194 4.161,-2.387 6.344,-3.189c2.575,-1.381 5.355,-2.575 7.947,-3.956c0.409,-0 0.597,-0.205 0.989,-0.205l0.205,-0.409c0.204,-0 0.392,-0 0.596,-0.188l0.205,0c1.774,-0.801 3.752,-1.603 5.559,-2.183c1.177,-0.597 2.371,-1.193 3.36,-1.603c4.962,-1.978 10.13,-3.751 15.092,-5.559c0.802,-0.188 1.791,-0.58 2.592,-0.784c2.575,-0.99 5.15,-1.808 7.725,-2.371c3.991,-1.398 7.947,-2.387 11.938,-3.376c3.581,-1.007 7.145,-1.996 10.897,-2.78c1.006,-0.409 1.995,-0.409 3.189,-0.614l0.187,-0c0.41,-0.205 0.614,-0.205 0.989,-0.205c0.427,-0.17 1.007,-0.375 1.604,-0.375c10.317,-2.183 20.651,-3.786 31.173,-4.758c5.355,-0.614 10.727,-1.006 16.081,-1.211c5.372,-0.392 10.914,-0.596 16.491,-0.596c13.694,-0 27.2,0.801 40.689,2.779c3.581,0.41 7.162,1.006 10.727,1.603c4.382,0.597 8.731,1.382 13.097,2.388c1.006,0.17 2.182,0.375 3.189,0.58c4.178,1.006 8.543,1.995 12.704,3.189c2.985,0.596 5.969,1.585 8.936,2.558c3.377,0.818 6.753,1.807 10.13,2.984c0.409,-0 1.006,0.205 1.381,0.409c3.581,1.177 7.163,2.388 10.727,3.769c1.398,0.597 2.984,1.006 4.365,1.603c1.007,0.375 2.2,0.989 3.582,1.586c0.204,0.187 0.392,0.187 0.579,0.187c0.222,0.188 0.597,0.41 0.802,0.41c0.222,-0 0.222,0.187 0.392,0.187c1.586,0.58 3.189,1.194 4.792,1.791c0.171,-0 0.171,-0 0.392,0.205c0,-0 0.188,-0 0.188,0.187c0.205,0 0.392,0.188 0.597,0.188c-0,0.221 0.204,0.221 0.204,0.221l0.188,0c0.188,0 0.409,0 0.409,0.188l0.205,0.205c0.171,-0 0.597,0.187 0.784,0.187c1.399,0.802 2.968,1.399 4.349,2.183c4.587,1.978 8.953,4.178 13.336,6.77c0.392,0 0.784,0.188 1.176,0.597c3.582,1.774 7.146,3.769 10.727,5.935c2.575,1.381 4.962,2.796 7.35,4.382c1.194,0.597 2.37,1.382 3.564,2.371c4.178,2.387 8.339,5.167 12.313,8.151c5.371,3.582 10.521,7.538 15.484,11.511c0.409,0.393 0.597,0.597 1.006,1.006c3.564,2.78 7.146,5.747 10.727,9.124c3.768,3.172 7.537,6.566 11.084,10.13c4.588,4.553 9.141,9.123 13.524,13.881c3.359,3.598 6.753,7.367 9.532,11.136c2.78,2.984 5.168,6.139 7.743,9.533c4.365,5.15 8.134,10.522 11.903,16.064c1.603,2.592 3.189,4.98 4.57,7.367c2.2,3.172 4.178,6.548 5.952,9.925c1.398,2.387 2.797,4.553 3.99,6.941c3.172,5.372 5.952,10.931 8.527,16.473c1.194,2.388 2.387,4.588 3.377,6.958c0.204,0.597 0.596,1.211 0.801,1.791c0.205,0.579 0.58,1.176 0.58,1.773c1.603,3.598 3.001,7.145 4.587,10.931c1.194,3.564 2.575,7.146 3.769,10.727c1.381,3.564 2.575,7.35 3.564,10.914c1.194,3.973 2.388,7.93 3.394,11.903c1.176,4.571 2.37,9.345 3.376,14.308c0.171,1.211 0.58,2.575 0.785,3.803c0.801,4.536 1.773,9.089 2.387,13.864c0.989,5.372 1.569,10.727 2.166,16.081c0.597,5.372 1.006,10.949 1.211,16.303c0.187,2.763 0.392,5.355 0.187,8.152c0.205,1.364 0.205,2.763 0.205,4.144c0.205,1.194 0.205,2.592 0.205,3.956c-0,1.399 -0,2.797 -0.205,3.991m142.958,-33.953c-5.167,-8.339 -12.517,-14.104 -20.652,-19.271c-20.856,-13.676 -41.678,-27.183 -62.756,-40.911c-22.817,-14.87 -45.839,-29.775 -68.691,-44.85c11.528,-47.067 23.432,-93.725 34.96,-140.605c7.333,-29.57 -12.517,-59.158 -41.116,-66.49c-13.489,-3.394 -26.023,-0 -38.916,3.154c-32.367,8.169 -64.734,16.099 -97.084,24.25c-10.147,2.575 -20.072,4.963 -30.202,7.538c-27.984,-43.077 -56.19,-86.392 -84.397,-129.469c-1.568,-2.592 -3.359,-5.15 -4.962,-7.742c-7.333,-11.324 -20.038,-19.049 -32.93,-22.05c-14.512,-3.564 -29.997,-0.597 -42.514,7.162c-8.339,5.167 -14.103,12.5 -19.253,20.652c-13.694,20.839 -27.405,41.678 -40.911,62.739c-14.888,22.834 -29.98,45.669 -44.867,68.486c-47.068,-11.494 -93.725,-23.209 -140.793,-34.942c-29.366,-7.316 -59.158,12.5 -66.303,41.303c-3.581,13.319 -0,26.006 3.172,38.916c7.947,32.384 16.098,64.547 24.216,96.897c2.592,10.129 4.962,20.259 7.554,30.389c-43.281,28.001 -86.375,56.208 -129.656,84.192c-2.575,1.774 -5.167,3.394 -7.742,5.167c-11.324,7.316 -18.878,20.055 -22.033,32.947c-3.377,14.325 -0.41,29.997 7.35,42.497c5.133,8.339 12.5,14.086 20.447,19.253c21.026,13.728 41.883,27.234 62.722,40.911c23.039,14.888 45.686,29.792 68.725,44.885c-11.136,45.259 -22.255,90.331 -33.561,135.403c-0.222,0.631 -0.393,0.989 -0.393,1.603c-0.409,1.211 -0.613,2.388 -1.006,3.581l0,0.41c-0.204,0.562 -0.392,1.364 -0.392,1.961c-0.187,0.221 -0.187,0.392 -0.187,0.597l-0,0.392c-0.222,-0 -0.222,0.204 -0.222,0.392c-4.963,28.206 14.512,55.816 42.104,62.756c6.958,1.791 13.694,1.603 20.447,0.785l1.007,-0c0.784,-0.171 1.756,-0.41 2.575,-0.58c0.392,-0.205 0.784,-0.205 1.176,-0.205c1.586,-0.392 2.985,-0.58 4.383,-0.989l0.205,0c2.984,-0.818 5.951,-1.398 8.919,-2.2c32.384,-8.117 64.734,-16.081 97.118,-24.215c10.113,-2.371 20.038,-4.963 30.168,-7.35c28.189,43.093 56.19,86.187 84.379,129.264c1.808,2.592 3.394,5.372 5.168,7.947c7.35,11.118 20.054,18.878 32.759,21.845c14.512,3.564 29.997,0.597 42.702,-7.162c8.322,-5.151 13.881,-12.501 19.253,-20.447c13.711,-21.061 27.217,-41.883 40.911,-62.74c14.887,-23.022 29.775,-46.078 44.867,-68.895c46.863,11.716 93.708,23.414 140.571,35.147c29.4,7.35 59.175,-12.5 66.542,-41.303c3.359,-13.285 -0,-26.007 -3.189,-38.916c-8.135,-32.384 -16.286,-64.734 -24.233,-96.914c-2.37,-10.113 -4.963,-20.055 -7.538,-30.167c43.077,-28.207 86.376,-56.379 129.469,-84.38c2.575,-1.791 5.15,-3.394 7.742,-5.167c11.324,-7.35 19.066,-20.055 22.05,-32.965c3.565,-14.307 0.58,-29.775 -7.162,-42.496" style="fill-rule:nonzero;"/></g></svg>