<?xml version="1.0" encoding="UTF-8" standalone="no"?><!DOCTYPE svg PUBLIC "-//W3C//DTD SVG 1.1//EN" "http://www.w3.org/Graphics/SVG/1.1/DTD/svg11.dtd"><svg width="100%" height="100%" viewBox="0 0 938 938" version="1.1" xmlns="http://www.w3.org/2000/svg" xmlns:xlink="http://www.w3.org/1999/xlink" xml:space="preserve" xmlns:serif="http://www.serif.com/" style="fill-rule:evenodd;clip-rule:evenodd;stroke-linejoin:round;stroke-miterlimit:2;"><rect id="COLOUR-DARK" x="0" y="1.543" width="933.497" height="935.066" style="fill:none;"/><path id="DARK" d="M933.49,515.367l-0,0.034c0.017,0 -0,0 -0,0.051c-0.17,1.802 -0.357,3.689 -0.612,5.508l-0,0.085c-0.255,1.19 -0.646,2.329 -1.088,3.4c0.459,-1.071 0.833,-2.227 1.088,-3.4c-26.417,233.385 -224.478,414.786 -464.918,414.786c-258.442,0 -467.96,-209.552 -467.96,-467.994c0,-244.605 187.657,-445.368 426.856,-466.158c0.476,-0.051 0.901,-0.102 1.36,-0.102c0.357,-0.034 0.765,-0.034 1.122,-0.034c12.528,-0 22.677,10.114 22.677,22.609c-0,7.802 -3.876,14.602 -9.843,18.699c-1.071,0.544 -2.176,1.224 -3.23,1.836c-99.31,57.628 -166.067,165.116 -166.067,288.157c-0,183.883 149.068,332.985 332.985,332.985c120.679,0 226.415,-64.258 284.791,-160.44c0.493,-0.799 1.003,-1.615 1.462,-2.465c0.289,-0.408 0.612,-0.85 0.969,-1.258c0,-0.017 0.051,-0.068 0.051,-0.102c0.323,-0.408 0.646,-0.748 0.986,-1.139c0.051,-0 0.051,-0.085 0.119,-0.102c0.357,-0.34 0.697,-0.714 1.071,-1.037c0,-0.085 0.017,-0.085 0.051,-0.085c0.408,-0.391 0.884,-0.748 1.275,-1.105c1.768,-1.36 3.723,-2.482 5.848,-3.332c0.612,-0.204 1.19,-0.425 1.819,-0.646c0.187,-0.051 0.357,-0.102 0.561,-0.136c0.51,-0.119 0.969,-0.272 1.496,-0.391c0.374,-0.102 0.731,-0.102 1.088,-0.153c0.374,-0.085 0.731,-0.085 1.173,-0.17c0.697,-0.102 1.462,-0.119 2.193,-0.119c0.781,0 1.512,0.017 2.294,0.119c1.054,0.085 2.074,0.221 3.111,0.51c4.012,0.986 7.684,3.043 10.557,5.899c0.493,0.459 0.969,0.952 1.377,1.479c0.408,0.51 0.816,1.054 1.207,1.598c1.003,1.36 1.836,2.822 2.431,4.437c1.054,2.566 1.632,5.286 1.7,8.176" style="fill-rule:nonzero;"/></svg>