<?xml version="1.0" encoding="UTF-8" standalone="no"?><!DOCTYPE svg PUBLIC "-//W3C//DTD SVG 1.1//EN" "http://www.w3.org/Graphics/SVG/1.1/DTD/svg11.dtd"><svg width="100%" height="100%" viewBox="0 0 938 938" version="1.1" xmlns="http://www.w3.org/2000/svg" xmlns:xlink="http://www.w3.org/1999/xlink" xml:space="preserve" xmlns:serif="http://www.serif.com/" style="fill-rule:evenodd;clip-rule:evenodd;stroke-linejoin:round;stroke-miterlimit:2;"><rect id="COLOUR-MIX" x="0" y="1.543" width="933.497" height="935.066" style="fill:none;"/><clipPath id="_clip1"><rect x="0" y="1.543" width="933.497" height="935.066"/></clipPath><g clip-path="url(#_clip1)"><g id="MIX"><path d="M933.497,44.052l0,64.219c0,11.363 -2.591,21.783 -9.765,30.813c-10.847,13.629 -25.642,15.93 -41.998,16.822c-31.34,1.665 -62.56,5.116 -93.47,10.609c-60.38,10.866 -119.729,28.53 -175.835,53.455c-110.17,48.94 -208.308,123.201 -284.941,216.292c-77.13,93.71 -131.657,205.495 -157.573,324.078c-6.677,30.453 -11.585,61.266 -14.434,92.302c-1.425,15.449 -0.927,31.465 -3.244,46.812c-2.403,15.861 -14.177,29.954 -29.606,34.761c-7.707,2.455 -15.481,2.18 -23.411,2.18l-31.288,-0c-19.789,-0 -42.804,2.97 -57.702,-13.235c-5.475,-6.008 -10.246,-13.51 -11.534,-21.681c-1.338,-8.514 -0.463,-17.2 0,-25.8c0.91,-15.879 2.129,-31.809 3.845,-47.636c3.398,-31.551 8.221,-62.982 14.795,-94.019c12.786,-60.596 31.734,-119.767 56.397,-176.57c48.211,-111.047 118.442,-212.498 205.493,-296.646c87.463,-84.508 191.127,-151.593 304.232,-196.294c57.547,-22.728 117.326,-39.705 178.272,-50.331c31.425,-5.441 63.177,-9.441 94.997,-11.724c8.324,-0.566 16.631,-1.064 24.938,-1.442c9.731,-0.429 18.296,-0.841 27.221,3.571c14.811,7.381 23.702,21.972 24.56,38.28l-0,0.069c0.034,0.394 0.034,0.738 0.051,1.115"/><path d="M898.579,385.885c0.034,-0.272 0.051,-0.494 0.119,-0.749c-0.068,0.392 -0.102,0.63 -0.119,0.749m-0.034,-1.838c0,0.221 -0.119,2.093 0,1.906c-0.255,1.48 -0.681,2.944 -1.14,4.39c-0.102,0.375 -0.187,0.681 -0.255,0.902c0.391,-0.289 -0.596,2.161 -0,0c-0.136,0.119 -0.392,0.511 -0.953,1.498c-0.034,0.051 -2.689,3.488 -1.855,2.654c-2.502,2.893 -2.774,2.655 -5.803,4.357c-0.34,0.187 -0.63,0.34 -0.868,0.476c0.664,0 -1.838,1.089 0,0c-0.153,0 -0.663,0.119 -1.684,0.426c-1.072,0.306 -2.162,0.527 -3.285,0.731c1.328,-0.272 1.072,-0.323 -0.799,-0.102c-63.899,4.459 -125.773,20.097 -184.004,46.712c-110.985,50.778 -202.229,142.84 -253.059,253.637c-26.717,58.198 -42.202,120.633 -46.405,184.531c-0.136,2.587 -0.647,4.033 -1.6,5.905c-1.633,3.131 -2.025,3.284 -5.037,5.973c1.345,-1.293 -2.842,1.583 -2.739,1.566c-0.426,0.221 -0.715,0.374 -0.953,0.527c0.527,0 -1.6,0.97 -0.017,0c-0.222,0 -0.715,0.119 -1.719,0.46c-3.318,1.004 -2.553,0.663 -5.054,0.663l-67.013,0c-0.646,0 -3.267,-0.153 -2.603,0.034c-11.198,-1.786 -15.979,-9.955 -15.299,-20.709c0.97,-14.958 2.298,-29.763 4.153,-44.585c-0,-0.034 0.034,-0.085 0.034,-0.102l-0,-0.102c-0,-0.017 0.017,-0.034 0.017,-0.068l-0,-0.153l-0,0.102c0.136,-0.902 0.493,-3.403 0.493,-3.403c0.238,-1.872 0.545,-3.693 0.817,-5.599c0.544,-3.676 1.14,-7.385 1.753,-11.078c1.327,-7.947 2.875,-15.945 4.492,-23.841c3.148,-15.111 6.892,-30.086 11.129,-44.924c16.643,-58.419 40.637,-111.019 73.581,-162.767c31.72,-49.724 69.906,-93.746 115.222,-133.498c22.666,-19.944 43.869,-35.837 69.582,-52.582c25.236,-16.421 51.714,-30.954 78.993,-43.649c20.063,-9.308 39.802,-17.033 62.077,-24.487c22.173,-7.402 44.806,-13.477 67.643,-18.361c11.588,-2.519 23.228,-4.612 34.901,-6.45c11.197,-1.769 20.455,-2.892 32.945,-4.067c5.684,-0.544 11.35,-1.021 17.051,-1.412c3.437,-0.255 6.824,-0.459 10.261,-0.63c1.583,0 2.331,0 2.178,-0.085c1.362,0.239 2.672,0.647 3.982,1.089c-1.021,-0.289 2.536,1.43 3.744,2.076c-1.14,-0.595 3.488,3.625 3.199,2.842c0.596,0.834 1.14,1.651 1.617,2.536c0.357,0.544 0.578,0.885 0.732,1.157c-0.494,-1.753 0.952,1.276 0.017,-0c0.102,0.306 0.255,0.681 0.408,1.174c1.361,3.744 1.004,2.212 1.123,6.228l0,68.102Zm-14.856,-85.204c-0.306,-0.102 -0.595,-0.119 -0.885,-0.187c0.494,0.068 0.749,0.085 0.885,0.187m48.55,15.707c-0.919,-18.106 -10.483,-34.289 -26.411,-43.308c-15.876,-8.934 -34.374,-5.65 -51.595,-4.067c-31.958,3.029 -63.711,8.321 -94.903,15.894c-59.849,14.515 -117.723,38.015 -171.037,68.833c-105.318,60.716 -192.785,151.604 -250.064,258.742c-29.133,54.574 -50.421,113.435 -62.963,173.947c-6.568,31.601 -10.703,63.763 -12.592,95.959c-0.987,16.234 5.701,32.876 18.701,42.95c10.517,8.066 22.105,11.521 35.311,11.521l57.108,-0c10.125,-0 19.536,-0.664 29.014,-4.714c17.817,-7.743 28.248,-25.287 29.405,-44.142c1.821,-31.192 6.535,-59.304 14.567,-90.411c3.863,-14.889 8.474,-29.507 13.699,-43.954c5.377,-15.026 9.903,-25.594 16.557,-39.752c51.255,-108.5 140.032,-193.142 250.54,-240.483l0.051,-0.017c0.017,-0.017 0.034,-0.017 0.051,-0.051c0.051,-0.017 0.119,-0.034 0.153,-0.068c0.051,-0.017 0.085,-0.051 0.119,-0.051c-0.017,-0 -0.017,-0 -0.034,0.034c0.834,-0.323 3.046,-1.225 3.063,-1.225c1.702,-0.732 3.387,-1.396 5.072,-2.059c3.403,-1.379 6.823,-2.655 10.278,-3.914c7.436,-2.774 14.975,-5.327 22.564,-7.743c14.686,-4.663 29.661,-8.542 44.738,-11.844c14.804,-3.25 30.647,-5.837 43.648,-7.368c16.813,-1.974 34.612,-0.749 49.843,-9.206c15.519,-8.611 25.168,-26.496 25.168,-44.006l-0,-68.102c-0.017,-0.476 -0.034,-0.919 -0.051,-1.395" style="fill-rule:nonzero;"/><path d="M300.586,835.894l-0,-0.051c-0,0.119 -0.034,0.153 -0.034,0.153c-0,-0.034 0.034,-0.085 0.034,-0.102" style="fill-rule:nonzero;"/><path d="M388.089,900.14l0.017,-0c0.527,-0 -1.6,0.969 -0.017,-0" style="fill-rule:nonzero;"/><path d="M727.83,471.436c0.017,-0.017 0.068,-0.034 0.085,-0.034c-0.119,0.051 -0.239,0.102 -0.29,0.136c0.017,-0.017 0.034,-0.017 0.051,-0.034c0.052,-0.034 0.12,-0.051 0.154,-0.068" style="fill-rule:nonzero;"/><path d="M882.81,298.648c0.476,0.068 0.748,0.085 0.884,0.187c-0.306,-0.085 -0.595,-0.119 -0.884,-0.187" style="fill-rule:nonzero;"/><path d="M887.67,400.234c0.663,-0 -1.838,1.089 -0,-0" style="fill-rule:nonzero;"/><path d="M897.151,391.252c0.392,-0.289 -0.595,2.144 0,-0" style="fill-rule:nonzero;"/><path d="M897.014,308.545l-0.017,-0c0.017,-0 -0,-0 -0,-0c-0.494,-1.753 0.952,1.276 0.017,-0" style="fill-rule:nonzero;"/><path d="M898.579,385.885c0.034,-0.272 0.051,-0.494 0.119,-0.749c-0.068,0.392 -0.102,0.63 -0.119,0.749" style="fill-rule:nonzero;"/><path d="M931.482,586.926l-0,64.172c-0,15.216 -4.303,29.426 -16.606,39.304c-9.106,7.331 -18.679,8.596 -29.79,10.468c-9.503,1.646 -18.955,3.708 -28.217,6.498c-59.631,17.885 -110.347,60.256 -138.184,116.214c-6.964,14.02 -12.528,28.646 -16.45,43.845c-2.108,8.127 -3.819,16.376 -5.08,24.695c-1.227,8.387 -1.953,16.29 -7.154,23.378c-8.933,12.183 -21.962,19.86 -37.341,19.86l-20.753,-0c-16.933,-0 -34.334,1.178 -51.285,-0.191c-16.087,-1.317 -30.758,-11.767 -37.047,-26.792c-6.48,-15.319 -2.575,-32.355 0.138,-48.212c10.592,-62.578 36.926,-121.846 75.943,-171.825c38.188,-48.939 88.419,-88.85 145.148,-113.944c29.185,-12.928 59.701,-22.615 91.236,-27.901c16.484,-2.721 35.146,-7.521 50.784,0.468c14.86,7.573 23.742,22.269 24.606,38.75l0,0.121c0.035,0.364 0.035,0.728 0.052,1.092"/></g></g></svg>