<?xml version="1.0" encoding="UTF-8" standalone="no"?><!DOCTYPE svg PUBLIC "-//W3C//DTD SVG 1.1//EN" "http://www.w3.org/Graphics/SVG/1.1/DTD/svg11.dtd"><svg width="100%" height="100%" viewBox="0 0 3138 2459" version="1.1" xmlns="http://www.w3.org/2000/svg" xmlns:xlink="http://www.w3.org/1999/xlink" xml:space="preserve" xmlns:serif="http://www.serif.com/" style="fill-rule:evenodd;clip-rule:evenodd;stroke-linejoin:round;stroke-miterlimit:2;"><rect id="SIZE-24-CHUVACH" serif:id="SIZE 24-CHUVACH" x="1.692" y="1.002" width="3134.22" height="2453.41" style="fill:none;"/><clipPath id="_clip1"><rect x="1.692" y="1.002" width="3134.22" height="2453.41"/></clipPath><g clip-path="url(#_clip1)"><path id="XL---ASSIAN" serif:id="XL - ASSIAN" d="M2791.9,724.785c26.212,-29.336 132.029,21.144 148.849,20.195c17.882,-1.01 69.545,-34.742 89.06,-52.264c22.334,-20.043 59.576,-70.212 72.303,-98.576c7.364,-16.459 16.94,-52.992 15.697,-71.274c-0.757,-11.51 -8.636,-34.225 -15.697,-42.759c-29.515,-35.47 -131.697,-47.921 -155.939,-87.886c-17.758,-29.275 -2.576,-105.894 -9.788,-140.149c-13.636,-64.897 -83.879,-156.367 -166.212,-194.783c-6.697,-3.128 -158.151,-66.081 -223.818,-32.069c-14.394,7.441 -43.849,22.412 -55.394,34.438c-9.909,10.356 -19.454,40.876 -30.394,49.895c-14.364,11.783 -106.394,62.225 -106.394,62.225c-46.333,22.138 -309.259,345.143 -322.757,352.272c-134.064,70.802 -548.636,109.265 -552.97,108.051c-4.363,-1.154 -483.03,-40.937 -582.303,-45.097c-83.181,-3.523 -187.545,66.172 -220.545,87.886c-33.152,21.804 -193.364,222.083 -195.576,225.667c-2.151,3.583 -262.939,508.244 -294.394,546.356c-22.333,27.058 -61.333,47.253 -120.454,125.391c-83.667,110.601 -137.333,576.117 191.545,534.634c75.334,-9.536 140.758,-189.68 159.243,-196.817c18.454,-7.167 77.545,-31.25 76.03,-27.331c-37.422,96.791 9.928,406.437 11.019,409.99c1.091,3.584 43.152,130.134 82.92,174.934l215.537,0.868c42.94,-18.161 -17.046,-134.051 -20.989,-136.827c-42.876,-30.193 -78.757,-29.308 -88.171,-30.915c-32.735,-5.588 -43.834,-109.01 -34.757,-149.364c8.32,-36.986 47.584,-85.098 57.917,-102.651c15.667,-26.724 80.433,-62.449 103.524,-81.733c19.03,-15.852 65.303,-32.859 85.848,-46.281c50.637,-33.102 148.849,-106.016 192.273,-149.655c23.818,-23.961 64,-79.96 83.636,-108.112c16,-22.897 34.122,-88.311 59.758,-95.022c21.16,-5.514 83.105,74.047 216.07,123.955c137.993,51.796 350.445,73.707 559.324,50.329c15.201,-1.702 42.242,223.814 54.303,276.746c8.303,36.351 152.454,449.11 159.424,449.11c65.182,0 264.895,0.42 264.895,0.42c0,-0 18.684,-111.305 -68.402,-167.347c-8.074,-5.196 -55.342,-0.699 -64.069,-4.738c-9.939,-4.616 -28.606,-19.436 -33.333,-30.095c-7.758,-17.462 -1.455,-71.274 -4.334,-77.591c-2.878,-6.347 9.758,-134.714 17.364,-178.93c5.182,-30.034 44.909,-231.224 47.818,-237.541c2.879,-6.347 316.727,-426.462 350.545,-508.335c33.273,-80.507 52.273,-328.16 52.273,-340.824c0,-12.664 -32.394,-162.653 -0.485,-198.396"/></g></svg>