<?xml version="1.0" encoding="UTF-8" standalone="no"?><!DOCTYPE svg PUBLIC "-//W3C//DTD SVG 1.1//EN" "http://www.w3.org/Graphics/SVG/1.1/DTD/svg11.dtd"><svg width="100%" height="100%" viewBox="0 0 3142 2459" version="1.1" xmlns="http://www.w3.org/2000/svg" xmlns:xlink="http://www.w3.org/1999/xlink" xml:space="preserve" xmlns:serif="http://www.serif.com/" style="fill-rule:evenodd;clip-rule:evenodd;stroke-linejoin:round;stroke-miterlimit:2;"><rect id="SIZE-YORK-2" serif:id="SIZE-YORK 2" x="3.5" y="1.539" width="3134.22" height="2453.41" style="fill:none;"/><clipPath id="_clip1"><rect x="3.5" y="1.539" width="3134.22" height="2453.41"/></clipPath><g clip-path="url(#_clip1)"><path id="S---YORK" serif:id="S - YORK" d="M3059.31,823.968c-12.224,37.808 -48.056,88.779 -73.345,132.435c-9.18,15.754 -25.928,27.549 -39.636,40.722c-11.946,11.471 -156.762,109.346 -304.963,77.776c-32.29,-6.878 -33.071,-2.699 -48.755,26.728c-22.493,42.189 -36.901,86.754 -46.233,133.491c-5.349,26.845 -71.996,477.129 -340.981,630.927c-6.042,3.454 -29.444,142.943 -23.345,214.524c6.1,71.582 11.885,189.381 59.941,214.965c41.397,21.993 106.092,69.37 99.669,137.715c-1.009,10.728 -47.205,21.701 -47.205,21.701l-179.853,0c-0,0 -59.88,-55.939 -78.361,-85.806c-8.632,-13.965 -1.245,-409.28 -110.398,-440.812c-99.846,-28.842 -264.629,3.228 -395.421,0c-216.354,-5.339 -882.851,-70.443 -907.806,-71.998c-177.695,-5.75 -273.523,150.366 -331.529,210.74c-35.773,37.233 -15.106,150.536 -16.505,151.504c9.089,13.056 17.204,26.845 27.509,38.962c7.447,8.743 17.356,15.755 26.9,22.561c38.603,27.549 80.543,67.855 80.803,136.66c0.082,21.763 -39.039,38.189 -39.039,38.189l-189.063,0c0,0 -59.88,-73.484 -74.531,-111.506c-9.027,-23.501 -62.261,-358.414 -9.453,-502.454c12.017,-32.776 88.66,-147.329 114.046,-205.018c19.694,-44.755 84.749,-280.62 109.334,-347.047c7.359,-19.883 44.925,-65.044 40.974,-73.934c-8.359,-18.806 -15.806,-38.111 -22.128,-57.679c-13.831,-42.835 -20.792,-76.487 -20.305,-115.477c5.957,-477.022 332.228,-604.2 335.815,-604.611c27.204,-3.139 54.408,-8.508 81.613,-8.479c22.067,0.059 30.548,17.075 19.788,35.823c-6.839,11.97 -16.293,23.001 -26.354,32.683c-75.99,73.258 -131.037,158.605 -158.788,259.06c-31.004,112.074 -20.913,220.157 36.992,323.283c9.149,16.283 18.663,18.806 36.596,16.693c61.431,-7.188 123.104,-15.491 184.869,-16.957c86.932,-2.025 174.077,0.645 261.071,3.109c146.417,4.137 292.774,10.768 439.191,14.259c77.783,1.848 155.202,-6.044 231.283,-22.444c58.026,-12.528 116.234,-26.111 164.138,-63.254c49.181,-38.17 84.774,-87.371 114.35,-140.268c43.131,-77.044 83.224,-155.612 125.808,-232.949c34.804,-63.137 74.015,-123.193 128.454,-173.274c17.508,-16.078 28.329,-38.932 42.22,-58.707c-1.52,-0.968 74.895,-192.901 87.479,-214.318c18.177,-30.953 43.071,-31.305 63.042,-1.673c5.076,7.482 8.389,16.195 11.702,24.645c3.404,8.713 6.652,30.033 10,31.011c3.349,0.978 7.143,-18.044 10.092,-25.144c12.736,-30.835 38.633,-34.883 59.819,-8.625c7.173,8.86 13.405,19.363 16.687,30.013c5.654,18.454 10.061,37.524 12.341,56.624c3.252,26.727 -3.151,65.811 5.927,80.681c8.35,13.677 123.62,2.521 183.44,57.328c49.695,45.53 85.747,94.206 89.03,161.069c1.368,27.842 13.07,48.145 38.511,59.411c24.925,11.002 50.427,22.209 76.933,28.047c28.177,6.162 48.481,22.6 57.63,44.683c9.605,23.183 9.714,64.37 0,94.412Z"/></g></svg>