<?xml version="1.0" encoding="UTF-8" standalone="no"?>
<!DOCTYPE svg PUBLIC "-//W3C//DTD SVG 1.1//EN" "http://www.w3.org/Graphics/SVG/1.1/DTD/svg11.dtd">
<svg width="100%" height="100%" viewBox="0 0 753 589" version="1.1" xmlns="http://www.w3.org/2000/svg" xmlns:xlink="http://www.w3.org/1999/xlink" xml:space="preserve" xmlns:serif="http://www.serif.com/" style="fill-rule:evenodd;clip-rule:evenodd;stroke-linejoin:round;stroke-miterlimit:2;">
    <g transform="matrix(1,0,0,1,-6893.85,-3953.24)">
        <g transform="matrix(1,0,0,1,5021.81,3953.24)">
            <rect id="SIZE-27-ROTTWEILER" serif:id="SIZE 27-ROTTWEILER" x="1872.04" y="0" width="752.213" height="588.819" style="fill:none;"/>
            <clipPath id="_clip1">
                <rect id="SIZE-27-ROTTWEILER1" serif:id="SIZE 27-ROTTWEILER" x="1872.04" y="0" width="752.213" height="588.819"/>
            </clipPath>
            <g clip-path="url(#_clip1)">
                <g transform="matrix(-1.42022,0,0,1.42022,1940.94,187.475)">
                    <g id="Izolovaný-režim" serif:id="Izolovaný režim">
                        <path d="M-45.187,177.341C-52.85,173.853 -59.279,168.541 -65.029,162.549C-72.397,154.869 -79.369,146.806 -86.454,138.857C-88.329,136.753 -90.127,134.551 -91.706,132.222C-92.769,130.653 -120.334,114.264 -129.237,116.482C-151.827,122.109 -244.393,146.193 -249.928,146.545C-252.231,146.692 -280.167,150.033 -291.023,156.752C-297.276,160.622 -308.709,257.381 -310.01,261.658C-310.91,264.618 -316.097,273.77 -316.731,275.714C-317.945,279.442 -321.247,282.593 -321.247,282.593L-357.359,282.593C-357.359,282.593 -360.509,278.236 -360.509,275.714C-360.509,273.024 -359.163,268.929 -357.359,266.448C-353.725,261.451 -347.766,262.528 -342.419,261.399C-336.157,260.076 -332.541,256.745 -330.456,251.122C-328.123,244.83 -326.729,235.24 -327.939,228.896C-329.233,222.108 -329.531,215.381 -329.817,208.592C-330.13,201.199 -329.992,193.782 -330.465,186.402C-330.985,178.282 -332.082,170.201 -332.733,162.088C-333.285,155.212 -333.755,148.318 -333.902,141.425C-334.058,134.227 -336.075,127.692 -339.959,121.721C-341.997,118.588 -344.018,115.367 -346.531,112.633C-353.662,104.88 -356.863,95.335 -358.618,85.398C-362.39,64.053 -369.082,43.642 -377.61,23.831C-380.275,17.638 -384.164,11.866 -388.16,6.388C-390.82,2.742 -395.51,1.451 -399.85,0.813C-405.239,0.021 -421.845,-0.318 -424.37,-1.902C-424.858,-2.209 -443.019,-9.271 -452.599,-8.972C-458.874,-8.776 -464.615,-11.406 -469.202,-15.96C-472.354,-19.091 -473.607,-22.89 -473.145,-27.331C-473.046,-28.277 -473.268,-29.604 -473.881,-30.221C-478.329,-34.705 -480.566,-40.231 -480.993,-46.329C-481.32,-51.012 -481.058,-55.793 -480.508,-60.467C-479.98,-64.943 -478,-66.824 -473.514,-67.208C-466.731,-67.788 -459.912,-67.94 -453.106,-68.223C-451.387,-68.294 -449.353,-67.709 -448.457,-69.701C-447.404,-72.044 -446.806,-79.366 -446.419,-80.477C-445.823,-82.187 -445.533,-84.176 -444.456,-85.519C-437.777,-93.845 -429.988,-101.17 -420.168,-105.367C-414.406,-107.829 -407.74,-108.185 -401.473,-109.449C-399.602,-109.826 -397.714,-110.214 -395.816,-110.341C-393.687,-110.484 -391.522,-110.341 -389.408,-110.257C-369.112,-109.449 -363.813,-105.477 -363.619,-105.488C-354.959,-106.001 -341.577,-85.756 -340.876,-85.287C-329.813,-77.894 -320.144,-68.894 -310.853,-59.448C-301.285,-49.722 -292.043,-39.643 -280.871,-31.65C-268.494,-22.795 -254.794,-17.078 -239.786,-14.553C-223.304,-11.78 -206.849,-8.8 -190.307,-6.436C-179.287,-4.862 -168.152,-3.999 -157.042,-3.188C-137.531,-1.763 -117.97,-0.961 -98.485,0.745C-83.434,2.062 -35.862,15.794 -27.596,15.487C5.857,14.241 26.746,-8.617 24.023,-17.558C21.299,-26.498 17.533,-36.788 -43.94,-38.155C-48.831,-38.263 -55.924,-44.73 -51.13,-48.191C-43.089,-53.996 -18.886,-59.312 -10.705,-58.68C4.091,-57.537 38.64,-39.999 42.34,-25.203C48.253,-1.561 34.611,17 16.661,28.645C-0.611,39.85 2.096,63.485 1.452,88.75C1.279,95.54 3.645,102.185 4.343,108.951C4.894,114.289 5.533,119.614 6.34,124.904C7.992,135.732 10.344,146.413 14.068,156.752C18.222,168.285 25.765,177.767 35.43,185.432C37.776,187.293 40.159,189.108 42.511,190.963C47.092,194.579 49.007,198.935 48.401,205.09C47.707,212.157 48.461,219.358 48.449,226.5C48.445,228.882 47.882,231.259 47.811,233.646C47.507,243.963 47.273,254.283 47.046,264.603C46.924,270.129 45.637,275.165 41.173,278.88C37.05,282.311 35.43,282.593 35.43,282.593L8.264,282.593C8.264,282.593 1.166,276.938 5.962,269.997C8.695,266.042 11.563,262.918 16.14,261.814C21.602,260.496 24.463,257.416 24.445,251.676C24.428,245.718 24.853,239.748 24.584,233.804C24.449,230.801 23.742,227.576 22.378,224.92C17.509,215.442 12.401,206.036 2.611,200.497" style="fill-rule:nonzero;"/>
                    </g>
                </g>
            </g>
        </g>
    </g>
</svg>
