<?xml version="1.0" encoding="UTF-8" standalone="no"?><!DOCTYPE svg PUBLIC "-//W3C//DTD SVG 1.1//EN" "http://www.w3.org/Graphics/SVG/1.1/DTD/svg11.dtd"><svg width="100%" height="100%" viewBox="0 0 3138 2459" version="1.1" xmlns="http://www.w3.org/2000/svg" xmlns:xlink="http://www.w3.org/1999/xlink" xml:space="preserve" xmlns:serif="http://www.serif.com/" style="fill-rule:evenodd;clip-rule:evenodd;stroke-linejoin:round;stroke-miterlimit:2;"><rect id="SIZE-BICHON-3" serif:id="SIZE-BICHON 3" x="1.692" y="1.539" width="3134.22" height="2453.41" style="fill:none;"/><path d="M2440.89,286.215c-97.775,-5.552 -166.048,15.007 -247.144,30.41c-100.116,19.005 -180.175,74.034 -244.951,140.071c-67.122,68.438 -122.651,146.026 -167.767,227.718c-26.657,48.271 6.495,172.178 -18.443,221.292c-16.563,32.617 -158.458,19.804 -196.283,21.964c-18.799,1.073 -133.096,-221.955 -282.306,-245c-97.803,-15.104 -612.765,-23.49 -667.708,214.358c-0.878,3.803 7.913,128.967 50.538,178.352c2.215,2.556 39.914,61.448 8.287,105.586c-19.01,26.527 -149.954,117.039 -161.988,153.18c-4.463,13.428 -62.219,128.162 -67.304,180.355c-20.943,214.965 -153.783,409.729 -205.158,441.997c-48.598,30.516 -77.327,68.797 -87.476,122.442c-15.924,84.209 35.195,160.53 23.957,244.65c-5.364,40.153 14.079,131.362 14.079,131.362l476.678,0c-0,0 55.377,-18.331 26.358,-77.49c-16.215,-33.056 2.131,-65.455 45.56,-70.248c44.654,-4.932 279.61,-74.588 331.926,-165.661c62.706,-109.161 69.502,-242.904 85.915,-249.523c29.919,-12.073 55.232,-0.387 81.933,13.622c104.932,55.058 408.439,125.752 534.893,119.101c43.859,-2.304 62.747,11.53 67.343,49.182c0.958,7.987 17.18,235.356 16.86,259.288c-0.573,42.928 38.041,91.471 90.749,104.056c38.603,9.217 118.519,17.65 118.519,17.65l232.946,0.023c0,0 136.146,-15.753 145.767,-48.205c17.334,-58.525 -18.409,-242.601 -27.269,-299.731c-5.686,-36.596 -15.516,-73.037 -16.794,-109.73c-1.003,-29.16 8.144,-58.601 12.794,-87.917c5.003,-31.619 22.07,-125.111 26.126,-140.15c1.143,-4.235 52.391,-168.33 60.138,-197.868c10.8,-41.224 18.943,-83.028 27.043,-124.765c3.218,-16.565 4.672,-85.816 -0.232,-102.381c-16.551,-55.988 3.163,-83.977 66.947,-95.479c83.112,-14.987 155.667,-51.205 226.117,-90.918c19.153,-10.795 87.014,-53.907 95.73,-67.199c53.723,-82.041 86.848,-168.506 61.657,-264.856c-9.632,-36.799 -35.473,-60.78 -77.58,-70.984c-13.158,-3.185 -26.217,-7.455 -38.471,-12.741c-60.929,-26.285 -77.128,-52.212 -56.841,-108.423c31.374,-86.939 8.298,-159.995 -62.571,-223.593c-25.467,-22.848 -49.701,-49.239 -78.715,-65.437c-101.572,-56.704 -223.789,-56.11 -223.859,-58.36" style="fill-rule:nonzero;"/></svg>