<?xml version="1.0" encoding="UTF-8" standalone="no"?><!DOCTYPE svg PUBLIC "-//W3C//DTD SVG 1.1//EN" "http://www.w3.org/Graphics/SVG/1.1/DTD/svg11.dtd"><svg width="100%" height="100%" viewBox="0 0 3138 2459" version="1.1" xmlns="http://www.w3.org/2000/svg" xmlns:xlink="http://www.w3.org/1999/xlink" xml:space="preserve" xmlns:serif="http://www.serif.com/" style="fill-rule:evenodd;clip-rule:evenodd;stroke-linejoin:round;stroke-miterlimit:2;"><rect id="SIZE-17-LABRADOR" serif:id="SIZE 17-LABRADOR" x="0" y="1.002" width="3134.22" height="2453.41" style="fill:none;"/><clipPath id="_clip1"><rect x="0" y="1.002" width="3134.22" height="2453.41"/></clipPath><g clip-path="url(#_clip1)"><path d="M623.275,2454.41c28.755,-41.541 11.549,-112.949 -33.883,-130.15c-64.481,-24.409 -66.41,-29.245 -65.986,-111.867c0.53,-104.106 30.917,-201.673 62.575,-298.226c5.339,-16.281 21.232,-30.88 35.451,-40.874c60.116,-42.278 120.932,-83.474 182.447,-123.311c72.555,-46.953 58.922,-36.107 97.191,-117.646c22.906,-48.841 47.932,-96.508 71.05,-145.279c42.826,-90.29 108.989,-156.471 198.072,-146.684c136.846,15.037 260.91,111.792 396.919,146.684c137.291,35.22 382.712,2.905 426.826,64.637c44.114,61.732 17.461,173.211 40.494,259.633c29.815,112.005 43.843,225.115 44.479,341.633c0.317,62.795 10.955,125.752 19.939,188.133c6.04,41.932 30.323,69.105 68.148,84.026c50.92,20.08 103.238,26.919 156.701,25.814c35.154,-0.76 42.507,-12.274 35.79,-50.868c-1.886,-10.73 -3.878,-21.507 -6.484,-32.053c-7.607,-30.627 -25.216,-47.92 -55.073,-52.18c-34.477,-4.859 -46.11,-17.455 -46.873,-55.473c-0.784,-40.091 3.857,-80.273 4.302,-120.456c0.763,-68.713 5.064,-137.956 -1.208,-206.002c-7.883,-85.8 4.09,-168.099 19.664,-250.859c1.844,-9.81 5.573,-19.297 6.76,-29.153c6.06,-49.716 120.042,-151.542 140.279,-178.116c53.272,-70.026 124.141,-129.378 156.192,-213.302c40.487,-106.013 61.127,-297.973 86.731,-422.781c13.356,-65.106 36.638,-120.962 59.799,-179.428c10.298,-25.975 26.805,-75.493 54.098,-78.049c48.674,-4.536 96.945,-6.738 145.428,-13.554c83.362,-11.744 162.498,-47.781 176.843,-149.884c5.213,-37.259 24.036,-85.435 30.396,-108.044c2.476,-8.802 7.329,-22.998 0,-27.61c-14.656,-9.223 -56.853,-24.731 -87.939,-27.725c-47.932,-4.605 -95.716,-12.573 -143.69,-14.323c-35.536,-1.29 -52.912,-23.165 -67.448,-52.709c-4.365,-8.889 -8.836,-17.731 -13.71,-26.298c-22.546,-39.537 -54.777,-64.522 -97.009,-72.213c-35.747,-6.494 -71.813,-15.037 -107.773,-15.336c-69.906,-0.599 -136.146,12.964 -183.993,77.74c-35.409,47.966 -70.606,96.461 -109.596,140.927c-65.35,74.493 -133.667,145.97 -200.691,218.759c-17.376,18.836 -34.477,37.972 -51.959,56.716c-49.521,53.101 -501.379,110.761 -620.934,93.422c-92.367,-13.402 -183.464,-36.821 -275.408,-53.976c-91.626,-17.086 -183.443,-14.507 -274.687,4.306c-42.91,8.843 -85.057,24.225 -128.222,28.784c-62.977,6.655 -124.513,-8.244 -182.574,-34.955c-127.564,-58.72 -240.275,-143.691 -350.59,-233.681c-85.714,-69.934 -148.607,-155.78 -183.083,-266.173c-6.484,-20.701 -32.866,-54.367 -32.887,-47.021c-0.043,65.374 -151.058,396.339 418.886,616.21c43.802,16.898 83.828,37.88 116.08,74.585c8.582,9.741 15.129,20.495 -0.17,28.324c-40.325,20.655 -56.789,60.723 -72.491,101.596c-48.928,127.433 -38.1,256.179 -6.908,385.293c15.193,62.887 36.129,126.074 24.707,191.518c-11.167,64.177 -30.28,126.765 -46.258,189.952c-5.043,19.872 -14.578,34.518 -32.59,45.916c-13.095,8.313 -23.902,26.459 -29.073,42.739c-7.035,22.083 -11.04,46.653 -10.489,69.98c1.526,64.269 9.684,128.492 8.73,192.646c-1.716,115.758 -7.48,231.494 -13.095,347.16c-1.399,29.175 6.124,52.248 29.539,64.246c24.008,12.273 49.945,21.461 75.924,27.679c33.438,8.013 67.724,11.674 101.649,17.201l40.685,-0Z" style="fill-rule:nonzero;"/></g></svg>