<?xml version="1.0" encoding="UTF-8" standalone="no"?><!DOCTYPE svg PUBLIC "-//W3C//DTD SVG 1.1//EN" "http://www.w3.org/Graphics/SVG/1.1/DTD/svg11.dtd"><svg width="100%" height="100%" viewBox="0 0 3138 2459" version="1.1" xmlns="http://www.w3.org/2000/svg" xmlns:xlink="http://www.w3.org/1999/xlink" xml:space="preserve" xmlns:serif="http://www.serif.com/" style="fill-rule:evenodd;clip-rule:evenodd;stroke-linejoin:round;stroke-miterlimit:2;"><rect id="SIZE-J.RUSELL-6" serif:id="SIZE-J.RUSELL 6" x="0" y="1.002" width="3134.22" height="2453.41" style="fill:none;"/><clipPath id="_clip1"><rect x="0" y="1.002" width="3134.22" height="2453.41"/></clipPath><g clip-path="url(#_clip1)"><path id="S---JACK" serif:id="S - JACK" d="M783.035,1561.48c135.996,-150.696 490.921,21.924 685.106,90.073c64.184,22.525 359.835,50.24 443.574,143.333c83.739,93.092 88.03,357.13 99.953,388.993c12.219,32.651 34.911,62.029 35.932,99.124c0.824,30.05 5.27,60.071 9.914,89.916c5.339,34.441 52.536,81.335 52.536,81.335l142.147,0c-0,0 56.895,-8.433 55.822,-37.487c-1.321,-35.77 -48.477,-43.058 -70.972,-53.523c-73.085,-33.967 -80.331,-90.91 -71.504,-152.034c13.141,-90.939 19.147,-401.36 28.138,-414.952c43.08,-65.157 141.448,-392.19 141.876,-415.955c1.087,-61.679 116.811,-594.013 142.974,-604.626c29.774,-12.078 101.508,0.964 150.121,-0.176c87.279,-2.133 175.086,-0.964 261.575,-9.792c75.818,-7.746 157.367,-15.493 193.333,-93.132c1.976,-4.238 4.775,-8.448 8.299,-11.809c63.072,-60.685 57.276,-79.803 -27.896,-112.717c-78.98,-30.518 -156.576,-63.93 -234.107,-97.283c-41.565,-17.948 -66.036,-46.186 -68.934,-90.238c-1.021,-15.083 -16.765,-33.762 -31.816,-42.941c-35.373,-21.515 -75.258,-37.124 -111.619,-57.469c-19.926,-11.079 -35.406,-28.355 -54.937,-40.106c-11.659,-7.016 -27.699,-13.008 -41.104,-12.044c-56.913,4.093 -113.43,12.804 -170.376,16.429c-91.067,5.787 -150.483,50.249 -186.35,120.492c-22.891,44.871 -52.73,83.866 -86.522,122.773c-62.348,71.705 -118.701,147.648 -175.152,223.241c-46.374,62.088 -102.463,107.689 -186.581,129.145c-86.226,21.983 -168.598,55.774 -253.078,83.457c-12.911,4.209 -445.686,2.046 -647.384,5.787c-88.103,1.637 -175.745,18.942 -263.946,23.473c-31.289,1.608 -68.704,-6.869 -94.625,-22.303c-73.117,-43.585 -108.72,-109.443 -109.676,-187.229c-0.856,-67.32 -17.415,-135.02 -21.993,-201.961c-3.952,-57.703 -17.156,-163.336 -42.593,-164.515c-25.438,-1.179 -52.936,100.031 -55.241,157.441c-5.072,125.287 -14.484,248.878 49.609,362.764c17.62,31.366 44.693,59.75 72.524,85.064c44.694,40.632 48.514,70.594 7.279,115.056c-20.816,22.449 -40.939,45.426 -61.294,68.226c-64.982,72.758 -104.076,152.297 -110.301,248.147c-5.468,84.187 -31.157,167.205 -45.254,251.128c-6.752,40.077 -10.309,81.06 -9.815,121.545c0.428,37.329 -9.057,68.695 -40.148,94.301c-54.838,45.192 -70.647,96.991 -62.973,166.007c7.641,68.898 -14.723,140.253 -21.244,210.73c-4.512,48.671 -4.413,97.663 -6.291,146.509c-0.098,2.28 0.132,30.995 0.956,33.129c5.799,14.879 22.864,37.448 22.864,37.448l143.724,0c0,0 75.467,3.585 63.654,-22.792c-14.367,-32.077 -31.348,-52.355 -49.623,-54.606c-75.276,-9.271 -46.472,-98.968 -38.732,-149.656c15.677,-102.603 24.701,-205.673 114.451,-286.148c50.359,-45.163 269.125,-95.243 525.72,-379.572Z"/></g></svg>