<?xml version="1.0" encoding="UTF-8" standalone="no"?><!DOCTYPE svg PUBLIC "-//W3C//DTD SVG 1.1//EN" "http://www.w3.org/Graphics/SVG/1.1/DTD/svg11.dtd"><svg width="100%" height="100%" viewBox="0 0 3138 2459" version="1.1" xmlns="http://www.w3.org/2000/svg" xmlns:xlink="http://www.w3.org/1999/xlink" xml:space="preserve" xmlns:serif="http://www.serif.com/" style="fill-rule:evenodd;clip-rule:evenodd;stroke-linejoin:round;stroke-miterlimit:2;"><rect id="SIZE-OTTERHOUND-12" serif:id="SIZE-OTTERHOUND 12" x="0" y="1.002" width="3134.22" height="2453.41" style="fill:none;"/><clipPath id="_clip1"><rect x="0" y="1.002" width="3134.22" height="2453.41"/></clipPath><g clip-path="url(#_clip1)"><path d="M2473.33,1586.09c43.871,-46.926 102.559,-144.964 124.277,-226.654c29.984,-112.781 44.608,-400.636 55.63,-450.031c4.346,-19.492 10.981,-44.646 14.507,-46.219c-0,0 307.698,-6.58 341.679,-64.954c0.831,-1.427 118.853,-127.063 122.07,-243.908c1.166,-42.338 13.849,-48.086 -27.587,-67.881c-62.405,-29.825 -124.976,-59.415 -186.715,-90.274c-31.002,-15.508 -31.324,-21.299 -11.398,-47.735c0.51,-0.664 1.097,-1.299 1.619,-1.973c30.969,-40.449 -20.225,-81.338 -24.594,-81.494c-100.736,-3.623 -191.305,-40.196 -285.211,-66.358c-17.131,-4.776 -39.851,-1.553 -57.537,4.023c-119.553,37.618 -219.491,103.653 -270.108,204.386c-56.839,113.107 -162.332,178.185 -263.955,249.329c-94.583,66.211 -209.423,89.424 -325.583,107.862c-295.057,46.836 -1014.64,71.66 -1024.05,67.832c-80.722,-32.734 -157.774,-70.635 -222.939,-125.147c-34.174,-28.584 -53.667,-63.428 -63.136,-103.409c-39.851,-168.39 -16.078,-329.456 70.909,-483.5c13.272,-23.506 -3.091,-70.358 -14.515,-62.276c-428.901,303.438 -272.927,760.252 -269.41,770.631c12.951,38.262 132.449,213.879 160.336,215.011c2.495,0.108 8.759,17.286 5.511,23.253c-19.05,35.049 -43.774,67.07 -62.094,102.774c-120.953,235.722 -8.96,517.748 -23.441,541.303c-36.391,59.151 -162.154,232.511 -185.716,261.535c-10.091,12.432 -34.485,88.062 -43.078,167.818c-0.31,2.979 -7.74,221.482 -8.749,240.037c-1.962,35.986 51.827,74.346 51.827,74.346l167.609,-0.796c0,0 100.113,-1.866 98.131,-43.48c-4.507,-94.614 -74.835,-61.741 -87.087,-78.889c-17.908,-25.039 -20.491,-50.02 -11.044,-78.936c27.454,-83.888 82.43,-150.148 153.683,-209.973c154.159,-129.463 304.615,-262.365 456.922,-393.547c23.031,-19.844 47.691,-38.253 71.941,-56.974c17.319,-13.359 36.524,-15.996 59.2,-10.068c116.991,30.645 196.011,126.629 310.68,154.259c138.008,33.254 410.178,61.673 517.365,45.264c93.581,-14.326 213.766,431.321 216.73,487.254c4.229,79.809 118.038,185.09 118.038,185.09l187.63,0.796c0,-0 66.156,-12.205 68.252,-44.276c0.964,-14.87 -17.073,-52.071 -25.699,-61.908c-10.617,-12.109 -38.044,-26.248 -55.418,-27.382c-73.936,-4.822 -88.348,-86.602 -95.344,-150.196c-5.533,-50.391 2.062,-102.032 5.655,-153.019c4.612,-65.655 11.476,-131.182 16.565,-196.827c5.766,-74.396 45.784,-132.111 108.698,-179.816c14.869,-11.27 106.679,-20.389 138.946,-54.903Z" style="fill-rule:nonzero;"/></g></svg>