<?xml version="1.0" encoding="UTF-8" standalone="no"?><!DOCTYPE svg PUBLIC "-//W3C//DTD SVG 1.1//EN" "http://www.w3.org/Graphics/SVG/1.1/DTD/svg11.dtd"><svg width="100%" height="100%" viewBox="0 0 3138 2459" version="1.1" xmlns="http://www.w3.org/2000/svg" xmlns:xlink="http://www.w3.org/1999/xlink" xml:space="preserve" xmlns:serif="http://www.serif.com/" style="fill-rule:evenodd;clip-rule:evenodd;stroke-linejoin:round;stroke-miterlimit:2;"><rect id="SIZE-FRENCHIE-5" serif:id="SIZE-FRENCHIE 5" x="1.692" y="1.539" width="3134.22" height="2453.41" style="fill:none;"/><path d="M3114.25,854.246c-35.681,39.585 -85.209,102.759 -194.543,123.226c-95.945,18.032 -180.761,51.241 -249.439,109.996c-81.804,69.364 -118.991,152.943 -127.731,247.342c-13.65,150.238 -90.217,274.029 -240.011,366.113c-10.213,6.311 -20.786,15.117 -24.322,24.313c-44.126,121.297 -90.348,242.413 -128.877,364.791c-17.054,54.127 -19.87,184.139 -12.602,189.338c20,14.666 42.784,26.688 62.719,41.143c29.232,21.309 35.558,47.283 37.217,78.35c2.222,41.643 -73.686,56.094 -73.686,56.094l-126.609,0c0,0 -62.89,-38.843 -80.043,-80.648c-49.626,-122.678 -59.675,-248.212 -41.769,-375.94c8.544,-62.392 41.087,-160.126 20.754,-191.743c-20.334,-31.616 -117.256,1.143 -142.757,2.044c-229.798,9.707 -449.022,-26.207 -655.513,-108.313c-45.665,-18.333 -90.348,-37.417 -135.718,-55.72c-78.989,-31.736 -156.276,-22.149 -213.758,32.609c-99.448,94.819 -202.137,187.324 -317.495,269.28c-75.584,53.796 -153.657,105.248 -231.631,156.82c-18.299,12.172 -33.978,84.391 -38.529,104.316c-8.576,38.258 -9.689,75.675 10.639,112.851c13.323,24.765 38.078,50.012 44.516,76.216c10.475,42.634 -55.809,58.228 -55.809,58.228l-125.181,0c-0,0 -50.707,-66.931 -63.506,-102.557c-12.646,-35.2 -8.344,-147.653 -7.427,-165.956c3.732,-73.811 6.481,-147.503 10.639,-221.585c2.127,-33.6 13.519,-42.887 54.765,-51.632c11.784,-2.495 56.402,-32.578 68.35,-66.689c25.173,-68.943 53.652,-137.345 78.269,-206.829c45.01,-126.256 178.399,-275.662 204.952,-345.437c10.101,-26.543 -39.904,-48.687 -45.632,-73.21c-20.198,-82.498 73.915,-143.476 172.119,-113.543c26.941,7.934 107.796,34.291 118.238,29.603c125.309,-53.946 262.173,-69.093 401.132,-79.041c161.546,-11.781 323.485,-24.584 484.769,-39.07c76.795,-6.672 155.097,-12.021 229.339,-28.371c117.256,-25.906 215.428,-82.677 271.339,-169.292c78.596,-120.455 188.29,-213.35 323.747,-290.017c11.457,-6.372 18.527,-20.767 23.307,-32.488c12.144,-31.797 18.233,-65.427 33.782,-95.871c28.25,-55.239 61.541,-108.344 92.312,-162.41c12.505,-21.609 30.672,-36.365 62.72,-31.075c32.669,5.409 39.838,25.635 42.522,48.957c5.958,54.187 -18.32,124.111 18.986,156.94c37.307,32.829 138.763,24.373 204.854,40.031c32.571,7.904 64.193,23.202 93.229,38.649c48.677,25.816 67.957,113.693 69.954,113.693c72.344,3.486 72.344,3.486 92.934,62.542c7.693,23.442 21.065,45.807 24.027,69.664c2.963,23.858 -2.984,95.918 -19.542,114.288Z"/></svg>