<?xml version="1.0" encoding="UTF-8" standalone="no"?><!DOCTYPE svg PUBLIC "-//W3C//DTD SVG 1.1//EN" "http://www.w3.org/Graphics/SVG/1.1/DTD/svg11.dtd"><svg width="100%" height="100%" viewBox="0 0 3138 2459" version="1.1" xmlns="http://www.w3.org/2000/svg" xmlns:xlink="http://www.w3.org/1999/xlink" xml:space="preserve" xmlns:serif="http://www.serif.com/" style="fill-rule:evenodd;clip-rule:evenodd;stroke-linejoin:round;stroke-miterlimit:2;"><rect id="SIZE-STAFORD-10" serif:id="SIZE-STAFORD 10" x="1.692" y="1.002" width="3134.22" height="2453.41" style="fill:none;"/><clipPath id="_clip1"><rect x="1.692" y="1.002" width="3134.22" height="2453.41"/></clipPath><g clip-path="url(#_clip1)"><path id="M---BULL" serif:id="M - BULL" d="M1002.58,1495.09c-179.322,41.294 -110.773,391.455 -595.592,469.815c-75.769,12.246 -119.868,96.205 -173.704,150.865c-45.745,46.44 -70.746,107.062 -69.499,175.655c0.273,14.183 1.581,29.652 7.269,42.203c15.39,33.732 99.755,47.419 58.661,117.256c-0.71,1.207 -24.03,3.532 -24.03,3.532l-173.326,-0.362c0,0 -11.711,-29.401 -11.711,-49.734c0,-14.088 4.107,-73.673 11.711,-93.441c43.707,-113.682 86.624,-227.71 131.426,-340.954c5.961,-15.03 18.614,-30.123 32.088,-38.564c73.94,-46.282 138.878,-100.19 172.335,-186.479c7.999,-20.647 36.458,-34.708 35.647,-56.92c-18.384,-503.483 77.065,-323.782 156.03,-626.23c14.328,-54.877 -217.114,-113.528 -252.448,-130.867c-68.739,-33.732 -304.355,-171.402 -305.695,-182.049c-3.375,-26.828 166.301,50.864 185.098,62.254c40.148,24.381 234.821,115.832 361.246,119.795c155.317,4.869 452.431,-99.525 570.657,-90.582c129.509,9.758 472.384,-6.37 511.468,-21.055c122.818,-46.22 248.921,-87.294 351.452,-175.623c49.699,-42.8 96.539,-89.773 140.368,-138.973c100.767,-113.118 210.415,-214.501 338.373,-294.327c9.824,-6.087 16.759,-21.902 19.436,-34.453c9.398,-44.745 28.986,-62.787 74.214,-63.07c24.028,-0.157 48.117,1.538 72.085,0.439c21.899,-0.972 34.278,9.006 38.81,29.998c8.212,38.124 32.028,54.723 68.253,63.321c25.305,5.962 48.969,21.996 71.507,36.587c20.226,13.022 39.449,28.648 56.147,46.125c11.162,11.673 21.869,27.707 24.423,43.208c4.593,27.77 16.942,45.624 42.126,54.41c49.03,17.195 98.425,33.355 147.181,51.303c20.226,7.468 47.175,9.162 58.763,27.926c0.699,1.099 2.616,10.324 2.616,19.266c-0,10.7 -2.099,21.745 -2.616,24.099c-5.688,26.671 -23.755,48.95 -33.214,74.366c-19.466,52.464 -53.562,86.854 -108.401,94.636c-52.224,7.405 -98.029,43.647 -153.538,35.489c-5.931,-0.879 -12.531,0.753 -17.915,-1.318c-63.933,-24.381 -310.269,47.381 -333.689,78.476c-65.576,87.075 -110.5,181.554 -122.575,293.448c-18.584,171.576 -75.43,327.776 -194.507,454.48c-30.69,32.634 -40.605,74.461 -53.897,115.503c-25.306,78.006 -53.501,154.945 -78.837,232.951c-11.041,33.951 -20.865,68.938 -25.214,104.269c-1.582,12.834 -35.05,79.194 -34.492,121.339c0.715,53.923 -10.889,166.273 38.78,202.201c17.155,12.394 35.708,22.906 52.71,35.52c20.166,14.904 37.464,47.27 43.967,73.829c4.548,18.576 -25.186,29.401 -25.186,29.401l-164.627,0c0,0 -24.504,-33.178 -41.088,-49.734c-15.421,-15.407 -16.698,-60.431 -21.534,-85.345c-4.532,-23.126 -4.988,-47.067 -7.604,-70.601c-3.954,-35.834 -8.912,-70.569 -30.841,-101.665c-8.121,-11.484 -8.273,-33.229 -4.593,-48.385c10.585,-43.772 21.108,-225.357 23.602,-246.161c10.463,-87.356 42.719,-221.785 36.499,-265.019c-3.622,-25.178 -298.646,90.158 -471.024,-0c-81.668,-42.715 -329.627,-109.077 -403.551,-92.054Z"/></g></svg>