<?xml version="1.0" encoding="UTF-8" standalone="no"?><!DOCTYPE svg PUBLIC "-//W3C//DTD SVG 1.1//EN" "http://www.w3.org/Graphics/SVG/1.1/DTD/svg11.dtd"><svg width="100%" height="100%" viewBox="0 0 3138 2459" version="1.1" xmlns="http://www.w3.org/2000/svg" xmlns:xlink="http://www.w3.org/1999/xlink" xml:space="preserve" xmlns:serif="http://www.serif.com/" style="fill-rule:evenodd;clip-rule:evenodd;stroke-linejoin:round;stroke-miterlimit:2;"><rect id="SIZE-26-BULL" serif:id="SIZE 26-BULL" x="0" y="1.002" width="3134.22" height="2453.41" style="fill:none;"/><clipPath id="_clip1"><rect x="0" y="1.002" width="3134.22" height="2453.41"/></clipPath><g clip-path="url(#_clip1)"><path d="M1878.32,1700.18c5.402,42.236 13.875,81.731 14.858,121.41c2.694,108.078 24.856,215.882 3.182,324.578c-4.089,20.465 2.948,44.903 10.335,65.54c17.215,48.084 39.288,94.423 56.592,142.473c23.874,66.261 59.295,100.23 59.295,100.23l247.093,-0c-0,-0 33.861,-30.938 34.483,-55.424c0.494,-19.46 3.018,-29.688 -17.33,-44.744c-28.946,-21.428 -62.386,-36.677 -92.657,-56.462c-13.951,-9.105 -29.537,-20.472 -36.526,-34.677c-34.093,-69.374 -31.172,-144.796 -26.018,-218.657c8.116,-116.174 20.727,-232.058 33.516,-347.833c1.951,-17.703 12.225,-36.478 23.64,-50.765c29.928,-37.453 61.966,-73.291 94.368,-108.669c39.893,-43.569 62.097,-96.059 74.322,-152.149c36.154,-165.996 123.396,-293.399 276.171,-371.769c15.476,-7.937 37.453,-10.61 54.434,-6.824c55.657,12.405 110.483,28.575 165.446,43.961c48.573,13.593 95.076,10.9 138.831,-15.661c35.096,-21.297 71.512,-40.924 104.285,-65.382c43.521,-32.457 48.029,-63.038 19.805,-109.37c-71.621,-117.548 -161.77,-218.54 -274.431,-298.092c-53.088,-37.495 -108.237,-72.165 -163.413,-106.567c-21.572,-13.441 -25.798,-29.35 -18.52,-51.994c14.294,-44.49 28.327,-89.077 41.033,-134.034c3.045,-10.776 0.454,-23.146 0.454,-34.787c-3.553,-2.02 -7.092,-4.041 -10.638,-6.068c-36.601,38.47 -73.546,76.617 -109.721,115.493c-33.687,36.216 -68.776,68.976 -117.52,85.723c-24.211,8.315 -47.129,23.894 -67.038,40.498c-43.823,36.546 -89.496,72.191 -126.976,114.757c-79.078,89.799 -180.676,150.899 -275.669,219.228c-49.26,35.426 -115.246,48.277 -174.477,69.024c-161.852,56.675 -328.398,57.19 -497.371,45.878c-178.538,-11.964 -360.539,-37.501 -534.397,20.582c-135.457,45.253 -251.94,2.454 -368.635,-49.781c-98.265,-43.982 -172.47,-122.634 -251.438,-193.822c-41.384,-37.309 -86.232,-70.927 -130.894,-104.381c-11.428,-8.556 -28.1,-10.116 -36.793,-13.029c33.385,52.496 67.649,105.233 100.787,158.67c103.034,166.12 245.335,281.043 434.628,335.209c4.233,1.21 8.308,3.024 7.594,2.756c-26.328,73.937 -55.211,145.909 -77.065,219.956c-12.452,42.188 -16.596,87.6 -18.864,131.849c-4.013,78.466 -35.975,148.047 -62.763,219.489c-2.006,5.354 -4.824,10.522 -5.999,16.04c-17.29,80.919 -59.946,144.212 -122.338,199.209c-23.221,20.472 -34.629,61.197 -39.467,94.43c-16.073,110.484 -28.278,221.613 -38.518,332.811c-3.175,34.443 0.426,70.9 8.508,104.614c9.483,39.529 49.914,60.764 49.914,60.764l141.901,-0c-0,-0 63.883,-11.779 68.762,-42.924c4.969,-31.729 -23.159,-74.122 -49.919,-97.02c-16.623,-14.232 -43.995,-27.015 -46.868,-43.817c-5.463,-31.99 -5.25,-70.096 7.532,-99.082c36.313,-82.315 73.209,-166.017 123.355,-240.044c36.244,-53.507 91.386,-95.701 142.879,-136.976c59.574,-47.747 125.43,-87.571 186.447,-133.621c28.176,-21.256 54.455,-23.359 86.239,-12.707c73.58,24.678 146.397,53.981 221.942,70.007c193.389,41.012 388.372,35.047 583.108,5.772c57.423,-8.631 115.101,-15.579 176.524,-23.819" style="fill-rule:nonzero;"/></g></svg>