<?xml version="1.0" encoding="UTF-8" standalone="no"?>
<!DOCTYPE svg PUBLIC "-//W3C//DTD SVG 1.1//EN" "http://www.w3.org/Graphics/SVG/1.1/DTD/svg11.dtd">
<svg width="100%" height="100%" viewBox="0 0 753 589" version="1.1" xmlns="http://www.w3.org/2000/svg" xmlns:xlink="http://www.w3.org/1999/xlink" xml:space="preserve" xmlns:serif="http://www.serif.com/" style="fill-rule:evenodd;clip-rule:evenodd;stroke-linejoin:round;stroke-miterlimit:2;">
    <g transform="matrix(1,0,0,1,-6063.66,-3953.24)">
        <g transform="matrix(1,0,0,1,4191.62,3953.24)">
            <rect id="SIZE-28-DOBERMANN" serif:id="SIZE 28-DOBERMANN" x="1872.04" y="0" width="752.213" height="588.819" style="fill:none;"/>
            <clipPath id="_clip1">
                <rect id="SIZE-28-DOBERMANN1" serif:id="SIZE 28-DOBERMANN" x="1872.04" y="0" width="752.213" height="588.819"/>
            </clipPath>
            <g clip-path="url(#_clip1)">
                <g id="Izolovaný-režim" serif:id="Izolovaný režim">
                </g>
                <g transform="matrix(1.78601,0,0,1.78601,1936.95,42.3106)">
                    <path d="M219.147,193.513C216.324,193.513 213.841,193.645 211.374,193.491C197.427,192.619 183.454,191.982 169.552,190.633C162.808,189.978 156.251,187.573 149.517,186.614C136.604,184.775 123.638,184.858 110.668,186.478C105.699,187.1 102.001,189.249 99.084,193.319C93.173,201.569 87.158,209.753 80.956,217.785C76.829,223.13 72.134,228.005 66.376,231.673C64.353,232.963 62.205,234.114 59.994,235.043C44.511,241.551 30.516,250.397 17.812,261.366C13.17,265.374 10.407,270.179 10.796,276.358C11.106,281.31 11.732,286.253 12.477,291.16C12.834,293.513 14.536,294.41 17.044,295.245C20.496,296.395 23.712,296.191 26.608,298.431C29.255,300.476 25.189,305.776 25.189,305.776L5.29,305.751C5.29,305.751 3.02,304.253 2.62,303.174C1.676,300.622 1.076,297.925 0.548,295.245C0.258,293.774 -4.489,252.839 -4.489,248.887C-4.489,243.108 17.812,226.582 26.608,217.785C31.429,212.963 30.892,205.981 32.372,199.892C34.038,193.04 34.898,184.353 36.602,176.673C38.567,167.815 39.399,156.152 44.161,146.743C45.101,144.888 45.954,142.976 47.049,141.214C48.302,139.198 48.223,137.299 47.066,135.351C45.922,133.42 44.75,131.506 43.575,129.593C42.921,128.528 17.334,114.601 11.739,97.808C3.04,71.698 107.744,67.69 87.224,78.464C84.71,79.785 0.42,81.349 29.023,105.429C44.731,118.653 49.849,120.193 50.968,121.409C53.095,123.721 80.661,121.267 91.543,119.3C129.796,112.388 166.402,99.926 202.564,86.015C211.573,82.549 220.512,78.889 229.599,75.643C234.119,74.027 237.56,71.37 240.419,67.64C244.873,61.827 249.634,56.242 253.943,50.327C260.516,41.305 269.12,34.248 276.696,26.201C281.374,21.233 286.072,16.282 290.855,11.416C293.029,9.204 295.657,7.412 297.686,5.087C303.119,-1.14 305.331,-8.8 306.925,-16.712C307.4,-19.078 308.316,-23.199 308.944,-23.69C309.572,-24.181 310.719,-20.965 310.693,-19.656C310.585,-14.002 310.213,-8.352 310.188,-2.698C310.169,1.939 310.46,6.581 310.733,11.214C310.774,11.923 311.306,12.779 311.873,13.256C318.308,18.664 324.759,24.055 331.29,29.346C332.94,30.684 333.812,32.233 333.644,34.274C333.372,37.565 334.815,39.88 337.505,41.549C346.058,46.855 354.579,52.213 363.208,57.393C365.064,58.507 365.743,59.54 364.759,61.512C363.871,63.293 363.178,65.181 362.19,66.901C359.429,71.713 355.276,74.15 349.647,74.027C340.259,73.822 330.989,72.562 322.183,69.375C313.077,66.079 304.881,67.591 297.409,73.057C294.713,75.029 292.502,78.086 290.927,81.097C282.559,97.082 277.376,113.908 277.617,132.221C277.714,139.516 277.19,146.868 276.313,154.117C274.456,169.461 265.641,180.066 252.538,187.571C251.558,188.133 250.494,189.385 250.346,190.439C247.192,212.843 243.899,235.233 241.249,257.699C240.271,265.99 238.116,279.068 240.755,287.034C240.944,287.604 248.566,292.936 249.745,293.811C253.914,296.905 253.914,299.594 253.943,303.174C253.961,305.316 250.346,305.994 250.346,305.994L227.068,305.994C227.068,305.994 223.022,300.944 222.418,298.431C222.021,296.777 222.302,257.22 222.418,254.34C223.178,235.556 218.117,215.547 218.979,196.767C219.02,195.865 219.072,194.964 219.147,193.513" style="fill-rule:nonzero;"/>
                </g>
            </g>
        </g>
    </g>
</svg>
