<?xml version="1.0" encoding="UTF-8" standalone="no"?><!DOCTYPE svg PUBLIC "-//W3C//DTD SVG 1.1//EN" "http://www.w3.org/Graphics/SVG/1.1/DTD/svg11.dtd"><svg width="100%" height="100%" viewBox="0 0 261 237" version="1.1" xmlns="http://www.w3.org/2000/svg" xmlns:xlink="http://www.w3.org/1999/xlink" xml:space="preserve" xmlns:serif="http://www.serif.com/" style="fill-rule:evenodd;clip-rule:evenodd;stroke-linejoin:round;stroke-miterlimit:2;"><path d="M238.554,65.892c-1.701,-3.021 -1.184,-2.792 3.724,-3.782c3.689,-0.744 11.438,-3.675 12.968,-5.506c3.567,-4.267 7.304,-16.713 2.903,-18.195c-5.972,-2.011 -16.061,-0.061 -19.568,-4.468c-4.071,-5.116 -5.077,-10.696 -9.679,-14.143c-6.579,-4.927 -10.952,-3.881 -14.751,-8.02c-4.049,-4.413 -3.208,-11.614 -6.264,-11.775c-3.055,-0.162 -8.007,6.664 -11.279,10.12c-3.522,3.721 -4.799,-0.011 -9.395,2.467c-13.043,7.033 -28.453,35.324 -38.287,42.82c-7.102,5.414 -17.088,10.809 -25.549,7.745c-8.46,-3.064 -14.762,-26.745 -25.892,-30.251c-12.678,-3.993 -28.693,-2.232 -40.876,1.952c-10.592,3.638 -32.653,16.008 -32.884,26.605c-0.31,14.226 -16.792,29.576 -22.053,43.946c-6.008,16.412 6.138,47.442 5.699,62.071c-0.287,9.562 -0.036,13.38 -3.794,25.761c-3.378,11.132 -1.045,23.619 1.734,40.038c0.224,1.324 3.691,2.943 3.691,2.943l18.751,0c-0,0 2.406,0.123 3.012,-1.958c0.632,-2.166 -0.192,-8.073 -1.55,-9.837c-1.541,-2.001 -6.234,-0.467 -6.811,-2.405c-1.173,-3.941 1.847,-16.12 7.442,-22.14c8.085,-8.701 40.651,-19.602 42.185,-32.119c0.256,-2.089 5.169,-5.768 6.312,-5.578c19.936,3.296 50.093,16.923 62.759,21.706c10.392,3.924 3.812,11.449 5.938,15.842c1.846,3.814 6.829,10.176 8.517,12.805c1.175,1.829 1.717,3.322 3.034,5.062c1.881,2.486 8.131,5.057 9.108,8.211c1.621,5.227 5.098,10.411 5.098,10.411l21.904,0c0,0 4.134,-5.815 0.869,-11.508c-2.007,-3.499 -8.214,-0.823 -8.347,-3.376c-0.555,-10.623 0.65,-30.331 6.084,-43.679c0.599,-1.474 0.77,-1.314 2.309,-2.243c20.021,-12.076 73.773,-54.749 42.938,-109.522Z"/></svg>