<?xml version="1.0" encoding="UTF-8" standalone="no"?><!DOCTYPE svg PUBLIC "-//W3C//DTD SVG 1.1//EN" "http://www.w3.org/Graphics/SVG/1.1/DTD/svg11.dtd"><svg width="100%" height="100%" viewBox="0 0 3138 2459" version="1.1" xmlns="http://www.w3.org/2000/svg" xmlns:xlink="http://www.w3.org/1999/xlink" xml:space="preserve" xmlns:serif="http://www.serif.com/" style="fill-rule:evenodd;clip-rule:evenodd;stroke-linejoin:round;stroke-miterlimit:2;"><rect id="SIZE-22-MALAMUTE" serif:id="SIZE 22-MALAMUTE" x="0" y="1.002" width="3134.22" height="2453.41" style="fill:none;"/><clipPath id="_clip1"><rect x="0" y="1.002" width="3134.22" height="2453.41"/></clipPath><g clip-path="url(#_clip1)"><path d="M2450.49,167.922c-63.086,18.335 -129.244,37.562 -180.372,76.165c-139.787,105.543 -264.638,227.389 -385.516,351.097c-235.285,240.791 -629.025,236.732 -936.392,181.807c-63.521,-11.351 -252.128,-6.871 -303.959,-42.482c-26.704,-18.348 24.976,-118.293 51.154,-137.27c51.836,-37.576 288.159,-31.615 407.655,0c36.724,9.716 209.972,59.482 222.861,26.413c19.329,-49.595 -103.93,-201.012 -186.422,-255.873c-130.508,-86.796 -328.662,-180.974 -495.248,-118.039c-243.656,92.052 -344.253,225.105 -401.946,472.064c-18.992,81.297 76.047,177.607 28.09,248.111c-129.576,190.498 -189.473,584.519 -188.694,805.651c0.372,105.377 -46.526,271.22 -80.02,478.551c-14.034,86.87 64.434,199.752 64.434,199.752l176.19,-0c-0,-0 81.846,7.523 111.057,-33.285c15.436,-21.564 3.314,-41.345 -34.92,-98.524c-36.931,-55.23 -87.777,-2.067 -109.021,-36.77c-37.764,-61.69 3.06,-214.337 25.774,-249.954c108.764,-170.547 536.098,-119.319 616.118,-554.006c6.93,-37.646 175.343,5.356 391.718,86.495c206.364,77.385 454.895,193.785 707.461,133.638c34.349,-8.18 94.015,377.123 66.241,583.827c-12.793,95.215 68.693,168.579 68.693,168.579l215.986,-0c-0,-0 59.154,-0.034 56.674,-33.285c-2.996,-40.161 -28.03,-113.562 -66.629,-119.357c-49.294,-7.401 -82.595,-75.788 -73.497,-135.657c33.679,-221.631 49.533,-306.836 90.775,-417.715c25.954,-69.774 61.961,-149.713 118.79,-280.213c46.13,-105.928 82.486,-145.525 140.021,-240.21c63.256,-104.1 96.893,-153.619 88.472,-320.194c-1.527,-30.212 38.63,-188.641 68.952,-200.385c85.17,-32.989 273.022,4.219 322.525,-73.925c58.253,-91.957 117.925,-149.364 68.148,-208.938c-44.138,-52.825 -193.008,-27.951 -251.34,-67.05c-39.63,-26.563 -36.819,-86.562 -72.047,-117.931c-40.133,-35.735 -111.971,-35.157 -145.79,-76.04c-31.756,-38.39 34.281,-190.518 -33.97,-157.245c-68.164,33.231 -125.532,101.242 -162.006,162.198Z" style="fill-rule:nonzero;"/></g></svg>