<?xml version="1.0" encoding="UTF-8" standalone="no"?><!DOCTYPE svg PUBLIC "-//W3C//DTD SVG 1.1//EN" "http://www.w3.org/Graphics/SVG/1.1/DTD/svg11.dtd"><svg width="100%" height="100%" viewBox="0 0 3138 2459" version="1.1" xmlns="http://www.w3.org/2000/svg" xmlns:xlink="http://www.w3.org/1999/xlink" xml:space="preserve" xmlns:serif="http://www.serif.com/" style="fill-rule:evenodd;clip-rule:evenodd;stroke-linejoin:round;stroke-miterlimit:2;"><rect id="SIZE-SCHNAUZER-13" serif:id="SIZE-SCHNAUZER 13" x="1.911" y="1.002" width="3134.22" height="2453.41" style="fill:none;"/><clipPath id="_clip1"><rect x="1.911" y="1.002" width="3134.22" height="2453.41"/></clipPath><g clip-path="url(#_clip1)"><path d="M2642.51,695.013c7.393,2.303 16.291,25.919 20.782,36.48c6.406,15.088 11.319,30.601 16.219,46.065c2.926,9.217 32.944,114.491 54.497,155.314c11.294,21.393 28.284,41.616 47.008,59.44c14.1,13.415 33.969,42.241 54.436,33.889c31.736,-12.95 100.975,-86.724 135.978,-111.589c7.935,-5.629 50.367,-38.463 52.932,-42.061c18.771,-26.471 38.265,-52.709 54.665,-80.128c6.647,-11.103 28.224,-106.018 44.587,-138.04c20.229,-39.605 18.82,-58.116 -25.767,-82.362c-48.838,-26.558 -99.843,-50.533 -149.608,-76.008c-11.487,-5.88 -56.32,-31.279 -32.667,-44.821c9.505,-5.442 69.693,-28.189 31.836,-50.578c-28.175,-16.654 -55.303,-34.488 -84.069,-50.446c-15.412,-8.559 -148.006,-60.079 -193.629,-84.084c-26.622,-14.004 -27.453,-38.163 -26.526,-60.978c1.77,-43.367 -4.552,-134.001 -23.359,-138.814c-18.808,-4.813 -58.892,73.677 -89.488,109.935c-28.356,33.618 -86.213,121.377 -94.22,126.444c-53.413,33.773 -107.742,66.617 -161.311,100.245c-56.123,35.252 -95.653,81.53 -133.425,129.268c-38.639,48.831 -79.313,96.637 -119.771,144.52c-26.261,31.065 -63.419,50.205 -107.308,62.671c-111.161,31.578 -220.769,67.023 -333.243,95.167c-65.334,16.355 -134.496,24.943 -202.768,31.22c-179.939,16.547 -360.407,29.372 -540.515,44.788c-95.447,8.163 -191.401,15.155 -285.513,29.527c-47.814,7.312 -90.414,13.995 -135.327,-5.88c-26.694,-11.809 -377.494,-377.424 -414.084,-327.204c-21.727,29.821 338.865,374.081 348.654,388.878c7.502,11.306 15.148,23.415 26.442,32.042c21.216,16.238 23.696,31.877 11.077,53.086c-61.709,103.736 -63.66,215.925 -71.402,327.582c-5.828,84.199 -8.537,170.362 -49.163,248.981c-35.243,68.212 -76.941,135.487 -157.362,180.749c-25.009,14.082 -47.308,35.407 -60.89,57.371c-15.533,25.127 -21.542,54.412 -28.718,82.391c-5.31,20.678 -5.671,42.139 -8.585,63.232c-2.384,17.341 -7.116,34.604 -7.55,51.955c-1.18,50.224 2.372,100.622 -1.854,150.633c-3.612,42.854 8.465,82.787 21.276,123.127c10.777,33.985 106.345,87.389 106.345,87.389l158.264,0c-0,0 97.96,-5.279 110.139,-19.796c8.406,-10.02 3.576,-52.941 -0,-65.495c-9.224,-32.312 -78.735,-95.381 -95.039,-125.895c-44.105,-82.478 3.749,-173.825 75.85,-239.02c3.858,-3.489 174.274,-147.937 256.567,-215.944c101.649,-83.987 256.057,-128.202 325.075,-231.444c25.418,-38.029 66.767,-45.543 107.621,-43.416c71.318,3.714 144.551,9.894 212.124,27.226c98.844,25.339 192.859,62.583 290.016,92.449c49.38,15.174 100.831,26.325 152.04,37.215c19.29,4.101 88.774,10.262 88.979,26.007c0.818,65.872 64.012,573.879 64.406,598.619c1.06,66.553 91.702,159.494 91.702,159.494l271.074,0c-0,0 60.839,1.572 77.803,-48.191c3.711,-10.886 2.288,-30.446 0,-39.198c-6.249,-23.879 -31.029,-41.578 -49.391,-59.373c-33.823,-32.787 -49.368,-67.236 -52.005,-109.239c-4.816,-76.849 -18.278,-153.409 -21.228,-230.248c-4.696,-122.305 8.019,-243.981 34.545,-364.632c11.62,-52.855 59.278,-90.37 88.079,-135.903c34.413,-54.373 75.147,-106.309 106.719,-161.678c33.04,-57.961 24.346,-121.231 22.552,-183.148c-0.445,-15.764 1.084,-32.302 6.574,-47.332c28.694,-78.599 55.942,-157.683 89.885,-234.851c18.82,-42.786 49.513,-82.236 75.461,-122.943c3.865,-6.084 16.182,-24.964 23.576,-22.66Z" style="fill-rule:nonzero;"/></g></svg>