<?xml version="1.0" encoding="UTF-8" standalone="no"?><!DOCTYPE svg PUBLIC "-//W3C//DTD SVG 1.1//EN" "http://www.w3.org/Graphics/SVG/1.1/DTD/svg11.dtd"><svg width="100%" height="100%" viewBox="0 0 3138 2459" version="1.1" xmlns="http://www.w3.org/2000/svg" xmlns:xlink="http://www.w3.org/1999/xlink" xml:space="preserve" xmlns:serif="http://www.serif.com/" style="fill-rule:evenodd;clip-rule:evenodd;stroke-linejoin:round;stroke-miterlimit:2;"><rect id="SIZE-19-POODLE" serif:id="SIZE 19-POODLE" x="1.692" y="1.002" width="3134.22" height="2453.41" style="fill:none;"/><clipPath id="_clip1"><rect x="1.692" y="1.002" width="3134.22" height="2453.41"/></clipPath><g clip-path="url(#_clip1)"><g id="Vrstva-1" serif:id="Vrstva 1"><path d="M608.864,1997.06c204.237,-120.949 350.862,-275.504 457.854,-466.106c59.415,-105.822 271.238,-109.223 356.577,-19.583c132.591,139.29 296.294,200.634 499.272,155.286c53.7,-12.005 108.421,-20.065 176.001,-32.365c5.63,76.439 10.427,141.681 15.581,211.505c-111.347,7.407 -145.877,307.807 -119.392,374.912c31.434,79.67 86.988,157.32 152.51,217.189c11.605,10.596 24.396,16.514 24.396,16.514l153.342,-0.518c21.78,-17.254 4.749,-98.528 -47.579,-95.697c145.706,-121.181 127.012,-456.042 -41.946,-513.441c12.06,-66.453 20.395,-135.143 38.833,-201.488c6.396,-22.984 35.057,-43.639 58.361,-59.418c186.802,-126.57 285.663,-290.864 250.606,-506.282c-9.56,-58.812 -107.502,-205.852 -115.888,-226.709c-18.694,-46.512 -64.887,-116.916 -46.182,-142.877c18.705,-25.961 105.529,-11.554 158.413,-12.89c89.726,-2.298 180.066,3.914 269.01,-4.053c28.066,-2.516 74.061,-33.389 74.061,-61.142c-0,-36.668 -76.944,-49.148 -135.805,-86.745c-64.928,-41.473 -112.369,-108.245 -112.369,-152.761c0,-36.348 -49.831,-39.648 -66.637,-53.02c14.288,-53.066 47.263,-92.357 54.918,-142.69c18.047,-118.402 -60.811,-211.831 -186.003,-190.679c-180.848,30.563 -359.69,80.151 -531.795,139.864c-58.871,20.422 -104.151,91.022 -138.834,147.319c-36.741,59.651 -54.942,129.148 -78.654,195.105c-38.85,108.043 -109.56,193.459 -198.572,273.159c-70.795,63.379 -119.835,146.744 -181.206,219.363c-18.711,22.162 -43.749,50.1 -70.251,54.775c-110.478,19.475 -222.182,35.346 -334.226,44.23c-87.107,6.91 -129.632,-40.658 -173.585,-178.814c111.346,-48.035 136.912,-134.056 115.565,-241.571c-4.797,-24.134 18.353,-52.678 27.811,-79.452c42.031,-119.163 2.347,-214.456 -114.97,-276.887c-110.682,-58.906 -215.259,-46.186 -298.318,36.278c-64.535,64.093 -73.976,156.373 -34.683,237.829c24.018,49.836 41.538,104.285 49.363,158.19c11.838,81.579 44.548,141.821 136.674,167.243c16.686,4.597 31.553,23.14 41.095,38.453c9.458,15.157 87.465,194.608 -3.895,268.531c-33.135,26.836 -27.012,101.365 -26.365,153.997c0.816,64.046 17.792,127.766 22.402,191.937c10.104,140.252 -50.111,256.309 -157.103,353.326c-13.693,12.408 -39.667,23.528 -57.136,20.701c-105.274,-16.912 -185.169,14.909 -232.269,101.288c-47.441,86.937 50.961,181.162 50.961,281.825c0,47.506 70.388,143.203 70.388,143.203l226.688,0.518c0,-0 0,-72.032 -53.121,-83.992c46.828,-55.024 105.954,-106.754 140.467,-169.729c38.783,-70.74 7.621,-140.423 -64.365,-203.631" style="fill-rule:nonzero;"/></g></g></svg>