<?xml version="1.0" encoding="UTF-8" standalone="no"?><!DOCTYPE svg PUBLIC "-//W3C//DTD SVG 1.1//EN" "http://www.w3.org/Graphics/SVG/1.1/DTD/svg11.dtd"><svg width="100%" height="100%" viewBox="0 0 3138 2459" version="1.1" xmlns="http://www.w3.org/2000/svg" xmlns:xlink="http://www.w3.org/1999/xlink" xml:space="preserve" xmlns:serif="http://www.serif.com/" style="fill-rule:evenodd;clip-rule:evenodd;stroke-linejoin:round;stroke-miterlimit:2;"><rect id="SIZE-20-BOXER" serif:id="SIZE 20-BOXER" x="1.692" y="1.002" width="3134.22" height="2453.41" style="fill:none;"/><clipPath id="_clip1"><rect x="1.692" y="1.002" width="3134.22" height="2453.41"/></clipPath><g clip-path="url(#_clip1)"><path d="M2015.41,1629.52c-46.787,-32.553 -140.301,-43.24 -172.62,-50.544c-57.88,-13.082 -294.244,-103.422 -361.136,-107.602c-83.247,-5.202 -266.428,-1.673 -271.95,3.143c-5.404,4.714 -90.407,40.732 -105.035,91.614c-14.972,52.076 -36.499,106.025 -99.77,169.399c-83.174,83.31 -249.161,168.931 -254.424,172.578c-37.663,26.103 -73.984,54.095 -110.684,81.535c-79.438,59.395 -164.619,120.92 -171.062,229.51c-1.595,26.882 2.576,54.014 8.011,80.389c4.705,22.833 23.443,53.585 44.028,65.844c28.676,17.077 75.016,11.824 84.782,52.334c6.615,27.436 -27.75,36.519 -27.75,36.519l-169.202,0.177c-0,-0 -19.331,-19.82 -27.877,-36.27c-16.887,-32.503 -22.563,-59.795 -24.665,-96.09c-7.221,-124.676 -10.43,-206.403 7.46,-330.447c1.065,-7.384 7.78,-12.951 13.209,-18.069c47.117,-44.425 96.861,-86.004 144.125,-130.274c46.609,-43.658 83.476,-115.292 118.941,-171.11c43.633,-68.672 -34.241,-444.447 110.684,-569.78c23.919,-20.686 108.105,-98.435 103.144,-143.981c-2.392,-21.957 -43.398,-88.711 -45.365,-93.543c-27.537,-67.637 -13.25,-140.871 23.418,-201.368c6.257,-10.323 28.553,-34.734 41.139,-36.778c51.827,-8.417 25.247,74.001 23.071,90.222c-8.259,61.552 -11.497,135.624 57.039,164.528c40.524,17.09 99.685,-14.455 136.776,-21.336c34.009,-6.309 68.713,-8.106 102.916,-13.249c243.385,-36.602 476.969,-67.081 706.433,-157.244c165.903,-65.189 188.009,-278.806 281.796,-408.489c21.445,-29.653 47.355,-56.168 74.874,-80.291c17.882,-15.675 60.818,-22.464 75.294,-44.34c23.348,-35.286 2.329,-51.98 17.475,-87.265c6.922,-16.127 31.64,-28.084 46.18,-33.881c33.645,-13.415 108.172,-50.214 150.887,-31.33c51.145,22.611 57.93,47.659 99.952,82.029c50.271,41.116 71.826,37.672 114.523,92.121c23.625,30.128 -14.637,99.922 20.767,122.973c31.312,20.385 36.626,-6.129 71.072,9.525c10.59,4.813 16.587,33.347 18.94,41.487c16.537,57.214 24.925,69.319 22.165,129.83c-3.04,66.673 -40.197,71.834 -96.482,96.872c-59.031,26.26 -108.158,57.81 -174.222,44.38c-32.733,-6.654 -117.316,-60.648 -140.247,-8.256c-5.805,13.263 -8.627,27.991 -9.145,42.459c-2.984,83.344 10.156,81.515 16.371,165.194c11.217,151.051 21.015,301.743 -8.727,451.179c-9.667,48.569 -28.459,101.296 -53.115,144.35c-24.332,42.488 -67.678,87.374 -87.055,133.105c-51.147,120.71 -43.057,272.872 -41.673,398.166c0.487,44.044 4.953,87.964 6.3,131.989c2.708,88.512 -5.633,150.096 40.636,229.453c27.848,47.763 66.101,26.7 107.272,60.48c4.537,3.722 21.548,65.017 12.52,75.039c-4.556,5.057 -38,8.01 -38,8.01l-122.428,-0c0,-0 -36.669,-11.14 -57.184,-23.544c-20.356,-12.309 -24.139,-26.485 -32.436,-51.228c-66.866,-199.404 -58.519,-480.333 -91.844,-605.353c-15.511,-58.195 -61.315,-112.219 -108.102,-144.771Z" style="fill-rule:nonzero;"/></g></svg>