<?xml version="1.0" encoding="UTF-8" standalone="no"?><!DOCTYPE svg PUBLIC "-//W3C//DTD SVG 1.1//EN" "http://www.w3.org/Graphics/SVG/1.1/DTD/svg11.dtd"><svg width="100%" height="100%" viewBox="0 0 3138 2459" version="1.1" xmlns="http://www.w3.org/2000/svg" xmlns:xlink="http://www.w3.org/1999/xlink" xml:space="preserve" xmlns:serif="http://www.serif.com/" style="fill-rule:evenodd;clip-rule:evenodd;stroke-linejoin:round;stroke-miterlimit:2;"><rect id="SIZE-HOUND-11" serif:id="SIZE-HOUND 11" x="0" y="1.002" width="3134.22" height="2453.41" style="fill:none;"/><clipPath id="_clip1"><rect x="0" y="1.002" width="3134.22" height="2453.41"/></clipPath><g clip-path="url(#_clip1)"><path id="M---HOUND" serif:id="M - HOUND" d="M3038.97,475.745c-15.9,8.906 -32.502,14.25 -141.729,26.568c-68.606,7.759 -135.426,3.859 -164.434,15.97c-17.848,7.452 5.249,44.199 -9.614,56.698c-27.223,22.824 -77.67,-21.194 -125.523,-15.005c-97.874,12.711 -187.599,235.939 -177.985,447.211c6.256,137.548 51.21,194.849 9.125,303.806c-18.128,46.977 -36.989,63.491 -70.742,151.918c-22.889,59.959 -27.956,88.307 -57.04,160.493c-25.3,62.675 -31.251,65.634 -47.945,106.964c-22.858,56.668 -33.784,126.287 -54.75,263.17c-0.824,5.374 -21.516,291.705 -0,310.121c29.084,24.938 86.845,3.684 120.538,49.095c14.149,19.07 21.393,50.212 22.828,57.638c3.845,20.349 -13.703,44.023 -13.703,44.023l-147.487,-0c-0,-0 -64.649,-52.127 -82.583,-86.425c-18.851,-36.052 -13.011,-260.423 -22.716,-374.452c-18.158,-213.657 -11.373,-303.383 -73.143,-355.16c-53.408,-44.833 -79.806,-14.763 -248.727,-59.928c-156.958,-41.964 -162.482,-75.506 -333.173,-124.082c-141.637,-40.335 -215.401,-60.291 -298.93,-32.093c-46.633,15.699 -89.664,51.113 -175.727,121.939c-94.883,78.103 -236.611,241.916 -310.039,300.214c-115.544,91.718 -139.623,97.183 -201.119,181.867c-31.068,42.78 -69.939,111.855 -88.83,233.221c-7.507,48.123 -3.021,61.255 10.194,70.524c16.916,11.865 17.074,11.056 37.863,22.714c58.459,32.781 57.047,48.847 45.084,73.341c-11.238,23.011 -45.084,28.32 -45.084,28.32l-120.441,-0c0,-0 -25.967,-14.825 -42.834,-40.445c-20.364,-30.932 6.501,-248.467 17.213,-297.828c32.869,-151.285 52.797,-130.423 123.265,-258.883c66.439,-121.124 115.239,-310.78 143.438,-456.389c30.213,-156.145 135.228,-205.717 100.406,-278.174c-23.316,-48.486 -90.488,-68.019 -180.274,-94.134c-77.181,-22.432 -91.769,-12.046 -187.11,-32.093c-64.882,-13.615 -211.799,-84.412 -241.921,-111.251c-22.737,-20.258 34.577,-52.32 36.531,-53.498c55.757,-33.753 117.71,63.038 266.977,87.734c61.465,10.144 264.78,61.105 346.875,74.872c67.264,11.291 111.607,-3.079 193.947,-21.375c114.109,-25.36 261.667,-40.455 556.844,-70.615c187.964,-19.232 194.404,-12.62 276.102,-29.949c151.495,-32.153 261.729,-55.52 346.845,-139.087c21.058,-20.681 70.621,-116.052 168.891,-305.98c44.526,-86.073 54.476,-107.086 82.126,-141.201c31.22,-38.493 106.296,-128.52 235.054,-160.462c33.785,-8.393 93.082,-23.096 157.477,-2.143c61.342,19.955 70.132,53.708 118.657,85.559c129.643,85.137 278.116,-17.148 330.883,47.097c42.116,51.294 -39.836,178.082 -83.56,219.575" style="fill-rule:nonzero;"/></g></svg>