<?xml version="1.0" encoding="UTF-8" standalone="no"?><!DOCTYPE svg PUBLIC "-//W3C//DTD SVG 1.1//EN" "http://www.w3.org/Graphics/SVG/1.1/DTD/svg11.dtd"><svg width="100%" height="100%" viewBox="0 0 3138 2459" version="1.1" xmlns="http://www.w3.org/2000/svg" xmlns:xlink="http://www.w3.org/1999/xlink" xml:space="preserve" xmlns:serif="http://www.serif.com/" style="fill-rule:evenodd;clip-rule:evenodd;stroke-linejoin:round;stroke-miterlimit:2;"><rect id="SIZE-21-BARBET" serif:id="SIZE 21-BARBET" x="0" y="1.002" width="3134.22" height="2453.41" style="fill:none;"/><clipPath id="_clip1"><rect x="0" y="1.002" width="3134.22" height="2453.41"/></clipPath><g clip-path="url(#_clip1)"><path d="M671.382,2454.16l-555.402,0c-14.283,-17.918 -28.589,-35.866 -41.569,-54.72c-10.802,-15.689 -21.431,-31.652 -29.686,-48.774c-35.218,-73.043 -37.701,-171.535 4.967,-243.17c18.201,-30.556 43.609,-56.364 64.774,-85.011c10.825,-14.651 22.265,-29.005 31.176,-44.856c11.359,-20.208 -55.194,-31.083 -66.239,-41.349c-41.255,-38.346 -47.567,-71.862 -57.934,-128.356c-3.37,-18.36 11.094,-17.581 23.368,-18.634c25.546,-2.191 51.319,-1.755 76.775,-4.798c74.425,-8.894 87.461,-10.827 134.347,-86.187c45.103,-72.492 52.436,-206.248 65.973,-275.92c25.81,-132.848 54.189,-230.368 146.317,-329.677c199.042,-214.561 507.777,-290.961 791.579,-306.348c217.542,-11.795 216.881,-5.157 434.564,-28.715c91.801,-9.935 199.234,-22.273 282.44,-65.206c62.712,-32.36 126.629,-68.987 160.722,-132.463c20.534,-38.231 87.466,-174.153 101.477,-203.592c17.832,-37.467 4.304,-102.283 7.178,-133.944c2.836,-31.239 61.692,-89.948 78.991,-104.408c38.222,-31.949 234.357,-118.981 277.34,-116.995c29.407,1.359 225.821,-2.982 298.147,63.073c44.203,40.371 79.981,104.766 107.73,153.414c18.738,32.85 -29.074,56.093 1.315,91.951c26.732,31.541 73.189,42.331 100.693,73.222c20.356,22.861 36.011,213.914 10.66,274.814c-38.244,91.869 -190.743,128.862 -214.522,131.549c-29.361,3.316 -102.9,-27.983 -112.993,19.398c-6.839,32.102 34.829,186.233 41.139,219.271c7.72,40.416 36.479,79.161 65.978,199.817c54.885,224.494 -37.437,493.759 -57.84,507.726c-11.47,7.852 -71.71,39.183 -80.208,46.271c-34.475,28.753 -75.538,72.174 -90.563,113.967c-12.417,34.543 -20.054,158.975 -20.865,196.563c-0.61,28.281 -8.259,88.949 11.12,123.269c23.215,41.113 91.26,53.512 89.442,104.875c-0.91,25.7 -18.156,86.69 -32.463,100.868c-15.079,14.941 -39.541,16.251 -59.943,22.598c-15.397,4.79 -31.336,7.769 -47.201,10.734l-392.506,-0c-7.652,-9.172 -15.376,-18.431 -24.481,-26.213c-9.668,-8.263 -20.132,-15.84 -31.503,-21.635c-6.419,-3.271 -97.833,-36.684 -98.881,-38.646c-15.598,-29.193 -8.983,-65.479 -10.201,-98.441c-3.377,-91.385 5.494,-182.918 2.728,-274.322c-0.508,-16.813 -0.478,-98.408 -25.408,-121.649c-17.029,-15.876 -30.972,-14.692 -48.758,-15.868c-56.841,-3.758 -113.604,-13.838 -170.517,-11.362c-37.633,1.637 -72.854,21.108 -110.439,23.585c-49.889,3.288 -99.905,-8.571 -149.857,-6.432c-75.443,3.232 -149.872,22.119 -225.384,22.505c-27.081,0.138 -51.459,-18.281 -78.403,-20.955c-84.698,-8.407 -135.695,17.191 -201.94,61.736c-94.675,63.663 -103.734,94.284 -223.972,193.424c-36.097,29.762 -74.896,56.4 -114.697,81.17c-26.952,16.773 -60.75,22.791 -85.035,43.13c-8.006,6.705 -4.67,20.606 -3.322,30.867c5.733,43.62 71.52,71.023 89.004,110.554c12.411,28.061 -6.218,45.523 -24.005,60.896c-3.806,3.289 -8.577,5.375 -13.207,7.399Z" style="fill-rule:nonzero;"/></g></svg>