<?xml version="1.0" encoding="UTF-8" standalone="no"?><!DOCTYPE svg PUBLIC "-//W3C//DTD SVG 1.1//EN" "http://www.w3.org/Graphics/SVG/1.1/DTD/svg11.dtd"><svg width="100%" height="100%" viewBox="0 0 3138 2459" version="1.1" xmlns="http://www.w3.org/2000/svg" xmlns:xlink="http://www.w3.org/1999/xlink" xml:space="preserve" xmlns:serif="http://www.serif.com/" style="fill-rule:evenodd;clip-rule:evenodd;stroke-linejoin:round;stroke-miterlimit:2;"><rect id="SIZE-23-GREAT-DANE" serif:id="SIZE 23-GREAT DANE" x="1.911" y="1.002" width="3134.22" height="2453.41" style="fill:none;"/><clipPath id="_clip1"><rect x="1.911" y="1.002" width="3134.22" height="2453.41"/></clipPath><g clip-path="url(#_clip1)"><path id="XL---GREAT-DANE" serif:id="XL - GREAT DANE" d="M2103.87,1538.28c0,0 -362.073,-41.821 -481.593,-91.318c-129.64,-53.701 -552.401,-142.186 -597.625,-79.328c-66.203,92.016 -341.71,351.456 -374.576,382.708c-67.488,64.27 -137.742,127.322 -213.561,185.165c-129.9,99.147 -216.424,212.458 -215.48,361.315c0.163,26.592 27.203,54.584 52.52,74.14c22.81,17.575 73.65,-0.535 77.002,67.782c0.21,4.284 1.877,29.843 1.877,29.843l-235.875,-0.466c-0,-0 -16.996,-26.736 -21.682,-37.032c-18.711,-41.029 -30.035,-70.049 -15.099,-114.215c6.053,-17.759 11.91,-49.263 13.7,-67.539c7.809,-81.084 14.187,-162.259 20.923,-243.435c3.71,-44.38 15.131,-81.054 70.677,-108.011c139.565,-67.742 192.735,-180.2 204.092,-302.953c11.356,-122.54 5.011,-382.424 3.351,-389.034c-6.605,5.3 -34.037,226.804 -70.221,329.789c-31.694,90.131 -74.062,175.54 -160.455,241.516c-43.799,33.415 -143.275,57.549 -157.853,58.697c-14.577,1.147 51.642,-33.293 70.385,-51.813c113.369,-112.305 171.551,-242.491 193.711,-385.378c15.814,-101.675 37.844,-202.771 60.134,-303.685c22.485,-101.523 102.501,-170.484 204.157,-227.505c101.297,-56.838 216.977,-77.368 335.521,-81.693c149.359,-5.513 729.711,-11.879 868.885,-25.221c168.168,-16.082 290.974,-91.379 368.712,-211.696c31.629,-49.04 58.214,-100.456 82.522,-152.116c39.504,-83.826 72.271,-169.784 145.422,-240.511c8.72,-8.438 10.347,-21.84 14.382,-33.171c14.643,-40.512 35.827,-76.12 91.731,-89.674c16.01,-3.899 31.754,-13.504 46.402,-16.205c13.569,-2.502 28.033,-2.988 41.489,0c19.638,4.361 50.111,19.495 76.339,26.165c38.007,9.656 77.445,15.657 115.647,24.825c53.236,12.763 91.145,38.867 114.867,80.871c8.59,15.321 31.076,30.277 51.218,35.729c75.623,20.469 191.309,39.248 229.57,54.889c12.714,5.197 -17.701,109.016 -27.984,143.74c-18.548,62.717 -59.646,88.821 -138.751,89.522c-9.209,0.091 -120.854,4.508 -163.579,-26.348c-46.24,-33.384 -137.808,-34.115 -144.739,41.7c-9.111,99.542 -13.927,199.603 -12.853,299.42c1.041,97.959 13.927,195.796 16.986,293.786c0.976,31.434 -146.268,372.341 -174.513,406.456c-52.812,63.844 -127.915,632.195 -88.769,789.642c6.508,26.073 9.665,38.379 44.385,67.194c21.964,18.246 95.582,38.288 98.218,103.35c0.163,4.295 -4.913,17.294 -11.291,19.944l-241.2,-0c0,-0 -20.468,-63.714 -33.646,-66.608c-43.148,-9.351 1.204,-217.575 -5.239,-235.15c-26.097,-71.398 -94.193,-442.521 -128.241,-628.083"/></g></svg>