<?xml version="1.0" encoding="UTF-8" standalone="no"?><!DOCTYPE svg PUBLIC "-//W3C//DTD SVG 1.1//EN" "http://www.w3.org/Graphics/SVG/1.1/DTD/svg11.dtd"><svg width="100%" height="100%" viewBox="0 0 3138 2459" version="1.1" xmlns="http://www.w3.org/2000/svg" xmlns:xlink="http://www.w3.org/1999/xlink" xml:space="preserve" xmlns:serif="http://www.serif.com/" style="fill-rule:evenodd;clip-rule:evenodd;stroke-linejoin:round;stroke-miterlimit:2;"><rect id="SIZE-BLOODHOUND-14" serif:id="SIZE-BLOODHOUND 14" x="1.692" y="1.002" width="3134.22" height="2453.41" style="fill:none;"/><clipPath id="_clip1"><rect x="1.692" y="1.002" width="3134.22" height="2453.41"/></clipPath><g clip-path="url(#_clip1)"><path d="M884.771,87.007c22.949,-7.455 67.487,-29.504 72.992,-17.335c8.283,18.311 -23.686,25.979 -38.408,35.822c-32.007,21.401 -65.688,40.995 -99.076,60.846c-24.774,14.741 -50.121,28.771 -75.296,43.003c-4.955,2.798 -10.404,4.928 -15.438,7.634c-33.266,17.905 -67.814,34.316 -99.441,54.137c-81.984,51.383 -132.872,124.172 -179.156,199.073c-23.507,38.045 -39.481,78.96 -43.942,122.722c-4.053,39.807 -5.019,78.825 14.585,116.422c9.681,18.572 15.545,38.773 26.887,56.482c14.621,22.808 29.171,47.306 50.716,64.807c29.679,24.124 67.284,39.746 109.451,44.3c12.144,1.31 453.611,-1.416 516.022,9.96c91.821,16.736 697.743,-47.788 894.633,-163.582c24.173,-14.216 89.753,-92.169 102.098,-112.86c29.915,-50.164 72.348,-93.877 94.729,-148.247c38.362,-93.193 187.046,-189.224 237.841,-191.048c96.498,-3.465 191.113,7.358 282.499,34.102c49.749,14.551 92.381,40.658 118.158,80.031c17.013,25.991 22.406,72.478 55.35,77.975c4.919,0.814 139.968,15.89 205.84,57.026c24.768,15.467 24.359,30.007 11.113,55.221c-7.039,13.405 -62.42,235.826 -159.201,298.689c-45.405,29.492 -102.615,7.798 -172.997,-27.255c-7.26,-3.616 -10.669,3.452 -9.731,9.518c2.857,18.542 6.96,36.998 8.585,55.613c1.203,13.761 60.591,202.003 -25.318,219.135c-85.939,17.137 -147.226,-28.938 -160.473,-21.53c-28.78,16.095 26.713,173.232 -1.768,238.097c-41.057,93.508 -168.69,158.574 -235.602,213.605c-4.848,3.997 -134.562,167.762 -136.653,174.771c-7.798,26.114 -16.368,52.405 -19.633,79.076c-6.151,50.097 -10.662,100.458 -12.488,150.8c-2.649,73.481 3.58,272.163 15.094,296.991c8.943,19.282 22.132,25.906 45.51,23.402c18.144,-1.953 93.935,30.576 114.549,41.491c22.362,11.845 36.723,38.828 34.911,73.775c-1.704,32.878 -69.774,54.738 -69.774,54.738l-201.66,0c-0,0 -25.705,-29.714 -33.374,-40.188c-22.848,-31.213 -43.842,-63.124 -56.766,-98.707c-10.16,-27.981 -41.565,-91.802 -46.248,-93.48c-27.746,-9.88 -40.34,-28.733 -40.612,-54.762c-0.559,-53.525 -13.698,-206.149 -16.111,-229.098c-5.95,-56.653 -16.017,-112.744 -36.231,-166.912c-13.984,-37.469 -37.985,-71.112 -46.999,-71.871c-30.918,-2.607 -245.216,-23.983 -321.286,-33.22c-91.035,-11.068 -181.655,-23.409 -269.31,-48.935c-44.043,-12.818 -153.651,-67.465 -198.731,-77.657c-85.121,-19.252 -92.413,-57.211 -180.147,-57.401c-10.189,-0.024 -73.24,101.164 -84.904,112.036c-26.879,25.055 -50.436,53.029 -79.442,76.039c-47.179,37.427 -97.494,71.982 -146.77,107.461c-34.262,24.663 -68.48,49.4 -103.687,73.065c-25.469,17.115 -52.821,32.162 -78.784,48.763c-31.806,20.335 -65.595,39.073 -93.956,62.542c-46.499,38.473 -82.5,83.538 -97.952,138.821c-8.8,31.506 -21.567,62.303 -28.519,94.054c-6.366,29.077 -9.308,58.998 1.131,88.43c2.42,6.837 6.072,10.394 14.779,11.441c16.676,2.008 53.186,26.713 58.227,30.68c24.502,19.295 53.175,67.245 34.605,96.81c-13.651,21.733 -78.197,32.09 -78.197,32.09l-94.436,-0c0,-0 -24.889,-3.632 -36.324,-7.954c-12.874,-4.866 -24.588,-11.979 -36.81,-18.113c-13.87,-6.954 -21.918,-17.434 -25.261,-30.711c-13.497,-53.568 -16.677,-107.993 -16.462,-162.376c0.143,-34.022 6.179,-68.063 5.664,-102.073c-0.623,-40.653 -4.153,-81.268 -5.542,-121.92c-0.637,-18.431 0.788,-36.961 14.65,-52.625c23.994,-27.124 50.035,-53.109 71.616,-81.568c21.302,-28.091 43.248,-57.161 55.807,-88.472c21.008,-52.362 40.119,-105.581 50.322,-160.766c7.719,-41.796 14.213,-83.55 13.805,-125.88c-0.194,-20.702 -1.955,-41.398 -2.993,-62.101c-0.58,-11.692 -0.337,-23.457 -1.79,-35.075c-5.743,-46.033 -9.817,-92.237 1.095,-137.909c12.717,-53.28 30.41,-105.404 58.915,-154.442c13.432,-23.09 24.094,-47.521 39.424,-69.606c18.602,-26.794 40.598,-51.891 61.62,-77.424c5.02,-6.096 4.662,-10.32 0.222,-16.717c-20.492,-29.609 -40.999,-59.261 -59.852,-89.635c-36.732,-59.176 -51.238,-123.517 -56.429,-189.592c-3.129,-39.709 2.276,-78.727 16.547,-116.881c8.213,-21.933 12.072,-45.188 21.874,-66.515c13.841,-30.099 32.801,-58.459 47,-88.46c23.278,-49.179 66.719,-85.044 109.358,-120.603c27.774,-23.164 62.351,-40.457 94.386,-59.776c56.279,-33.924 120.32,-54.406 183.609,-76.015c54.36,-18.554 109.05,-36.416 163.761,-54.199Z" style="fill-rule:nonzero;"/></g></svg>