<?xml version="1.0" encoding="UTF-8" standalone="no"?><!DOCTYPE svg PUBLIC "-//W3C//DTD SVG 1.1//EN" "http://www.w3.org/Graphics/SVG/1.1/DTD/svg11.dtd"><svg width="100%" height="100%" viewBox="0 0 3138 2459" version="1.1" xmlns="http://www.w3.org/2000/svg" xmlns:xlink="http://www.w3.org/1999/xlink" xml:space="preserve" xmlns:serif="http://www.serif.com/" style="fill-rule:evenodd;clip-rule:evenodd;stroke-linejoin:round;stroke-miterlimit:2;"><rect id="SIZE-18-GERMAN" serif:id="SIZE 18-GERMAN" x="1.911" y="1.002" width="3134.22" height="2453.41" style="fill:none;"/><clipPath id="_clip1"><rect x="1.911" y="1.002" width="3134.22" height="2453.41"/></clipPath><g clip-path="url(#_clip1)"><path d="M536.913,2047.11c512.626,-233.996 501.884,-509.056 541.094,-538.255c18.755,-13.954 38.588,-16.59 60.659,-10.493c75.179,20.759 150.153,42.298 225.688,61.791c57.76,14.904 115.641,31.238 174.57,39.522c71.095,10.008 265.376,37.441 337.178,42.367c16.667,1.142 28.158,62.564 30.238,82.02c13.958,130.342 135.572,634.077 142.995,648.311c8.774,16.863 25.415,39.618 37.566,54.258c15.135,18.247 70.592,27.776 70.592,27.776l168.733,0c-0,0 30.599,-11.607 19.53,-58.187c-6.162,-25.933 -54.391,-66.109 -82.535,-64.975c-45.646,1.849 -65.334,-25.214 -85.03,-58.889c-26.247,-44.868 -13.746,-294.985 -9.549,-316.436c13.602,-69.582 16.152,-140.894 40.561,-208.863c25.002,-69.604 51.665,-137.028 100.34,-195.807c37.32,-45.068 68.932,-94.914 99.975,-144.473c47.703,-76.166 105.334,-114.637 136.483,-197.106c12.106,-32.07 85.918,-425.724 170.635,-473.653c45.815,-25.921 290.753,-15.756 320.063,-22.409c70.336,-15.965 87.97,-127.779 95.925,-145.077c8.341,-18.145 1.586,-31.311 -17.844,-39.22c-11.606,-4.728 -23.575,-8.734 -35.567,-12.475c-78.64,-24.5 -157.234,-49.125 -236.071,-73.028c-20.342,-6.171 -32.402,-15.656 -31.727,-38.558c0.653,-21.73 -10.292,-38.27 -31.293,-48.366c-52.538,-25.243 -104.059,-52.637 -157.5,-75.893c-24.857,-10.817 -32.91,-26.09 -37.73,-50.656c-10.352,-52.711 -25.183,-104.612 -38.891,-156.668c-1.503,-5.7 -7.325,-15.294 -11.65,-15.332c-4.325,-0.038 -11.924,9.168 -14.3,15.104c-8.653,21.628 -15.635,43.889 -23.483,65.841c-11.104,31.083 -18.11,64.471 -34.588,92.623c-29.403,50.259 -70.23,93.633 -94.799,147.449c-7.969,17.459 -27.4,29.853 -40.955,45.089c-92.348,103.817 -184.467,207.818 -276.891,311.576c-5.647,6.34 -12.303,12.901 -19.946,16.325c-39.483,17.681 -78.997,35.45 -119.322,51.217c-107.004,41.834 -220.527,57.49 -333.595,72.225c-148.658,19.375 -297.406,10.354 -445.79,-8.284c-78.215,-9.824 -156.688,-18.462 -235.313,-24.176c-68.78,-5 -137.029,2.312 -198.394,35.921c-65.859,36.076 -131.132,73.433 -194.334,113.67c-27.893,17.762 -53.229,41.54 -74.101,66.938c-39.499,48.079 -60.584,105.614 -75.627,164.746c-11.78,46.297 -17.669,94.185 -32.007,139.642c-15.81,50.119 -37.707,98.493 -57.965,147.235c-56.128,135.099 -127.82,205.324 -210.52,327.845c-21.222,31.444 -55.537,135.301 -49.892,162.262c5.559,26.548 187.091,-70.749 255.707,-108.007c105.936,-57.522 244.686,-320.103 244.405,-293.902c-0.395,35.619 -54.015,329.465 -77.164,357.05c-20.713,24.684 -40.827,49.832 -61.57,74.486c-11.545,13.712 -16.008,28.617 -12.311,46.158c13.533,64.117 26.633,128.324 40.158,192.449c7.439,35.295 12.805,71.275 23.727,105.562c18.914,59.383 69.348,79.027 69.348,79.027l119.741,0c-0,0 44.725,1.527 28.015,-58.187c-10.695,-38.217 -27.81,-60.62 -71.756,-66.924c-27.628,-3.969 -41.054,-17.739 -46.36,-42.254c-1.153,-5.383 -2.664,-10.854 -2.641,-16.274c0.22,-54.457 -0.638,-108.957 1.837,-163.318c0.971,-21.37 3.81,-45.17 23.248,-60.34" style="fill-rule:nonzero;"/></g></svg>