<?xml version="1.0" encoding="UTF-8" standalone="no"?><!DOCTYPE svg PUBLIC "-//W3C//DTD SVG 1.1//EN" "http://www.w3.org/Graphics/SVG/1.1/DTD/svg11.dtd"><svg width="100%" height="100%" viewBox="0 0 3138 2459" version="1.1" xmlns="http://www.w3.org/2000/svg" xmlns:xlink="http://www.w3.org/1999/xlink" xml:space="preserve" xmlns:serif="http://www.serif.com/" style="fill-rule:evenodd;clip-rule:evenodd;stroke-linejoin:round;stroke-miterlimit:2;"><rect id="SIZE-CHIUAUA-1" serif:id="SIZE-CHIUAUA 1" x="0" y="1.539" width="3134.22" height="2453.41" style="fill:none;"/><path id="XS---CHIUAUA" serif:id="XS - CHIUAUA" d="M262.039,2371.27c74.729,19.248 36.694,83.031 36.694,83.031l-174.099,0.173c0,-0 -55.594,-51.727 -55.861,-73.519c-1.372,-113.528 4.42,-227.178 12.422,-340.583c1.41,-19.708 19.852,-43.83 39.705,-56.58c124.563,-80.027 161.067,-181.203 146.321,-307.42c-12.841,-109.543 -9.64,-222.182 7.316,-331.327c7.621,-49.193 58.795,-98.54 103.606,-138.017c34.713,-30.62 35.475,-49.837 16.614,-85.299c-152.571,-287.252 104.291,-587.745 383.064,-675.926c14.289,-4.536 76.838,-26.681 67.787,-9.716c-11.393,21.358 -100.252,93.299 -136.147,137.864c-57.995,72.059 -114.999,145.404 -161.639,222.397c-50.107,82.755 -13.184,161.219 47.44,231.714c9.717,11.31 45.573,20.076 60.662,14.59c121.668,-44.198 248.556,-33.531 375.024,-28.014c109.589,4.781 219.101,11.248 328.651,17.102c138.586,7.479 261.244,-38.128 388.932,-70.74c81.353,-20.781 132.832,-59.951 172.842,-116.041c43.668,-61.208 90.308,-121.037 133.442,-182.49c77.504,-110.524 194.371,-192.636 334.404,-237.599c167.203,-53.638 356.118,-233.176 420.331,-255.162c48.206,-16.506 -22.558,86.127 -35.056,123.244c-12.727,37.699 -28.846,74.633 -45.726,117.543c141.33,49.469 156.533,155.671 168.917,262.67c1.258,10.605 -8.318,57.244 7.229,64.845c34.827,17.072 90.166,39.243 127.356,53.526c38.676,14.773 43.554,30.956 15.623,63.629c-106.959,124.991 -261.854,146.416 -432.257,139.06c-28.731,-1.257 -75.674,-32.502 -86.916,-10.728c-29.017,56.202 -100.863,225.707 -87.183,347.939c13.032,116.654 -0.838,224.573 -106.731,318.822c-32.312,28.75 -32.96,84.993 -36.656,129.251c-9.221,111.536 -11.622,223.408 -17.376,335.097c-2.248,44.198 23.565,201.063 76.476,225.401c151.916,69.877 52.168,121.39 -5.358,114.294l-98.82,-0c0,-0 -72.779,-18.544 -96.861,-95.445c-44.392,-141.664 -95.071,-316.369 -142.549,-457.421c-13.184,-39.263 11.683,-105.835 -36.39,-119.382c-129.218,-36.412 -512.276,-42.235 -738.921,-99.091c-127.04,-31.846 -254.576,-30.681 -383.521,-20.781c-16.08,1.257 -32.961,14.436 -45.307,25.164c-51.098,44.32 -83.525,110.125 -151.808,133.848c-454.281,157.879 -480.116,461.835 -395.676,550.077"/></svg>