<?xml version="1.0" encoding="UTF-8" standalone="no"?><!DOCTYPE svg PUBLIC "-//W3C//DTD SVG 1.1//EN" "http://www.w3.org/Graphics/SVG/1.1/DTD/svg11.dtd"><svg width="100%" height="100%" viewBox="0 0 3138 2459" version="1.1" xmlns="http://www.w3.org/2000/svg" xmlns:xlink="http://www.w3.org/1999/xlink" xml:space="preserve" xmlns:serif="http://www.serif.com/" style="fill-rule:evenodd;clip-rule:evenodd;stroke-linejoin:round;stroke-miterlimit:2;"><rect id="SIZE-BORDER-9" serif:id="SIZE-BORDER 9" x="1.692" y="1.002" width="3134.22" height="2453.41" style="fill:none;"/><clipPath id="_clip1"><rect x="1.692" y="1.002" width="3134.22" height="2453.41"/></clipPath><g clip-path="url(#_clip1)"><path id="M---BORDER" serif:id="M - BORDER" d="M1163.44,2401c-8.817,-37.343 -48.323,-65.468 -80.264,-74.153c-151.191,-41.084 -204.975,-187.219 -85.815,-294.473c11.226,-10.054 17.694,-26.488 29.347,-35.507c138.013,-106.787 263.975,-222.993 276.087,-431.49c88.012,24.985 193.382,-6.346 245.152,45.761c58.878,59.289 305.007,178.301 374.563,179.237c65.315,0.901 63.759,54.565 79.337,88.682c47.489,104.004 170.995,399.884 205.596,535.338c6.855,26.836 68.459,39.659 68.459,39.659l184.442,0.362c0,-0 35.365,-40.955 27.598,-59.361c-26.835,-63.594 -88.234,-32.976 -122.158,-71.268c-20.218,-22.822 -50.591,-63.009 -63.312,-86.658c-66.902,-124.39 32.825,-483.831 157.567,-519.237c81.514,-23.148 127.305,-63.932 162.479,-134.444c18.426,-36.943 108.397,-229.047 107.262,-426.68c-0.369,-64.368 -22.148,-131.204 -18.975,-192.397c4.393,-84.34 50.611,-143.121 129.013,-143.288c57.78,-0.133 118.061,26.247 172.455,8.577c38.53,-12.526 75.565,-48.834 101.557,-84.674c33.13,-45.695 33.527,-92.057 -30.324,-117.676c-43.136,-17.336 -84.107,-42.622 -123.491,-68.909c-19.708,-13.161 -45.821,-34.805 -48.231,-55.515c-12.539,-107.555 -85.389,-148.005 -160.741,-188.922c-25.29,-13.729 -86.12,-23.187 -72.209,-48.066c13.911,-24.879 134.138,-41.853 155.676,-101.209c4.789,-13.16 -0.336,-32.333 -10.647,-40.851c-32.825,-27.089 -82.765,4.81 -123.186,-0.935c-109.672,-15.565 -195.64,15.298 -269.162,114.236c-71.996,96.899 -159.337,180.505 -242.803,266.583c-32.002,32.968 -148.568,172.722 -167.727,188.455c-35.174,28.826 -75.9,51.239 -116.932,69.009c-18.152,7.883 -119.8,50.704 -151.192,53.477c-79.897,7.048 -160.892,10.187 -240.759,4.175c-296.404,-22.413 -577.738,35.106 -843.452,180.673c-116.78,63.931 -194.542,172.823 -246.891,297.313c-59.672,141.992 -112.967,289.263 -150.704,439.74c-43.777,174.459 -125.077,299.758 -258.819,415.757c-19.117,16.58 -7.078,26.201 -3.586,29.907c98.264,104.287 337.142,5.101 406.824,22.868c23.031,5.873 -4.56,80.338 16.199,75.623c20.76,-4.715 82.613,-66.136 108.36,-103.914c85.725,-125.693 61.807,-276.47 54.12,-431.256c-5.705,-114.971 19.712,-316.603 44.204,-302.357c24.492,14.246 83.1,272.295 102.747,387.833c9.823,57.819 -0.854,125.993 -20.409,181.842c-18.548,53.009 -24.802,92.958 6.01,140.723c44.967,69.711 89.659,140.323 127.182,214.943c29.927,59.59 103.623,85.521 103.623,85.521l161.689,0c0,0 18.651,-9.036 34.326,-23.058c10.901,-9.753 10.244,-23.248 9.915,-29.996" style="fill-rule:nonzero;"/></g></svg>