<?xml version="1.0" encoding="UTF-8" standalone="no"?><!DOCTYPE svg PUBLIC "-//W3C//DTD SVG 1.1//EN" "http://www.w3.org/Graphics/SVG/1.1/DTD/svg11.dtd"><svg width="100%" height="100%" viewBox="0 0 3138 2459" version="1.1" xmlns="http://www.w3.org/2000/svg" xmlns:xlink="http://www.w3.org/1999/xlink" xml:space="preserve" xmlns:serif="http://www.serif.com/" style="fill-rule:evenodd;clip-rule:evenodd;stroke-linejoin:round;stroke-miterlimit:2;"><rect id="SIZE-DACHSHUND-4" serif:id="SIZE-DACHSHUND 4" x="1.692" y="1.539" width="3134.22" height="2453.41" style="fill:none;"/><path d="M2238.15,2454.95c-39.099,-3.678 -59.665,-35.372 -79.294,-77.109c-20.566,-43.798 -48.963,-81.726 -75.787,-119.994c-32.542,-46.328 -52.63,-98.03 -52.69,-162.149c-0.079,-66.57 -1.375,-133.115 -2.092,-199.685c-0.12,-11.191 -114.153,-153.044 -171.895,-129.873c-250.893,100.678 -945.527,-75.149 -945.995,-73.256c-43.001,173.952 -342.535,225.019 -412.214,311.958c-38.675,48.255 -4.584,140.419 -5.859,209.677c-0.618,33.024 17.497,81.67 35.373,99.46c31.905,31.773 70.695,30.67 69.978,110.723c-0.181,20.218 -50.469,30.248 -50.469,30.248l-109.525,0c0,0 -83.638,-58.588 -76.723,-133.585c10.263,-111.333 -1.495,-219.928 -17.019,-328.47c-9.546,-66.936 -2.929,-86.735 41.411,-115.247c76.544,-49.197 90.434,-201.107 71.283,-228.432c-19.151,-27.325 -122.293,70.514 -186.189,64.484c-136.241,-12.858 -189.398,-76.684 -253.467,-257.536c-7.314,-20.608 -15.318,-56.845 -15.285,-65.84c0.043,-11.771 22.673,6.329 28.776,14.843c56.792,79.218 108.7,157.956 185.324,199.432c144.499,78.231 171.012,-28.762 241.777,-210.735c16.939,-43.537 35.233,-86.161 52.491,-129.49c60.343,-151.349 159.724,-226.658 284.714,-258.691c122.179,-31.329 244.179,-18.912 366.319,-8.348c201.852,17.478 403.685,32.112 605.697,7.878c54.483,-6.521 108.847,-18.338 162.534,-32.45c95.595,-25.121 171.82,-92.265 226.961,-196.817c31.487,-59.71 98.685,-222.484 101.953,-241.527c13.87,-80.891 42.287,-151.897 82.742,-215.154c59.923,-93.674 139.895,-117.203 227.958,-109.508c84.216,7.356 163.969,38.007 240.911,82.9c25.15,14.687 44.32,36.546 49.342,70.927c15.624,107.369 72.519,155.262 146.432,180.748c33.799,11.634 67.338,24.833 101.455,34.72c22.519,6.521 31.546,23.32 28.138,51.102c-6.795,55.562 -20.884,105.073 -57.991,141.332c-50.777,49.641 -105.32,78.387 -169.648,77.996c-68.394,-0.444 -222.625,2.284 -228.317,9.13c-21.134,25.42 65.145,170.923 -110.322,146.601c-56.936,-7.892 5.898,123.855 6.795,182.939c0.917,58.223 3.368,116.394 5.381,174.591c6.995,203.077 -52.232,367.443 -173.794,491.533c-48.724,49.719 -103.487,89.239 -154.682,134.941c-7.453,6.652 -14.647,22.094 -14.567,33.415c0.318,51.937 1.414,104.16 6.177,155.68c1.694,18.416 11.897,38.659 22.698,51.806c20.865,25.381 46.852,43.719 67.079,69.831c18.692,24.103 57.698,11.924 60.845,82.848c2.99,67.365 -56.621,70.745 -61.204,72.153l-95.516,0Z" style="fill-rule:nonzero;"/></svg>