<?xml version="1.0" encoding="UTF-8" standalone="no"?>
<!DOCTYPE svg PUBLIC "-//W3C//DTD SVG 1.1//EN" "http://www.w3.org/Graphics/SVG/1.1/DTD/svg11.dtd">
<svg width="100%" height="100%" viewBox="0 0 753 589" version="1.1" xmlns="http://www.w3.org/2000/svg" xmlns:xlink="http://www.w3.org/1999/xlink" xml:space="preserve" xmlns:serif="http://www.serif.com/" style="fill-rule:evenodd;clip-rule:evenodd;stroke-linejoin:round;stroke-miterlimit:2;">
    <g transform="matrix(1,0,0,1,-4394.41,-5445.24)">
        <g transform="matrix(1,0,0,1,2522.36,5445.24)">
            <rect id="SIZE-29-MALTESE" serif:id="SIZE 29-MALTESE" x="1872.04" y="0" width="752.213" height="588.819" style="fill:none;"/>
            <clipPath id="_clip1">
                <rect id="SIZE-29-MALTESE1" serif:id="SIZE 29-MALTESE" x="1872.04" y="0" width="752.213" height="588.819"/>
            </clipPath>
            <g clip-path="url(#_clip1)">
                <g id="Izolovaný-režim" serif:id="Izolovaný režim">
                </g>
                <g transform="matrix(1,0,0,1,-2522.61,-5445.08)">
                    <path d="M4862.98,5987.57C4867.48,5994 4887.25,5994.9 4894.19,6002.21C4901.14,6009.52 4911.81,6026.42 4904.62,6031.44C4902.09,6033.21 4897.09,6033.9 4897.09,6033.9L4854.97,6033.9C4853.23,6033.73 4849.94,6033.24 4848.84,6032.73C4841.57,6029.35 4835.53,6023.1 4831.91,6017.8C4828.61,6012.98 4828.92,6006.51 4827.11,6000.96C4824.91,5994.24 4820.95,5985.49 4818.71,5977.49C4815.64,5966.58 4812.03,5947.61 4808.71,5935.52C4805.88,5925.17 4801.7,5912.4 4798.81,5904.9C4796.87,5899.87 4794.59,5894.27 4791.35,5890.55C4788.21,5886.94 4784.13,5883.36 4779.41,5882.6C4768.79,5880.88 4742.36,5883.01 4727.65,5880.25C4714.82,5877.84 4702.67,5872.18 4691.14,5866.04C4678.56,5859.34 4662.09,5845.7 4652.15,5840.01C4645.75,5836.34 4638.28,5833.91 4631.56,5831.87C4625.13,5829.91 4615.98,5827.63 4611.82,5827.74C4609.45,5827.81 4607.3,5830.31 4606.59,5832.57C4604.29,5839.87 4605.92,5860.83 4598.03,5871.54C4584.21,5890.32 4536.77,5931.78 4523.63,5945.23C4521.7,5947.21 4519.4,5949.49 4519.22,5952.24C4518.74,5959.27 4519.23,5979.4 4520.75,5987.39C4521.67,5992.26 4524.4,5997.15 4528.32,6000.17C4532.45,6003.36 4540.76,6004.23 4545.57,6006.53C4549.72,6008.52 4555.34,6009.82 4557.18,6014C4559.01,6018.18 4560.24,6027.75 4556.58,6031.62C4554.89,6033.41 4544.7,6033.9 4544.7,6033.9L4494.73,6033.9C4494.24,6034.48 4487.62,6030.64 4486.25,6027.87C4483.44,6022.2 4482.46,6015.54 4481.25,6007.61C4479.29,5994.7 4478.07,5978.86 4475.89,5969.69C4473.29,5958.75 4466.57,5948.54 4466.43,5937.29C4466.27,5925.1 4472.63,5910.23 4474.95,5896.54C4477.34,5882.41 4480.72,5864.37 4480.78,5852.51C4480.83,5843.3 4478.15,5834.18 4475.32,5825.41C4472.32,5816.1 4465.65,5806.72 4462.78,5796.67C4459.23,5784.24 4454.31,5764.25 4454.02,5750.8C4453.76,5738.97 4458.42,5724.55 4461.02,5715.99C4462.83,5710.03 4467.39,5704.7 4469.65,5699.43C4471.74,5694.56 4473.35,5689.48 4474.6,5684.34C4476.34,5677.22 4478.63,5664.51 4480.09,5656.68C4481.28,5650.26 4481.88,5643.72 4483.32,5637.35C4484.99,5629.96 4485.47,5619.63 4490.11,5612.34C4495.56,5603.75 4507.26,5591.17 4516.06,5585.79C4523.87,5581.01 4534.25,5577.13 4542.92,5580.06C4556.7,5584.71 4588.75,5604.47 4598.7,5613.7C4604.09,5618.7 4600.96,5630.81 4602.64,5635.42C4603.61,5638.08 4605.96,5641.05 4608.78,5641.31C4633.98,5643.62 4722.04,5648.48 4753.8,5649.31C4769,5649.71 4786.18,5648.33 4799.33,5646.3C4810.73,5644.54 4825.39,5641.11 4832.69,5637.13C4837.98,5634.24 4841.69,5628.24 4843.15,5622.39C4844.69,5616.22 4841.89,5607.52 4841.94,5600.07C4842.03,5586.94 4839.37,5560.84 4843.71,5543.64C4848.01,5526.6 4859.53,5509.1 4867.99,5496.86C4875.1,5486.57 4883.5,5476.31 4894.44,5470.22C4909.47,5461.85 4940.5,5450.06 4958.2,5446.62C4972.13,5443.91 4990.05,5444.18 5000.67,5449.57C5011.3,5454.96 5017.78,5470.75 5021.95,5478.94C5024.98,5484.9 5020.09,5494.94 5025.65,5498.67C5032.76,5503.42 5056.26,5506.03 5064.57,5507.47C5068.17,5508.1 5072.32,5505.62 5075.52,5507.32C5078.72,5509.01 5082.59,5513.59 5083.77,5517.65C5084.95,5521.7 5083.36,5527.23 5082.58,5531.67C5081.82,5535.97 5080.27,5540.1 5079.08,5544.3C5077.8,5548.81 5076.25,5554.1 5074.93,5558.69C5073.67,5563.08 5073.26,5567.8 5071.16,5571.85C5068.44,5577.12 5062.91,5585.63 5058.59,5590.28C5054.88,5594.27 5049.78,5596.71 5045.25,5599.76C5039.62,5603.55 5029.73,5607.02 5024.81,5613.04C5019.89,5619.06 5018.03,5629.62 5015.73,5635.88C5013.96,5640.71 5012.24,5645.58 5011,5650.57C5007.89,5663.06 4998.74,5693.57 4997.08,5710.81C4995.69,5725.21 4999.79,5739.61 5001.05,5754.02C5003.79,5785.24 4975.96,5850.86 4945.49,5872.96C4927.1,5886.3 4903.71,5898.3 4890.65,5913.4C4878.58,5927.38 4871.79,5951.24 4867.17,5963.61C4864.34,5971.2 4858.47,5981.13 4862.98,5987.57Z"/>
                </g>
            </g>
        </g>
    </g>
</svg>
