<?xml version="1.0" encoding="UTF-8" standalone="no"?><!DOCTYPE svg PUBLIC "-//W3C//DTD SVG 1.1//EN" "http://www.w3.org/Graphics/SVG/1.1/DTD/svg11.dtd"><svg width="100%" height="100%" viewBox="0 0 3138 2459" version="1.1" xmlns="http://www.w3.org/2000/svg" xmlns:xlink="http://www.w3.org/1999/xlink" xml:space="preserve" xmlns:serif="http://www.serif.com/" style="fill-rule:evenodd;clip-rule:evenodd;stroke-linejoin:round;stroke-miterlimit:2;"><rect id="SIZE-BEAGLE-7" serif:id="SIZE-BEAGLE 7" x="1.911" y="1.002" width="3134.22" height="2453.41" style="fill:none;"/><path id="M---BEAGLE" serif:id="M - BEAGLE" d="M2388.96,1086.47c-18.81,42.631 -37.999,83.789 -55.228,125.727c-39.637,96.411 -83.31,190.945 -128.036,285.046c-26.561,55.744 -49.231,113.279 -73.715,170.005c-10.121,23.424 -18.078,199.812 -22.816,263.066c-4.856,64.697 9.477,126.391 25.975,188.143c11.467,43.065 24.396,102.015 34.576,145.484c1.784,7.711 5.968,10.109 12.959,13.112c16.469,7.077 32.762,15.193 47.651,25.042c28.082,18.543 110.809,36.409 112.589,115.618c0.57,25.389 -41.448,36.702 -41.448,36.702l-157.247,-0c0,-0 -17.799,-4.177 -25.753,-11.747c-5.821,-5.574 -58.27,-51.643 -59.908,-56.524c-11.643,-34.226 -23.841,-68.395 -32.997,-103.314c-4.095,-15.626 -62.774,-123.908 -67.513,-151.318c-6.289,-36.421 -12.52,-72.9 -20.915,-108.888c-17.551,-75.327 -36.214,-150.423 -55.169,-225.403c-3.686,-14.644 -21.644,-26.985 -31.794,-27.533c-40.807,-2.167 -112.187,-20.025 -152.906,-23.462c-63.652,-5.401 -542.946,-101.408 -626.869,-140.371c-52.8,-24.492 -255.721,-37.288 -296.937,-21.055c-21.734,8.578 -97.512,216.647 -202.658,247.522c-118.454,34.784 -159.303,53.396 -251.622,138.601c-27.175,25.07 -48.295,56.524 -75.061,82.085c-26.239,25.071 -26.619,56.813 -30.831,88.122c-4.3,31.772 -6.816,63.745 -11.672,95.401c-5.323,34.573 6.348,60.365 36.361,78.301c11.876,7.105 67.27,46.904 72.047,53.318c59.547,79.957 -59.471,86.25 -59.471,86.25l-113.889,0.015c-0,-0 -19.431,-18.94 -22.189,-21.17c-17.61,-14.232 -23.694,-19.777 -24.104,-37.569c-0.409,-18.312 0.731,-36.682 0.146,-55.022c-2.252,-72.583 -3.861,-145.195 -7.927,-217.691c-1.609,-28.334 -8.922,-56.38 -14.041,-84.54c-10.384,-57.218 5.997,-104.614 52.156,-141.411c33.026,-26.284 58.972,-58.662 75.324,-97.105c7.606,-17.849 9.507,-38.385 12.081,-57.939c8.454,-63.716 15.065,-127.749 11.526,-191.985c-2.224,-40.638 -8.835,-81.103 -14.597,-121.482c-8.512,-59.325 -12.783,-118.42 1.199,-177.543c7.986,-33.562 23.519,-63.427 42.913,-91.732c40.25,-58.806 76.464,-119.98 107.881,-183.84c3.042,-6.094 2.311,-14.73 1.287,-21.922c-12.725,-89.797 -21.325,-179.912 -17.434,-270.662c3.071,-72.814 15.679,-144.097 44.053,-211.828c23.607,-56.322 55.959,-107.762 92.963,-156.314c22.29,-29.23 45.282,-57.911 68.157,-86.678c4.008,-4.997 8.834,-9.618 13.866,-13.662c13.66,-10.889 27.321,-7.971 32.586,8.521c4.359,13.604 5.968,28.19 7.43,42.515c1.872,17.735 -2.545,33.909 -11.379,50.084c-37.238,67.99 -66.255,139.273 -81.379,215.495c-12.081,61.088 -14.772,122.926 -5.411,184.418c6.055,39.772 17.141,78.792 25.595,118.246c1.667,7.799 132.248,19.987 191.776,24.464c92.553,6.932 185.136,13.778 277.747,20.045c91.91,6.239 183.79,13.2 275.788,17.07c90.271,3.812 180.396,-1.618 270.317,-9.994c111.479,-10.34 220.53,-33.359 328.85,-60.336c60.523,-15.106 109.198,-50.17 151.906,-93.985c51.922,-53.318 104.546,-106.001 154.86,-160.791c50.81,-55.196 100.743,-111.344 143.217,-173.529c12.462,-18.168 32.792,-26.226 53.122,-32.407c58.825,-17.821 118.499,-16.81 178.378,-5.863c67.397,12.333 127.919,40.985 183.644,79.37c28.053,19.294 56.076,39.628 72.867,70.561c3.539,6.557 6.23,14.211 6.757,21.547c1.872,25.215 13.953,43.18 36.682,53.982c45.75,21.778 91.763,43.036 137.455,64.9c16.937,8.145 33.873,16.492 49.874,26.255c30.481,18.658 39.169,41.418 25.801,74.171c-14.539,35.642 -31.037,70.532 -48.295,104.99c-11.116,22.182 -32.646,34.053 -54.321,44.393c-35.307,16.81 -73.306,24.723 -111.45,32.406c-16.703,3.38 -32.587,10.716 -48.91,16.204c-5.06,1.704 -10.472,2.657 -15.328,4.852c-19.803,8.896 -35.043,0.838 -48.821,-12.535c-10.209,-9.878 -20.33,-19.872 -30.071,-30.154c-7.342,-7.769 -15.474,-11.64 -26.561,-10.513c-14.187,1.415 -28.491,1.964 -42.737,2.195c-7.986,0.115 -11.262,2.946 -12.578,11.004c-7.401,45.115 -14.1,90.346 -23.665,134.999c-5.383,25.157 -14.07,50.054 -24.338,73.709c-15.708,35.988 -33.698,47.888 -80.121,32.205c-41.011,-13.893 -73.5,-44.23 -110.25,-66.344"/></svg>