<?xml version="1.0" encoding="UTF-8" standalone="no"?><!DOCTYPE svg PUBLIC "-//W3C//DTD SVG 1.1//EN" "http://www.w3.org/Graphics/SVG/1.1/DTD/svg11.dtd"><svg width="100%" height="100%" viewBox="0 0 3138 2459" version="1.1" xmlns="http://www.w3.org/2000/svg" xmlns:xlink="http://www.w3.org/1999/xlink" xml:space="preserve" xmlns:serif="http://www.serif.com/" style="fill-rule:evenodd;clip-rule:evenodd;stroke-linejoin:round;stroke-miterlimit:2;"><rect id="SIZE-16-GREYHOUND-" serif:id="SIZE 16-GREYHOUND " x="0" y="1.002" width="3134.22" height="2453.41" style="fill:none;"/><clipPath id="_clip1"><rect x="0" y="1.002" width="3134.22" height="2453.41"/></clipPath><g clip-path="url(#_clip1)"><path d="M3.025,1499.51c12.414,0.699 52.867,-8.433 74.48,20.595c12.4,16.661 22.839,34.896 34.765,51.967c23.117,33.117 52.801,56.329 91.895,64.642c34.765,7.424 65.152,0.599 91.65,-26.428c65.855,-67.139 110.013,-147.142 129.454,-240.847c23.623,-113.889 45.221,-228.223 66.655,-342.591c22.806,-121.587 79.887,-221.158 172.877,-297.501c55.219,-45.347 122.151,-62.88 188.119,-82.055c153.551,-44.629 309.487,-48.118 467.514,-36.025c161.833,12.402 323.438,34.707 486.251,26.548c73.386,-3.678 149.222,-2.6 216.236,-38.795c68.68,-37.12 136.347,-77.763 199.163,-124.666c35.68,-26.634 60.838,-68.765 90.49,-104.139c13.756,-16.421 27.691,-32.774 40.238,-50.188c38.081,-52.839 86.634,-92.097 142.016,-122.938c11.894,-6.62 40.562,-18.249 38.719,-23.503c-1.843,-5.254 -54.327,8.898 -49.779,-8.023c4.55,-16.926 50.596,-65.138 77.078,-93.533c6.29,-6.74 24.799,-7.663 34.226,-3.233c25.698,12.094 51.494,12.401 78.466,10.349c31.528,-2.4 38.718,2.412 47.459,34.878c4.345,16.131 11.942,24.615 26.939,30.192c51.69,19.158 90.115,59.185 123.54,101.042c54.369,68.081 120.942,119.757 187.678,172.151c19.278,15.139 38.457,30.825 55.415,48.632c9.361,9.818 22.48,28.651 19.114,36.195c-6.085,13.672 -17.88,30.948 -30.036,37.537c-2.398,1.3 -4.81,2.183 -7.196,2.541c-77.665,11.649 -157.602,28.704 -229.402,-22.579c-61.656,-44.03 -130.516,-50.633 -201.843,-49.179c-25.387,0.496 -45.155,8.912 -58.796,32.655c-67.194,117.037 -134.339,234.518 -171.293,366.436c-14.523,51.779 -16.615,107.441 -23.754,161.426c-9.263,70.065 -9.361,142.25 -39.715,207.577c-15.896,34.245 -32.478,68.935 -54.042,99.332c-25.584,36.024 -37.085,75.248 -43.081,118.456c-21.336,153.882 -48.128,382.277 -64.285,536.706c-10.881,104.122 -7.352,209.886 -10.244,314.931c-0.392,13.445 42.852,33.955 55.546,36.658c32.935,6.996 89.191,16.302 94.533,97.433c0.348,5.284 -26.18,12.248 -26.18,12.248l-123.882,-0c-0,-0 -24.065,-16.61 -35.696,-26.155c-5.571,-4.533 -62.203,-68.987 -62.856,-69.979c-26.482,-40.403 -18.208,-148.357 -21.851,-154.583c-17.219,-29.234 -12.312,-574.353 -56.689,-704.187c-7.304,-21.367 -131.741,-14.163 -151.705,-16.592c-48.406,-5.867 -97.613,-7.253 -142.752,-30.705c-103.053,-53.557 -200.486,-116.66 -291.45,-190.334c-40.663,-32.928 -77.601,-71.04 -118.884,-103.027c-41.626,-32.244 -89.281,-52.48 -143.013,-60.28c-7.139,62.692 -66.58,347.182 -255.754,428.769c-116.304,50.16 -230.171,163.239 -242.13,179.01c-58.339,77.01 -117.511,153.284 -176.651,229.626c-30.942,39.925 -66.393,80.191 -72.601,131.371c-8.56,70.698 -10.728,203.483 -8.087,244.867c0.537,8.413 16.909,2.634 23.934,3.438c29.619,3.37 90.873,73.897 97.849,94.423c5.473,16.131 -2.042,38.915 -16.108,40.643c-15.52,1.916 -46.724,3.695 -46.724,3.695l-106.255,-0c0,-0 -2.94,-3.219 -52.906,-79.61c-9.949,-15.207 -13.936,-30.362 -12.384,-47.861c2.892,-32.603 9.051,-65.241 8.446,-97.776c-1.29,-68.833 -4.721,-167.002 -9.965,-235.647c-2.353,-30.79 1.095,-57.201 19.392,-82.415c42.574,-58.706 84.609,-117.891 124.928,-178.291c13.838,-20.767 26.123,-44.663 31.743,-69.004c10.374,-44.92 16.288,-91.071 22.234,-136.965c5.146,-39.856 10.932,-101.75 11.518,-120.116c0.138,-4.326 -6.502,6.347 -8.005,9.922c-22.284,53.078 -43.979,106.397 -66.949,159.116c-20.209,46.39 -51.853,83.202 -91.258,112.846c-77.911,58.552 -182.189,56.175 -241.753,-10.571c-24.261,-27.181 -38.147,-64.3 -58.078,-95.997c-14.377,-22.836 -38.773,-52.375 -46.528,-66.13c-2.654,-4.709 -5.214,-16.698 0,-16.405Z" style="fill-rule:nonzero;"/></g></svg>