<?xml version="1.0" encoding="UTF-8" standalone="no"?><!DOCTYPE svg PUBLIC "-//W3C//DTD SVG 1.1//EN" "http://www.w3.org/Graphics/SVG/1.1/DTD/svg11.dtd"><svg width="100%" height="100%" viewBox="0 0 3138 2459" version="1.1" xmlns="http://www.w3.org/2000/svg" xmlns:xlink="http://www.w3.org/1999/xlink" xml:space="preserve" xmlns:serif="http://www.serif.com/" style="fill-rule:evenodd;clip-rule:evenodd;stroke-linejoin:round;stroke-miterlimit:2;"><rect id="SIZE-COKER-8" serif:id="SIZE-COKER 8" x="1.692" y="1.002" width="3134.22" height="2453.41" style="fill:none;"/><path d="M632.748,2134.28c45.645,-13.526 85.678,-20.66 122.604,-36.33c248.788,-105.57 379.013,-341.762 392.507,-363.411c24.877,-39.757 57.719,-47.843 97.108,-32.864c22.622,8.607 208.801,102.879 217.966,112.902c51.318,56.004 291.288,128.328 315.111,135.52c35.606,10.657 49.209,31.486 50.663,66.959c1.819,44.453 14.112,89.001 9.639,133.023c-21.662,213.178 248.189,304.332 248.189,304.332l254.846,-0c-0,-0 107.292,-10.03 107.292,-133.414c-0,-71.607 1.818,-118.23 -58.411,-154.672c-6.219,-3.763 -12.511,-7.452 -18.839,-10.992c-66.958,-37.15 -66.412,-41.994 -30.042,-112.12c11.602,-22.394 9.42,-52.501 12.802,-79.106c0.691,-5.589 -4.837,-13.302 -2.691,-17.103c38.734,-68.524 19.64,-156.572 75.577,-220.997c27.277,-31.449 40.407,-75.827 59.647,-114.542c7.747,-15.65 13.784,-32.231 22.149,-47.546c37.061,-67.666 56.992,-136.227 39.244,-216.563c-10.875,-49.111 -3.492,-102.432 -5.492,-153.778c-0.619,-15.874 -5.165,-31.598 -9.784,-58.091c80.997,68.822 157.301,26.53 228.659,-0.521c61.029,-23.177 69.067,-91.254 75.432,-149.978c6.001,-54.811 -8.911,-105.45 -50.009,-145.766c-15.13,-14.83 -26.477,-33.759 -43.972,-56.601c51.973,-17.326 96.199,-33.721 141.371,-46.725c129.914,-37.485 163.775,-149.642 131.151,-270.109c-4.292,-15.798 -32.115,-30.554 -51.464,-35.212c-32.042,-7.713 -66.63,-3.8 -98.927,-10.768c-15.675,-3.391 -39.279,-18.966 -40.843,-31.374c-7.129,-57.644 -45.827,-85.068 -87.179,-114.132c-45.9,-32.269 -95.799,-49.558 -150.355,-49.409c-142.752,0.298 -261.028,52.129 -335.769,182.432c-41.643,72.66 -80.378,147.518 -114.82,224.016c-48.809,108.431 -121.586,176.47 -237.679,213.434c-131.587,41.881 -260.883,67.555 -399.053,67.704c-236.442,0.26 -469.248,36.553 -698.343,99.115c-104.491,28.542 -207.673,59.657 -306.964,10.285c-20.916,-10.403 -190.239,-157.6 -317.911,-285.982c-42.808,-43.046 -58.173,-34.276 -60.923,-28.143c-51.718,115.213 338.1,534.19 462.304,564.223c-27.096,57.196 -27.433,141.779 -83.47,172.073c-107.52,58.127 -214.184,252.596 -223.567,292.912c-8.292,35.622 -24.805,70.909 -44.663,101.575c-18.767,28.952 -80.05,192.567 -78.705,227.519c0.91,23.735 -9.565,47.731 -13.784,71.877c-3.2,18.444 -8.147,37.634 -6.001,55.706c5.31,43.931 12.148,87.974 22.331,130.974c17.313,73.479 185.511,129.799 185.511,129.799l297.557,-0c0,-0 48.999,0.609 61.71,-28.523c26.939,-61.74 21.905,-188.838 -37.523,-259.116c-6.438,-7.638 -11.966,-16.059 -24.187,-32.492" style="fill-rule:nonzero;"/></svg>