<?xml version="1.0" encoding="UTF-8" standalone="no"?><!DOCTYPE svg PUBLIC "-//W3C//DTD SVG 1.1//EN" "http://www.w3.org/Graphics/SVG/1.1/DTD/svg11.dtd"><svg width="100%" height="100%" viewBox="0 0 3138 2459" version="1.1" xmlns="http://www.w3.org/2000/svg" xmlns:xlink="http://www.w3.org/1999/xlink" xml:space="preserve" xmlns:serif="http://www.serif.com/" style="fill-rule:evenodd;clip-rule:evenodd;stroke-linejoin:round;stroke-miterlimit:2;"><rect id="SIZE-25-ASSIAN" serif:id="SIZE 25-ASSIAN" x="1.692" y="1.002" width="3134.22" height="2453.41" style="fill:none;"/><clipPath id="_clip1"><rect x="1.692" y="1.002" width="3134.22" height="2453.41"/></clipPath><g clip-path="url(#_clip1)"><path d="M2153.12,2468.58l229.896,-0c0,-0 54.29,-26.747 49.563,-61.913c-6.698,-49.828 -7.113,-61.293 -24.187,-80.092c-28.372,-31.236 -75.266,-17.223 -107.944,-38.986c-31.83,-21.199 -49.244,-31.338 -69.626,-63.172c-46.334,-72.37 -84.529,-556.504 -11.092,-712.564c57.875,-122.987 157.558,-199.366 223.896,-315.926c26.112,-45.879 45.569,-95.248 59.392,-145.835c10.078,-36.884 30.988,-150.232 47.887,-185.067c23.562,-48.569 50.771,-96.193 85.247,-138.16c12.509,-15.227 108.771,-75.069 131.484,-81.314c60.449,-16.62 157.643,6.501 204.376,-49.769c24.754,-29.807 -13.039,-35.894 1.029,-70.743c17.471,-43.282 79.46,-55.02 106.886,-93.118c23.414,-32.524 38.669,-70.165 53.251,-107.239c9.118,-23.18 -6.028,-35.294 -23.93,-46.325c-66.776,-41.15 -144.423,-60.026 -210.424,-102.283c-39.242,-25.124 -37.968,-66.636 -67.268,-97.663c-24.077,-25.496 -87.077,-42.499 -111.366,-48.763c-78.303,-20.197 -198.639,-48.97 -272.611,-7.118c-15.65,8.854 -26.247,24.251 -39.187,36.559c-44.636,42.456 -86.788,87.483 -133.54,127.731c-68.004,58.543 -137.459,115.732 -210.404,168.362c-48.188,34.768 -177.997,96.043 -229.532,119.106c-159.793,71.514 -339.273,139.74 -518.271,144.469c-60.544,1.6 -121.063,-4.589 -181.475,-8.804c-115.772,-8.076 -231.297,-19.234 -347.011,-28.062c-36.34,-2.772 -223.802,-10.225 -266.894,-27.735c-38.952,-15.828 -71.078,-44.965 -102.24,-72.64c-31.197,-27.707 -60.031,-58.515 -83.725,-92.52c-18.362,-26.353 -31.281,-56.35 -41.148,-86.694c-9.86,-30.324 -12.04,-62.519 -17.563,-93.864c-4.32,-24.518 -6.168,-49.484 -11.965,-73.712c-13.1,-54.752 -94.428,-90.896 -133.561,-111.015c-10.804,-5.554 -108.967,-23.936 -113.306,-22.647c-16.475,4.897 -9.853,70.914 0.131,98.937c51.902,145.674 23.91,338.647 140.25,451.046c43.061,41.602 101.75,66.452 142.763,109.964c10.448,11.084 31.921,36.191 28.024,56.596c-7.561,39.579 -65.489,75.52 -88.553,107.626c-32.539,45.296 -47.054,95.031 -59.784,149.409c-35.564,151.91 -14.549,295.974 6.629,447.927c6.06,43.482 21.99,94.916 17.032,139.241c-11.825,105.714 -95.1,189.774 -154.794,271.579c-15.051,20.625 -33.609,40.07 -41.774,64.075c-16.381,48.156 5.831,161.635 7.589,197.523c3.14,64.133 -0.934,128.488 2.618,192.602c2.615,47.211 15.896,78.335 39.942,119.078c12.71,21.536 27.685,41.76 42.606,61.913l190.229,-0c0,-0 26.679,-21.15 33.132,-35.967c10.275,-23.589 -11.185,-61.166 -19.661,-74.979c-28.358,-46.215 -56.6,-19.402 -80.474,-67.193c-13.7,-27.423 -4.919,-126.395 0.728,-153.751c40.805,-197.646 210.416,-346.193 329.897,-497.919c35.602,-45.212 65.9,-94.152 99.872,-140.532c56.06,-76.536 142.461,-241.608 272.365,-219.667c206.818,34.932 381.576,185.344 590.918,227.195c38.612,7.719 354.283,38.753 355.615,40.467c59.644,76.775 58.583,191.417 68.11,287.155c13.176,132.396 20.069,259.211 38.393,391.028c16.489,118.615 41.238,165.107 110.664,208.196c10.607,6.583 62.896,35.967 62.896,35.967Z" style="fill-rule:nonzero;"/></g></svg>