<?xml version="1.0" encoding="UTF-8" standalone="no"?><!DOCTYPE svg PUBLIC "-//W3C//DTD SVG 1.1//EN" "http://www.w3.org/Graphics/SVG/1.1/DTD/svg11.dtd"><svg width="100%" height="100%" viewBox="0 0 3138 2459" version="1.1" xmlns="http://www.w3.org/2000/svg" xmlns:xlink="http://www.w3.org/1999/xlink" xml:space="preserve" xmlns:serif="http://www.serif.com/" style="fill-rule:evenodd;clip-rule:evenodd;stroke-linejoin:round;stroke-miterlimit:2;"><rect id="SIZE-SETTER-15" serif:id="SIZE-SETTER 15" x="1.692" y="1.002" width="3134.22" height="2453.41" style="fill:none;"/><clipPath id="_clip1"><rect x="1.692" y="1.002" width="3134.22" height="2453.41"/></clipPath><g clip-path="url(#_clip1)"><path d="M2459.32,2317.87c-12.91,-32.24 -18.076,-115.684 -21.296,-163.587c-5.176,-77.13 -3.78,-154.752 -7.741,-232.015c-2.602,-50.879 -11.502,-101.389 -14.266,-152.279c-2.157,-39.57 199.467,-269.93 231.78,-438.189c12.663,-65.939 21.01,-460.848 24.952,-504.882c0.789,-8.805 56.047,-67.391 59.612,-97.808c5.098,-43.494 -21.78,-112.296 -29.027,-177.296c-4.711,-42.27 70.497,-99.605 98.48,-97.665c36.806,2.545 75.037,4.115 109.611,16.234c67.904,23.788 115.586,-6.773 156.686,-58.032c38.811,-48.395 54.074,-108.931 66.622,-169.97c4.569,-22.217 -4.179,-36.41 -25.361,-39.929c-17.866,-2.976 -35.961,-4.413 -53.827,-7.451c-45.973,-7.819 -91.936,-15.711 -137.765,-24.475c-19.083,-3.653 -30.975,-15.362 -38.573,-36.553c-5.433,-15.147 -18.028,-33.711 -31.136,-38.216c-97.435,-33.506 -195.629,-47.216 -291.924,5.367c-28.819,15.732 -50.912,38.986 -65.131,71.506c-28.733,65.728 -63.734,126.48 -108.994,181.669c-32.58,39.704 -54.113,89.803 -81.905,134.299c-56.658,90.748 -131.439,153.808 -234.582,168.421c-176.015,24.937 -352.173,48.652 -528.368,72.091c-102.431,13.638 -205.669,21.622 -307.321,40.084c-60.857,11.042 -121.162,32.53 -178.552,57.724c-243.786,107.043 -493.879,184.398 -757.992,201.556c-78.704,5.111 -157.228,15.158 -236.064,16.389c-51.939,0.811 -60.343,18.708 -53.485,22.936c17.591,10.847 172.941,218.934 363.371,264.001c89.872,21.269 379.813,-64.959 391.752,-77.273c9.955,-10.262 28.942,-24.834 28.686,-19.642c-1.007,20.196 -2.1,40.392 -3.296,60.587c-0.76,12.705 -27.432,167.385 -38.478,232.302c-2.489,14.644 -45.996,82.967 -66.081,126.131c-33.892,72.838 -132.037,275.864 -137.271,310.899c-5.889,39.478 -50.873,208.751 -62.585,222.625c-13.535,16.019 46.371,171.571 62.585,182.48c8.093,5.439 48.597,84.508 48.597,84.508l167.843,-0c0,-0 39.155,-29.25 28.686,-63.974c-5.362,-17.781 -47.483,-32.048 -61.759,-42.721c-58.586,-43.809 -74.667,-98.957 -72.482,-168.934c2.118,-67.442 29.207,-122.98 72.482,-170.134c5.234,-5.696 186.862,-80.403 253.057,-147.579c47.055,-47.759 98.774,-90.121 147.994,-135.428c89.209,-82.127 171.371,-171.838 240.082,-274.561c36.303,-54.255 86.559,-63.727 141.707,-61.798c12.576,0.431 72.416,24.023 89.029,31.094c14.19,6.044 182.815,77.222 201.974,89.146c22.122,13.772 42.125,31.515 63.041,47.534c0.372,0.286 43.745,23.164 54.312,32.664c14.513,13.054 74.885,62.937 101.832,66.088c17.905,2.093 10.045,-2.614 27.659,39.304c2.992,7.118 58.776,248.87 69.248,269.686c13.755,27.342 42.64,97.478 54.042,116.351c36.455,60.346 46.969,80.342 49.838,128.163c1.463,24.495 13.364,40.381 23.148,58.966c8.795,16.696 18.692,32.736 27.232,49.586c18.616,36.738 75.502,136.547 75.502,136.547l165.871,-0c0,-0 57.613,-10.677 57.518,-17.421c-0.916,-64.998 -30.895,-71.714 -53.405,-89.274c-16.916,-13.196 -47.88,-9.164 -56.164,-29.852Z" style="fill-rule:nonzero;"/></g></svg>