<?xml version="1.0" encoding="UTF-8" standalone="no"?><!DOCTYPE svg PUBLIC "-//W3C//DTD SVG 1.1//EN" "http://www.w3.org/Graphics/SVG/1.1/DTD/svg11.dtd"><svg width="100%" height="100%" viewBox="0 0 1350 1313" version="1.1" xmlns="http://www.w3.org/2000/svg" xmlns:xlink="http://www.w3.org/1999/xlink" xml:space="preserve" xmlns:serif="http://www.serif.com/" style="fill-rule:evenodd;clip-rule:evenodd;stroke-linejoin:round;stroke-miterlimit:2;"><rect id="ORIGIN-FOUNDED" x="-0" y="1.543" width="1348.57" height="1309.76" style="fill:none;"/><clipPath id="_clip1"><rect x="-0" y="1.543" width="1348.57" height="1309.76"/></clipPath><g clip-path="url(#_clip1)"><path id="FOUNDED" d="M1156.51,443.781l-3.081,1.015l-59.331,18.663l-128.046,40.23l-28.799,9.069c-13.515,-23.319 -30.251,-44.643 -49.632,-63.48l-0.052,0c-19.345,-18.855 -41.386,-35.084 -65.476,-48.214l-0.298,0.998c0.053,-0.298 0.158,-0.7 0.263,-1.068c0.21,-1.085 0.56,-2.118 0.945,-3.309c5.182,-14.968 10.364,-29.902 15.494,-44.888l2.433,-7.055c22.252,-64.793 44.328,-129.708 66.509,-194.624c0.543,-1.558 1.156,-3.116 1.873,-4.727c64.356,28.046 122.461,67.192 171.708,115.038c49.597,48.196 90.213,105.146 119.1,168.294c-15.091,4.832 -29.36,9.559 -43.61,14.058m-75.49,607.664l0,0.053c-49.614,48.179 -108.245,87.604 -173.178,115.615l-0.088,0.053c-7.23,-20.938 -14.04,-40.686 -20.675,-60.451c-14.619,-43.75 -29.009,-87.605 -43.68,-131.372l-6.303,-18.925c-4.831,-14.303 -9.611,-28.641 -14.478,-42.909c-0.21,-0.561 -0.402,-1.051 -0.525,-1.611c24.09,-13.165 46.148,-29.429 65.528,-48.267c19.293,-18.75 36.117,-40.108 49.632,-63.41l232.93,73.599l3.939,1.226c7.65,2.416 15.406,4.814 23.056,7.248c0.683,0.21 1.331,0.437 1.891,0.647l0.263,0.071c0.227,0.122 0.49,0.245 0.735,0.35c-28.869,63.024 -69.45,119.957 -119.047,168.083m-283.997,-210.888c-35.329,22.269 -77.503,35.172 -122.688,35.172c-45.063,-0 -87.062,-12.798 -122.321,-34.892c-0.087,-0.122 -0.21,-0.14 -0.333,-0.192c-13.34,-8.491 -25.787,-18.225 -37.009,-29.132l-0,-0.052c-10.994,-10.609 -20.816,-22.322 -29.324,-34.944c-0.158,-0.228 -0.263,-0.385 -0.455,-0.7c-23.004,-34.384 -36.327,-75.28 -36.327,-119.362c-0,-43.733 13.147,-84.401 35.836,-118.592c0.246,-0.385 0.491,-0.753 0.788,-1.12c8.561,-12.781 18.453,-24.633 29.482,-35.347c11.134,-10.819 23.442,-20.501 36.694,-28.834c0.28,-0.21 0.491,-0.35 0.771,-0.543c35.259,-22.041 77.205,-34.821 122.198,-34.821c44.905,0 86.747,12.728 121.953,34.699c0.508,0.333 0.98,0.595 1.488,0.963c13.008,8.281 25.157,17.822 36.134,28.536l0.07,0c10.89,10.574 20.571,22.146 29.097,34.681c0.192,0.368 0.507,0.736 0.7,1.121c22.969,34.313 36.327,75.244 36.327,119.257c-0,43.854 -13.253,84.698 -36.064,118.942c-0.298,0.49 -0.578,0.892 -0.911,1.348c-8.526,12.552 -18.259,24.229 -29.149,34.768c-10.942,10.609 -23.004,20.168 -35.994,28.432c-0.315,0.227 -0.665,0.42 -0.963,0.612m-333.576,259.978l-22.567,66.631c-65.038,-28.064 -123.686,-67.542 -173.336,-115.721c-49.527,-48.126 -90.09,-105.059 -118.941,-168.083c0.402,-0.175 0.892,-0.35 1.295,-0.508l179.761,-56.95l79.009,-25.052l1.523,-0.473l1.085,-0.315l0.07,-0c13.498,23.389 30.252,44.712 49.667,63.515l0,0.052c19.38,18.838 41.317,35.049 65.388,48.249c0.281,0.14 0.561,0.298 0.876,0.508l-63.83,188.147Zm-314.617,-671.407c28.782,-62.85 69.275,-119.608 118.802,-167.646c48.984,-47.637 106.897,-86.73 171.042,-114.776c0.088,-0.035 0.228,-0.105 0.316,-0.157c2.731,6.652 5.304,12.972 7.528,19.415c20.745,61.081 41.403,122.198 62.184,183.262l0.175,0.525l17.717,51.243c-0.105,-0 -0.193,0.07 -0.298,0.105c-24.002,13.165 -45.973,29.447 -65.283,48.179c-19.362,18.837 -36.169,40.213 -49.667,63.585l-0.07,0c0,0.053 -0.035,0.105 -0.035,0.175l-50.56,-16.194l-4.149,-1.278c-43.154,-13.673 -86.344,-27.153 -129.516,-40.756c-25.718,-8.088 -51.383,-16.439 -76.995,-24.702c-0.491,-0.158 -0.928,-0.333 -1.418,-0.473c0.035,-0.175 0.087,-0.332 0.227,-0.507m1151.78,-15.564c0,-0.193 -0.105,-0.368 -0.21,-0.508c-1.733,-4.271 -3.554,-8.578 -5.41,-12.815c-34.05,-77.835 -83.245,-147.916 -143.906,-206.896c-60.242,-58.491 -131.81,-105.935 -211.239,-139.04c-81.529,-33.946 -171.27,-52.766 -265.562,-52.766c-95.01,0 -185.398,19.118 -267.383,53.501c-78.676,33.071 -149.631,80.252 -209.4,138.305c-60.346,58.595 -109.243,128.22 -143.276,205.531c-1.523,3.308 -2.906,6.635 -4.307,9.926c-0.718,1.628 -1.365,3.239 -2.031,4.92c-30.864,75.034 -47.881,156.949 -47.881,242.733c0,86.484 17.297,169.011 48.634,244.589l0,0.035c0.928,2.328 1.926,4.639 2.941,6.95c0.701,1.768 1.488,3.519 2.294,5.269c34.068,77.574 83.14,147.479 143.626,206.214c60.469,58.736 132.388,106.355 212.201,139.478c81.233,33.683 170.623,52.31 264.582,52.31c93.872,0 183.21,-18.592 264.407,-52.24c79.902,-33.088 151.872,-80.725 212.394,-139.548c60.504,-58.805 109.61,-128.693 143.661,-206.301c0.981,-2.241 2.014,-4.569 2.942,-6.793c0.052,-0.07 0.052,-0.07 0.052,-0.14c32.773,-76.96 50.84,-161.326 50.84,-249.823c0,-85.819 -17.017,-167.821 -47.969,-242.891" style="fill-rule:nonzero;"/></g></svg>