<?xml version="1.0" encoding="UTF-8" standalone="no"?><!DOCTYPE svg PUBLIC "-//W3C//DTD SVG 1.1//EN" "http://www.w3.org/Graphics/SVG/1.1/DTD/svg11.dtd"><svg width="100%" height="100%" viewBox="0 0 1350 1317" version="1.1" xmlns="http://www.w3.org/2000/svg" xmlns:xlink="http://www.w3.org/1999/xlink" xml:space="preserve" xmlns:serif="http://www.serif.com/" style="fill-rule:evenodd;clip-rule:evenodd;stroke-linejoin:round;stroke-miterlimit:2;"><rect id="ORIGIN-CHILDHOOD" x="-0" y="4.137" width="1348.57" height="1309.76" style="fill:none;"/><g id="CHILHOOD"><g><path d="M961.613,422.851c67.595,-2.584 80.666,-100.188 80.666,-161.197c0,-142.155 -163.848,-257.346 -366.019,-257.346c-202.069,-0 -365.952,115.191 -365.952,257.346c0,61.009 13.14,158.613 80.65,161.197c32.421,1.249 101.967,-45.304 103.267,-77.04c1.642,-42.258 -51.48,-63.9 -51.48,-102.891c0,-90.692 104.602,-164.224 233.515,-164.224c129.066,-0 233.599,73.532 233.599,164.224c0,38.991 -53.156,60.633 -51.445,102.891c1.249,31.736 70.778,78.289 103.199,77.04m80.769,-161.197c0,22.857 -1.967,66.552 -15.004,102.549c-6.33,17.484 -14.577,31.291 -24.585,41.043c-11.429,11.172 -25.304,17.108 -41.18,17.707c-0.411,0 -0.839,0.069 -1.283,0.069c-15.689,-0 -40.394,-10.556 -62.908,-26.826c-23.97,-17.314 -38.597,-36.202 -39.162,-50.385c-0.821,-21.848 12.985,-38.306 26.433,-54.285c12.865,-15.295 25.047,-29.752 25.047,-48.606c-0,-43.849 -24.294,-85.046 -68.383,-116.047c-44.089,-30.949 -102.72,-48.041 -165.097,-48.041c-62.275,0 -120.94,17.092 -165.046,48.041c-44.02,31.001 -68.332,72.198 -68.332,116.047c0,18.854 12.199,33.311 25.064,48.606c13.43,15.979 27.271,32.437 26.416,54.285c-0.599,14.183 -15.21,33.071 -39.144,50.385c-22.481,16.27 -47.22,26.826 -62.909,26.826c-0.461,-0 -0.923,-0.069 -1.351,-0.069c-15.843,-0.599 -29.718,-6.535 -41.18,-17.707c-9.975,-9.752 -18.238,-23.559 -24.551,-41.043c-13.02,-35.997 -15.004,-79.692 -15.004,-102.549c-0,-34.713 9.666,-68.485 28.811,-100.222c18.425,-30.658 44.807,-58.186 78.476,-81.881c33.601,-23.593 72.729,-42.155 116.338,-55.158c45.081,-13.379 93.071,-20.256 142.412,-20.256c49.478,-0 97.45,6.877 142.497,20.256c43.609,13.003 82.771,31.565 116.355,55.158c33.635,23.695 60.016,51.223 78.528,81.881c19.059,31.737 28.742,65.509 28.742,100.222" style="fill-rule:nonzero;"/><path d="M1042.13,261.647c-0,22.823 -1.968,66.518 -14.953,102.497c-13.687,37.673 -35.757,57.434 -65.56,58.597l-1.283,0c-15.689,0 -40.342,-10.505 -62.737,-26.741c-23.935,-17.279 -38.512,-36.099 -39.093,-50.179c-0.873,-21.762 12.968,-38.22 26.347,-54.08c12.917,-15.398 25.115,-29.888 25.115,-48.81c0,-22.156 -6.176,-43.73 -18.374,-63.952c-11.754,-19.607 -28.572,-37.194 -50.06,-52.318c-21.471,-15.073 -46.432,-26.912 -74.251,-35.141c-28.845,-8.623 -59.418,-12.951 -91.017,-12.951c-31.497,-0 -62.087,4.328 -90.898,12.951c-27.818,8.229 -52.797,20.068 -74.268,35.141c-21.437,15.124 -38.306,32.711 -50.077,52.318c-12.181,20.222 -18.408,41.796 -18.408,63.952c-0,18.922 12.249,33.412 25.132,48.81c13.396,15.86 27.186,32.318 26.364,54.08c-0.598,14.08 -15.158,32.9 -39.041,50.179c-22.498,16.236 -47.151,26.741 -62.771,26.741l-1.335,0c-29.803,-1.163 -51.873,-20.924 -65.526,-58.597c-13.019,-35.979 -14.935,-79.674 -14.935,-102.497c-0,-68.69 38.032,-133.309 107.099,-181.863c69.101,-48.589 160.957,-75.398 258.664,-75.398c97.758,0 189.596,26.809 258.732,75.398c69.05,48.554 107.134,113.173 107.134,181.863" style="fill-rule:nonzero;"/><path d="M1027.17,364.148c13.002,-35.979 14.952,-79.675 14.952,-102.497c0,-68.691 -38.066,-133.31 -107.133,-181.881c-69.136,-48.588 -160.957,-75.38 -258.732,-75.38c-97.707,-0 -189.563,26.792 -258.647,75.38c-69.084,48.571 -107.099,113.19 -107.099,181.881c-0,22.822 1.916,66.518 14.918,102.497c13.653,37.673 35.74,57.433 65.526,58.597l1.351,-0c15.621,-0 40.274,-10.505 62.772,-26.741c23.866,-17.28 38.443,-36.099 39.024,-50.197c0.839,-21.744 -12.968,-38.203 -26.347,-54.062c-12.9,-15.398 -25.149,-29.889 -25.149,-48.811c-0,-22.156 6.227,-43.729 18.408,-63.952c11.788,-19.606 28.64,-37.211 50.077,-52.318c21.471,-15.072 46.45,-26.928 74.268,-35.14c28.811,-8.623 59.418,-12.952 90.898,-12.952c31.599,0 62.172,4.329 91.017,12.952c27.818,8.212 52.78,20.068 74.251,35.14c21.505,15.107 38.323,32.712 50.077,52.318c12.181,20.223 18.357,41.796 18.357,63.952c0,18.922 -12.198,33.413 -25.098,48.811c-13.396,15.859 -27.237,32.318 -26.347,54.062c0.564,14.098 15.141,32.917 39.076,50.197c22.395,16.236 47.065,26.741 62.737,26.741l1.283,-0c29.82,-1.164 51.873,-20.924 65.56,-58.597m15.106,-102.497c0,61.009 -13.071,158.63 -80.666,161.196c-32.421,1.266 -101.95,-45.303 -103.216,-77.04c-1.694,-42.258 51.462,-63.9 51.462,-102.873c0,-90.692 -104.55,-164.242 -233.599,-164.242c-128.913,0 -233.515,73.55 -233.515,164.242c0,38.973 53.122,60.615 51.48,102.873c-1.3,31.737 -70.846,78.306 -103.267,77.04c-67.51,-2.566 -80.65,-100.187 -80.65,-161.196c0,-142.155 163.883,-257.347 365.952,-257.347c202.171,0 366.019,115.192 366.019,257.347" style="fill-rule:nonzero;"/></g><path d="M1315.39,508.732l-494.916,-0c0.103,-2.002 0.154,-4.003 0.154,-6.074c0,-75.842 -65.525,-137.295 -146.38,-137.295c-80.77,-0 -146.329,61.453 -146.329,137.295c-0,2.071 0.085,4.072 0.171,6.074l-494.916,-0c-15.106,5.594 -13.036,146.09 -13.036,165.747c-0,24.158 16.663,43.678 37.262,43.678c0,0 3.576,-0.564 10.265,-1.642c69.7,-11.394 461.4,-111.975 606.583,-112.095c144.721,-0 536.831,100.701 606.634,112.095c6.741,1.078 10.265,1.694 10.265,1.694c20.599,-0 37.279,-19.572 37.279,-43.73c0,-19.657 2.071,-160.153 -13.036,-165.747" style="fill-rule:nonzero;"/><path d="M526.264,1166.55c-36.116,-54.525 -15.86,-109.067 -3.216,-166.038c16.595,-75.825 33.242,-151.581 49.7,-227.424c34.713,4.432 67.989,6.621 101.488,6.621c33.139,0 66.398,-2.189 101.077,-6.621c22.857,104.157 45.731,208.143 68.605,312.248c-13.225,170.298 -222.838,225.456 -317.654,81.214m383.06,-100.29c-24.91,-113.481 -49.974,-226.602 -74.833,-340.066c-4.431,-19.452 -24.243,-26.672 -41.95,-23.678c-41.916,6.638 -79.965,10.042 -118.305,10.042c-38.529,0 -77.006,-3.267 -118.699,-10.042c-17.69,-2.994 -37.742,4.226 -41.899,23.678c-15.842,72.557 -31.924,145.166 -47.784,217.774c-12.01,55.141 -37.878,118.716 -26.655,174.884c56.372,282.786 454.248,247.081 472.914,-36.082c0.359,-6.467 -0.582,-11.856 -2.789,-16.51" style="fill-rule:nonzero;"/></g></svg>