<?xml version="1.0" encoding="UTF-8" standalone="no"?><!DOCTYPE svg PUBLIC "-//W3C//DTD SVG 1.1//EN" "http://www.w3.org/Graphics/SVG/1.1/DTD/svg11.dtd"><svg width="100%" height="100%" viewBox="0 0 980 942" version="1.1" xmlns="http://www.w3.org/2000/svg" xmlns:xlink="http://www.w3.org/1999/xlink" xml:space="preserve" xmlns:serif="http://www.serif.com/" style="fill-rule:evenodd;clip-rule:evenodd;stroke-linejoin:round;stroke-miterlimit:2;"><rect id="NAME-V" x="2.113" y="3.822" width="975.488" height="936.514" style="fill:none;"/><clipPath id="_clip1"><rect x="2.113" y="3.822" width="975.488" height="936.514"/></clipPath><g clip-path="url(#_clip1)"><path id="V" d="M940.501,859.876c-7.72,0 -15.474,-2.959 -25.132,-9.573c-4.999,-2.789 -51.878,-20.354 -117.853,-43.258l-155.738,-50.994l-2.278,-2.278c-4.846,-1.956 -20.269,-7.482 -69.274,-22.428c-13.076,-3.911 -19.911,-6.02 -23.057,-7.346c-12.821,-4.863 -86.651,-31.457 -93.215,-33.158l0,-0.017c-5.441,-1.309 -22.309,-6.801 -93.997,-30.113l-61.723,-19.487c-34.467,-13.467 -54.77,-20.625 -66.672,-23.448c-7.822,-1.802 -36.541,-9.267 -36.541,-9.267c-2.721,-0.731 -21.544,-5.781 -56.861,-15.184l-22.734,-2.857c-0.986,0.357 -55.109,-10.151 -55.653,-10.253l-8.944,-3.588l-21.493,-15.388c-5.713,-7.38 -23.891,-55.263 -24.809,-60.942l-2.414,-14.504l11.766,-8.74c7.448,-5.696 9.693,-6.836 10.441,-7.193c78.421,-29.654 140.043,-55.228 146.997,-59.955l3.027,-1.649l7.822,-3.01c11.154,-3.622 117.105,-57.133 126.491,-62.251c3.554,-2.738 242.015,-100.067 245.348,-101.241c-0.238,0 57.711,-25.335 58.816,-25.777c1.955,-0.663 5.322,-2.143 12.038,-5.816c7.652,-3.859 12.481,-6.206 15.899,-7.583c3.775,-2.347 9.964,-5.22 24.162,-10.424c2.296,-0.918 8.655,-4.302 16.409,-8.348l13.637,-7.074c30.675,-16.239 64.308,-33.753 80.173,-40.435c2.789,-1.479 7.873,-3.469 13.127,-5.458c5.22,-1.99 11.154,-4.251 14.147,-6.054l2.959,-1.768l35.725,-17.65c38.224,-20.183 43.121,-21.085 49.753,-21.085c2.023,0 7.396,0 26.458,9.642l4.421,2.227l1.751,4.659c2.602,6.938 8.145,19.877 11.92,25.013l25.08,34.823c6.7,12.549 6.853,20.915 5.611,35.81l-1.479,16.137l-15.456,4.88c-11.359,4.081 -30.25,12.005 -55.62,23.346c-1.071,0.442 -11.953,4.268 -28.821,10.169c-41.081,14.385 -118.466,41.489 -169.222,59.819c-27.58,7.975 -87.824,36.456 -88.42,36.728l-50.212,23.703c-2.856,1.378 -17.14,8.179 -23.329,10.407c-1.462,0.697 -4.659,2.227 -9.029,4.234c-19.316,9.046 -64.529,30.198 -81.431,38.955c-12.192,6.955 -105.747,39.687 -106.699,39.993c-26.492,13.025 -46.794,23.499 -52.899,27.427c-4.693,3.027 -12.888,6.768 -26.406,12.651l-4.796,2.194c-6.716,3.06 -18.823,8.535 -22.598,10.627c-1.19,1.207 -2.346,2.465 -3.485,3.707l46.131,14.334c36.949,9.437 47.015,13.076 52.253,15.575c6.546,2.517 147.898,48.376 251.128,81.874l125.812,41.54c32.324,9.386 72.096,20.983 102.243,29.791c24.316,7.09 42.34,12.378 44.992,13.109c3.69,0.647 16.137,3.69 69.835,19.827c4.829,0.901 10.389,3.197 21.051,8.655l9.063,4.982l1.751,3.826c26.152,56.775 26.849,62.812 27.07,64.784l0.544,7.669l-3.367,6.257c-9.165,17.378 -20.693,26.22 -34.194,26.22Z" style="fill-rule:nonzero;"/></g></svg>