<?xml version="1.0" encoding="UTF-8" standalone="no"?><!DOCTYPE svg PUBLIC "-//W3C//DTD SVG 1.1//EN" "http://www.w3.org/Graphics/SVG/1.1/DTD/svg11.dtd"><svg width="100%" height="100%" viewBox="0 0 980 942" version="1.1" xmlns="http://www.w3.org/2000/svg" xmlns:xlink="http://www.w3.org/1999/xlink" xml:space="preserve" xmlns:serif="http://www.serif.com/" style="fill-rule:evenodd;clip-rule:evenodd;stroke-linejoin:round;stroke-miterlimit:2;"><rect id="NAME-T" x="2.113" y="3.822" width="975.488" height="936.514" style="fill:none;"/><path id="T" d="M957.358,920.242c-28.54,-0 -66.327,-63.892 -66.48,-87.256c-0.358,-54.032 -7.135,-265.716 -8.855,-319.271l-709.911,-0.46c0.528,0.017 -49.571,5.449 -70.704,9.434c-5.006,0.936 -20.247,5.296 -23.959,6.947c-2.384,1.073 -4.99,1.618 -7.663,1.618c-27.28,0.034 -51.495,-67.996 -60.639,-97.251c-7.748,-24.828 -8.906,-34.075 -0.358,-40.018c9.962,-6.913 26.684,-3.712 45.382,1.363c11.375,3.065 23.176,6.249 32.882,6.249l728.83,0.051c4.189,0.069 12.312,0.154 21.865,0.154c23.806,-0 36.901,-0.579 44.036,-1.158c6.08,-359 18.204,-367.906 24.079,-372.215c4.019,-2.946 8.702,-4.512 13.504,-4.512c31.316,-0 53.3,67.485 53.504,68.166c9.843,31.384 2.469,118.571 -5.313,210.867c-4.632,54.986 -9.451,111.862 -9.57,149.597c0.051,1.567 0.715,13.044 1.771,31.265c24.453,423.147 18.051,427.2 8.293,433.347c-3.15,2.01 -6.845,3.083 -10.694,3.083Z" style="fill-rule:nonzero;"/></svg>