<?xml version="1.0" encoding="UTF-8" standalone="no"?><!DOCTYPE svg PUBLIC "-//W3C//DTD SVG 1.1//EN" "http://www.w3.org/Graphics/SVG/1.1/DTD/svg11.dtd"><svg width="100%" height="100%" viewBox="0 0 980 942" version="1.1" xmlns="http://www.w3.org/2000/svg" xmlns:xlink="http://www.w3.org/1999/xlink" xml:space="preserve" xmlns:serif="http://www.serif.com/" style="fill-rule:evenodd;clip-rule:evenodd;stroke-linejoin:round;stroke-miterlimit:2;"><rect id="NAME-Z" x="0" y="3.822" width="975.488" height="936.514" style="fill:none;"/><clipPath id="_clip1"><rect x="0" y="3.822" width="975.488" height="936.514"/></clipPath><g clip-path="url(#_clip1)"><path id="Z" d="M78.266,912.905c-6.141,0 -10.415,-0.831 -13.842,-2.595c-5.818,-3.002 -53.347,-43.272 -55.688,-63.797c-0.407,-3.494 -2.087,-49.565 -0.153,-56.757c1.679,-8.82 -0.17,-83.253 -2.985,-149.933l-0.068,-1.493l0.288,-1.441c1.374,-9.516 2.765,-126.254 2.324,-136.075c-0.017,-0.611 0.509,-83.388 0.509,-86.119l-2.036,-76.044l-3.053,-21.22c0,-2.121 0.289,-15.165 0.679,-31.11c0.576,-24.833 1.34,-56.876 1.34,-65.154c0.661,-10.686 -0.373,-37.216 -2.782,-48.852c-1.238,-12.417 -2.731,-46.41 -2.799,-47.852l3.579,-70.446c-0.017,-13.587 9.177,-22.764 23.392,-22.764c2.527,0 10.279,0 36.554,17.37l2.256,1.9c4.767,5.072 12.994,11.687 24.46,19.643c10.907,8.566 351.331,250.369 576.613,410.378c147.982,105.117 199.464,141.655 217.733,154.733c0.848,-1.476 1.73,-3.053 2.561,-4.631l0,-108.001c0,-11.416 1.001,-43.374 1.764,-66.918c0.407,-13.417 0.764,-24.053 0.764,-26.258l-0,-16.827c-0.357,-6.073 1.221,-35.147 1.526,-40.931l0.085,-1.052l-0.068,0c0.085,-1.967 -0.169,-11.263 -0.424,-22.509c-0.746,-32.585 -0.984,-46.817 -0.509,-50.6c0.255,-2.9 0.407,-5.903 0.407,-8.651l-1.017,-22.357c-0,-3.731 0.169,-6.327 0.508,-8.43l0,-1.289c6.344,-147.66 6.565,-148.576 6.989,-150.256c1.272,-5.445 4.156,-12.331 8.838,-20.864l3.613,-6.598l16.131,-0l3.783,4.037c2.493,2.68 5.496,7.056 10.585,14.554c5.462,8.074 12.264,18.133 17.403,23.646l1.137,1.391c14.588,20.915 17.556,29.43 17.556,35.808l-0.186,2.103l-4.563,27.463c-0.899,17.149 -3.223,35.096 -6.701,51.957c-3.426,14.605 -3.426,19.269 -3.341,20.338c-0.662,29.091 -1.137,41.796 -2.714,48.191c-0.662,11.874 -2.307,86.001 -2.307,86.001l1.492,179.906c-0.356,6.615 -0.525,10.788 -0.525,13.333c-0,3.206 0.525,9.567 1.475,19.133l2.138,55.367l-0.085,1c-0.289,3.189 -1.595,21.848 -1.951,26.988c0.662,4.851 2.68,20.389 3.019,27.31c0,1.17 0,2.103 -4.63,64.662l0.034,15.894l-35.215,4.427l-4.359,-6.548c-6.667,-6.683 -95.5,-72.311 -149.713,-111.868l-94.923,-71.939c-171.391,-120.435 -174.207,-123.573 -175.411,-124.896c-4.597,-3.885 -53.84,-36.063 -97.756,-64.187c-5.649,-3.053 -22.153,-14.622 -99.927,-70.989c-28.633,-20.762 -61.083,-44.273 -64.984,-46.613c-44.12,-28.294 -124.048,-79.335 -156.481,-99.639c-3.952,38.42 -5.564,145.658 -4.783,243.787c3.545,246.672 3.545,246.977 3.545,247.096c0.356,15.147 4.936,108.001 16.827,149.254c12.688,32.501 13.01,36.233 13.18,38.031l0.152,1.543l-3.714,24.579l-9.296,1.357c-0.339,0.051 -8.736,1.323 -16.25,1.323Z" style="fill-rule:nonzero;"/></g></svg>