<?xml version="1.0" encoding="UTF-8" standalone="no"?><!DOCTYPE svg PUBLIC "-//W3C//DTD SVG 1.1//EN" "http://www.w3.org/Graphics/SVG/1.1/DTD/svg11.dtd"><svg width="100%" height="100%" viewBox="0 0 980 942" version="1.1" xmlns="http://www.w3.org/2000/svg" xmlns:xlink="http://www.w3.org/1999/xlink" xml:space="preserve" xmlns:serif="http://www.serif.com/" style="fill-rule:evenodd;clip-rule:evenodd;stroke-linejoin:round;stroke-miterlimit:2;"><rect id="NAME--A" serif:id="NAME -A" x="0" y="1.539" width="975.488" height="936.514" style="fill:none;"/><path id="A" d="M70.388,938.053l-3.433,-0.437c-24.303,-1.831 -40.758,-23.433 -45.561,-43.926l-1.184,-4.519c-2.063,-7.962 -6.833,-26.574 -11.788,-37.795l-8.422,-19.654l19.719,-7.945c10.3,-4.132 24.049,-8.853 33.791,-12.095c21.241,-7.038 25.655,-9.07 26.501,-9.507l1.979,-0.89l44.495,-15.505c13.953,-4.77 18.079,-6.165 20.65,-6.753l3.416,-1.276c70.49,-25.012 111.705,-38.904 122.444,-41.289c12.87,-3.276 30.323,-7.912 40.893,-10.885c0,-6.098 -0.626,-18.176 -3.535,-41.273c-2.012,-17.587 -2.858,-25.583 -1.674,-31.563c0.575,-8.197 6.68,-251.632 6.393,-261.693c1.048,-70.199 0.541,-112.479 -0.507,-118.325c-0.981,-3.225 -1.878,-7.088 -2.656,-11.254c-0.49,-0.269 -0.913,-0.487 -1.268,-0.672c-10.587,-4.703 -148.217,-77.774 -149.351,-78.396c-7.069,-4.031 -14.29,-8.113 -22.188,-12.531l-7.205,-4.266c-51.886,-28.406 -93.625,-50.73 -98.885,-52.897l-7.847,-3.242l-3.365,-7.542c-1.641,-3.561 -4.448,-8.668 -6.917,-13.136c-5.784,-10.196 -8.186,-14.446 -8.186,-21.031c0,-9.121 3.569,-12.548 13.056,-21.82c15.373,-14.883 20.041,-20.309 21.394,-22.039l7.255,-22.358l21.969,12.397c3.755,1.696 7.069,4.938 15.931,13.589l1.218,1.193c13.547,13.757 20.092,19.15 23.22,21.266l5.023,3.494c58.414,41.289 65.67,46.295 66.515,46.866l47.659,24.558c0.135,0 0.744,0.202 35.802,21.031l49.113,29.313l0.558,-5.93l13.885,-3.847c7.949,-2.452 13.936,-3.594 19.077,-3.594c9.809,-0 40.284,16.176 40.555,16.344c4.921,3.242 8.608,5.644 11.737,7.66l14.713,9.524l0,11.288c0,1.68 0,6.232 -4.295,21.233c18.13,8.382 55.218,25.684 65.703,31.63l0.135,-0.252c3.467,2.049 87.216,48.764 143.77,80.26l1.353,0.79c4.245,2.486 20.7,11.96 22.595,12.968c2.875,1.511 35.092,16.73 42.381,20.09c1.083,0.47 8.845,4.031 19.584,9.037l12.465,5.795c19.584,9.071 71.605,33.176 75.783,34.822l112.414,31.328l4.245,5.846c0,-0 49.941,67.628 53.087,72.063c7.052,8.567 10.891,18.192 10.891,27.934c0,21.636 -21.038,26.843 -77.305,40.769l-2.334,0.621c-10.35,2.587 -27.634,6.955 -31.033,8.534l-3.772,1.444c-16.117,3.746 -80.873,26.087 -99.037,32.739c-13.563,5.124 -19.922,6.955 -24.184,7.66c-6.832,2.604 -32.234,13.17 -69.204,28.708c-0.22,0.168 -1.742,0.924 -77.39,29.261l-38.39,17.873c-293.289,134.82 -344.212,155.548 -356.219,158.723c-1.979,0.857 -7.814,3.427 -15.306,6.686l-26.45,11.574c-69.424,30.572 -76.933,33.226 -84.476,33.226Zm341.996,-629.466c-0.101,1.864 -0.237,3.611 -0.355,5.174l-6.613,70.282c-0.338,7.458 -10.485,107.657 -10.587,108.48l-3.23,122.255l2.216,70.685c8.1,-3.494 15.829,-6.903 18.062,-7.979c13.546,-6.198 20.971,-9.843 25.046,-11.993l6.478,-4.351c6.477,-4.384 63.741,-29.43 70.236,-32.285c7.12,-3.209 40.589,-18.495 40.589,-18.495c22.34,-8.97 57.23,-23.282 63.978,-26.893c9.437,-4.989 80.045,-33.226 83.596,-34.62l28.041,-12.834l51.97,-25.516c-24.725,-13.472 -61.678,-32.84 -95.671,-50.058c-3.197,-1.747 -7.137,-3.997 -11.433,-6.467l-7.644,-4.266c-5.48,-3.091 -11.382,-6.501 -13.783,-7.459c-10.198,-4.031 -24.946,-12.01 -43.261,-23.231l-22.189,-12.313c-10.756,-5.728 -22.967,-12.397 -29.681,-16.075c-16.54,-8.164 -39.625,-21.35 -58.16,-31.967l-11.146,-6.383c-7.864,-4.67 -15.897,-9.356 -18.129,-10.415l-1.607,-0.856l-36.665,-22.829c-6.9,-3.292 -14.071,-6.752 -20.058,-9.591Z" style="fill-rule:nonzero;"/></svg>