<?xml version="1.0" encoding="UTF-8" standalone="no"?><!DOCTYPE svg PUBLIC "-//W3C//DTD SVG 1.1//EN" "http://www.w3.org/Graphics/SVG/1.1/DTD/svg11.dtd"><svg width="100%" height="100%" viewBox="0 0 980 942" version="1.1" xmlns="http://www.w3.org/2000/svg" xmlns:xlink="http://www.w3.org/1999/xlink" xml:space="preserve" xmlns:serif="http://www.serif.com/" style="fill-rule:evenodd;clip-rule:evenodd;stroke-linejoin:round;stroke-miterlimit:2;"><rect id="NAME--B" serif:id="NAME -B" x="0.491" y="1.539" width="975.488" height="936.514" style="fill:none;"/><path id="B" d="M340.066,892.052l-0.643,-0l-36.89,-1.388c-7.872,-0.373 -60.642,-8.804 -61.032,-8.888c-75.438,-14.899 -158.055,-169.399 -166.029,-192.897c-6.382,-18.995 -6.501,-19.249 -13.036,-32.742l-3.47,-7.178c-2.235,-4.842 -4.03,-9.363 -5.638,-13.527l-0.643,-1.625c-3.369,-8.398 -6.518,-16.321 -7.5,-18.048c-2.557,-4.943 -4.182,-8.684 -4.622,-12.358c-1.794,-6.315 -13.594,-42.392 -21.06,-65.027c-4.182,-9.058 -6.908,-24.074 -10.277,-44.136c-1.422,-8.515 -3.352,-20.214 -4.503,-22.956l-1.913,-3.065l0.389,-2.912l0,-34.468l-2.692,-88.323l-0.016,-179.404l0.152,-0.981c-0,-0 0.609,-3.86 1.693,-9.837c-0.677,-38.769 -1.016,-63.689 -1.016,-64.146l0.83,-0.034c-0.187,-5.011 -0.542,-12.765 -1.135,-24.7l-0.287,-5.435l4.147,-4.909c7.297,-7.653 25.378,-6.332 38.718,0.626c1.287,0.491 3.285,1.608 5.316,2.997l1.456,1.134c0.593,0.288 13.172,8.092 24.413,14.661c6.721,4.131 12.359,7.466 14.119,8.312c-0.152,-0.101 0.864,0.339 2.421,1.152c23.837,12.087 67.245,14.627 99.462,14.627c4.571,-0 9.345,-0.034 14.289,-0.136c40.005,-0.863 162,-0.998 291.157,-1.168c151.351,-0.22 307.849,-0.423 350.021,-1.727c13.036,-0.44 27.798,-10.022 30.727,-13.002c0.88,-0.998 8.414,-8.38 16.794,-15.744c4.233,-3.809 8.922,-7.483 13.053,-10.31l2.421,-1.761c9.752,-5.976 16.236,-5.604 22.855,-4.622c12.934,1.947 23.482,8.414 30.626,18.691l1.134,2.031c0.474,1.101 1.05,2.049 1.795,2.997l1.337,2.099c6.366,12.629 9.244,29.373 8.33,48.47c-0.017,2.488 -0.508,7.025 -2.32,24.091l-2.251,21.348l2.996,25.174c2.235,18.758 2.235,18.758 2.235,19.706c-0,1.897 -0.694,15.305 -2.556,50.315c-1.88,35.688 -4.453,84.615 -4.555,91.556c-0.372,8.042 -2.776,33.03 -5.485,57.307c-0.948,9.244 -5.705,54.565 -6.535,57.392l-0.998,3.183c-3.454,11.021 -5.384,17.573 -5.706,19.469c0.085,2.776 -26.901,84.343 -35.078,91.217c-7.754,6.349 -17.116,10.073 -27.951,11.258c-2.37,0.457 -6.027,0.711 -9.667,0.711c-17.793,0 -39.565,-8.532 -66.517,-26.072c-19.824,-16.438 -51.195,-42.358 -56.138,-45.744l-2.895,-2.759l-20.231,-27.832c-2.337,-3.945 -3.877,-6.637 -4.554,-8.11c-8.99,-14.102 -16.033,-28.069 -20.231,-40.225l-4.131,-8.295c-2.269,16.134 -4.622,30.033 -7.043,36.737c-5.807,15.999 -9.819,28.51 -11.986,37.161c-1.27,6.111 -14.12,55.986 -17.827,65.044l-12.376,29.542c-4.215,12.155 -25.868,64.231 -34.519,77.216c-14.662,21.535 -27.511,39.836 -36.247,51.687c-1.371,1.76 -5.146,6.01 -10.429,11.986c-12.748,14.339 -34.079,38.346 -47.487,55.682l-5.249,5.705c-3.826,4.097 -9.125,9.734 -10.547,11.546l-1.896,2.099c-0.948,0.847 -5.536,4.08 -13.814,9.802l-4.165,2.862c-1.778,1.439 -9.311,7.449 -53.481,27.934l-2.726,1.235c-9.904,4.521 -17.742,8.042 -20.197,8.922c-0.338,0.136 -62.69,20.316 -72.391,20.79l-0.305,0.017Zm-71.037,-102.137c3.403,0.559 9.887,1.592 17.336,2.81c13.984,2.269 31.591,5.147 37.432,6.01l38.379,-8.21c0.39,-0.068 38.312,-8.245 61.218,-24.261l3.42,-2.302c9.633,-6.975 24.514,-19.74 45.388,-38.871l4.571,-4.198l1.541,0.271c6.095,-5.198 18.572,-18.589 20.908,-22.348l12.613,-20.298c2.979,-4.3 41.799,-64.976 49.807,-77.775c0.677,-4.944 2.59,-9.972 5.824,-15.237c3.944,-5.384 7.025,-11.173 10.056,-18.758l17.488,-47.098c7.923,-24.938 16.879,-53.532 18.657,-59.948l0.846,-3.048l14.881,-38.718l11.648,-55.055l1.71,-17.065c1.168,-11.225 1.828,-17.506 1.913,-18.894l-1.016,-21.602l1.541,-36.484c-0.017,-11.343 -9.362,-49.739 -17.946,-63.96c-11.258,-0.017 -35.027,-0.643 -56.883,-1.507l-52.449,1.524c-18.876,0.457 -69.767,1.964 -69.767,1.964l-4.706,0.135c-20.976,0.61 -49.147,1.439 -79.519,2.133l-15.017,0.644c-2.742,0.169 -4.909,0.169 -5.248,0.152c-1.049,0 -3.792,0 -7.567,0.254c-3.86,0.034 -7.449,0.169 -11.326,0.457l-5.333,0.186c-1.761,-0.017 -3.488,0 -5.401,0.119l-12.917,0.491c-8.499,0.338 -16.507,0.592 -22.296,0.762l-9.786,0.321c-44.322,1.49 -79.028,2.692 -82.397,2.845l-28.306,1.015c-43.205,16.71 -56.867,24.176 -61.048,26.952c-0.542,2.184 -1.355,5.147 -2.455,9.109c-1.812,6.331 -4.199,14.288 -6.603,22.313c-3.911,13.154 -8.363,28.052 -9.43,33.317l-8.752,29.204c-2.608,16.676 -4.673,31.845 -5.96,44.83c-1.439,12.663 -2.15,23.989 -2.15,33.842c0,15.423 3.437,38.075 10.192,67.347c3.284,19.909 8.329,40.157 10.97,44.085c0,-0 4.351,24.328 4.402,24.463l6.857,24.954c2.793,12.173 6.382,21.941 11.156,30.355c3.793,6.637 5.875,12.308 6.281,17.319c1.016,3.302 4.097,11.648 5.519,15.339c14.424,30.05 28.273,52.058 40.784,64.519c1.185,1.303 3.013,3.741 5.587,7.229c20.383,27.747 28.018,35.67 30.829,37.414l1.913,1.168l17.217,13.036c0.999,0.644 8.668,4.978 54.683,26.427l0.711,0.322Zm541.547,-285.384l22.906,7.466c13.442,4.571 19.317,6.18 20.332,6.383c10.852,-0.017 25.429,-18.657 32.692,-32.133c1.405,-7.009 5.84,-23.803 19.079,-69.445l4.114,-36.738l-0.084,-10.31l0.507,-84.073l-3.216,-30.558c-2.252,-9.311 -3.403,-17.437 -3.403,-24.192c-0.017,-0.813 -0.288,-6.027 -0.626,-12.545c-0.424,-7.94 -0.915,-17.793 -1.253,-24.853c-0.559,-0.237 -1.067,-0.423 -1.507,-0.609l-179.336,3.115c-0.728,13.002 -1.253,34.943 -1.304,42.679c0.017,0.508 0.17,16.625 -1.506,27.427c-0.373,7.94 0.304,43.593 0.643,58.17l17.15,77.165c0.745,1.575 9.006,17.98 16.523,32.556l10.835,14.34c16.523,25.817 25.699,36.788 30.592,41.562c11.444,10.717 15.711,13.832 16.862,14.593Z" style="fill-rule:nonzero;"/></svg>