<?xml version="1.0" encoding="UTF-8" standalone="no"?><!DOCTYPE svg PUBLIC "-//W3C//DTD SVG 1.1//EN" "http://www.w3.org/Graphics/SVG/1.1/DTD/svg11.dtd"><svg width="100%" height="100%" viewBox="0 0 980 942" version="1.1" xmlns="http://www.w3.org/2000/svg" xmlns:xlink="http://www.w3.org/1999/xlink" xml:space="preserve" xmlns:serif="http://www.serif.com/" style="fill-rule:evenodd;clip-rule:evenodd;stroke-linejoin:round;stroke-miterlimit:2;"><rect id="NAME--J" serif:id="NAME -J" x="2.113" y="1.539" width="975.488" height="936.514" style="fill:none;"/><path id="J" d="M412.258,764.103l-80.682,-0c-29.607,-2.978 -51.973,-7.224 -67.639,-12.689l-2.842,0l-2.183,-1.996c-3.248,-1.37 -5.972,-2.656 -8.323,-3.908c-3.316,-2.166 -9.407,-5.329 -17.358,-9.542c-20.403,-10.827 -51.228,-27.187 -64.441,-38.235c-11.691,-9.829 -73.357,-106.093 -75.979,-111.541c-0.931,-1.928 -23.77,-49.79 -26.629,-57.284c-0.576,-1.472 -3.181,-7.14 -6.463,-14.279c-6.243,-13.636 -14.008,-30.622 -16.901,-38.134c-8.95,-16.698 -11.302,-23.685 -12.232,-27.339l-0.711,-3.232c-5.075,-23.363 -9.203,-38.624 -12.316,-45.34l-0.863,-2.656l-8.256,-38.743c-2.013,-14.955 -6.327,-48.098 -6.327,-53.731c-0,-12.96 1.996,-27.645 5.921,-43.649c3.096,-12.469 4.974,-18.509 6.987,-22.315c5.363,-9.305 11.606,-17.95 19.862,-27.678l6.869,-8.764l7.867,-3.13c6.462,-3.028 51.871,-19.455 55.237,-20.301l3.113,-0.372c0.745,-0.017 6.717,-0.17 17.866,-0.491l11.656,-1.895l31.163,-1.37l0.863,0.051c12.604,0.71 20.725,9.846 20.725,23.313c-0,5.007 -1.912,17.239 -19.659,23.059l-6.344,2.487c-9.711,3.807 -16.851,6.581 -21.199,8.374c-12.231,3.892 -32.059,10.557 -37.439,13.366c-3.469,2.859 -24.633,27.881 -32.703,37.693c0.795,8.713 3.282,29.928 5.684,49.046l6.582,33.464c3.451,9.931 5.972,16.698 7.393,20.234c2.199,5.938 3.468,10.557 3.908,14.448l36.628,81.342c3.502,5.312 6.716,13.044 10.269,24.683c0.423,1.557 1.522,4.298 4.906,10.54c3.079,5.634 7.546,14.939 12.604,26.274l32.55,42.549c2.521,2.724 9.813,8.899 9.864,8.95l2.47,2.132l1.133,3.079c7.597,20.403 72.596,54.628 87.67,60.228l519.047,-26.612c8.104,-0.034 38.573,-1.1 50.263,-2.944c0.254,-0.338 0.525,-0.693 0.813,-1.083c7.071,-9.457 16.765,-22.382 29.742,-22.382c3.129,-0 6.073,0.761 8.814,2.233c40.925,22.992 85.741,109.849 71.749,138.813c-4.043,8.611 -14.025,8.611 -20.623,8.611c-23.803,0 -83.592,-7.968 -108.208,-11.419l-73.374,2.486l-272.144,9.661l-59.687,3.925c-16.969,1.302 -26.527,2.013 -28.693,2.013Z" style="fill-rule:nonzero;"/></svg>