<?xml version="1.0" encoding="UTF-8" standalone="no"?><!DOCTYPE svg PUBLIC "-//W3C//DTD SVG 1.1//EN" "http://www.w3.org/Graphics/SVG/1.1/DTD/svg11.dtd"><svg width="100%" height="100%" viewBox="0 0 980 942" version="1.1" xmlns="http://www.w3.org/2000/svg" xmlns:xlink="http://www.w3.org/1999/xlink" xml:space="preserve" xmlns:serif="http://www.serif.com/" style="fill-rule:evenodd;clip-rule:evenodd;stroke-linejoin:round;stroke-miterlimit:2;"><rect id="NAME--O" serif:id="NAME -O" x="0" y="3.822" width="975.488" height="936.514" style="fill:none;"/><path id="O" d="M550.663,940.336c-3.965,0 -7.98,-0.051 -11.978,-0.152c-117.233,-3.121 -234.922,-54.744 -331.387,-145.305c-111.581,-105.019 -175.571,-245.196 -175.571,-384.613c-0,-105.272 36.136,-199.443 104.479,-272.34c73.808,-78.482 177.629,-127.085 284.841,-133.361c7.895,-0.473 16.162,-0.743 24.766,-0.743c78.464,0 196.136,22.641 311.074,130.527c116.997,109.743 186.874,264.631 186.874,414.255c0,104.31 -33.926,195.562 -98.084,263.921c-77.402,82.413 -182.185,127.811 -295.014,127.811Zm-76.643,-830.871l-2.547,0c-97.022,0.506 -188.207,38.634 -250.156,104.665c-58.304,62.016 -90.392,145.778 -90.392,235.798c0,104.58 43.678,205.5 119.848,276.895c74.095,69.625 168.351,107.921 265.39,107.921c99.991,-0 192.964,-40.337 261.812,-113.589c54.998,-58.743 85.297,-137.68 85.297,-222.319c0,-105.93 -46.073,-210.054 -126.427,-285.685c-71.244,-66.857 -164.571,-103.686 -262.825,-103.686Z" style="fill-rule:nonzero;"/></svg>