<?xml version="1.0" encoding="UTF-8" standalone="no"?><!DOCTYPE svg PUBLIC "-//W3C//DTD SVG 1.1//EN" "http://www.w3.org/Graphics/SVG/1.1/DTD/svg11.dtd"><svg width="100%" height="100%" viewBox="0 0 980 942" version="1.1" xmlns="http://www.w3.org/2000/svg" xmlns:xlink="http://www.w3.org/1999/xlink" xml:space="preserve" xmlns:serif="http://www.serif.com/" style="fill-rule:evenodd;clip-rule:evenodd;stroke-linejoin:round;stroke-miterlimit:2;"><rect id="NAME-Y" x="0.491" y="3.822" width="975.488" height="936.514" style="fill:none;"/><clipPath id="_clip1"><rect x="0.491" y="3.822" width="975.488" height="936.514"/></clipPath><g clip-path="url(#_clip1)"><path id="X" d="M420.856,420.455l36.874,-24.639l169.225,-124.079c13.563,-5.408 121.604,-86.732 150.136,-109.957l48.248,-34.94c14.427,-11.139 28.159,-22.582 30.211,-24.718l4.679,-5.866l34.991,-5.611l7.883,7.883c1.034,0.644 16.258,16.021 21.344,22.293c6.815,8.765 12.274,16.784 16.766,24.65c18.343,16.054 20.785,18.75 22.853,22.92c2.543,4.018 4.103,9.647 4.103,15.733c-0,12.189 -4.713,23.073 -13.665,31.549c-5.611,4.391 -12.68,9.036 -21.225,9.036l-4.052,0c-20.021,10.054 -118.874,66.999 -126.011,71.779c-0.865,0.611 -118.095,79.883 -133.912,89.105l-17.038,11.986c-8.9,6.392 -19.106,13.698 -23.175,16.919c-1.932,1.577 -8.646,6.256 -16.698,11.834l-14.004,9.68c-8.001,5.526 -16.936,11.646 -18.97,13.308c-1.085,1.17 -2.407,2.492 -29.125,19.479l-4.764,5.594c5.883,4.239 13.867,9.833 24.599,17.14c0.051,-0 11.409,6.951 26.141,15.97c24.294,14.884 57.81,35.381 67.405,41.212c0.475,0.272 123.232,67.609 147.136,80.188l54.826,23.395c1.068,0.611 2.848,1.628 5.34,3.357c4.95,3.255 14.952,9.816 21.039,12.63l1.542,0.865c41.586,26.87 56.691,37.381 63.472,43.348l7.324,0l0.136,9.562c0.254,0.627 0.491,1.305 0.678,2.051c0.78,2.509 1.526,6.612 2.628,18.513c6.577,18.97 9.375,30.804 9.375,39.45c-0,20.75 -15.055,28.294 -25.176,28.294c-7.645,0 -15.139,-2.78 -36.906,-18.496c-8.29,-5.594 -16.072,-10.968 -22.904,-15.681l-2.17,-1.509c-3.492,-2.339 -42.416,-24.887 -48.96,-28.345c-0,-0 -1.289,-0.746 -3.306,-2.052c-5.967,-3.848 -24.056,-15.613 -40.958,-23.7l-30.397,-19.089c-6.358,-3.306 -24.328,-13.817 -42.603,-24.514l-34.55,-20.208c-8.477,-4.95 -15.122,-8.85 -16.631,-9.663c0.22,0.135 -2.018,-1.051 -6.205,-3.594l-4.967,-3.018c-21.09,-13.308 -37.161,-23.175 -46.723,-28.634c-57.996,-31.6 -164.247,-81.628 -164.247,-81.628l-0,-0.001l-0,1.809c0.557,0.017 -329.014,5.456 -350.18,9.426c-4.831,0.929 -20.27,5.304 -24.088,6.976c-2.314,1.048 -4.898,1.622 -7.584,1.622c-27.23,-0 -51.436,-67.905 -60.574,-97.128c-7.804,-24.966 -8.97,-34.291 -0.439,-40.186c9.915,-6.892 26.621,-3.682 45.354,1.385c11.402,3.075 23.21,6.284 32.939,6.284l334.96,0.031Z" style="fill-rule:nonzero;"/></g></svg>