<?xml version="1.0" encoding="UTF-8" standalone="no"?><!DOCTYPE svg PUBLIC "-//W3C//DTD SVG 1.1//EN" "http://www.w3.org/Graphics/SVG/1.1/DTD/svg11.dtd"><svg width="100%" height="100%" viewBox="0 0 980 942" version="1.1" xmlns="http://www.w3.org/2000/svg" xmlns:xlink="http://www.w3.org/1999/xlink" xml:space="preserve" xmlns:serif="http://www.serif.com/" style="fill-rule:evenodd;clip-rule:evenodd;stroke-linejoin:round;stroke-miterlimit:2;"><rect id="NAME--M" serif:id="NAME -M" x="2.113" y="1.539" width="975.488" height="936.514" style="fill:none;"/><clipPath id="_clip1"><rect x="2.113" y="1.539" width="975.488" height="936.514"/></clipPath><g clip-path="url(#_clip1)"><path id="M" d="M75.829,938.053c-6.259,-0 -12.519,-2.971 -18.608,-8.829c-22.001,-20.897 -55.859,-97.196 -55.096,-112.743l0.289,-5.773l4.902,-4.558c0.288,-0.422 1.9,-1.553 3.834,-2.532c9.397,-4.659 24.273,-2.515 40.829,0.777c6.395,1.266 13.095,2.599 19.66,3.393c3.935,0.489 8.057,0.742 11.229,0.742c0.764,0 1.391,0 2.155,-0.067c1.781,-0.101 5.36,-0.372 11.297,-0.777l24.63,-1.721c4.326,-0.271 9.041,-0.524 14.011,-0.912l321.073,-21.624c0.39,-0.135 2.137,-0.219 3.884,-0.219l80.065,-5.537c35.605,-2.346 69.836,-4.692 101.403,-6.921c4.021,-0.202 7.057,-0.354 9.974,-0.624c4.258,-0.304 8.431,-0.591 12.519,-0.878c-41.101,-18.754 -103.643,-46.741 -148.085,-66.474l-81.422,-32.124c-13.214,-6.802 -128.205,-59.519 -135.787,-62.22l0.034,-0.085c-5.751,-1.941 -21.933,-9.368 -84.56,-38.132l-31.347,-13.184c-29.295,-12.542 -107.833,-45.965 -120.369,-50.117l-8.685,-2.87l0,-24.004c-0.169,-3.072 -0.678,-21.91 7.43,-29.506c2.443,-2.043 5.072,-3.478 19.066,-10.905c15.403,-8.17 41.169,-21.86 49.481,-28.291c5.343,-4.052 33.349,-18.839 45.138,-25.034l1.578,-0.692c6.242,-2.296 82.167,-37.305 128.578,-58.811c4.342,-2.076 23.866,-11.748 104.898,-53.021l3.698,-1.89c7.396,-3.072 28.446,-13.099 47.021,-21.945c23.273,-11.107 37.742,-17.977 42.067,-19.598c49.719,-23.109 132.378,-61.764 138.705,-65.444l0.017,0.05c3.274,-2.127 11.671,-6.33 38.998,-17.707l-511.429,-17.809c0.526,0.051 -49.871,3.714 -71.261,6.955c-4.8,0.76 -20.271,4.591 -24.46,6.212c-2.104,0.844 -4.445,1.283 -6.836,1.283c-31.432,-0 -55.638,-89.618 -60.134,-107.511l-0.169,-0.168l-0.78,-3.461c-1.069,-4.878 -1.832,-8.946 -1.968,-12.474c-1.12,-8.913 3.189,-13.285 5.954,-15.108c10.585,-6.887 27.242,-2.836 45.698,2.819c11.297,3.426 22.95,7.005 32.636,7.376c5.038,0.135 719.003,24.882 727.824,25.321c1.035,0.034 5.208,0.101 10.788,0.101c19.44,0 32.688,-0.658 38.981,-1.418c0.254,-0.321 0.543,-0.675 0.831,-1.046c9.075,-11.125 18.167,-21.118 29.872,-21.118c3.409,0 6.751,0.929 9.634,2.684c26.751,16.037 50.584,55.604 62.356,87.676c1.509,4.136 2.816,8.12 3.766,11.884c5.394,17.758 5.767,31.667 0.966,40.715c-4.02,7.968 -13.451,7.968 -17.98,7.968c-7.684,-0 -20.814,-1.266 -39.083,-3.748c-17.929,6.921 -100.877,38.69 -123.642,45.611l0.051,0.084l-124.846,59.419c0.254,0.067 2.935,-1.232 -350.486,159.282c-10.33,3.596 -87.579,43.078 -117.009,58.828c4.223,2.566 9.041,5.25 14.401,8.136l39.167,20.746l475.875,185.463c55.062,30.655 88.376,49.189 99.436,55.435c16.912,-1.907 25.139,-3.427 29.024,-4.304c0.22,-0.321 0.458,-0.676 0.678,-1.047c6.684,-10.212 15.826,-24.189 29.38,-24.189c2.697,-0 5.292,0.574 7.735,1.688c1.102,0.489 3.121,1.401 5.394,3.038c16.132,8.525 31.568,25.878 41.44,38.757c16.047,20.982 43.849,66.947 34.214,90.58c-3.884,9.841 -15.148,10.331 -34.757,10.331c-32.416,-0 -86.646,-3.832 -94.618,-4.406l-669.048,45.492c0,0.084 -10.992,2.026 -24.545,4.558c-13.469,2.582 -33.926,6.549 -45.155,9.571c-0.899,0.236 -2.409,0.692 -4.224,1.283c-7.531,2.38 -16.674,5.773 -19.371,7.174c-2.698,1.401 -5.666,2.144 -8.804,2.144Z" style="fill-rule:nonzero;"/></g></svg>