<?xml version="1.0" encoding="UTF-8" standalone="no"?><!DOCTYPE svg PUBLIC "-//W3C//DTD SVG 1.1//EN" "http://www.w3.org/Graphics/SVG/1.1/DTD/svg11.dtd"><svg width="100%" height="100%" viewBox="0 0 980 942" version="1.1" xmlns="http://www.w3.org/2000/svg" xmlns:xlink="http://www.w3.org/1999/xlink" xml:space="preserve" xmlns:serif="http://www.serif.com/" style="fill-rule:evenodd;clip-rule:evenodd;stroke-linejoin:round;stroke-miterlimit:2;"><rect id="NAME--K" serif:id="NAME -K" x="0" y="1.539" width="975.488" height="936.514" style="fill:none;"/><path id="K" d="M93.828,876.902c-11.677,0 -93.811,-50.705 -93.811,-125.223c-0,-67.494 159.715,-261.752 323.272,-454.943c32.579,-38.469 63.821,-75.381 79.967,-96.045c-122.244,0.152 -232.76,-0.017 -233.793,-0.034c0.525,0.017 -49.69,5.483 -70.845,9.46c-4.857,0.897 -20.275,5.298 -23.999,6.956c-2.403,1.1 -4.992,1.642 -7.666,1.642c-27.13,0.034 -51.349,-67.731 -60.488,-96.875c-7.92,-25.149 -9.088,-34.526 -0.558,-40.466c9.985,-6.939 26.689,-3.706 45.408,1.354c11.407,3.097 23.22,6.279 32.951,6.279l727.171,0.051c7.21,-0 37.961,-1.134 49.91,-2.996c0.237,-0.321 0.491,-0.66 0.761,-1.015c7.109,-9.444 16.823,-22.357 29.77,-22.357c3.165,-0 6.161,0.795 8.919,2.284c40.974,22.814 86.078,109.535 72.03,138.543c-4.163,8.581 -14.098,8.581 -20.664,8.581c-27.13,-0 -99.972,-10.121 -109.298,-11.441c-16.128,-0.017 -249.87,-0.542 -344.511,-0.186c81.795,74.23 409.704,338.435 431.739,354.378l2.488,2.268c30.769,36.692 48.539,76.21 41.296,91.899c-1.422,3.08 -5.992,10.29 -17.737,10.29c-17.229,0 -46.542,-17.297 -46.796,-17.483c-97.585,-68.594 -374.891,-304.232 -428.964,-350.316c-51.856,54.902 -331.006,353.058 -370,451.27c-4.028,10.104 -1.455,38.029 0.61,60.487c3.757,41.008 6.499,70.643 -15.418,73.52l-1.744,0.118Z" style="fill-rule:nonzero;"/></svg>