<?xml version="1.0" encoding="UTF-8" standalone="no"?><!DOCTYPE svg PUBLIC "-//W3C//DTD SVG 1.1//EN" "http://www.w3.org/Graphics/SVG/1.1/DTD/svg11.dtd"><svg width="100%" height="100%" viewBox="0 0 980 942" version="1.1" xmlns="http://www.w3.org/2000/svg" xmlns:xlink="http://www.w3.org/1999/xlink" xml:space="preserve" xmlns:serif="http://www.serif.com/" style="fill-rule:evenodd;clip-rule:evenodd;stroke-linejoin:round;stroke-miterlimit:2;"><rect id="NAME-Q" x="2.113" y="3.822" width="975.488" height="936.514" style="fill:none;"/><path d="M528.027,661.043c-73.03,0 -144.13,-29.05 -200.081,-81.85c-57.418,-54.216 -90.158,-130.96 -90.158,-210.123c0,-68.168 23.945,-131.449 67.679,-178.36c46.154,-49.575 114.566,-78.43 187.401,-78.894l1.955,-0c74.031,-0 144.398,28.073 198.126,78.649c60.594,57.687 95.288,136.825 95.288,217.209c0,63.77 -22.478,123.411 -63.501,167.61c-51.797,55.218 -121.7,85.759 -196.709,85.759m197.418,-550.449c-93.065,-88.227 -188.842,-106.772 -252.636,-106.772c-7.086,0 -13.903,0.22 -20.28,0.709c-87.201,5.131 -171.739,44.981 -231.844,109.24c-55.951,60.105 -85.271,137.532 -85.271,223.781c0,47.155 8.796,94.311 25.875,140.489c-5.351,10.995 -17.567,36.161 -25.142,56.684c-18.08,47.889 -36.649,163.945 -31.518,221.607c11.239,131.449 62.768,169.32 92.601,180.315c4.617,2.443 9.284,3.689 13.902,3.689c12.974,0 25.19,-8.576 32.765,-19.302c11.214,-15.417 6.352,-23.724 2.663,-27.365c-3.91,-3.689 -8.772,-4.911 -13.927,-6.377c-11.948,-3.176 -31.983,-8.551 -47.62,-47.888c-7.085,-17.836 -13.707,-58.859 -13.462,-77.697c0.513,-106.039 24.946,-159.791 38.604,-187.156c18.569,28.098 38.848,49.599 66.946,75.986c77.965,73.788 173.229,115.837 268.298,118.5l9.748,-0c91.893,-0 177.408,-37.358 240.689,-105.062c52.506,-56.195 80.116,-131.449 80.116,-216.964c-0,-121.676 -56.196,-247.505 -150.507,-336.417" style="fill:#201c19;fill-rule:nonzero;"/></svg>