<?xml version="1.0" encoding="UTF-8" standalone="no"?><!DOCTYPE svg PUBLIC "-//W3C//DTD SVG 1.1//EN" "http://www.w3.org/Graphics/SVG/1.1/DTD/svg11.dtd"><svg width="100%" height="100%" viewBox="0 0 980 942" version="1.1" xmlns="http://www.w3.org/2000/svg" xmlns:xlink="http://www.w3.org/1999/xlink" xml:space="preserve" xmlns:serif="http://www.serif.com/" style="fill-rule:evenodd;clip-rule:evenodd;stroke-linejoin:round;stroke-miterlimit:2;"><rect id="NAME-X" x="2.113" y="3.822" width="975.488" height="936.514" style="fill:none;"/><clipPath id="_clip1"><rect x="2.113" y="3.822" width="975.488" height="936.514"/></clipPath><g clip-path="url(#_clip1)"><path id="X" d="M99.355,853.514l-10.714,-0c-7.053,-0 -11.189,-0.356 -15.614,-2.442c-5.357,-2.661 -10.239,-7.069 -18.902,-16.97l-7.341,-9.324c-8.561,-10.951 -14.19,-18.123 -17.072,-21.581l-1.966,-2.017c-16.699,-18.615 -25.633,-30.957 -25.633,-43.57c-0,-16.597 4.119,-28.888 12.63,-37.618c2.678,-2.73 2.678,-2.73 23.632,-13.275l22.514,-14.647l13.833,-13.427c9.867,-7.001 17.716,-13.664 24.023,-20.445c6.273,-6.9 43.891,-35.703 143.643,-109.856l5.51,-4.102c19.275,-14.342 33.448,-24.853 36.109,-27.04c5.578,-4.408 15.835,-10.918 28.685,-18.971l6.205,-4.018c7.798,-5.018 20.36,-13.087 24.565,-16.308c3.238,-4.595 9.985,-11.647 27.294,-22.887c-36.89,-21.564 -98.904,-58.301 -114.467,-67.524l-6.9,-4.662c-8.357,-7.357 -139.184,-104.498 -147.779,-109.788c-68.456,-41.551 -73,-49.96 -75.424,-54.453l-2.34,-4.323c-1.61,-2.814 -3.712,-6.628 -5.95,-10.985l-1.882,-3.442l0.119,0c-5.985,-12.087 -12.274,-27.091 -12.274,-36.873c-0,-33.143 17.834,-44.942 34.533,-44.942c10.969,0 19.106,6.815 36.924,21.683c4.747,4.035 15.749,13.325 20.174,15.665c3.899,1.949 7.951,5.662 13.732,12.68c0.983,0.916 5.374,4.832 16.207,13.309l38.839,34.075c44.773,36.11 88.292,69.762 94.632,73.135l3.798,2.103c2.102,1.542 10.714,7.391 22.174,15.189l29.871,20.361c44.892,30.685 55.572,37.975 57.878,39.907c11.07,9.002 51.418,32.72 72.627,43.807l14.104,-14.122l169.225,-124.079c13.563,-5.408 121.604,-86.732 150.136,-109.957l48.249,-34.94c14.427,-11.139 28.159,-22.582 30.21,-24.718l4.679,-5.866l34.991,-5.611l7.883,7.883c1.034,0.644 16.258,16.021 21.344,22.293c6.815,8.765 12.274,16.784 16.766,24.65c18.344,16.054 20.785,18.75 22.853,22.92c2.543,4.018 4.103,9.647 4.103,15.733c-0,12.189 -4.713,23.073 -13.664,31.549c-5.612,4.391 -12.681,9.036 -21.226,9.036l-4.051,0c-20.022,10.054 -118.875,66.999 -126.012,71.779c-0.865,0.611 -118.095,79.883 -133.912,89.105l-17.038,11.986c-8.9,6.392 -19.106,13.698 -23.174,16.919c-1.933,1.577 -8.647,6.256 -16.699,11.834l-14.003,9.68c-8.002,5.526 -16.936,11.646 -18.971,13.308c-1.085,1.17 -2.407,2.492 -29.125,19.479l-4.764,5.594c5.883,4.239 13.868,9.833 24.599,17.14c0.051,-0 11.409,6.951 26.142,15.97c24.293,14.884 57.809,35.381 67.405,41.212c0.474,0.272 123.231,67.609 147.135,80.188l54.826,23.395c1.068,0.611 2.848,1.628 5.34,3.357c4.95,3.255 14.953,9.816 21.039,12.63l1.543,0.865c41.585,26.87 56.69,37.381 63.472,43.348l7.323,0l0.136,9.562c0.254,0.627 0.492,1.305 0.678,2.051c0.78,2.509 1.526,6.612 2.628,18.513c6.578,18.97 9.375,30.804 9.375,39.45c-0,20.75 -15.054,28.294 -25.175,28.294c-7.646,0 -15.139,-2.78 -36.907,-18.496c-8.29,-5.594 -16.072,-10.968 -22.904,-15.681l-2.17,-1.509c-3.492,-2.339 -42.416,-24.887 -48.96,-28.345c0,-0 -1.288,-0.746 -3.306,-2.052c-5.967,-3.848 -24.056,-15.613 -40.958,-23.7l-30.397,-19.089c-6.357,-3.306 -24.328,-13.817 -42.603,-24.514l-34.55,-20.208c-8.477,-4.95 -15.122,-8.85 -16.631,-9.663c0.22,0.135 -2.017,-1.051 -6.205,-3.594l-4.967,-3.018c-21.09,-13.308 -37.161,-23.175 -46.723,-28.634c-57.996,-31.6 -126.622,-68.575 -152.221,-81.628c-13.596,10.663 -47.333,37.178 -53.249,43.264l-1.339,1.169l-13.224,10.24c-54.911,42.4 -137.93,106.516 -142.795,110.703c-33.397,29.142 -39.026,35.127 -39.958,36.263c-2.306,2.39 -5.018,4.679 -16.529,14.088l-1.747,1.407c-35.126,28.193 -41.941,34.94 -43.247,36.534c-3.967,4.068 -21.7,27.294 -46.18,60.929l-6.493,8.68Z" style="fill-rule:nonzero;"/></g></svg>