<?xml version="1.0" encoding="UTF-8" standalone="no"?><!DOCTYPE svg PUBLIC "-//W3C//DTD SVG 1.1//EN" "http://www.w3.org/Graphics/SVG/1.1/DTD/svg11.dtd"><svg width="100%" height="100%" viewBox="0 0 980 942" version="1.1" xmlns="http://www.w3.org/2000/svg" xmlns:xlink="http://www.w3.org/1999/xlink" xml:space="preserve" xmlns:serif="http://www.serif.com/" style="fill-rule:evenodd;clip-rule:evenodd;stroke-linejoin:round;stroke-miterlimit:2;"><rect id="NAME--N" serif:id="NAME -N" x="2.113" y="1.539" width="975.488" height="936.514" style="fill:none;"/><path id="N" d="M63.76,866.154l-1.352,-0c-13.305,-0 -24.582,-12.663 -33.83,-25.039c-11.412,-15.047 -18.039,-29.316 -19.679,-42.384c-4.886,-30.72 14.81,-45.276 32.629,-52.174l38.615,-21.201c50.364,-34.489 108.269,-75.099 114.288,-81.185l5.799,-5.85l2.57,0.812c44.751,-27.541 453.974,-330.201 479.993,-352.078c19.003,-16.264 69.519,-59.511 76.519,-66.24c3.432,-3.28 6.678,-6.357 9.704,-9.316l-597.561,0c0.558,0.017 -49.502,5.36 -70.635,9.434c-5.039,0.947 -20.305,5.258 -24.194,6.966c-2.265,1.031 -4.903,1.589 -7.625,1.589c-28.69,0.017 -54.202,-76.418 -61.319,-99.816c-1.809,-5.748 -3.247,-10.854 -4.159,-15.047c-1.438,-6.543 -3.855,-17.6 5.173,-23.01c8.335,-5.866 25.901,-3.178 44.582,1.843c11.48,3.128 23.365,6.323 33.12,6.323l726.981,0c7.591,0 38.225,-1.099 49.992,-2.925c0.22,-0.338 0.457,-0.676 0.71,-1.014l4.109,-5.36c4.565,-5.815 9.552,-11.192 15.334,-14.269c5.444,-3.263 13.069,-3.871 19.087,-0.625c26.848,14.776 47.44,49.722 55.048,64.042c6.391,11.75 11.632,23.669 15.064,34.388c5.697,17.532 6.407,31.074 2.113,40.203c-4.379,8.707 -14.404,8.707 -20.389,8.707c-7.338,0 -18.462,-0.761 -33.898,-2.333l-7.489,5.681c-29.959,22.739 -100.155,75.978 -115.168,86.578c-20.389,14.168 -149.91,107.661 -151.228,108.607c-7.575,5.884 -118.853,95.725 -119.986,96.621c-0.693,0.71 -14.709,12.46 -62.267,52.157c-36.399,30.381 -81.709,68.218 -84.921,71.126l-0.102,-0.153c-4.159,3.855 -15.706,12.9 -52.004,41.337c-36.349,28.487 -94.981,74.473 -128.439,101.388c24.717,-0.405 162.827,-3.415 239.363,-5.122c33.796,-0.727 57.38,-1.285 57.921,-1.285c9.299,0.067 49.756,0.304 99.089,0.304c157.299,0 197.891,-2.299 208.323,-3.516c-0,-0 70.297,-7.575 75.487,-8.927l30.719,-7.608l2.824,0.592c6.002,1.234 12.189,2.992 16.517,7.303c1.505,1.268 3.01,2.604 23.162,37.279c16.738,25.614 18.445,30.263 18.445,35.284c0,5.715 -2.502,16.061 -19.358,21.099c-17.887,5.563 -24.446,6.273 -28.166,6.273c-0.152,-0 -3.263,-0.169 -8.588,-0.507c-90.873,-6.121 -149.691,-9.214 -174.864,-9.214c-3.686,-0 -6.577,0.033 -8.521,0.169l-1.099,0.727l-3.737,0.033c-256.353,2.621 -643.868,7.203 -660.774,9.164l-1.928,0.169Z" style="fill-rule:nonzero;"/></svg>