<?xml version="1.0" encoding="UTF-8" standalone="no"?><!DOCTYPE svg PUBLIC "-//W3C//DTD SVG 1.1//EN" "http://www.w3.org/Graphics/SVG/1.1/DTD/svg11.dtd"><svg width="100%" height="100%" viewBox="0 0 980 942" version="1.1" xmlns="http://www.w3.org/2000/svg" xmlns:xlink="http://www.w3.org/1999/xlink" xml:space="preserve" xmlns:serif="http://www.serif.com/" style="fill-rule:evenodd;clip-rule:evenodd;stroke-linejoin:round;stroke-miterlimit:2;"><rect id="NAME--P" serif:id="NAME -P" x="0.491" y="3.822" width="975.488" height="936.514" style="fill:none;"/><clipPath id="_clip1"><rect x="0.491" y="3.822" width="975.488" height="936.514"/></clipPath><g clip-path="url(#_clip1)"><path d="M510.58,283.954l-341.496,-0c0.543,-0 -49.849,5.48 -71.125,9.45c-4.887,0.951 -20.36,5.328 -24.093,6.991c-2.715,1.221 -5.328,1.764 -7.822,1.764c-15.762,0 -27.673,-21.056 -31.982,-28.691c-0.526,-0.933 -49.018,-95.438 -29.167,-109.25c11.317,-7.889 27.198,-3.597 45.557,1.375c11.469,3.122 23.312,6.311 33.085,6.311l729.967,0.034c7.008,0 38.125,-1.187 50.121,-3.02c0.22,-0.339 0.492,-0.678 0.746,-1.018c7.737,-10.265 22.091,-29.352 38.803,-20.173c42.201,23.441 70.696,96.192 73.008,124.343l0.162,0l-0.008,3.434l-0.025,0c-0.434,32.936 -5.135,253.414 -5.702,273.347l-0.135,7.483c-0.153,8.534 -0.34,19.546 -1.12,31.151l-2.002,30.574l-5.582,35.869l-7.228,28.249c-4.361,15.22 -9.111,25.553 -15.152,38.583l-1.136,2.511c-3.852,8.331 -10.876,19.156 -11.182,19.614l-3.817,5.786c-1.731,2.579 -6.974,9.23 -6.974,9.23l-12.267,13.37c-2.46,2.358 -21.174,19.579 -41.06,24.67c-0.034,0.017 -0.084,0.017 -0.118,0.05c-7.194,2.41 -16.662,2.868 -22.719,2.868c-3.546,-0 -5.972,-0.153 -6.04,-0.153c-3.631,-0.356 -16.373,-3.19 -26.095,-6.04c-11.453,-3.393 -17.086,-5.633 -25.841,-11.775c-0.95,-0.662 -2.189,-1.307 -3.614,-2.121c-3.817,-2.172 -9.043,-5.09 -13.879,-9.281l-1.51,-0.95c-5.243,-3.393 -14.999,-9.756 -32.39,-28.827c-10.909,-11.978 -21.208,-24.381 -26.315,-30.557l-2.8,-3.343c-3.919,-3.919 -25.399,-35.715 -27.571,-39.007c-4.921,-7.669 -16.339,-25.637 -18.477,-30.319c-1.442,-3.665 -8.518,-16.543 -14.201,-26.893c-6.482,-11.792 -13.659,-24.857 -18.511,-34.596c-3.92,-7.77 -20.361,-43.978 -20.361,-43.978c-2.901,-6.668 -4.801,-11.503 -6.311,-15.423c-1.799,-4.564 -2.936,-7.669 -4.819,-10.858c-1.815,-3.614 -1.798,-3.614 -2.341,-5.158c-0.408,-1.069 -1.188,-3.173 -3.716,-9.383l-46.591,-113.085c-1.408,-3.308 -4.361,-14.014 -4.361,-14.014l-23.793,-79.144Zm387.689,-0l-0.719,118.219c-0.221,40.856 -0.475,87.108 -0.679,90.942c-0.424,8.161 -0.305,17.188 -0.22,22.6l0.017,2.884c-0,0.238 -0.73,22.312 -2.053,32.458c-1.035,8.11 -4.785,28.793 -4.768,28.793l-1.035,4.344c-1.34,5.582 -1.34,5.582 -2.884,11.283c-1.375,5.039 -2.461,8.144 -4.005,12.487l-0.797,2.325c-2.443,7.041 -4.564,11.486 -8.093,18.901l-0.781,1.696c-1.018,2.155 -4.92,8.688 -7.923,13.659c-3.682,5.056 -8.518,11.402 -8.942,11.978c-0.645,0.493 -1.764,1.527 -3.19,2.97c-1.883,1.951 -4.75,4.869 -8.008,7.075c-4.021,2.426 -8.704,5.005 -10.129,5.582c-1.358,0.492 -2.902,1.052 -3.954,1.374c-1.17,0.119 -2.222,0.374 -3.189,0.526c-1.476,0.34 -2.868,0.628 -4.887,0.628c-1.9,0.034 -6.43,-0.39 -6.99,-0.441l-3.936,-1.256c-3.275,-0.967 -4.904,-1.442 -8.026,-3.308c-1.934,-1.154 -6.753,-4.462 -8.348,-5.837c-17.866,-15.491 -23.108,-21.259 -23.108,-21.259c-5.633,-6.312 -9.027,-10.503 -11.708,-13.811c-3.41,-4.208 -5.853,-7.177 -9.637,-10.91c-6.549,-6.397 -32.016,-46.642 -51.834,-80.22c-12.148,-20.564 -31.541,-61.352 -45.607,-92.639l-2.681,-6.583c-4.818,-11.911 -13.777,-34.087 -17.102,-40.856l-25.179,-67.664c-4.977,-13.635 -12.383,-36.309 -15.447,-45.94l305.842,-0Z"/></g></svg>