<?xml version="1.0" encoding="UTF-8" standalone="no"?><!DOCTYPE svg PUBLIC "-//W3C//DTD SVG 1.1//EN" "http://www.w3.org/Graphics/SVG/1.1/DTD/svg11.dtd"><svg width="100%" height="100%" viewBox="0 0 980 942" version="1.1" xmlns="http://www.w3.org/2000/svg" xmlns:xlink="http://www.w3.org/1999/xlink" xml:space="preserve" xmlns:serif="http://www.serif.com/" style="fill-rule:evenodd;clip-rule:evenodd;stroke-linejoin:round;stroke-miterlimit:2;"><rect id="NAME--G" serif:id="NAME -G" x="2.113" y="1.539" width="975.488" height="936.514" style="fill:none;"/><clipPath id="_clip1"><rect x="2.113" y="1.539" width="975.488" height="936.514"/></clipPath><g clip-path="url(#_clip1)"><path id="G" d="M128.503,938.366l-2.971,-0.219c-10.414,-2.076 -33.083,-2.312 -33.083,-2.312c-3.334,-5.944 -6.669,-11.889 -10.161,-17.741c-4.071,-6.82 -11.193,-12.441 -12.525,-20.271c-20.608,-121.224 -35.703,-243.321 -52.984,-365.064c-4.743,-29.505 -8.287,-57.423 -10.532,-82.776l-0.034,-44.51c-0.321,-3.038 -0.506,-12.457 -0.506,-54.537c-0,0 1.556,-34.108 3.342,-51.076c5.114,-48.602 21.464,-89.451 51.751,-127.742l2.617,-3.325c23.439,-29.446 44.931,-49.439 70.589,-77.054l1.789,-1.806c20.426,-20.611 21.537,-18.255 53.963,-35.48c9.777,-5.194 19.796,-9.925 29.808,-14.651l60.31,-22.163c16.254,-5.536 28.424,-8.085 38.535,-8.085l2.582,-0.135c26.733,-2.024 65.451,-7.009 95.419,-7.494c14.436,-0.234 28.878,0.145 43.312,0.523l1.89,0.169c6.262,1.029 18.213,2.667 39.599,4.692l4.709,0.929l13.25,4.506c29.136,6.801 59.012,22.332 88.008,27.868c24.183,-0.508 44.392,19.669 64.817,32.627l12.997,8.356l24.39,20.255l18.618,11.326c3.848,2.903 11.596,10.515 32.188,30.939l1.486,1.486c19.365,20.665 38.425,39.158 54.975,62.605l11.309,12.119l7.512,11.157l10.819,10.803l24.61,39.396c15.293,19.023 46.182,88.751 49.574,97.376l7.917,16.457l16.643,50.891c0.489,6.532 12.153,57.744 22.702,99.655l0.321,1.873c1.619,17.083 10.201,50.568 9.503,72.902l-1.064,35.007c-0.32,9.942 -0.573,18.179 -0.573,19.496l-0.524,5.114c-4.122,23.706 -2.165,48.075 -3.325,72.108l-0.321,2.397c-7.06,28.688 1.577,57.601 -20.829,78.978l-8.237,7.899l-10.971,-2.532c-9.571,-2.312 -16.997,-7.376 -21.639,-14.735l-1.941,-3.309c-18.943,-33.15 -33.055,-50.685 -24.948,-90.27l12.271,-57.119c9.287,-50.415 -0.447,-96.074 -9.03,-144.3l-0.878,-5.942l1.351,-3.629c-1.752,-40.224 -25.016,-98.316 -48.224,-132.485l-19.58,-32.053c-14.748,-21.078 -30.034,-41.149 -43.329,-62.977c-5.722,-3.831 -12.322,-10.684 -20.998,-21.656l-7.967,-8.574c-5.3,-6.836 -8.608,-11.107 -10.954,-13.841c-24.385,-18.232 -50.351,-34.132 -74.91,-52.005l-19.8,-15.309c-6.803,-5.296 -6.177,-5.164 -14.128,-9.554l-6.751,-3.747l-23.648,-9.486c-6.736,-2.717 -13.12,-6.676 -20.255,-8.035l-3.359,-0.658c-41.942,-8.369 -68.357,-21.116 -111.116,-21.116l-3.072,-0.253c-49.767,-5.574 -91.129,6.776 -139.186,14.364l-1.705,0.152c-14.6,0.405 -36.965,7.359 -41.725,9.047l-1.57,0.743l-0.658,-0.135c-19.242,3.337 -22.425,7.642 -37.168,17.352c-7.384,4.863 -14.799,9.681 -22.213,14.499l-19.799,14.33c-36.303,25.898 -50.888,46.95 -71.163,84.025l-0.878,1.3c-3.106,8.912 -20.491,67.905 -25.116,108.499c1.08,95.267 2.667,200.323 3.595,208.56l0.574,4.844c8.61,51.077 13.434,102.717 24.779,153.331l3.072,25.538c2.802,8.828 5.097,16.424 6.819,22.703c1.722,0.557 3.308,1.249 4.794,2.008l102.726,-2.008l6.448,2.278c-5.048,-1.442 10.485,0.984 15.732,0.794c11.97,-0.435 24.035,-0.605 35.834,-2.667l1.874,-0.169l58.233,-1.165c10.448,0 18.534,-0.135 24.256,-0.405l7.764,-2.143l7.123,-0.963c17.186,-2.492 20.606,-2.216 18.635,-13.013l-0.946,-5.098l1.807,-5.064c4.997,-21.657 0.332,-44.819 -1.351,-66.69l-0.776,-11.764c-3.545,-60.506 62.254,-32.175 74.488,6.059c17.807,55.654 -8.376,123.608 1.316,182.481l2.11,14.01l-11.849,7.224c-15.259,9.453 -23.361,12.829 -30.788,12.829l-3.021,-0.203c-31.785,-3.553 -74.978,0.194 -107.656,-0.827l-1.434,0c-14.787,0 -49.642,1.435 -61.12,2.599l-0.338,0.254l-6.836,0.962c-143.827,11.646 -143.996,11.646 -144.992,11.646Z" style="fill-rule:nonzero;"/></g></svg>