<?xml version="1.0" encoding="UTF-8" standalone="no"?><!DOCTYPE svg PUBLIC "-//W3C//DTD SVG 1.1//EN" "http://www.w3.org/Graphics/SVG/1.1/DTD/svg11.dtd"><svg width="100%" height="100%" viewBox="0 0 980 942" version="1.1" xmlns="http://www.w3.org/2000/svg" xmlns:xlink="http://www.w3.org/1999/xlink" xml:space="preserve" xmlns:serif="http://www.serif.com/" style="fill-rule:evenodd;clip-rule:evenodd;stroke-linejoin:round;stroke-miterlimit:2;"><rect id="NAME-U" x="2.113" y="3.822" width="975.488" height="936.514" style="fill:none;"/><path id="U" d="M68.549,917.701c-25.515,0 -48.116,-59.665 -59.332,-95.226c-9.132,-29.002 -9.369,-37.477 -1.237,-43.19c9.589,-6.864 26.583,-3.712 45.1,1.407c11.216,3.085 22.839,6.306 32.326,6.306l134.64,-0c-14.045,-23.798 -17.366,-29.816 -18.586,-32.24c-8.166,-18.797 -69.971,-117.617 -69.971,-117.617c-2.795,-7.17 -12.283,-26.629 -25.091,-47.8l-48.98,-91.565c-1.051,-4.729 -8.743,-21.171 -13.334,-31.019c-10.978,-23.934 -14.841,-32.731 -15.231,-40.46c-1.525,-7.747 -14.503,-63.903 -20.568,-82.497l-0.83,-4.221l-4.608,-73.326l0.135,-1.17c2.27,-18.493 7.675,-39.545 17.061,-66.242c2.118,-4.441 20.839,-37.782 29.903,-52.071c2.033,-4.627 48.048,-52.071 48.506,-52.512l6.201,-3.83c0.152,-0.102 3.168,-1.56 7.607,-3.729l7.776,-3.712c79.967,-38.359 82.204,-39.156 84,-39.834c23.244,-8.068 26.447,-8.068 29.276,-8.068c1.728,-0.186 20.873,-2.644 35.019,-4.61l7.082,-0.95c21.093,-2.796 23.313,-3.068 25.668,-3.068c1.118,0 1.999,0 62.669,3.916l1.728,0.102c26.989,1.661 53.538,3.271 59.332,3.593c5.828,0.356 25.701,4.255 74.139,13.798l10.267,2.034c19.077,3.78 47.455,9.373 52.962,10.255c3.93,0.152 12.554,2.695 145.059,50.104l1.914,0.882c3.457,1.932 29.531,14.374 53.995,22.391l103.602,49.122c3.643,1.356 7.472,2.763 10.775,3.932c4.033,-7.763 7.133,-10.831 10.826,-13.068l26.176,-11.509l9.945,12.966c14.13,18.68 26.142,40.257 35.765,64.225c11.657,27.68 17.366,48.02 17.366,62.004c0,5.577 -1.592,11.424 -4.659,17.374l-5.032,9.594l-10.521,1.712c-1.847,0.22 -3.439,0.339 -5.116,0.339c-13.317,-0 -32.055,-6.679 -57.316,-20.391l-49.421,-29.121l-270.025,-100.837c-17.264,-5.271 -76.765,-19.238 -84.914,-19.493l-9.996,-1.271l-9.488,-1.254c-26.498,-3.306 -47.692,-6.526 -62.873,-9.509c-18.839,0.644 -137.062,9.39 -147.058,11.729c-24.312,7.018 -33.512,9.238 -37.968,10.052c-12.486,6.085 -73.478,44.342 -81.017,52.562c-5.964,6.526 -28.514,37.918 -33.19,45.207c-2.338,10.797 -7.997,77.649 -8.014,85.005c0,0.61 -0.474,8.221 -1,15.883l-0.762,12.153l7.658,31.307c3.27,9.187 44.456,101.091 46.828,105.854c0.288,0.543 2.44,4.373 5.354,9.56c6.963,12.391 18.094,32.206 20.653,37.291c9.826,23.272 12.571,30.137 13.418,32.358l18.806,35.053c2.084,4.847 21.906,33.053 44.083,61.36l3.541,4.373l0.407,2.559c1.457,1.916 3.914,5.051 6.455,8.357l6.624,8.577c10.369,13 13.978,17.78 16.197,22.204c4.541,7.187 15.096,20.747 22.466,25.036l2.592,1.847c8.556,7.882 14.384,13.086 18.907,17.069l3.761,3.255l214.845,-0c9.809,0.932 15.011,0.559 21.517,0.051l230.414,-0.051c7.404,-0 37.408,-1.068 49.149,-2.933c0.238,-0.339 0.509,-0.695 0.78,-1.051c6.98,-9.509 16.552,-22.509 29.479,-22.509c3.185,-0 6.303,0.83 9.064,2.406c24.075,13.798 43.406,44.478 52.758,61.53c4.964,9.017 28.989,55.088 18.552,77.734c-4.269,8.831 -14.147,8.831 -20.703,8.831c-26.786,-0 -98.604,-10.103 -107.973,-11.459l-665.034,0c0.017,0.051 -29.276,3.17 -52.283,6.509c-6.659,0.933 -12.809,1.899 -17.502,2.899c-2.473,0.474 -6.81,1.559 -11.131,2.83c-8.725,2.577 -11.402,3.628 -12.215,4.035c-2.897,1.339 -5.489,1.881 -8.149,1.881Z" style="fill-rule:nonzero;"/></svg>