<?xml version="1.0" encoding="UTF-8" standalone="no"?><!DOCTYPE svg PUBLIC "-//W3C//DTD SVG 1.1//EN" "http://www.w3.org/Graphics/SVG/1.1/DTD/svg11.dtd"><svg width="100%" height="100%" viewBox="0 0 980 942" version="1.1" xmlns="http://www.w3.org/2000/svg" xmlns:xlink="http://www.w3.org/1999/xlink" xml:space="preserve" xmlns:serif="http://www.serif.com/" style="fill-rule:evenodd;clip-rule:evenodd;stroke-linejoin:round;stroke-miterlimit:2;"><rect id="NAME--D" serif:id="NAME -D" x="2.113" y="1.539" width="975.488" height="936.514" style="fill:none;"/><path id="D" d="M605.589,904.013l-39.17,-2.423c-19.263,-0.627 -34.934,-2.067 -46.252,-4.286c-6.505,-1.406 -41.321,-10.521 -74.545,-19.229l-8.556,-2.237c-17.162,-5.082 -54.045,-24.922 -58.196,-27.175c-6.98,-4.828 -19.144,-10.944 -38.475,-19.483l-23.482,-14.079l-33.664,-24.837c-22.634,-18.399 -29.123,-24.278 -31.004,-28.446c-2.541,-3.371 -8.826,-11.148 -14.061,-17.569c-9.369,-11.554 -19.077,-23.498 -23.414,-29.665c-2.254,-3.084 -13.164,-17.383 -24.77,-32.58c-11.165,-14.638 -22.939,-30.089 -28.53,-37.527l-20.72,-36.747c-36.544,-67.7 -47.184,-87.37 -50.267,-94.418l-0.305,0.102c-0,-0 -13.249,-31.885 -17.671,-43.965c-0.593,-1.203 -1.914,-3.948 -3.558,-7.302c-1.152,-2.169 -2.423,-4.625 -3.642,-7.099c-7.794,-16.315 -12.029,-27.412 -13.418,-35.104c-0.949,-6.658 -12.419,-42.118 -23.076,-73.105l-0.525,-2.033l-15.468,-96.892c-1.779,-23.6 -8.556,-62.956 -8.556,-62.956l-1.558,-107.345l0.881,-0.051c-0.204,-5.201 -0.576,-13.13 -1.203,-25.329l-0.271,-5.472l4.218,-4.998c3.423,-3.558 8.353,-5.303 15.079,-5.303c7.641,0 19.907,2.491 29.36,9.471c3.152,2.202 35.782,22.516 39.78,24.549c-0.254,-0.135 0.932,0.373 2.406,1.152c23.685,12.486 67.04,15.112 99.23,15.112c4.642,0 9.487,-0.067 14.536,-0.169c40.085,-0.881 162.491,-1.05 292.081,-1.237c151.107,-0.186 307.363,-0.389 349.481,-1.762c12.978,-0.423 27.87,-10.402 30.818,-13.536c0.83,-0.898 8.268,-8.353 16.586,-15.909c17.281,-15.773 25.075,-17.925 30.445,-17.925c2.863,0 5.472,0.221 8.115,0.61c13.029,1.999 23.635,8.691 30.733,19.348l1.068,1.982c0.508,1.169 1.118,2.22 1.88,3.219l1.22,1.966c6.421,12.842 9.267,29.936 8.251,49.47c-0.017,2.559 -0.525,7.692 -2.338,25.142l-2.287,22.533c-0.966,18.027 -10.335,352.853 -10.166,383.704l0.119,0.238l-0.779,11.825l-2.423,6.879l-14.672,59.212l-42.084,110.547c-4.947,6.286 -34.816,45.879 -41.084,54.232c-12.605,32.444 -76.172,81.067 -94.978,87.844l0.085,0.271l-49.488,14.723l-55.756,9.318l-55.96,4.744Zm-230.361,-151.056c1.271,0.56 3.524,1.474 6.218,2.593c7.691,3.185 19.009,7.878 25.904,11.164c6.641,2.491 68.006,15.384 109.344,23.652l26.498,3.947c1.931,0.136 12.198,0.356 28.971,0.356c36.425,-0 69.31,-1.034 76.442,-2.457l14.536,-1.016c17.129,-5.371 20.585,-5.811 23.262,-5.811c3.371,-0.678 25.87,-9.319 35.477,-14.588l6.336,-3.303c12.046,-6.252 17.67,-9.2 20.669,-10.657c14.604,-13.926 41.898,-41.745 48.285,-51.3l-0.305,-1.779l58.535,-82.915l17.332,-30.784l8.556,-24.955l8.708,-39.865l6.268,-35.917c0.898,-89.827 1.881,-260.434 -0.305,-296.978c-5.353,-0.474 -14.468,-0.999 -29.97,-1.474c-5.574,-0.152 -11.351,-0.305 -17.823,-0.305c-61.94,-1.118 -147.583,0.187 -160.526,0.915c-1.305,0.051 -11.843,0.458 -25.498,1c-26.193,1.05 -63.787,2.524 -67.819,2.626l-27.108,0.796c-14.316,0.407 -30.258,0.847 -47.403,1.406c-18.908,0.458 -69.87,2.033 -69.87,2.033c-76.324,2.288 -254.944,8.505 -261.771,8.793c-31.699,1.152 -61.754,2.44 -89.167,3.609l-2.931,0.136l3.863,163.27c12.131,28.785 25.786,60.179 28.344,64.38l1.508,3.287l4.1,13.994c7.048,15.146 10.945,24.007 12.131,26.667l1.084,2.829c2.948,7.133 15.739,34.579 21.533,44.948l1.508,0.135l3.05,6.574c2.812,5.963 18.788,36.222 30.275,52.046l1.034,1.694c3.625,7.099 23.041,32.817 50.097,62.652l21.551,25.26l43.71,35.545c1.373,1.05 4.693,3.185 9.284,6.15c11.318,7.336 30.107,19.5 46.083,31.647Z" style="fill-rule:nonzero;"/></svg>