<?xml version="1.0" encoding="UTF-8" standalone="no"?><!DOCTYPE svg PUBLIC "-//W3C//DTD SVG 1.1//EN" "http://www.w3.org/Graphics/SVG/1.1/DTD/svg11.dtd"><svg width="100%" height="100%" viewBox="0 0 980 942" version="1.1" xmlns="http://www.w3.org/2000/svg" xmlns:xlink="http://www.w3.org/1999/xlink" xml:space="preserve" xmlns:serif="http://www.serif.com/" style="fill-rule:evenodd;clip-rule:evenodd;stroke-linejoin:round;stroke-miterlimit:2;"><rect id="NAME--F" serif:id="NAME -F" x="2.113" y="1.539" width="975.488" height="936.514" style="fill:none;"/><path id="F" d="M956.453,830.182c-7.533,0 -15.116,-4.326 -23.871,-13.623c-14.879,-15.812 -41.702,-58.855 -40.921,-71.732l0.645,-10.518c2.086,-33.508 3.274,-51.254 4.58,-58.583c0.204,-20.189 2.63,-287.909 -0.492,-378.896l-200.569,-0c-2.375,67.303 -1.153,219.401 -0.627,286.738l0.152,19.46c0.357,3.155 9.722,77.177 9.722,77.177c7.057,39.327 7.057,42.228 7.057,43.5l0.238,1.544c0.712,4.394 2.613,15.999 -7.261,22.836c-3.682,2.528 -8.076,3.834 -12.742,3.834c-16.915,0 -35.967,-16.813 -54.053,-33.999c-2.222,-2.138 -3.902,-3.767 -4.886,-4.564l-3.257,-2.579l-1.408,-4.258c-3.529,-12.86 -4.004,-17.373 -4.004,-20.308c-0,-3.444 1.187,-28.011 1.968,-43.331c0.305,-6.311 0.543,-11.01 0.577,-11.791c-0,0 0.22,-31.149 0.509,-75.175l1.781,-259.084l-421.344,-0c0.695,-0 -61.925,6.905 -88.256,11.842c-6.057,1.205 -24.312,6.464 -30.114,8.822c-3.088,1.578 -5.616,1.934 -8.212,1.917c-40.599,0 -77.805,-137.27 -79.4,-147.33l-0.152,-1.985l-0,-12.402l0.848,-0.848l0,-1.714l4.937,-2.952l18.119,-4.479c10.18,0.204 22.378,3.546 35.255,7.109c14.302,3.936 29.114,7.99 41.448,7.99l46.655,0c17.594,1.493 35.34,2.019 56.547,1.527c42.89,-1.001 183.23,-1.17 318.956,-1.34l133.097,-0.187c104.169,-0.373 166.332,-0.933 189.999,-1.679c12.911,-0.458 27.349,-11.113 30.165,-14.455c0.865,-1.086 8.229,-9.144 16.627,-17.39c14.641,-14.031 22.988,-19.239 30.792,-19.239c30.2,0 48.879,23.616 51.203,64.775c0.475,8.076 0.17,14.523 0.068,17.017c-0.034,4.903 -2.443,30.657 -4.513,51.287l-0.017,2.494c-0.17,6.04 -0.543,19.731 -0.933,38.767c-2.833,112.653 -9.28,386.972 -9.331,391.078c-0,5.683 0.594,27.111 8.568,66.59l3.715,29.266c0.288,1.934 2.969,20.953 2.969,24.159c0.441,4.649 1.425,16.101 -5.548,26.45c-3.664,5.276 -9.178,8.262 -15.286,8.262Z" style="fill-rule:nonzero;"/></svg>