<?xml version="1.0" encoding="UTF-8" standalone="no"?><!DOCTYPE svg PUBLIC "-//W3C//DTD SVG 1.1//EN" "http://www.w3.org/Graphics/SVG/1.1/DTD/svg11.dtd"><svg width="100%" height="100%" viewBox="0 0 980 942" version="1.1" xmlns="http://www.w3.org/2000/svg" xmlns:xlink="http://www.w3.org/1999/xlink" xml:space="preserve" xmlns:serif="http://www.serif.com/" style="fill-rule:evenodd;clip-rule:evenodd;stroke-linejoin:round;stroke-miterlimit:2;"><rect id="NAME--L" serif:id="NAME -L" x="0.491" y="1.539" width="975.488" height="936.514" style="fill:none;"/><clipPath id="_clip1"><rect x="0.491" y="1.539" width="975.488" height="936.514"/></clipPath><g clip-path="url(#_clip1)"><path id="L" d="M89.712,876.902c-4.653,0 -43.57,-6.531 -68.579,-32.775c-14.602,-15.346 -21.455,-34.026 -20.423,-55.668l7.107,-143.163c-0.051,-4.315 -4.433,-504.345 -7.107,-567.509l-0.219,-5.465l4.247,-5.059c3.401,-3.537 8.426,-5.313 14.923,-5.313c7.682,-0 20,2.69 29.459,10.304c3.113,2.352 35.719,24.247 39.763,26.43c-0.136,-0.085 0.913,0.406 2.351,1.252c23.283,13.401 66.599,16.226 98.832,16.226c4.603,0 9.408,-0.067 14.416,-0.186c39.983,-0.947 162.098,-1.117 291.352,-1.303c150.795,-0.203 306.699,-0.44 348.763,-1.878c9.865,-0.372 21.15,-6.819 27.8,-12.25c0.271,-0.22 0.491,-0.44 0.711,-0.626l4.822,-4.653c8.105,-5.956 16.599,-6.768 23.469,-2.724c27.495,15.414 54.669,57.546 67.207,91.082c7.919,21.353 9.459,37.309 4.62,47.462c-3.215,8.409 -13.503,8.409 -17.885,8.409c-0.728,0.051 -2.268,0.085 -3.96,0.085c-13.857,-0 -36.277,-2.319 -48.409,-3.723c-27.123,-3.063 -54.788,-6.819 -59.983,-7.53l-160.049,0l-42.589,1.371c-3.57,0.085 -348.576,9.695 -546.866,19.509l-9.357,394.955c29.594,208.815 29.594,210.93 29.594,212.097c-0,9.51 -6.278,20.643 -24.01,20.643Z" style="fill-rule:nonzero;"/></g></svg>