<?xml version="1.0" encoding="UTF-8" standalone="no"?><!DOCTYPE svg PUBLIC "-//W3C//DTD SVG 1.1//EN" "http://www.w3.org/Graphics/SVG/1.1/DTD/svg11.dtd"><svg width="100%" height="100%" viewBox="0 0 980 942" version="1.1" xmlns="http://www.w3.org/2000/svg" xmlns:xlink="http://www.w3.org/1999/xlink" xml:space="preserve" xmlns:serif="http://www.serif.com/" style="fill-rule:evenodd;clip-rule:evenodd;stroke-linejoin:round;stroke-miterlimit:2;"><rect id="NAME--H" serif:id="NAME -H" x="2.113" y="1.539" width="975.488" height="936.514" style="fill:none;"/><clipPath id="_clip1"><rect x="2.113" y="1.539" width="975.488" height="936.514"/></clipPath><g clip-path="url(#_clip1)"><path id="H" d="M69.101,887.971c-27.27,-0 -51.471,-68.006 -60.629,-97.26c-7.801,-24.913 -8.971,-34.206 -0.441,-40.142c10.074,-6.919 26.677,-3.663 45.383,1.391c11.43,3.069 23.251,6.258 32.985,6.258c3.918,-0 325.375,0.034 539.551,0.101c-0.017,-32.832 -0.102,-150.002 -0.356,-568.686c-55.558,0 -278.756,-0.017 -377.83,-0.136l-76.112,0.136c0.543,0 -49.69,5.461 -70.872,9.429c-5.003,0.984 -20.215,5.308 -24.031,6.987c-2.391,1.086 -4.969,1.645 -7.648,1.645c-27.152,0 -51.352,-67.734 -60.51,-96.835c-7.903,-25.219 -9.107,-34.58 -0.577,-40.566c10.074,-6.971 26.711,-3.697 45.434,1.373c11.413,3.07 23.217,6.292 32.951,6.292l727.168,0.034c7.225,-0 37.937,-1.153 49.911,-3.002c0.22,-0.322 0.457,-0.644 0.729,-0.983c7.106,-9.447 16.84,-22.386 29.814,-22.386c3.154,-0 6.156,0.78 8.92,2.289c40.99,22.759 86.084,109.521 72.042,138.555c-4.172,8.598 -14.127,8.598 -20.707,8.598c-27.1,0 -99.872,-10.124 -109.267,-11.43l-131.72,0c-0,90.663 -0,490.794 -0.153,568.686l100.431,0c7.021,0 38.667,-1.221 50.334,-3.137c0.306,-0.356 0.611,-0.729 0.967,-1.119c7.242,-8.548 18.214,-21.42 31.917,-21.42c5.223,0 21.114,0 47.367,41.923c12.312,19.639 41.803,75.519 30.831,98.193c-4.189,8.598 -14.144,8.598 -20.724,8.598c-27.134,-0 -99.872,-10.108 -109.25,-11.43l-144.44,-0c0,-0 -339.18,-0 -452.805,-0.153l-76.095,0.153c0.526,0.017 -49.707,5.46 -70.889,9.429c-4.918,0.916 -20.3,5.308 -23.98,6.953c-2.442,1.119 -5.02,1.662 -7.699,1.662Z" style="fill-rule:nonzero;"/></g></svg>