<?xml version="1.0" encoding="UTF-8" standalone="no"?><!DOCTYPE svg PUBLIC "-//W3C//DTD SVG 1.1//EN" "http://www.w3.org/Graphics/SVG/1.1/DTD/svg11.dtd"><svg width="100%" height="100%" viewBox="0 0 980 942" version="1.1" xmlns="http://www.w3.org/2000/svg" xmlns:xlink="http://www.w3.org/1999/xlink" xml:space="preserve" xmlns:serif="http://www.serif.com/" style="fill-rule:evenodd;clip-rule:evenodd;stroke-linejoin:round;stroke-miterlimit:2;"><rect id="NAME--R" serif:id="NAME -R" x="2.113" y="3.822" width="975.488" height="936.514" style="fill:none;"/><path d="M508.414,211.782l-337.98,-0c0.554,-0 -49.333,5.424 -70.39,9.353c-4.836,0.94 -20.15,5.272 -23.827,6.918c-2.67,1.209 -5.256,1.729 -7.741,1.729c-15.616,0 -27.387,-20.821 -31.669,-28.377c-0.52,-0.924 -48.494,-94.452 -28.864,-108.121c11.233,-7.808 26.916,-3.56 45.102,1.36c11.317,3.09 23.071,6.247 32.726,6.247l722.438,0.033c6.918,0 37.731,-1.175 49.602,-2.989c0.218,-0.335 0.487,-0.671 0.756,-1.007c7.623,-10.159 21.845,-29.049 38.368,-19.965c41.76,23.196 69.974,95.183 72.271,123.056l0.159,0l-0.008,3.401l-0.023,-0c-0.428,32.557 -5.067,249.413 -5.627,270.519l-0.168,7.674c-0.168,8.396 -0.353,19.193 -1.108,30.561l-1.948,30.258l-5.558,35.514l-7.153,27.941c-4.316,15.062 -9.017,25.288 -14.978,38.184l-1.142,2.485c-3.795,8.245 -10.747,18.958 -11.049,19.411l-3.778,5.726c-1.746,2.586 -6.918,9.134 -6.918,9.134l-12.124,13.232c-2.451,2.334 -20.956,19.377 -40.635,24.415c-0.051,0.017 -0.084,0.017 -0.118,0.05c-7.136,2.385 -16.472,2.838 -22.484,2.838c-3.509,0 -5.91,-0.151 -5.977,-0.151c-3.594,-0.353 -16.221,-3.157 -25.859,-5.978c-11.301,-3.358 -16.876,-5.575 -25.54,-11.636c-0.957,-0.672 -2.2,-1.327 -3.61,-2.133c-3.762,-2.132 -8.933,-5.021 -13.702,-9.168l-1.495,-0.94c-5.171,-3.359 -14.826,-9.639 -32.071,-28.529c-10.797,-11.855 -20.973,-24.13 -26.027,-30.242l-2.771,-3.308c-3.895,-3.878 -25.422,-35.782 -27.303,-38.603c-4.853,-7.59 -16.153,-25.372 -18.286,-30.007c-1.427,-3.627 -8.429,-16.371 -14.071,-26.631c-6.398,-11.67 -13.5,-24.583 -18.303,-34.204c-3.862,-7.708 -20.133,-43.541 -20.133,-43.541c-2.888,-6.599 -4.752,-11.384 -6.263,-15.263c-1.78,-4.517 -2.922,-7.59 -4.752,-10.747c-1.797,-3.559 -1.78,-3.576 -2.334,-5.071c-0.386,-1.058 -1.175,-3.173 -3.661,-9.302l-3.604,-8.746c-68.75,44.795 -395.786,260.128 -459.183,345.533c-6.599,8.9 -11.72,33.919 -15.834,53.985c-7.153,34.976 -12.863,62.917 -32.29,62.917c-0.941,0 -1.898,-0.067 -2.905,-0.201c-11.67,-1.494 -35.447,-32.089 -45.455,-48.796c-21.291,-35.481 -26.514,-70.138 -15.129,-100.245c28.399,-74.939 450.648,-353.509 532.223,-406.797l-3.949,-9.582c-1.377,-3.291 -4.315,-13.853 -4.315,-13.853l-23.533,-78.341Zm383.684,-0l-0.712,116.995c-0.219,40.434 -0.504,86.207 -0.689,90.002c-0.42,8.077 -0.302,17.01 -0.218,22.366l0.034,2.855c-0,0.235 -0.739,22.081 -2.032,32.122c-1.024,8.026 -4.752,28.495 -4.735,28.495l-0.706,2.956c-1.578,6.532 -1.578,6.532 -2.686,10.696l-0.504,1.813c-1.343,4.987 -2.418,8.06 -3.929,12.359l-0.806,2.3c-2.418,6.969 -4.5,11.368 -8.01,18.706l-0.772,1.679c-1.008,2.133 -4.853,8.597 -7.825,13.517c-3.644,5.004 -8.429,11.284 -8.849,11.855c-0.638,0.487 -1.746,1.511 -3.157,2.939c-1.864,1.931 -4.702,4.819 -7.926,7.002c-3.996,2.401 -8.63,4.97 -10.041,5.524c-1.343,0.487 -2.871,1.041 -3.912,1.36c-1.159,0.118 -2.183,0.37 -3.14,0.521c-1.461,0.336 -2.838,0.621 -4.836,0.621c-1.931,-0.05 -6.381,-0.386 -6.952,-0.437l-3.879,-1.242c-3.224,-0.957 -4.853,-1.427 -7.909,-3.258c-1.914,-1.141 -6.683,-4.416 -8.295,-5.793c-17.748,-15.398 -22.836,-21.023 -22.853,-21.039c-5.591,-6.264 -8.95,-10.411 -11.62,-13.702c-3.358,-4.131 -5.776,-7.07 -9.52,-10.764c-6.465,-6.33 -31.652,-46.143 -51.282,-79.39c-12.056,-20.402 -31.232,-60.768 -45.152,-91.698c-0.285,-0.689 -1.326,-3.224 -2.787,-6.834c-6.549,-16.221 -13.82,-34.087 -16.792,-40.099l-24.918,-66.964c-4.929,-13.501 -12.251,-35.933 -15.288,-45.463l302.698,-0Z"/></svg>