<?xml version="1.0" encoding="UTF-8" standalone="no"?><!DOCTYPE svg PUBLIC "-//W3C//DTD SVG 1.1//EN" "http://www.w3.org/Graphics/SVG/1.1/DTD/svg11.dtd"><svg width="100%" height="100%" viewBox="0 0 980 942" version="1.1" xmlns="http://www.w3.org/2000/svg" xmlns:xlink="http://www.w3.org/1999/xlink" xml:space="preserve" xmlns:serif="http://www.serif.com/" style="fill-rule:evenodd;clip-rule:evenodd;stroke-linejoin:round;stroke-miterlimit:2;"><rect id="NAME-W" x="2.113" y="3.822" width="975.488" height="936.514" style="fill:none;"/><path d="M932.631,905.307l-1.715,12.43c-3.754,22.599 -13.425,22.599 -16.657,22.599c-4.226,0 -69.387,-9.919 -76.845,-12.679c-7.931,-2.461 -143.448,-38.012 -149.166,-39.28c-0.249,-0 -150.882,-40.275 -152.15,-40.748c-6.936,-1.765 -304.795,-69.859 -386.066,-86.541c-5.221,-0.994 -16.905,-1.715 -26.129,-2.237c-13.176,-0.721 -20.386,-0.995 -24.612,-2.461c-9.423,-2.76 -12.431,-12.431 -14.171,-16.906c-1.715,-3.729 -4.475,-7.483 -6.688,-10.715c-5.743,-7.682 -10.963,-14.892 -9.969,-23.096c2.238,-19.416 92.234,-46.266 93.229,-46.49c17.651,-4.748 276.703,-75.354 299.326,-84.279c2.486,-0.994 18.422,-6.488 41.767,-14.668c54.221,-19.143 156.127,-54.694 210.075,-74.856c-7.931,-2.213 -19.118,-4.972 -32.543,-8.428c-314.268,-82.041 -315.759,-83.036 -318.246,-84.527c-4.947,-1.268 -129.028,-32.568 -163.088,-41.021c-6.961,-1.765 -15.414,-3.232 -22.872,-4.475c-5.444,-0.994 -10.665,-1.989 -14.419,-2.983c-3.456,-0.746 -8.204,-2.238 -11.909,-3.232c-1.988,-0.746 -3.505,-1.268 -4.499,-1.517c-0,0.249 -2.984,1.243 -6.216,3.008c-22.126,11.934 -26.85,12.655 -30.802,12.655c-9.224,-0 -42.786,-27.074 -43.035,-27.323c-2.461,-2.983 -18.148,-39.529 -18.148,-45.495c-0,-6.215 2.983,-18.422 13.425,-22.126c1.74,-0.498 189.689,-62.426 197.893,-63.147c6.489,-1.517 75.851,-23.618 137.009,-43.259c81.793,-26.104 136.213,-43.506 146.183,-45.744c1.218,-0.522 216.017,-69.362 267.007,-86.292c7.458,-2.461 17.875,-7.21 26.328,-10.666c13.424,-5.991 15.662,-6.986 19.167,-6.986c6.688,0 12.903,2.511 17.627,7.21l2.486,3.232c0.994,0.995 13.201,14.419 14.668,15.936c0.994,0.994 4.748,5.693 11.187,14.171c12.207,16.159 16.906,22.375 18.646,25.582c12.207,15.19 14.668,23.866 9.696,31.076c-3.481,5.221 -12.679,9.447 -27.099,12.43c-0.497,0 -3.704,0.523 -8.452,0.995c-7.956,0.522 -21.132,1.765 -28.59,3.754c-12.158,2.983 -31.823,8.925 -51.438,14.892c-17.427,5.22 -35.054,10.715 -48.255,14.195c-2.735,0.746 -256.566,68.119 -290.352,76.05l0,0.273c-8.726,2.71 -154.908,52.681 -217.533,75.827c27.844,7.93 95.217,26.576 101.159,27.844c3.257,0.497 37.292,8.701 127.04,30.554c123.31,30.082 310.016,75.354 325.182,77.591c21.877,2.983 55.191,11.66 65.384,15.638c9.199,3.008 47.982,52.73 48.255,52.954c1.467,3.232 2.461,6.737 2.983,10.218l1.244,4.723l-4.003,5.693c-0.224,0.522 -0.746,1.517 -1.467,2.76c-3.978,7.21 -9.969,18.397 -20.635,21.355c-19.167,5.743 -73.339,16.682 -116.846,25.384c-22.649,4.723 -46.267,9.447 -49.498,10.441c-2.984,0.995 -335.375,97.952 -372.145,107.126l0,0.274c-4.748,1.715 -34.581,15.662 -55.937,26.327c82.787,22.873 344.797,89.028 361.703,92.235c1.989,-0 52.481,9.447 102.676,19.168c50.219,9.447 100.214,19.118 100.687,19.366c20.883,8.478 45.495,40.051 54.47,54.471l5.693,1.74Z" style="fill:#201c19;fill-rule:nonzero;"/></svg>