<?xml version="1.0" encoding="UTF-8" standalone="no"?><!DOCTYPE svg PUBLIC "-//W3C//DTD SVG 1.1//EN" "http://www.w3.org/Graphics/SVG/1.1/DTD/svg11.dtd"><svg width="100%" height="100%" viewBox="0 0 980 942" version="1.1" xmlns="http://www.w3.org/2000/svg" xmlns:xlink="http://www.w3.org/1999/xlink" xml:space="preserve" xmlns:serif="http://www.serif.com/" style="fill-rule:evenodd;clip-rule:evenodd;stroke-linejoin:round;stroke-miterlimit:2;"><rect id="NAME--E" serif:id="NAME -E" x="2.113" y="1.539" width="975.488" height="936.514" style="fill:none;"/><clipPath id="_clip1"><rect x="2.113" y="1.539" width="975.488" height="936.514"/></clipPath><g clip-path="url(#_clip1)"><path id="E" d="M91.517,878.805c-4.644,0 -43.617,-6.531 -68.689,-32.844c-14.63,-15.353 -21.529,-34.132 -20.478,-55.796l7.154,-143.555c-0.712,-54.508 -6.866,-539.442 -6.866,-541.461l0.322,-12.723c-0.169,-4.191 -0.39,-9.094 -0.61,-14.895l-0.237,-5.412l4.221,-5.107c3.39,-3.545 8.408,-5.343 14.917,-5.343c7.748,-0 20.156,2.731 29.666,10.45c3.086,2.222 35.956,24.293 39.838,26.397c-0.153,-0.068 0.949,0.458 2.288,1.238c23.224,13.402 66.638,16.235 98.949,16.235c4.627,0 9.408,-0.067 14.443,-0.169c40.006,-0.933 162.077,-1.103 291.336,-1.323c151.398,-0.221 307.932,-0.442 350.143,-1.9c12.917,-0.459 27.462,-11.146 30.31,-14.471c32.734,-36.712 43.363,-36.712 47.38,-36.712c13.206,0 24.716,4.75 33.26,13.742c17.596,18.44 18.817,50.486 17.986,67.96c-0.034,2.528 -0.373,8.414 -4.577,51.437c-0.424,9.568 -10.307,429.324 -10.358,432.293c0,3.851 0.424,25.583 8.68,66.603l3.661,29.383c3.069,22.207 3.069,22.597 3.069,23.937c0.407,4.801 1.322,16.269 -5.696,26.567c-3.56,5.259 -9.12,8.245 -15.206,8.279c-7.527,-0 -15.155,-4.36 -23.919,-13.742c-14.85,-15.845 -41.634,-58.867 -40.821,-71.709l0.95,-15.252c1.831,-28.924 2.966,-46.5 4.255,-53.862c1.288,-137.516 1.898,-355.02 -1.475,-398.873c-13.172,-1.205 -44.991,-2.324 -102.271,-2.324c-41.109,-0 -78.335,0.559 -96.118,1.085c-2.458,29.129 -3.051,130.73 -1.729,302.768l0.17,24.701c0.254,2.019 5.95,47.416 9.713,77.172c7.052,39.324 7.052,42.225 7.052,43.464l0.237,1.594c0.729,4.343 2.662,15.947 -7.238,22.801c-3.628,2.527 -8.052,3.885 -12.765,3.885c-16.748,-0 -35.65,-16.677 -53.602,-33.726c-2.305,-2.205 -4.085,-3.936 -5.086,-4.733l-3.339,-2.613l-1.458,-4.343c-3.441,-12.842 -3.899,-17.439 -3.899,-20.256c0,-3.477 1.17,-28.093 1.916,-43.395c0.322,-6.26 0.542,-10.908 0.559,-11.723l0,0.017c0,0 0.102,-14.64 0.271,-37.916c0.509,-76.273 1.814,-262.969 2.119,-314.44c-65.265,1.884 -358.025,10.485 -534.63,19.255l-9.324,395.955c29.683,209.463 29.683,211.482 29.683,212.703c-0,9.534 -6.323,20.697 -24.157,20.697Z" style="fill-rule:nonzero;"/></g></svg>