<?xml version="1.0" encoding="UTF-8" standalone="no"?><!DOCTYPE svg PUBLIC "-//W3C//DTD SVG 1.1//EN" "http://www.w3.org/Graphics/SVG/1.1/DTD/svg11.dtd"><svg width="100%" height="100%" viewBox="0 0 980 942" version="1.1" xmlns="http://www.w3.org/2000/svg" xmlns:xlink="http://www.w3.org/1999/xlink" xml:space="preserve" xmlns:serif="http://www.serif.com/" style="fill-rule:evenodd;clip-rule:evenodd;stroke-linejoin:round;stroke-miterlimit:2;"><rect id="NAME--I" serif:id="NAME -I" x="2.113" y="1.539" width="975.488" height="936.514" style="fill:none;"/><clipPath id="_clip1"><rect x="2.113" y="1.539" width="975.488" height="936.514"/></clipPath><g clip-path="url(#_clip1)"><path id="I" d="M69.047,547.785c-27.23,0 -51.436,-67.905 -60.575,-97.128c-7.804,-24.966 -8.969,-34.29 -0.439,-40.185c9.916,-6.892 26.622,-3.683 45.355,1.385c11.402,3.074 23.209,6.284 32.939,6.284l727.278,0.067c7.196,0 37.956,-1.165 49.916,-3.007c0.236,-0.321 0.489,-0.658 0.76,-0.996c7.094,-9.477 16.824,-22.399 29.78,-22.399c3.159,0 6.149,0.794 8.902,2.298c40.996,22.77 86.081,109.492 72.01,138.546c-4.172,8.531 -14.054,8.531 -20.608,8.531c-27.061,-0 -99.915,-10.118 -109.307,-11.419l-673.461,-0c0.557,0.017 -49.713,5.456 -70.878,9.426c-4.831,0.929 -20.27,5.304 -24.088,6.976c-2.314,1.047 -4.899,1.621 -7.584,1.621Z" style="fill-rule:nonzero;"/></g></svg>