<?xml version="1.0" encoding="UTF-8" standalone="no"?><!DOCTYPE svg PUBLIC "-//W3C//DTD SVG 1.1//EN" "http://www.w3.org/Graphics/SVG/1.1/DTD/svg11.dtd"><svg width="100%" height="100%" viewBox="0 0 980 942" version="1.1" xmlns="http://www.w3.org/2000/svg" xmlns:xlink="http://www.w3.org/1999/xlink" xml:space="preserve" xmlns:serif="http://www.serif.com/" style="fill-rule:evenodd;clip-rule:evenodd;stroke-linejoin:round;stroke-miterlimit:2;"><rect id="NAME-S" x="2.113" y="3.822" width="975.488" height="936.514" style="fill:none;"/><path id="S" d="M433.446,933.113l-38.073,-0c-4.939,-0 -41.541,-4.753 -47.951,-6.089c-6.461,-1.455 -167.432,-59.926 -196.389,-91.488c-17.032,-18.741 -28.5,-32.712 -33.557,-39.562c-4.939,-6.935 -7.358,-12.635 -8.965,-16.373c-0.338,-0.727 -0.575,-1.268 -0.795,-1.708c-5.818,-4.719 -8.457,-11.197 -9.843,-15.662c-0.931,-2.047 -6.766,-9.371 -8.694,-11.789c-2.453,-3.045 -4.838,-5.988 -6.495,-8.39c-11.366,-16.948 -23.088,-38.192 -35.909,-65.085c-12.922,-27.35 -18.402,-41.575 -19.637,-50.674l-1.353,-10.893c-0.524,-6.258 -1.285,-12.381 -1.928,-16.136c-2.74,-17.184 -6.428,-30.682 -9.996,-42.742l-0.711,-2.486c-1.353,-4.634 -2.469,-8.626 -3.095,-12.077c-3.603,-15.746 -6.191,-46.716 -7.019,-60.805c-1.032,-17.845 -0.948,-54.463 -0.897,-78.701l0.203,-19.502c-0.017,-5.277 27.891,-143.11 28.196,-144.107c1.843,-9.303 5.937,-16.559 8.119,-20.45l0.913,-2.587l0.846,-3.721c1.048,-4.77 2.131,-9.523 3.602,-13.954c8.474,-23.426 18.335,-49.491 28.078,-67.657c11.467,-20.516 33.168,-55.19 54.784,-66.691c1.979,-1.134 7.713,-5.362 14.022,-9.929l27.992,-20.398c3.417,-2.419 5.853,-4.922 8.052,-7.121c5.835,-5.666 11.636,-11.299 20.161,-14.123l7.002,-1.167c12.77,-0 47.85,20.567 49.947,22.039c6.005,3.771 11.993,7.154 17.168,10.063c8.203,4.398 13.904,7.832 18.25,11.942c4.263,4.448 8.474,11.569 6.8,22.648c-0.119,6.833 -3.129,14.157 -8.542,19.603c-4.144,4.144 -8.44,7.662 -13.176,10.825l-2.131,1.59c-4.922,3.552 -10.52,7.56 -17.303,8.981l-4.702,0.406c-5.413,-0.034 -9.658,-0.964 -13.176,-1.928l-0.88,-0.22c-1.454,0.355 -3.721,1.032 -5.057,1.522c-6.038,2.571 -17.218,9.201 -27.079,15.037c-13.937,8.237 -26.42,15.611 -36.281,19.789c-4.262,5.954 -15.662,23.866 -45.82,75.927l-3.044,5.227c-3.485,5.97 -6.546,11.247 -8.88,15.188l-1.353,2.115c-0.795,1.268 -1.726,2.723 -2.774,4.262c-1.692,2.368 -3.89,5.615 -4.685,7.408c-1.286,3.755 -1.455,7.087 -1.59,9.997c-0,3.044 -0.339,5.902 -1.1,8.676c-0.49,4.009 -20.973,170.206 -21.853,178.173c0.728,37.278 3.772,66.658 5.937,75.284c4.33,4.685 5.836,12.854 10.791,39.798l1.117,6.191c1.86,10.064 3.941,21.498 5.463,26.826c3.958,14.461 19.197,51.892 21.447,56.154l1.573,2.588c4.922,9.54 10.723,18.622 18.166,28.602c5.632,7.611 11.264,14.14 16.778,19.349c0.964,0.93 1.979,1.539 3.282,2.453l2.943,1.996c4.719,3.179 11.112,7.543 18.977,13.615c2.791,2.081 7.205,5.7 11.603,9.337l4.381,3.62c3.18,2.824 5.768,4.972 7.746,6.511c4.906,4.026 9.151,6.242 10.91,6.918c4.905,0.203 11.096,2.148 57.491,17.878l5.97,2.03c13.498,4.618 27.114,9.32 30.243,10.216c4.211,0.71 7.763,2.571 13.463,5.582l4.533,2.385c-0.237,-0.22 1.404,0.033 3.028,0.338l2.452,0.44c3.485,0.541 7.815,1.437 12.804,2.452l2.064,0.423c19.671,4.601 45.278,7.544 58.59,6.343c11.4,-0.998 30.293,-2.588 53.414,-16.796c8.423,-5.243 23.95,-23.375 35.959,-46.429l4.533,-8.66c1.929,-3.433 3.214,-5.581 3.772,-7.019c0.981,-3.484 2.368,-9.861 3.907,-16.897l2.047,-9.337c1.877,-8.643 3.738,-17.083 5.311,-22.58c3.941,-14.258 4.888,-28.077 4.905,-28.212c0.254,-10.081 1.472,-33.05 2.317,-49.305l0.322,-5.92c0.304,-5.734 0.49,-9.793 0.49,-10.774l0.102,-2.452c0.084,-2.385 0.287,-6.8 0.389,-11.857c0.507,-11.468 1.014,-25.591 1.014,-28.382c0,-1.962 0.576,-10.284 1.083,-17.404l0.744,-8.694c0,-17.828 0.355,-28.094 0.524,-31.156c-2.926,-73.846 0.017,-104.19 2.013,-115.624c4.246,-32.576 22.733,-91.623 29.515,-111.616c8.22,-23.645 17.455,-37.363 22.225,-43.452c11.569,-14.563 28.179,-28.703 49.457,-42.099c13.463,-8.355 55.444,-21.886 71.36,-21.886c3.687,-0 6.918,0.625 10.165,1.877c5.244,2.03 13.87,5.362 23.595,8.965c44.552,16.389 44.552,16.389 48.679,21.26c5.209,5.633 11.637,10.961 19.485,17.27c7.527,5.97 16.948,13.48 25.033,22.546c2.503,2.825 5.666,7.375 8.761,11.958l1.742,2.537c1.675,2.436 3.298,4.838 4.499,6.326c1.861,2.622 4.229,5.362 6.715,8.17l2.486,3.01c4.517,5.396 8.762,10.521 11.722,15.155c1.979,3.282 4.33,8.271 6.241,12.906c1.066,2.3 1.776,3.822 2.284,5.125c0.405,0.896 1.539,2.926 2.74,4.989l5.277,10.521c4.55,9.827 10.656,24.254 16.559,38.716l2.503,6.021c4.702,11.35 9.133,22.141 12.601,29.583c2.046,4.431 3.924,8.339 5.666,11.924l1.641,3.349c4.245,8.914 7.222,15.307 8.981,20.043c7.611,22.411 12.11,38.091 14.563,47.427c0.727,2.842 1.624,6.089 2.622,9.658l4.719,17.422c3.332,12.499 6.816,25.472 8.761,33.929c1.049,4.584 2.994,13.92 3.687,18.521c1.912,14.309 3.755,35.942 5.531,56.899l0.406,4.905c0.677,9.962 1.506,18.876 2.165,25.675l1.15,11.671c0.981,9.15 2.064,20.06 2.487,27.028c0.355,2.335 0.017,6.563 -1.269,23.765l-0.71,11.332c-0.389,5.531 -0.812,11.146 -1.489,14.8c-0.321,1.877 -1.184,5.091 -2.097,8.372l-1.387,5.277c-0.101,0.762 0.085,5.785 0.186,8.508c0.389,16.187 0.93,39.461 -18.199,57.998c-8.677,8.17 -22.006,10.301 -28.534,10.301c-4.127,-0 -7.696,-0.592 -10.961,-1.81c-14.901,-5.801 -19.857,-18.369 -21.853,-24.17c-1.64,-2.808 -2.993,-4.516 -3.873,-5.649c-1.404,-1.912 -2.097,-2.69 -2.672,-3.332c-5.142,-6.123 -11.316,-13.464 -11.045,-23.951c-0,-3.095 0.947,-11.298 5.615,-48.34l0.22,-1.674c3.874,-31.427 11.925,-96.782 11.705,-104.563c-0.558,-2.486 -0.389,-7.121 0.169,-17.506l0.084,-1.793c0.339,-6.799 1.184,-24.948 -0.05,-29.312c-1.726,-5.92 -2.943,-13.395 -4.212,-21.294l-0.846,-5.142c-0.964,-7.206 -2.029,-13.904 -3.112,-18.25c-4.736,-18.606 -16.474,-55.783 -23.95,-73.965c-1.708,-4.33 -5.345,-10.825 -9.218,-17.726l-1.489,-2.723c-7.442,-12.973 -13.886,-24.61 -17.032,-34.454c-5.582,-17.303 -28.889,-60.586 -33.625,-66.151c-4.973,-6.021 -8.457,-12.144 -11.332,-17.404c-3.197,-5.819 -5.988,-10.589 -9.98,-13.785c-14.004,-10.622 -26.369,-16.136 -36.466,-16.136c-5.666,-0 -15.392,0.998 -29.735,3.061c-0.829,0.118 -3.434,0.761 -7.459,5.379c-19.671,21.667 -22.344,28.026 -22.445,28.297l-2.875,10.96c-1.218,4.415 -2.453,8.829 -3.383,11.654c-4.263,13.836 -18.081,67.96 -20.28,76.908c-0.271,6.376 -1.15,16.609 -2.081,26.978c-1.099,11.755 -2.063,21.802 -2.384,28.686c-0.762,14.952 -2.132,36.128 -4.432,52.467c-0.271,1.827 -0.44,7.459 -0.22,14.259l0,7.932c-0.203,3.079 -0.355,6.072 -0.524,8.965l-0.271,3.721c-0.101,1.336 -0.22,2.503 -0.22,3.383c-0.135,8.068 0.322,13.835 0.964,20.584c1.404,14.529 3.333,34.522 -0.997,88.799l-0.153,2.063c-2.232,53.533 -8.355,91.471 -18.216,112.258c-2.013,4.483 -21.312,57.288 -26.809,73.661c-1.37,3.789 -3.061,6.275 -6.613,11.146l-2.216,3.163c-2.486,3.637 -4.398,6.63 -5.531,8.914c-11.315,20.043 -47.85,46.09 -56.019,50.539c-18.622,10.622 -87.056,21.633 -94.702,21.633Z" style="fill-rule:nonzero;"/></svg>