<?xml version="1.0" encoding="UTF-8" standalone="no"?><!DOCTYPE svg PUBLIC "-//W3C//DTD SVG 1.1//EN" "http://www.w3.org/Graphics/SVG/1.1/DTD/svg11.dtd"><svg width="100%" height="100%" viewBox="0 0 980 942" version="1.1" xmlns="http://www.w3.org/2000/svg" xmlns:xlink="http://www.w3.org/1999/xlink" xml:space="preserve" xmlns:serif="http://www.serif.com/" style="fill-rule:evenodd;clip-rule:evenodd;stroke-linejoin:round;stroke-miterlimit:2;"><rect id="NAME--C" serif:id="NAME -C" x="2.113" y="1.539" width="975.488" height="936.514" style="fill:none;"/><clipPath id="_clip1"><rect x="2.113" y="1.539" width="975.488" height="936.514"/></clipPath><g clip-path="url(#_clip1)"><path id="C" d="M178.246,938.059c-3.265,1.594 -8.689,-0.261 -12.873,-1.306c-10.021,-2.502 -37.439,-10.708 -47.253,-13.705c-3.952,-1.206 -8.096,-2.143 -11.636,-4.274c-5.184,-3.121 -16.036,-7.134 -19.471,-14.45c-6.38,-13.592 -15.581,-55.533 -18.809,-67.098c-0.212,-0.757 -0.38,-1.525 -0.56,-2.29c-2.79,-11.844 -11.426,-47.493 -16.181,-68.776c-4.375,-19.585 -8.448,-39.237 -12.347,-58.922c-5.869,-29.622 -16.741,-83.075 -22.864,-118.811c-5.438,-31.741 -11.395,-73.235 -13.874,-95.609c-1.419,-12.805 -1.198,-25.755 -1,-38.637c0.305,-19.915 0.011,-59.471 2.832,-80.853c2.158,-16.354 9.469,-31.605 14.095,-47.439c4.768,-16.325 8.669,-34.793 14.518,-50.51c5.625,-15.116 16.998,-36.206 20.574,-43.793c0.276,-0.586 0.559,-1.169 0.882,-1.73c5.108,-8.865 24.418,-42.261 29.766,-51.459c0.737,-1.267 1.363,-2.626 2.324,-3.732c10.679,-12.294 44.313,-53.113 61.754,-70.031c12.731,-12.349 27.167,-23.284 42.895,-31.48c27.058,-14.1 89.242,-41.97 119.455,-53.121c19.808,-7.312 47.901,-11.342 61.823,-13.79c7.133,-1.254 14.535,-0.424 21.71,-0.899c7.126,-0.471 14.217,-1.382 21.337,-1.95c7.932,-0.633 17.482,-1.956 26.255,-1.849c9.733,0.119 26.089,2.078 32.141,2.561c1.391,0.111 2.781,0.229 4.172,0.339c2.609,0.207 7.705,0.215 11.483,0.899c6.694,1.213 19.167,4.051 28.681,6.378c12.562,3.072 38.549,9.908 46.693,12.059c0.751,0.198 1.444,0.573 2.171,0.848c10.784,4.076 45.715,17.467 62.535,23.61c12.713,4.643 26.176,7.399 38.383,13.246c12.901,6.179 32.596,19.409 39.027,23.83c0.75,0.516 -1.102,2.07 -0.441,2.697c1.755,1.665 7.386,4.759 10.973,7.293c6.759,4.775 23.596,16.936 29.58,21.354c2.189,1.616 4.142,3.535 6.327,5.156c3.66,2.717 11.482,8.198 15.638,11.143c3.089,2.19 6.459,4.588 9.294,6.53c2.547,1.745 6.055,3.873 7.717,5.122c0.873,0.656 1.452,1.636 2.256,2.375c3.503,3.22 13.067,10.731 18.759,16.944c7.822,8.537 18.962,22.706 28.172,34.278c12.738,16.005 38.433,48.508 48.254,61.755c4.107,5.539 7.686,12.969 10.668,17.724c2.302,3.67 5.263,6.941 7.226,10.804c4.415,8.689 13.401,28.508 19.267,41.334c5.409,11.827 13.165,29.398 15.926,35.617c0.246,0.553 0.46,1.121 0.645,1.697c1.196,3.731 4.452,13.99 6.53,20.692c2.014,6.496 4.234,13.82 5.936,19.522c1.459,4.886 2.801,9.806 4.274,14.688c2.717,9.001 9.402,30.332 12.026,39.315c1.406,4.817 2.724,9.668 3.714,14.587c1.371,6.81 3.183,18.182 4.512,26.272c1.217,7.413 3.324,15.285 3.46,22.27c0.128,6.605 -2.568,13.035 -2.646,19.641c-0.164,13.868 2.881,42.407 1.662,63.569c-1.247,21.645 -6.454,47.417 -9.142,66.3c-2.232,15.681 -4.907,36.401 -6.988,46.999c-1.122,5.716 -4.019,10.953 -5.495,16.588c-2.129,8.124 -3.77,21.742 -7.276,32.158c-5.086,15.106 -15.952,47.66 -23.237,58.481c-3.995,5.935 -13.498,6.637 -20.472,6.445c-6.973,-0.192 -16.619,-5.051 -21.37,-7.598c-3.082,-1.652 -5.739,-6.217 -7.141,-7.684c-0.39,-0.408 -0.958,-0.649 -1.272,-1.119c-4.548,-6.813 -24.265,-25.588 -26.018,-39.756c-1.753,-14.169 10.383,-31.079 15.502,-45.252c4.824,-13.356 11.084,-28.882 15.214,-39.79c3.232,-8.538 6.615,-17.024 9.566,-25.662c3.31,-9.691 7.573,-22.066 10.295,-32.48c2.58,-9.871 5.388,-19.823 6.038,-30.004c0.998,-15.627 -0.245,-51.262 -0.05,-63.756c0.058,-3.759 1.732,-7.487 1.221,-11.212c-0.837,-6.097 -5.004,-20.392 -6.242,-25.373c-0.375,-1.509 -0.977,-2.971 -1.187,-4.512c-0.789,-5.792 -1.468,-20.306 -3.545,-30.241c-2.434,-11.644 -5.811,-26.953 -11.058,-39.621c-5.578,-13.464 -14.06,-27.958 -22.406,-41.164c-13.987,-22.131 -50.637,-76.129 -61.517,-91.623c-0.766,-1.09 -2.904,-0.323 -3.765,-1.34c-1.258,-1.484 -2.05,-5.34 -3.783,-7.564c-5.003,-6.423 -20.129,-24.441 -26.238,-30.971c-3.02,-3.228 -7.983,-6.278 -10.414,-8.209c-1.401,-1.112 -2.748,-2.293 -4.173,-3.375c-9.164,-6.96 -41.851,-31.59 -50.814,-38.383c-1.01,-0.765 -1.92,-1.663 -2.969,-2.374c-7.482,-5.077 -31.064,-21.747 -41.927,-28.087c-7.282,-4.251 -16.74,-7.384 -23.253,-9.956c-5.192,-2.051 -10.728,-3.204 -15.825,-5.479c-7.55,-3.369 -20.181,-11.33 -29.478,-14.739c-8.425,-3.089 -18.626,-3.793 -26.306,-5.716c-6.666,-1.668 -13.185,-3.878 -19.777,-5.817c-7.474,-2.2 -17.786,-6.021 -25.068,-7.378c-6.108,-1.138 -13.054,-0.467 -18.623,-0.764c-4.935,-0.263 -10.083,-1.023 -14.79,-1.017c-4.497,0.005 -8.957,0.868 -13.45,1.051c-7.403,0.303 -20.644,0.698 -30.971,0.764c-16.452,0.104 -50.388,-2.211 -67.742,-0.136c-12.741,1.523 -28.092,9.679 -36.381,12.585c-4.467,1.566 -8.851,3.37 -13.348,4.851c-9.379,3.089 -29.109,7.804 -42.928,13.687c-16.353,6.963 -42.272,20.331 -55.191,28.088c-8.276,4.969 -16.862,13.365 -22.32,18.453c-3.891,3.627 -7.069,7.955 -10.431,12.076c-4.947,6.064 -12.967,16.975 -19.251,24.305c-5.852,6.826 -12.926,12.583 -18.453,19.675c-8.085,10.371 -22.753,30.671 -30.055,42.555c-5.561,9.051 -10.561,21.599 -13.755,28.748c-2.06,4.61 -3.858,9.342 -5.411,14.146c-2.23,6.897 -5.537,18.097 -7.972,27.239c-3.714,13.95 -12.545,37.127 -14.315,56.463c-2.244,24.525 0.707,74.978 0.848,90.69c0.011,1.193 0.055,2.387 0,3.579c-0.073,1.6 -0.621,4.017 -0.441,6.021c0.679,7.525 1.979,26.246 4.512,39.129c5.6,28.483 19.536,93.813 29.088,131.769c8.137,32.335 23.211,79.479 28.223,95.965c0.338,1.11 1.323,1.916 1.849,2.951c1.781,3.502 5.917,12.03 8.836,18.063c3.472,7.175 9.747,20.283 11.992,24.984c0.509,1.066 0.979,2.15 1.475,3.222c1.207,2.609 3.775,8.322 5.767,12.433c2.55,5.26 6.614,12.632 9.532,19.132c3.384,7.536 10.366,18.077 10.77,26.085c0.395,7.823 -5.834,16.492 -8.345,21.965c-1.775,3.872 -3.451,9.277 -6.716,10.872Z" style="fill-rule:nonzero;"/></g></svg>