<?xml version="1.0" encoding="UTF-8" standalone="no"?><!DOCTYPE svg PUBLIC "-//W3C//DTD SVG 1.1//EN" "http://www.w3.org/Graphics/SVG/1.1/DTD/svg11.dtd"><svg width="100%" height="100%" viewBox="0 0 975 934" version="1.1" xmlns="http://www.w3.org/2000/svg" xmlns:xlink="http://www.w3.org/1999/xlink" xml:space="preserve" xmlns:serif="http://www.serif.com/" style="fill-rule:evenodd;clip-rule:evenodd;stroke-linejoin:round;stroke-miterlimit:2;"><rect id="CHINESE-SIGN-ROASTER" serif:id="CHINESE SIGN-ROASTER" x="0" y="0" width="971.914" height="931.476" style="fill:none;"/><clipPath id="_clip1"><rect x="0" y="0" width="971.914" height="931.476"/></clipPath><g clip-path="url(#_clip1)"><path id="ROASTER" d="M971.914,391.82c0,25.678 -12.449,48.378 -31.288,61.659c-0.675,0.346 -355.753,273.923 -355.753,273.923c-18.683,37.383 -56.049,203.883 -98.955,204.074l-0.156,-0c-42.924,-0 -80.29,-166.691 -99.146,-204.074l-355.58,-273.923c-18.838,-13.281 -31.288,-35.981 -31.288,-61.659c0,-40.725 108.721,-64.619 121.499,-50.127l220.61,229.978c0.676,0.502 18.025,9.713 27.773,9.713c23.895,0 43.409,-18.786 46.11,-43.045c0.156,-1.956 30.024,-458.759 30.024,-458.759c0,-40.725 1.282,-79.58 39.998,-79.58c38.855,0 40.084,43.409 40.084,84.133l30.076,448.354c0,26.578 20.518,48.361 45.954,48.361c10.753,-0 20.691,-3.896 28.431,-10.251c0.329,-0.381 220.125,-228.904 220.125,-228.904c12.796,-14.492 121.482,9.402 121.482,50.127" style="fill-rule:nonzero;"/></g></svg>