<?xml version="1.0" encoding="UTF-8" standalone="no"?><!DOCTYPE svg PUBLIC "-//W3C//DTD SVG 1.1//EN" "http://www.w3.org/Graphics/SVG/1.1/DTD/svg11.dtd"><svg width="100%" height="100%" viewBox="0 0 975 934" version="1.1" xmlns="http://www.w3.org/2000/svg" xmlns:xlink="http://www.w3.org/1999/xlink" xml:space="preserve" xmlns:serif="http://www.serif.com/" style="fill-rule:evenodd;clip-rule:evenodd;stroke-linejoin:round;stroke-miterlimit:2;"><rect id="CHINESE-SIGN-HORN" serif:id="CHINESE SIGN-HORN" x="0" y="0" width="971.914" height="931.476" style="fill:none;"/><clipPath id="_clip1"><rect x="0" y="0" width="971.914" height="931.476"/></clipPath><g clip-path="url(#_clip1)"><g id="HORN"><path d="M277.458,620.802c130.808,37.191 260.543,22.816 390.14,1.176c15.274,-2.577 23.975,0.122 30.358,17.402c23.646,64.297 42.916,128.974 29.735,199.74c-1.107,6.037 -2.474,12.023 -3.961,17.921c-18.302,71.389 -26.743,79.658 -92.908,72.219c-112.472,-9.721 -224.926,-6.504 -337.346,1.903c-6.59,0.485 -17.315,-3.477 -19.875,-8.926c-47.431,-100.691 -43.47,-200.83 3.857,-301.435"/><path d="M113.468,0.912c89.085,-0.934 166.753,80.644 174.641,178.585c5.172,64.591 -6.885,123.248 -41.187,177.114c-30.929,48.694 -56.495,100.727 -65.006,161.08c-6.867,48.763 5.57,90.191 36.741,124.424c9.324,10.241 10.777,18.44 6.954,32.123c-19.235,68.621 -18.544,137.83 -0.311,207.593c-179.398,-57.291 -293.167,-253.537 -181.405,-458.069c21.951,-40.183 54.074,-74.208 84.155,-108.251c26.691,-30.202 50.614,-61.563 64.158,-101.453c25.653,-75.436 7.266,-144.421 -51.427,-192.388c-7.749,-6.383 -15.914,-12.161 -27.313,-20.758"/><path d="M857.979,0.912c-89.084,-0.934 -166.753,80.644 -174.64,178.585c-5.173,64.591 6.884,123.248 41.186,177.114c30.929,48.694 56.495,100.727 65.006,161.08c6.867,48.763 -5.57,90.191 -36.741,124.424c-9.324,10.241 -10.777,18.44 -6.954,32.123c19.236,68.621 18.544,137.83 0.312,207.593c179.397,-57.291 293.166,-253.537 181.404,-458.069c-21.951,-40.183 -54.074,-74.208 -84.155,-108.251c-26.691,-30.202 -50.614,-61.563 -64.158,-101.453c-25.653,-75.436 -7.265,-144.421 51.427,-192.388c7.749,-6.383 15.914,-12.161 27.313,-20.758"/></g></g></svg>