<?xml version="1.0" encoding="UTF-8" standalone="no"?><!DOCTYPE svg PUBLIC "-//W3C//DTD SVG 1.1//EN" "http://www.w3.org/Graphics/SVG/1.1/DTD/svg11.dtd"><svg width="100%" height="100%" viewBox="0 0 975 934" version="1.1" xmlns="http://www.w3.org/2000/svg" xmlns:xlink="http://www.w3.org/1999/xlink" xml:space="preserve" xmlns:serif="http://www.serif.com/" style="fill-rule:evenodd;clip-rule:evenodd;stroke-linejoin:round;stroke-miterlimit:2;"><rect id="CHINESE-SIGN-HORSE" serif:id="CHINESE SIGN-HORSE" x="0" y="0" width="971.914" height="931.476" style="fill:none;"/><clipPath id="_clip1"><rect x="0" y="0" width="971.914" height="931.476"/></clipPath><g clip-path="url(#_clip1)"><path id="HORSE" d="M509.192,0.267c26.606,-1.176 52.504,3.892 78.176,9.843c10.397,2.422 20.517,6.436 30.516,10.242c9.549,3.632 18.632,8.355 28.198,11.867c9.446,3.512 17.594,9.013 25.794,14.618c4.636,3.131 9.774,5.605 14.272,8.944c13.666,10.155 27.783,19.773 40.411,31.121c10.847,9.723 21.019,20.656 29.409,32.541c14.687,20.759 27.904,42.556 41.45,64.111c2.94,4.74 5.068,10.069 7.006,15.345c8.823,23.873 17.749,47.729 26.001,71.81c7.023,20.413 13.943,40.913 19.514,61.742c6.919,25.62 10.777,51.863 14.047,78.21c3.702,29.963 4.722,59.977 5.484,90.044c0.363,13.753 1.816,27.471 2.422,41.242c1.159,25.897 -2.128,51.517 -5.502,77.086c-3.806,29.374 -7.923,58.749 -13.13,87.916c-2.664,14.929 -7.404,29.634 -12.317,44.009c-5.501,15.95 -11.989,31.537 -18.493,47.055c-8.442,20.171 -21.105,37.522 -35.083,54.216c-12.543,14.964 -29.288,30.343 -45.256,40.775c-13.459,8.805 -27.385,17.092 -41.761,24.306c-13.459,6.798 -27.713,11.763 -43.144,12.836c-13.753,0.934 -27.437,2.612 -41.121,-0.329c-11.487,-2.491 -20.932,-7.577 -27.195,-18.164c-7.629,-12.871 -13.217,-26.399 -16.054,-41.138c-3.114,-16.314 -6.4,-37.263 -9.151,-53.646c-3.079,-18.527 -5.346,-37.245 -7.543,-55.946c-3.062,-26.157 -5.449,-52.435 -8.667,-78.609c-1.28,-10.535 -3.944,-20.932 -6.02,-31.398c-3.01,-14.895 -5.155,-30.084 -9.307,-44.65c-5.224,-18.32 -11.418,-36.485 -18.579,-54.147c-4.637,-11.349 -12.266,-21.244 -22.749,-28.423c-5.536,-3.823 -10.968,-3.771 -15.172,1.695c-4.792,6.124 -9.272,12.767 -12.473,19.808c-16.054,35.239 -25.534,72.623 -34.062,110.163c-5.536,24.357 -9.1,49.182 -13.2,73.834c-3.771,22.904 -6.228,46.085 -10.933,68.817c-3.667,17.887 -9.445,35.464 -15.172,52.867c-2.387,7.162 -6.504,14.012 -10.829,20.258c-8.65,12.334 -17.317,24.79 -27.264,36.069c-8.425,9.566 -19.099,17.368 -31.191,21.486c-16.538,5.657 -32.557,2.439 -46.864,-7.681c-21.832,-15.431 -41.207,-33.544 -59.112,-53.473c-21.78,-24.202 -39.702,-50.912 -55.497,-79.127c-9.186,-16.418 -18.147,-32.99 -25.862,-50.134c-9.186,-20.483 -13.234,-42.626 -17.974,-64.51c-5.882,-27.16 -9.775,-54.51 -11.729,-82.224c-1.108,-15.31 -2.44,-30.672 -3.374,-45.999c-1.834,-29.755 -0.104,-59.475 1.298,-89.179c0.795,-16.867 0.449,-33.889 2.404,-50.583c2.907,-25.154 7.041,-50.151 11.487,-75.062c1.851,-10.294 5.743,-20.241 8.875,-30.274c5.138,-16.539 9.48,-33.406 15.95,-49.425c6.176,-15.31 14.237,-29.876 22.23,-44.373c7.179,-12.992 15.431,-25.326 23.042,-37.989c10.899,-18.148 24.15,-34.426 39.166,-49.286c9.792,-9.671 19.791,-19.168 29.53,-28.925c14.376,-14.48 32.212,-24.012 49.286,-34.634c19.168,-11.936 39.737,-20.984 60.912,-28.769c4.982,-1.851 9.549,-4.947 14.6,-6.487c13.927,-4.29 27.922,-8.546 42.073,-11.919c21.659,-5.207 43.975,-5.813 66.032,-8.252c7.317,-0.796 14.773,-0.121 22.195,-0.121"/></g></svg>