<?xml version="1.0" encoding="UTF-8" standalone="no"?><!DOCTYPE svg PUBLIC "-//W3C//DTD SVG 1.1//EN" "http://www.w3.org/Graphics/SVG/1.1/DTD/svg11.dtd"><svg width="100%" height="100%" viewBox="0 0 975 934" version="1.1" xmlns="http://www.w3.org/2000/svg" xmlns:xlink="http://www.w3.org/1999/xlink" xml:space="preserve" xmlns:serif="http://www.serif.com/" style="fill-rule:evenodd;clip-rule:evenodd;stroke-linejoin:round;stroke-miterlimit:2;"><rect id="CHINESE-SIGN-TIGER" serif:id="CHINESE SIGN-TIGER" x="0" y="0" width="971.914" height="931.476" style="fill:none;"/><clipPath id="_clip1"><rect x="0" y="0" width="971.914" height="931.476"/></clipPath><g clip-path="url(#_clip1)"><g id="TIGER"><path d="M-0.252,683.545c0,-0 34.642,-78.184 49.156,-102.532c12.454,-20.957 42.661,-58.941 56.673,-78.79c20.075,-28.38 59.445,-85.815 80.524,-113.417c11.969,-15.695 39.023,-44.491 49.987,-60.982c5.612,-8.497 14.394,-27.256 20.785,-35.077c24.007,-29.28 82.845,-76.765 112.013,-100.335c42.712,-34.471 170.799,-137.834 170.799,-137.834l-117.677,165.505c0,-0 -71.482,112.43 -99.264,146.694c-9.925,12.304 -33.048,33.676 -43.666,45.322c-23.227,25.438 -66.13,79.828 -90.188,104.384c-44.307,45.217 -189.142,167.062 -189.142,167.062" style="fill-rule:nonzero;"/><path d="M60.066,931.873l145.805,-241.249l128.969,-170.904l59.254,-69.22l125.263,-163.116l319.791,-287.384l-223.8,343.348l-88.976,101.494l-57.002,71.521l-163.871,193.643l-245.433,221.867Z" style="fill-rule:nonzero;"/><path d="M881.646,248.056c-0,0 -218.812,212.852 -288.51,287.194c-13.337,14.225 -39.699,43.037 -51.39,58.768c-54.266,73.182 -193.697,310.26 -193.697,310.26l112.498,-79.447c-0,0 101.481,-122.034 134.754,-163.22c25.288,-31.288 76.28,-93.516 99.784,-126.257c49.814,-69.48 186.561,-287.298 186.561,-287.298" style="fill-rule:nonzero;"/><path d="M661.095,831.026c0,0 59.116,-140.689 88.717,-181.079c45.605,-62.246 222.102,-210.809 222.102,-210.809c0,-0 -90.431,169.641 -126.406,222.213c-13.389,19.572 -59.721,73.373 -59.721,73.373l-124.692,96.302Z" style="fill-rule:nonzero;"/></g></g></svg>