<?xml version="1.0" encoding="UTF-8" standalone="no"?><!DOCTYPE svg PUBLIC "-//W3C//DTD SVG 1.1//EN" "http://www.w3.org/Graphics/SVG/1.1/DTD/svg11.dtd"><svg width="100%" height="100%" viewBox="0 0 975 934" version="1.1" xmlns="http://www.w3.org/2000/svg" xmlns:xlink="http://www.w3.org/1999/xlink" xml:space="preserve" xmlns:serif="http://www.serif.com/" style="fill-rule:evenodd;clip-rule:evenodd;stroke-linejoin:round;stroke-miterlimit:2;"><rect id="CHINESE-SIGN-DRAGON" serif:id="CHINESE SIGN-DRAGON" x="0" y="0" width="971.914" height="931.476" style="fill:none;"/><clipPath id="_clip1"><rect x="0" y="0" width="971.914" height="931.476"/></clipPath><g clip-path="url(#_clip1)"><path id="DRAGON" d="M962.038,686.504c-9.352,70.416 -24.938,139.555 -44.698,207.54c-4.832,16.793 -42.621,26.19 -53.029,37.432c0.347,-2.776 1.403,-5.156 2.442,-7.345c1.039,-2.431 2.061,-5 3.1,-7.414c14.218,-34.105 21.838,-69.83 27.38,-106.348c1.715,-11.793 4.486,-82.209 3.273,-104.502c-3.255,-59.915 -6.875,-102.313 -37.719,-147.28c-7.429,-10.5 -15.759,-19.897 -27.363,-25.621c-22.167,-10.845 -43.642,-6.81 -62.692,7.173c-36.022,26.569 -61.376,65.243 -76.252,110.933c-5.542,16.966 -9.491,43.501 -20.419,41.088c-14.114,-3.156 1.594,-28.139 4.364,-43.07c4.624,-24.88 14.548,-48.846 10.045,-75.364c-5.715,-33.38 -15.396,-63.398 -43.798,-83.347c-28.575,-19.88 -109.296,-30.035 -112.396,-34.846l-20.955,298.249c15.76,-2.018 30.117,-7.742 44.855,-15.863c-6.945,78.537 -29.978,146.728 -94.229,193.557c0.346,-11.07 0.519,-21.38 0.692,-31.518c0.537,-34.484 -1.195,-68.571 -13.854,-100.83c-5.871,-14.725 -14.201,-28.38 -21.475,-42.398c-1.022,-2.017 -2.407,-3.862 -3.637,-5.897c19.934,2.035 33.251,3.5 53.877,5.707l-1.056,-7.569l0,-0.327l-38.447,-297.352c-4.156,5.948 -86.747,19.207 -115.149,39.087c-28.419,19.949 -38.273,49.967 -44.006,83.347c-4.502,26.518 1.368,51.742 10.062,75.364c6.339,17.259 19.345,39.363 6.91,47.121c-7.048,4.432 -23.206,-30.052 -28.765,-47.035c-15.05,-45.691 -34.273,-82.468 -70.469,-109.037c-19.05,-13.983 -40.334,-18.018 -62.675,-7.173c-11.43,5.724 -19.933,15.121 -27.207,25.621c-30.999,44.967 -32.246,68.261 -43.85,120.779c-4.849,21.759 6.252,119.21 7.967,131.003c5.715,36.518 13.335,72.243 27.363,106.348c1.056,2.414 2.078,4.983 3.134,7.414c1.022,2.189 2.079,4.569 2.581,7.345c-10.547,-11.242 -46.898,-20.639 -51.747,-37.432c-19.743,-67.985 -35.312,-137.124 -44.855,-207.54c-10.737,-79.26 -13.854,-159.055 -3.273,-238.712c15.916,-119.417 59.748,-225.765 135.776,-316.267c35.849,-42.777 76.702,-79.053 121.384,-110.778c3.117,-2.207 7.273,-3.138 9.525,-6.087c10.737,-13.983 24.782,-16.035 40.351,-13.983c3.828,0.5 7.62,0.5 11.43,0c11.604,-1.689 20.626,1.811 27.727,11.949c3.446,5.172 7.43,9.759 11.759,15.104c-10.564,-0.897 -19.743,-2.552 -28.904,-2.552c-16.297,-0 -28.056,7.931 -34.637,24.121c-0.866,2.052 -1.229,4.604 -0.866,6.655c1.732,10.69 3.637,21.363 6.062,32.053c2.407,10.897 5.178,21.776 8.659,32.277c5.351,16.034 11.257,31.88 17.474,47.535c5.888,14.207 12.14,28.018 19.223,41.674c9.006,17.517 19.224,34.104 28.247,51.622c10.373,20.069 23.552,37.759 39.814,52.139c3.308,3.155 6.581,5.914 10.045,8.517c8.832,6.604 18.548,10.294 28.766,12.88c0.155,-0 0.155,-0 0.329,0.19c1.731,0.913 3.463,1.638 5.368,2.396c4.503,1.655 9.006,2.569 13.526,2.966c2.58,0.138 5.195,0.138 7.776,-0l1.576,-0c2.753,0.138 5.368,0.138 7.776,-0c4.52,-0.397 9.178,-1.311 13.508,-2.966c1.922,-0.758 3.81,-1.483 5.369,-2.396l0.19,-0.19c10.218,-2.586 20.245,-6.276 29.078,-12.88c3.463,-2.603 6.927,-5.552 10.062,-8.517c16.279,-14.57 29.441,-32.07 39.658,-52.139c8.989,-17.518 19.38,-34.105 28.385,-51.622c6.945,-13.656 13.353,-27.467 19.068,-41.674c6.407,-15.655 12.105,-31.501 17.491,-47.535c3.637,-10.501 6.235,-21.38 8.815,-32.277c2.442,-10.69 4.174,-21.363 6.079,-32.053c0.329,-2.051 -0.191,-4.603 -1.057,-6.655c-6.407,-16.19 -18.34,-24.121 -34.463,-24.121c-9.352,-0 -18.513,1.655 -28.922,2.552c4.157,-5.345 8.313,-9.932 11.794,-15.104c6.91,-10.138 16.106,-13.638 27.536,-11.949c3.793,0.5 7.794,0.5 11.43,0c15.57,-2.052 29.597,0 40.352,13.983c2.234,2.949 6.564,3.88 9.698,6.087c44.491,31.725 85.362,68.001 121.228,110.778c76.01,90.502 119.826,196.85 135.758,316.267c10.755,79.657 7.447,159.452 -3.273,238.712"/></g></svg>