<?xml version="1.0" encoding="UTF-8" standalone="no"?><!DOCTYPE svg PUBLIC "-//W3C//DTD SVG 1.1//EN" "http://www.w3.org/Graphics/SVG/1.1/DTD/svg11.dtd"><svg width="100%" height="100%" viewBox="0 0 975 934" version="1.1" xmlns="http://www.w3.org/2000/svg" xmlns:xlink="http://www.w3.org/1999/xlink" xml:space="preserve" xmlns:serif="http://www.serif.com/" style="fill-rule:evenodd;clip-rule:evenodd;stroke-linejoin:round;stroke-miterlimit:2;"><rect id="CHINESE-SIGN-RAT" serif:id="CHINESE SIGN-RAT" x="0" y="0" width="971.914" height="931.476" style="fill:none;"/><clipPath id="_clip1"><rect x="0" y="0" width="971.914" height="931.476"/></clipPath><g clip-path="url(#_clip1)"><path id="RAT" d="M500.852,846.654l0,-270.997l87.351,0l-0,264.82c-28.875,4.187 -58.666,6.177 -87.351,6.177m-120.741,-9.274l0,-261.723l87.334,0l-0,270.668c-33.235,-1.488 -63.545,-4.758 -87.334,-8.945m22.509,-691.625c4.896,-16.21 11.055,-29.653 27.784,-42.94c3.806,-3.096 8.166,-6.211 13.079,-9.273c7.976,-5.121 15.969,-8.391 23.962,-10.19l-0,310.84l-64.825,-0l-0,-248.437Zm98.232,-62.403c13.252,3.097 25.778,10.19 36.677,19.463c11.626,9.844 21.228,22.56 28.148,36.556l0,254.821l-64.825,-0l0,-310.84Zm347.344,620.433c-0.554,-1.799 -5.087,-15.086 -6.713,-19.809c-58.476,-165.082 -116.761,-330.389 -175.22,-495.8c-13.806,-38.39 -15.622,-75.517 -38.13,-111.761c-34.135,-55.501 -113.665,-88.268 -176.864,-72.421c-47.733,11.817 -77.697,34.411 -98.942,63.511c-30.882,42.577 -42.871,99.374 -63.009,156.691c-38.13,107.956 -76.261,215.877 -114.391,323.798c-22.335,62.801 -63.545,136.882 -48.477,203.282c21.419,93.388 116.208,141.241 214.804,163.455c61.002,13.685 123.63,17.664 170.671,16.574c128.197,-3.097 308.849,-59.877 333.555,-203.506c0.173,-0 4.705,-15.104 2.716,-24.014" style="fill-rule:nonzero;"/></g></svg>