<?xml version="1.0" encoding="UTF-8" standalone="no"?><!DOCTYPE svg PUBLIC "-//W3C//DTD SVG 1.1//EN" "http://www.w3.org/Graphics/SVG/1.1/DTD/svg11.dtd"><svg width="100%" height="100%" viewBox="0 0 975 934" version="1.1" xmlns="http://www.w3.org/2000/svg" xmlns:xlink="http://www.w3.org/1999/xlink" xml:space="preserve" xmlns:serif="http://www.serif.com/" style="fill-rule:evenodd;clip-rule:evenodd;stroke-linejoin:round;stroke-miterlimit:2;"><rect id="CHINESE-SIGN-APE" serif:id="CHINESE SIGN-APE" x="0" y="0" width="971.914" height="931.476" style="fill:none;"/><clipPath id="_clip1"><rect x="0" y="0" width="971.914" height="931.476"/></clipPath><g clip-path="url(#_clip1)"><path id="MONKEY" d="M205.688,202.627c-42.872,-9.524 -74.646,4.311 -100.515,34.942c-26.648,31.514 -32.518,82.975 -14.666,121.294c14.527,31.202 36.518,52.257 72.135,59.547c-3.878,-77.417 8.364,-147.509 43.046,-215.783m556.774,-2.823c45.574,79.893 48.465,166.851 45.712,255.245c54.491,-14.977 88.447,-78.611 80.586,-144.53c-7.429,-62.232 -61.799,-111.892 -126.298,-110.715m-439.168,422.719c-0,7.082 -0.035,14.164 -0,21.263c0.485,81.642 48.344,149.397 121.155,171.422c67.703,20.518 140.392,-12.19 179.04,-78.924c24.19,-41.764 25.506,-87.632 23.393,-134.314c-0.814,-17.974 4.104,-29.263 17.61,-40.951c51.53,-44.725 73.815,-103.719 60.067,-175.127c-11.221,-58.301 -44.206,-99.13 -92.672,-125.778c-43.721,-24.051 -84.308,-18.303 -122.454,13.54c-16.38,13.679 -30.786,12.606 -48.257,0.537c-17.835,-12.311 -37.904,-27.306 -57.643,-28.553c-65.573,-4.121 -129.519,48.466 -152.6,119.303c-22.129,67.875 -1.61,150.002 51.271,192.892c16.588,13.419 24.224,26.562 21.211,48.171c-0.762,5.368 -0.139,10.995 -0.121,16.519m647.713,-263.245c-5.748,33.679 -18.596,66.63 -34.734,95.356c-32.743,58.3 -84.118,88.013 -145.414,98.732c-8.346,1.471 -16.813,8.848 -23.133,15.774c-9.645,10.493 -18.597,22.181 -25.627,34.838c-6.216,11.169 -13.194,24.311 -13.402,36.726c-2.199,127.285 -77.261,232.77 -187.681,261.461c-150.885,39.237 -296.299,-85.33 -298.169,-256.284c-0.225,-18.579 -5.316,-31.496 -16.259,-45.747c-16.935,-22.007 -31.445,-46.803 -43.773,-72.274c-6.58,-13.627 -13.298,-19.653 -26.891,-21.471c-86.576,-11.722 -154.383,-94.507 -156.34,-189.914c-2.874,-137.968 116.013,-236.389 236.493,-195.126c14.492,4.917 23.825,3.601 35.79,-8c124.29,-120.826 297.166,-121.536 424.45,-3.29c5.836,5.472 16.588,9.437 23.688,7.602c132.202,-33.402 236.025,70.611 247.764,179.023c0.208,2.06 6.424,43.998 3.238,62.594"/></g></svg>