<?xml version="1.0" encoding="UTF-8" standalone="no"?><!DOCTYPE svg PUBLIC "-//W3C//DTD SVG 1.1//EN" "http://www.w3.org/Graphics/SVG/1.1/DTD/svg11.dtd"><svg width="100%" height="100%" viewBox="0 0 975 934" version="1.1" xmlns="http://www.w3.org/2000/svg" xmlns:xlink="http://www.w3.org/1999/xlink" xml:space="preserve" xmlns:serif="http://www.serif.com/" style="fill-rule:evenodd;clip-rule:evenodd;stroke-linejoin:round;stroke-miterlimit:2;"><rect id="CHINESE-SIGN-DOG" serif:id="CHINESE SIGN-DOG" x="0" y="0" width="971.914" height="931.476" style="fill:none;"/><clipPath id="_clip1"><rect x="0" y="0" width="971.914" height="931.476"/></clipPath><g clip-path="url(#_clip1)"><g id="DOG"><path d="M646.711,1.306c26.354,4.433 46.325,19.545 63.108,39.712c21.929,26.332 35.431,56.686 42.942,89.751c14.953,65.906 10.343,130.103 -19.235,191.571c-10.463,21.704 -24.622,40.818 -44.012,55.615c-37.986,29.06 -83.604,26.936 -118.966,-5.421c-31.373,-28.662 -48.138,-65.388 -57.1,-105.861c-14.383,-65.025 -9.807,-128.548 19.598,-188.981c15.419,-31.649 37.053,-58.015 71.379,-71.12c4.956,-1.882 9.792,-4.609 15.074,-5.266c7.047,-0.878 18.267,-1.505 27.212,-0Z"/><path d="M351.04,1.306c10.99,3.041 27.057,10.325 38.746,18.25c29.647,20.133 47.172,49.952 58.343,83.069c25.14,74.315 23.034,147.87 -10.67,219.301c-13.537,28.679 -33.065,52.783 -62.159,67.356c-33.532,16.749 -71.311,10.326 -101.303,-17.128c-30.337,-27.695 -46.826,-63.247 -55.943,-102.442c-15.419,-66.182 -10.964,-130.776 19.011,-192.365c15.28,-31.373 36.743,-57.497 70.723,-70.602c5.249,-2.003 10.45,-4.734 16.058,-5.439c7.208,-0.907 18.458,-2.418 27.194,-0Z"/><path d="M699.522,931.476c-36.864,-0.156 -69.48,-12.208 -100.059,-31.339c-22.05,-13.813 -46.896,-19.39 -72.364,-20.547c-28.282,-1.243 -57.031,-2.952 -84.588,5.37c-15.126,4.489 -30.147,10.705 -43.701,18.751c-40.853,24.208 -84.416,32.15 -130.569,23.085c-15.661,-3.09 -31.719,-8.598 -45.273,-16.834c-35.413,-21.652 -50.28,-67.27 -35.62,-109.262c7.131,-20.357 16.973,-40.058 27.971,-58.602c33.566,-56.634 68.755,-112.284 110.505,-163.444c16.214,-19.857 33.463,-39.023 51.99,-56.703c24.587,-23.414 55.787,-34.602 88.835,-39.385c39.696,-5.784 78.718,-2.59 116.549,12.328c27.419,10.826 47.793,30.234 66.32,51.938c59.707,70.136 111.817,145.504 155.64,226.535c13.709,25.399 19.822,52.559 13.278,81.342c-8.565,37.71 -33.48,59.966 -69.843,69.377c-15.92,4.144 -32.686,5.059 -49.071,7.39"/><path d="M939.734,395.802c-7.338,78.424 -36.622,144.606 -106.482,187.151c-26.487,16.179 -55.529,20.754 -84.191,4.057c-23.016,-13.45 -34.136,-35.551 -38.522,-60.691c-11.188,-63.748 8.789,-119.674 45.705,-170.61c16.472,-22.774 36.967,-41.439 62.694,-53.595c54.424,-25.744 103.685,-1.433 115.927,57.463c2.452,11.793 3.263,23.845 4.869,36.225"/><path d="M181.774,596.811c-27.661,-0.915 -52.904,-14.711 -74.366,-35.034c-50.246,-47.62 -76.525,-106.292 -75.179,-175.841c0.605,-30.285 8.841,-58.792 33.86,-78.942c24.846,-20.081 52.455,-19.045 80.203,-7.217c34.912,14.9 59.862,41.266 79.684,72.726c24.139,38.331 37.934,80.064 37.278,125.682c-0.345,24.726 -5.439,48.553 -20.426,69.169c-14.296,19.701 -33.738,29.457 -61.054,29.457"/></g></g></svg>