<?xml version="1.0" encoding="UTF-8" standalone="no"?><!DOCTYPE svg PUBLIC "-//W3C//DTD SVG 1.1//EN" "http://www.w3.org/Graphics/SVG/1.1/DTD/svg11.dtd"><svg width="100%" height="100%" viewBox="0 0 975 934" version="1.1" xmlns="http://www.w3.org/2000/svg" xmlns:xlink="http://www.w3.org/1999/xlink" xml:space="preserve" xmlns:serif="http://www.serif.com/" style="fill-rule:evenodd;clip-rule:evenodd;stroke-linejoin:round;stroke-miterlimit:2;"><rect id="CHINESE-SIGN-GOAT" serif:id="CHINESE SIGN-GOAT" x="0" y="0" width="971.914" height="931.476" style="fill:none;"/><clipPath id="_clip1"><rect x="0" y="0" width="971.914" height="931.476"/></clipPath><g clip-path="url(#_clip1)"><g id="GOAT"><g><path d="M613.777,754.933c-2.442,4.208 -4.156,7.482 -6.408,10.737c-35.849,51.749 -71.699,103.15 -107.722,154.881c-10.564,14.894 -20.263,14.531 -29.441,-0.918c-31.174,-51.748 -62.174,-103.479 -93.175,-155.417c-4.156,-6.72 -8.313,-13.994 0,-20.523c9.006,-6.72 15.933,-1.264 22.844,4.347c48.319,39.054 103.409,44.492 159.695,16.003c10.374,-5.456 19.743,-12.73 30.117,-17.787c4.693,-2.199 11.603,-2.563 16.626,-1.281c3.135,0.918 4.866,6.182 7.464,9.958" style="fill-rule:nonzero;"/><path d="M971.3,319.464c-4.52,4.52 -15.483,7.101 -21.198,6.01c-38.967,-6.512 -71.855,5.663 -100.621,32.905c-28.923,27.416 -61.828,48.839 -100.275,55.922c-23.554,4.174 -33.443,17.249 -42.258,37.772c-24.073,55.905 -49.704,111.29 -74.816,166.675c-7.292,16.158 -13.855,32.68 -21.822,48.301c-25.112,48.856 -64.252,75.735 -117.594,75.354c-53.168,-0.364 -92.135,-27.035 -116.71,-76.445c-9.196,-18.531 -17.509,-37.391 -25.476,-56.458c-2.251,-4.347 -18.721,-40.491 -20.609,-45.046c-19.761,-43.747 -39.487,-87.321 -58.883,-131.276c-3.274,-7.429 -7.465,-10.339 -15.414,-11.257c-51.436,-6.165 -97.002,-27.242 -135.432,-63.542c-28.922,-27.242 -61.845,-39.227 -100.812,-32.715c-5.698,0.901 -13.612,-4.918 -19.847,-7.637c2.771,-6.356 4.971,-15.05 9.647,-18.687c19.743,-15.241 40.006,-29.598 60.961,-43.02c47.627,-30.688 97.851,-34.135 149.807,-12.157c2.926,1.264 5.888,2.528 8.849,3.81c0.503,0.173 1.022,0.173 1.369,0.173c12.989,-19.969 12.815,-23.605 -0,-42.864c-39.833,-58.814 -79.493,-117.645 -119.326,-176.667c-1.732,-2.737 -5.022,-5.438 -5.196,-8.365c-0.173,-5.785 -0.865,-13.613 2.252,-16.886c2.944,-3.083 11.257,-3.793 15.76,-1.801c7.966,3.256 14.894,9.629 22.168,14.703c54.9,38.327 109.973,76.618 164.7,115.499c6.581,4.71 11.933,5.091 20.09,3.082c21.302,-5.646 43.106,-12.019 64.754,-12.521c65.136,-1.663 130.427,-1.663 195.528,-0c21.648,0.502 43.487,6.702 64.945,12.331c7.81,2.009 13.352,2.009 20.107,-2.719c58.883,-41.773 118.13,-82.991 177.36,-124.383c3.793,-2.736 7.62,-6.529 11.759,-7.274c4.521,-0.71 11.084,-0.173 13.509,2.737c2.944,3.619 3.637,10.339 3.1,15.431c-0.312,3.792 -3.949,7.429 -6.391,10.893c-40.335,59.732 -80.202,119.828 -121.23,178.867c-8.296,12.348 -8.833,21.977 -0.347,33.771c40.526,-15.621 82.091,-18.15 121.248,1.646c31.157,15.95 62.746,39.867 92.014,60.199c3.464,2.356 6.218,13.803 4.33,15.639" style="fill-rule:nonzero;"/></g></g></g></svg>