<?xml version="1.0" encoding="UTF-8" standalone="no"?><!DOCTYPE svg PUBLIC "-//W3C//DTD SVG 1.1//EN" "http://www.w3.org/Graphics/SVG/1.1/DTD/svg11.dtd"><svg width="100%" height="100%" viewBox="0 0 975 934" version="1.1" xmlns="http://www.w3.org/2000/svg" xmlns:xlink="http://www.w3.org/1999/xlink" xml:space="preserve" xmlns:serif="http://www.serif.com/" style="fill-rule:evenodd;clip-rule:evenodd;stroke-linejoin:round;stroke-miterlimit:2;"><rect id="CHINESE-SIGN-PIG" serif:id="CHINESE SIGN-PIG" x="0" y="0" width="971.914" height="931.476" style="fill:none;"/><clipPath id="_clip1"><rect x="0" y="0" width="971.914" height="931.476"/></clipPath><g clip-path="url(#_clip1)"><path id="PIG" d="M731.354,486.665c-3.486,-25.547 -5.637,-51.32 -10.84,-76.451c-5.567,-26.795 -15.765,-52.186 -33.647,-73.675c-27.975,-33.612 -63.286,-34.236 -90.515,-0.347c-9.765,12.175 -18.02,26.38 -23.692,40.948c-23.708,61.067 -24.974,123.746 -9.712,187.033c6.677,27.767 17.135,53.956 37.15,75.08c25.824,27.16 56.332,27.767 81.514,0.278c10.164,-11.118 18.575,-24.594 25.079,-38.295c17.049,-36.057 21.992,-74.855 24.663,-114.571m-488.447,6.469c1.145,11.152 2.082,30.039 5.065,48.579c4.891,30.056 13.875,58.812 31.287,84.272c30.404,44.469 73.173,44.851 103.299,0.521c6.92,-10.164 12.869,-21.316 17.291,-32.745c23.414,-60.702 24.801,-122.844 10.129,-185.663c-6.608,-28.287 -17.326,-54.961 -37.566,-76.571c-25.114,-26.918 -56.679,-27.334 -81.706,-0.382c-8.637,9.314 -15.921,20.379 -21.766,31.704c-19.668,38.399 -25.096,80.058 -26.033,130.285m242.966,394.167c-101.633,-0.243 -200.855,-13.598 -293.834,-57.373c-83.665,-39.335 -147.958,-97.731 -176.766,-188.542c-25.009,-78.757 -18.158,-157.271 9.036,-233.669c57.928,-162.665 164.036,-281.763 328.869,-339.309c147.056,-51.32 283.254,-18.61 404.919,74.282c106.941,81.723 178.136,188.542 205.018,321.584c34.965,172.933 -38.034,306.634 -202.225,374.534c-88.019,36.387 -180.46,48.666 -275.017,48.493"/></g></svg>