<?xml version="1.0" encoding="UTF-8" standalone="no"?><!DOCTYPE svg PUBLIC "-//W3C//DTD SVG 1.1//EN" "http://www.w3.org/Graphics/SVG/1.1/DTD/svg11.dtd"><svg width="100%" height="100%" viewBox="0 0 975 934" version="1.1" xmlns="http://www.w3.org/2000/svg" xmlns:xlink="http://www.w3.org/1999/xlink" xml:space="preserve" xmlns:serif="http://www.serif.com/" style="fill-rule:evenodd;clip-rule:evenodd;stroke-linejoin:round;stroke-miterlimit:2;"><rect id="CHINESE-SIGN-RABBIT" serif:id="CHINESE SIGN-RABBIT" x="0" y="0" width="971.914" height="931.476" style="fill:none;"/><path id="RABBIT" d="M355.332,510.499c-58.417,-79.135 -104.457,-163.633 -137.637,-254.135c-21.325,-58.149 -35.552,-119.049 -50.801,-179.257c-3.981,-15.71 -1.938,-33.893 1.039,-50.243c4.794,-25.917 22.241,-34.498 43.738,-19.446c21.203,14.827 41.644,32.682 57.36,53.08c88.966,115.519 149.736,245.122 187.278,385.728c6.595,24.688 23.211,35.432 46.006,25.346c6.075,-2.682 9.537,-14.256 11.701,-22.388c37.507,-140.675 98.052,-270.226 186.429,-386.281c12.047,-15.865 27.953,-34.758 43.912,-46.35c12.722,-9.17 31.588,-18.962 44.967,-16.021c19.472,4.377 19.057,30.9 16.893,48.236c-4.708,38.062 -8.983,76.713 -19.627,113.322c-36.418,125.035 -92.947,240.831 -170.333,348.53c71.899,54.43 107.001,126.471 98.295,216.455c-5.903,60.726 -33.717,111.246 -80.848,150.865c-94.626,79.568 -238.65,68.841 -319.359,-21.522c-84.033,-94.101 -83.271,-253.998 40.987,-345.919"/></svg>