<?xml version="1.0" encoding="UTF-8" standalone="no"?><!DOCTYPE svg PUBLIC "-//W3C//DTD SVG 1.1//EN" "http://www.w3.org/Graphics/SVG/1.1/DTD/svg11.dtd"><svg width="100%" height="100%" viewBox="0 0 1350 942" version="1.1" xmlns="http://www.w3.org/2000/svg" xmlns:xlink="http://www.w3.org/1999/xlink" xml:space="preserve" xmlns:serif="http://www.serif.com/" style="fill-rule:evenodd;clip-rule:evenodd;stroke-linejoin:round;stroke-miterlimit:2;"><rect id="GENDER-MALE" x="0" y="3.871" width="1348.57" height="935.066" style="fill:none;"/><clipPath id="_clip1"><rect x="0" y="3.871" width="1348.57" height="935.066"/></clipPath><g clip-path="url(#_clip1)"><g id="MALE"><path d="M1339.3,248.807c-12.242,30.177 -27.902,59.022 -42.916,87.884c-25.573,48.741 -51.826,97.14 -77.739,145.711c-17.003,31.85 -33.853,63.684 -50.635,95.654c-9.454,17.915 -18.687,35.642 -28.073,53.54c-5.118,9.769 -10.066,19.555 -15.167,29.358c-4.012,7.753 -7.6,16.036 -12.718,23.192c-7.771,11.101 -18.177,19.862 -31.694,22.526c-17.003,3.296 -35.01,1.673 -52.149,1.673c-39.601,-0.17 -79.048,-0.17 -118.649,-0.17c-79.235,-0 -158.266,0.307 -237.467,0.17l-0.17,0c-71.805,0.137 -143.762,0 -215.55,-0.17l-107.954,-0c-17.632,-0 -35.451,0.17 -53.118,0.17c-13.381,0 -27.409,1.008 -39.923,-4.337c-13.399,-5.585 -22.292,-16.566 -28.889,-29.153c-9.76,-18.905 -19.52,-37.623 -29.415,-56.545c-17.616,-33.815 -35.452,-67.596 -53.306,-101.411c-27.885,-52.412 -56.076,-104.757 -83.962,-157.153c-17.003,-32.158 -34.363,-64.179 -49.19,-97.362c-4.132,-9.222 -8.4,-18.684 -11.052,-28.486c-1.666,-5.944 -3.452,-14.227 0.646,-19.538c7.583,-10.435 18.806,-4.679 28.752,-1.144c16.8,5.977 33.616,11.75 50.296,17.744c7.941,2.801 15.847,5.448 23.788,8.266c0.476,0.342 0.986,0.495 1.445,0.666c1.666,0.529 3.145,1.025 4.659,1.657c1.802,0.495 3.604,1.161 5.271,1.827c31.184,10.93 62.198,21.86 93.229,32.824c33.173,11.75 66.516,23.363 99.69,35.164c11.562,4.116 20.965,9.752 22.937,23.038c1.649,11.733 -1.326,23.5 -4.149,34.772c-2.771,10.947 -6.563,22.372 -6.563,33.678c0.17,10.622 8.076,21.877 14.334,31.987c17.173,28.179 44.412,49.219 76.242,58.698c60.6,18.051 130.738,-9.479 158.793,-67.63c13.025,-26.915 17.48,-58.39 11.223,-87.559c-4.795,-22.048 -13.382,-44.062 -30.215,-59.005c-0.833,-0.82 -1.786,-1.657 -2.636,-2.357l-0.17,-0.12l-0.153,0l-0.17,-0.188l0,-0.153l-0.34,-0c-1.309,-0.991 -2.482,-1.828 -3.775,-2.647c-1.989,-1.316 -4.318,-2.665 -6.444,-3.655c-0.323,-0.342 -0.663,-0.342 -1.003,-0.478l-0.17,-0.188c-0.153,-0 -0.153,-0 -0.476,-0.154c-0.51,-0.188 -0.833,-0.188 -1.326,-0.359c-0.51,-0.307 -1.14,-0.444 -1.633,-0.631c-13.721,-3.177 -27.732,-10.128 -35.843,-22.048c-3.944,-6.149 -6.291,-13.919 -4.454,-21.399c1.156,-4.321 4.454,-9.427 5.934,-11.443c21.815,-29.34 43.766,-58.339 65.87,-87.166c17.99,-23.21 35.979,-46.607 54.292,-69.457c8.416,-10.589 16.85,-21.058 25.59,-31.527c6.75,-8.248 13.823,-19.861 24.552,-23.038c1.326,-0.478 2.67,-0.803 4.336,-0.632l0.952,0c1.343,0 2.33,0.325 3.503,0.632c7.243,1.998 12.191,7.976 17.156,13.936c5.611,6.66 11.052,13.287 16.459,19.896c11.75,14.585 23.465,29.186 35.01,43.942c30.861,39.45 61.246,79.379 91.443,119.496c8.247,10.947 18.33,20.579 16.494,34.976c-2.16,14.909 -16.664,25.019 -29.348,30.33c-4.812,1.999 -9.624,2.818 -14.402,4.646c-0.17,-0 -0.17,-0 -0.306,0.188c-0.17,-0 -0.34,0.136 -0.51,0.136c-1.122,0.513 -2.125,0.991 -3.112,1.503c-2.499,1.52 -4.777,2.989 -7.107,4.645c-0.663,0.496 -0.833,0.496 -1.02,0.649c-0,0 -0.17,0.188 -0.306,0.308c-0.646,0.512 -1.309,1.195 -1.99,1.673c-1.479,1.35 -2.941,2.665 -4.267,3.997c-2.823,2.971 -5.628,6.148 -7.618,9.119c-15.66,22.526 -23.6,52.567 -21.594,79.721c1.802,28.196 10.882,56.87 29.212,78.56c20.455,24.575 49.632,41.602 81.037,47.272c31.507,5.789 64.85,-0.649 92.566,-17.232c13.704,-8.283 27.545,-18.581 36.982,-31.816c5.101,-6.985 9.743,-14.449 14.01,-22.065c2.67,-4.799 6.955,-11.614 8.094,-15.576c2.789,-8.966 0,-20.22 -2.482,-29.852c-2.823,-11.767 -6.615,-23.688 -7.448,-35.847c-0.612,-10.742 1.99,-21.86 11.222,-28.47c6.938,-4.645 16.357,-6.609 24.111,-9.273l26.729,-9.444c53.135,-18.769 106.27,-37.487 159.269,-56.204l0.136,-0c1.191,-0.496 2.177,-0.82 3.18,-1.128c1.003,-0.375 2.125,-0.7 3.112,-1.195c5.934,-1.998 11.715,-4.116 17.683,-6.131c13.007,-4.611 26.049,-9.256 39.09,-13.765c9.59,-3.467 19.129,-7.122 28.719,-10.247c3.145,-1.008 6.257,-1.161 9.42,-0.529c18.312,3.654 7.396,30.194 3.298,40.253"/><path d="M1095.37,866.74l-0,1.52c-0.68,26.215 -13.858,54.718 -41.42,65.956c-8.111,3.33 -16.663,4.389 -25.607,4.389l-692.1,-0c-12.395,-0 -27.256,1.52 -39.311,-1.947c-60.906,-18.069 -65.021,-112.255 -6.768,-135.891c13.875,-5.618 29.212,-4.406 44.056,-4.406l693.341,0c7.566,0 15.337,0.308 22.597,2.869c29.688,10.93 44.532,39.28 45.212,67.51"/></g></g></svg>