<?xml version="1.0" encoding="UTF-8" standalone="no"?><!DOCTYPE svg PUBLIC "-//W3C//DTD SVG 1.1//EN" "http://www.w3.org/Graphics/SVG/1.1/DTD/svg11.dtd"><svg width="100%" height="100%" viewBox="0 0 1350 938" version="1.1" xmlns="http://www.w3.org/2000/svg" xmlns:xlink="http://www.w3.org/1999/xlink" xml:space="preserve" xmlns:serif="http://www.serif.com/" style="fill-rule:evenodd;clip-rule:evenodd;stroke-linejoin:round;stroke-miterlimit:2;"><rect id="GENDER-FEMALE" x="0" y="1.543" width="1348.57" height="935.066" style="fill:none;"/><g id="FEMALE"><path d="M493.904,76.386c-0.051,41.084 -33.724,74.723 -74.655,74.536c-39.963,-0.237 -73.653,-34.097 -73.653,-74.145c0,-41.849 33.571,-75.335 75.437,-75.233c39.487,0.085 72.905,34.438 72.871,74.842"/><path d="M74.929,288.822c41.271,0.442 73.805,34.71 73.414,77.29c-0.323,39.078 -35.61,72.649 -75.692,72.054c-40.438,-0.578 -72.955,-34.812 -72.649,-76.508c0.255,-39.452 35.016,-73.244 74.927,-72.836"/><path d="M852.355,76.402c0.051,41.067 33.724,74.706 74.638,74.519c39.997,-0.204 73.653,-34.098 73.687,-74.094c-0,-41.866 -33.554,-75.352 -75.437,-75.284c-39.487,0.119 -72.922,34.438 -72.888,74.859"/><path d="M1271.33,288.822c-41.271,0.442 -73.788,34.71 -73.414,77.307c0.34,39.078 35.628,72.666 75.692,72.037c40.438,-0.544 72.955,-34.795 72.666,-76.491c-0.272,-39.469 -35.033,-73.261 -74.944,-72.853"/><path d="M1207.27,497.608c-4.845,8.669 -9.638,17.355 -14.5,26.041c-32.126,57.878 -64.218,115.892 -96.48,173.685c-2.975,5.304 -8.533,8.04 -14.551,7.785c-3.858,-0.238 -7.972,-2.175 -11.694,-3.28c-5.015,-1.462 -10.029,-2.941 -15.026,-4.386c-19.99,-5.796 -39.963,-11.456 -60.054,-16.777c-36.733,-9.757 -73.703,-18.63 -111.014,-25.752c-68.944,-13.105 -138.686,-19.717 -208.854,-18.494c-0.136,0.017 -0.272,0.051 -0.425,0.051c-0.391,-0.034 -0.816,-0.034 -1.19,-0.034c-0.646,0 -1.258,0.034 -1.904,0.068c-0.187,0 -0.357,-0.068 -0.51,-0.085c-62.841,-1.104 -125.564,3.893 -187.487,14.602c-68.468,11.915 -135.729,29.661 -202.344,49.345c-11.338,3.331 -24.409,9.281 -31.701,-3.825c-1.105,-2.039 -2.261,-4.045 -3.4,-6.136c-6.816,-12.256 -13.649,-24.579 -20.482,-36.869c-20.483,-36.919 -40.982,-73.771 -61.482,-110.656c-7.122,-12.834 -14.261,-25.667 -21.383,-38.518c-6.528,-11.745 -12.137,-22.862 -7.191,-36.885c4.284,-12.171 17.355,-21.435 30.308,-20.959c14.295,0.493 23.797,9.859 34.319,18.358c12.306,9.91 24.732,19.973 38.364,28.132c12.103,7.207 26.687,14.703 41.237,13.292c12.256,-1.156 24.239,-9.264 33.503,-16.947c9.383,-7.751 17.593,-16.76 24.579,-26.67c14.975,-21.349 25.276,-45.605 32.806,-70.422c14.568,-47.867 20.602,-98.249 22.438,-148.104c0.357,-9.893 -1.479,-22.556 2.294,-31.735c4.726,-11.576 15.774,-20.686 28.778,-20.245c14.839,0.527 24.528,9.417 29.627,22.795c3.026,7.836 6.681,15.536 10.59,22.998c23.474,44.841 53.748,87.047 87.251,124.918c17.304,19.548 35.814,38.518 56.841,54.156c15.825,11.83 34.625,23.933 54.869,25.837c43.515,4.079 79.619,-27.044 108.532,-55.924c37.413,-37.378 69.93,-80.536 96.957,-125.972c5.269,-8.856 10.403,-17.916 15.043,-27.129c3.927,-7.87 6.476,-16.624 10.539,-24.375c14.006,-26.686 53.764,-19.955 58.014,9.927c1.343,9.519 0.374,19.939 0.833,29.56c0.459,11.099 1.207,22.148 2.159,33.214c2.294,25.99 5.83,51.912 11.541,77.358c10.692,48.138 28.948,103.823 71.052,133.774c10.028,7.122 21.519,14.159 34.285,13.037c15.145,-1.326 29.168,-9.094 41.628,-17.338c12.986,-8.652 25.106,-18.545 37.259,-28.302c10.471,-8.448 21.401,-17.032 35.866,-13.445c13.513,3.315 23.27,13.751 25.412,27.605c1.309,8.227 -1.36,15.655 -5.252,22.726"/><path d="M1040.88,843.381c-0.068,0.153 -0.102,0.272 -0.187,0.408c0,0.051 -0.051,0.119 -0.085,0.187c0,0.051 -0.051,0.119 -0.068,0.221c-4.64,9.808 -10.657,22.658 -16.012,33.945c-3.807,8.074 -7.666,16.199 -11.49,24.273c-2.21,4.708 -4.216,9.978 -7.224,14.261c-8.618,12.239 -21.605,18.817 -36.563,18.817l-590.714,-0c-13.156,-0 -26.295,-6.459 -33.928,-17.304c-3.127,-4.42 -5.269,-9.417 -7.581,-14.312c-8.142,-17.083 -16.25,-34.183 -24.409,-51.232c-3.484,-7.36 -6.68,-14.823 -6.527,-23.237c0.357,-13.836 6.782,-27.383 18.562,-35.1c11.167,-7.326 24.885,-8.074 37.769,-10.046c13.939,-2.142 27.928,-4.165 41.951,-6.136c62.434,-8.584 125.105,-16.047 187.964,-21.078c24.426,-1.938 48.971,-3.739 73.516,-3.79c22.641,-0.017 45.317,1.41 67.89,3.042c61.55,4.403 122.963,10.913 184.19,18.596c26.738,3.366 53.442,6.901 80.043,11.151c13.259,2.141 26.194,4.657 35.118,15.791c9.57,11.915 12.511,26.891 7.785,41.543"/></g></svg>