<?xml version="1.0" encoding="UTF-8" standalone="no"?><!DOCTYPE svg PUBLIC "-//W3C//DTD SVG 1.1//EN" "http://www.w3.org/Graphics/SVG/1.1/DTD/svg11.dtd"><svg width="100%" height="100%" viewBox="0 0 909 1971" version="1.1" xmlns="http://www.w3.org/2000/svg" xmlns:xlink="http://www.w3.org/1999/xlink" xml:space="preserve" xmlns:serif="http://www.serif.com/" style="fill-rule:evenodd;clip-rule:evenodd;stroke-linejoin:round;stroke-miterlimit:2;"><rect id="OWNER-GENDER-WOMAN" serif:id="OWNER GENDER-WOMAN" x="0" y="0" width="905.934" height="1968.27" style="fill:none;"/><path id="WOMAN" d="M281.3,669.225c-45.194,126.308 -92.37,256.357 -137.754,386.975c-7.86,22.528 -145.372,63.965 -143.528,17.909c1.5,-36.541 39.627,-29.285 77.323,-34.18c25.855,-3.309 42.074,-12.497 46.814,-38.644c25.855,-142.459 54.519,-284.471 77.547,-427.344c10.79,-67.032 6.119,-67.739 -13.927,-97.23c41.316,-12.876 81.563,-24.545 121.121,-38.058c45.573,-15.599 58.138,-35.025 58.793,-88.182c-23.183,-2.103 -76.013,4.981 -103.574,2.413c3.585,-28.13 32.56,-65.74 40.609,-91.681c15.634,-50.054 9.877,-97.42 -5.067,-146.285c-18.271,-59.552 2.189,-91.75 64.481,-107.384c46.746,-11.686 93.094,-11.048 136.875,10.98c42.471,21.356 53.261,42.04 38.954,86.406c-25.061,77.823 -4.291,154.853 26.51,237.174c-12.841,1.431 -59.069,1.568 -68.118,4.481c-12.738,4.034 -35.542,12.031 -34.973,15.737c2.258,15.461 7.601,35.904 19.425,43.333c20.512,12.858 46.28,18.546 70.497,25.062c37.404,10.031 75.393,18.218 119.001,28.595c-33.318,54.467 -20.632,103.574 8.739,162.143c20.253,-46.159 39.902,-84.407 53.95,-124.516c20.425,-58.432 18.701,-59.156 84.734,-60.276c26.079,-0.431 79.167,-19.529 79.271,7.636c0.103,28.44 -56.639,16.668 -85.01,24.786c-30.768,8.773 -48.107,25.372 -51.899,58.88c-5.706,50.554 -13.652,101.54 -28.337,150.25c-7.412,24.407 -31.784,44.125 -48.469,65.929c-20.994,-18.305 -45.246,-34.283 -62.241,-55.553c-17.029,-21.321 -26.871,-47.952 -48.193,-70.325c0,89.078 -13.513,180.604 3.413,266.631c21.856,111.21 7.274,214.732 -22.339,319.874c-16.857,59.793 -36.817,119.052 -49.072,179.707c-7.067,34.835 -5.86,72.531 -0.948,108.004c18.564,133.703 40.299,267.01 60.776,400.523c3.878,25.441 -4.757,39.937 -33.594,46.935c-104.539,25.493 -207.906,23.425 -320.494,-7.239c5.532,-79.546 8.187,-160.696 17.65,-241.121c10.997,-92.956 30.784,-184.981 40.988,-278.024c4.223,-38.747 -3.982,-79.46 -11.118,-118.535c-11.651,-64.499 -33.49,-127.877 -39.264,-192.721c-6.826,-77.253 12.272,-151.663 58.673,-218.316c51.485,-73.997 24.786,-148.113 1.775,-214.749"/></svg>