<?xml version="1.0" encoding="UTF-8" standalone="no"?><!DOCTYPE svg PUBLIC "-//W3C//DTD SVG 1.1//EN" "http://www.w3.org/Graphics/SVG/1.1/DTD/svg11.dtd"><svg width="100%" height="100%" viewBox="0 0 909 1971" version="1.1" xmlns="http://www.w3.org/2000/svg" xmlns:xlink="http://www.w3.org/1999/xlink" xml:space="preserve" xmlns:serif="http://www.serif.com/" style="fill-rule:evenodd;clip-rule:evenodd;stroke-linejoin:round;stroke-miterlimit:2;"><rect id="OWNER-GENDER-MAN" serif:id="OWNER GENDER-MAN" x="0" y="0" width="905.934" height="1968.27" style="fill:none;"/><clipPath id="_clip1"><rect x="0" y="0" width="905.934" height="1968.27"/></clipPath><g clip-path="url(#_clip1)"><path id="MAN" d="M118.322,1027.89c46.392,-59.733 78.802,-130.125 123.239,-191.572c35.196,-48.71 59.785,-99.411 68.35,-158.487c4.119,-28.309 9.31,-56.41 14.068,-84.668c20.073,58.816 32.324,116.992 42.499,175.653c6.177,35.871 14.76,72.659 12.407,108.374c-9.483,147.707 -82.038,286.034 -64.855,438.447c4.205,37.325 -3.426,75.878 -4.586,113.878c-3.218,104.464 -4.845,208.962 -9.275,313.357c-1.713,41.252 -18.723,77.487 -57.587,97.179c-51.895,26.233 -105.226,49.645 -157.068,75.826c-11.438,5.796 -31.805,14.327 -29.209,27.496c2.405,12.372 24.243,14.033 35.992,14.137l231.977,-0c47.188,-0.363 62.899,-25.523 57.414,-72.642c-3.738,-32.272 -2.993,-67.883 6.991,-98.321c15.695,-47.326 38.64,-92.766 62.64,-136.736c28.967,-53.071 31.788,-106.817 9.189,-160.736c-15.557,-36.927 -14.397,-70.289 1.367,-105.866c8.686,-19.709 14.327,-40.941 19.951,-61.844c5.503,-20.28 13.376,-32.566 38.64,-30.559c27.651,2.094 26.146,20.488 25.35,37.429c-2.353,52.24 11.248,98.684 40.214,142.463c13.013,19.761 20.834,44.54 25.454,68.074c17.564,89.098 32.757,178.715 49.109,268.038c5.174,28.101 -4.014,48.226 -31.407,57.795c-49.696,17.425 -100.051,33.172 -149.367,51.514c-11.871,4.378 -32.67,11.126 -31.182,24.26c1.436,13.203 35.629,16.733 35.629,16.733l258.815,0.398c27.288,-15.677 32.514,-31.787 28.43,-62.312c-8.496,-63.713 -28.257,-126.526 -5.122,-192.558c29.469,-84.408 17.564,-164.526 -31.406,-241.373c-15.591,-24.346 -21.665,-58.954 -21.232,-88.7c1.626,-116.68 12.303,-233.343 10.313,-349.92c-1.419,-87.281 -1.229,-176.154 -45.925,-258.175c-30.247,-55.58 10.694,-105.052 26.787,-156.168c31.943,114.518 61.463,228.395 87.8,342.912c4.205,18.308 -0.865,42.187 -9.69,59.318c-21.578,42.049 -12.078,70.376 16.75,111.351c24.831,35.404 87.091,32.964 87.091,32.964c35.473,-31.32 12.424,-60.287 -8.133,-108.755c-5.036,-11.749 -3.461,-26.44 -4.551,-39.764c-6.229,-78.682 -11.438,-157.38 -19.034,-235.871c-4.465,-45.215 -16.526,-89.842 -18.81,-135.109c-2.422,-48.745 5.209,-98.027 3.651,-146.858c-1.332,-42.222 -9.396,-82.955 -49.731,-110.59c-10.261,-6.956 -173.991,-3.928 -171.448,-160.719c0.519,-31.839 34.037,-72.036 35.093,-120.66c2.89,-129.209 -171.361,-129.209 -231.665,-44.662c-38.381,53.868 -12.805,191.295 -12.805,191.295c1.626,13.532 37.878,5.884 43.9,42.741c8.444,51.67 -88.527,76.068 -139.089,88.25c-42.412,10.21 -68.039,35.629 -87.281,72.435c-31.372,60.287 -33.414,124.709 -34.228,190.533c-0.432,36.044 -5.035,73.456 -15.885,107.579c-14.725,46.046 -36.546,89.98 -56.912,133.984c-8.721,18.827 -21.665,35.733 -32.739,53.487c-0,-0 -45.596,4.551 -56.013,14.57c-39.488,37.878 -43.433,122.114 -0.623,143.882c24.035,12.199 87.748,-62.727 87.748,-62.727"/></g></svg>