<?xml version="1.0" encoding="UTF-8" standalone="no"?><!DOCTYPE svg PUBLIC "-//W3C//DTD SVG 1.1//EN" "http://www.w3.org/Graphics/SVG/1.1/DTD/svg11.dtd"><svg width="100%" height="100%" viewBox="0 0 1309 1317" version="1.1" xmlns="http://www.w3.org/2000/svg" xmlns:xlink="http://www.w3.org/1999/xlink" xml:space="preserve" xmlns:serif="http://www.serif.com/" style="fill-rule:evenodd;clip-rule:evenodd;stroke-linejoin:round;stroke-miterlimit:2;"><rect id="HOUSE-OF-MIX" serif:id="HOUSE-OF MIX" x="0" y="4.137" width="1307.09" height="1309.76" style="fill:none;"/><clipPath id="_clip1"><rect x="0" y="4.137" width="1307.09" height="1309.76"/></clipPath><g clip-path="url(#_clip1)"><path id="SAVAGE" d="M1246.98,236.889l-0.204,17.618l-154.24,-0c-0.561,-10.612 1.598,-19.84 6.579,-27.222c6.783,-10.423 18.326,-16.438 34.119,-17.634c11.934,-0.599 21.896,-5.605 28.287,-14.252c5.355,-6.972 7.735,-16.199 6.562,-26.23c-3.196,-24.214 -25.329,-37.235 -58.428,-30.605c-51.391,9.997 -90.235,54.05 -92.02,104.733c-0.408,10.253 -0.408,20.83 -0.408,31.032l0.204,109.602c-0.204,125.375 -0.204,255.192 0.204,382.549c-0,5.793 -0.204,47.283 -0.204,81.544l-0.204,46.035l-0,36.261c0.408,68.711 0.595,140.805 -0,213.156c-0.425,61.858 -51.017,110.73 -115.396,111.14c-241.092,0.427 -485.397,0.427 -726.523,0c-61.965,-0.205 -110.992,-45.3 -114.188,-104.766c-1.19,-22.813 -0.765,-46.446 -0.374,-69.48l0.187,-16.644l721.967,0c0.187,1.213 0.391,2.632 0.578,3.811c1.207,11.807 2.805,25.222 6.579,38.448c12.767,42.685 57.987,74.913 105.824,74.913c20.91,0 36.465,-13.021 38.437,-32.433c1.802,-20.215 -10.574,-35.867 -31.654,-39.849c-4.59,-0.854 -9.196,-1.435 -12.188,-1.828c-16.745,-2.803 -29.461,-15.619 -30.889,-31.049c-0.986,-10.185 -0.986,-21.206 -0.799,-31.015l-0,-6.032c-0.187,-36.466 -13.549,-49.487 -50.388,-49.487l-518.717,0l0.204,-52.853c0,-118.369 0,-240.975 -0.374,-361.565l0,-15.994c0,-1.419 0.782,-146.633 0,-163.259c-0.204,-5.639 0.374,-76.315 0.578,-106.578l0.204,-21.206l-0.204,-27.068c-0.408,-28.417 -0.782,-57.894 2.38,-85.935c6.001,-49.658 54.4,-90.515 107.813,-91.096c43.231,-0.223 88.893,-0.41 148.46,-0.41l578.098,-0c50.982,-0 86.07,20.608 107.575,62.866c6.375,12.457 10.387,29.067 11.543,48.291c1.598,20.83 1.394,43.045 1.02,62.491m59.193,-70.71c-2.023,-59.091 -29.715,-104.545 -81.922,-135.423c-14.127,-8.39 -30.668,-13.585 -46.631,-18.797c-7.531,-2.426 -15.334,-5.023 -22.694,-7.638l-0.221,-0.188l-771.54,0l-0.204,0.188c-0.833,0.188 -1.411,0.427 -2.176,0.803c-1.802,0.786 -3.383,1.436 -4.998,1.606c-4.386,0.787 -8.585,2 -12.953,3.23c-0.204,0 -0.629,0.188 -0.816,0.188l-0.391,0c-8.755,2.187 -17.51,5.024 -25.874,8.595c-0.442,0 -0.816,0.205 -1.207,0.393c-8.364,3.606 -16.354,7.844 -24.14,12.646l-0.187,-0c-3.978,2.375 -7.786,5.023 -11.356,7.809c-7.548,5.212 -14.773,11.021 -21.335,17.635c-26.707,26.999 -43.01,61.482 -45.815,96.94c-3.212,39.456 -2.6,80.091 -1.988,119.377l0.204,12.2c0.187,8.818 -1.02,84.569 -0.816,97.966c0.425,16.387 0.187,85.337 -0,135.61c-0,24.026 -0.204,43.267 -0.204,49.248c0.629,102.186 0.391,206.133 0.391,306.456l-0,129.186l-198.457,-0c-22.525,0.239 -30.481,7.843 -30.481,28.878c0,9.416 -0.221,19.036 -0.221,28.657c-0.187,29.425 -0.391,60.081 0.816,90.122c2.176,59.073 29.699,104.767 81.889,135.593c14.161,8.442 30.701,13.636 46.426,18.643c7.599,2.427 15.589,4.99 22.933,7.792l771.981,0l0.782,-0.358c1.377,-0.838 2.601,-1.419 3.757,-1.812c89.913,-16.028 148.29,-82.928 148.868,-170.487c0.408,-55.485 0.408,-111.738 0.408,-166.232c-0.204,-30.434 -0.204,-62.064 -0.204,-93.147c0,-13.243 0.612,-87.131 0.374,-109.585c-0.578,-111.345 -0.578,-224.724 -0.374,-334.293l0,-124.161l198.661,0c22.116,0 30.31,-7.433 30.31,-27.478c0,-9.364 0,-19.001 0.17,-28.434c0.204,-30.041 0.391,-61.072 -0.765,-91.728" style="fill-rule:nonzero;"/></g></svg>