<?xml version="1.0" encoding="UTF-8" standalone="no"?><!DOCTYPE svg PUBLIC "-//W3C//DTD SVG 1.1//EN" "http://www.w3.org/Graphics/SVG/1.1/DTD/svg11.dtd"><svg width="100%" height="100%" viewBox="0 0 1309 1313" version="1.1" xmlns="http://www.w3.org/2000/svg" xmlns:xlink="http://www.w3.org/1999/xlink" xml:space="preserve" xmlns:serif="http://www.serif.com/" style="fill-rule:evenodd;clip-rule:evenodd;stroke-miterlimit:10;"><rect id="HOUSE-OF-DOGO" serif:id="HOUSE-OF DOGO" x="0" y="1.543" width="1307.09" height="1309.76" style="fill:none;"/><clipPath id="_clip1"><rect x="0" y="1.543" width="1307.09" height="1309.76"/></clipPath><g clip-path="url(#_clip1)"><g id="ARISTOCRAT"><path d="M1246.98,234.305l-0.204,17.617l-154.24,0c-0.561,-10.611 1.598,-19.838 6.579,-27.22c6.783,-10.406 18.326,-16.421 34.119,-17.634c11.934,-0.598 21.896,-5.605 28.287,-14.217c5.355,-6.989 7.735,-16.233 6.562,-26.247c-3.196,-24.213 -25.329,-37.25 -58.428,-30.62c-51.391,9.979 -90.235,54.047 -92.02,104.746c-0.408,10.235 -0.408,20.83 -0.408,31.031l0.204,109.582c-0.204,125.371 -0.204,255.168 0.204,382.555c-0,5.759 -0.204,47.247 -0.204,81.542l-0.204,46.034l-0,36.225c0.408,68.743 0.595,140.818 -0,213.15c-0.425,61.891 -51.017,110.744 -115.396,111.154c-241.092,0.41 -485.397,0.41 -726.523,0c-61.965,-0.205 -110.992,-45.265 -114.188,-104.729c-1.19,-22.846 -0.765,-46.478 -0.374,-69.512l0.187,-16.643l721.967,-0c0.187,1.23 0.391,2.631 0.578,3.81c1.207,11.808 2.805,25.221 6.579,38.464c12.767,42.668 57.987,74.912 105.824,74.912c20.91,-0 36.465,-13.038 38.437,-32.432c1.802,-20.232 -10.574,-35.901 -31.654,-39.866c-4.59,-0.837 -9.196,-1.435 -12.188,-1.794c-16.745,-2.836 -29.461,-15.635 -30.889,-31.082c-0.986,-10.184 -0.986,-21.188 -0.799,-31.031l-0,-6.015c-0.187,-36.447 -13.549,-49.485 -50.388,-49.485l-518.717,-0l0.204,-52.835c0,-118.382 0,-241.002 -0.374,-361.571l0,-15.994c0,-1.401 0.782,-146.628 0,-163.237c-0.204,-5.656 0.374,-76.33 0.578,-106.575l0.204,-21.223l-0.204,-27.049c-0.408,-28.434 -0.782,-57.893 2.38,-85.951c6.001,-49.656 54.4,-90.512 107.813,-91.093c43.231,-0.205 88.893,-0.41 148.46,-0.41l578.098,-0c50.982,-0 86.07,20.624 107.575,62.882c6.375,12.44 10.387,29.049 11.543,48.272c1.598,20.847 1.394,43.044 1.02,62.489m59.193,-70.708c-2.023,-59.089 -29.715,-104.524 -81.922,-135.419c-14.127,-8.389 -30.668,-13.584 -46.631,-18.813c-7.531,-2.426 -15.334,-4.989 -22.694,-7.621l-0.221,-0.205l-771.54,0l-0.204,0.205c-0.833,0.188 -1.411,0.41 -2.176,0.803c-1.802,0.803 -3.383,1.418 -4.998,1.641c-4.386,0.769 -8.585,1.965 -12.953,3.212c-0.204,0 -0.629,0.188 -0.816,0.188l-0.391,0c-8.755,2.187 -17.51,5.007 -25.874,8.578c-0.442,-0 -0.816,0.205 -1.207,0.393c-8.364,3.605 -16.354,7.843 -24.14,12.662l-0.187,-0c-3.978,2.375 -7.786,5.006 -11.356,7.792c-7.548,5.211 -14.773,11.021 -21.335,17.634c-26.707,26.998 -43.01,61.481 -45.815,96.937c-3.212,39.456 -2.6,80.107 -1.988,119.391l0.204,12.2c0.187,8.818 -1.02,84.532 -0.816,97.963c0.425,16.387 0.187,85.318 -0,135.607c-0,24.008 -0.204,43.231 -0.204,49.246c0.629,102.166 0.391,206.126 0.391,306.464l-0,129.165l-198.457,-0c-22.525,0.222 -30.481,7.826 -30.481,28.878c0,9.381 -0.221,19.001 -0.221,28.621c-0.187,29.459 -0.391,60.097 0.816,90.137c2.176,59.089 29.699,104.764 81.889,135.589c14.161,8.442 30.701,13.636 46.426,18.643c7.599,2.426 15.589,4.989 22.933,7.809l771.981,-0l0.782,-0.376c1.377,-0.82 2.601,-1.401 3.757,-1.811c89.913,-16.028 148.29,-82.909 148.868,-170.465c0.408,-55.501 0.408,-111.736 0.408,-166.245c-0.204,-30.433 -0.204,-62.079 -0.204,-93.127c0,-13.26 0.612,-87.129 0.374,-109.616c-0.578,-111.308 -0.578,-224.684 -0.374,-334.266l0,-124.158l198.661,0c22.116,0 30.31,-7.416 30.31,-27.477c0,-9.381 0,-19.001 0.17,-28.45c0.204,-30.006 0.391,-61.054 -0.765,-91.709" style="fill-rule:nonzero;"/><path d="M389.235,399.07l528.611,0c41.123,0 41.123,-63.749 0,-63.749l-528.611,-0c-41.105,-0 -41.105,63.749 0,63.749Z" style="fill-rule:nonzero;stroke:#201c19;stroke-width:4.17px;"/><path d="M917.858,750.854l-528.628,-0c-41.105,-0 -41.105,63.749 0,63.749l528.628,0c41.106,0 41.106,-63.749 0,-63.749Z" style="fill-rule:nonzero;stroke:#201c19;stroke-width:4.17px;"/><path d="M917.841,543.103l-528.611,0c-41.105,0 -41.105,63.733 0,63.733l528.611,-0c41.106,-0 41.106,-63.733 0,-63.733Z" style="fill-rule:nonzero;stroke:#201c19;stroke-width:4.17px;"/></g></g></svg>