<?xml version="1.0" encoding="UTF-8" standalone="no"?><!DOCTYPE svg PUBLIC "-//W3C//DTD SVG 1.1//EN" "http://www.w3.org/Graphics/SVG/1.1/DTD/svg11.dtd"><svg width="100%" height="100%" viewBox="0 0 725 938" version="1.1" xmlns="http://www.w3.org/2000/svg" xmlns:xlink="http://www.w3.org/1999/xlink" xml:space="preserve" xmlns:serif="http://www.serif.com/" style="fill-rule:evenodd;clip-rule:evenodd;stroke-linejoin:round;stroke-miterlimit:2;"><rect id="NUMBER-10" x="0" y="0" width="723.081" height="936.514" style="fill:none;"/><clipPath id="_clip1"><rect x="0" y="0" width="723.081" height="936.514"/></clipPath><g clip-path="url(#_clip1)"><path id="_10" serif:id="10" d="M723.081,834.978l-0,10.556c-0,6.517 -0.363,10.521 -2.351,14.889c-2.506,5.217 -6.516,9.706 -16.195,18.078l-8.676,6.881c-10.353,8.198 -17.197,13.572 -20.568,16.414l-1.814,1.838c-17.872,15.894 -29.556,24.474 -41.602,24.474c-15.849,-0 -27.706,-4.039 -36.054,-12.081c-2.679,-2.687 -2.679,-2.687 -12.842,-23.278l-13.568,-20.592l-12.651,-13.242c-6.689,-9.395 -13.032,-16.709 -19.375,-22.758c-6.706,-6.032 -33.911,-41.721 -104.048,-136.324l-3.993,-5.529c-13.533,-18.251 -23.402,-31.494 -25.58,-33.99c-3.992,-5.356 -10.508,-15.409 -17.854,-27.299l-3.837,-6.032c-4.683,-7.366 -12.34,-19.083 -15.348,-23.105c-4.355,-2.998 -10.871,-9.394 -21.379,-25.288c-22.729,39.363 -63.138,107.516 -65.298,111.19l-2.506,3.363c-7.035,8.025 -98.863,132.111 -103.875,140.154c-39.425,65.171 -47.427,69.505 -51.765,71.845l-4.027,2.166c-2.662,1.525 -6.326,3.536 -10.509,5.685l-3.992,2.202l-0,-0.174c-11.356,5.72 -25.217,11.388 -34.429,11.388c-31.716,0 -42.881,-17.246 -42.881,-33.314c-0,-10.556 6.326,-18.251 20.516,-35.324c3.508,-4.039 12.53,-14.768 14.898,-19.101c1.815,-3.692 5.323,-7.557 11.995,-13.069c0.83,-1.005 4.684,-5.2 12.513,-15.426l32.252,-36.833c34.204,-42.344 65.954,-83.718 69.117,-89.767l2.022,-3.657c1.66,-2.028 7.83,-11.232 16.022,-23.278l19.531,-28.825c27.55,-40.368 34.222,-50.057 35.898,-52.241c8.521,-10.383 30.713,-48.394 41.274,-68.483l-13.049,-13.242l-117.564,-160.78c-5.358,-13.034 -82.15,-115.385 -104.048,-142.338l-33.046,-45.724c-10.336,-13.381 -21.363,-26.797 -23.368,-28.617l-5.704,-4.697l-5.323,-33.66l7.657,-7.523c0.535,-1.022 15.227,-15.599 21.224,-20.262c8.02,-6.396 15.711,-11.752 23.212,-15.946c15.192,-17.558 17.871,-19.742 21.864,-21.736c3.854,-2.53 9.212,-4.038 15.037,-4.038c11.684,-0 22.071,4.506 30.229,13.242c4.2,5.339 8.694,12.202 8.694,20.418l-0,3.675c9.696,19.101 63.31,112.698 67.804,119.406c0.501,0.85 75.477,111.884 84.482,127.276l11.183,16.067c6.032,8.407 13.014,18.096 16.039,21.961c1.504,2.011 6.188,8.528 11.528,16.414l9.005,13.052c5.185,7.54 10.872,15.738 12.548,17.749c0.985,0.832 2.143,2.184 18.373,27.646c1.642,1.508 3.318,2.825 4.822,4.021c4.01,-5.529 9.177,-12.913 15.866,-22.775c0,-0 6.516,-10.729 14.847,-24.63c14.207,-22.949 33.772,-55.102 39.269,-64.305c2.661,-4.524 64.623,-117.916 75.806,-139.496l22.209,-52.085c0.847,-1.491 1.832,-3.016 3.146,-5.2c3.197,-4.836 9.368,-14.23 12.047,-19.759l0.829,-1.664c25.39,-39.346 35.259,-53.576 40.928,-60.128l0,-7.193l9.489,-0.191c0.536,-0.156 1.192,-0.468 1.867,-0.659c2.333,-0.676 6.343,-1.334 17.542,-2.496c18.01,-6.205 29.21,-8.874 37.385,-8.874c20.032,-0 27.412,14.56 27.412,24.457c0,7.522 -2.696,14.403 -17.716,35.307c-4.839,7.054 -9.558,13.918 -13.688,19.95l-2.524,3.831c-2.333,3.38 -23.678,40.351 -26.876,46.4c0,0.156 -0.657,1.161 -1.849,3.033c-3.664,5.685 -14.691,22.758 -22.521,38.999l-18.027,28.807c-3.197,6.015 -13.032,23.261 -23.229,40.681l-18.701,31.996c-4.667,8.216 -8.521,14.56 -9.523,16.241c-0,0 -1.349,2.687 -3.492,6.188l-2.852,4.541c-7.19,11.388 -20.049,32.153 -27.049,44.372c-29.9,54.946 -64.641,119.736 -77.154,144.193c10.025,12.722 35.069,44.701 40.72,50.265l1.176,1.318l11.874,15.391c39.406,51.098 98.69,128.108 102.544,132.632c27.55,31.667 33.236,37.005 34.221,37.872c2.334,2.184 4.529,4.853 13.361,15.565l1.486,1.837c25.736,32.153 32.545,39.519 34.429,41.01c3.993,3.865 24.716,19.777 57.78,43.869l8.348,6.223Z" style="fill-rule:nonzero;"/></g></svg>