<?xml version="1.0" encoding="UTF-8" standalone="no"?><!DOCTYPE svg PUBLIC "-//W3C//DTD SVG 1.1//EN" "http://www.w3.org/Graphics/SVG/1.1/DTD/svg11.dtd"><svg width="100%" height="100%" viewBox="0 0 725 938" version="1.1" xmlns="http://www.w3.org/2000/svg" xmlns:xlink="http://www.w3.org/1999/xlink" xml:space="preserve" xmlns:serif="http://www.serif.com/" style="fill-rule:evenodd;clip-rule:evenodd;stroke-linejoin:round;stroke-miterlimit:2;"><rect id="NUMBER-1" x="0" y="0" width="723.081" height="936.514" style="fill:none;"/><path id="_1" serif:id="1" d="M432.681,875.656c-16.089,24.783 -102.259,52.452 -115.825,52.452c-6.896,-0 -10.577,-3.699 -12.08,-5.859c-7.553,-10.888 -3.543,-25.993 1.33,-43.603c2.869,-10.715 5.876,-21.949 5.876,-31.004l0,-691.065c0,-6.861 -1.002,-35.688 -2.696,-47.111c-0.311,-0.173 -0.501,-0.502 -0.847,-0.64c-9.885,-7.414 -28.135,-21.153 -19.269,-37.416c19.805,-35.377 85.668,-71.41 118.694,-71.41c5.358,-0 9.903,0.83 13.757,2.679c8.727,4.338 14.085,7.068 -2.506,124.069l-0,639.753c0.173,0 1.331,11.735 3.162,26.149c1.694,14.413 4.044,31.194 5.876,41.235c0.847,4.528 5.03,19.131 6.55,22.64c1.504,3.508 3.353,10.559 -2.022,19.131" style="fill-rule:nonzero;"/></svg>