<?xml version="1.0" encoding="UTF-8" standalone="no"?><!DOCTYPE svg PUBLIC "-//W3C//DTD SVG 1.1//EN" "http://www.w3.org/Graphics/SVG/1.1/DTD/svg11.dtd"><svg width="100%" height="100%" viewBox="0 0 725 938" version="1.1" xmlns="http://www.w3.org/2000/svg" xmlns:xlink="http://www.w3.org/1999/xlink" xml:space="preserve" xmlns:serif="http://www.serif.com/" style="fill-rule:evenodd;clip-rule:evenodd;stroke-linejoin:round;stroke-miterlimit:2;"><rect id="NUMBER-5" x="0" y="0" width="723.081" height="936.514" style="fill:none;"/><path id="_5" serif:id="5" d="M723.081,62.552c-0,7.397 -2.848,14.777 -9.047,23.841c-2.709,4.706 -18.98,48.343 -40.304,109.415l-47.492,145.012l-2.188,2.205c-2.188,5.539 -7.553,21.636 -20.664,64.284c-3.837,12.746 -5.678,18.632 -6.859,21.48c-4.862,12.763 -29.207,80.746 -30.874,86.632c-0.677,2.657 -2.188,8.023 -6.408,20.977c-4.011,12.902 -10.731,33.375 -21.636,66.61l-18.146,57.408c-12.555,32.229 -19.101,51.035 -21.793,61.922c-1.684,7.38 -8.578,34.07 -8.578,34.07c-0.66,2.535 -5.365,19.986 -14.082,52.892l-2.675,20.977c0,0.66 -1.024,6.199 -9.585,51.851l-3.369,8.578l-14.569,20.299c-6.911,5.366 -51.711,22.314 -56.921,23.147l-13.926,2.362l-8.387,-11.409c-5.54,-7.033 -6.373,-8.891 -6.877,-9.898c-27.54,-72.688 -51.225,-129.922 -55.723,-136.642l-1.511,-2.831l-2.882,-7.397c-3.49,-10.592 -53.188,-108.928 -57.894,-117.472c-2.518,-3.368 -93.161,-225.271 -94.151,-228.466c-0.173,-0 -6.043,-13.423 -11.912,-26.828c-6.06,-13.614 -11.912,-27.211 -12.086,-27.871c-1.024,-3.039 -3.212,-7.05 -5.383,-11.061c-3.681,-7.067 -5.869,-11.6 -7.05,-14.795c-2.188,-3.698 -4.862,-9.411 -9.741,-22.643c-0.834,-2.188 -4.185,-8.231 -7.867,-15.455l-6.546,-12.433c-15.125,-28.512 -31.395,-59.751 -37.594,-74.494c-1.372,-2.709 -3.196,-7.397 -5.036,-12.259c-1.858,-4.897 -4.046,-10.402 -5.731,-13.093l-1.51,-2.848l-16.445,-33.253c-18.962,-35.737 -19.639,-40.095 -19.639,-46.659c0,-1.824 0,-7.05 8.908,-24.832l2.362,-4.358l4.514,-1.685c6.391,-2.5 18.285,-7.553 23.165,-11.078l32.402,-23.356c10.732,-5.678 17.608,-6.702 33.722,-5.348l15.455,1.511l4.688,14.794c3.873,10.558 11.253,28.01 21.828,51.678c0.33,1.007 3.525,10.227 8.543,24.501c13.11,37.612 39.123,111.603 56.574,159.789c6.72,23.321 30.058,73.852 34.07,82.066l21.983,46.832c1.858,3.681 7.745,16.097 9.742,21.828c0.66,1.337 1.997,4.219 3.872,8.057c8.387,17.937 28.183,60.238 36.24,76.005c6.546,11.287 37.108,98.544 37.265,99.412c12.085,24.467 21.827,43.256 25.508,48.986c2.865,4.515 6.373,12.086 11.756,24.658l1.493,3.195c2.866,6.216 8.405,18.319 10.402,22.14c0.868,0.851 1.702,1.701 2.552,2.361l12.902,-41.796c8.891,-34.4 12.26,-43.794 14.604,-48.656c2.362,-6.217 42.96,-131.259 75.519,-231.644l39.296,-118.983c7.883,-27.696 17.799,-61.089 25.682,-87.969c7.554,-26.169 13.423,-46.312 14.257,-48.986c0.503,-3.525 3.368,-15.124 18.458,-64.978c0.834,-4.515 2.848,-9.724 8.057,-19.796l4.706,-8.7l3.855,-1.701c52.858,-24.345 58.397,-25.005 60.429,-25.179l7.363,-0.521l6.06,3.195c16.462,8.561 24.849,19.657 24.849,32.403" style="fill-rule:nonzero;"/></svg>