<?xml version="1.0" encoding="UTF-8" standalone="no"?><!DOCTYPE svg PUBLIC "-//W3C//DTD SVG 1.1//EN" "http://www.w3.org/Graphics/SVG/1.1/DTD/svg11.dtd"><svg width="100%" height="100%" viewBox="0 0 725 938" version="1.1" xmlns="http://www.w3.org/2000/svg" xmlns:xlink="http://www.w3.org/1999/xlink" xml:space="preserve" xmlns:serif="http://www.serif.com/" style="fill-rule:evenodd;clip-rule:evenodd;stroke-linejoin:round;stroke-miterlimit:2;"><rect id="NUMBER-11" x="0" y="0" width="723.081" height="936.514" style="fill:none;"/><clipPath id="_clip1"><rect x="0" y="0" width="723.081" height="936.514"/></clipPath><g clip-path="url(#_clip1)"><g id="_11" serif:id="11"><path d="M719.819,769.569c-12.694,19.881 -76.127,39.571 -86.639,39.571l-6.685,-0l-4.831,-5.663c-6.512,-9.196 -3.187,-21.37 0.329,-34.41c2.026,-7.152 4.191,-15.516 4.191,-21.699l-0,-500.611c-0,-4.866 -0.693,-23.864 -1.68,-32.418c-7.17,-5.334 -22.045,-17.023 -14.374,-31.033c14.703,-26.548 64.3,-53.442 88.995,-53.442c4.329,0 8.191,0.693 11.36,2.373c8.503,4.156 12.503,5.974 0.138,93.133l0,463.414c0,-0 1.022,8.347 2.356,18.702c1.333,10.166 2.84,22.201 4.156,29.371c0.692,3.342 3.532,13.559 4.52,15.707c2.337,5.368 1.852,11.533 -1.836,17.005" style="fill-rule:nonzero;"/><path d="M534.363,736.356l0,9.196c0,5.334 -0.173,8.659 -1.835,12.382c-2.338,4.312 -5.507,8 -12.867,14.304l-6.996,5.68c-7.187,5.524 -12.036,9.351 -14.201,11.187l-1.333,1.351c-13.681,12.174 -22.703,18.685 -32.73,18.685c-12.33,0 -21.681,-3.325 -28.522,-9.836c-2.355,-2.338 -2.355,-2.338 -10.044,-17.716l-9.49,-14.512l-9.351,-9.697c-4.849,-6.65 -9.178,-11.828 -13.698,-16.002c-5.022,-4.52 -24.21,-29.699 -76.301,-99.661l-3.983,-5.351c-9.195,-12.538 -15.863,-21.543 -17.369,-23.188c-3.187,-4.053 -7.343,-10.547 -13.352,-20.227l-2.511,-4.001c-3.169,-4.831 -8.676,-13.351 -11.031,-16.503c-3.983,-3.031 -8.157,-7.706 -13.006,-14.547c-16.867,29.042 -43.414,73.617 -44.904,76.318l-2.182,2.823c-5.489,6.338 -71.451,95.142 -75.469,101.48c-29.197,48.09 -35.016,51.433 -39.051,53.424l-3.654,2.026c-1.506,0.97 -3.342,1.992 -5.351,2.996l-9.507,5.161l0,-0.502c-7.516,3.342 -15.689,6.182 -21.699,6.182c-25.56,-0 -34.756,-14.183 -34.756,-27.552c0,-8.849 5.022,-14.824 15.88,-27.881c5.992,-7.014 9.352,-11.499 10.356,-13.369c1.663,-2.996 4.485,-6.148 9.681,-10.477c1.177,-1.178 4.329,-5.195 8.676,-10.685l23.707,-26.894c24.21,-30.236 47.242,-59.918 49.909,-64.594l1.68,-3.186c1.16,-1.49 5.836,-8.174 11.672,-17.006l15.204,-22.045c21.006,-30.894 24.02,-35.397 25.526,-37.077c5.525,-6.84 20.366,-32.054 28.384,-46.895l-8.174,-8.191l-86.137,-117.689c-4.347,-10.183 -59.78,-83.609 -75.296,-102.658l-24.21,-33.544c-7.343,-9.351 -15.031,-18.703 -16.694,-20.382l-4.831,-3.793l-4.503,-27.604l6.84,-6.65c3.498,-3.688 12.192,-12.191 15.673,-15.049c5.853,-4.675 11.533,-8.502 17.057,-11.516c10.512,-12.001 12.85,-14.321 16.348,-16.191c3.186,-1.992 7.845,-3.343 12.676,-3.343c9.525,0 17.872,3.672 24.539,10.737c3.533,4.468 7.204,10.148 7.204,17.162l0,1.835c7.672,15.014 45.406,80.647 48.904,85.791c0.485,0.675 53.927,79.833 61.598,92.509l8.174,11.655c4.33,6.2 9.352,13.057 11.516,15.863c1.161,1.35 4.52,6.182 8.694,12.018l5.662,8.364c3.845,5.507 8.365,12.174 9.681,13.854c0.848,0.849 1.836,1.853 13.352,20.019c0.173,0 0.346,0.191 0.346,0.191c2.667,-3.516 5.68,-8.018 9.351,-13.543l4.988,-8.018c9.524,-15.689 29.543,-48.211 34.392,-56.402c0.173,-0.191 46.584,-84.648 55.277,-101.342l16.348,-38.202c0.675,-1.039 1.333,-2.373 2.511,-3.879c1.991,-2.979 6.494,-9.992 8.312,-13.854l0.866,-1.489c17.179,-26.721 24.868,-37.735 29.215,-43.242l-0,-7.36l9.68,-0.156c0.502,0 1.005,-0.156 1.507,-0.329c1.489,-0.485 4.329,-1.021 12.676,-1.835c13.179,-4.486 21.699,-6.512 28.037,-6.512c15.205,0 23.205,10.685 23.205,21.197c0,6.84 -2.996,13.178 -13.507,27.534c-3.014,4.52 -6.183,9.04 -8.849,13.214l-3.014,4.173c-1.662,2.667 -17.04,29.197 -19.205,33.388c-0.156,0 -0.64,1.005 -1.489,2.321c-2.667,4.19 -10.668,16.52 -16.365,28.054l-13.352,21.352c-1.991,4.018 -9.005,16.036 -16.347,28.418l-14.027,24.175c-3.516,5.853 -6.356,10.685 -6.841,11.88c0,-0 -1.022,1.836 -2.667,4.329l-2.182,3.672c-5.507,8.658 -14.512,23.188 -19.707,32.071c-16.348,30.185 -44.402,81.791 -55.087,102.797c7.36,9.524 24.227,30.894 28.055,34.548l1.177,1.351l6.667,8.502c29.232,37.891 73.444,95.35 76.613,99.004c19.534,22.374 23.707,26.374 24.556,27.206c1.835,1.662 3.498,3.515 9.853,11.36l1.334,1.68c18.356,22.703 23.344,28.192 24.694,29.335c3.343,3.031 18.374,14.547 41.891,31.743l7.533,5.68Z" style="fill-rule:nonzero;"/></g></g></svg>