<?xml version="1.0" encoding="UTF-8" standalone="no"?><!DOCTYPE svg PUBLIC "-//W3C//DTD SVG 1.1//EN" "http://www.w3.org/Graphics/SVG/1.1/DTD/svg11.dtd"><svg width="100%" height="100%" viewBox="0 0 725 938" version="1.1" xmlns="http://www.w3.org/2000/svg" xmlns:xlink="http://www.w3.org/1999/xlink" xml:space="preserve" xmlns:serif="http://www.serif.com/" style="fill-rule:evenodd;clip-rule:evenodd;stroke-linejoin:round;stroke-miterlimit:2;"><rect id="NUMBER-9" x="0" y="0" width="723.081" height="936.514" style="fill:none;"/><g id="_9" serif:id="9"><path d="M112.155,768.803c-12.869,19.893 -76.397,39.612 -86.959,39.612l-6.504,-0l-5.012,-5.671c-6.365,-9.21 -3.174,-21.402 0.33,-34.444c2.011,-7.163 4.197,-15.557 4.197,-21.731l0.138,-501.41c0,-4.856 -0.815,-23.917 -1.838,-32.45c-7.18,-5.359 -22.043,-17.031 -14.36,-31.096c14.707,-26.57 64.361,-53.66 89.109,-53.66c4.354,0 8.186,0.815 11.36,2.341c8.88,4.354 12.539,6.175 0.174,93.29l-0,464.122c-0,-0 1.023,8.515 2.341,18.713c1.353,10.372 2.844,22.442 4.197,29.623c0.659,3.156 3.503,13.545 4.492,15.73c2.515,5.324 1.856,11.516 -1.665,17.031" style="fill-rule:nonzero;"/><path d="M723.081,736.877l-0,9.192c-0,5.169 -0.347,8.672 -1.995,12.193c-2.168,4.526 -5.359,8.03 -12.712,14.551l-2.012,1.526c-10.042,7.995 -16.563,13.025 -19.39,15.366l-1.162,1.179c-13.718,12.175 -22.928,18.696 -32.779,18.696c-12.556,0 -21.904,-3.156 -28.581,-9.677c-2.342,-2.498 -2.342,-2.498 -10.371,-18.228l-9.348,-14.048l-9.383,-9.868c-4.683,-6.521 -9.192,-11.863 -13.545,-15.887c-5.186,-4.682 -24.42,-29.934 -76.415,-99.793l-3.329,-4.526c-9.713,-12.869 -16.737,-22.408 -18.055,-24.246c-3.364,-4.006 -8.03,-11.551 -13.545,-20.24l-3,-4.682c-3.191,-4.839 -8.221,-12.696 -10.545,-15.887c-3.85,-2.844 -8.03,-7.509 -12.886,-14.36c-15.695,26.917 -39.785,67.379 -44.312,75.062l-2.983,4.179c-5.376,6.192 -71.575,95.319 -75.582,101.666c-29.102,48.128 -35.12,51.336 -38.97,53.487l-2.48,1.353c-2.029,1.162 -4.7,2.514 -7.7,4.162l-8.36,4.527l0,-0.503c-7.544,3.347 -15.713,6.347 -21.731,6.347c-25.599,0 -34.79,-14.221 -34.79,-27.575c-0,-9.036 5.012,-14.881 15.886,-27.923c2.168,-2.688 8.88,-10.701 10.371,-13.372c1.509,-3.035 4.18,-6.191 9.695,-10.683c1.006,-1.023 4.336,-5.047 8.672,-10.562l23.604,-27.073c24.384,-30.09 47.468,-60.025 50.139,-64.708l1.682,-3.035c1.162,-1.647 5.862,-8.498 12.037,-17.534l13.215,-19.233c22.043,-32.432 25.755,-37.791 27.073,-39.265c5.706,-7.059 20.552,-32.276 28.599,-47.174l-8.203,-8.342l-86.248,-117.899c-4.527,-10.007 -59.886,-83.595 -75.426,-102.62l-24.229,-33.629c-7.37,-9.521 -15.227,-18.904 -16.718,-20.395l-5.013,-3.851l-4.353,-27.575l6.834,-6.677c3.52,-4.041 12.383,-12.384 15.712,-15.072c6.036,-4.838 11.534,-8.498 16.893,-11.724c10.544,-12.001 13.059,-14.36 16.563,-16.025c3.173,-2.185 7.683,-3.33 12.712,-3.33c9.366,0 17.898,3.66 24.402,10.51c3.694,4.683 7.371,10.198 7.371,17.395l-0,1.856c7.683,15.019 45.474,80.577 48.977,85.919c0.33,0.503 53.99,79.761 61.534,92.612l8.342,11.707c4.527,6.192 9.365,13.042 11.551,15.73c1.006,1.509 4.336,6.019 8.203,11.516l6.174,9.053c3.85,5.672 8.36,12.193 9.695,13.858c0.659,0.676 1.665,1.526 13.372,19.91c-0,0.191 0.173,0.191 0.329,0.347c2.515,-3.694 5.706,-8.204 9.383,-13.545l7.51,-12.384c10.197,-16.718 27.419,-44.814 31.928,-52.151c0.174,-0.346 46.671,-85.12 55.36,-101.51l16.216,-38.085c0.503,-0.867 1.318,-2.186 2.515,-4.024c1.994,-3.018 6.677,-10.042 8.342,-13.892l0.832,-1.491c17.396,-26.761 24.923,-37.965 29.432,-43.324l-0,-7.353l9.695,-0.156c0.52,-0.174 0.832,-0.33 1.352,-0.33c1.665,-0.486 4.51,-1.179 12.678,-1.838c13.407,-4.7 21.749,-6.539 28.114,-6.539c15.366,0 23.413,10.528 23.413,21.072c0,7.042 -3.191,13.199 -13.545,27.75c-3.521,5.185 -7.024,10.405 -10.215,14.88l-1.665,2.359c-1.665,2.671 -17.222,29.258 -19.39,33.42c0,0.191 -0.52,0.989 -1.526,2.515c-2.48,4.006 -10.683,16.372 -16.199,28.079l-13.389,21.418c-2.341,4.336 -10.024,17.552 -17.707,30.75l-13.042,22.234c-3.365,5.671 -6.018,10.215 -6.695,11.551c0,-0 -1.006,1.838 -2.67,4.665l-1.995,3.191c-5.532,8.863 -14.724,23.413 -19.737,32.259c-21.089,38.467 -45.473,83.941 -55.359,103.001c7.197,9.018 24.436,30.94 28.096,34.426l1.179,1.353c30.594,39.456 80.247,103.817 83.595,107.858c19.545,22.372 23.743,26.396 24.575,27.072c1.994,1.995 3.677,3.833 10.545,12.193c19.025,23.743 24.072,29.084 25.407,30.42c3.174,3.017 18.367,14.568 41.954,31.773l7.527,5.705Z" style="fill-rule:nonzero;"/></g></svg>