<?xml version="1.0" encoding="UTF-8" standalone="no"?><!DOCTYPE svg PUBLIC "-//W3C//DTD SVG 1.1//EN" "http://www.w3.org/Graphics/SVG/1.1/DTD/svg11.dtd"><svg width="100%" height="100%" viewBox="0 0 725 938" version="1.1" xmlns="http://www.w3.org/2000/svg" xmlns:xlink="http://www.w3.org/1999/xlink" xml:space="preserve" xmlns:serif="http://www.serif.com/" style="fill-rule:evenodd;clip-rule:evenodd;stroke-linejoin:round;stroke-miterlimit:2;"><rect id="NUMBER-7" x="0" y="0" width="723.081" height="936.514" style="fill:none;"/><clipPath id="_clip1"><rect x="0" y="0" width="723.081" height="936.514"/></clipPath><g clip-path="url(#_clip1)"><g id="_7" serif:id="7"><path d="M466.001,198.605c0,4.755 -1.688,9.647 -5.926,15.401c-1.533,3.032 -12.008,31.147 -25.738,70.409l-30.613,93.441l-1.361,1.361c-0.534,1.016 -3.738,10.147 -13.386,41.294c-2.032,6.753 -3.548,12.025 -4.393,13.696c-3.049,8.303 -18.795,51.992 -19.811,55.886c-0.345,1.688 -1.516,5.254 -4.049,13.54c-2.721,8.287 -7.114,21.5 -13.902,42.81l-11.68,36.901c-8.114,20.656 -12.352,32.681 -14.058,39.796c-1.154,4.72 -5.564,21.999 -5.564,21.999c-0.517,1.533 -3.394,12.852 -9.148,34.024l-1.688,13.386c0.172,-0 -0.345,3.015 -6.099,33.49l-2.205,5.599l-9.475,13.024c-4.582,3.566 -33.507,14.574 -36.884,15.074l-9.148,1.533l-5.598,-7.477c-2.705,-3.549 -3.877,-5.564 -4.238,-6.253c-17.762,-46.876 -33.008,-83.794 -35.885,-87.998l-1.172,-2.05l-1.688,-4.582c-2.36,-7.098 -34.196,-70.081 -37.245,-75.646c-1.344,-1.878 -59.917,-145.072 -60.779,-147.277c0,0 -3.704,-8.614 -7.614,-17.262c-3.721,-8.648 -7.597,-17.434 -7.787,-17.778c-0.672,-1.844 -2.016,-4.393 -3.377,-7.098c-2.377,-4.583 -3.721,-7.46 -4.582,-9.475c-1.344,-2.378 -3.032,-6.099 -6.254,-14.574c-0.516,-1.361 -2.532,-5.083 -4.909,-9.803l-4.238,-8.131c-10.32,-19.312 -20.294,-38.59 -24.188,-48.082c-1.016,-1.533 -2.205,-4.737 -3.393,-7.787c-1.189,-3.204 -2.378,-6.253 -3.549,-8.286l-1.017,-1.861l-10.663,-21.499c-12.197,-23.016 -12.697,-25.893 -12.697,-30.148c-0,-1.172 -0,-4.548 5.926,-16.229l1.516,-2.877l3.049,-1.188c4.066,-1.499 11.681,-4.738 14.713,-6.943l19.983,-14.557c8.304,-4.393 12.525,-4.893 22.844,-4.048l10.336,0.999l3.05,9.837c2.36,6.598 7.097,17.761 13.868,33.18c0.344,0.654 2.205,5.736 4.927,13.85c8.286,23.361 25.548,72.803 37.073,104.795c4.221,14.901 19.295,47.375 21.982,52.802l14.058,29.958c-0,0 5.426,11.198 6.443,14.574c-0,0 0.999,2.033 2.532,5.238c5.582,12.007 17.951,38.262 23.188,48.409c4.238,7.442 23.878,63.482 24.033,63.999c11.008,22.482 14.901,29.442 16.262,31.475c1.861,2.86 4.049,7.787 7.615,15.901l1.016,2.205c2.033,4.255 5.926,12.869 6.943,14.574c0.327,0.345 0.499,0.482 0.827,0.655l8.148,-26.393c5.754,-22.171 7.959,-28.253 9.458,-31.491c1.533,-4.049 28.959,-88.515 48.926,-150.309l25.049,-75.835l16.417,-56.73c4.927,-16.383 8.631,-29.097 8.976,-30.785c0.517,-2.206 2.377,-9.82 12.197,-42.311c-0,-1.861 1.343,-5.082 5.082,-12.197l3.049,-5.737l2.533,-1.206c34.196,-15.711 37.745,-16.073 39.106,-16.245l4.909,-0.327l3.877,2.032c10.663,5.737 16.09,12.869 16.09,21.328" style="fill-rule:nonzero;"/><path d="M575.522,727.574c-9.991,15.401 -62.294,33.008 -72.63,33.008l-4.41,-0l-3.549,-3.894c-4.91,-7.115 -2.343,-16.573 0.672,-27.77c1.877,-6.598 3.738,-13.541 3.738,-19.106l-0,-429.789c-0,-4.238 -0.672,-21.844 -1.688,-28.959c-0.173,-0.172 -0.173,-0.172 -0.345,-0.327c-5.754,-4.238 -17.951,-13.386 -12.18,-24.05c12.352,-22.171 53.819,-44.67 74.457,-44.67c3.394,-0 6.271,0.482 8.631,1.671c6.116,2.894 9.32,4.6 -1.154,78.384l0.172,397.281c0,0 0.827,7.27 1.861,16.246c1.171,8.975 2.515,19.467 3.721,25.565c0.499,2.722 3.049,11.853 4.065,14.058c1.017,2.171 2.188,6.77 -1.361,12.352" style="fill-rule:nonzero;"/><path d="M720.761,727.574c-10.009,15.401 -62.294,33.008 -72.63,33.008l-4.41,-0l-3.549,-3.894c-4.91,-7.115 -2.36,-16.573 0.672,-27.77c1.705,-6.598 3.566,-13.541 3.566,-19.106l0.172,-429.789c-0,-4.238 -0.672,-21.844 -1.706,-28.959c-0.155,-0.172 -0.155,-0.172 -0.327,-0.327c-5.926,-4.238 -17.951,-13.386 -12.197,-24.05c12.369,-22.171 53.663,-44.67 74.491,-44.67c3.36,-0 6.254,0.482 8.631,1.671c6.099,2.894 9.303,4.6 -1.188,78.384l0.172,397.281c-0,0 0.844,7.27 1.86,16.246c1.189,8.975 2.533,19.467 3.549,25.565c0.672,2.722 3.239,11.853 4.238,14.058c0.844,2.171 2.205,6.77 -1.344,12.352" style="fill-rule:nonzero;"/></g></g></svg>