<?xml version="1.0" encoding="UTF-8" standalone="no"?><!DOCTYPE svg PUBLIC "-//W3C//DTD SVG 1.1//EN" "http://www.w3.org/Graphics/SVG/1.1/DTD/svg11.dtd"><svg width="100%" height="100%" viewBox="0 0 725 938" version="1.1" xmlns="http://www.w3.org/2000/svg" xmlns:xlink="http://www.w3.org/1999/xlink" xml:space="preserve" xmlns:serif="http://www.serif.com/" style="fill-rule:evenodd;clip-rule:evenodd;stroke-linejoin:round;stroke-miterlimit:2;"><rect id="NUMBER-6" x="0" y="0" width="723.081" height="936.514" style="fill:none;"/><clipPath id="_clip1"><rect x="0" y="0" width="723.081" height="936.514"/></clipPath><g clip-path="url(#_clip1)"><g id="_6" serif:id="6"><path d="M719.86,773.789c-12.69,19.715 -78.059,40.441 -88.57,40.441l-6.694,0l-4.828,-5.683c-6.537,-9.36 -3.365,-21.231 0.313,-35.107c2.179,-7.844 4.341,-15.863 4.341,-22.225l-0,-513.116c-0,-5.02 -0.663,-24.561 -1.83,-33.26c-7.688,-5.857 -22.557,-17.361 -14.713,-31.586c15.044,-27.053 65.7,-54.648 90.941,-54.648c4.515,0 8.35,0.82 11.522,2.336c8.699,4.166 12.708,6.171 0,95.281l0,474.819c0.157,0 1.011,8.698 2.336,19.053c1.342,10.546 2.841,22.905 4.34,30.261c0.68,3.504 3.696,13.858 4.69,16.211c2.335,5.335 1.673,11.697 -1.848,17.223" style="fill-rule:nonzero;"/><path d="M570.448,140.491c0,8.193 -3.991,15.043 -7.53,20.22c-1.83,3.696 -14.538,37.618 -31.098,84.91l-37.269,113.985l-1.83,1.691c-1.673,4.671 -6.014,17.379 -15.863,49.47c-2.527,8.35 -4.532,14.87 -5.369,16.874c-3.678,9.692 -22.713,62.527 -24.055,67.53c-0.68,2.319 -2.005,7.025 -5.177,17.188c-3.347,10.232 -8.542,26.252 -16.717,51.336l-14.207,44.938c-9.849,25.084 -15.043,39.797 -16.891,48.164c-1.499,5.839 -6.833,26.74 -6.833,26.74l-11.035,41.278l-2.004,16.211c-0,0.488 -0.837,5.352 -7.531,40.616l-3.015,7.687l-12.028,16.368c-5.84,4.533 -41.435,18.059 -45.793,18.722l-12.359,2.179l-7.705,-10.198c-3.329,-4.514 -5.02,-7.181 -5.508,-8.192c-21.232,-56.322 -39.779,-100.947 -43.283,-106.455l-1.499,-2.842l-2.353,-5.7c-2.998,-8.855 -41.452,-84.891 -44.956,-91.568c-2.005,-2.353 -72.881,-176.181 -73.875,-179.196c-0.157,-0 -4.672,-10.337 -9.378,-20.866c-4.498,-10.529 -9.169,-21.057 -9.361,-21.563c-0.819,-2.527 -2.493,-5.369 -3.992,-8.367c-2.841,-5.526 -4.515,-9.186 -5.683,-11.697c-2.022,-3.521 -4.34,-8.698 -7.704,-17.884c-0.663,-1.656 -3.155,-6.363 -5.997,-11.871l-5.02,-9.692c-11.854,-22.208 -24.579,-46.787 -29.599,-58.501c-0.976,-1.83 -2.475,-5.665 -3.992,-9.517c-1.342,-3.521 -2.841,-7.862 -4.026,-9.884l-1.325,-2.162l-13.039,-26.234c-15.043,-28.414 -15.549,-32.109 -15.549,-37.617c-0,-1.831 -0,-6.171 7.356,-20.727l2.162,-4.34l4.532,-1.656c5.177,-2.022 14.207,-5.857 17.379,-8.35l25.747,-18.39c8.681,-4.707 14.694,-5.526 27.89,-4.532l13.876,1.342l4.183,13.213c2.685,7.513 8.542,21.546 16.874,40.267c0.349,0.837 3.19,8.524 7.374,20.569c10.354,29.739 30.243,86.409 43.613,123.521c5.352,18.355 23.899,58.5 26.566,64.008l17.24,36.607c1.499,2.841 5.996,12.533 7.67,17.205l2.684,5.508c6.677,14.224 22.226,47.484 28.571,60.017c5.177,9.012 29.093,77.222 29.267,77.867c9.344,18.878 16.874,33.608 19.715,37.774c2.005,3.347 4.498,8.541 9.361,19.75l1.499,3.173c1.517,3.503 4.358,9.691 6.345,13.683l8.524,-27.576c7.182,-28.414 9.692,-34.742 11.523,-38.455c1.847,-4.985 34.776,-106.28 58.692,-180.329l30.906,-93.416l20.203,-69.709c5.875,-19.889 10.389,-35.107 10.878,-37.269c0.505,-2.841 2.841,-12.202 14.381,-50.621c0.836,-3.87 2.51,-8.053 6.676,-16.072l4.183,-7.687l3.679,-1.656c41.8,-19.227 46.141,-19.733 48.146,-19.907l6.676,-0.488l5.369,2.824c13.701,7.373 20.708,16.717 20.708,27.751" style="fill-rule:nonzero;"/></g></g></svg>