<?xml version="1.0" encoding="UTF-8" standalone="no"?><!DOCTYPE svg PUBLIC "-//W3C//DTD SVG 1.1//EN" "http://www.w3.org/Graphics/SVG/1.1/DTD/svg11.dtd"><svg width="100%" height="100%" viewBox="0 0 725 938" version="1.1" xmlns="http://www.w3.org/2000/svg" xmlns:xlink="http://www.w3.org/1999/xlink" xml:space="preserve" xmlns:serif="http://www.serif.com/" style="fill-rule:evenodd;clip-rule:evenodd;stroke-linejoin:round;stroke-miterlimit:2;"><rect id="NUMBER-4" x="0" y="0" width="723.081" height="936.514" style="fill:none;"/><clipPath id="_clip1"><rect x="0" y="0" width="723.081" height="936.514"/></clipPath><g clip-path="url(#_clip1)"><g id="_4" serif:id="4"><path d="M114.309,778.273c-12.684,19.735 -78.18,40.421 -88.704,40.421l-6.688,-0l-4.856,-5.669c-6.498,-9.366 -3.318,-21.221 0.346,-35.098c2.177,-7.672 4.354,-15.846 4.354,-22.206l0,-514.218c0,-5.011 -0.674,-24.729 -1.849,-33.404c-7.69,-5.686 -22.534,-17.385 -14.689,-31.573c15.035,-27.08 65.807,-54.626 91.037,-54.626c4.511,0 8.365,0.674 11.527,2.333c8.692,4.182 12.719,5.997 0,95.219l0,475.975c0.173,0 1.002,8.675 2.333,19.182c1.348,10.542 2.851,22.915 4.338,30.242c0.674,3.526 3.698,13.894 4.683,16.21c2.35,5.34 1.849,11.717 -1.832,17.212" style="fill-rule:nonzero;"/><path d="M723.081,144.262c-0,8.209 -4.165,15.052 -7.673,20.236c-1.849,3.681 -14.534,37.587 -30.916,84.868l-37.414,113.917l-1.676,1.694c-1.676,4.303 -5.841,16.348 -16.037,49.441c-2.506,8.347 -4.528,14.879 -5.34,17.057c-3.681,9.487 -22.552,62.316 -24.055,67.327c-0.501,2.316 -2.005,6.844 -5.185,17.178c-3.352,10.196 -8.519,26.25 -16.71,51.307l-14.206,44.949c-9.85,25.04 -14.861,39.712 -16.849,48.093c-1.365,5.841 -6.86,26.717 -6.86,26.717c-0.501,2.039 -4.182,15.726 -11.043,41.302l-2.005,16.175c0,0.501 -0.829,5.34 -7.5,40.593l-3.006,7.69l-12.045,16.556c-5.824,4.337 -41.251,17.851 -45.778,18.525l-12.356,2.195l-7.5,-10.213c-3.508,-4.511 -5.185,-7.189 -5.686,-8.174c-21.221,-56.32 -39.764,-100.922 -43.272,-106.452l-1.503,-2.817l-2.178,-5.668c-3.007,-8.865 -41.595,-84.885 -45.121,-91.556c-2.004,-2.523 -72.823,-176.112 -73.825,-179.084c0,-0 -4.7,-10.386 -9.349,-20.876c-4.528,-10.541 -9.193,-21.066 -9.366,-21.567c-0.83,-2.35 -2.333,-5.357 -4.01,-8.347c-2.851,-5.53 -4.51,-9.21 -5.685,-11.699c-2.005,-3.353 -4.182,-8.71 -7.673,-17.886c-0.674,-1.659 -3.197,-6.342 -6.031,-12.028l-4.994,-9.504c-11.872,-22.241 -24.574,-46.78 -29.413,-58.48c-1.158,-1.849 -2.488,-5.668 -3.992,-9.522c-1.348,-3.508 -3.024,-7.845 -4.182,-9.867l-1.365,-2.16l-13.013,-26.216c-15.052,-28.41 -15.535,-32.108 -15.535,-37.604c-0,-1.849 -0,-6.186 7.361,-20.72l2.16,-4.337l4.528,-1.677c5.323,-2.004 14.188,-5.823 17.523,-8.346l25.576,-18.387c8.831,-4.666 14.689,-5.513 27.892,-4.511l13.86,1.365l4.182,13.324c2.834,7.552 8.692,21.567 16.883,40.11c0.311,0.846 2.99,8.519 7.172,20.374c10.524,29.585 30.398,86.544 43.773,123.63c5.34,18.387 23.883,58.479 26.561,63.974l17.212,36.602c1.504,2.868 6.014,12.529 7.673,17.039c0.519,1.158 1.676,3.508 3.007,6.36c6.515,14.032 21.895,46.935 28.237,59.291c5.185,9.021 29.085,77.195 29.396,77.852c13.22,27.079 17.886,35.409 19.562,37.759c2.333,3.681 4.994,9.868 9.349,19.735l1.331,2.99c1.676,3.491 4.527,9.833 6.532,13.859l8.502,-27.563c7.189,-28.238 9.695,-34.753 11.527,-38.416c1.849,-5.012 34.752,-106.245 58.808,-180.26l30.743,-93.387l19.7,-67.31c6.031,-21.083 10.87,-37.449 11.389,-39.609c0.483,-2.696 2.834,-12.027 14.36,-50.634c0.83,-3.836 2.489,-8.018 6.653,-16.019l4.2,-7.69l3.681,-1.677c41.768,-19.199 46.089,-19.7 48.11,-19.89l6.654,-0.484l5.374,2.834c13.86,7.345 20.876,16.694 20.876,27.719" style="fill-rule:nonzero;"/></g></g></svg>