<?xml version="1.0" encoding="UTF-8" standalone="no"?><!DOCTYPE svg PUBLIC "-//W3C//DTD SVG 1.1//EN" "http://www.w3.org/Graphics/SVG/1.1/DTD/svg11.dtd"><svg width="100%" height="100%" viewBox="0 0 725 938" version="1.1" xmlns="http://www.w3.org/2000/svg" xmlns:xlink="http://www.w3.org/1999/xlink" xml:space="preserve" xmlns:serif="http://www.serif.com/" style="fill-rule:evenodd;clip-rule:evenodd;stroke-linejoin:round;stroke-miterlimit:2;"><rect id="NUMBER-3" x="0" y="0" width="723.081" height="936.514" style="fill:none;"/><g id="_3" serif:id="3"><path d="M220.822,883.994c-16.11,24.837 -102.382,52.52 -115.818,52.52c-6.882,-0 -10.573,-3.691 -12.091,-5.865c-7.537,-10.917 -3.519,-26.009 1.345,-43.636c2.846,-10.763 5.864,-22.008 5.864,-31.063l0,-691.891c0,-6.899 -0.983,-35.755 -2.673,-47.19c-0.345,-0.155 -0.673,-0.483 -0.828,-0.673c-9.9,-7.364 -28.217,-21.128 -19.3,-37.427c19.783,-35.392 85.773,-71.492 118.837,-71.492c5.364,0 9.9,0.845 13.608,2.691c8.883,4.364 14.247,7.037 -2.363,124.201l0,640.527c0,-0 1.328,11.763 3.018,26.199c1.829,14.436 4.019,31.218 5.882,41.291c1,4.519 5.019,19.145 6.692,22.698c1.518,3.501 3.381,10.521 -2.173,19.11" style="fill-rule:nonzero;"/><path d="M447.101,883.994c-16.127,24.837 -102.399,52.52 -115.818,52.52c-6.882,-0 -10.573,-3.691 -12.091,-5.865c-7.554,-10.917 -3.518,-26.009 1.346,-43.636c2.845,-10.763 5.864,-22.008 5.864,-31.063l-0,-691.891c-0,-6.899 -1.018,-35.755 -2.674,-47.19c-0.345,-0.155 -0.517,-0.483 -0.845,-0.673c-9.9,-7.364 -28.217,-21.128 -19.3,-37.427c19.8,-35.392 85.773,-71.492 118.837,-71.492c5.381,0 9.917,0.845 13.591,2.691c8.882,4.364 14.281,7.037 -2.329,124.201l0,640.527c0,-0 1.328,11.763 3.001,26.199c1.846,14.436 4.036,31.218 5.882,41.291c1,4.519 5.036,19.145 6.709,22.698c1.518,3.501 3.364,10.521 -2.173,19.11" style="fill-rule:nonzero;"/><path d="M644.489,883.994c-16.127,24.837 -102.4,52.52 -115.991,52.52c-6.882,-0 -10.4,-3.691 -11.901,-5.865c-7.727,-10.917 -3.536,-26.009 1.156,-43.636c2.846,-10.763 6.054,-22.008 6.054,-31.063l-0,-691.891c-0,-6.554 -1.173,-35.755 -2.846,-47.19c-0.19,-0.155 -0.5,-0.483 -0.845,-0.673c-9.728,-7.364 -28.217,-21.128 -19.128,-37.427c19.611,-35.392 85.756,-71.492 118.819,-71.492c5.209,0 9.745,0.845 13.609,2.691c8.882,4.364 14.108,7.037 -2.518,124.201l-0,640.527c-0,-0 1.345,11.763 3.173,26.199c1.863,14.436 4.036,31.218 5.882,41.291c0.845,4.519 5.036,19.145 6.554,22.698c1.673,3.501 3.346,10.521 -2.018,19.11" style="fill-rule:nonzero;"/></g></svg>