<?xml version="1.0" encoding="UTF-8" standalone="no"?><!DOCTYPE svg PUBLIC "-//W3C//DTD SVG 1.1//EN" "http://www.w3.org/Graphics/SVG/1.1/DTD/svg11.dtd"><svg width="100%" height="100%" viewBox="0 0 725 938" version="1.1" xmlns="http://www.w3.org/2000/svg" xmlns:xlink="http://www.w3.org/1999/xlink" xml:space="preserve" xmlns:serif="http://www.serif.com/" style="fill-rule:evenodd;clip-rule:evenodd;stroke-linejoin:round;stroke-miterlimit:2;"><rect id="NUMBER-2" x="0" y="0" width="723.081" height="936.514" style="fill:none;"/><g id="_2" serif:id="2"><path d="M288.506,884.063c-16.093,24.785 -102.263,52.451 -115.665,52.451c-7.037,-0 -10.555,-3.691 -12.073,-5.847c-7.555,-10.918 -3.519,-25.993 1.173,-43.62c3.018,-10.711 6.036,-21.974 6.036,-31.029l0,-691.036c0,-6.865 -1.017,-35.686 -2.707,-47.087c-0.311,-0.189 -0.656,-0.5 -0.811,-0.672c-9.9,-7.4 -28.166,-21.146 -19.3,-37.376c19.628,-35.376 85.67,-71.441 118.699,-71.441c5.382,-0 9.918,0.845 13.574,2.673c8.9,4.381 14.282,7.038 -2.311,124.064l0,639.758c0,0 1.311,11.746 2.984,26.165c1.863,14.402 4.053,31.167 5.882,41.24c1.017,4.519 5.019,19.128 6.674,22.629c1.553,3.536 3.381,10.538 -2.155,19.128" style="fill-rule:nonzero;"/><path d="M576.683,884.063c-16.075,24.785 -102.245,52.451 -115.837,52.451c-6.847,-0 -10.556,-3.691 -12.073,-5.847c-7.555,-10.918 -3.502,-25.993 1.345,-43.62c2.863,-10.711 5.882,-21.974 5.882,-31.029l-0,-691.036c-0,-6.865 -1.018,-35.686 -2.691,-47.087c-0.328,-0.189 -0.5,-0.5 -0.828,-0.672c-9.883,-7.4 -28.183,-21.146 -19.283,-37.376c19.783,-35.376 85.653,-71.441 118.7,-71.441c5.347,-0 9.9,0.845 13.729,2.673c8.727,4.381 14.091,7.038 -2.501,124.064l0,639.758c0.173,0 1.328,11.746 3.156,26.165c1.691,14.402 4.054,31.167 5.899,41.24c0.828,4.519 5.019,19.128 6.537,22.629c1.501,3.536 3.346,10.538 -2.035,19.128" style="fill-rule:nonzero;"/></g></svg>