<?xml version="1.0" encoding="UTF-8" standalone="no"?><!DOCTYPE svg PUBLIC "-//W3C//DTD SVG 1.1//EN" "http://www.w3.org/Graphics/SVG/1.1/DTD/svg11.dtd"><svg width="100%" height="100%" viewBox="0 0 725 938" version="1.1" xmlns="http://www.w3.org/2000/svg" xmlns:xlink="http://www.w3.org/1999/xlink" xml:space="preserve" xmlns:serif="http://www.serif.com/" style="fill-rule:evenodd;clip-rule:evenodd;stroke-linejoin:round;stroke-miterlimit:2;"><rect id="NUMBER-8" x="0" y="0" width="723.081" height="936.514" style="fill:none;"/><clipPath id="_clip1"><rect x="0" y="0" width="723.081" height="936.514"/></clipPath><g clip-path="url(#_clip1)"><g id="_8" serif:id="8"><path d="M401.923,237.019c-0,4.4 -1.68,8.626 -5.231,13.874c-1.368,2.719 -10.496,26.725 -21.98,60.015l-26.396,80.316l-1.369,1.541c0,0.156 -2.494,6.755 -11.119,34.832c-1.715,5.906 -3.239,10.479 -3.724,11.986c-2.546,6.443 -16.056,43.959 -17.096,47.683c-0.346,1.698 -1.351,4.746 -3.706,12.021c-2.183,7.101 -5.733,18.446 -11.657,36.338l-10.167,31.645c-6.755,17.753 -10.479,28.059 -11.83,34.138c-1.005,4.036 -4.728,18.776 -4.728,18.776c-0.52,1.507 -3.049,11.154 -7.951,29.254l-1.333,11.328l-0.71,3.36c-0.503,3.395 -1.68,10.167 -4.227,23.192l-2.511,7.413l-8.297,11.501c-4.053,3.222 -29.081,12.713 -32.147,13.216l-8.608,1.333l-5.248,-6.928c-2.373,-3.048 -3.36,-4.901 -3.707,-5.577c-15.224,-39.924 -28.249,-71.534 -30.778,-75.414l-1.022,-1.87l-1.507,-4.036c-2.044,-6.131 -28.579,-58.526 -31.956,-64.779c-1.524,-2.026 -51.408,-124.274 -52.083,-126.474c-0.191,-0 -12.852,-29.254 -13.198,-29.757c-0.503,-1.853 -1.68,-3.897 -2.858,-6.097c-2.044,-3.879 -3.205,-6.426 -3.88,-8.123c-1.368,-2.182 -2.875,-5.404 -5.439,-12.661c-0.502,-1.178 -2.217,-4.382 -4.226,-8.297l-3.706,-6.928c-8.28,-15.727 -17.252,-33.134 -20.802,-41.257c-0.676,-1.351 -1.698,-4.053 -2.702,-6.773c-1.022,-2.546 -2.027,-5.231 -3.049,-6.928l-0.831,-1.68l-9.128,-18.429c-10.67,-19.953 -11.016,-22.5 -11.016,-26.397c-0,-1.177 6.616,-17.251 6.616,-17.251l32.632,-19.434c7.258,-4.226 29.93,-2.875 29.93,-2.875l2.858,9.146c2.027,5.577 6.097,15.19 11.847,28.388c0.312,0.675 2.027,5.248 4.556,12.505c7.118,20.317 21.633,62.25 31.454,89.305c4.053,14.012 18.602,44.791 18.758,45.137l12.176,25.86c0,-0 4.746,9.838 5.595,12.696l2.026,3.88c4.729,10.149 15.398,32.978 19.936,41.759c3.378,6.08 18.931,50.057 20.629,54.958c6.616,13.354 11.864,23.851 13.891,26.726c1.507,2.529 3.36,6.443 6.582,13.839c2.199,4.902 4.555,10.15 5.923,12.869l6.426,-20.438c5.058,-19.971 6.738,-24.543 8.106,-27.072c1.195,-3.568 23.314,-71.343 40.929,-125.799l22.482,-68.139l14.012,-48.376c4.244,-14.203 7.448,-25.011 7.794,-26.518c0.347,-2.044 2.044,-8.643 10.323,-36.2c0.173,-1.697 1.178,-4.555 4.4,-10.842l2.875,-5.231l2.511,-1.161c29.445,-13.527 32.65,-13.874 33.845,-14.047l4.728,-0.329l3.534,2.027c9.664,5.057 14.549,11.501 14.549,19.26" style="fill-rule:nonzero;"/><path d="M491.874,688.984c-8.938,14.065 -55.132,28.579 -62.545,28.579l-4.573,0l-3.36,-3.88c-4.434,-6.425 -2.234,-14.705 0.485,-24.352c1.524,-5.751 3.031,-11.501 3.031,-16.074l0,-365.22c0,-4.053 -0.502,-17.754 -1.351,-23.833c-5.404,-4.053 -15.883,-12.194 -10.496,-21.997c10.67,-19.261 46.506,-38.712 64.45,-38.712c2.875,0 5.594,0.503 7.933,1.698c5.941,2.875 8.643,4.226 -0.329,67.81l-0,337.49c-0,-0 0.658,6.253 1.68,13.701c0.848,7.43 2.043,16.229 3.048,21.477c0.52,2.511 2.719,9.959 3.395,11.657c0.849,2.044 2.026,6.599 -1.368,11.656" style="fill-rule:nonzero;"/><path d="M606.686,688.984c-9.128,14.065 -55.287,28.579 -62.735,28.579l-4.382,0l-3.551,-3.706c-4.399,-6.599 -2.199,-14.879 0.503,-24.699c1.524,-5.578 3.048,-11.328 3.048,-15.901l0,-365.22c0,-4.053 -0.52,-17.754 -1.368,-23.833c-5.248,-4.053 -15.883,-12.194 -10.479,-21.997c10.635,-19.261 46.505,-38.712 64.415,-38.712c3.066,0 5.612,0.503 7.967,1.698c5.889,2.875 8.609,4.226 -0.363,67.81l-0,337.49c-0,-0 0.692,6.253 1.714,13.701c0.832,7.43 2.027,16.229 3.031,21.477c0.52,2.511 2.72,9.959 3.395,11.483c1.005,2.218 2.009,6.773 -1.195,11.83" style="fill-rule:nonzero;"/><path d="M720.795,688.984c-8.92,14.065 -55.113,28.579 -62.7,28.579l-4.399,0l-3.378,-3.706c-4.382,-6.599 -2.199,-14.879 0.329,-24.526c1.525,-5.751 3.222,-11.501 3.222,-16.074l-0,-365.22c-0,-4.053 -0.52,-17.754 -1.351,-23.833c-5.421,-4.053 -15.9,-12.194 -10.496,-21.997c10.669,-19.261 46.349,-38.712 64.259,-38.712c3.066,0 5.75,0.503 7.95,1.698c6.079,2.875 8.799,4.226 -0.329,67.81l0.156,337.49c-0,-0 0.658,6.253 1.68,13.701c0.849,7.43 2.044,16.229 3.066,21.477c0.502,2.511 2.528,9.959 3.377,11.657c0.849,2.044 2.009,6.599 -1.386,11.656" style="fill-rule:nonzero;"/></g></g></svg>