<?xml version="1.0" encoding="UTF-8" standalone="no"?><!DOCTYPE svg PUBLIC "-//W3C//DTD SVG 1.1//EN" "http://www.w3.org/Graphics/SVG/1.1/DTD/svg11.dtd"><svg width="100%" height="100%" viewBox="0 0 308 236" version="1.1" xmlns="http://www.w3.org/2000/svg" xmlns:xlink="http://www.w3.org/1999/xlink" xml:space="preserve" xmlns:serif="http://www.serif.com/" style="fill-rule:evenodd;clip-rule:evenodd;stroke-linejoin:round;stroke-miterlimit:2;"><path id="L01-OTTERHOUND" d="M243.205,149.967c4.298,-4.598 10.048,-14.203 12.176,-22.207c2.938,-11.05 4.371,-39.254 5.451,-44.094c0.426,-1.91 1.076,-4.374 1.421,-4.528c0,-0 30.148,-0.645 33.478,-6.364c0.081,-0.14 11.645,-12.45 11.96,-23.898c0.114,-4.148 1.357,-4.711 -2.703,-6.651c-6.114,-2.922 -12.245,-5.821 -18.294,-8.845c-3.038,-1.519 -3.069,-2.087 -1.117,-4.677c0.05,-0.065 0.108,-0.127 0.159,-0.193c3.034,-3.963 -1.982,-7.97 -2.41,-7.985c-9.87,-0.355 -18.744,-3.938 -27.945,-6.502c-1.678,-0.467 -3.904,-0.152 -5.637,0.395c-11.714,3.685 -21.505,10.155 -26.465,20.025c-5.569,11.082 -15.905,17.458 -25.862,24.429c-9.267,6.487 -20.519,8.762 -31.9,10.568c-28.909,4.589 -99.413,7.021 -100.335,6.646c-7.909,-3.207 -15.458,-6.92 -21.843,-12.261c-3.349,-2.801 -5.258,-6.215 -6.186,-10.132c-3.905,-16.499 -1.576,-32.28 6.947,-47.373c1.301,-2.303 -0.303,-6.893 -1.422,-6.102c-42.023,29.731 -26.741,74.489 -26.396,75.506c1.269,3.749 12.977,20.955 15.709,21.066c0.245,0.011 0.858,1.694 0.54,2.278c-1.866,3.434 -4.289,6.572 -6.084,10.07c-11.85,23.096 -0.878,50.728 -2.296,53.036c-3.566,5.796 -15.888,22.781 -18.197,25.625c-0.988,1.218 -3.378,8.628 -4.22,16.443c-0.031,0.291 -0.759,21.7 -0.857,23.518c-0.193,3.526 5.077,7.284 5.077,7.284l16.423,-0.078c-0,0 9.808,-0.182 9.614,-4.26c-0.441,-9.27 -7.332,-6.049 -8.532,-7.729c-1.755,-2.454 -2.008,-4.901 -1.082,-7.734c2.689,-8.219 8.076,-14.711 15.057,-20.573c15.104,-12.685 29.846,-25.706 44.769,-38.559c2.256,-1.945 4.672,-3.748 7.048,-5.582c1.697,-1.309 3.579,-1.568 5.801,-0.987c11.462,3.003 21.514,8.17 30.44,15.114c0.406,0.316 40.188,6.043 50.69,4.435c9.169,-1.404 20.945,42.26 21.235,47.74c0.415,7.82 11.565,18.135 11.565,18.135l18.384,0.078c0,0 6.482,-1.196 6.687,-4.338c0.095,-1.457 -1.672,-5.102 -2.517,-6.065c-1.041,-1.187 -3.728,-2.572 -5.43,-2.683c-7.244,-0.473 -8.656,-8.485 -9.342,-14.716c-0.542,-4.937 0.202,-9.997 0.554,-14.993c0.452,-6.433 1.124,-12.853 1.623,-19.285c0.565,-7.289 4.486,-12.944 10.65,-17.618c1.457,-1.104 10.452,-1.997 13.614,-5.379Z" style="fill-rule:nonzero;"/></svg>