<?xml version="1.0" encoding="UTF-8" standalone="no"?><!DOCTYPE svg PUBLIC "-//W3C//DTD SVG 1.1//EN" "http://www.w3.org/Graphics/SVG/1.1/DTD/svg11.dtd"><svg width="100%" height="100%" viewBox="0 0 308 238" version="1.1" xmlns="http://www.w3.org/2000/svg" xmlns:xlink="http://www.w3.org/1999/xlink" xml:space="preserve" xmlns:serif="http://www.serif.com/" style="fill-rule:evenodd;clip-rule:evenodd;stroke-linejoin:round;stroke-miterlimit:2;"><path id="L02-BLOODHOUND" d="M86.536,2.894c2.248,-0.738 6.612,-2.918 7.152,-1.715c0.811,1.811 -2.321,2.57 -3.764,3.543c-3.136,2.117 -6.436,4.055 -9.707,6.018c-2.427,1.458 -4.911,2.846 -7.377,4.253c-0.486,0.277 -1.02,0.488 -1.513,0.755c-3.259,1.771 -6.644,3.394 -9.743,5.355c-8.033,5.082 -13.019,12.281 -17.553,19.689c-2.304,3.763 -3.869,7.81 -4.306,12.138c-0.397,3.937 -0.492,7.797 1.429,11.515c0.949,1.837 1.523,3.835 2.635,5.587c1.432,2.255 2.858,4.678 4.969,6.409c2.908,2.386 6.592,3.932 10.724,4.382c1.189,0.13 44.444,-0.14 50.559,0.985c8.996,1.655 68.364,-4.726 87.655,-16.179c2.368,-1.406 8.793,-9.116 10.003,-11.163c2.931,-4.961 7.088,-9.285 9.281,-14.662c3.759,-9.218 18.327,-18.716 23.304,-18.896c9.454,-0.343 18.725,0.728 27.678,3.373c4.875,1.439 9.052,4.021 11.577,7.915c1.667,2.571 2.196,7.169 5.424,7.713c0.482,0.08 13.713,1.571 20.167,5.64c2.427,1.53 2.387,2.968 1.089,5.461c-0.689,1.326 -6.116,23.325 -15.598,29.543c-4.449,2.917 -10.054,0.771 -16.95,-2.696c-0.711,-0.358 -1.045,0.341 -0.953,0.941c0.28,1.834 0.681,3.66 0.841,5.501c0.118,1.361 5.936,19.979 -2.481,21.673c-8.42,1.695 -14.425,-2.862 -15.723,-2.129c-2.82,1.592 2.617,17.134 -0.173,23.549c-4.023,9.249 -16.528,15.684 -23.084,21.127c-0.475,0.395 -13.184,16.593 -13.389,17.286c-0.764,2.583 -1.604,5.183 -1.924,7.821c-0.602,4.955 -1.044,9.936 -1.223,14.915c-0.26,7.268 0.351,26.919 1.479,29.374c0.876,1.907 2.168,2.562 4.459,2.315c1.777,-0.193 9.203,3.024 11.223,4.104c2.191,1.171 3.598,3.84 3.421,7.296c-0.167,3.252 -6.837,5.414 -6.837,5.414l-19.758,0c-0,0 -2.519,-2.939 -3.27,-3.975c-2.239,-3.087 -4.296,-6.243 -5.562,-9.762c-0.995,-2.768 -4.072,-9.08 -4.531,-9.246c-2.719,-0.977 -3.953,-2.842 -3.979,-5.416c-0.055,-5.294 -1.342,-20.39 -1.579,-22.659c-0.583,-5.604 -1.569,-11.151 -3.55,-16.509c-1.37,-3.706 -3.721,-7.033 -4.605,-7.108c-3.029,-0.258 -24.026,-2.373 -31.479,-3.286c-8.919,-1.095 -17.798,-2.315 -26.386,-4.84c-4.316,-1.268 -15.055,-6.673 -19.472,-7.681c-8.34,-1.904 -9.054,-5.658 -17.65,-5.677c-0.999,-0.003 -7.176,10.006 -8.319,11.081c-2.634,2.478 -4.942,5.245 -7.784,7.521c-4.622,3.701 -9.552,7.119 -14.38,10.628c-3.357,2.439 -6.71,4.886 -10.159,7.227c-2.496,1.692 -5.175,3.181 -7.719,4.823c-3.117,2.011 -6.427,3.864 -9.206,6.185c-4.556,3.806 -8.083,8.263 -9.597,13.731c-0.862,3.116 -2.113,6.162 -2.794,9.302c-0.624,2.876 -0.912,5.835 0.11,8.746c0.238,0.677 0.595,1.028 1.448,1.132c1.634,0.198 5.212,2.642 5.705,3.034c2.401,1.909 5.21,6.651 3.391,9.575c-1.338,2.15 -7.662,3.174 -7.662,3.174l-9.252,0c-0,0 -2.439,-0.359 -3.559,-0.786c-1.262,-0.482 -2.409,-1.185 -3.607,-1.792c-1.359,-0.688 -2.147,-1.724 -2.475,-3.037c-1.322,-5.299 -1.634,-10.682 -1.613,-16.06c0.014,-3.365 0.606,-6.732 0.555,-10.096c-0.061,-4.021 -0.407,-8.038 -0.543,-12.059c-0.062,-1.822 0.077,-3.655 1.435,-5.204c2.351,-2.683 4.903,-5.253 7.017,-8.068c2.087,-2.778 4.238,-5.654 5.468,-8.75c2.059,-5.179 3.931,-10.443 4.931,-15.901c0.756,-4.134 1.392,-8.264 1.352,-12.45c-0.019,-2.048 -0.191,-4.095 -0.293,-6.143c-0.057,-1.156 -0.033,-2.32 -0.175,-3.469c-0.563,-4.553 -0.962,-9.123 0.107,-13.64c1.246,-5.269 2.979,-10.425 5.772,-15.275c1.316,-2.284 2.361,-4.7 3.863,-6.884c1.823,-2.65 3.978,-5.133 6.038,-7.658c0.491,-0.603 0.456,-1.021 0.021,-1.653c-2.008,-2.929 -4.017,-5.862 -5.864,-8.866c-3.599,-5.853 -5.02,-12.217 -5.529,-18.752c-0.306,-3.927 0.223,-7.786 1.621,-11.56c0.805,-2.169 1.183,-4.469 2.144,-6.579c1.356,-2.977 3.213,-5.782 4.605,-8.749c2.28,-4.864 6.537,-8.411 10.714,-11.928c2.722,-2.291 6.109,-4.002 9.248,-5.912c5.514,-3.356 11.789,-5.382 17.99,-7.519c5.326,-1.835 10.684,-3.602 16.045,-5.36Z" style="fill-rule:nonzero;"/></svg>