<?xml version="1.0" encoding="UTF-8" standalone="no"?><!DOCTYPE svg PUBLIC "-//W3C//DTD SVG 1.1//EN" "http://www.w3.org/Graphics/SVG/1.1/DTD/svg11.dtd"><svg width="100%" height="100%" viewBox="0 0 308 238" version="1.1" xmlns="http://www.w3.org/2000/svg" xmlns:xlink="http://www.w3.org/1999/xlink" xml:space="preserve" xmlns:serif="http://www.serif.com/" style="fill-rule:evenodd;clip-rule:evenodd;stroke-linejoin:round;stroke-miterlimit:2;"><path id="L03-WEIMARANER" d="M272.568,3.728c-3.477,-1.567 -11.632,-2.872 -18.143,-2.914c-14.626,-0.105 -18.335,2.601 -32.668,23.794c-13.134,19.418 -14.646,20.776 -31.015,27.952c-15.906,6.978 -31.923,9.788 -70.397,12.357c-17.881,1.191 -33.596,3.447 -42.778,6.142c-23.183,6.79 -32.225,6.978 -51.669,1.045c-18.022,-5.495 -25.743,-6.456 -25.743,-3.217c-0,2.6 15.26,10.424 30.965,15.877c6.914,2.392 13.698,4.763 15.069,5.254c1.945,0.699 1.804,2.256 -0.655,7.186c-1.734,3.457 -3.972,15.376 -4.98,26.479c-1.008,11.104 -3.407,23.857 -5.332,28.338c-3.246,7.542 -16.4,22.03 -24.04,26.459c-2.469,1.431 -4.032,7.834 -6.431,26.259c-1.744,13.402 -2.691,25.654 -2.117,27.221c0.633,1.706 0.985,5.071 3.512,5.071l21.758,0c2.921,0 2.396,-1.992 2.336,-3.149c-0.449,-8.639 -5.797,-9.6 -8.561,-11.97c-3.494,-2.996 -5.315,-3.26 -3.521,-11.585c1.835,-8.523 7.71,-23.084 10.371,-23.084c0.676,0 20.24,-3.938 41.589,-22.269c4.989,-4.272 11.571,-13.182 16.138,-21.821c13.143,-24.839 20.119,-25.434 60.014,-5.066c11.713,5.975 25.633,11.605 30.945,12.503l12.065,1.64l1.462,9.986c0.796,5.494 1.673,19.22 1.945,30.511c0.312,12.712 0.587,21.476 1.918,22.009c1.179,0.47 2.143,4.717 2.829,8.947c1.14,7.07 -0.11,13.348 3.44,13.348c10.617,0 12.604,0 15.611,0c8.482,0 14.637,0.522 14.827,-5.071c0.236,-6.932 -6.14,-12.935 -12.399,-14.627c-5.746,-1.557 -6.702,-4.143 -4.262,-29.933c2.771,-29.205 6.219,-43.035 12.438,-49.908c2.691,-2.967 7.6,-11.02 10.906,-17.872c4.707,-9.777 6.038,-15.219 6.159,-25.069c0.232,-18.771 3.628,-30.24 9.374,-31.629c3.165,-0.762 5.413,-3.384 6.945,-8.095l2.258,-6.967l14.545,-0.272c17.508,-0.334 21.58,-2.329 26.933,-13.192c3.921,-7.97 3.951,-8.43 0.604,-10.968c-1.925,-1.452 -4.415,-2.653 -5.543,-2.653c-7.47,-0.042 -16.924,-4.732 -18.577,-9.223c-1.008,-2.747 -4.667,-6.268 -8.125,-7.824Z"/></svg>