<?xml version="1.0" encoding="UTF-8" standalone="no"?><!DOCTYPE svg PUBLIC "-//W3C//DTD SVG 1.1//EN" "http://www.w3.org/Graphics/SVG/1.1/DTD/svg11.dtd"><svg width="100%" height="100%" viewBox="0 0 261 238" version="1.1" xmlns="http://www.w3.org/2000/svg" xmlns:xlink="http://www.w3.org/1999/xlink" xml:space="preserve" xmlns:serif="http://www.serif.com/" style="fill-rule:evenodd;clip-rule:evenodd;stroke-linejoin:round;stroke-miterlimit:2;"><path id="L05-DOBERMANN" d="M215.149,1.209c0.418,0.419 0.803,2.679 0.854,5.022c0.051,2.343 3.474,21.364 3.474,21.364l7.068,3.768c8.72,4.647 10.943,7.029 11.866,12.715c0.637,3.914 1.994,5.391 11.372,12.378c5.858,4.364 10.825,8.458 11.038,9.099c0.667,2 -8.422,9.708 -13.15,11.152c-5.031,1.536 -11.886,-0.078 -25.07,-5.909c-8.594,-3.8 -8.254,-4.137 -14.512,14.367c-3.905,11.549 -4.605,15.302 -5.263,28.188c-0.83,16.263 -1.676,18.778 -10.929,32.43c-2.558,3.775 -5.405,9.001 -6.326,11.613c-2.544,7.208 -5.191,27.16 -6.076,45.792c-0.852,17.962 -0.142,21.471 4.482,22.158c3.792,0.564 7.835,6.454 6.21,9.045c-1.337,2.129 -12.47,3.452 -17.796,2.116c-2.806,-0.704 -5.679,-6.578 -7.061,-14.437c-0.452,-2.567 -1.564,-5.853 -2.471,-7.301c-0.908,-1.448 -1.666,-5.462 -1.686,-8.919c-0.039,-7.143 -3.117,-40.157 -3.808,-40.847c-0.248,-0.249 -4.435,-1.289 -9.304,-2.31c-4.868,-1.022 -14.203,-3.509 -20.743,-5.53c-27.063,-8.356 -30.852,-9.325 -36.463,-9.325c-7.784,-0 -11.696,2.22 -17.056,9.681c-10.087,14.041 -17.443,20.296 -38.68,32.893c-5.537,3.284 -11.783,7.76 -13.881,9.946c-4.351,4.532 -7.487,12.369 -7.476,18.681c0.006,3.527 0.647,4.674 3.524,6.311c4.55,2.588 6.029,7.808 2.886,10.179c-2.67,2.016 -16.5,1.407 -18.715,-0.824c-1.735,-1.748 -1.382,-15.499 0.834,-32.514l1.65,-12.66l7.651,-7.469c4.207,-4.108 8.633,-9.584 9.834,-12.17c1.201,-2.586 3.177,-10.881 4.39,-18.432c3.521,-21.904 4.481,-25.583 8.205,-31.456c4.159,-6.558 4.274,-7.745 1.138,-11.732c-5.076,-6.454 -1.111,-10.634 6.193,-6.529c4.371,2.457 4.589,2.463 18.439,0.519c7.708,-1.082 22.31,-3.071 32.447,-4.418c22.297,-2.963 29.95,-4.631 46.971,-10.23c17.822,-5.864 25.442,-9.37 30.131,-13.862c2.183,-2.092 7.74,-10.224 12.349,-18.073c4.782,-8.143 10.779,-16.567 13.969,-19.621c3.074,-2.943 5.977,-6.91 6.451,-8.816c0.475,-1.906 2.971,-7.766 5.548,-13.023c2.576,-5.258 4.685,-10.221 4.685,-11.032c-0,-1.789 1.757,-3.028 2.807,-1.978"/></svg>