<?xml version="1.0" encoding="UTF-8" standalone="no"?><!DOCTYPE svg PUBLIC "-//W3C//DTD SVG 1.1//EN" "http://www.w3.org/Graphics/SVG/1.1/DTD/svg11.dtd"><svg width="100%" height="100%" viewBox="0 0 275 237" version="1.1" xmlns="http://www.w3.org/2000/svg" xmlns:xlink="http://www.w3.org/1999/xlink" xml:space="preserve" xmlns:serif="http://www.serif.com/" style="fill-rule:evenodd;clip-rule:evenodd;stroke-linejoin:round;stroke-miterlimit:2;"><path id="L06-SAMOYED" d="M219.091,2.287c-5.135,-3.657 -10.784,1.567 -15.108,5.292c-1.662,1.441 -7.375,4.24 -12.687,6.217c-5.313,1.989 -10.321,4.703 -11.11,6.05c-0.8,1.336 -3.398,3.451 -5.787,4.703c-2.388,1.252 -8.49,8.427 -13.561,15.949c-12.256,18.169 -15.076,21.125 -24.092,25.292c-9.206,4.26 -23.661,4.776 -23.661,0.852c-0,-4.072 -16.255,-20.631 -24.177,-24.64c-3.85,-1.935 -12.109,-3.787 -18.358,-4.103c-22.935,-1.136 -44.313,16.886 -45.534,38.38c-0.305,5.428 -3.04,12.551 -7.817,20.389c-14.413,23.629 -16.528,29.31 -17.022,45.702c-0.442,14.318 4.061,35.465 9.206,43.324c2.451,3.745 2.672,6.07 0.999,10.868c-2.662,7.617 0.663,28.605 5.471,34.476c1.82,2.23 6.659,4.587 10.762,5.239c8.133,1.305 23.23,-0.421 27.607,-3.146c3.45,-2.146 1.178,-10.289 -2.883,-10.289c-4.071,0 -3.545,-9.563 0.989,-18.095c2.051,-3.83 8.606,-10.689 14.561,-15.224c5.965,-4.534 13.645,-12.393 17.064,-17.464l6.218,-9.227l9.942,5.113c5.471,2.809 16.233,7.46 23.924,10.321l32.358,5.218l3.187,11.173c3.314,11.636 13.271,41.305 30.925,41.02c27.858,-0.441 37.653,-6.438 23.587,-14.444c-5.692,-3.241 -6.05,-4.177 -6.06,-15.971c-0.021,-20.641 3.388,-31.825 13.908,-45.681c21.294,-28.016 27.049,-41.956 26.26,-63.629l-0.484,-13.424l8.332,-1.652c10.574,-2.093 18.632,-11.046 18.632,-20.704c0,-6.166 -0.894,-7.218 -9.331,-10.942c-7.807,-3.451 -9.143,-4.839 -8.185,-8.48c1.462,-5.597 -5.029,-18.337 -11.521,-22.577c-2.914,-1.915 -5.292,-5.65 -5.67,-8.9c-0.6,-5.229 -1.334,-13.059 -10.069,-5.597c-5.114,4.368 -8.323,0.385 -10.815,-1.389Z"/></svg>