<?xml version="1.0" encoding="UTF-8" standalone="no"?><!DOCTYPE svg PUBLIC "-//W3C//DTD SVG 1.1//EN" "http://www.w3.org/Graphics/SVG/1.1/DTD/svg11.dtd"><svg width="100%" height="100%" viewBox="0 0 308 237" version="1.1" xmlns="http://www.w3.org/2000/svg" xmlns:xlink="http://www.w3.org/1999/xlink" xml:space="preserve" xmlns:serif="http://www.serif.com/" style="fill-rule:evenodd;clip-rule:evenodd;stroke-linejoin:round;stroke-miterlimit:2;"><path id="L07-SETTER" d="M240.808,223.322c-1.265,-3.189 -1.771,-11.442 -2.086,-16.18c-0.508,-7.629 -0.371,-15.306 -0.759,-22.948c-0.255,-5.032 -1.127,-10.028 -1.398,-15.061c-0.211,-3.914 19.544,-26.698 22.71,-43.34c1.241,-6.521 2.058,-45.58 2.445,-49.936c0.077,-0.87 5.491,-6.665 5.84,-9.673c0.5,-4.302 -2.134,-11.107 -2.844,-17.536c-0.461,-4.181 6.907,-9.851 9.649,-9.66c3.606,0.252 7.352,0.407 10.74,1.606c6.653,2.353 11.325,-0.67 15.352,-5.74c3.802,-4.786 5.298,-10.774 6.527,-16.811c0.448,-2.197 -0.409,-3.601 -2.485,-3.949c-1.75,-0.294 -3.523,-0.436 -5.274,-0.737c-4.504,-0.773 -9.007,-1.554 -13.498,-2.421c-1.869,-0.361 -3.034,-1.519 -3.779,-3.615c-0.532,-1.498 -1.766,-3.334 -3.051,-3.78c-9.546,-3.314 -19.167,-4.67 -28.602,0.531c-2.823,1.556 -4.988,3.856 -6.381,7.073c-2.816,6.5 -6.245,12.509 -10.679,17.968c-3.193,3.927 -5.302,8.882 -8.025,13.283c-5.552,8.975 -12.879,15.212 -22.984,16.658c-17.246,2.466 -34.506,4.812 -51.769,7.13c-10.036,1.349 -20.151,2.138 -30.111,3.964c-5.963,1.092 -11.871,3.218 -17.494,5.709c-23.886,10.588 -48.39,18.239 -74.267,19.936c-7.711,0.505 -15.405,1.499 -23.129,1.621c-5.089,0.08 -5.913,1.85 -5.241,2.268c1.724,1.073 16.945,21.654 35.603,26.111c8.805,2.104 37.213,-6.424 38.383,-7.642c0.975,-1.015 2.836,-2.457 2.811,-1.943c-0.099,1.997 -0.206,3.995 -0.323,5.992c-0.075,1.257 -2.688,16.556 -3.77,22.976c-0.244,1.449 -4.507,8.206 -6.475,12.475c-3.32,7.205 -12.937,27.285 -13.449,30.75c-0.577,3.905 -4.985,20.647 -6.132,22.019c-1.327,1.585 4.543,16.97 6.132,18.048c0.793,0.538 4.761,8.359 4.761,8.359l16.445,-0c0,-0 3.836,-2.893 2.811,-6.328c-0.526,-1.758 -4.653,-3.169 -6.051,-4.225c-5.741,-4.333 -7.316,-9.787 -7.102,-16.708c0.207,-6.671 2.862,-12.164 7.102,-16.828c0.512,-0.563 18.308,-7.952 24.794,-14.596c4.61,-4.724 9.677,-8.914 14.5,-13.395c8.741,-8.123 16.791,-16.996 23.523,-27.156c3.557,-5.366 8.481,-6.303 13.884,-6.112c1.232,0.043 7.095,2.376 8.723,3.076c1.39,0.597 17.912,7.637 19.789,8.817c2.168,1.362 4.128,3.117 6.177,4.701c0.036,0.028 4.286,2.291 5.321,3.231c1.422,1.291 7.337,6.225 9.978,6.536c1.754,0.207 0.984,-0.258 2.71,3.888c0.293,0.704 5.758,24.614 6.784,26.673c1.348,2.704 4.178,9.641 5.295,11.508c3.572,5.969 4.602,7.946 4.883,12.676c0.144,2.423 1.31,3.994 2.268,5.832c0.862,1.651 1.832,3.238 2.669,4.905c1.824,3.633 7.397,13.505 7.397,13.505l16.252,-0c0,-0 5.645,-1.056 5.636,-1.723c-0.09,-6.429 -3.028,-7.093 -5.233,-8.83c-1.657,-1.305 -4.691,-0.906 -5.503,-2.952Z" style="fill-rule:nonzero;"/></svg>