<?xml version="1.0" encoding="UTF-8" standalone="no"?><!DOCTYPE svg PUBLIC "-//W3C//DTD SVG 1.1//EN" "http://www.w3.org/Graphics/SVG/1.1/DTD/svg11.dtd"><svg width="100%" height="100%" viewBox="0 0 308 237" version="1.1" xmlns="http://www.w3.org/2000/svg" xmlns:xlink="http://www.w3.org/1999/xlink" xml:space="preserve" xmlns:serif="http://www.serif.com/" style="fill-rule:evenodd;clip-rule:evenodd;stroke-linejoin:round;stroke-miterlimit:2;"><path id="L08-AFGAN-HOUND" serif:id="L08-AFGAN HOUND" d="M266.613,2.183c-21.314,-6.659 -37.265,7.526 -53.129,47.25c-9.244,23.171 -10.974,25.369 -23.872,30.295c-9.62,3.679 -17.66,4.556 -52.624,5.761c-44.133,1.533 -52.614,3.224 -65.866,13.171c-8.341,6.257 -16.112,20.887 -22.024,41.436c-6.266,21.807 -18.465,32.272 -27.386,23.498c-3.827,-3.763 -5.45,-3.858 -5.45,-0.317c0,5.645 7.717,9.926 16.402,9.112c4.6,-0.434 8.362,-0.444 8.362,-0.032c0,3.002 -10.512,14.059 -19.723,20.75c-8.814,6.405 -11.544,9.799 -13.425,16.659c-1.999,7.336 -4.525,13.984 -7.674,20.179c-0.956,1.892 12.156,5.021 27.548,6.575c11.146,1.131 29.44,-0.994 38.039,-4.408c1.698,-0.677 4.955,-1.438 7.222,-1.702c16.295,-1.871 22.701,-5.846 24.84,-15.412c0.742,-3.308 2.579,-6.48 4.084,-7.05c1.505,-0.571 4.171,-4.535 5.912,-8.816c1.741,-4.292 4.063,-8.34 5.159,-9.006c1.096,-0.666 2.633,-4.059 3.407,-7.547c1.043,-4.662 1.892,-5.592 3.225,-3.531c0.989,1.554 1.827,1.808 1.838,0.581c0.021,-1.215 1.816,-4.249 4.009,-6.733c3.923,-4.44 4.009,-4.45 6.169,-0.486c1.204,2.209 3.719,3.805 5.579,3.53c1.87,-0.264 5.675,1.586 8.448,4.112c2.773,2.527 6.363,4.102 7.975,3.499c1.613,-0.613 2.935,-0.127 2.935,1.078c-0,1.195 1.386,1.66 3.074,1.015c1.784,-0.666 3.633,0.254 4.396,2.209c0.72,1.85 2.59,2.897 4.149,2.305c1.558,-0.582 2.837,0.042 2.859,1.405c0.021,1.829 0.43,1.861 1.547,0.127c1.064,-1.649 3.117,-1.046 6.922,2.03c4.267,3.467 5.632,6.723 6.514,15.623c0.612,6.268 0.15,12.928 -1.054,15.042c-1.805,3.181 -1.58,3.572 1.462,2.431c2.666,-1.015 3.3,-0.571 2.408,1.702c-1.01,2.6 2.956,4.418 5.578,2.558c0.398,-0.275 2.021,0.454 3.612,1.628c5.858,4.312 31.525,5.116 52.946,1.638c7.094,-1.152 13.543,-2.727 14.328,-3.488c0.795,-0.772 -1.387,-3.943 -4.826,-7.03c-5.675,-5.095 -6.385,-7.177 -7.664,-22.219c-1.397,-16.521 1.301,-34.967 5.116,-34.967c1,0 1.817,-2.685 1.817,-5.961c-0,-3.267 0.892,-8.256 1.977,-11.068c2.537,-6.564 3.526,-35.347 1.419,-41.309c-1.354,-3.837 -1.021,-4.334 2.15,-3.171c3.031,1.12 3.3,0.835 1.397,-1.533c-3.095,-3.858 -5.686,-24.957 -2.848,-23.234c1.15,0.709 2.096,0.254 2.096,-0.993c-0,-1.248 1.064,-1.618 2.364,-0.835c1.634,0.993 2,-0.074 1.183,-3.425c-2.72,-11.152 -3.859,-24.037 -2.515,-28.223c1.365,-4.218 2.235,-4.398 14.865,-3.066c12.769,1.343 13.693,1.142 19.39,-4.228c3.289,-3.097 5.986,-6.247 5.986,-6.997c0,-0.751 -5.632,-4.324 -12.5,-7.928c-7.008,-3.668 -13.263,-8.51 -14.231,-11.015c-2.171,-5.613 -6.459,-9.143 -13.897,-11.469Z"/></svg>