<?xml version="1.0" encoding="UTF-8" standalone="no"?><!DOCTYPE svg PUBLIC "-//W3C//DTD SVG 1.1//EN" "http://www.w3.org/Graphics/SVG/1.1/DTD/svg11.dtd"><svg width="100%" height="100%" viewBox="0 0 308 237" version="1.1" xmlns="http://www.w3.org/2000/svg" xmlns:xlink="http://www.w3.org/1999/xlink" xml:space="preserve" xmlns:serif="http://www.serif.com/" style="fill-rule:evenodd;clip-rule:evenodd;stroke-linejoin:round;stroke-miterlimit:2;"><path id="L09-WOLF-SHEPERD" serif:id="L09-WOLF/SHEPERD" d="M265.985,2.827c0.653,1.374 0.937,6.375 0.741,13.07l-0.319,10.853l4.361,2.951c6.104,4.136 10.132,8.614 10.76,11.978c0.942,5.057 1.82,5.934 12.417,12.397c11.589,7.07 13.438,8.559 13.438,10.803c0,2.802 -6.662,10.754 -10.97,13.098c-3.964,2.156 -4.749,2.222 -12.471,1.108c-4.534,-0.65 -9.165,-1.185 -10.298,-1.185c-3.111,-0 -5.5,3.397 -6.226,8.856c-0.363,2.703 -1.055,4.909 -1.541,4.909c-0.486,-0 -0.883,1.456 -0.883,3.237c-0,1.891 -0.393,2.967 -0.942,2.586c-0.569,-0.397 -0.942,1.048 -0.942,3.645c-0,3.111 -4.725,12.778 -4.739,14.091c-0.015,1.312 -0.653,3.308 -1.413,4.439c-0.761,1.131 -6.427,15.463 -7.399,15.099c-0.51,-0.187 -2.011,2.068 -3.341,5.013c-1.33,2.951 -2.841,5.361 -3.361,5.366c-0.52,0 -3.728,3.099 -7.138,6.883c-6.82,7.571 -10.563,15.932 -14.145,31.572c-2.036,8.889 -3.925,27.557 -3.198,31.555l0.922,5.04c0.348,1.892 1.29,2.703 3.729,3.216c5.195,1.097 9.626,8.829 6.844,11.956c-1.08,1.213 -3.646,1.549 -11.127,1.444c-10.99,-0.148 -13.046,-1.301 -15.057,-8.443c-0.589,-2.101 -1.747,-5.007 -2.571,-6.463c-1.065,-1.88 -1.973,-8.923 -3.145,-24.326c-0.903,-11.928 -1.884,-22.764 -2.183,-24.088c-0.643,-2.879 -3.459,-3.105 -13.836,-1.103c-4.337,0.833 -6.883,0.932 -7.079,0.265c-0.172,-0.585 -2.792,-0.883 -5.961,-0.684c-3.68,0.232 -5.652,-0.05 -5.652,-0.805c-0,-0.767 -1.291,-0.938 -3.763,-0.491c-2.429,0.436 -4.259,0.21 -5.171,-0.634c-0.815,-0.761 -2.409,-1.026 -3.808,-0.634c-1.506,0.424 -3.954,-0.089 -6.554,-1.385c-2.556,-1.268 -4.273,-1.637 -4.475,-0.959c-0.191,0.645 -2.345,-0.044 -5.161,-1.649c-2.659,-1.517 -4.975,-2.327 -5.142,-1.803c-0.171,0.529 -1.79,0.22 -3.606,-0.684c-1.815,-0.899 -4.145,-1.804 -5.181,-2.002l-5.18,-1.009c-3.268,-0.64 -3.346,-0.563 -9.229,8.978c-9.317,15.127 -15.724,19.974 -33.955,25.682c-5.392,1.687 -11.393,3.982 -13.34,5.101c-7.521,4.313 -11.334,11.123 -11.26,20.112c0.029,3 0.608,4.114 3.037,5.829c3.209,2.267 5.122,6.591 4.16,9.403c-0.485,1.423 -2.222,1.71 -10.357,1.71c-13.516,-0 -13.354,0.231 -13.359,-19.561l-0.005,-15.116l-2.355,1.059c-6.113,2.746 -28.259,-1.296 -28.259,-5.162c-0,-2.873 6.26,-8.78 13.187,-12.43c7.158,-3.772 10.362,-6.094 10.362,-7.511c0,-0.431 2.12,-2.923 4.71,-5.537c2.591,-2.62 4.71,-5.289 4.71,-5.934c0,-0.64 1.894,-5.294 4.214,-10.34c2.321,-5.041 4.019,-9.392 3.778,-9.662c-0.554,-0.623 5.372,-17.217 9.17,-25.677c5.259,-11.713 17.677,-22.836 31.443,-28.169c10.941,-4.241 20.489,-5.388 52.187,-6.287c28.75,-0.822 31.189,-1.042 40.035,-3.673c9.949,-2.956 21.194,-8.25 21.194,-9.976c0,-0.563 1.982,-1.875 4.401,-2.917c2.419,-1.037 5.706,-3.215 7.3,-4.831c1.595,-1.622 3.538,-3.59 4.313,-4.379c0.775,-0.789 5.166,-6.204 9.753,-12.033c4.725,-6.017 10.269,-11.873 12.796,-13.533c4.145,-2.719 4.916,-3.96 10.945,-17.631c7.615,-17.261 8.988,-18.276 10.936,-8.107l1.266,6.596l3.581,-7.655c1.968,-4.207 3.749,-7.654 3.965,-7.654c0.211,-0 0.863,0.998 1.442,2.222"/></svg>