<?xml version="1.0" encoding="UTF-8" standalone="no"?><!DOCTYPE svg PUBLIC "-//W3C//DTD SVG 1.1//EN" "http://www.w3.org/Graphics/SVG/1.1/DTD/svg11.dtd"><svg width="100%" height="100%" viewBox="0 0 308 218" version="1.1" xmlns="http://www.w3.org/2000/svg" xmlns:xlink="http://www.w3.org/1999/xlink" xml:space="preserve" xmlns:serif="http://www.serif.com/" style="fill-rule:evenodd;clip-rule:evenodd;stroke-linejoin:round;stroke-miterlimit:2;"><path id="L10-LABRADOR" d="M265.36,1.445c10.732,1.9 19.135,8.916 19.135,15.976c0,4.023 2.816,6.3 12.323,9.961c4.28,1.649 8.572,3.722 9.538,4.605c3.695,3.383 -1.917,15.618 -9.203,20.059c-3.424,2.088 -6.565,2.582 -16.549,2.603c-6.777,0.013 -13.075,0.502 -13.998,1.087c-0.921,0.585 -4.043,6.555 -6.936,13.269c-4.194,9.724 -5.493,14.647 -6.4,24.218c-1.366,14.449 -4.445,22.179 -13.697,34.391c-6.079,8.024 -7.126,10.403 -10.029,22.791c-3.8,16.208 -6.515,40.082 -5.345,47.002c0.639,3.787 1.665,5.206 4.667,6.449c4.205,1.742 6.341,4.762 6.341,8.966c0,3.829 -5.56,5.624 -14.902,4.811c-9.401,-0.818 -12.675,-3.882 -14.816,-13.867c-0.785,-3.661 -2.332,-7.562 -3.44,-8.668c-1.106,-1.108 -1.689,-2.854 -1.296,-3.88c0.394,-1.027 -0.432,-9.56 -1.837,-18.964c-1.404,-9.404 -2.714,-18.8 -2.911,-20.879c-0.351,-3.703 -0.698,-3.869 -16.705,-7.99c-8.992,-2.315 -21.082,-5.704 -26.868,-7.533c-14.629,-4.622 -25.619,-6.239 -31.543,-4.644c-3.784,1.019 -6.206,3.191 -11.457,10.274c-8.168,11.019 -12.31,14.718 -25.451,22.73c-21.867,13.331 -24.271,16.016 -26.399,29.481c-0.986,6.234 -0.867,6.607 3.344,10.438c4.913,4.471 5.696,9.237 1.857,11.293c-1.38,0.738 -5.785,1.343 -9.788,1.343c-5.997,-0 -7.838,-0.561 -10.46,-3.185c-3.58,-3.578 -3.727,-5.827 -2.051,-31.534l0.952,-14.613l6.066,-6.158c7.294,-7.406 9.321,-13.038 11.306,-31.414c1.742,-16.125 3.295,-22.92 7.341,-32.102l3.001,-6.81l-8.914,0c-11.866,0 -20.021,-2.836 -35.233,-12.254c-6.973,-4.318 -15.352,-9.44 -18.62,-11.385c-3.27,-1.944 -5.945,-4.062 -5.945,-4.707c0,-0.644 1.644,-1.852 3.654,-2.685c4.68,-1.939 11.846,-0.393 29.359,6.331c7.168,2.753 15.368,5.763 18.221,6.691c7.706,2.503 24.179,1.944 39.561,-1.344c9.407,-2.012 21.44,-3.27 38.912,-4.07c35.38,-1.623 44.008,-3.09 61.929,-10.527c11.193,-4.646 16.323,-9.928 25.245,-25.992c7.074,-12.739 16.228,-23.468 22.944,-26.893c5.772,-2.945 16.873,-4.126 25.097,-2.671"/></svg>