<?xml version="1.0" encoding="UTF-8" standalone="no"?><!DOCTYPE svg PUBLIC "-//W3C//DTD SVG 1.1//EN" "http://www.w3.org/Graphics/SVG/1.1/DTD/svg11.dtd"><svg width="100%" height="100%" viewBox="0 0 308 237" version="1.1" xmlns="http://www.w3.org/2000/svg" xmlns:xlink="http://www.w3.org/1999/xlink" xml:space="preserve" xmlns:serif="http://www.serif.com/" style="fill-rule:evenodd;clip-rule:evenodd;stroke-linejoin:round;stroke-miterlimit:2;"><path id="L11-HEKTHOR" d="M47.297,118.814c-23.363,1.458 -15.293,48.551 -43.935,75.099c-6.17,5.006 1.066,-26.799 1.066,-26.799c0,0 6.823,-13.306 11.168,-28.114c9.447,-28.303 36.264,-49.647 43.292,-53.779c13.244,-7.775 101.789,-16.709 117.226,-19.055c7.428,-1.121 17.864,-9.365 26.093,-18.434c9.334,-10.26 29.345,-40.729 33.228,-41.846c8.444,-2.424 21.89,-5.783 25.338,-5.481c6.129,0.528 5.906,2.284 6.333,8.132c0.425,5.386 7.184,13.644 7.309,13.913c2.68,5.15 26.581,10.37 32.682,14.081c3.47,2.113 -4.503,12.483 -7.051,14.559c-3.514,2.864 -29.24,4.606 -32.559,4.891c-4.382,0.368 -4.965,0.133 -6.183,2.048c-14.972,23.613 -14.738,46.518 -22.44,65.293c-1.864,4.542 -10.75,16.632 -18.794,23.12l-0.487,0.74c0,0 -3.779,5.61 -5.48,12.27c-2.911,11.453 -4.768,20.431 -5.641,34.115c-0.696,10.915 -0.604,19.554 6.3,27.671c0.705,0.852 2.004,1.511 3.117,1.661c6.909,0.926 6.845,3.461 8.655,10.276c0.574,2.117 -0.199,2.739 -2.069,2.838c-5.132,0.231 -10.279,0.697 -15.401,0.57c-1.908,-0.055 -4.19,-1.108 -5.542,-2.454c-2.063,-2.054 -3.407,-4.824 -5.237,-7.149c-0.601,-0.789 -3.928,-21.594 -4.343,-25.433c-1.648,-15.397 -3.308,-21.375 -4.831,-36.788c-0.185,-1.772 0.507,-8.375 -0.309,-10.513c-31.777,6.392 -81.369,-25.79 -81.163,-24.55c2.521,14.477 -57.958,56.996 -65.865,65.47c-0.833,0.898 -1.759,2.128 -1.811,3.243c-0.358,7.27 -0.667,14.56 -0.592,21.841c0.029,2.511 1.57,4.177 4.662,4.657c4.986,0.779 7.262,3.478 7.444,7.433c0.105,2.239 -0.65,3.741 -3.156,3.838c-3.425,0.134 -6.766,0.457 -10.194,0.427c-5.606,-0.054 -6.714,-0.94 -8.653,-6.299c-0.502,-1.389 -0.93,-2.815 -1.231,-4.262c-1.358,-6.424 -2.246,-12.985 -4.081,-19.274c-2.101,-7.216 -1.659,-13.247 4.32,-18.658c3.122,-2.818 5.428,-6.604 5.515,-11.161c0.191,-10.479 0.463,-50.936 13.3,-58.112l0,-0.025Z" style="fill-rule:nonzero;"/></svg>