<?xml version="1.0" encoding="UTF-8" standalone="no"?><!DOCTYPE svg PUBLIC "-//W3C//DTD SVG 1.1//EN" "http://www.w3.org/Graphics/SVG/1.1/DTD/svg11.dtd"><svg width="100%" height="100%" viewBox="0 0 308 226" version="1.1" xmlns="http://www.w3.org/2000/svg" xmlns:xlink="http://www.w3.org/1999/xlink" xml:space="preserve" xmlns:serif="http://www.serif.com/" style="fill-rule:evenodd;clip-rule:evenodd;stroke-linejoin:round;stroke-miterlimit:2;"><path id="L12-RETRIEVER" d="M46.817,225.551c2.656,-3.86 1.067,-10.495 -3.13,-12.093c-5.957,-2.268 -3.381,-5.235 -3.342,-12.911c0.049,-9.673 7.862,-8.42 10.786,-17.391c0.494,-1.512 45.195,-25.062 48.73,-32.638c2.116,-4.538 6.45,-0.909 14.68,0c12.642,1.397 26.263,4.737 30.338,10.473c4.076,5.736 41.399,5.063 43.527,13.092c2.754,10.407 8.529,19.838 8.588,30.664c0.029,5.834 6.825,4.479 7.655,10.275c0.558,3.896 2.246,7.544 5.74,8.93c4.704,1.866 12.079,1.701 17.018,1.599c3.247,-0.071 7.231,-0.585 6.61,-4.17c-0.174,-0.997 -0.358,-1.999 -0.599,-2.978c-0.703,-2.846 -5.24,-5.582 -7.998,-5.978c-3.185,-0.451 -3.558,-8.145 -3.517,-11.878c0.071,-6.385 1.716,-11.068 1.137,-17.391c-0.728,-7.971 6.793,-12.27 8.232,-19.959c0.17,-0.911 0.515,-1.793 0.624,-2.709c0.56,-4.619 2.232,-7.954 6.576,-9.97c2.531,-1.176 4.514,-4.11 6.383,-6.579c4.921,-6.506 6.809,-15.764 7.27,-15.235c2.909,3.338 14.644,-16.471 16.975,-36.573c0.696,-5.999 -2.032,-12.038 -2.839,-17.479c-0.514,-3.462 4.635,-7.034 5.377,-10.285c1.044,-4.571 -1.956,-8.446 -0.872,-9.963c2.866,-4.011 19.166,-2.614 23.645,-3.247c7.701,-1.091 11.743,-14.793 12.33,-16.894c0.229,-0.817 0.677,-7.881 0,-8.309c-1.354,-0.857 -18.483,-5.885 -22.915,-6.048c-3.283,-0.12 -2.387,-7.417 -2.837,-8.213c-2.083,-3.674 -7.987,-8.627 -11.889,-9.341c-3.302,-0.604 -6.634,-1.397 -9.956,-1.425c-6.458,-0.056 -21.306,2.116 -25.726,8.134c-3.271,4.457 -4.396,6.714 -7.998,10.845c-6.037,6.921 -8.839,16.582 -15.031,23.345c-1.605,1.75 -7.394,9.411 -9.009,11.153c-4.575,4.933 -44.545,17.531 -55.589,15.92c-8.533,-1.245 -61.564,-0.045 -69.951,1.896c-31.391,7.265 -21.573,9.741 -32.781,14.434c-44.412,18.598 -43.781,101.764 -42.764,101.883c17.336,2.021 25.031,-48.382 37.809,-65.81c2.558,-3.487 -0.385,14.657 -2.049,15.716c-1.21,0.772 -1.909,25.302 -2.387,26.814c-0.65,2.052 -1.02,4.335 -0.969,6.502c0.141,5.972 -7.476,5.437 -7.564,11.397c-0.158,10.756 -0.691,21.509 -1.209,32.255c-0.13,2.711 0.565,4.855 2.728,5.97c2.218,1.14 4.614,1.994 7.014,2.571c3.089,0.745 6.257,1.085 9.391,1.599l3.758,-0Z" style="fill-rule:nonzero;"/></svg>