<?xml version="1.0" encoding="UTF-8" standalone="no"?><!DOCTYPE svg PUBLIC "-//W3C//DTD SVG 1.1//EN" "http://www.w3.org/Graphics/SVG/1.1/DTD/svg11.dtd"><svg width="100%" height="100%" viewBox="0 0 308 223" version="1.1" xmlns="http://www.w3.org/2000/svg" xmlns:xlink="http://www.w3.org/1999/xlink" xml:space="preserve" xmlns:serif="http://www.serif.com/" style="fill-rule:evenodd;clip-rule:evenodd;stroke-linejoin:round;stroke-miterlimit:2;"><path id="L13-COLIE" d="M270.503,1.197c-1.697,-1.697 -12.211,0.702 -17.195,3.921c-3.247,2.106 -4.837,2.262 -6.456,0.643c-3.433,-3.433 -10.309,-2.496 -13.332,1.805c-1.521,2.184 -5.315,5.51 -8.417,7.392c-3.101,1.892 -9.001,8.739 -13.107,15.234c-12.045,19.038 -15.312,22.334 -28.059,28.303c-11.889,5.559 -12.806,5.686 -52.539,7.051c-32.808,1.141 -42.727,2.126 -52.606,5.237c-28.235,8.914 -41.167,23.173 -47.916,52.821c-2.867,12.601 -3.998,14.591 -13.654,23.963c-15.078,14.629 -17.048,18.15 -17.067,30.497c-0.01,11.684 1.356,17.077 3.93,15.488c0.927,-0.576 1.678,-0.264 1.678,0.682c-0,3.072 17.135,-0.029 23.602,-4.262c2.467,-1.619 4.535,-2.711 4.583,-2.428c0.059,0.273 0.8,7.139 1.649,15.234c0.946,8.982 2.545,15.37 4.115,16.355c3.365,2.136 17.965,2.156 19.282,0.039c0.565,-0.917 -0.654,-3.784 -2.702,-6.388c-4.369,-5.549 -4.779,-12.269 -1.063,-17.35c2.41,-3.29 27.844,-10.494 46.033,-18.326c8.778,-3.774 21.388,-15.77 24.207,-23.016c1.726,-4.438 3.169,-5.647 5.89,-4.935c1.99,0.517 3.609,1.736 3.609,2.711c-0,0.966 0.751,1.297 1.677,0.722c0.917,-0.566 2.175,0.283 2.79,1.882c0.624,1.609 1.882,2.448 2.809,1.873c0.936,-0.576 2.194,0.273 2.808,1.872c0.625,1.609 1.912,2.429 2.887,1.834c0.966,-0.595 3.072,0.799 4.691,3.111c1.97,2.809 2.955,3.277 2.994,1.433c0.049,-2.106 0.683,-1.94 2.682,0.703c1.444,1.911 3.531,2.916 4.623,2.233c1.132,-0.702 2.009,0.234 2.029,2.155c0.019,2.448 0.448,2.721 1.541,0.995c1.151,-1.814 2.74,-1.268 6.524,2.253c2.76,2.555 5.013,3.891 5.013,2.975c0,-0.917 1.736,-1.541 3.862,-1.375c2.712,0.204 3.599,1.277 2.975,3.628c-0.517,1.999 -0.088,2.857 1.083,2.135c1.248,-0.77 1.638,0.868 1.092,4.584c-0.458,3.18 -0.156,5.355 0.692,4.838c0.839,-0.527 1.541,0.994 1.561,3.374c0.019,3.472 0.38,3.775 1.843,1.512c1.414,-2.185 1.824,-1.629 1.843,2.448c0.02,3.023 0.829,4.769 1.902,4.106c1.034,-0.634 1.873,0.205 1.873,1.872c-0,1.668 0.838,2.507 1.872,1.873c1.034,-0.634 1.873,0.205 1.873,1.872c-0,1.668 0.839,2.517 1.853,1.883c1.024,-0.634 3.257,1.784 4.964,5.364c3.277,6.875 6.876,8.641 17.526,8.582c12.103,-0.068 14.102,-10.923 3.823,-13.615c-5.042,-1.316 -6.252,-8.924 -3.823,-24.109c1.999,-12.483 6.203,-20.529 9.636,-18.413c0.907,0.566 9.869,-1.853 13.02,-4.496c3.14,-2.653 6.866,-4.818 8.28,-4.818c1.404,0 3.735,-1.677 5.169,-3.735c1.443,-2.048 3.111,-3.238 3.715,-2.633c1.405,1.404 6.993,-9.305 6.993,-13.401c0,-1.911 1.024,-2.711 2.653,-2.087c2.828,1.083 4.837,-2.35 4.837,-8.261c0,-1.97 1.054,-3.384 2.341,-3.12c1.512,0.302 2.546,-2.361 2.916,-7.53c0.371,-5.149 1.307,-7.558 2.604,-6.758c1.405,0.868 1.58,-0.976 0.585,-6.037c-0.79,-4.009 -1.745,-9.402 -2.136,-11.977c-1.267,-8.465 -1.804,-10.24 -4.817,-15.916c-1.639,-3.092 -3.277,-8.144 -3.638,-11.236c-0.654,-5.49 -0.478,-5.617 7.763,-5.754c4.633,-0.068 9.743,-0.283 11.352,-0.468c3.784,-0.429 11.118,-7.275 11.118,-10.377c0,-1.326 -5.1,-4.759 -11.323,-7.636c-9.245,-4.262 -11.527,-6.223 -12.415,-10.641c-1.024,-5.159 -16.19,-20.363 -14.649,-20.363c2.751,-0 3.931,-5.745 1.649,-8.027Z"/></svg>