<?xml version="1.0" encoding="UTF-8" standalone="no"?><!DOCTYPE svg PUBLIC "-//W3C//DTD SVG 1.1//EN" "http://www.w3.org/Graphics/SVG/1.1/DTD/svg11.dtd"><svg width="100%" height="100%" viewBox="0 0 308 237" version="1.1" xmlns="http://www.w3.org/2000/svg" xmlns:xlink="http://www.w3.org/1999/xlink" xml:space="preserve" xmlns:serif="http://www.serif.com/" style="fill-rule:evenodd;clip-rule:evenodd;stroke-linejoin:round;stroke-miterlimit:2;"><path id="L14-KOMONDOR" d="M272.249,1.251c7.743,2.028 17.272,9.518 17.272,13.573c-0,0.779 0.665,2.016 1.48,2.756c0.815,0.74 1.986,3.191 2.605,5.451c0.862,3.146 2.59,5.281 7.434,9.178c6.867,5.518 7.909,8.399 4.328,11.946c-1.088,1.079 -1.981,2.841 -1.981,3.909c0,3.434 -2.811,13.917 -4.405,16.402c-0.846,1.322 -1.538,3.53 -1.538,4.908c0,1.378 -0.619,2.762 -1.372,3.078c-0.758,0.322 -1.64,2.011 -1.96,3.762c-0.629,3.445 -2.425,1.045 -3.111,2.915c-1.063,2.897 -5.809,2.44 -6.335,2.44c-0.526,-0 -2.683,-3.395 -3.064,1.626c-0.341,4.406 -0.898,6.417 -1.739,6.236c-0.903,-0.198 -1.238,1.92 -1.238,7.806c0,5.97 -0.382,8.314 -1.45,8.969c-1.114,0.683 -7.175,19.3 -6.99,28.597c0.351,17.65 -12.03,26.902 -12.845,38.402c-0.568,7.947 -1.434,14.098 -1.991,14.098c-0.547,-0 -4.416,3.462 -4.416,3.462c-0.021,7.868 -0.454,14.584 -0.965,14.928c-1.151,0.78 -5.902,-5.185 -5.422,4.281c0.598,11.845 0.49,13.658 -0.815,13.658c-1.914,-0 -6.784,6.518 -9.224,4.298c-1.192,-1.079 -1.955,3.349 -3.178,3.101c-1.14,-0.232 -2.734,3.084 -5.133,4.49c-2.512,1.469 -20.29,1.441 -25.17,-0.045c-3.369,-1.022 -9.848,-1.051 -10.188,-0.678c-1.043,1.141 -20.569,-3.084 -21.895,-4.919c-0.541,-0.752 -18.901,-9.856 -19.773,-6.247c-0.506,2.09 -17.303,-1.102 -17.571,-0.328c-0.748,2.141 -32.583,4.643 -34.1,0.147c-0.469,-1.389 -22.761,8.856 -23.612,8.856c-1.274,0 -7.836,1.283 -9.673,2.791c-1.078,0.875 -2.564,1.338 -3.301,1.028c-0.743,-0.311 -4.055,-0.565 -7.367,-0.565l-6.015,-0c-0,-0 -9.9,1.073 -11.179,-0.091c-0.841,-0.762 -13.274,-2.05 -13.274,-4.789c-0,-0.893 0.521,-1.627 1.155,-1.627c0.635,0 0.924,-0.254 0.64,-0.559c-0.278,-0.311 -1.8,0.175 -3.379,1.073c-3.719,2.124 -5.726,2.124 -4.983,0.006c0.469,-1.333 0.216,-1.441 -1.316,-0.543c-2.956,1.734 -7.299,1.424 -6.634,-0.474c0.454,-1.288 0.083,-1.384 -2.038,-0.503c-3.1,1.294 -5.736,-0.559 -3.245,-2.282c1.182,-0.819 1.027,-1.028 -0.753,-1.039c-1.222,-0.011 -2.228,-0.474 -2.228,-1.028c-0,-1.214 6.969,-7.433 12.133,-10.822c3.807,-2.502 4.87,-3.767 2.229,-2.654c-2.936,1.231 -1.373,-1.316 5.695,-9.28c3.952,-4.451 6.402,-7.456 5.448,-6.671c-2.967,2.435 -2.115,-0.734 2.393,-8.901c3.003,-5.44 3.797,-7.705 2.91,-8.303c-0.898,-0.61 -0.129,-3.355 2.93,-10.483c2.476,-5.761 4.086,-11.031 3.998,-13.081c-0.082,-1.881 0.908,-6.518 2.198,-10.303c1.295,-3.778 2.636,-9.235 2.992,-12.121c1.3,-10.635 13.759,-34.832 22.266,-43.242c2.213,-2.192 5.499,-4.818 7.299,-5.835c1.806,-1.017 4.623,-2.96 6.258,-4.321c7.924,-6.597 18.814,-8.24 57.185,-8.625l31.433,-0.321l9.178,-3.531c5.045,-1.943 10.957,-5.072 13.134,-6.964c2.177,-1.886 5.979,-4.71 8.44,-6.281c2.466,-1.564 9.043,-8.11 14.62,-14.549c18.52,-21.362 24.386,-27.354 29.988,-30.619c9.694,-5.66 20.775,-7.761 29.225,-5.547"/></svg>