<?xml version="1.0" encoding="UTF-8" standalone="no"?><!DOCTYPE svg PUBLIC "-//W3C//DTD SVG 1.1//EN" "http://www.w3.org/Graphics/SVG/1.1/DTD/svg11.dtd"><svg width="100%" height="100%" viewBox="0 0 296 237" version="1.1" xmlns="http://www.w3.org/2000/svg" xmlns:xlink="http://www.w3.org/1999/xlink" xml:space="preserve" xmlns:serif="http://www.serif.com/" style="fill-rule:evenodd;clip-rule:evenodd;stroke-linejoin:round;stroke-miterlimit:2;"><path id="L15-BEARDED-COLIE" serif:id="L15-BEARDED COLIE" d="M62.255,236.582l-52.627,-0c-1.353,-1.725 -2.708,-3.453 -3.938,-5.269c-1.024,-1.51 -2.031,-3.047 -2.813,-4.696c-3.337,-7.033 -3.573,-16.516 0.47,-23.413c1.725,-2.942 4.132,-5.427 6.138,-8.185c1.026,-1.411 2.11,-2.793 2.954,-4.319c1.076,-1.945 -5.23,-2.993 -6.276,-3.981c-3.91,-3.692 -4.508,-6.919 -5.49,-12.358c-0.319,-1.768 1.051,-1.693 2.214,-1.794c2.421,-0.211 4.863,-0.169 7.275,-0.462c7.052,-0.857 8.287,-1.043 12.73,-8.299c4.274,-6.979 4.969,-19.858 6.251,-26.566c2.446,-12.791 5.135,-22.18 13.864,-31.742c18.86,-20.658 48.114,-28.014 75.006,-29.496c20.613,-1.136 20.55,-0.496 41.176,-2.765c8.699,-0.956 18.879,-2.144 26.763,-6.278c5.942,-3.116 11.999,-6.642 15.229,-12.754c1.946,-3.681 8.288,-16.768 9.615,-19.602c1.69,-3.608 0.408,-9.848 0.68,-12.896c0.269,-3.008 5.846,-8.661 7.485,-10.053c3.622,-3.076 22.206,-11.456 26.279,-11.265c2.787,0.131 21.398,-0.287 28.251,6.073c4.188,3.887 7.579,10.087 10.208,14.771c1.775,3.163 -2.755,5.401 0.124,8.853c2.533,3.037 6.935,4.076 9.542,7.05c1.928,2.201 3.412,20.597 1.01,26.46c-3.624,8.846 -18.074,12.407 -20.327,12.666c-2.782,0.319 -9.75,-2.694 -10.707,1.868c-0.648,3.091 3.3,17.931 3.898,21.112c0.732,3.891 3.457,7.621 6.252,19.238c5.201,21.615 -3.547,47.541 -5.481,48.886c-1.086,0.756 -6.794,3.772 -7.6,4.455c-3.266,2.768 -7.157,6.949 -8.581,10.973c-1.176,3.326 -1.9,15.306 -1.977,18.925c-0.058,2.723 -0.782,8.564 1.054,11.869c2.199,3.958 8.647,5.152 8.475,10.098c-0.086,2.474 -1.721,8.346 -3.076,9.711c-1.429,1.439 -3.747,1.565 -5.68,2.176c-1.459,0.461 -2.969,0.748 -4.473,1.034l-37.191,-0c-0.725,-0.884 -1.457,-1.775 -2.32,-2.524c-0.916,-0.796 -1.907,-1.525 -2.985,-2.083c-0.608,-0.315 -9.27,-3.532 -9.369,-3.721c-1.478,-2.811 -0.851,-6.305 -0.967,-9.478c-0.32,-8.799 0.521,-17.612 0.259,-26.413c-0.049,-1.619 -0.046,-9.475 -2.408,-11.712c-1.613,-1.529 -2.935,-1.415 -4.62,-1.528c-5.386,-0.362 -10.764,-1.333 -16.157,-1.094c-3.566,0.157 -6.903,2.032 -10.465,2.271c-4.727,0.316 -9.466,-0.826 -14.199,-0.62c-7.149,0.311 -14.201,2.13 -21.356,2.167c-2.566,0.013 -4.876,-1.76 -7.429,-2.017c-8.026,-0.81 -12.858,1.655 -19.135,5.944c-8.971,6.129 -9.829,9.078 -21.222,18.623c-3.421,2.866 -7.097,5.43 -10.868,7.815c-2.554,1.615 -5.757,2.195 -8.058,4.153c-0.758,0.645 -0.442,1.984 -0.314,2.972c0.543,4.2 6.776,6.838 8.433,10.644c1.176,2.702 -0.589,4.383 -2.275,5.863c-0.36,0.317 -0.812,0.518 -1.251,0.713Z" style="fill-rule:nonzero;"/></svg>