<?xml version="1.0" encoding="UTF-8" standalone="no"?><!DOCTYPE svg PUBLIC "-//W3C//DTD SVG 1.1//EN" "http://www.w3.org/Graphics/SVG/1.1/DTD/svg11.dtd"><svg width="100%" height="100%" viewBox="0 0 308 229" version="1.1" xmlns="http://www.w3.org/2000/svg" xmlns:xlink="http://www.w3.org/1999/xlink" xml:space="preserve" xmlns:serif="http://www.serif.com/" style="fill-rule:evenodd;clip-rule:evenodd;stroke-linejoin:round;stroke-miterlimit:2;"><path id="L16-RITCHBACK" d="M270.891,3.142c-17.843,-6.003 -25.991,-3.19 -40.983,14.189c-6.215,7.201 -13.222,16.103 -15.561,19.766c-6.998,10.97 -12.189,14.44 -30.64,20.501l-17.582,5.77l-43.66,-0.522c0,0 -34.446,-1.326 -43.65,-0.522c-4.232,0.37 -11.569,5.345 -11.569,5.345c-19.651,9.076 -33.898,28.727 -33.898,46.743c0,7.53 -5.992,22.734 -11.666,29.625c-3.093,3.751 -9.385,8.438 -13.986,10.401c-6.235,2.677 -7.829,4.127 -6.264,5.693c3.122,3.112 15.746,-1.189 23.517,-8.013c7.781,-6.824 15.136,-21.613 16.982,-34.12c1.363,-9.269 1.363,-9.279 2.707,-2.977c1.672,7.849 -0.619,24.812 -4.678,34.574c-1.682,4.06 -7.134,11.55 -12.102,16.654l-9.037,9.279l-1.315,23.661c-0.976,17.766 -0.734,24.367 0.996,26.445c2.938,3.548 17.33,3.712 20.22,0.232c2.774,-3.334 0.822,-8.138 -3.924,-9.636c-3.392,-1.083 -3.682,-2.31 -2.803,-12.015c1.373,-15.165 6.66,-23.255 22.966,-35.182c17.649,-12.904 30.485,-26.416 36.642,-38.566c4.707,-9.299 5.801,-16.47 11.6,-16.055c11.645,0.835 35.559,9.434 52.367,17.379c13.145,6.215 23.768,9.927 31.007,10.826l11.01,1.372l1.246,11.299c0.687,6.205 1.586,19.718 2.001,30.031c0.406,10.313 1.682,19.873 2.832,21.255c1.141,1.372 2.89,6.138 3.895,10.593c0.996,4.447 2.919,8.777 4.273,9.637c3.731,2.368 17.108,1.914 20.694,-0.706c2.909,-2.126 2.928,-2.667 0.251,-6.495c-1.614,-2.3 -4.04,-4.175 -5.403,-4.175c-3.712,-0 -4.736,-4.369 -4.736,-20.24c-0,-19.235 4.891,-47.545 9.878,-57.134c3.354,-6.418 6.747,-12.816 10.178,-19.186c4.224,-7.848 6.669,-15.542 7.829,-24.696c3.141,-24.666 11.261,-47.564 16.896,-47.603c1.652,-0.009 5.934,1.199 9.491,2.687c12.807,5.345 27.451,-1.488 30.225,-14.112c1.449,-6.572 2.513,-5.441 -10.865,-11.473c-5.944,-2.687 -10.313,-5.673 -9.713,-6.64c1.894,-3.074 -7.008,-10.97 -15.668,-13.889Z"/></svg>