<?xml version="1.0" encoding="UTF-8" standalone="no"?><!DOCTYPE svg PUBLIC "-//W3C//DTD SVG 1.1//EN" "http://www.w3.org/Graphics/SVG/1.1/DTD/svg11.dtd"><svg width="100%" height="100%" viewBox="0 0 308 237" version="1.1" xmlns="http://www.w3.org/2000/svg" xmlns:xlink="http://www.w3.org/1999/xlink" xml:space="preserve" xmlns:serif="http://www.serif.com/" style="fill-rule:evenodd;clip-rule:evenodd;stroke-linejoin:round;stroke-miterlimit:2;"><path id="L17-ROTVEILER" d="M267.043,1.438c6.414,1.397 8.94,2.769 13.094,7.105c3.53,3.683 5.148,6.571 5.148,9.186c0,2.097 0.844,4.494 1.874,5.327c1.374,1.11 13.865,3.923 17.889,4.028c0.158,0.004 0.882,1.088 1.608,2.41c1.417,2.578 -0.768,14.186 -3.647,19.374c-2.555,4.602 -13.197,8.775 -24.376,9.559l-10.009,0.701l-1.608,7.846c-2.147,10.475 -5.293,19.645 -8.461,24.656c-1.427,2.26 -3.246,8.682 -4.04,14.268c-1.784,12.568 -5.734,20.355 -16.504,32.538c-7.595,8.592 -8.627,10.514 -12.123,22.575c-2.411,8.315 -4.38,19.464 -5.332,30.183c-1.774,19.983 -0.61,29.764 3.632,30.521c5.953,1.063 10.475,8.996 7.271,12.755c-2.212,2.593 -22.435,2.542 -26.262,-0.068c-1.631,-1.112 -3.721,-5.129 -5.029,-9.671c-1.232,-4.271 -3.132,-8.488 -4.224,-9.371c-1.274,-1.03 -1.986,-3.997 -1.993,-8.307c-0.004,-3.689 -1.209,-13.472 -2.676,-21.743c-1.468,-8.27 -2.673,-16.923 -2.677,-19.228c-0.008,-3.824 -0.449,-4.26 -5.046,-4.996c-13.039,-2.088 -32.017,-7.388 -46.676,-13.033c-12.019,-4.629 -18.528,-6.37 -25.635,-6.861c-12.454,-0.859 -17.233,1.363 -26.283,12.224c-9.447,11.336 -21.28,20.752 -38.446,30.595c-17.018,9.756 -21.266,13.255 -24.596,20.259c-3.057,6.429 -3.457,17.653 -0.63,17.653c2.487,-0 7.484,6.198 7.484,9.284c0,4.596 -8.888,6.341 -21.75,4.272c-6.873,-1.107 -7.538,-3.854 -6.743,-27.825l0.669,-20.152l7.334,-7.768c11.201,-11.862 13.438,-17.805 15.151,-40.234c1.673,-21.913 3.914,-32.608 8.799,-41.994c3.46,-6.646 3.47,-6.759 1.127,-11.819c-2.324,-5.015 -2.313,-5.163 0.536,-7.936c2.617,-2.549 3.451,-2.685 8.487,-1.376c4.854,1.262 6.687,1.049 14.003,-1.633c11.114,-4.073 24.021,-5.488 64.383,-7.06c18.785,-0.73 37.421,-2.128 42.305,-3.174c21.483,-4.599 32.494,-11.604 40.115,-25.523c4.91,-8.971 14.604,-21.8 21.881,-28.959c8.483,-8.345 26.338,-11.999 41.976,-8.588"/></svg>