<?xml version="1.0" encoding="UTF-8" standalone="no"?><!DOCTYPE svg PUBLIC "-//W3C//DTD SVG 1.1//EN" "http://www.w3.org/Graphics/SVG/1.1/DTD/svg11.dtd"><svg width="100%" height="100%" viewBox="0 0 279 237" version="1.1" xmlns="http://www.w3.org/2000/svg" xmlns:xlink="http://www.w3.org/1999/xlink" xml:space="preserve" xmlns:serif="http://www.serif.com/" style="fill-rule:evenodd;clip-rule:evenodd;stroke-linejoin:round;stroke-miterlimit:2;"><path id="L18-MALAMUTE" d="M237.92,0.589c0.961,0.965 1.545,5.069 1.548,10.877l0.002,9.328l4.585,2.471c6.221,3.352 11.411,11.1 12.466,18.607c0.849,6.044 0.962,6.172 11.668,13.253c5.945,3.933 10.811,7.936 10.811,8.896c-0,2.164 -6.259,11.559 -9.901,14.862c-2.027,1.838 -5.066,2.605 -12.154,3.068l-9.45,0.618l-0.354,9.122c-0.212,5.477 -1.076,10.152 -2.162,11.702c-0.994,1.421 -1.808,3.872 -1.808,5.449c-0,1.576 -0.563,3.537 -1.251,4.357c-6.166,7.36 -8.62,11.676 -9.329,16.41c-0.451,3.008 -1.313,5.468 -1.916,5.468c-0.602,0 -1.095,1.164 -1.095,2.587c0,1.547 -0.992,2.846 -2.471,3.233c-1.487,0.389 -2.478,1.695 -2.489,3.282c-0.025,3.368 -1.037,4.699 -5.212,6.851c-1.858,0.956 -3.695,2.74 -4.083,3.962c-0.388,1.223 -2.896,3.959 -5.575,6.08c-3.954,3.131 -5.33,5.405 -7.319,12.097c-1.348,4.532 -3.013,11.853 -3.702,16.27c-1.451,9.296 -1.657,28.458 -0.327,30.27c0.5,0.679 2.559,2.08 4.575,3.114c2.359,1.207 4.094,3.361 4.86,6.029c1.734,6.051 -0.934,7.536 -13.538,7.536c-11.758,-0 -15.485,-1.999 -17.893,-9.595c-0.804,-2.538 -2.334,-5.995 -3.398,-7.684c-1.064,-1.689 -2.321,-5.024 -2.796,-7.413c-0.474,-2.388 -2.321,-9.27 -4.105,-15.291c-1.784,-6.022 -3.243,-12.159 -3.243,-13.638c-0,-1.477 -1.529,-4.46 -3.398,-6.627c-2.566,-2.975 -4.758,-4.118 -8.957,-4.67c-3.058,-0.401 -7.228,-0.957 -9.266,-1.235c-7.074,-0.965 -22.245,-4.656 -23.413,-5.696c-0.645,-0.575 -2.346,-1.045 -3.779,-1.045c-1.434,-0 -3.661,-0.772 -4.952,-1.716c-1.291,-0.944 -2.975,-1.474 -3.745,-1.179c-0.768,0.295 -2.106,-0.318 -2.973,-1.362c-0.956,-1.152 -2.646,-1.628 -4.305,-1.212c-1.643,0.413 -3.345,-0.055 -4.273,-1.173c-0.848,-1.023 -2.357,-1.547 -3.351,-1.165c-0.995,0.381 -2.888,-0.282 -4.205,-1.474c-2.321,-2.101 -2.901,-1.681 -18.912,13.75c-9.807,9.451 -20.197,18.175 -25.578,21.476c-12.229,7.502 -16.752,12.026 -18.494,18.495c-1.673,6.215 -0.689,13.628 1.81,13.628c2.511,-0 6.997,6.251 6.574,9.162c-0.518,3.578 -5.435,5.624 -13.564,5.645c-15.445,0.041 -17.547,-3.491 -17.63,-29.633l-0.056,-17.915l4.738,-7.607c4.267,-6.852 4.577,-7.894 3.129,-10.501c-0.884,-1.593 -1.706,-5.675 -1.826,-9.072c-0.12,-3.398 -0.804,-9.38 -1.522,-13.293c-1.627,-8.872 -0.723,-28.281 1.627,-34.892c1.958,-5.511 6.21,-13.746 8.371,-16.212c2.011,-2.297 2.058,-2.713 0.375,-3.359c-1.056,-0.405 -1.92,-1.502 -1.92,-2.438c0,-0.935 -1.133,-2.725 -2.518,-3.978c-1.804,-1.632 -2.315,-3.197 -1.806,-5.518c0.509,-2.32 -0.002,-3.885 -1.806,-5.517c-2.502,-2.264 -3.416,-5.602 -1.535,-5.602c1.426,-0 1.033,-4.836 -0.83,-10.244c-2.048,-5.945 -1.083,-9.345 1.952,-6.884c1.78,1.445 1.919,1.425 0.979,-0.134c-1.101,-1.824 -0.927,-10.883 0.244,-12.777c0.342,-0.556 1.723,-0.016 3.064,1.2c2.38,2.152 2.421,2.128 1.639,-0.99c-0.909,-3.62 1.349,-13.413 3.092,-13.413c0.63,-0 1.795,1.214 2.59,2.698c1.406,2.629 1.503,2.583 3.744,-1.787c2.044,-3.983 9.227,-10.795 11.384,-10.795c0.446,-0 0.811,1.094 0.811,2.434c-0,2.33 0.18,2.31 4.278,-0.47c4.807,-3.263 18.188,-5.608 18.949,-3.322c0.249,0.746 2.823,1.358 5.72,1.358c3.495,-0 6.227,0.831 8.117,2.471c1.567,1.359 3.551,2.471 4.41,2.471c0.858,-0 4.041,2.362 7.074,5.251c6.541,6.226 10.543,12.046 8.284,12.046c-1.093,-0 -0.984,0.815 0.386,2.908c1.047,1.599 2.303,5.025 2.788,7.612c0.725,3.867 0.557,4.58 -0.942,4.004c-1.541,-0.592 -1.631,0.028 -0.58,3.966c1.174,4.398 1.002,4.91 -2.984,8.868c-7.891,7.839 -7.206,7.752 -17.81,2.297c-10.067,-5.178 -12.82,-5.78 -16.769,-3.667c-3.465,1.855 -3.29,9.271 0.264,11.174c1.822,0.975 15.258,1.471 42.933,1.588c36.36,0.151 40.76,-0.049 45.213,-2.056c2.712,-1.223 7.397,-2.776 10.411,-3.452c3.015,-0.676 7.594,-3.011 10.176,-5.189c2.962,-2.493 5.946,-4.959 8.952,-7.398c2.343,-1.891 5.782,-6.061 7.645,-9.267c1.864,-3.206 6.353,-9.226 9.978,-13.379c3.625,-4.152 6.592,-8.124 6.592,-8.829c-0,-1.878 11.073,-8.662 17.985,-11.017c3.479,-1.186 7.305,-3.637 9.135,-5.855c8.762,-10.612 11.769,-13.243 13.342,-11.664"/></svg>