<?xml version="1.0" encoding="UTF-8" standalone="no"?><!DOCTYPE svg PUBLIC "-//W3C//DTD SVG 1.1//EN" "http://www.w3.org/Graphics/SVG/1.1/DTD/svg11.dtd"><svg width="100%" height="100%" viewBox="0 0 308 237" version="1.1" xmlns="http://www.w3.org/2000/svg" xmlns:xlink="http://www.w3.org/1999/xlink" xml:space="preserve" xmlns:serif="http://www.serif.com/" style="fill-rule:evenodd;clip-rule:evenodd;stroke-linejoin:round;stroke-miterlimit:2;"><path id="L19-BERNESEE" d="M268.484,1.367c-7.615,-1.632 -7.727,-1.632 -14.961,0.201c-8.77,2.216 -30.63,21.49 -28.553,25.163c0.318,0.567 -1.425,3.603 -3.876,6.753c-2.451,3.141 -4.488,6.518 -4.52,7.495c-0.088,2.452 -7.202,9.519 -14.699,14.615c-3.43,2.321 -11.953,5.915 -18.94,7.983c-11.794,3.49 -14.698,3.682 -40.371,2.661c-42.647,-1.692 -57.664,2.356 -73.748,19.894c-8.531,9.292 -9.788,11.596 -13.377,24.474c-3.008,10.81 -5.229,15.574 -9.295,19.893c-2.945,3.124 -5.348,6.527 -5.348,7.556c0,1.038 -4.122,4.04 -9.168,6.684c-5.045,2.643 -9.167,5.427 -9.167,6.186c-0,0.759 -2.658,2.548 -5.913,3.978c-7.513,3.29 -14.738,14.161 -15.892,23.881c-0.701,5.925 -0.446,7.076 1.384,6.308c1.234,-0.523 1.886,-0.305 1.441,0.472c-0.438,0.785 0.04,3.411 1.066,5.837c1.608,3.778 4.695,5.366 9.072,4.65c0.605,-0.096 0.701,0.943 0.223,2.312c-1.106,3.15 1.154,3.159 7.958,0.044c2.945,-1.352 4.95,-1.728 4.449,-0.838c-1.48,2.618 2.865,1.85 6.852,-1.212c2.61,-2.007 3.859,-2.251 4.289,-0.838c0.899,2.967 2.674,2.452 7.823,-2.295l19.024,-20.102c0,-0 -12.676,15.944 -10.003,33.504c0.856,5.625 9.749,29.762 10.003,29.762c3.851,-0 11.312,-0 20.87,-0c11.325,-0 13.138,0.218 12.556,-7.295c-0.177,-2.271 0.847,-4.477 -9.655,-6.064c-5.02,-0.758 -7.818,-12.387 -6.841,-16.403c2.483,-10.217 11.245,-10.784 23.397,-20.094c5.682,-4.354 11.237,-9.318 12.335,-11.037c1.098,-1.71 2.817,-3.133 3.82,-3.141c1.003,-0.026 3.907,-3.604 6.454,-7.958c4.186,-7.18 5.117,-7.887 9.82,-7.468c2.865,0.261 6.215,1.396 7.449,2.513c1.241,1.125 3.525,1.814 5.085,1.526c1.552,-0.288 4.886,1.082 7.401,3.046c2.523,1.971 4.576,2.713 4.576,1.666c0,-1.047 2.061,-0.297 4.584,1.675c2.849,2.225 4.584,2.801 4.584,1.527c-0,-1.335 0.979,-1.073 2.833,0.768c1.56,1.544 3.86,2.382 5.101,1.858c1.249,-0.523 3.151,0.201 4.218,1.615c1.074,1.413 2.483,2.207 3.135,1.771c0.653,-0.445 12.796,2.015 13.321,5.462c2.889,18.898 4.616,26.96 5.634,26.271c0.621,-0.419 1.616,1.684 2.205,4.686c0.589,3.01 2.061,6.596 3.271,7.974c1.209,1.379 4.846,5.794 8.077,9.807l7.768,7.295c28.419,0.008 25.934,0.928 24.972,-5.87c-0.891,-6.303 -11.539,-6.319 -13.695,-7.489c-2.826,-1.518 -4.21,-3.908 -4.911,-8.48c-1.718,-11.142 6.16,-55.571 9.861,-55.571c0.684,0 2.665,-2.452 4.392,-5.444c1.735,-2.993 3.685,-5.113 4.353,-4.712c0.661,0.401 3.526,-2.609 6.375,-6.701c2.841,-4.092 5.913,-7.434 6.82,-7.434c0.915,0 2.761,-3.996 4.098,-8.891c1.345,-4.886 3.088,-8.803 3.868,-8.707c2.109,0.27 4.051,-11.491 3.255,-19.754c-0.478,-4.965 0.016,-7.966 1.583,-9.694c1.401,-1.535 2.022,-4.441 1.608,-7.538c-0.374,-2.766 -0.199,-5.358 0.39,-5.759c0.589,-0.401 0.366,-4.127 -0.501,-8.28c-1.138,-5.445 -1.091,-8.743 0.167,-11.77c1.552,-3.726 2.674,-4.206 9.9,-4.206c7.042,0 8.737,-0.68 12.486,-4.964c4.703,-5.375 7.823,-19.353 5.133,-22.991c-0.812,-1.091 -5.292,-2.513 -9.956,-3.15c-7.114,-0.977 -8.873,-1.911 -10.918,-5.82c-2.905,-5.549 -9.622,-10.199 -17.031,-11.796Z"/></svg>