<?xml version="1.0" encoding="UTF-8" standalone="no"?><!DOCTYPE svg PUBLIC "-//W3C//DTD SVG 1.1//EN" "http://www.w3.org/Graphics/SVG/1.1/DTD/svg11.dtd"><svg width="100%" height="100%" viewBox="0 0 308 235" version="1.1" xmlns="http://www.w3.org/2000/svg" xmlns:xlink="http://www.w3.org/1999/xlink" xml:space="preserve" xmlns:serif="http://www.serif.com/" style="fill-rule:evenodd;clip-rule:evenodd;stroke-linejoin:round;stroke-miterlimit:2;"><path id="L20-GREYHOUND" d="M0.735,140.828c1.216,0.068 5.18,-0.827 7.297,2.017c1.215,1.633 2.238,3.419 3.406,5.092c2.265,3.245 5.174,5.519 9.004,6.334c3.406,0.727 6.384,0.058 8.98,-2.59c6.452,-6.578 10.779,-14.417 12.684,-23.598c2.314,-11.158 4.43,-22.361 6.53,-33.566c2.235,-11.913 7.828,-21.669 16.939,-29.149c5.41,-4.443 11.968,-6.161 18.431,-8.04c15.045,-4.372 30.323,-4.714 45.807,-3.529c15.856,1.215 31.69,3.4 47.642,2.601c7.19,-0.36 14.62,-0.255 21.186,-3.801c6.729,-3.637 13.359,-7.619 19.514,-12.215c3.496,-2.609 5.961,-6.737 8.866,-10.203c1.348,-1.609 2.713,-3.211 3.942,-4.918c3.732,-5.177 8.489,-9.023 13.915,-12.045c1.165,-0.648 3.974,-1.788 3.794,-2.303c-0.181,-0.514 -5.323,0.872 -4.878,-0.786c0.446,-1.658 4.958,-6.382 7.552,-9.164c0.617,-0.66 2.43,-0.751 3.354,-0.317c2.518,1.185 5.045,1.215 7.688,1.014c3.089,-0.235 3.793,0.237 4.65,3.418c0.425,1.58 1.17,2.411 2.639,2.958c5.065,1.877 8.829,5.799 12.104,9.9c5.327,6.67 11.85,11.733 18.389,16.867c1.889,1.483 3.768,3.02 5.429,4.765c0.918,0.962 2.203,2.807 1.873,3.546c-0.596,1.34 -1.752,3.032 -2.943,3.678c-0.235,0.127 -0.471,0.214 -0.705,0.249c-7.609,1.141 -15.441,2.812 -22.476,-2.212c-6.041,-4.314 -12.788,-4.961 -19.777,-4.819c-2.487,0.049 -4.424,0.873 -5.76,3.2c-6.584,11.467 -13.163,22.977 -16.783,35.903c-1.423,5.073 -1.628,10.526 -2.328,15.816c-0.907,6.865 -0.917,13.937 -3.891,20.338c-1.557,3.355 -3.182,6.754 -5.295,9.732c-2.507,3.53 -3.634,7.373 -4.221,11.606c-2.09,15.078 -4.716,37.455 -6.299,52.586c-1.066,10.202 -0.72,20.564 -1.003,30.857c-0.039,1.317 4.198,3.326 5.442,3.591c3.227,0.686 8.739,1.598 9.262,9.547c0.034,0.517 -2.565,1.2 -2.565,1.2l-12.138,-0c0,-0 -2.357,-1.628 -3.497,-2.563c-0.546,-0.444 -6.095,-6.759 -6.159,-6.856c-2.594,-3.959 -1.784,-14.536 -2.141,-15.146c-1.687,-2.864 -1.206,-56.274 -5.554,-68.995c-0.715,-2.094 -12.908,-1.388 -14.864,-1.626c-4.742,-0.575 -9.564,-0.711 -13.986,-3.009c-10.097,-5.247 -19.644,-11.43 -28.556,-18.648c-3.984,-3.226 -7.603,-6.961 -11.648,-10.095c-4.079,-3.159 -8.748,-5.142 -14.012,-5.906c-0.7,6.143 -6.524,34.017 -25.059,42.01c-11.395,4.915 -22.552,15.994 -23.723,17.54c-5.716,7.545 -11.514,15.018 -17.308,22.498c-3.032,3.912 -6.505,7.857 -7.114,12.872c-0.838,6.926 -1.051,19.936 -0.792,23.991c0.053,0.824 1.657,0.258 2.345,0.337c2.902,0.33 8.904,7.24 9.587,9.252c0.536,1.58 -0.2,3.812 -1.578,3.982c-1.521,0.187 -4.578,0.362 -4.578,0.362l-10.411,-0c0,-0 -0.288,-0.316 -5.184,-7.8c-0.974,-1.49 -1.365,-2.975 -1.213,-4.69c0.283,-3.194 0.887,-6.392 0.828,-9.58c-0.127,-6.744 -0.463,-16.362 -0.977,-23.088c-0.23,-3.017 0.108,-5.605 1.9,-8.075c4.172,-5.752 8.29,-11.551 12.241,-17.469c1.355,-2.034 2.559,-4.376 3.11,-6.761c1.016,-4.401 1.596,-8.923 2.178,-13.419c0.504,-3.905 1.071,-9.97 1.129,-11.769c0.013,-0.424 -0.637,0.622 -0.785,0.972c-2.183,5.201 -4.309,10.425 -6.559,15.59c-1.98,4.545 -5.081,8.152 -8.942,11.057c-7.633,5.736 -17.85,5.503 -23.686,-1.036c-2.377,-2.663 -3.738,-6.3 -5.691,-9.406c-1.408,-2.237 -3.798,-5.131 -4.558,-6.479c-0.26,-0.462 -0.511,-1.636 -0,-1.607Z" style="fill-rule:nonzero;"/></svg>