<?xml version="1.0" encoding="UTF-8" standalone="no"?><!DOCTYPE svg PUBLIC "-//W3C//DTD SVG 1.1//EN" "http://www.w3.org/Graphics/SVG/1.1/DTD/svg11.dtd"><svg width="100%" height="100%" viewBox="0 0 308 237" version="1.1" xmlns="http://www.w3.org/2000/svg" xmlns:xlink="http://www.w3.org/1999/xlink" xml:space="preserve" xmlns:serif="http://www.serif.com/" style="fill-rule:evenodd;clip-rule:evenodd;stroke-linejoin:round;stroke-miterlimit:2;"><path id="L21-BORZOI" d="M271.159,1.032c-4.188,-0.86 -9.948,-1.215 -12.794,-0.81c-6.732,0.972 -22.601,13.159 -27.52,21.126c-9.978,16.185 -12.663,19.384 -19.546,23.301c-14.497,8.25 -22.932,9.596 -61.243,9.778c-41.947,0.193 -51.765,2.126 -78.133,15.366c-12.002,6.033 -17.442,10.062 -21.43,15.862c-11.05,16.094 -12.182,19.627 -13.775,43.02c-0.972,14.181 -6.592,24.445 -18.544,33.859c-17.081,13.453 -18.534,17.097 -16.691,42.059l0.461,6.215l4.809,-4.404c2.645,-2.419 7.293,-5.962 10.319,-7.865l5.51,-3.461l-1.382,19.536l-1.383,19.546l4.859,1.225c10.98,2.783 15.869,-1.954 8.836,-8.574c-3.646,-3.431 -4.077,-5.324 -3.085,-13.776c0.631,-5.385 2.705,-13.078 4.608,-17.087l3.456,-7.288c0,-0 15.499,-4.464 35.345,-20.781c18.364,-15.093 26.599,-26.774 29.785,-42.281c2.685,-13.028 4.188,-15.649 8.977,-15.649c5.229,-0 17.762,6.184 20.758,10.233c1.392,1.893 3.256,2.986 4.127,2.44c0.872,-0.547 2.094,0.324 2.695,1.933c0.621,1.61 1.904,2.693 2.866,2.419c0.961,-0.283 5.239,2.43 9.507,6.013c4.258,3.583 8.035,6.215 8.395,5.841c0.361,-0.375 3.467,1.336 6.903,3.816c3.947,2.844 6.252,3.593 6.252,2.044c-0,-1.366 1.252,-0.779 2.825,1.327c1.893,2.53 2.845,2.894 2.885,1.113c0.04,-1.863 0.792,-2.095 2.465,-0.759c1.322,1.053 4.338,1.751 6.702,1.538c3.516,-0.313 4.538,0.891 5.59,6.55c0.712,3.816 1.373,9.272 1.473,12.116c0.1,2.855 0.962,4.697 1.923,4.1c0.962,-0.598 1.263,0.799 0.662,3.107c-0.591,2.308 -0.381,4.191 0.481,4.191c0.861,-0 1.072,1.883 0.48,4.19c-0.791,3.047 -0.42,3.776 1.343,2.673c1.793,-1.124 2.094,-0.436 1.142,2.611c-0.801,2.541 -0.471,4.13 0.862,4.13c1.192,0 1.753,0.678 1.242,1.508c-0.862,1.428 4.228,18.565 6.772,22.786c0.642,1.073 1.804,5 2.585,8.746c1.944,9.383 4.238,11.661 11.752,11.661c8.485,-0 14.707,-5.163 12.112,-10.052c-1.032,-1.954 -3.116,-3.553 -4.629,-3.553c-4.788,0 -6.732,-7.015 -6.732,-24.243c0,-17.633 3.186,-51.391 5.41,-57.384c0.731,-1.943 4.378,-6.903 8.115,-11.003c8.095,-8.897 17.252,-24.303 17.252,-29.03c-0,-1.863 1.152,-4.768 2.554,-6.459c3.146,-3.765 6.432,-19.192 6.883,-32.219c0.781,-22.775 3.937,-29.588 12.683,-27.391c14.858,3.735 19.526,3.502 24.986,-1.245c6.452,-5.618 5.54,-7.855 -5.4,-13.362c-4.428,-2.227 -10.679,-7.136 -13.895,-10.901c-3.978,-4.657 -8.295,-7.359 -13.465,-8.402Z"/></svg>