<?xml version="1.0" encoding="UTF-8" standalone="no"?><!DOCTYPE svg PUBLIC "-//W3C//DTD SVG 1.1//EN" "http://www.w3.org/Graphics/SVG/1.1/DTD/svg11.dtd"><svg width="100%" height="100%" viewBox="0 0 308 206" version="1.1" xmlns="http://www.w3.org/2000/svg" xmlns:xlink="http://www.w3.org/1999/xlink" xml:space="preserve" xmlns:serif="http://www.serif.com/" style="fill-rule:evenodd;clip-rule:evenodd;stroke-linejoin:round;stroke-miterlimit:2;"><path id="M01-SPANIEL" d="M283.777,3.212c-13.64,-7.557 -37.896,0.139 -45.059,14.3c-2.235,4.432 -9.296,15.913 -15.684,25.514c-16.561,24.879 -19.495,25.882 -80.721,27.8c-25.425,0.8 -48.983,2.349 -52.374,3.441c-16.103,5.207 -25.311,13.323 -33.362,29.375c-8.179,16.345 -18.11,23.952 -34.442,26.403c-11.887,1.778 -17.082,5.918 -18.822,15.024c-1.295,6.693 -1.168,6.883 2.464,4.013c3.734,-2.933 3.734,-2.87 0.292,2.515c-3.365,5.27 -3.365,5.524 0.038,5.664c2.883,0.102 2.706,0.546 -0.965,2.311c-7.112,3.429 -5.384,6.249 3.023,4.941c7.277,-1.131 7.366,-1.08 2.514,1.6c-4.419,2.438 -4.597,2.933 -1.511,4.14c1.943,0.749 5.944,0.762 8.903,0.013c4.699,-1.181 5.042,-0.953 2.756,1.79c-3.252,3.925 -1.893,3.95 7.238,0.127c6.414,-2.679 6.947,-2.679 4.712,0c-4,4.826 2.261,3.836 10.338,-1.651l6.87,-4.661l-2.476,14.212c-2.515,14.414 -1.918,21.056 2.121,23.723c3.797,2.489 24.924,0.763 29.913,-0.508c4.706,-1.199 4.59,-11.12 -2.989,-11.989c-3.82,-0.437 -1.766,-4.864 1.651,-9.512c2.26,-3.073 6.972,-7.048 10.464,-8.839c3.505,-1.791 7.696,-4.343 9.309,-5.69c1.613,-1.346 4.407,-2.654 6.21,-2.921c1.804,-0.266 6.223,-4.203 9.83,-8.75c6.287,-7.95 6.769,-8.166 11.9,-5.511c2.934,1.524 5.359,2.159 5.385,1.384c0.025,-0.762 1.816,0.876 3.975,3.645c2.375,3.022 3.949,3.899 3.975,2.197c0.038,-2.21 0.889,-2.058 3.886,0.647c2.121,1.918 5.194,3.683 6.832,3.925c1.651,0.241 4.445,1.638 6.211,3.098c1.816,1.512 3.213,1.778 3.213,0.61c-0,-3.073 7.581,-0.533 8.928,2.997c0.939,2.451 1.752,2.566 4.165,0.559c2.108,-1.753 2.985,-1.803 2.985,-0.19c-0,1.435 2.248,1.892 6.032,1.219c3.975,-0.699 6.033,-0.229 6.033,1.384c-0,1.892 0.533,1.892 2.413,0.025c3.911,-3.924 6.159,-2.768 5.13,2.604c-0.533,2.768 -0.089,5.029 0.991,5.029c1.067,0 1.397,1.397 0.736,3.111c-0.749,1.956 -0.368,2.617 1.016,1.766c1.461,-0.915 1.753,0.063 0.839,2.908c-0.991,3.111 -0.496,4.267 1.803,4.267c1.727,0 3.15,1.029 3.15,2.273c-0,3.023 8.115,9.97 10.159,8.7c0.889,-0.546 2.185,-0.076 2.883,1.054c1.829,2.959 22.797,2.438 32.169,-0.8c9.931,-3.442 12.09,-10.173 4.216,-13.157c-6.667,-2.54 -8.051,-8.827 -5.524,-25.057c1.88,-12.078 5.461,-19.177 9.715,-19.24c3.099,-0.051 18.275,-15.456 19.723,-20.041c1.092,-3.416 1.88,-3.899 3.112,-1.905c1.168,1.893 2.032,0.927 2.959,-3.251c0.711,-3.264 2.133,-8.178 3.162,-10.947c1.181,-3.175 1.118,-7.607 -0.152,-12.04c-2.464,-8.483 -2.553,-10.617 -0.407,-9.296c0.889,0.559 -0.165,-4.432 -2.349,-11.087c-5.169,-15.76 -3.328,-21.958 7.264,-24.46c9.881,-2.336 17.996,-11.849 17.183,-20.129c-0.508,-5.029 -1.791,-6.439 -7.15,-7.81c-4.128,-1.067 -6.553,-2.947 -6.604,-5.144c-0.102,-5.385 -4.915,-12.801 -10.198,-15.722Z"/></svg>