<?xml version="1.0" encoding="UTF-8" standalone="no"?><!DOCTYPE svg PUBLIC "-//W3C//DTD SVG 1.1//EN" "http://www.w3.org/Graphics/SVG/1.1/DTD/svg11.dtd"><svg width="100%" height="100%" viewBox="0 0 247 217" version="1.1" xmlns="http://www.w3.org/2000/svg" xmlns:xlink="http://www.w3.org/1999/xlink" xml:space="preserve" xmlns:serif="http://www.serif.com/" style="fill-rule:evenodd;clip-rule:evenodd;stroke-linejoin:round;stroke-miterlimit:2;"><path id="M02-POODLE" d="M220.74,2.872c-7.398,-3.79 -23.32,-2.771 -34.423,2.203c-7.734,3.464 -8.899,4.887 -13.555,16.499c-8.033,20.04 -10.505,24.417 -17.403,30.776c-4.676,4.33 -9.332,8.688 -13.96,13.084c-4.127,3.916 -9.495,7.889 -11.929,8.822c-2.444,0.924 -17.423,1.511 -33.287,1.309c-19.164,-0.25 -30.641,0.365 -34.191,1.847c-4.503,1.885 -5.879,1.741 -8.774,-0.876c-3.348,-3.03 -3.348,-3.174 0.115,-5.608c5.541,-3.877 8.235,-14.133 5.715,-21.772c-3.098,-9.389 -13.325,-17.653 -21.8,-17.615c-7.851,0.029 -9.15,0.741 -14.778,8.072c-7.215,9.399 -4.386,23.974 6.283,32.373c2.693,2.126 6.849,3.858 9.226,3.858c2.953,-0 5.243,1.789 7.234,5.628c2.733,5.301 2.675,6.022 -1.039,12.025c-3.261,5.272 -4.031,9.707 -4.387,25.312c-0.327,13.873 -1.327,20.636 -3.752,25.379c-5.195,10.14 -12.035,18.471 -15.162,18.471c-1.568,0 -5.618,1.309 -8.995,2.915c-11.756,5.58 -15.393,27.582 -6.292,38.146c1.982,2.309 4.782,5.859 6.206,7.888c2.058,2.935 4.695,4.64 12.756,4.64c11.439,0 14.018,-2.398 11.035,-7.17c-1.645,-2.636 -1.337,-3.723 1.597,-5.56c5.445,-3.396 9.438,-14.575 8.428,-23.58c-0.837,-7.36 -0.491,-8.053 6.725,-13.248c12.564,-9.053 21.242,-18.49 26.321,-28.621c6.696,-13.372 9.486,-16.047 16.73,-16.047c8.457,0 17.75,4.137 26.938,12.007c8.37,7.167 26.851,13.853 38.27,13.853c5.676,0 7.187,0.779 8.091,4.156c2.367,8.841 1.203,14.46 -3.915,18.866c-4.359,3.752 -5.042,5.657 -4.811,13.478c0.279,9.544 3.589,17.702 9.284,22.945c1.857,1.703 4.445,4.407 5.753,6.004c2.963,3.598 20.376,3.973 25.081,0.538c3.088,-2.261 2.617,-8.726 -0.645,-8.726c-0.779,0 0.241,-3.338 2.251,-7.417c5.003,-10.101 3.243,-22.445 -4.29,-29.968c-4.474,-4.473 -5.378,-6.907 -5.378,-14.392c-0,-8.601 0.375,-9.255 8.37,-14.758c8.793,-6.051 15.864,-15.595 18.433,-24.898c2.299,-8.351 2.578,-23.33 0.529,-28.582c-1.001,-2.569 -1.915,-10.487 -2.03,-17.596l-0.202,-12.93l10.448,-0.549c9.062,-0.481 11.092,-1.308 15.21,-6.215c3.723,-4.425 4.3,-6.214 2.636,-8.216c-1.164,-1.414 -2.886,-2.568 -3.81,-2.568c-0.924,-0 -4.618,-1.232 -8.216,-2.732c-6.301,-2.636 -6.436,-2.877 -3.637,-6.879c1.597,-2.28 2.906,-5.695 2.906,-7.6c-0,-5.561 -5.821,-13.854 -11.91,-16.971Z"/></svg>