<?xml version="1.0" encoding="UTF-8" standalone="no"?><!DOCTYPE svg PUBLIC "-//W3C//DTD SVG 1.1//EN" "http://www.w3.org/Graphics/SVG/1.1/DTD/svg11.dtd"><svg width="100%" height="100%" viewBox="0 0 279 215" version="1.1" xmlns="http://www.w3.org/2000/svg" xmlns:xlink="http://www.w3.org/1999/xlink" xml:space="preserve" xmlns:serif="http://www.serif.com/" style="fill-rule:evenodd;clip-rule:evenodd;stroke-linejoin:round;stroke-miterlimit:2;"><path id="M03-COKERSPANIEL" d="M50.317,183.548c4.35,-1.297 8.166,-1.981 11.685,-3.484c23.71,-10.124 27.701,-27.658 32.245,-29.598c2.084,-0.893 3.876,-3.177 5.161,-5.253c2.371,-3.812 5.501,-4.588 9.255,-3.151c2.156,0.825 19.899,9.866 20.773,10.827c4.89,5.371 27.76,12.306 30.03,12.996c3.394,1.022 4.69,3.019 4.829,6.421c0.173,4.263 1.345,8.535 0.918,12.757c-2.064,20.444 23.653,29.185 23.653,29.185l24.287,0c0,0 10.226,-0.962 10.226,-12.794c-0,-6.867 0.173,-11.338 -5.567,-14.833c-0.593,-0.361 -1.192,-0.715 -1.795,-1.054c-6.382,-3.563 -6.33,-4.027 -2.864,-10.752c1.106,-2.148 0.898,-5.035 1.221,-7.586c0.065,-0.536 -0.461,-1.276 -0.257,-1.641c3.692,-6.571 1.872,-15.015 7.203,-21.193c2.599,-3.016 3.851,-7.272 5.684,-10.984c0.739,-1.501 1.314,-3.091 2.111,-4.56c3.532,-6.489 5.432,-13.064 3.74,-20.768c-1.036,-4.71 -0.333,-9.823 -0.523,-14.747c-0.059,-1.522 -0.493,-3.03 -0.933,-5.571c7.719,6.6 14.991,2.544 21.792,-0.05c5.816,-2.223 6.582,-8.751 7.189,-14.383c0.572,-5.256 -0.849,-10.112 -4.766,-13.979c-1.442,-1.422 -2.524,-3.237 -4.191,-5.427c4.953,-1.662 9.168,-3.234 13.473,-4.481c12.381,-3.595 15.608,-14.351 12.499,-25.904c-0.409,-1.515 -3.061,-2.93 -4.905,-3.376c-3.053,-0.74 -6.35,-0.365 -9.427,-1.033c-1.494,-0.325 -3.744,-1.819 -3.893,-3.009c-0.679,-5.528 -4.367,-8.158 -8.308,-10.945c-4.375,-3.094 -9.13,-4.752 -14.329,-4.738c-13.605,0.029 -24.877,4.999 -32,17.495c-3.969,6.968 -7.66,14.147 -10.942,21.483c-4.652,10.398 -11.588,16.923 -22.652,20.468c-12.54,4.016 -24.862,6.478 -38.03,6.493c-22.534,0.025 -44.72,3.505 -66.554,9.505c-9.958,2.737 -19.791,5.721 -29.254,0.986c-1.993,-0.998 -18.13,-15.114 -30.298,-27.425c-4.079,-4.129 -5.544,-3.287 -5.806,-2.699c-4.928,11.048 32.222,51.228 44.059,54.108c-2.582,5.485 -2.615,13.596 -7.955,16.502c-10.247,5.574 -20.412,24.223 -21.306,28.09c-0.791,3.416 -2.364,6.8 -4.257,9.74c-1.788,2.777 -7.629,18.467 -7.501,21.819c0.087,2.276 -0.911,4.578 -1.313,6.893c-0.305,1.769 -0.777,3.609 -0.572,5.342c0.506,4.213 1.158,8.437 2.128,12.561c1.65,7.046 17.68,12.447 17.68,12.447l28.357,0c0,0 4.67,0.059 5.881,-2.735c2.568,-5.921 2.088,-18.11 -3.576,-24.849c-0.613,-0.733 -1.14,-1.54 -2.305,-3.116" style="fill-rule:nonzero;"/></svg>