<?xml version="1.0" encoding="UTF-8" standalone="no"?><!DOCTYPE svg PUBLIC "-//W3C//DTD SVG 1.1//EN" "http://www.w3.org/Graphics/SVG/1.1/DTD/svg11.dtd"><svg width="100%" height="100%" viewBox="0 0 308 217" version="1.1" xmlns="http://www.w3.org/2000/svg" xmlns:xlink="http://www.w3.org/1999/xlink" xml:space="preserve" xmlns:serif="http://www.serif.com/" style="fill-rule:evenodd;clip-rule:evenodd;stroke-linejoin:round;stroke-miterlimit:2;"><path id="M04-BULL" d="M184.159,143.172c0.529,4.092 1.359,7.918 1.455,11.763c0.264,10.471 2.436,20.916 0.312,31.448c-0.4,1.983 0.289,4.35 1.013,6.35c1.687,4.659 3.849,9.149 5.545,13.804c2.339,6.42 5.809,9.711 5.809,9.711l24.21,0c0,0 3.318,-2.997 3.379,-5.37c0.048,-1.885 0.295,-2.876 -1.698,-4.335c-2.836,-2.076 -6.113,-3.554 -9.079,-5.47c-1.367,-0.883 -2.894,-1.984 -3.578,-3.36c-3.341,-6.722 -3.055,-14.029 -2.55,-21.186c0.796,-11.256 2.031,-22.484 3.284,-33.701c0.191,-1.715 1.198,-3.534 2.316,-4.918c2.933,-3.629 6.072,-7.102 9.246,-10.529c3.909,-4.222 6.085,-9.307 7.282,-14.742c3.543,-16.083 12.091,-28.427 27.059,-36.02c1.517,-0.769 3.67,-1.028 5.334,-0.661c5.453,1.202 10.825,2.768 16.21,4.259c4.759,1.317 9.315,1.056 13.602,-1.517c3.439,-2.064 7.007,-3.965 10.218,-6.335c4.264,-3.145 4.706,-6.108 1.94,-10.597c-7.017,-11.389 -15.85,-21.174 -26.888,-28.882c-5.201,-3.633 -10.605,-6.992 -16.011,-10.325c-2.113,-1.302 -2.528,-2.844 -1.815,-5.038c1.401,-4.31 2.776,-8.63 4.021,-12.986c0.298,-1.044 0.044,-2.243 0.044,-3.37c-0.348,-0.196 -0.695,-0.392 -1.042,-0.588c-3.586,3.727 -7.206,7.423 -10.75,11.19c-3.301,3.509 -6.739,6.683 -11.515,8.305c-2.372,0.806 -4.617,2.315 -6.568,3.924c-4.294,3.541 -8.769,6.995 -12.441,11.119c-7.748,8.7 -17.702,14.62 -27.01,21.241c-4.826,3.432 -11.291,4.677 -17.095,6.687c-15.858,5.491 -32.176,5.541 -48.731,4.445c-17.493,-1.159 -35.325,-3.633 -52.36,1.994c-13.272,4.385 -24.684,0.238 -36.118,-4.823c-9.628,-4.261 -16.898,-11.882 -24.636,-18.779c-4.054,-3.615 -8.448,-6.872 -12.824,-10.113c-1.12,-0.829 -2.754,-0.981 -3.605,-1.263c3.271,5.086 6.628,10.196 9.875,15.374c10.095,16.095 24.037,27.23 42.584,32.478c0.415,0.117 0.814,0.293 0.744,0.267c-2.58,7.163 -5.41,14.137 -7.551,21.311c-1.22,4.088 -1.626,8.487 -1.848,12.775c-0.393,7.602 -3.525,14.344 -6.149,21.266c-0.197,0.518 -0.473,1.019 -0.588,1.554c-1.694,7.84 -5.874,13.972 -11.987,19.301c-2.275,1.984 -3.393,5.929 -3.867,9.149c-1.575,10.705 -2.77,21.472 -3.774,32.246c-0.311,3.337 0.042,6.869 0.834,10.136c0.929,3.83 4.891,5.887 4.891,5.887l13.903,0c-0,0 6.259,-1.141 6.737,-4.159c0.487,-3.074 -2.269,-7.181 -4.891,-9.4c-1.629,-1.379 -4.311,-2.617 -4.592,-4.245c-0.535,-3.1 -0.514,-6.792 0.738,-9.6c3.558,-7.976 7.173,-16.085 12.086,-23.258c3.551,-5.184 8.954,-9.272 13.999,-13.271c5.837,-4.626 12.29,-8.485 18.268,-12.947c2.761,-2.059 5.335,-2.263 8.449,-1.231c7.21,2.391 14.344,5.23 21.746,6.783c18.948,3.974 38.052,3.396 57.132,0.559c5.626,-0.836 11.278,-1.509 17.296,-2.307" style="fill-rule:nonzero;"/></svg>