<?xml version="1.0" encoding="UTF-8" standalone="no"?><!DOCTYPE svg PUBLIC "-//W3C//DTD SVG 1.1//EN" "http://www.w3.org/Graphics/SVG/1.1/DTD/svg11.dtd"><svg width="100%" height="100%" viewBox="0 0 308 231" version="1.1" xmlns="http://www.w3.org/2000/svg" xmlns:xlink="http://www.w3.org/1999/xlink" xml:space="preserve" xmlns:serif="http://www.serif.com/" style="fill-rule:evenodd;clip-rule:evenodd;stroke-linejoin:round;stroke-miterlimit:2;"><path id="M05-BEAGLE" d="M237.546,90.546c-1.921,4.353 -3.881,8.557 -5.64,12.84c-4.048,9.846 -8.508,19.5 -13.076,29.11c-2.713,5.693 -5.028,11.569 -7.528,17.362c-1.034,2.392 -1.846,20.406 -2.33,26.866c-0.496,6.607 0.968,12.908 2.652,19.214c1.171,4.398 2.492,10.419 3.531,14.858c0.183,0.787 0.61,1.032 1.324,1.339c1.682,0.723 3.346,1.552 4.866,2.557c2.868,1.894 11.317,3.719 11.499,11.808c0.058,2.593 -4.233,3.748 -4.233,3.748l-16.059,0c-0,0 -1.818,-0.426 -2.63,-1.199c-0.595,-0.57 -5.951,-5.274 -6.119,-5.773c-1.189,-3.495 -2.434,-6.985 -3.369,-10.551c-0.419,-1.596 -6.411,-12.654 -6.895,-15.453c-0.643,-3.72 -1.279,-7.446 -2.136,-11.121c-1.793,-7.693 -3.699,-15.362 -5.634,-23.019c-0.377,-1.496 -2.211,-2.756 -3.247,-2.812c-4.168,-0.221 -11.458,-2.045 -15.616,-2.396c-6.501,-0.552 -55.449,-10.357 -64.02,-14.336c-5.392,-2.501 -26.115,-3.808 -30.325,-2.15c-2.219,0.876 -9.958,22.125 -20.696,25.278c-12.097,3.553 -16.269,5.454 -25.697,14.155c-2.776,2.561 -4.932,5.773 -7.666,8.383c-2.68,2.561 -2.718,5.802 -3.149,9c-0.439,3.244 -0.696,6.51 -1.192,9.743c-0.543,3.53 0.649,6.164 3.714,7.996c1.213,0.726 6.87,4.79 7.358,5.445c6.081,8.166 -6.074,8.809 -6.074,8.809l-11.631,0.001c0,0 -1.984,-1.934 -2.266,-2.162c-1.798,-1.453 -2.42,-2.02 -2.462,-3.837c-0.041,-1.87 0.075,-3.746 0.015,-5.619c-0.23,-7.412 -0.394,-14.828 -0.809,-22.232c-0.165,-2.893 -0.911,-5.757 -1.434,-8.633c-1.061,-5.844 0.612,-10.684 5.326,-14.442c3.373,-2.684 6.023,-5.991 7.693,-9.917c0.777,-1.823 0.971,-3.92 1.234,-5.917c0.863,-6.507 1.538,-13.047 1.177,-19.607c-0.227,-4.15 -0.903,-8.282 -1.491,-12.406c-0.869,-6.059 -1.306,-12.094 0.122,-18.132c0.816,-3.427 2.402,-6.477 4.383,-9.368c4.111,-6.006 7.809,-12.253 11.017,-18.775c0.311,-0.622 0.236,-1.504 0.132,-2.239c-1.3,-9.17 -2.178,-18.373 -1.781,-27.641c0.314,-7.437 1.602,-14.716 4.499,-21.633c2.411,-5.752 5.715,-11.006 9.494,-15.964c2.277,-2.985 4.625,-5.914 6.961,-8.852c0.409,-0.511 0.902,-0.982 1.416,-1.395c1.395,-1.112 2.79,-0.815 3.328,0.87c0.445,1.389 0.609,2.879 0.759,4.342c0.191,1.811 -0.26,3.463 -1.162,5.114c-3.803,6.944 -6.767,14.224 -8.311,22.008c-1.234,6.239 -1.509,12.554 -0.553,18.834c0.618,4.062 1.751,8.047 2.614,12.076c0.17,0.796 13.506,2.041 19.585,2.498c9.452,0.708 18.907,1.407 28.365,2.047c9.387,0.638 18.77,1.348 28.165,1.744c9.219,0.389 18.424,-0.165 27.607,-1.021c11.385,-1.056 22.522,-3.407 33.584,-6.162c6.181,-1.542 11.152,-5.123 15.513,-9.598c5.303,-5.445 10.677,-10.825 15.816,-16.421c5.189,-5.637 10.288,-11.371 14.626,-17.722c1.272,-1.855 3.349,-2.678 5.425,-3.309c6.008,-1.82 12.102,-1.717 18.217,-0.599c6.883,1.259 13.064,4.185 18.755,8.106c2.865,1.97 5.727,4.047 7.441,7.206c0.362,0.669 0.637,1.451 0.69,2.2c0.192,2.575 1.425,4.41 3.747,5.513c4.672,2.224 9.371,4.395 14.037,6.628c1.73,0.832 3.46,1.684 5.094,2.681c3.113,1.906 4,4.23 2.635,7.575c-1.485,3.64 -3.17,7.203 -4.932,10.722c-1.136,2.266 -3.334,3.478 -5.548,4.534c-3.606,1.717 -7.486,2.525 -11.382,3.31c-1.706,0.345 -3.328,1.094 -4.995,1.654c-0.517,0.174 -1.069,0.272 -1.565,0.496c-2.023,0.908 -3.579,0.085 -4.986,-1.28c-1.043,-1.009 -2.076,-2.03 -3.071,-3.08c-0.75,-0.793 -1.581,-1.188 -2.713,-1.073c-1.449,0.144 -2.909,0.2 -4.364,0.224c-0.816,0.012 -1.15,0.301 -1.285,1.124c-0.756,4.607 -1.44,9.226 -2.417,13.787c-0.549,2.569 -1.437,5.111 -2.485,7.527c-1.604,3.675 -3.442,4.891 -8.183,3.289c-4.188,-1.419 -7.506,-4.517 -11.259,-6.775"/></svg>