<?xml version="1.0" encoding="UTF-8" standalone="no"?><!DOCTYPE svg PUBLIC "-//W3C//DTD SVG 1.1//EN" "http://www.w3.org/Graphics/SVG/1.1/DTD/svg11.dtd"><svg width="100%" height="100%" viewBox="0 0 297 238" version="1.1" xmlns="http://www.w3.org/2000/svg" xmlns:xlink="http://www.w3.org/1999/xlink" xml:space="preserve" xmlns:serif="http://www.serif.com/" style="fill-rule:evenodd;clip-rule:evenodd;stroke-linejoin:round;stroke-miterlimit:2;"><path id="M06-BASENJI" d="M251.449,8.227c-0,-11.068 -4.131,-9.757 -12.551,3.974c-3.948,6.426 -12.065,16.459 -18.046,22.308c-5.993,5.836 -15.331,17.154 -20.76,25.141c-13.298,19.567 -19.449,22.504 -49.298,23.501c-13.757,0.459 -33.377,-0.59 -49.324,-2.649c-16.183,-2.085 -31.226,-2.872 -38.635,-2.046c-11.161,1.272 -12.407,0.984 -15.528,-3.475c-4.197,-5.98 -4.407,-15.03 -0.407,-18.334c5.115,-4.25 14.308,-1.784 17.39,4.681c2.243,4.696 3.344,5.338 5.731,3.371c8.118,-6.741 -3.108,-24.76 -15.449,-24.76c-20.813,-0 -31.186,19.553 -20.983,39.553l4.223,8.249l-7.279,9.535c-8.065,10.544 -8.826,13.717 -10.203,42.386c-1.036,21.534 -3.777,30.36 -12.721,40.97c-5.207,6.177 -5.902,8.839 -6.806,26.098c-1.273,24.328 0.472,28.249 12.563,28.209c4.813,-0.026 9.954,-0.799 11.41,-1.731c3.436,-2.177 1.167,-8.091 -4.197,-10.95c-3.541,-1.902 -3.973,-3.607 -2.898,-11.397c1.823,-13.324 5.495,-18.99 21.652,-33.377c7.948,-7.081 18.78,-19.435 24.065,-27.462c13.718,-20.812 21.994,-21.77 54.413,-6.321c26.596,12.669 33.337,14.885 49.586,16.328l14.518,1.285l0.564,24.892c0.538,24.039 1.574,28.93 9.429,44.616c2.741,5.481 10.322,7.567 19.318,5.311c6.584,-1.653 6.243,-6.466 -0.774,-10.925c-8.734,-5.56 -9.14,-6.754 -7.96,-23.435c1.652,-23.397 7.515,-41.626 17.587,-54.675c6.373,-8.262 9.258,-14.413 10.95,-23.396c3.594,-19.082 11.83,-43.252 16.407,-48.17c4.616,-4.945 11.331,-5.574 23.448,-2.217c9.495,2.636 16.486,1.246 22.125,-4.38c6.36,-6.361 4.957,-9.81 -6.282,-15.501c-7.095,-3.607 -10.374,-6.545 -10.374,-9.299c0,-2.216 -3.777,-7.659 -8.38,-12.078c-7.593,-7.305 -8.17,-8.577 -6.229,-13.705c1.18,-3.108 2.111,-8.157 2.072,-11.226l-0.092,-5.561l-6.138,7.174l-6.137,7.187l-0,-7.699Z"/></svg>