<?xml version="1.0" encoding="UTF-8" standalone="no"?><!DOCTYPE svg PUBLIC "-//W3C//DTD SVG 1.1//EN" "http://www.w3.org/Graphics/SVG/1.1/DTD/svg11.dtd"><svg width="100%" height="100%" viewBox="0 0 308 209" version="1.1" xmlns="http://www.w3.org/2000/svg" xmlns:xlink="http://www.w3.org/1999/xlink" xml:space="preserve" xmlns:serif="http://www.serif.com/" style="fill-rule:evenodd;clip-rule:evenodd;stroke-linejoin:round;stroke-miterlimit:2;"><path id="M07-EBULLDOG" d="M260.643,2.072c-10.359,-2.619 -17.863,-2.427 -36.517,0.951c-10.743,1.946 -15.585,5.142 -18.204,12.016c-0.973,2.565 -6.339,6.948 -12.016,9.834c-5.655,2.854 -13.426,7.975 -17.285,11.363c-4.458,3.913 -9.268,6.158 -13.17,6.158c-3.378,-0 -9.696,1.486 -14.046,3.303c-7.398,3.089 -9.6,3.014 -35.426,-1.304c-31.022,-5.174 -46.02,-4.714 -65.144,2.009c-6.574,2.309 -13.779,4.201 -16.002,4.201c-5.548,0 -13.544,7.943 -13.544,13.448c-0,2.491 -2.384,9.728 -5.292,16.078c-5.077,11.096 -5.227,12.539 -3.891,36.676c1.379,24.929 1.347,25.196 -4.094,33.139c-6.414,9.343 -6.414,9.385 -3.464,31.534c3.453,25.902 3.175,25.635 26.051,24.79c23.475,-0.866 26.394,-2.875 17.553,-12.133c-5.537,-5.794 -6.221,-7.675 -5.067,-14.046c1.988,-11.032 4.875,-15.351 16.377,-24.394c5.751,-4.522 13.02,-12.582 16.141,-17.916c5.645,-9.643 5.709,-9.675 14.635,-8.445c4.928,0.673 16.141,4.832 24.918,9.246c21.144,10.637 35.34,14.645 51.813,14.645l13.587,0l2.469,11.93c1.347,6.553 2.459,14.282 2.459,17.168c-0,2.886 1.689,7.44 3.752,10.134c2.074,2.694 4.351,6.521 5.077,8.52c2.106,5.761 11.374,8.103 26.223,6.617c7.418,-0.738 14.666,-2.074 16.109,-2.961c3.624,-2.245 1.999,-8.435 -2.929,-11.161c-8.701,-4.821 -9.097,-10.08 -2.961,-38.29c2.897,-13.277 5.73,-21.027 8.99,-24.533c6.745,-7.28 9.332,-13.042 8.039,-17.959c-0.674,-2.577 1.069,-7.975 4.404,-13.673c4.447,-7.589 6.628,-9.417 11.203,-9.417c3.132,-0 8.039,-1.85 10.903,-4.105c2.876,-2.256 8.082,-4.105 11.567,-4.105c8.306,0 21.764,-11.93 23.56,-20.866c1.935,-9.717 -8.103,-30.317 -15.521,-31.824c-3.421,-0.705 -5.1,-2.138 -4.458,-3.816c2.811,-7.344 -10.53,-18.697 -26.799,-22.812Z"/></svg>