<?xml version="1.0" encoding="UTF-8" standalone="no"?><!DOCTYPE svg PUBLIC "-//W3C//DTD SVG 1.1//EN" "http://www.w3.org/Graphics/SVG/1.1/DTD/svg11.dtd"><svg width="100%" height="100%" viewBox="0 0 251 209" version="1.1" xmlns="http://www.w3.org/2000/svg" xmlns:xlink="http://www.w3.org/1999/xlink" xml:space="preserve" xmlns:serif="http://www.serif.com/" style="fill-rule:evenodd;clip-rule:evenodd;stroke-linejoin:round;stroke-miterlimit:2;"><path id="M08-LAIKA" d="M213.775,4.033c-2.203,-5.793 -4.944,-4.98 -10.473,3.116c-2.293,3.363 -5.281,6.114 -6.634,6.114c-4.277,-0 -19.693,8.626 -21.52,12.044c-0.96,1.791 -4.186,4.277 -7.174,5.51c-3.235,1.344 -5.062,3.171 -4.542,4.542c0.494,1.27 -1.644,4.432 -4.733,7.037c-3.089,2.595 -5.611,5.976 -5.611,7.502c-0.009,1.526 -2.54,4.368 -5.638,6.314c-3.098,1.947 -5.657,4.387 -5.703,5.41c-0.036,1.024 -4.212,3.683 -9.275,5.904c-8.38,3.682 -10.783,3.938 -26.72,2.86c-9.622,-0.658 -17.847,-1.535 -18.267,-1.956c-0.421,-0.42 -0.658,-3.472 -0.53,-6.789c0.164,-4.387 -1.124,-7.466 -4.743,-11.341c-2.814,-3.006 -4.121,-5.611 -3.016,-5.985c3.29,-1.115 -8.9,-6.479 -15.059,-6.626c-3.19,-0.073 -4.807,-0.539 -3.601,-1.023c1.207,-0.484 2.193,-1.608 2.193,-2.495c0,-2.449 -9.896,-1.919 -16.622,0.896c-4.459,1.855 -6.205,1.974 -6.844,0.438c-0.53,-1.279 -2.623,-0.137 -5.483,2.998c-3.445,3.765 -5.127,4.55 -6.607,3.07c-3.436,-3.436 -4.798,-2.202 -4.798,4.35c0,5.547 -0.457,6.232 -3.619,5.401c-4.103,-1.07 -6.725,3.18 -3.774,6.131c1.289,1.289 0.439,3.089 -2.842,5.986c-3.564,3.162 -4.13,4.505 -2.403,5.647c1.828,1.206 1.736,1.956 -0.439,3.765c-3.097,2.568 -3.637,7.082 -0.84,7.082c1.115,0 1.389,1.517 0.685,3.729c-0.649,2.047 -0.347,4.24 0.676,4.879c1.261,0.777 1.051,2.541 -0.639,5.483c-5.492,9.504 -8.307,16.943 -8.965,23.632c-0.813,8.334 2.668,25.441 5.19,25.441c0.969,-0 1.307,0.466 0.741,1.023c-0.567,0.567 0.95,4.944 3.353,9.741c3.436,6.836 4.039,9.742 2.788,13.452c-0.869,2.604 -1.015,6.707 -0.311,9.12c0.703,2.412 1.352,8.754 1.453,14.082c0.247,13.771 3.317,17.499 14.42,17.499c11.423,0 16.275,-2.44 13.853,-6.972c-0.977,-1.828 -3.353,-3.82 -5.291,-4.432c-4.203,-1.334 -4.587,-7.174 -1.041,-15.672c1.626,-3.893 6.223,-8.453 13.46,-13.369c6.041,-4.103 15.261,-11.88 20.488,-17.272c8.873,-9.156 9.659,-9.595 11.871,-6.57c1.297,1.773 3.152,2.742 4.121,2.148c1.563,-0.969 12.099,3.902 16.96,7.84c0.996,0.804 3.363,1.234 5.264,0.95c3.856,-0.575 9.294,2.011 12.565,5.977c1.627,1.965 2.184,2.056 2.23,0.338c0.045,-1.764 0.959,-1.654 3.957,0.439c4.231,2.97 9.193,3.71 7.603,1.142c-1.654,-2.687 5.647,-0 8.398,3.079c1.416,1.591 4.304,8.59 6.406,15.545c2.604,8.644 4.852,12.976 7.091,13.689c1.791,0.575 3.774,2.641 4.395,4.587c0.622,1.956 1.572,3.107 2.12,2.559c0.549,-0.549 2.056,-0.11 3.345,0.959c1.297,1.078 2.358,1.417 2.358,0.768c-0,-0.658 1.754,0.036 3.902,1.535c3.892,2.732 16.147,3.683 21.392,1.663c5.611,-2.147 1.983,-11.212 -4.487,-11.212c-1.681,-0 -3.545,-0.805 -4.158,-1.782c-1.9,-3.08 -1.407,-30.897 0.613,-34.378c1.06,-1.819 1.955,-2.66 1.983,-1.855c0.027,0.804 3.125,-0.969 6.89,-3.948c3.756,-2.97 7.703,-5.41 8.772,-5.41c1.06,0 1.938,-0.758 1.938,-1.69c-0,-0.933 2.367,-4.122 5.263,-7.083c2.897,-2.96 5.264,-6.597 5.264,-8.078c-0,-2.75 5.218,-9.147 5.318,-6.524c0.119,3.152 5.209,-5.602 5.218,-8.983c0.009,-1.983 1.088,-5.675 2.404,-8.197c1.316,-2.522 2.156,-7.85 1.873,-11.843c-0.283,-3.985 0.219,-7.256 1.106,-7.256c2.622,-0 1.873,-3.783 -2.696,-13.598l-4.286,-9.211l7.786,-0c6.04,-0 8.964,-1.078 13.068,-4.825c2.915,-2.65 5.492,-6.707 5.729,-9.01c0.375,-3.528 -0.813,-4.642 -7.484,-7.018c-10.39,-3.711 -12.282,-5.072 -11.149,-8.033c1.682,-4.377 -4.852,-15.014 -11.614,-18.907c-4.204,-2.421 -6.269,-4.752 -5.794,-6.543c0.402,-1.535 -0.082,-4.925 -1.078,-7.53Z"/></svg>