<?xml version="1.0" encoding="UTF-8" standalone="no"?><!DOCTYPE svg PUBLIC "-//W3C//DTD SVG 1.1//EN" "http://www.w3.org/Graphics/SVG/1.1/DTD/svg11.dtd"><svg width="100%" height="100%" viewBox="0 0 308 231" version="1.1" xmlns="http://www.w3.org/2000/svg" xmlns:xlink="http://www.w3.org/1999/xlink" xml:space="preserve" xmlns:serif="http://www.serif.com/" style="fill-rule:evenodd;clip-rule:evenodd;stroke-linejoin:round;stroke-miterlimit:2;"><path id="M09-BORDER" d="M113.95,224.796c-0.864,-3.659 -4.735,-6.415 -7.864,-7.266c-14.814,-4.025 -20.083,-18.343 -8.408,-28.852c1.1,-0.985 1.733,-2.595 2.875,-3.479c13.522,-10.462 25.864,-21.848 27.051,-42.276c8.623,2.448 18.947,-0.622 24.019,4.483c5.769,5.809 29.884,17.47 36.699,17.562c6.4,0.088 6.247,5.346 7.774,8.689c4.653,10.19 16.754,39.18 20.144,52.451c0.671,2.629 6.707,3.886 6.707,3.886l18.072,0.035c-0,0 3.465,-4.012 2.704,-5.816c-2.63,-6.231 -8.645,-3.231 -11.969,-6.982c-1.981,-2.237 -4.957,-6.174 -6.203,-8.491c-6.555,-12.188 3.216,-47.405 15.438,-50.874c7.986,-2.268 12.473,-6.264 15.919,-13.173c1.806,-3.619 10.621,-22.441 10.51,-41.805c-0.037,-6.307 -2.17,-12.855 -1.86,-18.851c0.431,-8.264 4.959,-14.023 12.641,-14.039c5.661,-0.013 11.567,2.571 16.897,0.84c3.775,-1.227 7.404,-4.785 9.95,-8.296c3.246,-4.477 3.285,-9.02 -2.971,-11.53c-4.226,-1.698 -8.241,-4.176 -12.099,-6.751c-1.931,-1.29 -4.49,-3.411 -4.726,-5.44c-1.228,-10.538 -8.366,-14.501 -15.749,-18.51c-2.478,-1.345 -8.438,-2.272 -7.075,-4.71c1.363,-2.437 13.143,-4.1 15.253,-9.916c0.469,-1.289 -0.033,-3.168 -1.043,-4.002c-3.216,-2.654 -8.109,0.471 -12.07,-0.092c-10.745,-1.525 -19.168,1.499 -26.372,11.193c-7.054,9.494 -15.612,17.685 -23.789,26.119c-3.136,3.23 -14.557,16.923 -16.434,18.465c-3.446,2.824 -7.437,5.02 -11.457,6.761c-1.778,0.772 -11.738,4.968 -14.813,5.24c-7.829,0.69 -15.765,0.998 -23.59,0.409c-29.041,-2.196 -56.606,3.439 -82.64,17.702c-11.442,6.264 -19.061,16.933 -24.19,29.13c-5.847,13.912 -11.068,28.342 -14.766,43.085c-4.289,17.094 -12.255,29.37 -25.359,40.736c-1.873,1.624 -0.693,2.567 -0.351,2.93c9.628,10.218 33.033,0.5 39.86,2.24c2.257,0.576 -0.447,7.872 1.587,7.41c2.034,-0.462 8.095,-6.48 10.617,-10.182c8.399,-12.315 6.056,-27.088 5.303,-42.253c-0.559,-11.265 1.931,-31.021 4.331,-29.625c2.4,1.396 8.142,26.679 10.067,37.999c0.962,5.665 -0.084,12.345 -2,17.817c-1.817,5.194 -2.43,9.108 0.589,13.788c4.406,6.83 8.785,13.748 12.461,21.06c2.933,5.838 10.153,8.379 10.153,8.379l15.842,-0c0,-0 1.828,-0.885 3.363,-2.259c1.068,-0.956 1.004,-2.278 0.972,-2.939" style="fill-rule:nonzero;"/></svg>