<?xml version="1.0" encoding="UTF-8" standalone="no"?><!DOCTYPE svg PUBLIC "-//W3C//DTD SVG 1.1//EN" "http://www.w3.org/Graphics/SVG/1.1/DTD/svg11.dtd"><svg width="100%" height="100%" viewBox="0 0 290 230" version="1.1" xmlns="http://www.w3.org/2000/svg" xmlns:xlink="http://www.w3.org/1999/xlink" xml:space="preserve" xmlns:serif="http://www.serif.com/" style="fill-rule:evenodd;clip-rule:evenodd;stroke-linejoin:round;stroke-miterlimit:2;"><path id="M10-AKITA" d="M245.793,1.578c-2.285,-2.285 -4.36,-1.259 -12.392,6.143c-4.395,4.057 -8.814,7.38 -9.816,7.38c-5.456,-0 -25.052,15.831 -36.71,29.645c-12.485,14.805 -13.733,15.749 -26.743,20.144c-12.065,4.08 -16.74,4.605 -40.393,4.617c-28.107,-0 -56.656,-1.609 -58.346,-3.299c-1.994,-1.994 3.229,-8.674 7.659,-9.793c3.45,-0.863 6.12,0.245 11.074,4.593c10.772,9.455 25.356,7.053 26.824,-4.406c1.178,-9.222 -2.284,-16.601 -10.748,-22.896c-15.738,-11.692 -34.751,-11.273 -51.643,1.154c-11.25,8.277 -16.997,29.296 -11.378,41.63c1.69,3.707 1.119,5.782 -3.73,13.429c-8.499,13.383 -10.084,21.135 -9.734,47.353c0.174,12.94 -0.537,25.752 -1.574,28.48c-1.038,2.728 -5.083,8.428 -8.988,12.66c-7.041,7.624 -7.111,7.869 -8.429,27.151c-0.722,10.701 -0.769,20.354 -0.081,21.461c1.795,2.915 35.641,2.472 35.589,-0.466c-0.203,-11.665 -12.93,-11.807 -12.554,-17.632c0.846,-13.101 7.276,-27.541 34.297,-37.066c10.03,-3.535 15.901,-17.976 18.839,-23.047c3.882,-6.714 6.609,-9.372 10.013,-9.78c2.577,-0.315 12.987,2.786 23.129,6.878c20.786,8.381 45.651,14.851 57.122,14.875c8.744,0.011 8.033,-1.854 11.705,30.438c1.037,9.128 2.669,18.256 3.625,20.284c0.944,2.028 2.973,6.808 4.488,10.608c2.74,6.89 2.787,6.913 13.558,6.913c13.29,0 18.524,-3.031 15.377,-8.906c-1.178,-2.203 -3.335,-3.999 -4.78,-3.999c-7.624,0 -7.986,-23.117 -0.804,-51.188c2.949,-11.495 4.989,-15.318 12.718,-23.77c5.654,-6.19 10.037,-13.068 11.343,-17.813c2.984,-10.83 16.437,-46.001 18.629,-48.717c1.142,-1.411 5.968,-2.098 12.916,-1.842c10.807,0.385 11.262,0.21 17.347,-6.82c3.439,-3.975 6.26,-8.218 6.26,-9.419c0,-1.212 -4.57,-5.234 -10.154,-8.941c-8.113,-5.386 -10.142,-7.729 -10.142,-11.693c0,-3.054 -2.203,-7.239 -5.735,-10.877c-5.445,-5.618 -5.619,-6.26 -3.509,-12.66c1.224,-3.718 1.772,-7.216 1.2,-7.775c-0.559,-0.572 -3.963,0.711 -7.554,2.821l-6.54,3.859l0,-4.244c0,-2.331 -0.559,-4.791 -1.235,-5.467Z"/></svg>