<?xml version="1.0" encoding="UTF-8" standalone="no"?><!DOCTYPE svg PUBLIC "-//W3C//DTD SVG 1.1//EN" "http://www.w3.org/Graphics/SVG/1.1/DTD/svg11.dtd"><svg width="100%" height="100%" viewBox="0 0 308 237" version="1.1" xmlns="http://www.w3.org/2000/svg" xmlns:xlink="http://www.w3.org/1999/xlink" xml:space="preserve" xmlns:serif="http://www.serif.com/" style="fill-rule:evenodd;clip-rule:evenodd;stroke-linejoin:round;stroke-miterlimit:2;"><path id="M11-SCHNAUZER" d="M259.421,62.795c0.724,0.228 1.596,2.564 2.036,3.608c0.628,1.493 1.109,3.027 1.589,4.556c0.287,0.912 3.228,11.324 5.34,15.362c1.106,2.116 2.771,4.116 4.605,5.879c1.382,1.327 3.329,4.178 5.334,3.352c3.109,-1.281 9.893,-8.578 13.323,-11.037c0.777,-0.557 4.935,-3.804 5.186,-4.16c1.839,-2.618 3.749,-5.214 5.356,-7.925c0.651,-1.099 2.765,-10.486 4.369,-13.653c1.982,-3.918 1.844,-5.748 -2.525,-8.146c-4.785,-2.627 -9.782,-4.999 -14.658,-7.518c-1.126,-0.582 -5.518,-3.094 -3.201,-4.433c0.931,-0.538 6.828,-2.788 3.119,-5.003c-2.76,-1.647 -5.418,-3.411 -8.237,-4.989c-1.51,-0.847 -14.501,-5.942 -18.971,-8.316c-2.609,-1.386 -2.69,-3.775 -2.599,-6.032c0.173,-4.289 -0.446,-13.253 -2.289,-13.729c-1.843,-0.476 -5.77,7.287 -8.768,10.873c-2.778,3.325 -8.447,12.005 -9.231,12.506c-5.234,3.341 -10.557,6.589 -15.805,9.915c-5.499,3.487 -9.372,8.064 -13.073,12.785c-3.786,4.83 -7.771,9.558 -11.735,14.294c-2.573,3.073 -6.214,4.966 -10.514,6.199c-10.891,3.123 -21.631,6.629 -32.651,9.412c-6.401,1.618 -13.177,2.467 -19.867,3.088c-17.63,1.637 -35.312,2.905 -52.958,4.43c-9.352,0.807 -18.754,1.499 -27.975,2.92c-4.684,0.724 -8.858,1.385 -13.259,-0.581c-2.615,-1.168 -36.986,-37.33 -40.571,-32.363c-2.129,2.95 33.201,36.999 34.161,38.463c0.735,1.118 1.484,2.316 2.59,3.169c2.079,1.606 2.322,3.153 1.086,5.251c-6.047,10.26 -6.238,21.356 -6.996,32.399c-0.571,8.328 -0.837,16.85 -4.817,24.626c-3.453,6.747 -7.539,13.4 -15.418,17.877c-2.451,1.393 -4.635,3.502 -5.966,5.674c-1.522,2.486 -2.111,5.382 -2.814,8.149c-0.52,2.046 -0.556,4.168 -0.841,6.254c-0.234,1.716 -0.697,3.423 -0.74,5.139c-0.115,4.968 0.233,9.952 -0.181,14.899c-0.354,4.238 0.829,8.188 2.084,12.178c1.056,3.361 10.42,8.643 10.42,8.643l15.506,-0c0,-0 9.598,-0.522 10.791,-1.958c0.824,-0.991 0.351,-5.236 0,-6.478c-0.903,-3.196 -7.714,-9.434 -9.311,-12.452c-4.322,-8.157 0.367,-17.192 7.431,-23.64c0.378,-0.345 17.075,-14.632 25.138,-21.358c9.96,-8.307 25.088,-12.68 31.851,-22.892c2.49,-3.761 6.541,-4.504 10.544,-4.294c6.988,0.368 14.163,0.979 20.784,2.693c9.684,2.506 18.896,6.19 28.415,9.144c4.838,1.501 9.879,2.604 14.897,3.681c1.89,0.405 8.698,1.015 8.718,2.572c0.08,6.515 6.272,56.76 6.31,59.207c0.104,6.582 8.985,15.775 8.985,15.775l26.56,-0c-0,-0 5.961,0.155 7.623,-4.767c0.363,-1.076 0.224,-3.011 -0,-3.876c-0.613,-2.362 -3.041,-4.113 -4.84,-5.873c-3.314,-3.243 -4.837,-6.65 -5.095,-10.804c-0.472,-7.601 -1.791,-15.173 -2.08,-22.773c-0.46,-12.097 0.786,-24.131 3.385,-36.064c1.138,-5.228 5.808,-8.938 8.63,-13.442c3.371,-5.378 7.362,-10.514 10.456,-15.991c3.237,-5.732 2.385,-11.99 2.209,-18.114c-0.043,-1.559 0.107,-3.195 0.645,-4.682c2.811,-7.774 5.481,-15.595 8.806,-23.228c1.844,-4.232 4.851,-8.133 7.394,-12.16c0.379,-0.601 1.585,-2.469 2.31,-2.241Z" style="fill-rule:nonzero;"/></svg>