<?xml version="1.0" encoding="UTF-8" standalone="no"?><!DOCTYPE svg PUBLIC "-//W3C//DTD SVG 1.1//EN" "http://www.w3.org/Graphics/SVG/1.1/DTD/svg11.dtd"><svg width="100%" height="100%" viewBox="0 0 308 230" version="1.1" xmlns="http://www.w3.org/2000/svg" xmlns:xlink="http://www.w3.org/1999/xlink" xml:space="preserve" xmlns:serif="http://www.serif.com/" style="fill-rule:evenodd;clip-rule:evenodd;stroke-linejoin:round;stroke-miterlimit:2;"><path id="M12-STAFORD" d="M98.904,135.819c-17.569,4.045 -10.853,38.353 -58.354,46.031c-7.424,1.199 -11.744,9.425 -17.019,14.781c-4.482,4.55 -6.932,10.49 -6.809,17.21c0.026,1.39 0.155,2.905 0.712,4.135c1.508,3.305 9.773,4.646 5.747,11.488c-0.069,0.119 -2.354,0.346 -2.354,0.346l-13.49,-0.035c-0,0 -3.586,-2.881 -5.864,-4.03c-1.233,-0.622 -0.326,-2.871 -0,-4.246c0.395,-1.666 1.627,-3.815 2.372,-5.752c4.282,-11.138 8.487,-22.31 12.877,-33.406c0.584,-1.472 1.823,-2.951 3.143,-3.778c7.245,-4.534 13.607,-9.816 16.885,-18.271c0.784,-2.023 3.572,-3.4 3.493,-5.576c-1.801,-49.33 7.55,-31.724 15.287,-61.357c1.404,-5.376 -22.088,-8.918 -25.55,-10.617c-6.735,-3.304 -29.004,-18.998 -29.135,-20.041c-0.331,-2.629 16.294,4.983 18.135,6.099c3.934,2.389 23.007,11.349 35.394,11.737c15.218,0.478 44.328,-9.751 55.911,-8.874c12.689,0.956 46.283,-0.625 50.113,-2.063c12.033,-4.529 24.388,-8.553 34.434,-17.207c4.869,-4.194 9.458,-8.796 13.753,-13.617c9.872,-11.083 20.615,-21.016 33.152,-28.837c0.963,-0.596 1.642,-2.146 1.905,-3.375c0.921,-4.384 2.84,-6.152 7.271,-6.18c2.354,-0.015 4.714,0.151 7.063,0.043c2.145,-0.095 3.358,0.883 3.802,2.939c0.805,3.736 3.138,5.362 6.687,6.204c2.48,0.584 4.798,2.155 7.006,3.585c1.982,1.276 3.865,2.807 5.501,4.519c1.094,1.144 2.143,2.715 2.393,4.234c0.45,2.72 1.66,4.47 4.128,5.33c4.804,1.685 9.643,3.268 14.42,5.027c1.982,0.732 4.622,0.898 5.758,2.736c0.068,0.108 0.256,1.012 0.256,1.888c-0,1.048 -0.206,2.13 -0.256,2.361c-0.558,2.613 -2.328,4.796 -3.255,7.286c-1.907,5.14 -5.247,8.51 -10.62,9.272c-5.117,0.726 -9.605,4.277 -15.044,3.477c-0.581,-0.086 -1.227,0.074 -1.755,-0.129c-6.264,-2.389 -30.399,4.642 -32.694,7.689c-6.425,8.531 -10.826,17.788 -12.009,28.751c-1.821,16.811 -7.391,32.115 -19.058,44.529c-3.006,3.197 -3.978,7.295 -5.28,11.316c-2.48,7.643 -5.242,15.181 -7.724,22.824c-1.082,3.327 -2.045,6.755 -2.471,10.216c-0.155,1.258 -3.434,7.759 -3.379,11.889c0.07,5.283 -1.067,16.291 3.799,19.811c1.681,1.214 3.499,2.244 5.165,3.48c1.976,1.46 3.67,4.631 4.307,7.233c0.446,1.82 -5.325,2.881 -5.325,2.881l-13.272,0c0,0 -2.401,-3.251 -4.025,-4.873c-1.511,-1.509 -1.637,-5.921 -2.11,-8.362c-0.444,-2.265 -0.489,-4.611 -0.745,-6.917c-0.388,-3.511 -0.873,-6.914 -3.022,-9.961c-0.796,-1.125 -0.811,-3.255 -0.45,-4.74c1.037,-4.289 2.068,-22.08 2.312,-24.118c1.026,-8.559 4.186,-21.73 3.576,-25.966c-0.354,-2.467 -29.26,8.833 -46.149,-0c-8.002,-4.185 -32.296,-10.687 -39.539,-9.019Z"/></svg>