<?xml version="1.0" encoding="UTF-8" standalone="no"?><!DOCTYPE svg PUBLIC "-//W3C//DTD SVG 1.1//EN" "http://www.w3.org/Graphics/SVG/1.1/DTD/svg11.dtd"><svg width="100%" height="100%" viewBox="0 0 249 237" version="1.1" xmlns="http://www.w3.org/2000/svg" xmlns:xlink="http://www.w3.org/1999/xlink" xml:space="preserve" xmlns:serif="http://www.serif.com/" style="fill-rule:evenodd;clip-rule:evenodd;stroke-linejoin:round;stroke-miterlimit:2;"><path id="M13-BOXER" d="M162.904,157.46c-4.563,-3.131 -13.683,-4.159 -16.835,-4.862c-5.645,-1.258 -28.697,-9.948 -35.221,-10.35c-8.119,-0.501 -25.984,-0.161 -26.523,0.302c-0.527,0.453 -8.817,3.918 -10.244,8.813c-1.46,5.009 -3.559,10.199 -9.73,16.295c-8.112,8.014 -24.3,16.25 -24.813,16.601c-3.674,2.511 -7.216,5.203 -10.795,7.843c-7.748,5.714 -16.055,11.632 -16.683,22.078c-0.156,2.585 0.251,5.195 0.781,7.733c0.459,2.196 2.286,5.154 4.294,6.333c2.797,1.643 7.316,1.138 8.268,5.034c0.646,2.64 -2.706,3.513 -2.706,3.513l-16.502,0.017c0,0 -1.885,-1.906 -2.719,-3.489c-1.647,-3.126 -2.2,-5.751 -2.405,-9.243c-0.704,-11.993 -1.017,-19.855 0.727,-31.787c0.104,-0.71 0.759,-1.246 1.289,-1.738c4.595,-4.273 9.446,-8.273 14.056,-12.531c4.546,-4.2 8.141,-11.091 11.6,-16.46c4.255,-6.606 -3.34,-42.753 10.795,-54.81c2.332,-1.99 10.543,-9.469 10.059,-13.85c-0.233,-2.112 -4.232,-8.533 -4.424,-8.998c-2.686,-6.506 -1.293,-13.551 2.284,-19.37c0.61,-0.993 2.784,-3.342 4.012,-3.538c5.054,-0.81 2.462,7.118 2.25,8.679c-0.806,5.92 -1.121,13.046 5.563,15.826c3.952,1.644 9.722,-1.39 13.339,-2.052c3.317,-0.607 6.702,-0.78 10.037,-1.275c23.737,-3.521 46.518,-6.453 68.897,-15.126c16.18,-6.27 18.336,-26.819 27.483,-39.294c2.092,-2.852 4.619,-5.403 7.302,-7.723c1.744,-1.508 5.932,-2.161 7.344,-4.266c2.277,-3.394 0.227,-5 1.704,-8.394c0.675,-1.551 3.086,-2.701 4.504,-3.259c3.281,-1.291 10.55,-4.83 14.715,-3.014c4.989,2.175 5.65,4.585 9.749,7.891c4.902,3.955 7.005,3.624 11.169,8.861c2.304,2.898 -1.428,9.612 2.025,11.83c3.054,1.961 3.572,-0.59 6.932,0.916c1.032,0.463 1.617,3.208 1.847,3.991c1.613,5.503 2.431,6.668 2.161,12.488c-0.296,6.414 -3.92,6.911 -9.409,9.319c-5.757,2.526 -10.549,5.561 -16.992,4.269c-3.192,-0.64 -11.441,-5.834 -13.678,-0.794c-0.566,1.276 -0.841,2.692 -0.892,4.084c-0.291,8.017 0.991,7.841 1.597,15.891c1.094,14.53 2.05,29.026 -0.851,43.401c-0.943,4.672 -2.776,9.744 -5.18,13.885c-2.373,4.087 -6.601,8.405 -8.491,12.804c-4.988,11.612 -4.199,26.249 -4.064,38.301c0.048,4.237 0.483,8.462 0.615,12.697c0.264,8.514 -0.55,14.438 3.963,22.072c2.716,4.594 6.446,2.568 10.462,5.818c0.442,0.358 2.101,6.254 1.221,7.218c-0.445,0.486 -3.706,0.77 -3.706,0.77l-11.94,0c-0,0 -3.577,-1.071 -5.577,-2.264c-1.986,-1.184 -2.355,-2.548 -3.164,-4.928c-6.521,-19.182 -5.707,-46.205 -8.957,-58.232c-1.513,-5.597 -5.98,-10.794 -10.543,-13.926Z" style="fill-rule:nonzero;"/></svg>