<?xml version="1.0" encoding="UTF-8" standalone="no"?><!DOCTYPE svg PUBLIC "-//W3C//DTD SVG 1.1//EN" "http://www.w3.org/Graphics/SVG/1.1/DTD/svg11.dtd"><svg width="100%" height="100%" viewBox="0 0 308 230" version="1.1" xmlns="http://www.w3.org/2000/svg" xmlns:xlink="http://www.w3.org/1999/xlink" xml:space="preserve" xmlns:serif="http://www.serif.com/" style="fill-rule:evenodd;clip-rule:evenodd;stroke-linejoin:round;stroke-miterlimit:2;"><path id="M14-VISZLA" d="M297.878,35.943c-1.558,0.873 -3.185,1.396 -13.886,2.603c-6.722,0.76 -13.269,0.378 -16.111,1.565c-1.749,0.73 0.514,4.331 -0.942,5.555c-2.668,2.236 -7.61,-2.076 -12.299,-1.47c-9.589,1.245 -18.381,23.117 -17.439,43.817c0.613,13.477 5.018,19.091 0.894,29.767c-1.776,4.602 -3.624,6.22 -6.931,14.884c-2.242,5.875 -2.739,8.653 -5.588,15.725c-2.479,6.141 -3.062,6.431 -4.698,10.48c-2.24,5.553 -3.31,12.374 -5.364,25.785c-0.081,0.527 -2.108,28.581 -0,30.386c2.849,2.443 8.509,0.361 11.81,4.81c1.386,1.868 2.096,4.92 2.236,5.647c0.377,1.994 -1.342,4.313 -1.342,4.313l-14.451,0c0,0 -6.334,-5.107 -8.091,-8.467c-1.847,-3.533 -1.275,-25.516 -2.226,-36.689c-1.779,-20.933 -1.114,-29.725 -7.166,-34.798c-5.233,-4.392 -7.82,-1.446 -24.37,-5.871c-15.379,-4.112 -15.92,-7.398 -32.644,-12.158c-13.877,-3.952 -21.105,-5.907 -29.289,-3.144c-4.569,1.538 -8.785,5.008 -17.217,11.947c-9.297,7.653 -23.183,23.703 -30.377,29.415c-11.321,8.986 -13.68,9.522 -19.706,17.819c-3.044,4.191 -6.852,10.959 -8.703,22.851c-0.736,4.715 -0.296,6.001 0.999,6.909c1.657,1.163 1.672,1.084 3.709,2.226c5.728,3.212 5.59,4.786 4.418,7.186c-1.101,2.254 -4.418,2.774 -4.418,2.774l-11.8,0c-0,0 -2.544,-1.452 -4.197,-3.962c-1.995,-3.031 0.637,-24.345 1.686,-29.181c3.221,-14.823 5.173,-12.779 12.078,-25.365c6.509,-11.868 11.291,-30.45 14.054,-44.716c2.96,-15.299 13.249,-20.156 9.837,-27.255c-2.284,-4.751 -8.866,-6.665 -17.663,-9.224c-7.562,-2.197 -8.991,-1.18 -18.332,-3.144c-6.358,-1.334 -20.752,-8.271 -23.704,-10.9c-2.227,-1.985 3.388,-5.126 3.58,-5.242c5.463,-3.307 11.533,6.177 26.158,8.596c6.022,0.994 25.942,5.987 33.986,7.336c6.59,1.106 10.935,-0.302 19.003,-2.094c11.18,-2.485 25.637,-3.964 54.558,-6.919c18.417,-1.884 19.048,-1.236 27.053,-2.934c14.843,-3.151 25.643,-5.44 33.983,-13.628c2.063,-2.026 6.919,-11.371 16.548,-29.979c4.362,-8.434 5.337,-10.493 8.046,-13.835c3.059,-3.772 10.415,-12.592 23.03,-15.722c3.311,-0.822 9.121,-2.263 15.43,-0.21c6.01,1.955 6.871,5.262 11.626,8.383c12.702,8.342 27.249,-1.68 32.419,4.615c4.127,5.025 -3.903,17.448 -8.187,21.513" style="fill-rule:nonzero;"/></svg>