<?xml version="1.0" encoding="UTF-8" standalone="no"?><!DOCTYPE svg PUBLIC "-//W3C//DTD SVG 1.1//EN" "http://www.w3.org/Graphics/SVG/1.1/DTD/svg11.dtd"><svg width="100%" height="100%" viewBox="0 0 308 221" version="1.1" xmlns="http://www.w3.org/2000/svg" xmlns:xlink="http://www.w3.org/1999/xlink" xml:space="preserve" xmlns:serif="http://www.serif.com/" style="fill-rule:evenodd;clip-rule:evenodd;stroke-linejoin:round;stroke-miterlimit:2;"><path id="M15-BERGER" d="M266.184,3.932c-2.61,-4.878 -3.198,-4.536 -6.52,3.767c-3.236,8.085 -6.168,9.547 -6.168,3.084c0,-2.315 -1.177,-5.798 -2.619,-7.743c-2.325,-3.132 -2.923,-3.227 -5.191,-0.807c-1.414,1.499 -4.906,8.474 -7.763,15.487c-2.856,7.013 -7.829,15.753 -11.055,19.425c-3.227,3.673 -6.871,8.589 -8.104,10.933c-5.295,10.097 -13.675,18.448 -22.481,22.405c-19.407,8.73 -23.848,9.451 -66.798,10.951c-39.534,1.385 -55.04,6.13 -68.649,21.01c-4.735,5.181 -17.043,28.374 -15.743,29.674c0.465,0.465 -0.351,3.616 -1.812,6.994c-1.728,4.043 -3.369,8.114 -4.916,12.232c-2.562,6.89 -13.703,14.871 -20.754,14.871c-7.449,-0 -15.601,8.74 -16.854,18.068c-0.93,6.918 -0.664,7.886 1.87,6.909c1.632,-0.627 3.454,-0.333 4.052,0.645c0.607,0.968 2.05,1.177 3.217,0.455c1.167,-0.721 3.369,-1.48 4.887,-1.689c1.518,-0.209 4.403,-0.778 6.406,-1.281c11.264,-2.78 11.729,-2.467 9.736,6.434c-2.23,9.917 -0.342,21.01 3.976,23.326c4.394,2.344 15.649,2.296 20.118,-0.095c4.593,-2.458 4.47,-6.149 -0.313,-9.329c-3.644,-2.41 -3.701,-2.884 -1.101,-9.11c2.382,-5.712 5.447,-9.224 8.579,-9.869c0.503,-0.095 2.145,-0.702 3.644,-1.338c8.379,-3.54 13.798,-5.466 14.813,-5.276c0.636,0.123 2.61,-1.386 4.385,-3.35c1.774,-1.964 4.574,-3.568 6.225,-3.568c1.651,-0 6.235,-3.692 10.192,-8.19c17.176,-19.549 15.326,-18.144 21.076,-15.971c3.92,1.471 5.267,1.443 5.286,-0.142c0.019,-1.196 0.788,-0.93 1.794,0.617c0.968,1.499 1.784,2.021 1.793,1.148c0.019,-0.883 1.224,-0.608 2.686,0.607c1.452,1.215 3.502,1.67 4.555,1.025c1.044,-0.645 1.898,-0.313 1.898,0.75c-0,1.053 1.812,1.641 4.023,1.3c2.221,-0.342 5.637,0.882 7.602,2.714c2.543,2.363 4.223,2.78 5.826,1.442c1.576,-1.3 2.657,-1.252 3.521,0.162c0.693,1.119 2.306,1.632 3.587,1.138c1.281,-0.493 3.227,0.01 4.337,1.111c1.101,1.11 5.39,2.22 9.518,2.476c8.712,0.551 9.072,0.788 9.765,6.463c0.285,2.344 1.452,7.649 2.6,11.777c1.139,4.137 2.363,9.973 2.714,12.982c0.683,5.893 8.807,17.764 14.083,20.583c7.098,3.805 29.029,0.493 28.962,-4.366c-0.038,-3.179 -2.258,-5.874 -6.804,-8.265c-3.53,-1.86 -4.099,-3.616 -4.099,-12.783c-0,-17.717 3.017,-29.389 9.129,-35.368c2.999,-2.932 5.447,-5.997 5.447,-6.804c-0,-0.816 1.025,-2.562 2.277,-3.881c4.736,-5.011 11.853,-20.944 12.868,-28.83c2.221,-17.176 6.956,-41.052 8.446,-42.542c0.854,-0.854 5.229,0.607 9.746,3.245c10.638,6.235 15.544,5.163 18.477,-4.061c0.692,-2.211 2.438,-4.014 3.862,-4.014c3.16,-0 12.299,-14.007 10.761,-16.512c-0.607,-0.978 -6.14,-4.328 -12.279,-7.421c-9.822,-4.963 -10.79,-5.912 -8.067,-7.905c1.708,-1.253 3.103,-2.686 3.103,-3.189c0,-0.512 -4.915,-3.264 -10.932,-6.121l-10.932,-5.19l0,-8.835c0,-4.859 -0.844,-10.42 -1.888,-12.365Z"/></svg>