<?xml version="1.0" encoding="UTF-8" standalone="no"?><!DOCTYPE svg PUBLIC "-//W3C//DTD SVG 1.1//EN" "http://www.w3.org/Graphics/SVG/1.1/DTD/svg11.dtd"><svg width="100%" height="100%" viewBox="0 0 295 230" version="1.1" xmlns="http://www.w3.org/2000/svg" xmlns:xlink="http://www.w3.org/1999/xlink" xml:space="preserve" xmlns:serif="http://www.serif.com/" style="fill-rule:evenodd;clip-rule:evenodd;stroke-linejoin:round;stroke-miterlimit:2;"><path id="M16-SHARPEI" d="M244.74,2.089c2.193,0.622 4.754,1.766 5.691,2.543c0.936,0.782 3.817,2.015 6.389,2.75c6.277,1.79 10.456,5.257 11.588,9.638c0.806,3.117 1.701,3.811 6.555,5.115c9.265,2.489 17.593,6.105 18.577,8.067c0.752,1.499 0.942,15.44 0.296,21.54c-0.089,0.812 -3.586,4.795 -7.771,8.837c-6.277,6.064 -8.903,7.753 -14.919,9.608c-4.012,1.245 -8.559,2.259 -10.1,2.259c-3.704,-0 -7.201,1.95 -7.201,4.018c-0,0.919 -1.731,3.586 -3.841,5.933c-2.11,2.354 -4.197,5.916 -4.629,7.919c-0.439,2.004 -1.82,4.955 -3.077,6.55c-1.298,1.654 -2.708,5.898 -3.266,9.851c-0.586,4.155 -2.104,8.612 -3.775,11.09c-1.541,2.276 -3.124,6.49 -3.527,9.359c-0.741,5.281 -2.134,7.676 -10.349,17.752c-3.645,4.463 -5.815,9.265 -10.568,23.389c-5.056,15.002 -6.094,19.537 -6.68,29.079c-0.872,14.309 -0.243,16.858 4.629,18.891c6.692,2.797 9.738,9.679 5.328,12.038c-3.135,1.677 -25.036,1.47 -28.528,-0.273c-3.888,-1.938 -9.406,-19.619 -11.813,-37.822c-0.989,-7.515 -2.602,-16.353 -3.574,-19.631c-1.653,-5.571 -2.009,-5.963 -5.423,-6.004c-2.015,-0.018 -7.498,-0.753 -12.193,-1.624c-4.694,-0.866 -13.045,-2.395 -18.552,-3.385c-5.506,-0.995 -15.494,-3.894 -22.192,-6.443c-17.165,-6.531 -23.448,-8.268 -26.815,-7.426c-2.05,0.515 -4.86,3.621 -9.27,10.254c-8.091,12.157 -14.344,18.451 -26.856,27.022c-17.231,11.801 -21.475,17.337 -21.493,28.048c-0.005,2.875 0.611,3.959 2.691,4.748c3.314,1.262 7.546,6.46 7.546,9.276c-0,3.39 -3.734,4.439 -15.784,4.439c-12.608,0 -16.437,-0.966 -18.405,-4.635c-0.723,-1.357 -1.873,-11.333 -2.548,-22.156c-1.358,-21.711 -0.759,-26.169 4.356,-32.244c5.092,-6.052 7.546,-13.419 8.535,-25.636c2.33,-28.8 6.686,-45.444 15.453,-59.041c4.795,-7.427 4.979,-8.049 4.979,-16.579c-0,-11.913 2.448,-19.66 8.185,-25.884c7.232,-7.842 19.46,-10.503 30.698,-6.674c10.366,3.532 16.62,14.439 11.321,19.738c-3.041,3.04 -5.839,3.046 -9.691,0.017c-4.582,-3.603 -11.221,-4.143 -14.208,-1.155c-1.322,1.321 -2.407,3.473 -2.407,4.783c0,2.175 0.409,2.3 4.837,1.5c5.139,-0.931 26.548,-0.901 43.53,0.059c5.631,0.32 11.777,0.545 13.656,0.504c5.744,-0.137 10.106,-0.137 13.088,0.006c7.172,0.331 10.888,-0.558 12.945,-3.1c1.589,-1.962 3.088,-2.555 5.892,-2.312c2.341,0.201 4.581,-0.415 5.927,-1.63c1.185,-1.079 3.473,-1.956 5.074,-1.956c2.175,-0 3.1,-0.735 3.639,-2.881c0.433,-1.725 2.205,-3.58 4.434,-4.647c2.045,-0.972 4.712,-3.639 5.945,-5.939c1.227,-2.294 3.852,-4.943 5.826,-5.88c2.543,-1.209 3.971,-2.963 4.896,-6.01c0.877,-2.916 2.827,-5.412 6.064,-7.753c2.626,-1.902 5.72,-4.949 6.869,-6.769c2.555,-4.036 13.769,-9.744 22.263,-11.327c7.498,-1.399 16.431,-1.322 21.753,0.196"/></svg>