<?xml version="1.0" encoding="UTF-8" standalone="no"?><!DOCTYPE svg PUBLIC "-//W3C//DTD SVG 1.1//EN" "http://www.w3.org/Graphics/SVG/1.1/DTD/svg11.dtd"><svg width="100%" height="100%" viewBox="0 0 308 201" version="1.1" xmlns="http://www.w3.org/2000/svg" xmlns:xlink="http://www.w3.org/1999/xlink" xml:space="preserve" xmlns:serif="http://www.serif.com/" style="fill-rule:evenodd;clip-rule:evenodd;stroke-linejoin:round;stroke-miterlimit:2;"><path id="S1-PEKINGESEE" d="M282.193,2.181c-2.95,-0.998 -12.489,-1.887 -21.204,-1.964c-21.233,-0.197 -26.532,3.325 -43.98,29.272c-14.528,21.624 -24.174,29.118 -33.907,26.364c-3.193,-0.911 -9.986,-16.786 -10.762,-18.212c-0.864,-1.58 -4.988,-1.931 -12.325,-1.065c-7.084,0.834 -39.3,-10.854 -53.675,-4.838c-14.375,6.016 -30.287,37.456 -32.578,40.934c-6.036,9.194 -11.053,21.186 -15.866,37.917c-3.242,11.279 -7.005,12.584 -13.245,19.43c-4.891,5.354 -0.71,13.265 -8.26,27.846c-7.24,13.944 -17.468,23.292 -25.503,23.292c-5.28,-0 -10.753,7.252 -10.753,8.382c0,3.302 36.625,5.826 36.12,6.758c-1.281,2.348 8.19,2.151 15.818,-0.318c4.648,-1.503 41.506,5.124 46.766,-0.033c3.027,-2.962 62.732,-12.053 73.646,-4.114c6.024,4.382 56.127,10.977 65.34,7.384c10.078,-3.931 26.597,-4.635 27.434,-7.384c2.203,-7.23 -0.256,-20.844 7.016,-23.128c4.809,-1.509 7.342,-27.623 13.063,-26.978c6.041,0.681 7.404,-7.329 8.103,-11.707c0.698,-4.377 1.979,-7.471 2.833,-6.868c4.464,3.105 5.202,-28.646 0.951,-40.66l-2.892,-8.173l6.561,-7.647c5.23,-6.089 6.511,-9.183 6.308,-15.239c-0.156,-4.707 -1.485,-8.47 -3.494,-9.886c-2.378,-1.678 -2.989,-4.081 -2.29,-8.952c1.63,-11.389 -7.987,-26.617 -19.225,-30.413Z"/></svg>