<?xml version="1.0" encoding="UTF-8" standalone="no"?><!DOCTYPE svg PUBLIC "-//W3C//DTD SVG 1.1//EN" "http://www.w3.org/Graphics/SVG/1.1/DTD/svg11.dtd"><svg width="100%" height="100%" viewBox="0 0 296 212" version="1.1" xmlns="http://www.w3.org/2000/svg" xmlns:xlink="http://www.w3.org/1999/xlink" xml:space="preserve" xmlns:serif="http://www.serif.com/" style="fill-rule:evenodd;clip-rule:evenodd;stroke-linejoin:round;stroke-miterlimit:2;"><path id="S10-COKAPOO" d="M6.475,21.024c7.538,8.9 45.557,40.566 74.754,47.799c12.27,3.039 46.245,-3.225 51.752,-3.774c13.417,-1.338 36.255,-0.891 44.177,-1.447c8.432,-0.592 21.035,-6.211 23.679,-8.116c2.243,-1.616 -9.267,-1.245 -9.651,-3.79c-1.923,-12.754 5.468,-18.149 10.802,-25.844c5.334,-7.695 8.484,-16.439 20.144,-21.245c10.763,-4.437 21.251,-3.677 29.562,-3.677c5.46,-0 14.071,1.092 18.693,3.677c9.209,5.148 3.838,25.473 8.683,25.427c8.356,-0.079 14.662,7.882 16.467,11.573c1.581,3.229 -6.743,23.137 -10.833,27.216c-4.183,4.172 -17.809,0.234 -23.311,4.04c-5.501,3.807 -4.282,8.672 -7.132,16.695c-2.269,6.384 -0.666,10.41 -2.567,27.468c-1.876,16.829 -12.247,16.682 -13.681,24.297c-1.771,9.405 -9.775,30.755 -9.916,44.397c-0.093,8.96 7.648,6.249 9.916,15.323c1.346,5.381 -4.562,9.986 -4.562,9.986l-23.148,0c-0,0 -2.682,-4.541 -4.595,-7.886c-14.159,-24.765 -7.419,-60.141 -11.039,-59.164c-26.718,7.211 -58.599,-21.775 -73.546,-19.45c-10.891,1.695 -13.056,11.42 -22.316,16.794c-11.72,6.801 -30.579,12.668 -39.196,18.212c-5.126,3.299 -15.236,25.305 -10.473,29.01c4.321,3.362 10.133,16.318 5.578,19.581c-0.958,0.686 -5.578,2.903 -5.578,2.903l-16.026,0c-0,0 -4.555,-1.245 -6.106,-2.903c-6.474,-6.917 -8.057,-33.243 -6.295,-42.776c1.324,-7.163 13.101,-7.133 14.779,-14.237c6.423,-27.185 28.101,-61.367 19.226,-64.294c-31.909,-10.526 -50.256,-44.734 -53.692,-56.785c-1.415,-4.963 3.127,-11.753 5.451,-9.01Z"/></svg>