<?xml version="1.0" encoding="UTF-8" standalone="no"?><!DOCTYPE svg PUBLIC "-//W3C//DTD SVG 1.1//EN" "http://www.w3.org/Graphics/SVG/1.1/DTD/svg11.dtd"><svg width="100%" height="100%" viewBox="0 0 308 211" version="1.1" xmlns="http://www.w3.org/2000/svg" xmlns:xlink="http://www.w3.org/1999/xlink" xml:space="preserve" xmlns:serif="http://www.serif.com/" style="fill-rule:evenodd;clip-rule:evenodd;stroke-linejoin:round;stroke-miterlimit:2;"><path id="S11-DACHSHUND" d="M219.26,210.81c-3.831,-0.344 -5.846,-3.308 -7.769,-7.213c-2.015,-4.097 -4.797,-7.644 -7.425,-11.224c-3.189,-4.334 -5.157,-9.17 -5.163,-15.168c-0.008,-6.227 -0.135,-12.452 -0.205,-18.679c-0.012,-1.047 -11.184,-14.316 -16.842,-12.149c-24.582,9.418 -92.641,-7.029 -92.687,-6.852c-4.213,16.272 -33.561,21.048 -40.388,29.181c-3.79,4.514 -0.449,13.135 -0.574,19.614c-0.061,3.089 1.714,7.639 3.465,9.304c3.126,2.972 6.927,2.869 6.857,10.357c-0.018,1.891 -4.945,2.829 -4.945,2.829l-10.731,0c-0,0 -8.195,-5.48 -7.517,-12.495c1.005,-10.415 -0.147,-20.573 -1.668,-30.727c-0.935,-6.261 -0.287,-8.113 4.057,-10.78c7.5,-4.602 8.861,-18.812 6.985,-21.368c-1.877,-2.556 -11.982,6.596 -18.243,6.032c-13.349,-1.203 -18.557,-7.174 -24.834,-24.091c-0.717,-1.928 -1.501,-5.317 -1.498,-6.159c0.004,-1.101 2.222,0.592 2.82,1.389c5.564,7.41 10.65,14.775 18.157,18.655c14.158,7.318 16.756,-2.69 23.689,-19.713c1.66,-4.072 3.452,-8.059 5.143,-12.112c5.913,-14.158 15.65,-21.203 27.896,-24.199c11.971,-2.931 23.925,-1.769 35.892,-0.781c19.777,1.635 39.552,3.004 59.345,0.737c5.338,-0.61 10.665,-1.716 15.925,-3.036c9.366,-2.35 16.834,-8.63 22.237,-18.41c3.085,-5.586 9.669,-20.812 9.989,-22.594c1.359,-7.566 4.144,-14.208 8.107,-20.126c5.871,-8.762 13.707,-10.963 22.335,-10.243c8.252,0.688 16.066,3.555 23.604,7.754c2.464,1.374 4.343,3.419 4.835,6.635c1.531,10.044 7.105,14.524 14.347,16.908c3.312,1.088 6.598,2.323 9.94,3.247c2.207,0.61 3.091,2.182 2.757,4.781c-0.665,5.197 -2.046,9.828 -5.681,13.22c-4.976,4.644 -10.32,7.333 -16.622,7.296c-6.701,-0.041 -21.813,0.214 -22.371,0.854c-2.07,2.378 6.383,15.989 -10.809,13.714c-5.578,-0.738 0.578,11.586 0.666,17.112c0.09,5.447 0.33,10.888 0.527,16.332c0.686,18.997 -6.337,21.222 -18.248,32.83c-4.774,4.651 -8.919,21.497 -13.935,25.772c-0.731,0.623 -1.435,2.067 -1.428,3.126c0.032,4.858 0.139,9.744 0.606,14.563c0.166,1.723 1.165,3.616 2.224,4.846c2.044,2.374 4.59,4.09 6.572,6.532c1.831,2.255 5.653,1.116 5.961,7.75c0.293,6.302 -5.547,6.618 -5.996,6.749l-9.359,0Z" style="fill-rule:nonzero;"/></svg>