<?xml version="1.0" encoding="UTF-8" standalone="no"?><!DOCTYPE svg PUBLIC "-//W3C//DTD SVG 1.1//EN" "http://www.w3.org/Graphics/SVG/1.1/DTD/svg11.dtd"><svg width="100%" height="100%" viewBox="0 0 273 224" version="1.1" xmlns="http://www.w3.org/2000/svg" xmlns:xlink="http://www.w3.org/1999/xlink" xml:space="preserve" xmlns:serif="http://www.serif.com/" style="fill-rule:evenodd;clip-rule:evenodd;stroke-linejoin:round;stroke-miterlimit:2;"><path id="S12-FRENCHIE" d="M270.93,64.521c-3.095,3.939 -7.391,10.226 -16.875,12.262c-8.322,1.795 -15.679,5.099 -21.636,10.946c-7.095,6.903 -10.321,15.22 -11.079,24.614c-1.184,14.95 -7.825,27.269 -20.818,36.432c-0.886,0.628 -1.803,1.505 -2.109,2.42c-3.828,12.07 -7.837,24.123 -11.179,36.301c-1.479,5.386 -1.723,18.324 -1.093,18.841c1.735,1.46 3.711,2.656 5.44,4.095c2.536,2.12 3.084,4.705 3.228,7.796c0.193,4.144 -6.391,5.582 -6.391,5.582l-10.982,0c-0,0 -5.455,-3.865 -6.943,-8.025c-4.304,-12.208 -5.176,-24.7 -3.623,-37.411c0.741,-6.208 3.564,-15.934 1.8,-19.08c-1.763,-3.147 -10.17,0.113 -12.382,0.203c-19.932,0.966 -38.948,-2.608 -56.858,-10.778c-3.961,-1.825 -7.837,-3.724 -11.772,-5.545c-6.851,-3.158 -13.555,-2.204 -18.541,3.245c-8.626,9.435 -17.533,18.641 -27.539,26.796c-6.556,5.354 -13.328,10.474 -20.091,15.606c-1.587,1.211 -2.948,8.398 -3.342,10.381c-0.744,3.807 -0.841,7.53 0.923,11.23c1.155,2.464 3.302,4.976 3.861,7.584c0.908,4.243 -4.841,5.794 -4.841,5.794l-10.858,0c0,0 -4.398,-6.66 -5.508,-10.205c-1.097,-3.503 -0.724,-14.693 -0.645,-16.515c0.324,-7.345 0.563,-14.678 0.923,-22.05c0.185,-3.344 1.173,-4.268 4.75,-5.138c1.023,-0.249 4.893,-3.242 5.929,-6.637c2.184,-6.86 4.654,-13.667 6.789,-20.582c3.904,-12.564 15.474,-27.431 17.777,-34.375c0.876,-2.641 -3.461,-4.845 -3.958,-7.285c-1.752,-8.21 6.411,-14.278 14.929,-11.299c2.337,0.79 9.35,3.412 10.256,2.946c10.869,-5.368 22.741,-6.876 34.794,-7.866c14.012,-1.172 28.058,-2.446 42.048,-3.888c6.661,-0.663 13.452,-1.196 19.892,-2.823c10.171,-2.578 18.686,-8.227 23.536,-16.846c6.817,-11.987 16.331,-21.231 28.081,-28.861c0.993,-0.634 1.607,-2.066 2.021,-3.233c1.054,-3.164 1.582,-6.51 2.931,-9.54c2.45,-5.497 5.338,-10.781 8.007,-16.162c1.084,-2.15 2.66,-3.618 5.44,-3.092c2.833,0.538 3.455,2.551 3.688,4.872c0.517,5.392 -1.589,12.35 1.647,15.617c3.236,3.267 12.036,2.426 17.769,3.984c2.825,0.786 5.568,2.309 8.086,3.846c4.222,2.569 5.895,11.314 6.068,11.314c6.275,0.347 6.275,0.347 8.061,6.223c0.667,2.333 1.827,4.559 2.084,6.933c0.257,2.374 -0.259,9.545 -1.695,11.373Z"/></svg>