<?xml version="1.0" encoding="UTF-8" standalone="no"?><!DOCTYPE svg PUBLIC "-//W3C//DTD SVG 1.1//EN" "http://www.w3.org/Graphics/SVG/1.1/DTD/svg11.dtd"><svg width="100%" height="100%" viewBox="0 0 308 221" version="1.1" xmlns="http://www.w3.org/2000/svg" xmlns:xlink="http://www.w3.org/1999/xlink" xml:space="preserve" xmlns:serif="http://www.serif.com/" style="fill-rule:evenodd;clip-rule:evenodd;stroke-linejoin:round;stroke-miterlimit:2;"><path id="S13--JACK" serif:id="S13- JACK" d="M77.139,133.322c13.325,-14.765 48.1,2.148 67.126,8.825c6.289,2.207 35.256,4.922 43.461,14.043c8.204,9.122 8.625,34.992 9.793,38.113c1.197,3.2 3.421,6.078 3.521,9.712c0.08,2.945 0.516,5.886 0.971,8.81c0.523,3.375 5.147,7.969 5.147,7.969l13.928,0c-0,0 5.574,-0.826 5.469,-3.673c-0.129,-3.504 -4.75,-4.218 -6.954,-5.244c-7.16,-3.328 -7.87,-8.907 -7.006,-14.896c1.288,-8.91 1.876,-39.324 2.757,-40.656c4.221,-6.384 13.859,-38.426 13.901,-40.755c0.107,-6.043 11.445,-58.2 14.009,-59.24c2.917,-1.184 9.945,0.094 14.708,-0.017c8.552,-0.209 17.155,-0.095 25.629,-0.96c7.428,-0.759 15.418,-1.518 18.942,-9.125c0.194,-0.415 0.468,-0.827 0.814,-1.157c6.179,-5.946 5.611,-7.819 -2.734,-11.044c-7.738,-2.99 -15.341,-6.263 -22.937,-9.531c-4.073,-1.759 -6.47,-4.526 -6.754,-8.842c-0.1,-1.478 -1.643,-3.308 -3.118,-4.207c-3.465,-2.108 -7.373,-3.637 -10.936,-5.631c-1.952,-1.085 -3.469,-2.778 -5.382,-3.929c-1.143,-0.688 -2.714,-1.275 -4.028,-1.18c-5.576,0.401 -11.113,1.254 -16.693,1.609c-8.923,0.567 -14.744,4.924 -18.258,11.806c-2.243,4.396 -5.167,8.217 -8.478,12.029c-6.108,7.026 -11.63,14.467 -17.161,21.873c-4.543,6.083 -10.039,10.551 -18.281,12.653c-8.448,2.154 -16.519,5.465 -24.796,8.177c-1.265,0.413 -43.667,0.201 -63.43,0.567c-8.632,0.161 -17.219,1.856 -25.861,2.3c-3.065,0.158 -6.731,-0.673 -9.271,-2.185c-7.164,-4.27 -10.652,-10.723 -10.746,-18.344c-0.084,-6.596 -1.706,-13.229 -2.155,-19.788c-0.387,-5.654 -1.681,-16.004 -4.173,-16.119c-2.492,-0.116 -5.186,9.801 -5.412,15.426c-0.497,12.275 -1.419,24.384 4.86,35.543c1.727,3.073 4.379,5.854 7.106,8.334c4.379,3.981 4.754,6.917 0.713,11.273c-2.039,2.2 -4.011,4.451 -6.005,6.685c-6.367,7.129 -10.197,14.922 -10.807,24.313c-0.536,8.249 -3.053,16.382 -4.434,24.605c-0.662,3.927 -1.01,7.942 -0.962,11.909c0.042,3.657 -0.887,6.731 -3.934,9.24c-5.372,4.427 -6.921,9.502 -6.17,16.265c0.749,6.75 -1.442,13.741 -2.081,20.647c-0.442,4.768 -0.432,9.568 -0.616,14.354c-0.01,0.224 0.013,3.037 0.093,3.246c0.568,1.458 2.241,3.669 2.241,3.669l14.081,0c0,0 7.395,0.352 6.237,-2.233c-1.408,-3.143 -3.071,-5.129 -4.862,-5.35c-7.375,-0.908 -4.553,-9.697 -3.795,-14.663c1.536,-10.053 2.42,-20.152 11.214,-28.036c4.934,-4.425 26.368,-9.332 51.509,-37.19Z"/></svg>