<?xml version="1.0" encoding="UTF-8" standalone="no"?><!DOCTYPE svg PUBLIC "-//W3C//DTD SVG 1.1//EN" "http://www.w3.org/Graphics/SVG/1.1/DTD/svg11.dtd"><svg width="100%" height="100%" viewBox="0 0 282 237" version="1.1" xmlns="http://www.w3.org/2000/svg" xmlns:xlink="http://www.w3.org/1999/xlink" xml:space="preserve" xmlns:serif="http://www.serif.com/" style="fill-rule:evenodd;clip-rule:evenodd;stroke-linejoin:round;stroke-miterlimit:2;"><path id="S14-WHIPPET" d="M236.471,2.055c-15.57,-2.554 -19.539,-2.016 -26.569,3.589c-7.505,5.996 -7.494,8.719 0.043,8.719l4.897,0l-6.016,11.653c-3.315,6.408 -7.769,15.918 -9.902,21.133c-6.343,15.474 -9.932,16.53 -60.99,18.039c-37.82,1.108 -45.315,1.879 -56.746,5.837c-16.108,5.574 -19.169,7.157 -29.091,15.105c-11.158,8.93 -15.359,18.578 -17.311,39.679c-2.375,25.734 -10.123,35.699 -26.537,34.126c-9.722,-0.929 -10.587,1.119 -1.752,4.201c7.652,2.67 19.707,0.01 24.626,-5.426c1.805,-1.984 4.644,-6.776 6.323,-10.65c2.522,-5.806 3.061,-6.228 3.135,-2.386c0.126,7.706 -7.97,21.101 -19.465,32.174l-10.862,10.46l0,15.126c0,8.307 -0.485,17.734 -1.066,20.942c-1.382,7.537 0.771,10.535 8.74,12.129c8.624,1.72 11.421,-4.138 4.603,-9.659c-3.885,-3.145 -3.384,-4.842 -3.273,-11.336c0.407,-23.662 11.193,-32.145 32.965,-37.071c27.746,-6.278 27.804,-22.938 31.16,-42.022c1.119,-6.376 2.988,-14.05 4.159,-17.037c2.164,-5.531 12.509,-11.822 19.285,-11.748c6.334,0.074 19.317,6.945 33.641,17.797c12.772,9.69 17.881,11.991 35.963,16.224c6.607,1.541 7.198,2.332 8.634,11.663c0.844,5.5 1.752,20.499 2.027,33.314c0.274,12.814 1.245,23.855 2.164,24.531c0.928,0.675 2.755,6.09 4.074,12.044c2.185,9.806 2.631,13.545 8.964,13.605c2.297,0.022 7.219,0.036 11.388,0c4.255,-0.036 5,-6.466 3.261,-9.721c-1.182,-2.185 -3.494,-3.979 -5.162,-3.979c-7.114,-0 -8.592,-18.462 -4.898,-60.8c1.499,-17.09 3.051,-24.679 5.795,-28.437c7.125,-9.722 12.477,-22.241 13.638,-31.846c1.246,-10.397 10.218,-53.073 12.297,-58.478c1.088,-2.829 3.505,-3.114 16.773,-1.953c13.902,1.214 16.055,0.908 20.974,-2.955c3.008,-2.365 5.468,-4.961 5.468,-5.764c-0,-0.802 -5.035,-3.926 -11.2,-6.945c-7.051,-3.462 -11.896,-7.336 -13.078,-10.45c-2.47,-6.492 -10.693,-11.727 -21.079,-13.427Z"/></svg>