<?xml version="1.0" encoding="UTF-8" standalone="no"?><!DOCTYPE svg PUBLIC "-//W3C//DTD SVG 1.1//EN" "http://www.w3.org/Graphics/SVG/1.1/DTD/svg11.dtd"><svg width="100%" height="100%" viewBox="0 0 265 224" version="1.1" xmlns="http://www.w3.org/2000/svg" xmlns:xlink="http://www.w3.org/1999/xlink" xml:space="preserve" xmlns:serif="http://www.serif.com/" style="fill-rule:evenodd;clip-rule:evenodd;stroke-linejoin:round;stroke-miterlimit:2;"><path id="S15-GRIFFON" d="M232.1,1.496c-3.639,-1.018 -9.423,-1.516 -12.856,-1.094c-17.957,2.155 -23.589,3.52 -31.192,7.495c-13.527,7.072 -13.7,7.343 -9.985,15.141c3.195,6.682 3.108,7.278 -2.286,16.484c-9.834,16.776 -21.985,21.346 -61.213,23.047c-14.48,0.617 -32.188,2.144 -39.358,3.379c-7.159,1.235 -15.336,1.668 -18.162,0.953c-6.195,-1.56 -8.816,-9.715 -5.459,-17.069c5.155,-11.318 1.007,-14.61 -8.74,-6.942c-7.083,5.578 -8.827,15.639 -4.982,28.755c2.87,9.79 2.805,10.852 -1.126,17.307c-5.892,9.66 -11.914,31.982 -11.968,44.296c-0.065,13.127 -6.303,27.249 -15.618,35.361c0,0 -6.336,3.182 -7.18,6.239c-1.253,4.538 -0.336,20.989 -0.336,20.989c1.911,12.476 -0.815,11.206 -1.45,15.336c-0.344,2.235 0.23,12.654 1.786,12.659c8.095,0.03 16.896,0.04 26.924,-0.022c8.551,-0.052 6.119,-9.041 4.203,-12.637c-1.214,-2.253 -3.098,-4.094 -4.203,-4.094c-3.27,0 -2.285,-12.401 1.506,-18.812c1.928,-3.26 9.845,-10.268 17.577,-15.553c12.326,-8.415 26.741,-24.845 26.741,-30.455c-0,-0.942 13.245,-10.397 22.007,-9.087c10.072,1.517 17.036,3.823 37.257,12.379c6.866,2.914 14.523,5.307 17.036,5.329c2.502,0.032 11.018,0.866 11.625,1.852c0.617,0.996 3.151,13.397 5.632,27.553c2.491,14.166 5.306,26.058 6.27,26.437c0.964,0.379 3.228,3.801 5.026,7.592c2.715,5.719 1.026,9.607 3.817,9.496c5.285,-0.21 12.514,0 25.43,0c9.108,0 5.006,-11.554 -2.056,-15.464c-6.411,-3.552 -7.213,-5.577 -7.245,-18.292c-0.044,-15.618 5.317,-40.495 10.419,-48.391c8.361,-12.931 12.097,-23.35 13.451,-37.516c2.101,-22.062 2.101,-22.062 9.899,-18.791c7.191,3.022 14.144,1.451 20.989,-4.744c9.022,-8.155 13.473,-26.588 8.632,-35.686c-1.538,-2.881 -3.303,-6.877 -3.931,-8.881c-0.628,-2.004 -3.065,-3.639 -5.437,-3.639c-3.607,0 -3.942,-0.65 -2.145,-4.018c1.192,-2.22 2.156,-4.852 2.156,-5.87c-0,-4.278 -15.358,-19.322 -21.455,-21.022Z"/></svg>