<?xml version="1.0" encoding="UTF-8" standalone="no"?><!DOCTYPE svg PUBLIC "-//W3C//DTD SVG 1.1//EN" "http://www.w3.org/Graphics/SVG/1.1/DTD/svg11.dtd"><svg width="100%" height="100%" viewBox="0 0 308 230" version="1.1" xmlns="http://www.w3.org/2000/svg" xmlns:xlink="http://www.w3.org/1999/xlink" xml:space="preserve" xmlns:serif="http://www.serif.com/" style="fill-rule:evenodd;clip-rule:evenodd;stroke-linejoin:round;stroke-miterlimit:2;"><path id="S16-BEDLINGTON" d="M255.229,1.64c8.771,2.387 15.216,6.439 23.832,14.968c7.845,7.767 17.619,21.009 22.245,30.15c3.578,7.067 6.753,18.325 5.717,20.26c-1.505,2.817 -10.166,8.247 -14.819,9.295c-5.408,1.213 -10.37,0.033 -16.594,-3.959c-7.404,-4.735 -16.257,-8.622 -19.67,-8.633c-2.856,-0.011 -2.955,0.149 -2.117,3.429c1.196,4.686 0.777,14.94 -0.628,15.409c-0.629,0.209 -1.142,0.943 -1.142,1.626c0,1.588 -3.765,3.986 -4.735,3.016c-0.403,-0.403 -1.152,-0.734 -1.66,-0.734c-0.507,0 -1.692,-0.953 -2.635,-2.117c-0.942,-1.163 -1.422,-1.538 -1.064,-0.832c0.353,0.706 -0.132,4.278 -1.086,7.939c-0.954,3.66 -1.725,10.419 -1.714,15.017c0.027,9.769 -2.525,19.24 -7.729,28.684c-4.984,9.046 -5.987,16.957 -6.506,51.148l-0.446,29.98l2.674,3.181c2.877,3.418 3.445,7.111 1.405,9.157c-1.819,1.813 -22.162,1.681 -26.55,-0.171c-6.048,-2.564 -7.757,-6.158 -10.386,-21.848c-1.522,-9.113 -4.124,-38.888 -4.129,-47.284l-0.006,-7.586l-3.44,-0.744c-6.086,-1.307 -16.528,-6.583 -27.217,-13.739c-12.184,-8.17 -19.191,-11.092 -26.567,-11.092c-10.017,0 -13.457,3.644 -17.718,18.772c-3.909,13.887 -10.696,22.713 -28.651,37.267c-11.412,9.251 -17.118,15.591 -20.255,22.504c-2.431,5.353 -2.751,12.757 -0.628,14.516c2.525,2.1 3.054,6.466 1.053,8.682c-1.544,1.698 -3.368,1.991 -12.492,1.991c-13.099,-0.006 -17.482,-1.715 -18.965,-7.41c-1.169,-4.498 -0.297,-23.926 1.406,-31.225c1.819,-7.823 2.971,-9.637 9.455,-14.912c7.773,-6.324 14.432,-15.144 16.566,-21.936c1.13,-3.606 1.847,-10.536 2.095,-20.172l0.375,-14.681l-2.211,1.979c-1.218,1.086 -4.951,5.563 -8.297,9.945c-7.983,10.464 -17.514,19.18 -24.935,22.807c-9.394,4.598 -26.925,4.868 -26.925,0.414c0,-0.568 3.644,-1.026 8.203,-1.031c15.183,-0.017 25.514,-7.547 39.186,-28.568c11.103,-17.062 14.857,-21.208 28.204,-31.148c28.717,-21.379 47.356,-26.583 85.704,-23.921c33.359,2.31 37.449,1.77 44.826,-5.898c5.49,-5.706 13.694,-22.388 15.166,-30.823c3.098,-17.807 5.573,-23.452 12.338,-28.144c2.238,-1.549 6.621,-3.302 9.735,-3.892c6.605,-1.251 5.684,-1.279 11.732,0.364"/></svg>