<?xml version="1.0" encoding="UTF-8" standalone="no"?><!DOCTYPE svg PUBLIC "-//W3C//DTD SVG 1.1//EN" "http://www.w3.org/Graphics/SVG/1.1/DTD/svg11.dtd"><svg width="100%" height="100%" viewBox="0 0 287 237" version="1.1" xmlns="http://www.w3.org/2000/svg" xmlns:xlink="http://www.w3.org/1999/xlink" xml:space="preserve" xmlns:serif="http://www.serif.com/" style="fill-rule:evenodd;clip-rule:evenodd;stroke-linejoin:round;stroke-miterlimit:2;"><path id="S17-CORGI" d="M245.018,0.823c2.6,1.321 4.258,3.357 5.175,6.125c0.118,0.494 0.241,0.988 0.362,1.497c0.124,0.49 0.612,2.463 0.737,2.965c0.216,0.652 0.903,4.757 0.882,6.593c-0.004,0.538 -0.004,0.538 -0.004,1.081c-0.051,3.694 -0.184,7.611 -1.091,11.208c-0.407,1.651 -0.407,3.36 -0.179,5.039c0.818,0.98 0.818,0.98 1.96,1.568c0.662,0.644 1.314,1.299 1.961,1.961c0.365,0.345 0.365,0.345 0.737,0.699c0.827,0.792 1.616,1.603 2.4,2.438c0.354,0.358 0.354,0.358 0.711,0.725c1.912,2.314 1.91,4.691 1.877,7.578c-0,2.136 3.337,6.74 3.564,6.815c2.02,0.666 20.969,8.999 22.474,11.155c0.511,2.911 -1.897,8.223 -1.924,8.491c-0.778,2.867 -13.788,13.594 -19.129,13.641c-2.949,0.087 -5.8,0.349 -8.702,0.906c-0.317,0.056 -4.62,1.357 -6.322,2.844c-0.52,1.482 -0.371,2.855 -0.269,4.411c0.026,0.419 0.026,0.419 0.053,0.848c0.131,1.826 0.361,3.615 0.633,5.427c1.191,9.053 0.066,17.015 -2.412,25.68c-0.378,1.342 -2.737,13.899 -2.882,17.749c-0.2,4.991 -6.609,21.01 -8.766,23.485c-0.223,0.255 -0.447,0.509 -0.674,0.772c-2.328,2.651 -4.783,5.173 -7.281,7.663c-0.758,0.751 -1.507,1.51 -2.255,2.269c-3.847,3.868 -13.361,10.177 -13.634,10.306c-0.977,0.468 -4.005,2.992 -4.055,3.464c-0.045,0.341 -1.146,8.057 -1.47,9.317c-0.515,2.281 -0.652,4.485 -0.686,6.814c-0.009,0.33 -0.017,0.659 -0.025,1c0.008,2.302 2.024,6.27 2.157,6.671c0.384,-0 0.384,-0 0.776,0.004c3.993,0.167 7.275,1.548 10.055,4.458c1.985,2.455 2.373,4.98 2.109,8.086c-0.796,1.032 -1.595,1.42 -2.818,1.812c-0.28,0.094 -0.562,0.188 -0.852,0.286c-3.204,0.788 -6.482,0.733 -9.761,0.741c-0.87,0.004 -1.738,0.016 -2.608,0.028c-10.524,0.078 -10.524,0.078 -13.92,-2.948c-2.365,-2.648 -3.67,-5.672 -5.031,-8.907c-1.009,-2.222 -1.871,-3.675 -3.831,-5.153c-2.886,-2.384 -6.534,-17.473 -6.667,-18.406c-0.263,0.026 -0.525,0.055 -0.8,0.081c-2.545,0.248 -8.399,0.43 -8.791,0.433c-13.865,0.141 -42.052,-4.287 -42.587,-4.411c-1.741,-0.401 -48.08,-16.631 -52.915,-16.102c-1.399,0.383 -2.63,0.913 -3.921,1.568c-0.651,0.268 -1.305,0.529 -1.961,0.785c0,0.259 -0.576,1.352 -1.376,2.007c-1.718,1.463 -3.278,3.039 -4.851,4.659c-2.224,2.254 -4.407,4.203 -7.105,5.882c-0.447,0.341 -0.447,0.341 -0.907,0.686c-2.677,1.94 -5.462,2.769 -8.623,3.576c-4.348,1.118 -8.398,2.6 -10.807,6.577c-1.588,3.282 -1.785,5.839 -1.721,9.478c0.004,0.721 0.004,0.721 0.008,1.459c-0.025,2.485 -0.025,2.485 0.482,4.889c0.976,0.392 0.976,0.392 2.157,0.686c2.957,0.914 5.165,2.541 7.254,4.804c1.091,2.239 0.856,4.632 0.785,7.059c-0.648,0.259 -1.961,1.301 -1.961,1.568c-4.732,1.152 -9.274,1.271 -14.117,1.177c-0.443,-0.009 -0.883,-0.012 -1.338,-0.021c-3.129,-0.145 -6.368,-0.874 -8.803,-2.955c-1.231,-1.415 -2.961,-4.577 -3.043,-5.036c-0.106,-0.581 -0.216,-1.161 -0.321,-1.745c-0.051,-0.29 -0.105,-0.584 -0.161,-0.886c-0.275,-1.587 -0.275,-1.587 -0.843,-3.082c-0.074,-0.647 -0.223,-2.745 -0.255,-3.158c-0.027,-0.43 -0.06,-0.858 -0.09,-1.305c-0.408,-5.435 -0.843,-10.873 -2.474,-16.1c-0.804,-2.698 -1.613,-5.672 -0.396,-8.37c0.398,-0.728 0.815,-1.437 1.254,-2.144c1.565,-2.404 1.565,-2.404 1.884,-5.171c-0.879,-2.809 -2.284,-5.782 -4.095,-8.107c-0.705,-0.98 -0.96,-1.938 -1.293,-3.094c-0.511,-1.748 -1.048,-3.474 -1.641,-5.196c-1.76,-5.259 -1.987,-10.408 -2.011,-15.932c-0.013,-0.746 -0.013,-0.746 -0.025,-1.51c-0.018,-4.478 0.785,-8.521 2.476,-12.654c0.353,-0.913 0.702,-1.832 1.054,-2.745c0.302,-0.784 0.604,-1.569 0.906,-2.353c-0.435,0.259 -0.874,0.517 -1.325,0.784c-1.321,0.785 -1.321,0.785 -2.204,0.785c-0.984,-1.894 -0.89,-6.455 -0.89,-6.8c0.016,-5.706 2.336,-10.353 6.38,-14.376c4.83,-4.646 10.247,-7.05 16.893,-7.549c2.412,-0.2 4.397,-0.8 6.627,-1.768c1.628,-0.666 11.247,-2.89 12.63,-3.427c2.225,-0.805 4.561,-0.946 6.895,-1.189c1.757,-0.188 3.487,-0.47 5.222,-0.788c3.469,-0.552 6.859,-0.636 10.362,-0.64c0.559,0 1.125,-0.004 1.687,-0.004c1.501,-0.002 3.002,-0.002 4.509,-0.002l2.803,0c8.388,0 16.755,0.112 25.137,0.441c0.435,0.017 0.87,0.033 1.317,0.052c3.552,0.144 7.106,0.291 10.653,0.581c3.397,0.258 6.794,0.262 10.196,0.27c1.142,0.004 2.28,0.016 3.421,0.029c5.469,0.03 10.094,-0.648 15.273,-2.484c1.812,-0.549 3.65,-0.862 5.516,-1.152c0.683,-0.114 11.93,-2.161 14.773,-2.923c0.98,-0.23 3.462,-1.329 3.934,-1.488c4.407,-1.663 8.202,-4.612 10.771,-8.546c0.221,-0.337 2.384,-3.913 3.039,-5.49c0.491,-1.176 2.514,-3.862 2.58,-4.203c0.349,-1.691 0.75,-3.239 1.474,-4.812c0.468,-1.027 0.887,-2.071 1.314,-3.116c0.898,-2.157 1.856,-4.265 3.02,-6.291c0.997,-1.807 1.577,-3.419 1.122,-5.498c-0.444,-0.968 -0.95,-1.893 -1.454,-2.831c-0.73,-1.577 -0.989,-3.17 -1.312,-4.867c-0.537,-2.639 -1.34,-5.212 -2.097,-7.791c-1.466,-5.082 -2.412,-9.973 -2.392,-15.259c0,-0.819 -0.016,-1.638 -0.034,-2.459c-0.04,-4.536 0.627,-9.164 3.759,-12.673c1.475,-1.399 2.729,-1.718 4.706,-1.838c6.211,0.253 10.469,4.634 14.509,8.896c2.729,2.968 5.18,6.156 7.525,9.436c1.639,1.91 3.949,3.587 6.431,4.114c2.553,0.077 5.596,-0.315 7.569,-2.041c0.901,-1.035 5.332,-7.759 5.431,-8.253c0.541,-2.433 1.329,-4.769 2.136,-7.13c0.212,-0.651 0.212,-0.651 0.429,-1.313c1.697,-4.977 4.916,-12.058 11.262,-10.89Z" style="fill-rule:nonzero;"/></svg>