<?xml version="1.0" encoding="UTF-8" standalone="no"?><!DOCTYPE svg PUBLIC "-//W3C//DTD SVG 1.1//EN" "http://www.w3.org/Graphics/SVG/1.1/DTD/svg11.dtd"><svg width="100%" height="100%" viewBox="0 0 308 237" version="1.1" xmlns="http://www.w3.org/2000/svg" xmlns:xlink="http://www.w3.org/1999/xlink" xml:space="preserve" xmlns:serif="http://www.serif.com/" style="fill-rule:evenodd;clip-rule:evenodd;stroke-linejoin:round;stroke-miterlimit:2;"><path id="S18-SKYE" d="M231.955,4.614c1.018,2.247 3.076,8.789 4.584,14.539l2.739,10.446l2.976,-4.788c1.641,-2.639 3.897,-7.472 5.021,-10.753c4.313,-12.581 6.84,-8.933 6.668,9.64c-0.092,9.961 0.311,13.943 1.456,14.316c0.866,0.288 5.312,3.006 9.883,6.039c6.39,4.243 9.512,5.527 13.534,5.56c5.18,0.045 11.557,2.554 11.61,4.564c0.02,0.577 1.587,2.685 3.493,4.689c1.905,2.004 3.459,4.834 3.446,6.288c-0.013,2.22 -0.675,5.317 -0.37,7.046c0.502,2.856 -11.021,1.716 -14.454,-1.473c-1.615,-1.507 -2.938,-2.214 -2.938,-1.572c0,0.635 6.291,7.001 13.972,14.139c14.771,13.721 16.332,16.583 11.431,20.97c-1.396,1.251 -2.561,3.746 -2.587,5.541c-0.06,4.565 -2.322,8.075 -8.117,12.626c-2.745,2.155 -5.781,5.037 -6.741,6.392c-0.965,1.362 -5.629,3.412 -6.906,4.558c-1.746,1.566 -16.24,9.85 -17.027,7.119c-0.45,-1.558 -1.495,-2.469 -2.441,-2.109c-1.039,0.393 -5.061,-8.14 -5.762,-7.014c-0.661,1.061 -1.773,-0.943 -3.188,-5.763c-1.198,-4.067 -2.997,-8.206 -4.002,-9.201c-1.006,-1.002 -2.713,-3.15 -3.791,-4.781c-1.078,-1.631 -2.368,-2.967 -2.858,-2.967c-1.839,0 -5.583,14.814 -6.172,24.396c-0.337,5.468 0.119,14.584 1.013,20.269c1.587,10.118 1.541,10.635 -2.527,25.895c-2.283,8.566 -4.717,20.636 -5.412,26.825c-1.257,11.133 -1.237,11.277 1.879,13.831c4.26,3.484 5.094,7.584 2.256,11.048c-2.051,2.509 -3.526,2.816 -14.243,2.961c-6.734,0.091 -13.23,0.844 -14.884,1.722c-2.037,1.081 -7.852,1.415 -18.978,1.094c-14.309,-0.413 -16.631,-0.799 -21.433,-3.583c-2.971,-1.716 -5.398,-3.7 -5.398,-4.414c-0.007,-0.707 -1.158,-2.109 -2.554,-3.104c-1.482,-1.054 -2.54,-3.255 -2.54,-5.279c-0,-3.215 -63.684,-8.553 -64.835,-8.553c-0.655,0 -12.416,8.573 -23.592,13.832c-8.334,3.923 -16.992,4.68 -16.992,5.776c0,4.264 -3.572,5.541 -15.472,5.534c-19.25,-0.013 -25.29,-3.458 -28.948,-16.53l-2.335,-8.337l3.023,-8.566c1.845,-5.219 2.54,-8.874 1.786,-9.332c-0.761,-0.465 -0.033,-4.296 1.859,-9.804c1.706,-4.971 2.599,-9.038 1.978,-9.038c-1.813,0 2.335,-12.109 7.071,-20.636c2.401,-4.329 4.373,-8.664 4.379,-9.646c0.027,-3.445 6.318,-15.135 11.299,-21.003c6.046,-7.112 6.853,-9.097 10.862,-26.681c1.713,-7.512 4.789,-17.925 6.84,-23.151c4.406,-11.231 14.196,-27.25 18.906,-30.911c2.944,-2.299 3.559,-2.384 5.219,-0.747c1.654,1.644 1.409,3.163 -2.097,12.934c-7.375,20.551 -9.373,33.42 -6.469,41.679c2.176,6.188 7.316,7.059 41.159,6.974c25.885,-0.065 30.37,-0.386 39.373,-2.809c5.59,-1.507 11.59,-3.772 13.337,-5.043c1.746,-1.264 5.067,-3.268 7.382,-4.453c6.933,-3.55 13.898,-10.577 25.799,-26.039c6.212,-8.069 13.224,-16.131 15.585,-17.912c6.205,-4.683 15.056,-25.004 19.125,-43.879c0.985,-4.597 2.864,-4.368 5.12,0.629"/></svg>