<?xml version="1.0" encoding="UTF-8" standalone="no"?><!DOCTYPE svg PUBLIC "-//W3C//DTD SVG 1.1//EN" "http://www.w3.org/Graphics/SVG/1.1/DTD/svg11.dtd"><svg width="100%" height="100%" viewBox="0 0 270 217" version="1.1" xmlns="http://www.w3.org/2000/svg" xmlns:xlink="http://www.w3.org/1999/xlink" xml:space="preserve" xmlns:serif="http://www.serif.com/" style="fill-rule:evenodd;clip-rule:evenodd;stroke-linejoin:round;stroke-miterlimit:2;"><path id="S19-PUG" d="M268.531,56.717c-2.013,4.41 -8.534,9.528 -18.018,11.565c-8.322,1.795 -1.551,5.453 -9.512,8.755c-10.068,4.176 -15.593,15.401 -16.328,27.228c-0.926,14.915 -11.208,27.581 -24.201,36.744c-0.886,0.628 -1.803,1.505 -2.11,2.42c-3.827,12.07 -7.836,24.123 -11.178,36.301c-1.48,5.386 -1.724,18.324 -1.093,18.841c1.734,1.46 3.711,2.656 5.44,4.095c2.535,2.12 3.084,4.705 3.228,7.796c0.193,4.144 -6.392,5.582 -6.392,5.582l-10.981,0c-0,0 -5.455,-3.865 -6.943,-8.025c-4.305,-12.208 -5.176,-24.7 -3.623,-37.411c0.741,-6.208 3.564,-15.934 1.8,-19.08c-1.764,-3.147 -10.171,0.113 -12.382,0.203c-19.933,0.966 -38.948,-2.608 -56.858,-10.778c-3.961,-1.825 -7.837,-3.724 -11.772,-5.545c-6.852,-3.158 -13.556,-2.204 -18.541,3.245c-8.626,9.435 -17.533,18.641 -27.539,26.796c-6.556,5.354 -13.328,10.474 -20.092,15.606c-1.587,1.211 -2.947,8.398 -3.341,10.381c-0.744,3.807 -0.841,7.53 0.922,11.23c1.156,2.464 3.303,4.976 3.862,7.584c0.908,4.243 -4.841,5.794 -4.841,5.794l-10.858,0c-0,0 -4.398,-6.66 -5.509,-10.205c-1.096,-3.503 -0.723,-14.694 -0.644,-16.515c0.324,-7.345 0.562,-14.678 0.923,-22.05c0.184,-3.344 0.668,-3.272 3.642,-5.443c1.123,-0.82 4.977,-3.119 5.739,-6.585c1.896,-8.623 4.722,-30.586 4.006,-36.917c-1.692,-14.957 -0.484,-23.837 3.68,-30.584c1.417,-2.295 9.981,-12.771 8.514,-14.595c-13.218,-16.427 1.975,-43.244 20.785,-43.512c24.462,-0.349 23.466,20.963 26.686,22.35c5.347,2.303 8.678,0.365 18.878,-0c16.946,-0.607 47.28,-2.468 52.327,-2.167c6.677,0.398 11.005,-4.638 17.445,-6.265c10.171,-2.578 10.956,-5.299 15.805,-13.918c6.817,-11.987 7.156,-16.497 18.905,-24.126c0,-0 18.888,-5.285 21.668,-4.759c2.833,0.539 13.4,2.887 17.635,3.509c9.699,1.423 19.19,13.029 18.697,16.65c-0.167,1.228 2.802,1.59 5.207,3.965c3.785,3.739 2.025,8.06 3.093,11.64c0.694,2.323 4.206,7.745 4.463,10.119c0.257,2.374 0.372,7.967 -0.594,10.081Z"/></svg>