<?xml version="1.0" encoding="UTF-8" standalone="no"?><!DOCTYPE svg PUBLIC "-//W3C//DTD SVG 1.1//EN" "http://www.w3.org/Graphics/SVG/1.1/DTD/svg11.dtd"><svg width="100%" height="100%" viewBox="0 0 271 236" version="1.1" xmlns="http://www.w3.org/2000/svg" xmlns:xlink="http://www.w3.org/1999/xlink" xml:space="preserve" xmlns:serif="http://www.serif.com/" style="fill-rule:evenodd;clip-rule:evenodd;stroke-linejoin:round;stroke-miterlimit:2;"><path id="S2-POMERANIAN" d="M221.185,3.266c-3.624,-4.369 -5.464,-4.324 -9.98,0.18c-1.998,1.998 -6.638,3.963 -10.307,4.369c-13.424,1.468 -29.06,13.92 -45.859,36.533c-9.009,12.125 -14.992,17.431 -22.692,20.107c-5.419,1.885 -6.694,1.75 -6.694,-0.711c-0,-4.008 -17.621,-16.946 -21.371,-19.712c-3.413,-2.517 -24.798,-5.27 -28.766,-4.843c-7.41,0.798 -19.242,2.771 -21.394,6.153c-3.034,4.768 -9.754,4.38 -9.754,5.769c-0,1.377 -2.687,4.617 -5.961,7.202c-5.859,4.607 -7.035,6.435 -3.94,8.385c1.458,0.919 -0.429,1.866 -5.024,7.466c-4.595,5.611 -6.245,7.904 -6.672,9.319c-1.358,4.497 2.563,2.569 -0,6.486c-2.021,3.082 -3.093,6.176 -2.393,6.887c0.711,0.711 -1.208,3.895 -4.268,7.09c-3.048,3.184 -5.283,6.672 -4.967,7.733c0.327,1.073 -1.953,6.334 -5.069,11.696c-4.685,8.072 -5.555,11.99 -5.047,22.76c0.339,7.158 1.321,16.234 2.19,20.186c1.536,6.988 2.231,27.722 14.022,27.783c1.05,0.006 1.389,-0.779 3.037,0.599c1.66,1.366 3.68,8.806 4.505,16.516c0.835,7.722 7.383,21.394 9.686,22.625c5.362,2.867 37.131,2.066 37.131,-1.163c0,-2.326 -1.659,-10.229 -3.522,-11.279c-7.44,-4.154 4.132,-22.161 14.247,-22.161c2.078,0 15.825,-7.48 17.228,-9.675c2.633,-4.118 50.075,18.026 57.667,25.119c7.823,7.308 8.422,12.735 13.796,12.735c2.473,-0 6.923,1.557 8.829,4.335c5.166,7.532 38.825,2.585 39.073,-0c0.351,-3.664 -3.737,-11.515 -7.937,-13.118c-3.33,-1.265 -5.114,-3.67 -5.091,-6.876c0.045,-6.378 4.008,-15.226 8.06,-15.297c8.73,-0.153 45.266,-26.1 39.593,-34.151c-1.294,-1.837 1.976,-5.927 4.38,-8.162c3.466,-3.241 4.471,-7.181 4.81,-19.057c0.508,-17.533 -1.434,-30.324 -5.329,-35.122c-2.371,-2.924 -10.466,-16.731 -5.351,-14.891c4.741,1.705 15.613,-3.522 17.487,-8.411c2.597,-6.751 1.276,-9.325 -6.785,-13.265c-8.117,-3.974 -8.478,-4.99 -5.825,-16.212c1.795,-7.519 -4.2,-20.05 -11.075,-23.177c-3.816,-1.739 -5.318,-4.155 -5.318,-8.546c0,-8.005 -3.612,-11.346 -10.736,-9.924c-3.76,0.756 -6.763,-0.045 -8.614,-2.28Z"/></svg>