<?xml version="1.0" encoding="UTF-8" standalone="no"?><!DOCTYPE svg PUBLIC "-//W3C//DTD SVG 1.1//EN" "http://www.w3.org/Graphics/SVG/1.1/DTD/svg11.dtd"><svg width="100%" height="100%" viewBox="0 0 262 237" version="1.1" xmlns="http://www.w3.org/2000/svg" xmlns:xlink="http://www.w3.org/1999/xlink" xml:space="preserve" xmlns:serif="http://www.serif.com/" style="fill-rule:evenodd;clip-rule:evenodd;stroke-linejoin:round;stroke-miterlimit:2;"><path id="S3-PINSCHER" d="M210.974,1.671c0.352,0.915 1.143,6.183 1.756,11.705c0.618,5.522 1.225,10.144 1.355,10.274c0.466,0.466 7.873,-10.041 10.718,-15.2c3.181,-5.761 4.021,-6.335 4.953,-3.387c0.618,1.94 -1.755,19.953 -3.061,23.215c-0.477,1.198 0.065,2.141 1.728,3.024c1.333,0.704 4.417,2.91 6.855,4.893c3.42,2.791 4.58,4.552 5.083,7.717c0.613,3.837 1.328,4.541 10.92,10.762c5.847,3.799 10.258,7.365 10.258,8.302c0,2.488 -7.278,8.698 -11.797,10.074c-3.219,0.976 -6.134,0.867 -15.027,-0.563c-9.288,-1.491 -11.255,-1.55 -12.442,-0.363c-0.781,0.78 -2.108,6.053 -2.959,11.726c-0.851,5.674 -2.531,13.597 -3.734,17.601c-1.208,4.005 -2.514,11.966 -2.904,17.688c-0.607,8.871 -1.22,11.402 -4.135,17.168c-1.875,3.717 -4.509,8.22 -5.847,10.003c-5.257,7.007 -11.83,36.736 -12.621,57.106c-0.694,17.834 0.011,21.167 4.812,22.765c4.72,1.567 8.199,6.173 6.346,8.4c-1.697,2.043 -16.453,2.281 -19.016,0.309c-0.926,-0.715 -2.731,-4.807 -4.015,-9.093c-1.285,-4.287 -2.905,-8.373 -3.604,-9.066c-0.905,-0.905 -1.414,-8.985 -1.783,-28.103c-0.282,-14.757 -0.856,-27.881 -1.273,-29.171c-0.651,-1.989 -1.501,-2.341 -5.679,-2.341c-8.806,-0 -19.888,-3.68 -36.086,-11.982c-13.623,-6.979 -16.495,-8.069 -22.554,-8.556c-13.873,-1.111 -19.525,3.479 -24.234,19.687c-3.192,10.974 -7.57,17.504 -17.742,26.461c-18.826,16.566 -22.256,21.172 -24.786,33.273c-1.577,7.533 -1.176,10.416 1.533,11.125c2.569,0.672 5.408,5.257 4.59,7.397c-0.564,1.474 -1.994,1.702 -9.126,1.447l-8.459,-0.298l-0.52,-4.162c-0.287,-2.286 -0.19,-7.207 0.217,-10.924c0.493,-4.677 0.948,-9.359 1.355,-14.047c1.094,-12.886 1.235,-13.249 7.559,-19.795c10.898,-11.277 13.775,-21.221 11.602,-40.031c-1.121,-9.684 -1.522,-11.271 -2.119,-8.323l-2.492,12.458c-2.184,10.963 -5.224,17.081 -11.25,22.635c-7.424,6.839 -19.016,8.514 -25.54,3.68c-3.75,-2.775 -7.424,-8.394 -7.424,-11.353c-0,-3.68 1.783,-2.953 4.151,1.691c4.01,7.863 13.509,9.7 22.066,4.275c7.039,-4.465 10.713,-12.631 12.713,-28.265c0.851,-6.628 2.509,-14.632 3.69,-17.786c5.452,-14.571 19.471,-26.851 36.975,-32.389c9.624,-3.051 20.874,-3.956 46.966,-3.794l25.865,0.158l10.161,-3.116c5.587,-1.718 11.315,-3.88 12.73,-4.807c3.088,-2.021 5.37,-6.367 9.868,-18.82c1.864,-5.149 5.088,-12.638 7.164,-16.637c3.273,-6.308 3.782,-8.248 3.809,-14.566c0.027,-6.286 0.64,-8.671 4.455,-17.254c6.172,-13.9 8.442,-16.821 9.976,-12.827"/></svg>