<?xml version="1.0" encoding="UTF-8" standalone="no"?><!DOCTYPE svg PUBLIC "-//W3C//DTD SVG 1.1//EN" "http://www.w3.org/Graphics/SVG/1.1/DTD/svg11.dtd"><svg width="100%" height="100%" viewBox="0 0 251 225" version="1.1" xmlns="http://www.w3.org/2000/svg" xmlns:xlink="http://www.w3.org/1999/xlink" xml:space="preserve" xmlns:serif="http://www.serif.com/" style="fill-rule:evenodd;clip-rule:evenodd;stroke-linejoin:round;stroke-miterlimit:2;"><path id="S4-CHIUAUA" d="M16.159,215.982c6.238,1.881 3.063,8.116 3.063,8.116l-14.533,0.017c-0,-0 -4.641,-5.056 -4.663,-7.187c-0.115,-11.097 0.369,-22.206 1.037,-33.292c0.117,-1.926 1.657,-4.284 3.314,-5.531c10.398,-7.822 13.446,-17.712 12.215,-30.05c-1.072,-10.708 -0.805,-21.719 0.61,-32.388c0.637,-4.808 4.908,-9.632 8.649,-13.491c2.898,-2.993 2.962,-4.872 1.387,-8.338c-12.736,-28.079 8.706,-57.453 31.977,-66.072c1.193,-0.444 6.415,-2.608 5.659,-0.95c-0.951,2.088 -8.369,9.12 -11.365,13.476c-4.841,7.044 -9.6,14.214 -13.493,21.74c-4.183,8.089 -1.101,15.759 3.96,22.65c0.811,1.106 3.804,1.962 5.064,1.426c10.156,-4.32 20.749,-3.278 31.306,-2.738c9.148,0.467 18.29,1.099 27.435,1.672c11.569,0.731 21.808,-3.728 32.467,-6.915c6.791,-2.032 11.089,-5.861 14.429,-11.343c3.645,-5.984 7.538,-11.832 11.139,-17.839c6.47,-10.804 16.226,-18.83 27.915,-23.226c13.958,-5.243 29.728,-22.793 35.089,-24.942c4.024,-1.613 -1.883,8.419 -2.927,12.047c-1.062,3.686 -2.408,7.296 -3.817,11.49c11.798,4.836 13.067,15.217 14.101,25.677c0.105,1.036 -0.694,5.595 0.603,6.338c2.908,1.669 7.527,3.836 10.632,5.232c3.228,1.444 3.636,3.026 1.304,6.22c-8.929,12.218 -21.859,14.312 -36.084,13.593c-2.398,-0.122 -6.317,-3.177 -7.255,-1.048c-2.423,5.494 -8.42,22.063 -7.278,34.011c1.088,11.403 -0.07,21.952 -8.91,31.165c-2.697,2.81 -2.751,8.308 -3.06,12.635c-0.77,10.902 -0.97,21.838 -1.45,32.756c-0.188,4.32 1.967,19.654 6.384,22.033c12.681,6.83 4.355,11.866 -0.448,11.172l-8.249,-0c0,-0 -6.075,-1.813 -8.086,-9.33c-3.705,-13.848 -7.936,-30.925 -11.899,-44.713c-1.101,-3.838 0.975,-10.346 -3.038,-11.67c-10.787,-3.559 -42.764,-4.128 -61.684,-9.686c-10.605,-3.113 -21.251,-2.999 -32.015,-2.031c-1.342,0.122 -2.752,1.411 -3.782,2.459c-4.266,4.333 -6.973,10.765 -12.673,13.084c-37.922,15.433 -40.079,45.145 -33.03,53.771"/></svg>