<?xml version="1.0" encoding="UTF-8" standalone="no"?><!DOCTYPE svg PUBLIC "-//W3C//DTD SVG 1.1//EN" "http://www.w3.org/Graphics/SVG/1.1/DTD/svg11.dtd"><svg width="100%" height="100%" viewBox="0 0 300 237" version="1.1" xmlns="http://www.w3.org/2000/svg" xmlns:xlink="http://www.w3.org/1999/xlink" xml:space="preserve" xmlns:serif="http://www.serif.com/" style="fill-rule:evenodd;clip-rule:evenodd;stroke-linejoin:round;stroke-miterlimit:2;"><path id="S5-CRESTED" d="M272.313,9.22c0.611,-5.11 0.336,-9.243 -0.621,-9.192c-0.957,0.051 -4.815,4.428 -8.581,9.732c-6.332,8.917 -6.891,9.273 -7.462,4.794c-0.794,-6.219 -3.491,-6.138 -8.815,0.275c-7.258,8.754 -15.055,16.379 -16.755,16.379c-0.896,-0 -4.103,3.736 -7.126,8.306c-3.023,4.571 -5.212,8.307 -4.855,8.307c0.346,-0 -1.426,3.959 -3.94,8.795c-2.514,4.835 -4.621,9.853 -4.682,11.146c-0.061,1.303 -3.146,4.601 -6.841,7.329c-4.927,3.644 -5.782,4.978 -3.186,4.978c5.629,-0 -0.112,5.711 -10.607,10.566c-7.93,3.665 -12.724,4.082 -48.861,4.316c-23.362,0.143 -42.866,1.151 -46.785,2.423c-10.393,3.369 -17.386,-1.7 -23.148,-16.776c-3.003,-7.879 -7.197,-14.383 -12.144,-18.852c-10.413,-9.406 -38.776,-17.154 -35.19,-9.039c2.947,6.668 -19.295,20.032 -21.499,26.996c-1.533,4.842 11.835,13.717 5.772,17.467c-9.53,5.894 -7.065,20.942 -0.754,19.728c0.409,-0.079 11.824,-2.627 9.31,5.741c-2.226,7.413 8.202,3.239 7.171,7.978c-1.144,5.257 2.02,12.088 3.318,11.994c7.566,-0.545 12.287,-11.421 10.709,-7.207c-1.537,4.123 3.451,1.385 4.52,-1.751c1.058,-3.135 2.728,-6.27 3.695,-6.972c1.649,-1.171 7.655,-8.348 4.733,-17.865c-3.013,-9.813 0.173,-17.02 7.523,-17.02c3.685,-0 7.797,2.646 13.742,8.856l8.48,8.846l-3.136,6.067c-2.31,4.468 -3.216,12.317 -3.44,29.907c-0.296,22.883 -0.519,24.115 -5.792,31.027c-3.024,3.959 -8.948,8.957 -13.162,11.105c-8.5,4.337 -14.618,12.093 -12.949,16.41c0.591,1.547 -0.193,3.858 -1.74,5.14c-1.558,1.293 -2.82,3.217 -2.82,4.296c-0,1.089 4.102,2.545 1.954,3.888c-5.038,3.146 5.436,8.154 4.805,9.793c-0.869,2.268 0.021,9.117 4.859,9.117c7.619,0 16.522,0 27.239,0c6.04,0 5.291,-5.564 -1.234,-10.99c-4.102,-3.41 -3.101,-8.316 -0.824,-9.558c0.922,-0.504 1.241,-3.624 0.763,-9.274c-0.936,-11.309 -2.168,-9.65 21.153,-28.492c5.537,-4.469 10.128,-10.739 13.803,-18.852c3.94,-8.694 14.404,-20.787 22.843,-19.626c4.967,0.682 17.865,5.374 28.665,10.423c15.004,7.034 22.466,9.376 31.678,9.976l12.043,0.784l1.384,18.415c1.171,15.564 0.886,18.974 -1.792,21.926c-1.74,1.924 -3.165,4.795 -3.165,6.383c-0,1.577 -1.09,3.97 -2.423,5.303c-1.934,1.924 1.644,1.766 0.489,4.265c-1.062,2.295 -3.319,10.882 -1.232,12.053c1.761,0.987 4.519,7.264 7.075,7.264c8.632,0 21.763,0 31.15,0c4.306,0 1.302,-9.249 -4.236,-11.479c-2.443,-0.977 -3.864,-6.212 -3.95,-7.176c-0.16,-1.806 0.803,-3.377 -1.74,-8.632c-4.113,-8.52 -4.133,-9.009 -1.12,-30.498c2.596,-18.425 3.99,-23.097 8.968,-29.958c3.237,-4.479 13.701,-43.751 16.582,-40.097c2.922,3.696 3.085,3.39 3.156,-5.863c0.091,-12.093 3.339,-24.318 6.82,-25.652c1.435,-0.55 7.553,-0.092 13.6,1.028c12.49,2.311 18.76,0.479 23.585,-6.891c3.258,-4.958 4.347,-3.695 -11.706,-13.478c-2.687,-1.639 -4.886,-3.888 -4.886,-5.008c0,-1.11 6.169,-9.732 8.418,-7.91c2.83,2.301 3.309,2.26 3.309,-0.244c-0,-1.608 -1.324,-4.021 -2.932,-5.364c-1.608,-1.344 -2.932,-3.523 -2.932,-4.856c0,-1.344 -4.021,-3.96 -8.927,-5.843c-6.841,-2.606 -8.632,-4.153 -7.675,-6.617c0.682,-1.761 1.74,-7.38 2.351,-12.49Z"/></svg>