<?xml version="1.0" encoding="UTF-8" standalone="no"?><!DOCTYPE svg PUBLIC "-//W3C//DTD SVG 1.1//EN" "http://www.w3.org/Graphics/SVG/1.1/DTD/svg11.dtd"><svg width="100%" height="100%" viewBox="0 0 259 225" version="1.1" xmlns="http://www.w3.org/2000/svg" xmlns:xlink="http://www.w3.org/1999/xlink" xml:space="preserve" xmlns:serif="http://www.serif.com/" style="fill-rule:evenodd;clip-rule:evenodd;stroke-linejoin:round;stroke-miterlimit:2;"><path id="S6-PAPILLON" d="M246.243,3.871c-1.612,-1.841 -5.295,-3.356 -8.179,-3.356c-6.313,0 -15.897,10.069 -21.361,22.428c-3.018,6.797 -4.556,8.239 -8.834,8.215c-4.337,-0.024 -6.155,-1.829 -11.086,-11.014c-9.245,-17.254 -23.943,-24.306 -34.787,-16.709c-4.423,3.09 -13.817,6.826 -10.505,13.607c1.542,3.158 2.896,-0.254 -0.352,6.095c-3.853,7.561 -11.074,11.828 -8.238,16.821c0.9,1.585 6.772,0.918 5.851,6.722c-0.811,5.028 2.133,10.408 1.709,17.69c-0.642,11.45 5.355,2.46 4.241,10.905c-0.836,6.288 2.871,3.283 2.896,6.022c0.012,1.732 -1.539,5.065 -3.442,7.415c-4.24,5.247 -21.155,6.931 -48.805,4.859l-18.163,-1.357l-1.018,-11.208c-1.866,-20.453 -17.217,-38.371 -32.097,-43.293c-7.636,-2.525 -4.214,2.924 -7.197,3.635c-10.07,2.402 -22.743,3.163 -30.219,10.966c-3.017,3.138 -4.556,5.707 -3.441,5.707c1.126,-0 4.547,-1.822 3.962,1.442c-0.974,5.431 -8.349,10.396 -9.984,14.321c-3.781,9.076 4.858,-0.702 0.787,11.099c-2.29,6.628 2.597,18.095 -3.514,23.943c-10.109,9.675 3.414,13.707 1.903,22.616c-0.934,5.5 4.228,10.317 2.653,14.097c-3.647,8.712 7.27,15.037 7.27,15.037l-1.938,3.829c-1.067,2.12 -1.539,4.943 -1.055,6.301c0.485,1.345 7.222,5.21 7.222,5.21c-0,-0 4.471,7.815 5.489,13.958c0.654,3.914 1.187,11.147 1.199,16.067c0.037,13.219 1.212,18.088 9.815,18.088c4.107,0 11.232,0 13.28,0c5.161,0 5.004,-7.779 1.187,-10.565c-3.562,-2.605 -4.168,-13.897 -1.187,-19.458c2.035,-3.805 17.244,-15.818 21.843,-14.287c1.28,0.426 16.3,-8.238 17.742,-10.068c2.484,-3.114 2.835,-3.053 5.658,0.933c2.763,3.89 18.466,-1.441 21.762,5.804c4.168,9.197 34.653,14.407 38.312,11.099c3.672,-3.32 3.72,-3.235 2.581,3.841c-0.848,5.21 8.833,8.237 7.955,11.205c-0.776,2.628 5.413,8.81 11.324,10.931c4.616,1.656 4.979,10.565 11.655,10.565c4.689,0 17.235,0 19.282,0c5.247,0 -0.016,-10.479 -5.469,-12.551c-2.496,-0.957 -5.089,-3.162 -5.755,-4.907c-1.721,-4.483 -1.442,-19.75 0.521,-28.196c2.06,-8.869 17.835,-27.456 19.495,-22.973c1.248,3.381 9.306,-11.632 9.633,-17.957c0.146,-2.883 3.937,2.035 4.532,0.63c0.872,-2.057 1.102,-8.736 0.703,-12.977c-0.546,-5.706 -0.097,-7.488 1.708,-6.797c3.078,1.187 3.162,1.854 -1.381,-12.359c-5.356,-16.745 -5.114,-19.168 1.914,-19.168c5.986,-0 13.425,-5.707 13.425,-10.3c0,-1.454 -1.878,-3.889 -4.18,-5.416l-4.168,-2.774l4.168,-4.169c2.302,-2.29 4.265,-6.106 4.374,-8.481c0.182,-4.144 4.181,-10.408 6.297,-8.954c9.954,6.833 0.476,-28.874 -2.553,-34.654c-1.381,-2.641 -3.829,-6.301 -5.44,-8.155Z"/></svg>