<?xml version="1.0" encoding="UTF-8" standalone="no"?><!DOCTYPE svg PUBLIC "-//W3C//DTD SVG 1.1//EN" "http://www.w3.org/Graphics/SVG/1.1/DTD/svg11.dtd"><svg width="100%" height="100%" viewBox="0 0 294 225" version="1.1" xmlns="http://www.w3.org/2000/svg" xmlns:xlink="http://www.w3.org/1999/xlink" xml:space="preserve" xmlns:serif="http://www.serif.com/" style="fill-rule:evenodd;clip-rule:evenodd;stroke-linejoin:round;stroke-miterlimit:2;"><path id="S7-BICHON" d="M236.708,0.493c-10.078,-0.572 -17.115,1.547 -25.473,3.135c-10.319,1.959 -18.571,7.631 -25.248,14.437c-6.918,7.054 -12.642,15.051 -17.292,23.471c-2.748,4.976 0.669,17.747 -1.901,22.809c-1.707,3.362 -16.333,2.042 -20.231,2.264c-1.938,0.111 -13.719,-22.877 -29.098,-25.252c-10.081,-1.557 -63.159,-2.421 -68.822,22.094c-0.091,0.392 0.815,13.293 5.209,18.383c0.228,0.264 4.114,6.334 0.854,10.883c-1.959,2.734 -15.456,12.063 -16.696,15.789c-0.46,1.384 -6.413,13.21 -6.937,18.589c-2.159,22.157 -15.851,42.232 -21.147,45.558c-5.009,3.145 -7.97,7.091 -9.016,12.62c-1.641,8.68 3.628,16.546 2.469,25.217c-0.552,4.138 1.452,13.539 1.452,13.539l49.132,0c-0,0 5.708,-1.889 2.717,-7.987c-1.672,-3.407 0.219,-6.746 4.695,-7.24c4.603,-0.509 28.82,-7.688 34.213,-17.075c6.463,-11.252 7.163,-25.037 8.855,-25.719c3.084,-1.245 5.693,-0.04 8.445,1.404c10.816,5.675 42.099,12.961 55.133,12.276c4.52,-0.238 6.467,1.188 6.941,5.069c0.099,0.823 1.771,24.259 1.738,26.726c-0.059,4.424 3.921,9.428 9.353,10.725c3.979,0.95 12.216,1.819 12.216,1.819l24.011,0.002c-0,0 14.032,-1.623 15.024,-4.968c1.787,-6.032 -1.897,-25.006 -2.811,-30.894c-0.586,-3.772 -1.599,-7.528 -1.731,-11.31c-0.103,-3.006 0.84,-6.04 1.319,-9.062c0.516,-3.259 2.275,-12.895 2.693,-14.445c0.118,-0.437 5.4,-17.351 6.198,-20.395c1.114,-4.249 1.953,-8.558 2.788,-12.86c0.331,-1.707 0.481,-8.845 -0.024,-10.553c-1.706,-5.77 0.326,-8.655 6.9,-9.841c8.567,-1.544 16.045,-5.278 23.307,-9.371c1.974,-1.113 8.968,-5.556 9.867,-6.926c5.537,-8.456 8.951,-17.368 6.355,-27.299c-0.993,-3.793 -3.656,-6.265 -7.997,-7.317c-1.356,-0.328 -2.702,-0.768 -3.965,-1.313c-6.28,-2.709 -7.95,-5.382 -5.858,-11.175c3.233,-8.962 0.855,-16.492 -6.45,-23.047c-2.625,-2.355 -5.123,-5.075 -8.113,-6.744c-10.469,-5.845 -23.067,-5.784 -23.074,-6.016" style="fill-rule:nonzero;"/></svg>