<?xml version="1.0" encoding="UTF-8" standalone="no"?><!DOCTYPE svg PUBLIC "-//W3C//DTD SVG 1.1//EN" "http://www.w3.org/Graphics/SVG/1.1/DTD/svg11.dtd"><svg width="100%" height="100%" viewBox="0 0 260 225" version="1.1" xmlns="http://www.w3.org/2000/svg" xmlns:xlink="http://www.w3.org/1999/xlink" xml:space="preserve" xmlns:serif="http://www.serif.com/" style="fill-rule:evenodd;clip-rule:evenodd;stroke-linejoin:round;stroke-miterlimit:2;"><path id="S8-MALTESE" d="M168.567,206.421c1.852,2.442 9.983,2.782 12.838,5.557c2.854,2.775 7.243,9.19 4.289,11.094c-1.042,0.673 -3.097,0.935 -3.097,0.935l-17.325,-0c-0.713,-0.063 -2.065,-0.249 -2.519,-0.444c-2.991,-1.285 -5.474,-3.657 -6.963,-5.667c-1.355,-1.828 -1.227,-4.286 -1.974,-6.391c-0.905,-2.55 -2.53,-5.872 -3.454,-8.908c-1.261,-4.14 -2.746,-11.339 -4.11,-15.931c-1.166,-3.926 -2.883,-8.775 -4.073,-11.619c-0.798,-1.909 -1.737,-4.036 -3.066,-5.447c-1.291,-1.37 -2.969,-2.73 -4.911,-3.02c-4.367,-0.652 -15.236,0.156 -21.286,-0.891c-5.278,-0.914 -10.274,-3.06 -15.013,-5.391c-5.175,-2.546 -11.95,-7.719 -16.034,-9.881c-2.633,-1.394 -5.705,-2.315 -8.469,-3.09c-2.645,-0.743 -6.407,-1.61 -8.118,-1.565c-0.975,0.025 -1.857,0.974 -2.15,1.832c-0.945,2.771 -0.276,10.726 -3.519,14.791c-5.686,7.126 -25.195,22.864 -30.597,27.969c-0.794,0.75 -1.738,1.615 -1.816,2.661c-0.197,2.667 0.007,10.308 0.63,13.34c0.38,1.846 1.5,3.703 3.113,4.851c1.701,1.211 5.115,1.538 7.093,2.412c1.707,0.755 4.021,1.249 4.776,2.836c0.755,1.587 1.26,5.219 -0.247,6.689c-0.697,0.679 -4.883,0.864 -4.883,0.864l-20.55,-0c-0.203,0.221 -2.923,-1.236 -3.488,-2.288c-1.158,-2.154 -1.56,-4.68 -2.056,-7.69c-0.808,-4.901 -1.309,-10.914 -2.204,-14.392c-1.071,-4.154 -3.833,-8.027 -3.893,-12.297c-0.065,-4.627 2.552,-10.273 3.504,-15.466c0.984,-5.362 2.372,-12.211 2.398,-16.711c0.02,-3.498 -1.08,-6.959 -2.243,-10.288c-1.234,-3.533 -3.979,-7.092 -5.159,-10.907c-1.46,-4.719 -3.481,-12.306 -3.601,-17.409c-0.106,-4.491 1.807,-9.962 2.878,-13.212c0.746,-2.261 2.619,-4.285 3.55,-6.288c0.858,-1.845 1.52,-3.773 2.036,-5.724c0.715,-2.704 1.656,-7.526 2.254,-10.498c0.49,-2.438 0.739,-4.918 1.332,-7.337c0.686,-2.805 0.884,-6.725 2.788,-9.493c2.244,-3.262 7.054,-8.035 10.675,-10.077c3.212,-1.812 7.48,-3.286 11.047,-2.174c5.664,1.765 18.843,9.264 22.936,12.766c2.219,1.899 0.929,6.497 1.62,8.243c0.4,1.012 1.365,2.137 2.527,2.236c10.36,0.879 46.576,2.721 59.635,3.037c6.253,0.152 13.317,-0.37 18.724,-1.141c4.688,-0.668 10.718,-1.969 13.722,-3.482c2.174,-1.094 3.701,-3.374 4.301,-5.592c0.633,-2.344 -0.522,-5.645 -0.5,-8.474c0.038,-4.982 -1.057,-14.889 0.729,-21.418c1.768,-6.465 6.508,-13.109 9.985,-17.754c2.925,-3.907 6.38,-7.8 10.875,-10.11c6.183,-3.178 18.942,-7.652 26.224,-8.958c5.729,-1.028 13.096,-0.924 17.465,1.12c4.369,2.045 7.036,8.041 8.748,11.146c1.248,2.264 -0.762,6.075 1.524,7.488c2.922,1.805 12.585,2.796 16.004,3.343c1.479,0.237 3.189,-0.704 4.505,-0.06c1.316,0.643 2.908,2.38 3.392,3.921c0.483,1.54 -0.168,3.636 -0.49,5.322c-0.311,1.633 -0.951,3.199 -1.44,4.795c-0.525,1.709 -1.162,3.719 -1.705,5.461c-0.518,1.665 -0.688,3.457 -1.551,4.995c-1.12,1.998 -3.395,5.228 -5.17,6.993c-1.527,1.518 -3.625,2.442 -5.485,3.599c-2.315,1.44 -6.384,2.757 -8.407,5.042c-2.023,2.284 -2.785,6.292 -3.732,8.666c-0.73,1.834 -1.434,3.683 -1.946,5.578c-1.278,4.741 -5.043,16.32 -5.725,22.864c-0.569,5.463 1.114,10.929 1.634,16.397c1.127,11.85 -10.32,36.758 -22.85,45.145c-7.561,5.061 -17.182,9.615 -22.55,15.349c-4.967,5.306 -7.759,14.362 -9.656,19.054c-1.166,2.883 -3.578,6.652 -1.726,9.094Z"/></svg>