<?xml version="1.0" encoding="UTF-8" standalone="no"?><!DOCTYPE svg PUBLIC "-//W3C//DTD SVG 1.1//EN" "http://www.w3.org/Graphics/SVG/1.1/DTD/svg11.dtd"><svg width="100%" height="100%" viewBox="0 0 264 212" version="1.1" xmlns="http://www.w3.org/2000/svg" xmlns:xlink="http://www.w3.org/1999/xlink" xml:space="preserve" xmlns:serif="http://www.serif.com/" style="fill-rule:evenodd;clip-rule:evenodd;stroke-linejoin:round;stroke-miterlimit:2;"><path id="S9-YORK" d="M262.785,61.163c-1.073,3.474 -4.219,8.157 -6.439,12.169c-0.805,1.447 -2.276,2.531 -3.479,3.742c-1.048,1.054 -13.761,10.047 -26.77,7.146c-2.835,-0.632 -2.903,-0.248 -4.28,2.456c-1.974,3.877 -3.239,7.972 -4.058,12.266c-0.47,2.467 -6.32,43.842 -29.932,57.974c-0.531,0.318 -2.585,13.135 -2.05,19.713c0.536,6.577 1.044,17.401 5.262,19.752c3.634,2.021 9.313,6.374 8.749,12.654c-0.088,0.986 -4.144,1.994 -4.144,1.994l-15.787,0c-0,0 -5.257,-5.14 -6.879,-7.884c-0.758,-1.283 -0.109,-37.608 -9.691,-40.505c-8.765,-2.65 -23.23,0.296 -34.711,-0c-18.992,-0.491 -77.499,-6.473 -79.689,-6.616c-15.599,-0.528 -24.011,13.817 -29.102,19.364c-3.141,3.422 -1.327,13.833 -1.449,13.922c0.798,1.199 1.51,2.466 2.414,3.58c0.654,0.803 1.524,1.448 2.362,2.073c3.388,2.531 7.07,6.235 7.093,12.557c0.007,2 -3.427,3.509 -3.427,3.509l-16.596,0c-0,0 -5.257,-6.752 -6.543,-10.246c-0.792,-2.159 -5.465,-32.933 -0.83,-46.169c1.055,-3.011 7.783,-13.537 10.012,-18.838c1.728,-4.113 7.439,-25.786 9.597,-31.89c0.646,-1.827 3.944,-5.976 3.597,-6.793c-0.734,-1.728 -1.388,-3.502 -1.943,-5.3c-1.214,-3.936 -1.825,-7.028 -1.782,-10.611c0.523,-43.832 29.164,-55.518 29.479,-55.556c2.388,-0.289 4.776,-0.782 7.164,-0.779c1.937,0.005 2.681,1.569 1.737,3.291c-0.601,1.1 -1.43,2.114 -2.314,3.004c-6.67,6.731 -11.502,14.573 -13.938,23.804c-2.722,10.298 -1.836,20.23 3.247,29.706c0.803,1.496 1.638,1.728 3.212,1.533c5.393,-0.66 10.807,-1.423 16.228,-1.558c7.632,-0.186 15.281,0.06 22.918,0.286c12.853,0.38 25.7,0.989 38.553,1.31c6.828,0.17 13.624,-0.555 20.303,-2.062c5.093,-1.151 10.203,-2.399 14.408,-5.812c4.317,-3.508 7.442,-8.029 10.038,-12.889c3.786,-7.08 7.305,-14.299 11.044,-21.405c3.055,-5.802 6.497,-11.32 11.275,-15.922c1.537,-1.477 2.487,-3.577 3.707,-5.394c-0.134,-0.089 6.574,-17.726 7.679,-19.693c1.595,-2.845 3.781,-2.877 5.534,-0.154c0.445,0.687 0.736,1.488 1.027,2.264c0.299,0.801 0.584,2.76 0.878,2.85c0.294,0.09 0.627,-1.658 0.886,-2.31c1.118,-2.834 3.391,-3.206 5.251,-0.793c0.629,0.814 1.176,1.779 1.465,2.758c0.496,1.695 0.883,3.448 1.083,5.203c0.285,2.456 -0.277,6.047 0.52,7.413c0.733,1.257 10.852,0.232 16.103,5.268c4.362,4.184 7.527,8.656 7.815,14.8c0.12,2.559 1.147,4.424 3.381,5.459c2.188,1.011 4.426,2.041 6.753,2.578c2.473,0.566 4.256,2.076 5.059,4.105c0.843,2.131 0.853,5.915 -0,8.676Z"/></svg>