<?xml version="1.0" encoding="UTF-8" standalone="no"?><!DOCTYPE svg PUBLIC "-//W3C//DTD SVG 1.1//EN" "http://www.w3.org/Graphics/SVG/1.1/DTD/svg11.dtd"><svg width="100%" height="100%" viewBox="0 0 308 238" version="1.1" xmlns="http://www.w3.org/2000/svg" xmlns:xlink="http://www.w3.org/1999/xlink" xml:space="preserve" xmlns:serif="http://www.serif.com/" style="fill-rule:evenodd;clip-rule:evenodd;stroke-linejoin:round;stroke-miterlimit:2;"><path id="XL01-GREAT-DANE" serif:id="XL01-GREAT DANE" d="M207.577,147.458c-0,-0 -35.68,-4.027 -47.458,-8.793c-12.776,-5.17 -54.436,-13.69 -58.893,-7.637c-6.524,8.859 -33.673,33.839 -36.912,36.848c-6.651,6.188 -13.574,12.258 -21.045,17.828c-12.801,9.546 -21.328,20.456 -21.235,34.788c0.016,2.56 2.681,5.256 5.176,7.138c2.248,1.693 7.258,-0.051 7.588,6.527c0.021,0.412 0.185,2.873 0.185,2.873l-23.244,-0.045c-0,0 -1.675,-2.574 -2.137,-3.565c-1.844,-3.951 -2.96,-6.745 -1.488,-10.997c0.597,-1.71 1.174,-4.743 1.35,-6.503c0.77,-7.807 1.398,-15.623 2.062,-23.439c0.366,-4.273 1.491,-7.804 6.965,-10.399c13.753,-6.523 18.993,-17.35 20.112,-29.169c1.119,-11.799 0.494,-36.821 0.33,-37.457c-0.651,0.51 -3.354,21.837 -6.92,31.752c-3.123,8.678 -7.298,16.902 -15.812,23.254c-4.316,3.217 -14.118,5.541 -15.555,5.652c-1.437,0.11 5.089,-3.206 6.936,-4.989c11.172,-10.813 16.905,-23.348 19.089,-37.105c1.558,-9.79 3.729,-19.523 5.926,-29.24c2.216,-9.774 10.101,-16.414 20.118,-21.904c9.983,-5.473 21.382,-7.449 33.064,-7.866c14.719,-0.531 71.909,-1.144 85.624,-2.428c16.572,-1.549 28.674,-8.798 36.334,-20.383c3.117,-4.722 5.737,-9.672 8.132,-14.646c3.893,-8.071 7.122,-16.347 14.331,-23.157c0.859,-0.812 1.02,-2.103 1.417,-3.194c1.443,-3.9 3.531,-7.329 9.04,-8.634c1.577,-0.375 3.129,-1.3 4.572,-1.56c1.338,-0.241 2.763,-0.288 4.089,0c1.935,0.42 4.938,1.877 7.523,2.519c3.745,0.93 7.631,1.508 11.396,2.39c5.246,1.229 8.982,3.743 11.319,7.787c0.847,1.475 3.063,2.915 5.048,3.44c7.452,1.971 18.852,3.779 22.623,5.285c1.252,0.5 -1.745,10.496 -2.758,13.839c-1.828,6.039 -5.878,8.552 -13.673,8.62c-0.908,0.009 -11.91,0.434 -16.12,-2.537c-4.557,-3.214 -13.58,-3.285 -14.263,4.015c-0.898,9.584 -1.373,19.218 -1.267,28.829c0.103,9.432 1.373,18.852 1.674,28.286c0.096,3.027 -14.414,35.85 -17.197,39.135c-5.205,6.147 -12.605,60.869 -8.748,76.028c0.641,2.511 0.953,3.696 4.374,6.47c2.164,1.757 9.419,3.686 9.679,9.951c0.016,0.413 -0.484,1.665 -1.113,1.92l-23.769,0c0,0 -2.017,-6.135 -3.315,-6.413c-4.252,-0.9 0.118,-20.949 -0.517,-22.641c-2.571,-6.874 -9.282,-42.607 -12.637,-60.473"/></svg>