<?xml version="1.0" encoding="UTF-8" standalone="no"?><!DOCTYPE svg PUBLIC "-//W3C//DTD SVG 1.1//EN" "http://www.w3.org/Graphics/SVG/1.1/DTD/svg11.dtd"><svg width="100%" height="100%" viewBox="0 0 308 238" version="1.1" xmlns="http://www.w3.org/2000/svg" xmlns:xlink="http://www.w3.org/1999/xlink" xml:space="preserve" xmlns:serif="http://www.serif.com/" style="fill-rule:evenodd;clip-rule:evenodd;stroke-linejoin:round;stroke-miterlimit:2;"><path id="XL02-IRISH-WOLFHOUND" serif:id="XL02-IRISH WOLFHOUND" d="M281.929,4.134c-8.096,-3.475 -22.436,-4.508 -23.962,-1.738c-0.595,1.081 -2.889,1.956 -5.108,1.956c-2.911,0 -6.482,3.451 -12.824,12.394c-4.838,6.828 -11.05,14.544 -13.821,17.144c-6.093,5.759 -26.104,16.597 -30.638,16.597c-1.808,0 -3.539,0.778 -3.853,1.725c-1.007,3.026 -32.295,7.692 -59.654,8.87c-33.647,1.47 -48.268,3.791 -59.297,9.453c-9.783,5.018 -22.911,17.375 -22.911,21.567c0,1.495 -1.926,6.987 -4.286,12.199c-2.359,5.225 -4.285,11.737 -4.285,14.483c-0,2.746 -0.725,6.537 -1.624,8.42c-0.898,1.884 -2.002,5.663 -2.435,8.409c-1.244,7.703 -9.459,22.174 -15.411,27.168c-2.944,2.466 -8.323,5.662 -11.937,7.096c-6.883,2.721 -11.148,8.529 -8.464,11.542c3.583,4.022 27.955,1.422 31.494,-3.353c1.071,-1.458 2.76,-2.637 3.745,-2.637c0.984,0 3.365,-1.519 5.292,-3.365c2.209,-2.134 -2.479,1.429 -4.719,13.094c-1.294,6.739 -0.149,19.515 -0.573,26.856c-0.812,14.009 -0.628,22.186 0.519,23.474c2.381,2.661 16.927,1.07 21.439,1.07c9.449,-0 9.481,-7.06 2.371,-12.297c-4.849,-3.56 -5.617,-11.591 -2.371,-24.811c1.97,-7.97 14.124,-23.085 16.981,-21.105c0.855,0.596 2.489,-0.607 3.626,-2.648c1.136,-2.054 3.019,-3.318 4.177,-2.819c1.169,0.498 2.619,-0.887 3.236,-3.074c0.628,-2.2 2.186,-3.986 3.474,-3.986c1.277,0 2.825,-1.749 3.431,-3.876c0.595,-2.126 1.699,-3.45 2.435,-2.94c1.342,0.936 5.26,-7.047 5.26,-10.717c-0,-1.081 1.158,-3.268 2.575,-4.848c1.407,-1.591 2.565,-5.103 2.565,-7.8c0,-4.642 0.357,-4.848 6.418,-3.572c3.539,0.753 7.587,1.409 8.994,1.482c1.417,0.061 3.549,0.984 4.751,2.053c1.201,1.057 2.651,1.41 3.214,0.766c0.574,-0.632 3.225,0.121 5.898,1.677c2.684,1.555 5.476,2.673 6.212,2.503c0.736,-0.183 2.684,0.243 4.329,0.935l5.996,2.527c1.645,0.705 4.091,1.07 5.422,0.814c1.331,-0.255 4.026,0.414 5.996,1.483c3.788,2.065 17.294,4.641 25.833,4.921c5.487,0.182 5.476,0.17 8.496,27.083c0.346,3.171 1.428,9.611 2.392,14.313c0.952,4.702 1.396,9.186 0.963,9.963c-0.422,0.778 0.011,1.956 0.963,2.613c0.963,0.668 1.743,4.252 1.743,7.958c-0,3.718 1.158,8.056 2.575,9.635c1.407,1.592 2.565,4.447 2.565,6.355c0,6.184 4.437,8.311 15.433,7.412c5.671,-0.45 11.093,-1.714 12.046,-2.795c2.597,-2.904 0.108,-8.238 -4.448,-9.514c-5.39,-1.518 -6.548,-8.566 -5.119,-31.299c2.186,-34.981 3.842,-42.757 10.346,-48.771c3.182,-2.953 6.309,-7.218 6.959,-9.478c0.638,-2.272 2.998,-6.184 5.238,-8.699c2.24,-2.516 4.069,-6.805 4.069,-9.551c0,-7.897 3.885,-29.44 5.314,-29.44c0.714,0 2.197,-4.848 3.29,-10.753c1.093,-5.917 3.106,-13.778 4.481,-17.46c2.207,-5.929 2.835,-6.415 5.411,-4.143c1.602,1.409 3.539,3.657 4.307,5.006c0.769,1.336 2.111,1.932 2.998,1.324c0.887,-0.62 1.602,-0.194 1.602,0.923c-0,1.118 1.158,2.03 2.576,2.03c1.406,-0 2.564,0.935 2.564,2.065c0,3.22 4.936,-3.122 6.862,-8.833c0.963,-2.819 3.247,-5.577 5.087,-6.112c1.839,-0.547 4.945,-4.034 6.904,-7.752c3.42,-6.512 3.442,-6.901 0.487,-10.571c-1.688,-2.089 -5.985,-5.479 -9.545,-7.521c-5.996,-3.426 -7.879,-8.274 -4.372,-11.263c2.142,-1.823 -2.847,-6.877 -9.697,-9.817Z"/></svg>