<?xml version="1.0" encoding="UTF-8" standalone="no"?><!DOCTYPE svg PUBLIC "-//W3C//DTD SVG 1.1//EN" "http://www.w3.org/Graphics/SVG/1.1/DTD/svg11.dtd"><svg width="100%" height="100%" viewBox="0 0 308 238" version="1.1" xmlns="http://www.w3.org/2000/svg" xmlns:xlink="http://www.w3.org/1999/xlink" xml:space="preserve" xmlns:serif="http://www.serif.com/" style="fill-rule:evenodd;clip-rule:evenodd;stroke-linejoin:round;stroke-miterlimit:2;"><path id="XL03-CHUVACH" d="M275.684,69.133c2.583,-2.825 13.011,2.036 14.668,1.944c1.762,-0.097 6.853,-3.345 8.776,-5.032c2.201,-1.93 5.871,-6.76 7.126,-9.491c0.725,-1.585 1.669,-5.102 1.546,-6.862c-0.074,-1.108 -0.851,-3.296 -1.546,-4.117c-2.909,-3.415 -12.978,-4.614 -15.367,-8.462c-1.75,-2.819 -0.254,-10.196 -0.965,-13.494c-1.344,-6.248 -8.266,-15.055 -16.379,-18.754c-0.66,-0.301 -15.585,-6.363 -22.056,-3.088c-1.419,0.717 -4.321,2.158 -5.459,3.316c-0.976,0.997 -1.917,3.936 -2.995,4.804c-1.416,1.134 -10.485,5.991 -10.485,5.991c-4.566,2.132 -30.475,33.231 -31.806,33.918c-13.211,6.817 -54.065,10.52 -54.492,10.403c-0.43,-0.111 -47.599,-3.941 -57.382,-4.342c-8.197,-0.339 -18.482,6.371 -21.734,8.462c-3.267,2.099 -19.055,21.383 -19.273,21.728c-0.212,0.345 -25.911,48.935 -29.01,52.604c-2.201,2.605 -6.044,4.55 -11.871,12.073c-8.244,10.649 -13.533,55.47 18.876,51.476c7.424,-0.918 13.871,-18.263 15.693,-18.95c1.818,-0.69 7.641,-3.009 7.492,-2.632c-3.688,9.32 0.978,39.133 1.086,39.475c0.107,0.345 4.252,12.53 8.171,16.843l21.24,0.084c4.232,-1.749 -1.68,-12.907 -2.068,-13.174c-4.225,-2.907 -7.761,-2.822 -8.689,-2.977c-3.226,-0.538 -4.32,-10.495 -3.425,-14.381c0.82,-3.561 4.689,-8.193 5.707,-9.883c1.544,-2.573 7.926,-6.013 10.202,-7.87c1.875,-1.526 6.435,-3.163 8.46,-4.456c4.99,-3.187 14.668,-10.207 18.947,-14.409c2.347,-2.307 6.307,-7.699 8.242,-10.409c1.577,-2.205 3.363,-8.503 5.889,-9.149c2.085,-0.531 8.189,7.129 21.292,11.935c13.599,4.987 34.535,7.096 55.119,4.845c1.498,-0.164 4.162,21.55 5.351,26.646c0.818,3.5 15.023,43.241 15.71,43.241c6.423,0 26.104,0.041 26.104,0.041c0,-0 1.841,-10.717 -6.741,-16.113c-0.795,-0.5 -5.453,-0.067 -6.313,-0.456c-0.98,-0.444 -2.819,-1.871 -3.285,-2.897c-0.764,-1.682 -0.143,-6.863 -0.427,-7.471c-0.284,-0.611 0.962,-12.971 1.711,-17.228c0.511,-2.892 4.426,-22.263 4.712,-22.871c0.284,-0.611 31.212,-41.061 34.545,-48.944c3.278,-7.751 5.151,-31.596 5.151,-32.815c-0,-1.219 -3.193,-15.661 -0.048,-19.102"/></svg>