<?xml version="1.0" encoding="UTF-8" standalone="no"?><!DOCTYPE svg PUBLIC "-//W3C//DTD SVG 1.1//EN" "http://www.w3.org/Graphics/SVG/1.1/DTD/svg11.dtd"><svg width="100%" height="100%" viewBox="0 0 281 238" version="1.1" xmlns="http://www.w3.org/2000/svg" xmlns:xlink="http://www.w3.org/1999/xlink" xml:space="preserve" xmlns:serif="http://www.serif.com/" style="fill-rule:evenodd;clip-rule:evenodd;stroke-linejoin:round;stroke-miterlimit:2;"><path id="XL04-CANE-CORSO" serif:id="XL04-CANE CORSO" d="M231.978,3.054c-1.695,-3.164 -1.83,-3.139 -6.236,1.075c-2.476,2.366 -5.749,6.613 -7.285,9.425c-1.528,2.82 -5.498,7.034 -8.822,9.375c-3.315,2.334 -9.585,9.174 -13.915,15.192c-9.468,13.127 -21.403,26.48 -23.669,26.48c-0.898,0 -5.338,1.754 -9.854,3.886c-10.466,4.952 -28.092,7.395 -53.38,7.395c-10.987,-0 -27.312,0.797 -36.284,1.779c-15.309,1.662 -16.946,1.553 -26.254,-1.813c-5.464,-1.972 -13.101,-5.707 -16.979,-8.301c-7.906,-5.296 -12.053,-5.38 -12.783,-0.277c-0.612,4.264 8.116,13.102 18.255,18.474c7.974,4.23 8.704,6.018 4.147,10.147c-6.253,5.657 -9.795,17.567 -10.584,35.553c-0.915,21 -4.121,29.141 -15.704,39.843l-8.259,7.637l-2.081,19.783c-2.636,25.045 -2.703,33.959 -0.269,36.393c2.325,2.325 17.164,2.56 22.947,0.361c5.179,-1.973 5.204,-3.953 0.101,-9.048c-4.675,-4.675 -5.078,-9.896 -1.57,-20.211c3.567,-10.466 10.551,-18.045 26.573,-28.814c14.873,-9.996 22.217,-17.801 29.955,-31.81c4.373,-7.931 5.053,-8.46 10.878,-8.46c3.76,0 14.982,3.5 28.486,8.88c22.477,8.964 34.068,12.069 45.08,12.069c5.699,0 6.068,0.319 7.042,6.044c0.562,3.323 1.477,16.198 2.031,28.603c0.713,15.889 1.687,23.333 3.29,25.18c1.251,1.443 2.703,5.43 3.231,8.863c0.529,3.433 1.671,7.151 2.543,8.259c1.872,2.375 26.489,2.786 30.107,0.495c3.382,-2.14 -0.328,-9.761 -4.751,-9.761c-2.098,-0 -3.928,-1.612 -5.036,-4.432c-2.492,-6.337 -0.604,-31.415 4.079,-54.077c3.265,-15.813 5.019,-20.706 10.425,-29.007c8.636,-13.261 11.49,-20.504 11.49,-29.107c-0,-6.522 9.518,-35.125 12.85,-38.617c0.705,-0.739 3.634,-0.134 6.513,1.36c11.801,6.102 28.965,-2.585 31.466,-15.922c2.014,-10.752 0.545,-14.42 -7.302,-18.188c-5.85,-2.803 -7.302,-4.348 -7.579,-8.057c-0.185,-2.518 -1.519,-5.305 -2.971,-6.195c-1.444,-0.889 -4.138,-2.887 -5.985,-4.448c-1.838,-1.553 -6.127,-3.668 -9.526,-4.683c-4.994,-1.494 -6.186,-2.619 -6.186,-5.817c0,-3.172 -0.646,-3.794 -3.239,-3.114c-2.183,0.571 -3.819,-0.21 -4.986,-2.392Z"/></svg>