<?xml version="1.0" encoding="UTF-8" standalone="no"?><!DOCTYPE svg PUBLIC "-//W3C//DTD SVG 1.1//EN" "http://www.w3.org/Graphics/SVG/1.1/DTD/svg11.dtd"><svg width="100%" height="100%" viewBox="0 0 281 238" version="1.1" xmlns="http://www.w3.org/2000/svg" xmlns:xlink="http://www.w3.org/1999/xlink" xml:space="preserve" xmlns:serif="http://www.serif.com/" style="fill-rule:evenodd;clip-rule:evenodd;stroke-linejoin:round;stroke-miterlimit:2;"><path id="XL05-ARGENTINA" d="M226.486,8.124c-1.95,-4.025 -4.176,-7.315 -4.93,-7.315c-1.883,0 -9.231,16.94 -9.231,21.284c-0,1.984 -3.089,6.679 -7.106,10.797c-3.908,4.009 -10.663,13.073 -14.998,20.145c-8.093,13.182 -8.093,13.182 -26.908,21.853c-7.373,3.389 -11.098,3.783 -44.994,4.77c-41.488,1.206 -48.284,2.67 -65.081,14.011c-11.559,7.8 -17.794,17.442 -22.288,34.457c-4.997,18.915 -10.412,27.025 -21.744,32.566c-10.964,5.365 -11.634,7.951 -1.775,6.846c13.484,-1.523 23.728,-12.722 30.741,-33.637l3.951,-11.767l-0.77,13.725c-1.256,22.364 -7.708,34.893 -25.226,48.945c-3.691,2.955 -4.185,4.988 -6.21,25.544c-2.092,21.284 -2.059,22.422 0.778,24.506c3.097,2.26 11.483,2.896 15.894,1.197c3.867,-1.482 3.038,-6.654 -1.548,-9.667c-3.415,-2.235 -3.926,-3.507 -3.105,-7.667c1.481,-7.44 5.683,-20.12 6.921,-20.89c0.594,-0.368 19.091,-5.658 32.189,-14.856c16.028,-11.248 23.192,-18.563 29.143,-29.728c3.067,-5.758 12.431,-12.02 12.588,-12.077c3.813,-1.394 15.45,-1.8 33.662,6.001c8.595,3.682 21.174,7.792 27.962,9.139l20.313,2.444l0.971,7.399c0.535,4.076 1.263,15.868 1.623,26.205c0.36,10.344 1.423,20.237 2.36,21.995c0.938,1.749 1.708,5.967 1.708,9.365c-0,9.608 -4.461,13.316 4.653,13.316c4.185,-0 8.303,-0.67 9.148,-1.482c0.837,-0.82 3.691,-1.724 6.344,-2.008c6.621,-0.72 6.88,-7.533 0.402,-10.638c-4.327,-2.075 -4.419,-2.41 -4.419,-16.329c-0,-19.099 5.44,-50.325 10.361,-59.532c12.22,-22.832 12.772,-24.447 13.902,-40.977c0.904,-13.257 3.8,-26.439 8.495,-38.667c0.553,-1.448 2.804,-1.356 9.299,0.36c7.582,2 9.532,1.958 17.04,-0.368c9.483,-2.938 12.655,-7.081 13.517,-17.643l0.502,-6.261l-9.642,-3.456c-8.277,-2.963 -9.759,-4.11 -10.453,-8.077c-0.611,-3.481 -2.846,-5.817 -9.031,-9.449c-7.281,-4.268 -8.378,-5.633 -9.633,-11.935c-1.783,-8.938 -4.57,-9.993 -7.006,-2.636c-2.745,8.319 -4.402,8.361 -8.369,0.192Z"/></svg>