<?xml version="1.0" encoding="UTF-8" standalone="no"?><!DOCTYPE svg PUBLIC "-//W3C//DTD SVG 1.1//EN" "http://www.w3.org/Graphics/SVG/1.1/DTD/svg11.dtd"><svg width="100%" height="100%" viewBox="0 0 308 238" version="1.1" xmlns="http://www.w3.org/2000/svg" xmlns:xlink="http://www.w3.org/1999/xlink" xml:space="preserve" xmlns:serif="http://www.serif.com/" style="fill-rule:evenodd;clip-rule:evenodd;stroke-linejoin:round;stroke-miterlimit:2;"><path id="XL07-ASIAN" d="M211.377,237.089l22.525,-0c-0,-0 5.319,-2.56 4.856,-5.927c-0.656,-4.77 -0.697,-5.867 -2.37,-7.667c-2.78,-2.99 -7.374,-1.649 -10.576,-3.732c-3.119,-2.03 -4.825,-3 -6.822,-6.048c-4.54,-6.928 -8.282,-53.274 -1.087,-68.213c5.671,-11.774 15.438,-19.085 21.937,-30.244c2.559,-4.392 4.465,-9.118 5.819,-13.96c0.988,-3.531 3.037,-14.382 4.692,-17.717c2.309,-4.649 4.975,-9.208 8.353,-13.226c1.225,-1.457 10.657,-7.186 12.882,-7.784c5.923,-1.591 15.446,0.622 20.025,-4.764c2.425,-2.854 -1.278,-3.436 0.101,-6.772c1.711,-4.144 7.785,-5.267 10.472,-8.915c2.294,-3.113 3.789,-6.716 5.218,-10.266c0.893,-2.219 -0.591,-3.378 -2.345,-4.434c-6.543,-3.939 -14.15,-5.746 -20.617,-9.792c-3.845,-2.405 -3.72,-6.379 -6.591,-9.349c-2.359,-2.441 -8.532,-4.068 -10.911,-4.668c-7.672,-1.933 -19.463,-4.688 -26.71,-0.681c-1.534,0.847 -2.572,2.321 -3.84,3.499c-4.373,4.065 -8.503,8.375 -13.084,12.228c-6.663,5.604 -13.468,11.079 -20.615,16.117c-4.721,3.329 -17.44,9.194 -22.489,11.402c-15.657,6.846 -33.242,13.378 -50.78,13.83c-5.932,0.153 -11.861,-0.439 -17.78,-0.843c-11.344,-0.773 -22.662,-1.841 -34,-2.686c-3.561,-0.265 -21.928,-0.979 -26.15,-2.655c-3.816,-1.515 -6.964,-4.304 -10.017,-6.954c-3.057,-2.652 -5.882,-5.601 -8.203,-8.857c-1.8,-2.522 -3.065,-5.394 -4.032,-8.299c-0.966,-2.903 -1.18,-5.985 -1.721,-8.985c-0.423,-2.348 -0.604,-4.738 -1.172,-7.057c-1.284,-5.241 -9.252,-8.701 -13.086,-10.627c-1.059,-0.532 -10.677,-2.292 -11.102,-2.168c-1.614,0.468 -0.965,6.788 0.013,9.471c5.085,13.945 2.343,32.418 13.741,43.178c4.219,3.983 9.97,6.362 13.988,10.527c1.024,1.061 3.128,3.465 2.746,5.418c-0.741,3.789 -6.417,7.23 -8.676,10.303c-3.188,4.336 -4.611,9.097 -5.858,14.303c-3.484,14.542 -1.425,28.333 0.65,42.88c0.593,4.162 2.154,9.086 1.668,13.329c-1.158,10.12 -9.317,18.167 -15.166,25.998c-1.475,1.975 -3.293,3.836 -4.093,6.134c-1.605,4.61 0.571,15.474 0.743,18.909c0.308,6.14 -0.091,12.3 0.257,18.438c0.256,4.519 1.557,7.499 3.913,11.399c1.246,2.062 2.713,3.998 4.175,5.927l18.638,-0c0,-0 2.614,-2.025 3.246,-3.443c1.007,-2.258 -1.095,-5.855 -1.926,-7.178c-2.778,-4.424 -5.545,-1.857 -7.885,-6.432c-1.342,-2.625 -0.482,-12.1 0.072,-14.719c3.998,-18.92 20.616,-33.141 32.323,-47.665c3.488,-4.328 6.456,-9.013 9.785,-13.453c5.493,-7.327 13.958,-23.129 26.686,-21.029c20.263,3.344 37.386,17.743 57.897,21.749c3.783,0.739 34.712,3.71 34.843,3.874c5.844,7.35 5.74,18.324 6.673,27.489c1.291,12.675 1.966,24.815 3.762,37.433c1.615,11.355 4.04,15.806 10.842,19.931c1.04,0.63 6.163,3.443 6.163,3.443Z" style="fill-rule:nonzero;"/></svg>