<?xml version="1.0" encoding="UTF-8" standalone="no"?><!DOCTYPE svg PUBLIC "-//W3C//DTD SVG 1.1//EN" "http://www.w3.org/Graphics/SVG/1.1/DTD/svg11.dtd"><svg width="100%" height="100%" viewBox="0 0 730 934" version="1.1" xmlns="http://www.w3.org/2000/svg" xmlns:xlink="http://www.w3.org/1999/xlink" xml:space="preserve" xmlns:serif="http://www.serif.com/" style="fill-rule:evenodd;clip-rule:evenodd;stroke-linejoin:round;stroke-miterlimit:2;"><rect id="ZODIAC-AQUARIUS" x="2.405" y="-0" width="723.081" height="931.476" style="fill:none;"/><clipPath id="_clip1"><rect x="2.405" y="-0" width="723.081" height="931.476"/></clipPath><g clip-path="url(#_clip1)"><g id="AQUARIUS"><path d="M281.439,0.13l11.817,9.726c12.024,12.007 36.729,46.386 44.106,61.365l8.863,17.518l-16.879,9.916c-23.236,13.735 -46.645,27.003 -70.072,40.513c-16.239,9.07 -32.686,18.589 -48.926,28.073l129.761,180.605l-1.486,8.448c-2.539,16.222 -15.203,22.131 -19.193,24.066c-23.859,13.492 -46.629,26.553 -69.64,39.631l-30.596,17.535c25.102,34.794 50.221,69.83 75.341,104.849l26.588,37.368c2.712,3.576 5.286,7.17 7.791,10.953l10.556,15.428l-6.34,11.385c-5.27,9.899 -13.476,13.924 -18.348,16.447l-104.434,59.516c10.331,13.924 20.662,27.624 30.994,41.324c8.033,10.988 16.256,21.734 24.272,32.497c16.672,22.58 33.343,45.159 50.429,67.722l28.074,37.576l-11.592,12.87c-8.034,8.846 -17.294,13.925 -24.705,17.708c-2.315,1.279 -4.647,2.557 -6.945,4.043c-6.548,4.215 -13.32,7.999 -20.058,11.799l-20.472,11.817l-11.402,-9.087c-2.954,-2.09 -5.701,-4.215 -8.223,-7.601l-183.974,-246.012l7.153,-12.024c5.908,-10.314 14.788,-14.962 20.282,-17.708l2.332,-1.279c21.077,-12.197 41.946,-24.256 63.075,-36.28l38.163,-21.958c-9.053,-12.853 -18.347,-25.516 -27.417,-37.973c-7.602,-10.763 -15.393,-21.508 -23.012,-32.271c-8.863,-12.456 -17.708,-24.93 -26.778,-37.351c-12.249,-16.914 -24.497,-33.758 -36.712,-51.293l-11.817,-16.672l16.672,-12.421c10.763,-8.033 21.491,-13.942 31.632,-19.418c4.458,-2.523 8.88,-4.855 13.096,-7.377c7.999,-4.82 16.032,-9.502 24.238,-13.942c6.565,-3.784 13.337,-7.567 19.85,-11.592c4.423,-2.557 8.863,-5.062 13.303,-7.395c3.576,-1.883 6.945,-3.8 10.107,-5.701l-137.967,-192.024l17.932,-14.304c2.954,-2.35 5.459,-4.44 8.414,-6.133c61.002,-34.604 121.762,-69.208 182.746,-103.795c1.901,-1.071 4.008,-1.901 5.909,-2.954l13.492,-6.133Z"/><path d="M606.584,0.981l10.988,8.638c9.26,6.98 14.978,15.411 19.816,22.788c1.676,2.522 3.386,5.061 5.079,7.394c5.062,6.305 9.934,13.06 14.771,20.265l17.708,25.102l-16.654,12.214c-11.42,8.448 -22.822,14.788 -33.775,20.921c-4.647,2.54 -9.07,5.045 -13.734,7.792c-10.729,6.323 -21.509,12.439 -32.272,18.744l-41.981,23.876c1.917,2.73 3.991,5.494 6.116,8.223c2.954,3.991 5.908,8.034 8.862,12.267c5.909,8.396 11.817,16.636 17.95,24.877l72.577,100.841c6.945,9.502 13.7,18.986 20.04,28.92l6.341,9.502l-4.648,10.538c-5.269,11.61 -14.563,16.257 -19.435,18.762c-22.736,12.888 -43.864,24.912 -65.183,36.919l-33.55,19.229l103.38,144.117c2.54,3.369 4.665,6.945 7.187,10.746l13.942,20.886l-16.067,12.007c-11.16,8.483 -22.563,14.599 -33.326,20.49c-4.422,2.315 -8.638,4.647 -12.87,7.187c-9.485,5.476 -18.779,10.763 -28.264,16.222l-42.638,24.48c29.111,39.269 58.238,78.278 87.573,117.53l28.471,37.99c1.71,2.522 3.369,5.044 5.097,7.377l12.214,17.725l-13.061,12.439c-12.473,11.575 -40.754,28.263 -60.985,37.558l-13.717,6.323l-10.348,-10.97c-3.162,-3.145 -5.269,-5.477 -7.153,-7.809l-180.829,-242.211l5.874,-11.592c5.96,-12.042 15.411,-16.914 20.904,-19.833l2.333,-1.296l100.84,-57.806c-15.393,-21.716 -31.028,-43.242 -46.645,-64.975c-22.356,-31.218 -44.901,-62.471 -67.705,-94.725l-13.268,-18.78l130.59,-75.116c-24.049,-33.775 -48.322,-67.342 -72.577,-101.065l-43.26,-60.346c-2.297,-3.369 -4.647,-6.547 -6.755,-9.726l-8.223,-12.646l3.162,-9.9c0.829,-2.142 1.485,-4.249 2.746,-6.789l2.937,-4.613l8.241,-5.701c4.008,-2.557 8.206,-5.062 12.249,-7.377l190.935,-107.613Z" style="fill-rule:nonzero;"/></g></g></svg>