<?xml version="1.0" encoding="UTF-8" standalone="no"?><!DOCTYPE svg PUBLIC "-//W3C//DTD SVG 1.1//EN" "http://www.w3.org/Graphics/SVG/1.1/DTD/svg11.dtd"><svg width="100%" height="100%" viewBox="0 0 730 934" version="1.1" xmlns="http://www.w3.org/2000/svg" xmlns:xlink="http://www.w3.org/1999/xlink" xml:space="preserve" xmlns:serif="http://www.serif.com/" style="fill-rule:evenodd;clip-rule:evenodd;stroke-linejoin:round;stroke-miterlimit:2;"><rect id="ZODIAC-PISCES" x="2.405" y="-0" width="723.081" height="931.476" style="fill:none;"/><clipPath id="_clip1"><rect x="2.405" y="-0" width="723.081" height="931.476"/></clipPath><g clip-path="url(#_clip1)"><path id="PISCES" d="M26.002,27.136c5.144,-1.126 6.859,-1.836 8.608,-1.871c25.426,-0.225 50.836,-0.173 76.228,-0.744c7.673,-0.156 12.678,2.684 17.13,8.799c68.727,94.569 123.356,196.154 149.735,311.717c4.157,18.307 6.79,37.083 10.115,55.616c0.693,3.637 1.334,7.326 2.166,11.968c3.862,0.659 7.326,1.784 10.825,1.784c42.123,0.156 84.281,0.104 126.353,0.087c2.442,-0 4.884,-0.502 8.383,-0.814c1.264,-4.053 3.118,-7.985 3.655,-12.073c10.635,-83.502 38.728,-161.098 76.885,-235.247c23.019,-44.704 49.866,-87.018 79.294,-127.634c3.291,-4.538 6.893,-8.834 10.6,-13.51c28.7,-0 57.123,-0.07 85.598,0.034c2.286,0.017 4.59,0.71 7.759,1.247c-0.744,7.552 -5.559,11.865 -8.954,16.749c-31.749,45.865 -60.882,93.427 -86.274,143.223c-25.617,50.368 -49.207,101.637 -65.367,156.145c-6.062,20.473 -11.64,41.101 -14.22,62.44c-0.26,2.356 -0.018,4.85 -0.018,7.535c6.859,3.1 13.753,1.905 20.386,1.905c52.672,0.087 105.378,-0 158.015,0.121c6.634,0 13.528,-1.178 19.677,1.559c3.308,13.839 3.931,66.684 1.143,89.339c-5.196,3.967 -11.57,2.165 -17.494,2.183c-55.166,0.086 -110.332,0.034 -165.428,0.155c-6.028,0 -12.419,-1.541 -18.862,2.702c1.403,18.499 4.85,36.997 8.989,55.409c13.631,60.57 37.672,117.052 66.32,171.681c24.803,47.337 53.088,92.387 88.214,132.692c9.387,10.808 17.84,22.395 26.569,33.342c-1.368,4.815 -4.867,3.897 -7.707,3.914c-24.769,0.104 -49.572,-0.242 -74.34,0.156c-10.063,0.208 -18.134,-3.083 -24.751,-10.513c-5.404,-6.08 -10.981,-12.003 -15.917,-18.447c-44.791,-58.335 -82.204,-121.243 -111.267,-189.157c-23.366,-54.663 -38.054,-111.717 -42.158,-171.369c-0.156,-2.459 -0.711,-4.867 -1.23,-8.331c-2.772,-0.71 -5.612,-1.992 -8.435,-1.992c-42.141,-0.156 -84.282,-0.087 -126.405,-0.035c-1.802,0 -3.568,0.624 -6.444,1.178c-0.623,2.65 -1.714,5.474 -1.94,8.418c-5.282,70.598 -24.854,137.005 -55.2,200.589c-24.457,51.199 -53.434,99.402 -86.724,145.007c-8.123,11.137 -16.905,21.737 -25.703,32.268c-7.188,8.626 -16.074,12.8 -27.731,12.488c-26.535,-0.658 -53.122,-0.225 -78.998,-0.225c-3.101,-4.728 -0.139,-6.668 1.68,-8.972c13.839,-17.009 28.249,-33.532 41.43,-51.026c60.414,-80.333 105.517,-168.685 132.139,-266.39c3.775,-13.925 6.581,-28.163 9.283,-42.348c1.75,-9.232 2.477,-18.62 3.638,-27.696c-5.075,-5.057 -10.895,-3.343 -16.195,-3.343c-55.131,-0.121 -110.262,-0.086 -165.428,-0.121c-6.651,0 -13.337,-0.415 -19.624,-0.675c-2.824,-15.156 -3.361,-68.815 -1.092,-89.513c5.959,-4.797 13.025,-2.875 19.642,-2.927c52.672,-0.121 105.326,-0.052 158.015,-0.104c6.738,0 13.423,-0.329 21.287,-0.589c1.801,-8.175 0.225,-15.415 -1.23,-22.603c-6.928,-34.624 -17.303,-68.191 -30.311,-100.961c-33.463,-84.472 -76.487,-163.644 -127.652,-238.313c-5.248,-7.621 -10.306,-15.363 -16.662,-24.907"/></g></svg>