<?xml version="1.0" encoding="UTF-8" standalone="no"?><!DOCTYPE svg PUBLIC "-//W3C//DTD SVG 1.1//EN" "http://www.w3.org/Graphics/SVG/1.1/DTD/svg11.dtd"><svg width="100%" height="100%" viewBox="0 0 730 934" version="1.1" xmlns="http://www.w3.org/2000/svg" xmlns:xlink="http://www.w3.org/1999/xlink" xml:space="preserve" xmlns:serif="http://www.serif.com/" style="fill-rule:evenodd;clip-rule:evenodd;stroke-linejoin:round;stroke-miterlimit:2;"><rect id="ZODIAC-VIRGO" x="2.405" y="0" width="723.081" height="931.476" style="fill:none;"/><clipPath id="_clip1"><rect x="2.405" y="0" width="723.081" height="931.476"/></clipPath><g clip-path="url(#_clip1)"><path id="VIRGO" d="M534.249,671.5c4.93,1.264 7.455,-2.492 10.396,-4.915c26.95,-22.451 50.336,-47.896 66.475,-78.725c36.809,-70.294 51.876,-144.466 40.494,-222.93c-2.041,-13.986 -5.328,-27.903 -9.255,-41.526c-1.989,-6.941 -5.933,-13.657 -10.326,-19.543c-6.02,-8.083 -14.773,-10.524 -25.047,-7.875c-7.698,1.956 -14.375,5.66 -19.287,11.372c-7.49,8.638 -14.807,17.639 -20.913,27.228c-11.728,18.452 -19.339,38.826 -27.728,58.818c-2.941,7.028 -4.117,14.056 -4.186,21.533c-0.364,30.69 -1.073,61.38 -1.436,92.018c-0.536,51.739 -0.934,103.425 -1.263,155.146c-0.034,3.185 -1.055,6.734 2.076,9.399m-192.869,19.266c-18.319,2.389 -81.576,3.029 -93.858,0.969c-2.196,-18.902 1.609,-563.618 1.609,-584.355c-3.494,0.814 -6.331,0.848 -8.459,2.06c-10.776,6.145 -19.356,14.748 -27.451,23.852c-27.088,30.517 -43.296,66.089 -51.91,105.087c-6.798,30.673 -9.358,61.796 -10.846,93.091c-5.38,112.599 -3.269,225.268 -3.84,337.884c-0.052,7.253 1.02,14.713 -1.678,21.533c-13.492,2.458 -63.344,3.064 -91.263,1.143c-0.622,-2.856 -2.006,-362.446 -2.214,-531.44c-0.034,-11.84 -1.556,-23.766 -3.252,-35.554c-0.795,-5.539 -3.165,-10.992 -5.794,-16.012c-6.695,-12.618 -15.447,-16.634 -30.306,-14.834c-2.318,0.277 -4.636,0.329 -6.936,0.415c-0.537,0.018 -1.055,-0.398 -2.595,-0.952c-0.242,-19.94 -0.242,-40.262 0,-60.843c21.328,-7.166 39.906,-11.58 59.954,-5.574c16.242,4.864 30.842,18.903 40.667,32.335c7.196,9.832 12.523,20.546 15.931,32.144c4.151,13.934 8.113,27.92 12.679,43.724c3.166,-5.747 5.778,-9.988 7.974,-14.506c9.583,-19.594 20.913,-38.167 35.097,-55.027c8.563,-10.213 18.128,-19.456 29.32,-26.968c35.65,-23.853 74.709,-18.314 101.624,14.609c14.841,18.227 23.421,39.258 28.437,61.795c0.519,2.181 0.969,4.414 1.54,6.613c0.121,0.467 0.605,0.882 0.968,1.402c4.221,0.692 4.342,-2.666 5.363,-5.107c12.298,-29.686 31.464,-54.577 57.29,-74.466c6.815,-5.262 14.495,-9.71 22.366,-13.466c20.082,-9.555 40.009,-7.928 58.864,3.271c25.272,14.956 41.756,36.316 48.122,64.53c4.739,21.222 6.504,42.807 6.417,64.409c-0.104,23.888 -1.332,47.74 -1.937,71.61c-0.208,8.967 -0.035,17.95 -0.035,29.669c3.27,-3.445 4.947,-4.743 5.985,-6.37c5.847,-9.191 11.019,-18.833 17.506,-27.591c5.102,-6.855 11.174,-13.277 17.833,-18.781c18.163,-15.042 38.92,-17.535 61.113,-9.573c15.274,5.47 27.78,14.748 38.021,26.882c12.8,15.181 21.622,32.456 28.472,50.735c19.529,52.102 27.07,105.606 21.587,160.979c-7.161,72.302 -27.572,140.537 -65.212,203.579c-21.674,36.263 -48.486,68.58 -82.683,94.666c-7.853,5.972 -16.139,11.39 -24.425,17.206c-2.975,19.265 4.238,39.119 19.806,53.383c8.615,7.927 18.699,13.709 30.012,17.327c5.57,1.817 11.243,3.254 17.695,5.071c3.494,12.377 1.574,25.428 1.574,38.324c0,12.324 1.938,24.822 -1.643,37.769c-34.509,-3.669 -65.8,-13.795 -92.352,-35.311c-26.258,-21.308 -42.345,-48.363 -47.43,-81.182c-5.484,-1.904 -7.594,2.492 -10.448,4.708c-14.894,11.528 -31.102,20.183 -49.973,24.233c-31.188,6.682 -60.611,1.974 -90,-11.891c-1.28,-23.628 -1.09,-47.204 -1.055,-71.68c5.224,0.935 8.648,1.42 12.056,2.199c11.434,2.579 22.747,5.591 34.232,7.858c10.517,2.06 20.948,1.143 31.482,-1.298c19.46,-4.5 32.174,-15.786 38.747,-33.754c4.982,-13.64 5.812,-27.885 5.674,-42.097c-0.381,-35.848 -1.644,-71.644 -1.834,-107.458c-0.329,-77.408 -0.19,-154.782 -0.329,-232.139c-0.155,-70.554 -0.398,-141.091 -0.64,-211.645c-0.017,-3.808 -0.415,-7.616 -0.588,-10.905c-4.532,-2.112 -6.521,0.623 -8.597,2.302c-30.375,24.13 -50.924,54.82 -64.209,90.287c-9.444,25.22 -14.962,51.358 -18.128,77.997c-5.846,48.675 -6.884,97.575 -7.766,146.509c-1.332,72.198 -3.875,249.57 -6.331,266.62"/></g></svg>