<?xml version="1.0" encoding="UTF-8" standalone="no"?><!DOCTYPE svg PUBLIC "-//W3C//DTD SVG 1.1//EN" "http://www.w3.org/Graphics/SVG/1.1/DTD/svg11.dtd"><svg width="100%" height="100%" viewBox="0 0 730 934" version="1.1" xmlns="http://www.w3.org/2000/svg" xmlns:xlink="http://www.w3.org/1999/xlink" xml:space="preserve" xmlns:serif="http://www.serif.com/" style="fill-rule:evenodd;clip-rule:evenodd;stroke-linejoin:round;stroke-miterlimit:2;"><rect id="ZODIAC-CANCER" x="2.405" y="0" width="723.081" height="931.476" style="fill:none;"/><g id="CANCER"><path d="M278.524,84.859c55.612,-2.618 110.115,45.35 110.115,108.607c-0,64.106 -53.879,109.248 -107.706,109.716c-63.707,0.641 -110.79,-52.579 -111.241,-108.191c-0.659,-59.963 50.151,-111.866 108.832,-110.132m-120.395,-20.941c-54.953,51.053 -92.016,113.634 -116.667,183.86c-17.44,50.168 -28.795,101.828 -35.122,154.822c-4.785,41.64 -5.01,83.315 -1.734,124.972c3.71,47.325 14.389,93.316 26.836,139.117c15.047,55.196 37.288,107.531 60.622,159.208c11.788,25.986 23.975,51.469 36.196,77.212c2.618,5.652 6.969,12.413 10.228,18.081l72.445,0c3.692,-6.743 -2.41,-15.48 -4.369,-19.849c-17.699,-39.698 -36.421,-79.136 -53.653,-119.042c-24.217,-57.138 -43.841,-115.61 -56.929,-176.232c-6.137,-28.552 -10.246,-57.138 -13.938,-86.14c-3.103,-24.651 -4.178,-49.06 -2.843,-73.693c2.843,-58.455 14.371,-115.16 35.312,-169.905c0.867,-2.392 2.41,-4.351 4.351,-7.402c3.294,5.218 6.12,10.02 8.963,14.614c35.104,57.588 86.573,88.549 153.522,89.416c99.437,1.075 163.786,-72.185 177.966,-143.954c18.757,-93.767 -38.19,-185.576 -129.114,-209.343c-65.008,-16.798 -122.77,-1.525 -172.072,44.258"/><path d="M554.612,739.102c1.75,52.769 -42.316,109.283 -109.699,109.699c-54.537,0.451 -109.699,-40.548 -110.34,-109.265c-0.676,-68.25 55.387,-111.433 110.791,-110.791c65.181,0.676 110.998,55.855 109.248,110.357m38.138,-728.817l-69.55,0c-4.143,5.01 -1.751,12.881 -0,16.781c17.439,39.248 35.52,78.287 52.145,117.794c23.957,57.103 43.598,115.784 56.461,176.614c6.328,29.678 11.338,59.53 13.955,89.642c1.075,13.296 2.618,26.592 3.277,39.698c1.751,42.732 -4.577,84.597 -13.522,126.028c-6.119,28.569 -14.614,56.081 -26.384,84.615c-2.635,-2.618 -5.028,-4.143 -6.328,-6.536c-15.064,-27.719 -35.538,-50.585 -62.373,-67.573c-103.371,-65.667 -243.147,-12.447 -271.508,110.305c-24.859,107.099 46.217,203.484 146.346,218.756c63.015,9.587 117.327,-9.812 161.359,-56.704c66.516,-70.243 107.514,-153.523 129.322,-247.325c8.061,-35.104 15.047,-70.416 17.648,-106.405c2.635,-38.381 2.843,-76.987 -1.509,-115.575c-10.037,-85.932 -33.128,-168.362 -67.833,-247.29c-16.781,-38.19 -34.012,-76.12 -51.244,-114.085c-2.617,-5.859 -6.743,-12.204 -10.262,-18.74"/></g></svg>