<?xml version="1.0" encoding="UTF-8" standalone="no"?><!DOCTYPE svg PUBLIC "-//W3C//DTD SVG 1.1//EN" "http://www.w3.org/Graphics/SVG/1.1/DTD/svg11.dtd"><svg width="100%" height="100%" viewBox="0 0 730 934" version="1.1" xmlns="http://www.w3.org/2000/svg" xmlns:xlink="http://www.w3.org/1999/xlink" xml:space="preserve" xmlns:serif="http://www.serif.com/" style="fill-rule:evenodd;clip-rule:evenodd;stroke-linejoin:round;stroke-miterlimit:2;"><rect id="ZODIAC-TAURUS" x="2.405" y="0" width="723.081" height="931.476" style="fill:none;"/><clipPath id="_clip1"><rect x="2.405" y="0" width="723.081" height="931.476"/></clipPath><g clip-path="url(#_clip1)"><path id="TAURUS" d="M362.291,851.394c98.85,-0.899 172.831,-97.101 171.983,-207.043c-0.883,-118.491 -85.178,-207.095 -177.78,-203.825c-88.033,3.15 -168.729,91.183 -167.396,208.878c1.176,104.906 73.046,201.869 173.193,201.99m362.915,-798.096c0.502,24.573 0.173,49.286 0.19,72.631c-3.374,5.278 -6.524,2.855 -9.362,2.544c-16.423,-1.679 -32.517,-0.364 -48.248,6.23c-13.377,5.659 -24.418,14.813 -33.088,28.191c-8.428,13.031 -15.489,27.1 -21.199,42.035c-3.825,9.95 -7.269,20.074 -10.712,30.198c-16.268,47.832 -39.821,90.196 -69.43,127.646c-10.712,13.619 -23.345,25.11 -35.442,37.985c67.007,57.455 104.993,135.364 107.156,234.958c1.782,82.184 -22.705,153.5 -71.835,211.681c-99.075,117.245 -260.587,110.963 -353.726,-13.17c-92.082,-122.661 -83.412,-326.365 47.435,-434.801c-2.146,-2.475 -3.911,-5.14 -6.144,-7.026c-15.384,-13.343 -28.727,-29.143 -40.65,-46.656c-24.263,-35.528 -44.562,-73.808 -58.614,-116.726c-5.711,-17.427 -13.083,-34.23 -20.784,-50.601c-16.51,-35.113 -42.762,-50.515 -76.006,-50.584c-7.061,-0.018 -15.108,0.761 -22.342,0.761l0.45,-76.837c4.102,-0.813 8.497,-2.197 12.98,-2.561c18.43,0.329 34.593,0.606 51.639,4.984c19.382,4.967 36.238,15.869 51.294,30.925c16.977,17.029 30.821,37.276 41.775,60.033c10.332,21.597 19.711,43.87 29.212,66.003c6.04,14.035 11.387,28.485 17.254,42.641c12.598,30.268 29.004,57.074 51.259,78.446c10.781,10.332 22.566,18.708 35.251,25.249c4.69,2.423 9.241,3.184 14.675,1.765c28.105,-7.476 56.572,-9.12 85.126,-4.672c8.082,1.246 16.146,2.976 24.003,5.347c4.811,1.471 8.791,0.796 13.256,-1.35c23.691,-11.387 43.333,-29.281 59.946,-52.124c12.08,-16.631 21.823,-35.113 29.853,-54.876c9.345,-22.912 18.222,-46.119 28.086,-68.72c7.753,-17.756 16.285,-35.061 25.197,-51.969c8.151,-15.488 18.465,-29.056 29.835,-41.377c19.798,-21.511 42.676,-35.061 69.551,-38.09c11.145,-1.228 21.424,-1.505 32.621,-1.921c6.005,-0.19 13.118,-0.225 19.538,3.808"/></g></svg>