<?xml version="1.0" encoding="UTF-8" standalone="no"?><!DOCTYPE svg PUBLIC "-//W3C//DTD SVG 1.1//EN" "http://www.w3.org/Graphics/SVG/1.1/DTD/svg11.dtd"><svg width="100%" height="100%" viewBox="0 0 730 934" version="1.1" xmlns="http://www.w3.org/2000/svg" xmlns:xlink="http://www.w3.org/1999/xlink" xml:space="preserve" xmlns:serif="http://www.serif.com/" style="fill-rule:evenodd;clip-rule:evenodd;stroke-linejoin:round;stroke-miterlimit:2;"><rect id="ZODIAC-SCORPIO" x="2.405" y="0" width="723.081" height="931.476" style="fill:none;"/><clipPath id="_clip1"><rect x="2.405" y="0" width="723.081" height="931.476"/></clipPath><g clip-path="url(#_clip1)"><path id="SCORPIO" d="M725.486,797.473c-1.595,1.092 -3.399,1.959 -4.769,3.364c-31.89,32.601 -63.727,65.306 -95.6,97.924c-2.809,2.896 -5.948,5.324 -9.902,8.775c-2.948,-8.445 -1.526,-15.954 -1.942,-23.098c-0.399,-6.867 -0.208,-13.804 -0.312,-20.688c-0.121,-7.405 -0.312,-14.792 -0.486,-23.081c-3.312,-0.711 -6.052,-1.734 -8.809,-1.821c-12.312,-0.329 -24.711,0.035 -37.023,-0.624c-26.132,-1.439 -52.178,-3.867 -77.288,-13.318c-16.058,-6.086 -31.318,-14.029 -44.878,-25.855c-18.625,-16.231 -31.717,-37.526 -41.168,-62.011c-8.167,-21.156 -12.364,-43.526 -15.277,-66.347c-3.538,-27.918 -3.763,-55.993 -3.642,-84.19c0.174,-35.583 -0.763,-71.184 -1.318,-106.768c-0.502,-35.583 -1.179,-71.219 -1.768,-106.802c-1.353,-85.543 -2.688,-171.121 -4.075,-256.681c-0.052,-2.774 -0.469,-5.549 -0.85,-9.936c-3.347,2.15 -5.965,3.312 -7.96,5.272c-31.404,31.075 -51.814,70.386 -63.398,116.08c-7.127,28.161 -10.925,57.017 -12.503,86.392c-3.884,72.294 -2.497,144.641 -2.202,217.022c0.208,45.936 0.832,91.889 1.127,137.86c0.069,10.855 -0.347,21.78 -0.694,32.653c-0.052,2.22 -0.797,4.335 -1.144,5.983c-1.491,0.849 -2.341,1.595 -3.278,1.716c-2.427,0.295 -4.907,0.503 -7.369,0.399c-21.139,-0.815 -42.26,-1.751 -64.353,-2.688c-0.45,-4.803 -1.109,-9.208 -1.144,-13.612c-0.312,-51.121 -0.52,-102.242 -0.763,-153.363c-0.243,-54 -0.416,-107.982 -0.746,-161.982c-0.537,-83.826 -1.162,-167.687 -1.768,-251.512c-0.035,-5.081 -0.365,-10.093 -0.625,-16.786c-3.589,1.838 -6.347,2.705 -8.566,4.508c-10.682,8.636 -19.11,19.925 -26.896,31.821c-20.393,31.092 -33.19,66.294 -41.202,104.011c-7.873,36.988 -10.89,74.739 -11.219,112.663c-0.625,74.688 -0.521,149.34 -0.503,224.028c0.017,36.762 0.537,73.525 0.763,110.271c0.017,3.364 -0.486,6.763 -0.815,10.56c-11.844,4.873 -58.803,0.572 -71.532,0.156c-0.416,-7.734 -1.057,-14.497 -1.127,-21.242c-0.537,-55.734 -0.902,-111.433 -1.456,-167.149c-0.746,-75.208 -1.665,-150.416 -2.376,-225.658c-0.416,-43.075 -0.382,-86.167 -0.919,-129.224c-0.156,-10.838 -1.162,-21.78 -2.827,-32.48c-1.006,-6.641 -3.295,-13.248 -6.104,-19.196c-5.41,-11.48 -13.422,-15.416 -24.78,-13.387c-1.925,0.329 -6.173,0.711 -8.549,1.214l0.191,-20.133c-0.226,-7.474 -0.174,-14.931 -0.174,-22.405c-0.034,-6.832 -0.017,-13.595 -0.017,-20.757c2.879,-1.283 25.543,-16.023 47.306,-10.491c17.237,3.85 29.289,21.607 38.844,38.67c4.803,8.549 8.896,17.983 11.809,27.659c4.422,14.514 7.543,29.618 11.479,45.52c1.318,-1.682 3.174,-3.174 3.937,-5.202c7.127,-19.006 15.399,-37.231 25.664,-54.208c7.682,-12.728 16.179,-24.78 27,-34.023c6.33,-5.393 13.127,-10.353 20.289,-13.925c21.035,-10.526 40.491,-5.913 58.162,10.318c8.254,7.561 14.67,16.994 20.011,27.451c6.884,13.404 11.826,27.728 15.069,42.849c1.179,5.567 2.341,11.116 4.006,18.988c2.185,-6.104 3.676,-10.057 5.115,-14.098c11.081,-30.867 27.989,-56.548 50.896,-76.837c7.908,-7.023 16.509,-12.555 26.462,-14.601c15.902,-3.312 30.312,0.797 43.457,11.618c21.034,17.22 32.462,41.133 35.843,70.387c2.168,18.797 4.526,37.595 5.393,56.462c1.596,34.959 2.671,70.005 3.07,105.034c0.832,67.768 0.693,135.536 1.699,203.305c0.572,38.462 1.318,76.907 0.035,115.421c-0.729,22.907 0.572,45.901 4.422,68.566c1.144,6.711 2.254,13.526 3.953,20.098c11.428,43.994 39.122,69.537 78.607,73.699c22.248,2.375 44.306,-0.468 67.265,-0.885c0.52,-4.387 1.353,-8.185 1.37,-11.982c0.139,-17.237 0.052,-34.474 0.122,-51.693c-0,-3.191 0.398,-6.451 0.589,-9.555c5.133,-0.538 7.041,3.364 9.382,5.861c33.485,35.74 66.831,71.583 100.247,107.358c0.659,0.71 1.682,0.988 2.532,1.456l0,6.902Z"/></g></svg>