<?xml version="1.0" encoding="UTF-8" standalone="no"?><!DOCTYPE svg PUBLIC "-//W3C//DTD SVG 1.1//EN" "http://www.w3.org/Graphics/SVG/1.1/DTD/svg11.dtd"><svg width="100%" height="100%" viewBox="0 0 725 934" version="1.1" xmlns="http://www.w3.org/2000/svg" xmlns:xlink="http://www.w3.org/1999/xlink" xml:space="preserve" xmlns:serif="http://www.serif.com/" style="fill-rule:evenodd;clip-rule:evenodd;stroke-linejoin:round;stroke-miterlimit:2;"><rect id="ZODIAC-LEO" x="0" y="0" width="723.081" height="931.476" style="fill:none;"/><clipPath id="_clip1"><rect x="0" y="0" width="723.081" height="931.476"/></clipPath><g clip-path="url(#_clip1)"><path id="LEO" d="M76.62,569.542c-1.455,48.086 37.887,100.069 100.64,101.264c51.238,1.039 102.736,-38.32 103.134,-100.641c0.329,-56.467 -44.138,-102.043 -102.458,-101.246c-69.161,0.865 -102.632,57.627 -101.316,100.623m162.995,-170.892c-1.558,-5.108 -2.77,-9.35 -4.277,-13.558c-14.182,-40.728 -24.329,-82.338 -28.415,-125.247c-3.516,-37.229 -2.165,-74.286 8.935,-110.476c7.48,-24.346 18.788,-46.788 35.948,-65.905c39.93,-44.277 89.264,-72.97 148.744,-81.073c65.005,-8.884 124.173,6.822 174.39,49.922c39.082,33.575 65.87,74.857 76.831,125.471c6.182,28.745 6.615,57.888 3.411,87.1c-5.402,50.944 -20.381,99.55 -37.922,147.48c-18.926,51.689 -40.952,101.992 -66.251,150.927c-15.013,28.952 -28.641,58.632 -41.714,88.588c-11.273,25.801 -19.013,52.745 -20.883,81.109c-1.922,30.32 5.16,57.783 26.181,80.969c24.451,26.979 54.858,34.442 89.749,27.186c17.005,-3.549 33.143,-9.939 48.641,-17.627c13.437,-6.788 46.684,-26.113 49.229,-25.541c30.078,6.822 23.533,77.783 6.113,87.099c-2.84,2.043 -6.268,5.126 -10.234,7.238c-24.9,13.438 -50.753,24.935 -78.095,32.554c-108.433,30.165 -192.086,-42.614 -213.368,-120.744c-9.697,-35.619 -9.299,-71.204 -1.368,-107.013c8.156,-37.022 21.888,-72.242 38.338,-106.338c13.628,-28.398 28.052,-56.433 42.078,-84.588c28.415,-57.126 52.952,-115.619 68.796,-177.472c9.299,-36.208 14.511,-72.866 12.502,-110.338c-0.813,-15.602 -3.757,-30.684 -8.831,-45.333c-11.411,-32.572 -32.969,-56.052 -64.987,-69.766c-25.402,-10.909 -51.792,-15.81 -79.498,-13.593c-33.419,2.632 -60.796,16.969 -82.874,41.454c-19.844,22.043 -30.268,48.433 -35.221,77.195c-6.078,34.84 -3.827,69.454 1.888,104.138c5.956,36.208 16.138,71.308 28.052,106.044c11.22,32.433 22.407,64.952 27.394,99.082c2.597,17.472 5.142,35.255 5.039,52.814c-0.381,78.632 -55.464,155.255 -146.736,171.428c-104.433,18.459 -196.45,-51.861 -209.559,-150.441c-12.588,-94.944 48.779,-172.641 131.238,-194.684c32,-8.554 64.035,-7.844 96,0.866c2.182,0.571 4.399,1.177 6.632,1.627c0.485,0.121 1.091,-0.086 4.104,-0.554"/></g></svg>