<?xml version="1.0" encoding="UTF-8" standalone="no"?><!DOCTYPE svg PUBLIC "-//W3C//DTD SVG 1.1//EN" "http://www.w3.org/Graphics/SVG/1.1/DTD/svg11.dtd"><svg width="100%" height="100%" viewBox="0 0 730 934" version="1.1" xmlns="http://www.w3.org/2000/svg" xmlns:xlink="http://www.w3.org/1999/xlink" xml:space="preserve" xmlns:serif="http://www.serif.com/" style="fill-rule:evenodd;clip-rule:evenodd;stroke-linejoin:round;stroke-miterlimit:2;"><rect id="ZODIAC-CAPRICORN" x="2.405" y="-0" width="723.081" height="931.476" style="fill:none;"/><clipPath id="_clip1"><rect x="2.405" y="-0" width="723.081" height="931.476"/></clipPath><g clip-path="url(#_clip1)"><path id="CAPRICORN" d="M578.021,493.383c-30.276,-0.45 -54.144,16.109 -71.655,45.259c-22.344,37.136 -18.966,73.474 8.002,103.196c25.08,27.609 54.854,38.019 88.058,29.376c16.991,-4.399 31.853,-14.376 43.665,-30.571c23.712,-32.511 30.571,-92.423 -13.129,-127.566c-16.714,-13.424 -35.317,-19.001 -54.941,-19.694m-337.024,414.483c-1.732,-1.958 -4.001,-4.694 -6.149,-7.137l-3.187,-80.488c7.049,-1.299 13.06,0.069 19.053,0.692c21.425,2.269 42.418,-0.381 62.96,-8.313c22.933,-8.834 41.137,-25.808 54.508,-50.455c17.286,-31.853 26.31,-67.256 28.354,-105.379c2.407,-44.237 -2.2,-87.712 -9.89,-130.753c-6.236,-34.953 -10.375,-70.235 -13.181,-105.812c-1.853,-23.92 -4.417,-47.718 -6.201,-71.603c-1.957,-25.652 -3.655,-51.356 -4.867,-77.094c-1.905,-40.513 -6.859,-80.299 -16.611,-119.097c-1.368,-5.542 -3.013,-11.12 -5.369,-16.108c-3.291,-6.911 -9.007,-9.007 -14.688,-5.56c-3.343,2.027 -6.564,4.85 -9.162,8.158c-4.919,6.253 -9.648,12.852 -13.892,19.867c-22.118,36.442 -37.343,77.198 -47.978,120.69c-10.167,41.569 -16.125,84.161 -20.455,127.272c-5.162,51.303 -6.617,102.694 -3.447,154.292c0.173,2.823 -0.191,5.733 -0.312,9.457c-2.355,0.675 -4.52,1.836 -6.703,1.853c-25.53,0.087 -51.026,0.017 -76.54,-0.052c-1.351,0 -2.65,-0.727 -4.988,-1.42c-0.173,-3.845 -0.71,-7.743 -0.485,-11.622c3.481,-65.697 -0.156,-131.1 -5.456,-196.468c-2.217,-27.384 -4.399,-54.768 -9.111,-81.701c-6.443,-36.876 -17.182,-71.777 -31.523,-104.998c-5.369,-12.401 -11.64,-24.093 -19.815,-34.018c-15.658,-19.035 -34.399,-25.755 -55.859,-21.546c-3.741,0.762 -15.658,2.996 -17.598,2.563l0,-82.914c18.256,-8.417 36.218,-10.531 54.699,-6.755c24.283,4.989 44.064,20.058 60.501,42.28c13.527,18.29 23.729,39.318 32.13,61.748c13.44,35.767 22.274,73.37 28.128,112.03c3.88,25.236 6.617,50.784 10.046,77.405c2.823,-6.443 3.464,-12.644 4.382,-18.844c6.773,-44.93 15.052,-89.357 28.51,-132.053c10.566,-33.48 24.093,-64.865 43.111,-92.284c11.778,-16.974 24.924,-32.095 40.218,-44.012c10.86,-8.469 22.396,-14.791 35.646,-15.484c13.406,-0.728 25.011,4.347 35.611,14.116c11.311,10.41 18.984,24.353 25.011,39.82c8.037,20.733 12.471,42.869 15.71,65.42c5.543,38.157 6.166,76.886 8.21,115.425c2.2,42.089 3.655,84.247 6.391,126.267c2.148,33.29 6.6,66.234 12.298,98.883c1.853,10.6 3.343,21.305 5.387,34.295c2.875,-5.317 4.711,-8.47 6.391,-11.847c18.741,-36.945 44.982,-62.736 77.25,-79.415c14.601,-7.535 30.086,-9.804 45.744,-9.596c45.934,0.641 84.42,22.292 115.407,64.086c61.332,82.758 33.533,214.481 -48.134,252.569c-37.343,17.408 -74.669,17.425 -111.77,-1.697c-14.012,-7.223 -27.176,-16.229 -39.803,-26.622c-12.678,-10.427 -24.179,-22.447 -33.325,-37.707c-1.403,-2.338 -3.065,-4.347 -4.728,-6.443c-0.225,-0.312 -0.901,-0.069 -2.027,-0.069c-2.009,14.653 -3.775,29.618 -6.131,44.41c-4.625,29.445 -11.778,57.885 -22.742,84.732c-19.105,46.662 -47.077,81.684 -87.209,100.113c-8.366,3.863 -17.2,6.166 -25.808,9.111c-5.854,1.975 -13.579,2.598 -18.55,7.812l-51.962,-0Z"/></g></svg>