<?xml version="1.0" encoding="UTF-8" standalone="no"?><!DOCTYPE svg PUBLIC "-//W3C//DTD SVG 1.1//EN" "http://www.w3.org/Graphics/SVG/1.1/DTD/svg11.dtd"><svg width="100%" height="100%" viewBox="0 0 730 934" version="1.1" xmlns="http://www.w3.org/2000/svg" xmlns:xlink="http://www.w3.org/1999/xlink" xml:space="preserve" xmlns:serif="http://www.serif.com/" style="fill-rule:evenodd;clip-rule:evenodd;stroke-linejoin:round;stroke-miterlimit:2;"><rect id="ZODIAC-LIBRA" x="2.405" y="0" width="723.081" height="931.476" style="fill:none;"/><g id="LIBRA"><path d="M211.015,913.287l0,-333.287c0,0 116.528,-3.684 130.903,-3.684c3.114,5.138 6.297,10.275 9.463,15.431c13.58,22.523 30.516,41.968 52.244,56.931c48.04,33.128 106.771,32.246 153.842,-2.352c25.482,-18.666 43.784,-43.179 57.364,-71.498c15.69,-32.92 22.766,-67.709 23.216,-104.02c0.449,-38.854 -6.747,-76.117 -23.424,-111.338c-11.832,-24.946 -27.696,-46.743 -48.61,-64.751c-24.116,-20.742 -51.777,-33.232 -83.902,-34.529c-29.443,-1.177 -55.928,7.542 -79.818,24.651c-21.469,15.466 -37.28,35.827 -50.255,58.593c-2.992,5.38 -5.812,10.846 -8.597,15.984c-16.815,3.01 -116.078,5.536 -132.426,2.889c-0.502,-4.377 -0.242,-338.01 0,-343.874l96.097,-0l0,233.176c5.934,-6.47 66.429,-62.744 94.835,-75.667c70.217,-32.124 136.975,-24.063 199.564,19.773c40.947,28.769 69.56,68.038 90.354,113.051c16.157,34.962 25.879,71.774 30.55,110.058c7.906,64.578 0.657,127.045 -23.008,187.419c-18.355,46.847 -45.532,87.638 -84.749,119.625c-40.913,33.231 -87.43,50.115 -140.487,46.656c-33.353,-2.145 -63.834,-13.113 -91.997,-30.828c-17.421,-10.812 -69.474,-51.275 -75.062,-57.139l0,228.73l-96.097,0Z"/><rect x="2.405" y="18.448" width="96.063" height="894.958"/></g></svg>