<?xml version="1.0" encoding="UTF-8" standalone="no"?><!DOCTYPE svg PUBLIC "-//W3C//DTD SVG 1.1//EN" "http://www.w3.org/Graphics/SVG/1.1/DTD/svg11.dtd"><svg width="100%" height="100%" viewBox="0 0 725 934" version="1.1" xmlns="http://www.w3.org/2000/svg" xmlns:xlink="http://www.w3.org/1999/xlink" xml:space="preserve" xmlns:serif="http://www.serif.com/" style="fill-rule:evenodd;clip-rule:evenodd;stroke-linejoin:round;stroke-miterlimit:2;"><rect id="ZODIAC-ARIES" x="0" y="0" width="723.081" height="931.476" style="fill:none;"/><clipPath id="_clip1"><rect x="0" y="0" width="723.081" height="931.476"/></clipPath><g clip-path="url(#_clip1)"><path id="ARIES" d="M609.156,48.814c57.618,16.788 92.597,63.174 107.43,133.167c6.872,32.522 6.491,99.331 6.491,99.331c-1.489,14.972 -3.617,30.116 -7.148,44.551c-4.933,20.268 -11.372,39.999 -17.36,59.868c-0.952,3.324 -2.7,6.318 -3.895,8.931c-11.025,2.233 -54.485,4.483 -62.672,3.185c0.692,-4.085 1.039,-8.169 2.025,-12.012c8.481,-32.435 14.556,-65.528 17.429,-99.469c1.731,-20.493 2.925,-41.193 -1.627,-61.495c-3.08,-13.57 -7.615,-26.222 -14.088,-37.836c-19.437,-34.927 -47.251,-46.195 -79.565,-32.331c-13.656,5.85 -25.322,15.612 -35.62,28.056c-15.266,18.537 -26.204,40.691 -35.36,64.386c-12.912,33.543 -22.137,68.73 -29.113,104.8c-12.929,66.671 -25.425,133.532 -34.356,201.189c-5.66,43.097 -9.675,86.609 -12.912,130.121c-4.396,59.211 -7.373,118.629 -10.852,178.013c-1.108,19.385 -1.783,38.822 -2.752,58.207c-0.208,3.566 -0.883,7.131 -1.367,10.748c-3.739,1.991 -57.445,1.454 -65.044,-0.536c-0.588,-4.31 -1.436,-8.325 -1.627,-12.358c-2.284,-46.074 -4.067,-92.183 -6.732,-138.222c-4.016,-70.288 -8.845,-140.489 -17.862,-210.085c-4.708,-36.502 -10.852,-72.745 -17.118,-108.954c-7.304,-42.127 -14.971,-84.117 -23.366,-125.933c-6.092,-30.618 -14.729,-60.336 -25.927,-88.842c-7.979,-20.302 -17.308,-39.462 -29.649,-56.164c-14.227,-19.316 -31.085,-32.868 -52.062,-38.32c-19.472,-5.037 -37.109,-0.554 -52.288,15.092c-21.635,22.276 -31.95,51.769 -32.799,86.212c-0.657,24.975 1.956,49.725 6.301,74.078c3.842,21.306 8.913,42.249 13.431,63.347c0.502,2.285 1.038,4.552 1.402,6.179c-0.45,1.316 -0.554,1.991 -0.831,2.389c-0.312,0.432 -0.866,0.83 -1.281,0.779c-20.008,-0.918 -39.982,-1.87 -60.267,-2.856c-1.765,-4.05 -3.582,-7.581 -4.915,-11.476c-10.021,-29.008 -18.831,-58.57 -22.743,-90.019c-0.727,-5.486 -0.519,-75.134 0.035,-80.932c1.748,-16.875 4.829,-33.404 9.381,-49.414c17.464,-61.496 52.114,-101.01 103.294,-115.756l48.03,0.156c7.494,2.682 15.542,5.798 22.829,9.121c33.993,15.352 61.288,42.249 83.909,76.847c18.381,28.074 31.137,60.042 41.211,93.81c11.717,39.393 19.16,80.188 26.412,121.087c6.525,36.693 13.5,73.282 20.371,109.871c1.056,5.487 2.925,10.714 5.002,18.174c1.904,-4.241 3.133,-6.127 3.635,-8.274c2.302,-10.558 4.69,-21.064 6.49,-31.743c6.906,-40.327 13.31,-80.828 20.372,-121.121c6.369,-36.174 14.816,-71.638 26.62,-105.717c12.479,-36.018 28.471,-69.284 51.128,-96.925c25.875,-31.674 55.956,-56.598 92.511,-64.854c1.263,-0.311 46.195,-0.398 47.459,-0.051"/></g></svg>