<?xml version="1.0" encoding="UTF-8" standalone="no"?><!DOCTYPE svg PUBLIC "-//W3C//DTD SVG 1.1//EN" "http://www.w3.org/Graphics/SVG/1.1/DTD/svg11.dtd"><svg width="100%" height="100%" viewBox="0 0 308 236" version="1.1" xmlns="http://www.w3.org/2000/svg" xmlns:xlink="http://www.w3.org/1999/xlink" xml:space="preserve" xmlns:serif="http://www.serif.com/" style="fill-rule:evenodd;clip-rule:evenodd;stroke-linejoin:round;stroke-miterlimit:2;"><path id="_05H-OTTERHOUND" serif:id="05H-OTTERHOUND" d="M242.981,150.723c4.299,-4.598 10.049,-14.204 12.177,-22.208c2.938,-11.05 4.371,-39.253 5.45,-44.093c0.426,-1.91 1.076,-4.374 1.422,-4.528c-0,-0 30.148,-0.645 33.477,-6.364c0.081,-0.14 11.645,-12.45 11.96,-23.898c0.115,-4.148 1.357,-4.712 -2.703,-6.651c-6.114,-2.922 -12.245,-5.821 -18.294,-8.845c-3.037,-1.519 -3.069,-2.087 -1.116,-4.677c0.049,-0.065 0.107,-0.127 0.158,-0.193c3.034,-3.963 -1.981,-7.97 -2.41,-7.985c-9.87,-0.355 -18.743,-3.938 -27.944,-6.502c-1.679,-0.468 -3.905,-0.152 -5.637,0.395c-11.714,3.685 -21.506,10.155 -26.465,20.025c-5.569,11.082 -15.905,17.458 -25.862,24.429c-9.267,6.487 -20.519,8.762 -31.9,10.568c-28.91,4.589 -99.413,7.021 -100.335,6.646c-7.909,-3.207 -15.459,-6.921 -21.844,-12.262c-3.348,-2.8 -5.258,-6.214 -6.186,-10.131c-3.904,-16.499 -1.575,-32.28 6.948,-47.373c1.3,-2.303 -0.303,-6.894 -1.422,-6.102c-42.023,29.731 -26.741,74.489 -26.397,75.506c1.269,3.748 12.977,20.955 15.71,21.066c0.244,0.011 0.858,1.694 0.54,2.278c-1.867,3.434 -4.289,6.572 -6.084,10.07c-11.851,23.096 -0.878,50.728 -2.297,53.036c-3.565,5.795 -15.887,22.781 -18.196,25.625c-0.989,1.218 -3.379,8.628 -4.221,16.442c-0.03,0.292 -0.758,21.701 -0.857,23.519c-0.192,3.526 5.078,7.284 5.078,7.284l16.422,-0.078c0,0 9.809,-0.183 9.615,-4.26c-0.442,-9.27 -7.332,-6.049 -8.533,-7.729c-1.754,-2.454 -2.008,-4.901 -1.082,-7.734c2.69,-8.22 8.076,-14.712 15.058,-20.573c15.104,-12.685 29.845,-25.706 44.768,-38.559c2.257,-1.945 4.673,-3.748 7.049,-5.583c1.697,-1.309 3.579,-1.567 5.8,-0.986c11.463,3.002 21.514,8.17 30.44,15.114c0.407,0.316 40.189,6.043 50.691,4.435c9.169,-1.404 20.944,42.26 21.235,47.74c0.414,7.82 11.565,18.135 11.565,18.135l18.384,0.078c-0,0 6.482,-1.196 6.687,-4.338c0.094,-1.457 -1.673,-5.102 -2.518,-6.066c-1.04,-1.186 -3.728,-2.571 -5.43,-2.682c-7.244,-0.473 -8.656,-8.486 -9.341,-14.716c-0.543,-4.938 0.202,-9.997 0.554,-14.993c0.452,-6.433 1.124,-12.853 1.623,-19.285c0.565,-7.289 4.485,-12.944 10.65,-17.618c1.457,-1.104 10.452,-1.998 13.613,-5.379Z" style="fill-rule:nonzero;"/></svg>