<?xml version="1.0" encoding="UTF-8" standalone="no"?><!DOCTYPE svg PUBLIC "-//W3C//DTD SVG 1.1//EN" "http://www.w3.org/Graphics/SVG/1.1/DTD/svg11.dtd"><svg width="100%" height="100%" viewBox="0 0 308 237" version="1.1" xmlns="http://www.w3.org/2000/svg" xmlns:xlink="http://www.w3.org/1999/xlink" xml:space="preserve" xmlns:serif="http://www.serif.com/" style="fill-rule:evenodd;clip-rule:evenodd;stroke-linejoin:round;stroke-miterlimit:2;"><path id="_01F-AKITA" serif:id="01F-AKITA" d="M261.381,1.814c-2.425,-2.362 -4.628,-1.301 -13.153,6.35c-4.665,4.194 -9.355,7.628 -10.419,7.628c-5.791,-0 -26.592,16.363 -38.966,30.642c-13.253,15.304 -14.577,16.28 -28.386,20.823c-12.807,4.217 -17.769,4.759 -42.876,4.771c-29.834,0 -60.138,-1.663 -61.933,-3.41c-2.116,-2.06 3.428,-8.965 8.13,-10.122c3.663,-0.891 6.497,0.253 11.756,4.748c11.433,9.772 26.913,7.29 28.472,-4.555c1.25,-9.531 -2.425,-17.159 -11.409,-23.666c-16.705,-12.086 -36.887,-11.652 -54.817,1.193c-11.941,8.556 -18.041,30.281 -12.077,43.03c1.794,3.832 1.188,5.977 -3.959,13.882c-9.021,13.833 -10.704,21.846 -10.333,48.946c0.186,13.375 -0.569,26.618 -1.67,29.438c-1.102,2.819 -5.395,8.712 -9.541,13.086c-7.474,7.88 -7.548,8.134 -8.946,28.064c-0.767,11.062 -0.817,21.039 -0.087,22.184c1.906,3.012 37.831,2.554 37.777,-0.482c-0.216,-12.058 -13.725,-12.204 -13.326,-18.225c0.898,-13.542 7.723,-28.468 36.405,-38.313c10.646,-3.654 16.878,-18.581 19.996,-23.823c4.121,-6.94 7.016,-9.688 10.63,-10.109c2.734,-0.326 13.784,2.879 24.55,7.109c22.063,8.664 48.457,15.351 60.633,15.376c9.28,0.012 8.525,-1.916 12.423,31.462c1.102,9.435 2.834,18.87 3.849,20.966c1.002,2.097 3.155,7.037 4.764,10.966c2.907,7.121 2.957,7.145 14.391,7.145c14.106,0 19.662,-3.133 16.321,-9.206c-1.25,-2.277 -3.539,-4.133 -5.073,-4.133c-8.093,0 -8.477,-23.895 -0.854,-52.911c3.13,-11.881 5.296,-15.833 13.5,-24.569c6.001,-6.399 10.654,-13.508 12.04,-18.412c3.168,-11.195 17.447,-47.549 19.774,-50.357c1.212,-1.458 6.335,-2.169 13.71,-1.904c11.471,0.398 11.953,0.217 18.413,-7.049c3.65,-4.109 6.645,-8.495 6.645,-9.736c-0,-1.253 -4.851,-5.41 -10.778,-9.242c-8.613,-5.567 -10.766,-7.989 -10.766,-12.086c0,-3.157 -2.338,-7.483 -6.088,-11.243c-5.778,-5.808 -5.964,-6.47 -3.724,-13.086c1.299,-3.844 1.881,-7.459 1.274,-8.037c-0.594,-0.591 -4.207,0.735 -8.018,2.916l-6.942,3.988l-0,-4.386c-0,-2.41 -0.594,-4.952 -1.312,-5.651Z"/></svg>