<?xml version="1.0" encoding="UTF-8" standalone="no"?><!DOCTYPE svg PUBLIC "-//W3C//DTD SVG 1.1//EN" "http://www.w3.org/Graphics/SVG/1.1/DTD/svg11.dtd"><svg width="100%" height="100%" viewBox="0 0 308 237" version="1.1" xmlns="http://www.w3.org/2000/svg" xmlns:xlink="http://www.w3.org/1999/xlink" xml:space="preserve" xmlns:serif="http://www.serif.com/" style="fill-rule:evenodd;clip-rule:evenodd;stroke-linejoin:round;stroke-miterlimit:2;"><path id="_01B-KOMONDOR" serif:id="01B-KOMONDOR" d="M274.38,0.462c4.746,3.63 14.238,10.891 17.384,13.622c0.767,0.666 1.022,1.827 1.491,2.767c0.685,1.372 1.489,3.825 2.622,5.47c1.684,2.447 5.525,5.708 7.482,9.212c1.973,3.534 3.963,9.338 4.357,11.99c0.219,1.476 -1.548,2.509 -1.994,3.923c-1.072,3.397 -3.438,12.898 -4.435,16.462c-0.464,1.661 -1.059,3.591 -1.547,4.927c-0.389,1.064 -0.887,2.078 -1.381,3.089c-0.559,1.145 -1.125,2.662 -1.973,3.776c-0.851,1.117 -1.912,2.236 -3.131,2.925c-1.585,0.896 -4.8,1.769 -6.377,2.449c-1.063,0.459 -2.449,0.596 -3.084,1.633c-0.806,1.315 -1.299,4.134 -1.75,6.258c-0.5,2.349 -0.827,5.224 -1.246,7.835c-0.451,2.806 -0.793,6.043 -1.46,9.002c-1.415,6.284 -4.238,19.281 -7.035,28.702c-3.328,11.207 -10.441,29.761 -12.93,38.543c-1.292,4.559 -0.929,11.212 -2.004,14.15c-0.676,1.847 -3.889,1.58 -4.445,3.475c-0.903,3.076 0.1,11.77 -0.971,14.983c-0.767,2.301 -4.66,2.009 -5.458,4.297c-1.046,3.001 0.864,10.704 -0.82,13.708c-1.684,3.003 -7.204,3.076 -9.284,4.314c-1.254,0.746 -2.168,2.033 -3.199,3.112c-1.386,1.451 -2.735,6.011 -5.118,5.596c-7.631,-1.33 -19.443,-0.832 -25.383,-1.135c-3.421,-0.174 -6.873,-0.092 -10.255,-0.68c-5.382,-0.936 -15.047,-3.07 -22.037,-4.938c-6.708,-1.792 -13.639,-5.17 -19.904,-6.269c-5.821,-1.022 -11.789,-0.309 -17.685,-0.329c-8.669,-0.031 -24.642,-1.359 -34.323,0.147c-8.291,1.29 -18.183,6.941 -23.767,8.889c-3.196,1.115 -7.559,2.162 -9.736,2.8c-1.112,0.327 -2.172,0.982 -3.323,1.032c-1.79,0.078 -4.956,-0.647 -7.415,-0.567c-2.459,0.081 -4.873,1.116 -7.34,1.05c-2.912,-0.078 -6.802,-0.729 -10.135,-1.515c-4.99,-1.176 -16.281,-4.529 -19.802,-5.544c-0.456,-0.131 -0.856,-0.484 -1.324,-0.544c-1.334,-0.17 -5.223,-0.313 -6.678,-0.476c-0.697,-0.078 -1.42,-0.173 -2.051,-0.505c-0.886,-0.465 -2.596,-1.734 -3.266,-2.29c-0.324,-0.268 -0.415,-0.806 -0.758,-1.043c-0.501,-0.346 -2.791,-0.378 -2.244,-1.032c1.662,-1.982 9.804,-8.607 12.213,-10.861c0.839,-0.785 1.594,-1.689 2.244,-2.665c1.329,-1.996 3.863,-6.646 5.732,-9.314c1.666,-2.378 4.168,-4.09 5.483,-6.695c1.316,-2.605 1.52,-6.056 2.41,-8.934c0.871,-2.819 2.05,-5.517 2.928,-8.334c0.98,-3.142 1.92,-7.03 2.95,-10.521c1.162,-3.942 2.985,-9.218 4.024,-13.13c0.903,-3.399 1.416,-6.909 2.212,-10.34c0.871,-3.751 1.292,-8.407 3.012,-12.165c4.237,-9.261 17.451,-35.192 22.411,-43.402c1.669,-2.763 5.073,-4.157 7.347,-5.856c2.049,-1.53 3.859,-3.84 6.299,-4.336c10.643,-2.166 42.693,-7.16 57.559,-8.657c10.502,-1.057 24.826,0.321 31.639,-0.323c3.251,-0.308 6.239,-2.137 9.237,-3.543c3.743,-1.756 9.601,-4.774 13.221,-6.99c2.986,-1.828 5.854,-3.925 8.495,-6.304c3.868,-3.484 9.849,-9.689 14.715,-14.603c7.484,-7.556 20.251,-24.682 30.185,-30.731c8.69,-5.293 22.507,-5.476 29.416,-5.567"/></svg>