<?xml version="1.0" encoding="UTF-8" standalone="no"?><!DOCTYPE svg PUBLIC "-//W3C//DTD SVG 1.1//EN" "http://www.w3.org/Graphics/SVG/1.1/DTD/svg11.dtd"><svg width="100%" height="100%" viewBox="0 0 274 237" version="1.1" xmlns="http://www.w3.org/2000/svg" xmlns:xlink="http://www.w3.org/1999/xlink" xml:space="preserve" xmlns:serif="http://www.serif.com/" style="fill-rule:evenodd;clip-rule:evenodd;stroke-linejoin:round;stroke-miterlimit:2;"><path id="_01C-POMERANIAN" serif:id="01C-POMERANIAN" d="M224.056,3.611c-3.623,-4.369 -5.464,-4.324 -9.979,0.18c-1.999,1.999 -6.639,3.963 -10.308,4.37c-13.423,1.467 -29.059,13.92 -45.858,36.533c-9.009,12.125 -14.993,17.431 -22.692,20.106c-5.419,1.886 -6.695,1.75 -6.695,-0.711c0,-4.008 -17.62,-16.945 -21.371,-19.712c-3.413,-2.517 -24.797,-5.27 -28.766,-4.843c-7.409,0.798 -19.242,2.772 -21.393,6.153c-3.034,4.768 -9.755,4.38 -9.755,5.769c0,1.377 -2.687,4.617 -5.96,7.203c-5.86,4.606 -0.413,9.354 -3.941,8.385c-18.171,-4.997 -45.936,65.053 -33.439,79.436c4.699,5.409 1.321,16.235 2.19,20.186c1.535,6.988 2.231,27.722 14.022,27.784c1.05,0.005 1.388,-0.779 3.036,0.598c1.66,1.366 3.681,8.806 4.505,16.517c0.835,7.722 7.075,25.029 9.686,25.029c7.223,-0 19.949,-0 41.049,-0c2.326,-0 -2.749,-13.438 -10.444,-14.846c-8.382,-1.534 7.136,-22.162 17.252,-22.162c2.077,0 15.824,-7.48 17.228,-9.675c2.633,-4.118 50.074,18.026 57.667,25.119c1.049,0.98 1.968,1.927 2.786,2.831c5.283,5.835 6.357,9.904 11.01,9.904c2.472,0 5.055,8.829 8.424,8.829c5.792,-0 30.593,-0 41.746,-0c3.681,-0 -6.006,-16.009 -10.205,-17.612c-3.331,-1.265 -5.114,-3.669 -5.092,-6.876c0.045,-6.378 4.008,-15.226 8.061,-15.297c8.73,-0.153 45.265,-26.1 39.592,-34.151c-1.294,-1.836 1.976,-5.927 4.381,-8.162c3.466,-3.24 4.47,-7.18 4.809,-19.057c0.508,-17.533 -1.434,-30.324 -5.329,-35.122c-2.37,-2.924 -10.465,-16.731 -5.351,-14.891c4.742,1.705 15.614,-3.522 17.488,-8.41c2.596,-6.752 1.275,-9.326 -6.785,-13.266c-8.118,-3.974 -8.479,-4.99 -5.826,-16.211c1.795,-7.519 -4.199,-20.051 -11.075,-23.178c-3.816,-1.739 -5.317,-4.154 -5.317,-8.546c-0,-8.004 -3.613,-11.346 -10.737,-9.924c-3.759,0.757 -6.762,-0.045 -8.614,-2.28Z"/></svg>