<?xml version="1.0" encoding="UTF-8" standalone="no"?><!DOCTYPE svg PUBLIC "-//W3C//DTD SVG 1.1//EN" "http://www.w3.org/Graphics/SVG/1.1/DTD/svg11.dtd"><svg width="100%" height="100%" viewBox="0 0 308 238" version="1.1" xmlns="http://www.w3.org/2000/svg" xmlns:xlink="http://www.w3.org/1999/xlink" xml:space="preserve" xmlns:serif="http://www.serif.com/" style="fill-rule:evenodd;clip-rule:evenodd;stroke-linejoin:round;stroke-miterlimit:2;"><path id="_01A-PEKINGESEE" serif:id="01A-PEKINGESEE" d="M282.706,3.26c-2.95,-1.179 -12.489,-2.228 -21.204,-2.319c-21.233,-0.233 -26.532,3.926 -43.98,34.566c-14.528,25.536 -24.174,34.385 -33.907,31.133c-3.193,-1.075 -9.986,-19.823 -10.763,-21.507c-0.863,-1.865 -4.988,-2.28 -12.324,-1.256c-7.084,0.984 -39.3,-12.818 -53.675,-5.714c-14.376,7.104 -30.288,44.231 -32.578,48.338c-6.036,10.857 -11.053,25.018 -15.867,44.775c-3.241,13.319 -7.004,14.861 -13.244,22.945c-4.891,6.322 -0.71,15.664 -8.26,32.882c-7.24,16.467 -17.468,27.505 -25.504,27.505c-5.279,0 -10.752,8.564 -10.752,9.898c-0,3.9 36.624,6.88 36.12,7.981c-1.281,2.773 8.19,2.539 15.818,-0.376c4.648,-1.775 41.506,6.051 46.765,-0.039c3.028,-3.498 62.733,-14.233 73.647,-4.858c6.024,5.174 56.127,12.962 65.34,8.719c10.078,-4.642 26.596,-5.473 27.434,-8.719c2.203,-8.537 -0.256,-24.615 7.016,-27.311c4.809,-1.783 7.341,-32.62 13.062,-31.858c6.042,0.804 7.405,-8.655 8.103,-13.824c0.699,-5.169 1.98,-8.823 2.834,-8.11c4.464,3.666 5.202,-33.828 0.951,-48.014l-2.892,-9.653l6.56,-9.03c5.231,-7.19 6.512,-10.844 6.308,-17.995c-0.155,-5.558 -1.484,-10.002 -3.493,-11.674c-2.378,-1.982 -2.989,-4.819 -2.291,-10.571c1.631,-13.449 -7.986,-31.431 -19.224,-35.914Z"/></svg>