<?xml version="1.0" encoding="UTF-8" standalone="no"?><!DOCTYPE svg PUBLIC "-//W3C//DTD SVG 1.1//EN" "http://www.w3.org/Graphics/SVG/1.1/DTD/svg11.dtd"><svg width="100%" height="100%" viewBox="0 0 276 237" version="1.1" xmlns="http://www.w3.org/2000/svg" xmlns:xlink="http://www.w3.org/1999/xlink" xml:space="preserve" xmlns:serif="http://www.serif.com/" style="fill-rule:evenodd;clip-rule:evenodd;stroke-linejoin:round;stroke-miterlimit:2;"><path id="_01E-SAMOYED" serif:id="01E-SAMOYED" d="M219.508,1.937c-5.135,-3.657 -10.783,1.567 -15.107,5.292c-1.663,1.441 -7.375,4.239 -12.688,6.217c-5.313,1.989 -10.321,4.703 -11.11,6.05c-0.8,1.336 -3.398,3.451 -5.786,4.702c-2.389,1.252 -8.491,8.428 -13.562,15.95c-12.256,18.169 -15.076,21.125 -24.092,25.292c-9.206,4.26 -23.661,4.776 -23.661,0.852c0,-4.072 -16.254,-20.631 -24.176,-24.64c-3.851,-1.936 -12.11,-3.787 -18.359,-4.103c-22.935,-1.136 -44.313,16.886 -45.534,38.38c-0.305,5.428 -3.04,12.551 -7.816,20.389c-14.414,23.629 -16.528,29.31 -17.023,45.702c-0.442,14.318 4.061,35.465 9.206,43.324c2.451,3.745 2.672,6.07 0.999,10.868c-2.662,7.616 0.663,28.605 5.471,34.476c1.82,2.23 6.66,4.587 10.763,5.239c8.132,1.305 23.229,-0.421 27.606,-3.146c3.451,-2.146 1.178,-10.289 -2.883,-10.289c-4.071,0 -3.545,-9.563 0.989,-18.095c2.052,-3.83 8.606,-10.689 14.561,-15.224c5.965,-4.534 13.645,-12.393 17.064,-17.464l6.218,-9.227l9.942,5.113c5.471,2.809 16.233,7.459 23.924,10.321l32.358,5.218l3.187,11.173c3.314,11.636 14.06,42.452 31.714,42.168c27.858,-0.441 36.864,-7.586 22.798,-15.592c-5.692,-3.241 -6.049,-4.177 -6.06,-15.971c-0.021,-20.641 3.388,-31.825 13.908,-45.681c21.294,-28.016 27.049,-41.956 26.26,-63.629l-0.484,-13.424l8.332,-1.652c10.574,-2.093 18.633,-11.047 18.633,-20.705c-0,-6.165 -0.895,-7.217 -9.332,-10.941c-7.807,-3.451 -9.143,-4.84 -8.185,-8.48c1.462,-5.597 -5.029,-18.337 -11.52,-22.577c-2.915,-1.915 -5.292,-5.65 -5.671,-8.901c-0.6,-5.228 -1.334,-13.058 -10.068,-5.597c-5.115,4.369 -8.324,0.386 -10.816,-1.388Z"/></svg>