<?xml version="1.0" encoding="UTF-8" standalone="no"?><!DOCTYPE svg PUBLIC "-//W3C//DTD SVG 1.1//EN" "http://www.w3.org/Graphics/SVG/1.1/DTD/svg11.dtd"><svg width="100%" height="100%" viewBox="0 0 286 238" version="1.1" xmlns="http://www.w3.org/2000/svg" xmlns:xlink="http://www.w3.org/1999/xlink" xml:space="preserve" xmlns:serif="http://www.serif.com/" style="fill-rule:evenodd;clip-rule:evenodd;stroke-linejoin:round;stroke-miterlimit:2;"><path id="_01D-LAIKA" serif:id="01D-LAIKA" d="M243.534,5.084c-2.504,-6.588 -5.621,-5.663 -11.907,3.543c-2.608,3.824 -6.006,6.951 -7.544,6.951c-4.863,0 -22.391,9.809 -24.469,13.695c-1.091,2.036 -4.759,4.862 -8.157,6.265c-3.678,1.528 -5.756,3.606 -5.164,5.164c0.561,1.445 -1.87,5.04 -5.382,8.001c-3.512,2.951 -6.38,6.795 -6.38,8.53c-0.01,1.736 -2.889,4.967 -6.411,7.18c-3.522,2.213 -6.432,4.988 -6.484,6.151c-0.041,1.164 -4.79,4.188 -10.546,6.713c-9.528,4.187 -12.261,4.478 -30.382,3.252c-10.941,-0.748 -20.292,-1.746 -20.77,-2.224c-0.478,-0.478 -0.748,-3.948 -0.603,-7.72c0.187,-4.987 -1.278,-8.489 -5.392,-12.894c-3.201,-3.419 -4.687,-6.38 -3.429,-6.806c3.74,-1.268 -18.724,-10.526 -18.724,-11.534c0,-2.784 -11.253,-2.182 -18.9,1.019c-5.071,2.109 -6.016,1.172 -7.783,0.498c-16.293,-6.212 -50.205,24.006 -33.478,60.307c0.705,1.529 1.195,2.888 -0.727,6.234c-6.245,10.806 -9.445,19.264 -10.193,26.87c-0.925,9.476 3.034,28.927 5.902,28.927c1.101,-0 1.486,0.53 0.841,1.164c-0.644,0.644 1.081,5.621 3.814,11.076c3.906,7.772 4.592,11.076 3.169,15.295c-0.987,2.961 -1.154,7.626 -0.354,10.369c0.801,2.743 1.538,9.954 1.653,16.012c0.28,15.658 3.771,19.898 16.396,19.898c12.988,-0 18.505,-2.775 15.752,-7.928c-1.112,-2.078 -3.814,-4.343 -6.016,-5.04c-4.78,-1.517 -5.216,-8.156 -1.185,-17.819c1.85,-4.427 7.076,-9.611 15.305,-15.202c6.868,-4.665 17.352,-13.507 23.296,-19.638c10.089,-10.411 10.982,-10.91 13.497,-7.47c1.475,2.015 49.073,29.543 69.47,24.916c2.362,-0.536 4.894,9.767 7.284,17.674c2.961,9.83 5.518,14.755 8.063,15.565c2.037,0.655 4.291,3.003 4.998,5.216c0.707,2.224 10.889,4.915 13.331,6.619c4.426,3.107 18.36,4.187 24.324,1.891c6.38,-2.442 2.255,-12.749 -5.102,-12.749c-1.912,-0 -4.031,-0.915 -4.727,-2.026c-2.162,-3.502 -1.6,-35.13 0.696,-39.089c1.205,-2.068 2.223,-3.024 2.255,-2.109c0.031,0.914 3.553,-1.102 7.834,-4.489c4.27,-3.377 8.759,-6.151 9.975,-6.151c1.205,-0 2.203,-0.863 2.203,-1.923c-0,-1.059 2.691,-4.686 5.984,-8.052c3.294,-3.367 5.985,-7.502 5.985,-9.185c0,-3.128 5.933,-10.401 6.048,-7.419c0.135,3.585 5.922,-6.369 5.933,-10.214c0.01,-2.255 1.236,-6.452 2.732,-9.32c1.497,-2.868 2.452,-8.926 2.13,-13.466c-0.322,-4.53 0.25,-8.25 1.258,-8.25c2.982,-0 2.13,-4.302 -3.066,-15.461l-4.873,-10.474l8.853,0c6.868,0 10.193,-1.226 14.858,-5.486c3.315,-3.013 6.245,-7.627 6.515,-10.245c0.426,-4.011 -0.925,-5.278 -8.51,-7.98c-11.814,-4.218 -13.964,-5.767 -12.676,-9.133c1.912,-4.977 -5.517,-17.072 -13.206,-21.498c-4.78,-2.753 -7.128,-5.403 -6.588,-7.44c0.457,-1.745 -0.093,-5.6 -1.226,-8.561Z"/></svg>