<?xml version="1.0" encoding="UTF-8" standalone="no"?><!DOCTYPE svg PUBLIC "-//W3C//DTD SVG 1.1//EN" "http://www.w3.org/Graphics/SVG/1.1/DTD/svg11.dtd"><svg width="100%" height="100%" viewBox="0 0 308 237" version="1.1" xmlns="http://www.w3.org/2000/svg" xmlns:xlink="http://www.w3.org/1999/xlink" xml:space="preserve" xmlns:serif="http://www.serif.com/" style="fill-rule:evenodd;clip-rule:evenodd;stroke-linejoin:round;stroke-miterlimit:2;"><path id="_01G-BEARDED-COLIE" serif:id="01G-BEARDED COLIE" d="M65.036,236.216l-54.732,0c-1.408,-1.725 -2.817,-3.453 -4.097,-5.268c-1.064,-1.511 -2.111,-3.048 -2.925,-4.696c-3.47,-7.033 -3.715,-16.516 0.49,-23.413c1.793,-2.942 4.297,-5.427 6.383,-8.185c1.066,-1.411 2.194,-2.793 3.072,-4.319c1.119,-1.946 -5.439,-2.993 -6.528,-3.981c-4.065,-3.692 -4.687,-6.919 -5.709,-12.359c-0.332,-1.768 1.094,-1.692 2.303,-1.794c2.518,-0.211 5.057,-0.169 7.566,-0.462c7.334,-0.856 8.619,-1.042 13.239,-8.298c4.445,-6.98 5.167,-19.858 6.501,-26.566c2.544,-12.791 5.34,-22.181 14.419,-31.743c19.614,-20.658 50.039,-28.014 78.006,-29.495c21.437,-1.136 21.372,-0.497 42.823,-2.765c9.047,-0.957 19.634,-2.145 27.833,-6.278c6.18,-3.116 12.479,-6.643 15.839,-12.754c2.023,-3.681 8.619,-16.768 9.999,-19.602c1.758,-3.608 0.425,-9.849 0.708,-12.897c0.279,-3.008 6.079,-8.66 7.784,-10.053c3.767,-3.076 23.095,-11.455 27.33,-11.264c2.898,0.131 22.254,-0.287 29.381,6.073c4.356,3.887 7.882,10.087 10.616,14.771c1.847,3.163 -2.865,5.401 0.13,8.853c2.634,3.037 7.212,4.076 9.922,7.05c2.006,2.201 3.549,20.596 1.051,26.46c-3.769,8.845 -18.797,12.407 -21.14,12.666c-2.893,0.319 -10.14,-2.695 -11.135,1.867c-0.674,3.091 3.432,17.931 4.054,21.112c0.761,3.892 3.595,7.622 6.502,19.239c5.409,21.615 -3.689,47.54 -5.7,48.885c-1.13,0.756 -7.066,3.773 -7.904,4.455c-3.397,2.769 -7.444,6.949 -8.924,10.973c-1.224,3.326 -1.977,15.307 -2.056,18.926c-0.061,2.723 -0.814,8.564 1.095,11.868c2.288,3.959 8.994,5.153 8.814,10.098c-0.089,2.475 -1.789,8.347 -3.199,9.712c-1.486,1.438 -3.896,1.565 -5.907,2.176c-1.517,0.461 -3.088,0.748 -4.651,1.033l-38.679,0c-0.754,-0.883 -1.516,-1.774 -2.413,-2.524c-0.953,-0.795 -1.984,-1.525 -3.104,-2.083c-0.633,-0.315 -9.641,-3.532 -9.744,-3.721c-1.538,-2.81 -0.886,-6.304 -1.006,-9.478c-0.332,-8.799 0.542,-17.612 0.269,-26.412c-0.05,-1.619 -0.047,-9.475 -2.504,-11.713c-1.678,-1.528 -3.052,-1.414 -4.804,-1.528c-5.602,-0.362 -11.196,-1.332 -16.804,-1.094c-3.709,0.158 -7.179,2.033 -10.883,2.271c-4.916,0.317 -9.845,-0.825 -14.768,-0.619c-7.434,0.311 -14.769,2.13 -22.21,2.167c-2.669,0.013 -5.071,-1.76 -7.726,-2.018c-8.347,-0.809 -13.372,1.655 -19.9,5.944c-9.33,6.13 -10.223,9.078 -22.071,18.624c-3.558,2.865 -7.381,5.43 -11.303,7.815c-2.656,1.615 -5.987,2.194 -8.38,4.152c-0.789,0.646 -0.46,1.984 -0.327,2.972c0.565,4.2 7.048,6.839 8.771,10.645c1.223,2.702 -0.613,4.383 -2.366,5.863c-0.375,0.317 -0.845,0.518 -1.301,0.712Z" style="fill-rule:nonzero;"/></svg>