<?xml version="1.0" encoding="UTF-8" standalone="no"?><!DOCTYPE svg PUBLIC "-//W3C//DTD SVG 1.1//EN" "http://www.w3.org/Graphics/SVG/1.1/DTD/svg11.dtd"><svg width="100%" height="100%" viewBox="0 0 309 237" version="1.1" xmlns="http://www.w3.org/2000/svg" xmlns:xlink="http://www.w3.org/1999/xlink" xml:space="preserve" xmlns:serif="http://www.serif.com/" style="fill-rule:evenodd;clip-rule:evenodd;stroke-linejoin:round;stroke-miterlimit:2;"><path id="_10F-MALAMUTE" serif:id="10F-MALAMUTE" d="M262.888,0.561c1.062,0.965 1.707,5.069 1.71,10.877l0.002,9.328l5.062,2.471c6.868,3.352 12.599,11.1 13.764,18.606c0.937,6.044 1.061,6.173 12.882,13.254c6.564,3.932 11.935,7.935 11.935,8.895c0,2.165 -6.91,11.559 -10.931,14.863c-2.237,1.837 -5.593,2.604 -13.418,3.068l-10.434,0.618l-0.39,9.121c-0.235,5.477 -1.188,10.152 -2.387,11.703c-1.098,1.421 -1.997,3.872 -1.997,5.448c-0,1.577 -0.918,3.373 -1.381,4.358c-4.428,9.424 -17.356,30.895 -19.101,30.98c-3.713,0.181 -1.144,4.698 -5.753,6.851c-2.052,0.956 -4.08,2.74 -4.509,3.962c-0.428,1.223 -3.197,3.958 -6.154,6.08c-4.367,3.13 -5.885,5.405 -8.081,12.096c-1.488,4.532 -3.327,11.854 -4.088,16.271c-1.601,9.295 -1.829,28.458 -0.36,30.269c0.551,0.68 2.825,2.081 5.051,3.115c2.604,1.207 4.519,3.36 5.365,6.029c1.915,6.05 -1.031,7.535 -14.946,7.535c-12.982,0 -17.097,-1.999 -19.756,-9.595c-0.888,-2.537 -2.576,-5.994 -3.751,-7.683c-1.174,-1.689 -2.563,-5.025 -3.087,-7.413c-0.524,-2.388 -2.563,-9.27 -4.533,-15.292c-1.969,-6.022 -3.58,-12.158 -3.58,-13.637c-0,-1.478 -1.687,-4.46 -3.751,-6.627c-2.833,-2.975 -5.253,-4.118 -9.89,-4.67c-3.376,-0.402 -7.979,-0.958 -10.23,-1.236c-7.809,-0.965 -59.264,-14.829 -60.719,-16.022c-2.563,-2.1 -3.202,-1.68 -20.879,13.75c-10.828,9.452 -22.3,18.175 -28.24,21.477c-13.502,7.502 -18.496,12.026 -20.419,18.495c-1.847,6.214 -0.761,13.627 1.998,13.627c2.772,0 7.725,6.252 7.258,9.163c-0.571,3.578 -6,5.624 -14.976,5.645c-17.052,0.041 -19.372,-3.492 -19.463,-29.633l-0.063,-17.915l5.231,-7.607c4.712,-6.852 5.054,-7.895 3.455,-10.502c-0.976,-1.592 -1.883,-5.674 -2.016,-9.072c-0.132,-3.398 -0.888,-9.38 -1.68,-13.293c-1.797,-8.872 -0.798,-28.28 1.796,-34.891c2.162,-5.512 6.856,-13.746 9.242,-16.212c2.22,-2.297 2.272,-2.713 0.414,-3.36c-1.166,-0.405 -2.119,-1.502 -2.119,-2.437c-0,-0.935 -1.251,-2.726 -2.78,-3.978c-1.992,-1.633 -2.557,-3.198 -1.995,-5.518c0.562,-2.32 -0.002,-3.886 -1.994,-5.518c-2.762,-2.263 -3.771,-5.602 -1.694,-5.602c1.574,0 1.14,-4.835 -0.917,-10.243c-2.261,-5.945 -1.196,-9.345 2.156,-6.884c1.965,1.444 2.118,1.424 1.08,-0.135c-1.215,-1.823 -1.023,-10.882 0.27,-12.776c0.378,-0.556 1.902,-0.016 3.383,1.2c2.627,2.152 2.672,2.127 1.809,-0.99c-1.003,-3.62 1.489,-13.414 3.414,-13.414c0.696,0 1.982,1.215 2.859,2.699c1.552,2.629 1.66,2.583 4.134,-1.787c2.257,-3.983 10.187,-10.796 12.569,-10.796c0.492,0 0.895,1.095 0.895,2.434c-0,2.33 0.199,2.311 4.723,-0.469c5.308,-3.263 20.081,-5.608 20.921,-3.323c0.276,0.747 3.117,1.358 6.316,1.358c3.858,0 6.874,0.832 8.961,2.471c1.73,1.359 3.921,2.471 4.869,2.471c0.948,0 4.462,2.363 7.81,5.251c7.222,6.227 11.64,12.046 9.146,12.046c-1.207,0 -1.087,0.816 0.426,2.908c1.157,1.599 2.543,5.025 3.079,7.612c0.8,3.867 0.615,4.58 -1.041,4.005c-1.701,-0.592 -1.801,0.028 -0.64,3.966c1.296,4.398 1.106,4.909 -3.294,8.868c-8.712,7.839 -7.957,7.751 -19.664,2.297c-11.115,-5.178 -14.154,-5.78 -18.513,-3.667c-3.826,1.854 -3.633,9.271 0.29,11.173c2.012,0.975 16.846,1.472 47.401,1.588c40.145,0.152 45.002,-0.048 49.918,-2.056c2.994,-1.223 8.167,-2.776 11.495,-3.452c3.328,-0.676 8.384,-3.011 11.235,-5.189c3.27,-2.492 6.565,-4.958 9.883,-7.398c2.587,-1.89 6.384,-6.06 8.441,-9.266c2.057,-3.206 7.014,-9.227 11.016,-13.379c4.002,-4.153 7.278,-8.125 7.278,-8.829c-0,-1.878 12.226,-8.662 19.856,-11.017c3.841,-1.186 8.066,-3.637 10.086,-5.855c9.674,-10.613 12.994,-13.243 14.73,-11.664"/></svg>