<?xml version="1.0" encoding="UTF-8" standalone="no"?><!DOCTYPE svg PUBLIC "-//W3C//DTD SVG 1.1//EN" "http://www.w3.org/Graphics/SVG/1.1/DTD/svg11.dtd"><svg width="100%" height="100%" viewBox="0 0 284 237" version="1.1" xmlns="http://www.w3.org/2000/svg" xmlns:xlink="http://www.w3.org/1999/xlink" xml:space="preserve" xmlns:serif="http://www.serif.com/" style="fill-rule:evenodd;clip-rule:evenodd;stroke-linejoin:round;stroke-miterlimit:2;"><path id="_02E-YORK" serif:id="02E-YORK" d="M283.114,68.457c-1.156,3.905 -4.544,9.169 -6.935,13.679c-0.868,1.627 -2.451,2.845 -3.747,4.206c-1.13,1.184 -14.821,11.294 -28.833,8.033c-3.053,-0.711 -3.127,-0.279 -4.609,2.761c-2.127,4.357 -3.489,8.96 -4.371,13.787c-0.506,2.773 -6.807,49.282 -32.239,65.167c-0.571,0.357 -2.783,14.764 -2.207,22.158c0.577,7.393 1.124,19.56 5.667,22.203c3.914,2.271 10.031,7.165 9.424,14.224c-0.096,1.108 -4.463,2.241 -4.463,2.241l-17.005,0c0,0 -5.661,-5.777 -7.408,-8.862c-0.816,-1.443 -0.118,-42.274 -10.438,-45.53c-9.44,-2.98 -25.019,0.333 -37.385,-0c-20.455,-0.552 -83.469,-7.276 -85.829,-7.437c-16.8,-0.594 -25.86,15.531 -31.344,21.767c-3.382,3.845 -1.428,15.548 -1.56,15.648c0.859,1.349 1.626,2.773 2.6,4.024c0.704,0.903 1.641,1.628 2.544,2.331c3.649,2.845 7.615,7.008 7.639,14.115c0.008,2.248 -3.691,3.944 -3.691,3.944l-17.875,0c0,0 -5.661,-7.59 -7.046,-11.517c-0.854,-2.427 -5.887,-37.019 -0.894,-51.897c1.136,-3.385 8.382,-15.217 10.782,-21.176c1.862,-4.622 8.013,-28.984 10.337,-35.845c0.696,-2.054 4.248,-6.718 3.874,-7.636c-0.79,-1.943 -1.494,-3.937 -2.092,-5.958c-1.307,-4.424 -1.965,-7.9 -1.919,-11.927c0.563,-49.27 31.41,-62.406 31.749,-62.449c2.572,-0.324 5.144,-0.878 7.716,-0.875c2.087,0.006 2.888,1.763 1.871,3.7c-0.646,1.236 -1.54,2.375 -2.491,3.375c-7.185,7.567 -12.389,16.382 -15.013,26.758c-2.931,11.576 -1.977,22.739 3.497,33.391c0.865,1.682 1.765,1.942 3.46,1.724c5.808,-0.742 11.639,-1.6 17.479,-1.752c8.219,-0.209 16.458,0.067 24.683,0.322c13.843,0.427 27.68,1.112 41.523,1.472c7.354,0.191 14.674,-0.624 21.867,-2.318c5.486,-1.294 10.989,-2.697 15.518,-6.533c4.65,-3.942 8.015,-9.024 10.811,-14.488c4.078,-7.958 7.869,-16.073 11.895,-24.061c3.29,-6.521 6.998,-12.724 12.145,-17.897c1.655,-1.66 2.678,-4.021 3.991,-6.063c-0.143,-0.1 7.081,-19.924 8.271,-22.137c1.719,-3.196 4.072,-3.233 5.96,-0.172c0.48,0.772 0.793,1.672 1.107,2.545c0.322,0.9 0.629,3.102 0.945,3.203c0.317,0.101 0.675,-1.863 0.954,-2.597c1.204,-3.185 3.653,-3.603 5.656,-0.891c0.678,0.916 1.267,2 1.578,3.1c0.534,1.906 0.951,3.876 1.166,5.849c0.308,2.76 -0.298,6.797 0.561,8.333c0.789,1.413 11.687,0.261 17.343,5.921c4.698,4.703 8.107,9.731 8.417,16.637c0.13,2.876 1.236,4.972 3.641,6.136c2.357,1.136 4.768,2.294 7.274,2.897c2.664,0.636 4.584,2.334 5.449,4.615c0.908,2.395 0.918,6.649 -0,9.752Z"/></svg>