<?xml version="1.0" encoding="UTF-8" standalone="no"?><!DOCTYPE svg PUBLIC "-//W3C//DTD SVG 1.1//EN" "http://www.w3.org/Graphics/SVG/1.1/DTD/svg11.dtd"><svg width="100%" height="100%" viewBox="0 0 308 237" version="1.1" xmlns="http://www.w3.org/2000/svg" xmlns:xlink="http://www.w3.org/1999/xlink" xml:space="preserve" xmlns:serif="http://www.serif.com/" style="fill-rule:evenodd;clip-rule:evenodd;stroke-linejoin:round;stroke-miterlimit:2;"><path id="_02I-BEDLINGTON" serif:id="02I-BEDLINGTON" d="M255.407,1.77c8.771,2.456 15.216,6.626 23.833,15.402c7.845,7.994 17.619,21.621 22.244,31.027c3.578,7.273 6.754,18.858 5.717,20.849c-1.505,2.899 -10.166,8.487 -14.818,9.565c-5.409,1.248 -10.37,0.034 -16.594,-4.073c-7.404,-4.873 -16.258,-8.873 -19.67,-8.884c-2.856,-0.012 -2.955,0.153 -2.117,3.528c1.196,4.823 0.777,15.375 -0.629,15.857c-0.628,0.216 -1.141,0.97 -1.141,1.674c-0,1.633 -3.765,4.101 -4.736,3.103c-0.402,-0.414 -1.152,-0.755 -1.659,-0.755c-0.507,0 -1.693,-0.981 -2.635,-2.178c-0.943,-1.197 -1.423,-1.583 -1.064,-0.857c0.353,0.726 -0.133,4.403 -1.086,8.17c-0.954,3.767 -1.726,10.722 -1.715,15.453c0.028,10.053 -2.525,19.8 -7.729,29.518c-4.984,9.31 -5.987,17.451 -6.505,52.636l-0.447,30.851l2.674,3.274c2.878,3.517 3.446,7.318 1.406,9.423c-1.819,1.866 -22.162,1.73 -26.55,-0.176c-6.048,-2.638 -7.757,-6.337 -10.387,-22.483c-1.521,-9.378 -4.123,-40.019 -4.129,-48.659l-0.005,-7.807l-3.44,-0.765c-6.087,-1.345 -16.528,-6.774 -27.218,-14.138c-12.183,-8.408 -19.19,-11.415 -26.566,-11.415c-10.017,0 -13.457,3.75 -17.719,19.318c-3.909,14.291 -10.695,23.373 -28.651,38.351c-11.411,9.519 -17.117,16.044 -20.254,23.158c-2.431,5.508 -2.751,13.128 -0.629,14.937c2.525,2.162 3.055,6.655 1.053,8.936c-1.543,1.747 -3.368,2.048 -12.492,2.048c-13.099,-0.006 -17.481,-1.765 -18.964,-7.625c-1.169,-4.629 -0.298,-24.622 1.406,-32.133c1.819,-8.051 2.971,-9.917 9.454,-15.346c7.773,-6.507 14.433,-15.585 16.566,-22.574c1.131,-3.71 1.847,-10.842 2.095,-20.758l0.375,-15.108l-2.21,2.037c-1.219,1.117 -4.951,5.724 -8.297,10.234c-7.983,10.768 -17.515,19.737 -24.935,23.47c-9.394,4.732 -26.925,5.01 -26.925,0.426c-0,-0.585 3.644,-1.056 8.203,-1.061c15.182,-0.017 25.514,-7.767 39.186,-29.399c11.103,-17.558 14.857,-21.825 28.204,-32.053c28.717,-22.001 47.356,-27.357 85.704,-24.617c33.358,2.378 37.449,1.822 44.825,-6.07c5.491,-5.872 13.694,-23.039 15.166,-31.719c3.098,-18.324 5.574,-24.134 12.338,-28.962c2.238,-1.594 6.621,-3.398 9.736,-4.005c6.604,-1.288 5.684,-1.316 11.731,0.375"/></svg>