<?xml version="1.0" encoding="UTF-8" standalone="no"?><!DOCTYPE svg PUBLIC "-//W3C//DTD SVG 1.1//EN" "http://www.w3.org/Graphics/SVG/1.1/DTD/svg11.dtd"><svg width="100%" height="100%" viewBox="0 0 307 237" version="1.1" xmlns="http://www.w3.org/2000/svg" xmlns:xlink="http://www.w3.org/1999/xlink" xml:space="preserve" xmlns:serif="http://www.serif.com/" style="fill-rule:evenodd;clip-rule:evenodd;stroke-linejoin:round;stroke-miterlimit:2;"><path id="_02F-SKYE" serif:id="02F-SKYE" d="M252.443,10.524c4.053,-2.885 17.623,-14.622 19.365,-8.454l3.162,11.205c-0,-0 12.435,20.803 13.974,27.079c0.912,3.719 -10.018,7.322 -4.74,10.574c7.378,4.552 9.382,-0.377 18.249,7.28c17.055,14.717 -20.273,42.935 -21.518,41.186c-0.495,-0.694 -1.028,0.53 -1.526,0c-0.757,-0.804 -1.434,-1.329 -1.774,-1.308c-11.957,0.737 -9.282,9.969 -8.764,20.906c0.019,0.412 -6.168,41.734 -10.536,56.954c-2.635,9.189 -16.311,12.749 -17.113,19.388c-1.451,11.942 1.076,19.787 4.673,22.526c4.919,3.738 5.881,8.135 2.604,11.851c-2.367,2.691 -12.932,3.604 -14.841,4.546c-2.352,1.159 -9.066,2.388 -21.912,2.043c-16.52,-0.442 -19.201,-1.727 -24.746,-4.713c-3.429,-1.84 -58.062,-36.788 -89.906,-33.475c-20.311,2.113 -32.61,17.898 -34.964,28.74c-0.974,4.485 -13.08,8.81 -26.82,8.803c-22.226,-0.015 -30.278,3.293 -27.867,-15.307c-0,-0 -1.296,-14.022 -2.265,-25.014c-2.334,-26.453 14.324,-43.721 9.847,-45.364c-8.652,-3.174 -8.527,-2.682 -13.759,-4.544c-6.517,-2.318 21.876,-35.833 40.805,-49.761c8.463,-6.228 40.217,-7.398 79.291,-7.489c29.886,-0.071 35.065,4.62 45.459,2.021c6.454,-1.616 13.381,-4.046 15.398,-5.409c2.016,-1.356 5.85,-3.505 8.523,-4.777c8.005,-3.807 1.372,-23.072 15.112,-39.657c7.172,-8.655 11.6,-36.373 14.326,-38.284c7.164,-5.023 15.334,20.51 32.263,8.454Z"/></svg>