<?xml version="1.0" encoding="UTF-8" standalone="no"?><!DOCTYPE svg PUBLIC "-//W3C//DTD SVG 1.1//EN" "http://www.w3.org/Graphics/SVG/1.1/DTD/svg11.dtd"><svg width="100%" height="100%" viewBox="0 0 281 237" version="1.1" xmlns="http://www.w3.org/2000/svg" xmlns:xlink="http://www.w3.org/1999/xlink" xml:space="preserve" xmlns:serif="http://www.serif.com/" style="fill-rule:evenodd;clip-rule:evenodd;stroke-linejoin:round;stroke-miterlimit:2;"><path id="_02D-GRIFFON" serif:id="02D-GRIFFON" d="M245.589,1.57c-3.844,-1.076 -9.954,-1.602 -13.581,-1.156c-18.97,2.277 -24.919,3.719 -32.951,7.918c-14.291,7.471 -14.474,7.757 -10.549,15.995c3.375,7.059 3.283,7.688 -2.414,17.414c-10.389,17.723 -23.227,22.551 -64.668,24.347c-15.297,0.652 -34.004,2.266 -41.578,3.57c-7.563,1.304 -16.201,1.762 -19.188,1.007c-6.544,-1.648 -9.313,-10.263 -5.766,-18.032c5.446,-11.956 1.064,-15.435 -9.233,-7.334c-7.483,5.892 -9.325,16.522 -5.264,30.377c3.032,10.343 2.964,11.465 -1.189,18.284c-6.225,10.206 -12.586,33.787 -12.643,46.796c-0.069,13.867 -6.659,28.786 -16.499,37.356c0,0 -6.694,3.362 -7.586,6.59c-1.323,4.794 -0.354,22.174 -0.354,22.174c2.018,13.18 -0.862,11.838 -1.533,16.201c-0.363,2.361 0.244,13.368 1.887,13.374c8.552,0.031 17.849,0.042 28.444,-0.023c9.033,-0.056 6.464,-9.552 4.439,-13.351c-1.281,-2.38 -3.272,-4.325 -4.439,-4.325c-3.455,0 -2.414,-13.1 1.59,-19.874c2.037,-3.443 10.401,-10.846 18.57,-16.43c13.02,-8.89 28.249,-26.246 28.249,-32.173c-0,-0.996 13.993,-10.984 23.249,-9.6c10.641,1.602 17.998,4.039 39.359,13.078c7.254,3.078 15.343,5.606 17.997,5.629c2.643,0.035 11.64,0.916 12.281,1.957c0.652,1.052 3.329,14.153 5.949,29.107c2.632,14.966 5.607,27.528 6.625,27.929c1.018,0.4 3.41,4.016 5.309,8.02c2.869,6.042 1.084,10.15 4.033,10.033c5.583,-0.222 13.22,-0 26.865,-0c9.621,-0 5.288,-12.207 -2.172,-16.337c-6.774,-3.753 -7.62,-5.892 -7.655,-19.325c-0.045,-16.498 5.618,-42.78 11.007,-51.12c8.833,-13.662 12.78,-24.668 14.21,-39.634c2.22,-23.306 2.22,-23.306 10.458,-19.851c7.597,3.192 14.943,1.533 22.174,-5.011c9.53,-8.616 14.233,-28.089 9.119,-37.7c-1.625,-3.043 -3.49,-7.265 -4.154,-9.382c-0.663,-2.117 -3.238,-3.844 -5.743,-3.844c-3.81,-0 -4.165,-0.687 -2.266,-4.245c1.259,-2.346 2.277,-5.126 2.277,-6.201c0,-4.52 -16.224,-20.412 -22.666,-22.208Z"/></svg>