<?xml version="1.0" encoding="UTF-8" standalone="no"?><!DOCTYPE svg PUBLIC "-//W3C//DTD SVG 1.1//EN" "http://www.w3.org/Graphics/SVG/1.1/DTD/svg11.dtd"><svg width="100%" height="100%" viewBox="0 0 275 238" version="1.1" xmlns="http://www.w3.org/2000/svg" xmlns:xlink="http://www.w3.org/1999/xlink" xml:space="preserve" xmlns:serif="http://www.serif.com/" style="fill-rule:evenodd;clip-rule:evenodd;stroke-linejoin:round;stroke-miterlimit:2;"><path id="_02A-MALTESE" serif:id="02A-MALTESE" d="M178.495,218.547c1.957,2.58 10.549,2.939 13.565,5.872c3.016,2.932 7.653,9.71 4.532,11.723c-1.102,0.71 -3.273,0.987 -3.273,0.987l-18.305,-0c-0.754,-0.067 -2.182,-0.263 -2.663,-0.469c-3.159,-1.358 -5.783,-3.865 -7.357,-5.988c-1.432,-1.932 -1.297,-4.529 -2.086,-6.754c-0.956,-2.694 -2.673,-6.204 -3.65,-9.412c-1.331,-4.374 -2.901,-11.981 -4.342,-16.833c-1.232,-4.148 -3.047,-9.272 -4.304,-12.277c-0.843,-2.017 -1.835,-4.264 -3.239,-5.755c-1.364,-1.448 -3.138,-2.885 -5.19,-3.191c-4.613,-0.689 -16.099,0.164 -22.491,-0.942c-5.577,-0.965 -10.856,-3.234 -15.864,-5.697c-5.467,-2.689 -12.626,-8.156 -16.941,-10.44c-2.783,-1.473 -6.028,-2.446 -8.949,-3.265c-2.795,-0.785 -6.77,-1.701 -8.578,-1.654c-1.03,0.027 -1.962,1.029 -2.272,1.937c-0.998,2.927 -0.291,11.333 -3.718,15.628c-6.008,7.53 -26.622,24.159 -32.33,29.553c-0.839,0.792 -1.837,1.707 -1.919,2.812c-0.208,2.817 0.007,10.891 0.666,14.095c0.402,1.951 1.585,3.913 3.289,5.126c1.797,1.279 5.405,1.625 7.495,2.549c1.804,0.797 4.249,1.319 5.046,2.996c0.798,1.678 1.332,5.515 -0.261,7.068c-0.736,0.717 -5.159,0.913 -5.159,0.913l-21.714,-0c-0.215,0.234 -3.089,-1.306 -3.686,-2.417c-1.223,-2.277 -1.648,-4.946 -2.172,-8.126c-0.853,-5.179 -1.383,-11.532 -2.329,-15.207c-1.131,-4.39 -4.05,-8.482 -4.113,-12.994c-0.069,-4.889 2.696,-10.854 3.702,-16.341c1.04,-5.667 2.507,-12.903 2.534,-17.658c0.021,-3.696 -1.142,-7.353 -2.37,-10.871c-1.304,-3.733 -4.204,-7.494 -5.451,-11.524c-1.543,-4.987 -3.678,-13.003 -3.806,-18.396c-0.112,-4.745 1.91,-10.525 3.042,-13.959c0.788,-2.389 2.767,-4.529 3.75,-6.644c0.907,-1.95 1.607,-3.987 2.152,-6.049c0.756,-2.857 1.75,-7.952 2.382,-11.093c0.518,-2.576 0.781,-5.197 1.407,-7.752c0.725,-2.964 0.935,-7.106 2.947,-10.031c2.371,-3.446 7.453,-8.49 11.278,-10.648c3.395,-1.914 7.904,-3.472 11.673,-2.297c5.985,1.866 19.911,9.789 24.235,13.489c2.345,2.006 0.982,6.865 1.712,8.711c0.423,1.068 1.443,2.257 2.67,2.362c10.948,0.928 49.214,2.875 63.013,3.209c6.607,0.16 14.071,-0.391 19.785,-1.205c4.953,-0.706 11.325,-2.082 14.498,-3.68c2.298,-1.157 3.911,-3.565 4.545,-5.908c0.669,-2.478 -0.551,-5.966 -0.528,-8.955c0.04,-5.264 -1.117,-15.732 0.77,-22.631c1.868,-6.831 6.877,-13.852 10.55,-18.759c3.091,-4.128 6.742,-8.242 11.492,-10.683c6.533,-3.358 20.015,-8.085 27.709,-9.465c6.053,-1.086 13.838,-0.977 18.454,1.184c4.617,2.16 7.435,8.495 9.244,11.777c1.318,2.392 -0.806,6.419 1.61,7.912c3.087,1.907 13.298,2.954 16.91,3.532c1.563,0.25 3.369,-0.744 4.76,-0.064c1.391,0.68 3.073,2.516 3.584,4.144c0.511,1.627 -0.177,3.841 -0.517,5.623c-0.329,1.726 -1.005,3.38 -1.522,5.066c-0.554,1.806 -1.228,3.93 -1.801,5.771c-0.548,1.759 -0.728,3.653 -1.639,5.278c-1.184,2.111 -3.587,5.524 -5.464,7.389c-1.612,1.603 -3.829,2.58 -5.795,3.803c-2.446,1.521 -6.745,2.913 -8.883,5.327c-2.138,2.414 -2.943,6.649 -3.943,9.157c-0.772,1.938 -1.516,3.892 -2.056,5.894c-1.351,5.009 -5.329,17.245 -6.05,24.159c-0.601,5.773 1.177,11.548 1.727,17.326c1.19,12.521 -10.905,38.84 -24.145,47.702c-7.989,5.347 -18.155,10.159 -23.826,16.218c-5.248,5.606 -8.199,15.175 -10.204,20.132c-1.232,3.047 -3.78,7.03 -1.823,9.61Z"/></svg>