<?xml version="1.0" encoding="UTF-8" standalone="no"?><!DOCTYPE svg PUBLIC "-//W3C//DTD SVG 1.1//EN" "http://www.w3.org/Graphics/SVG/1.1/DTD/svg11.dtd"><svg width="100%" height="100%" viewBox="0 0 308 238" version="1.1" xmlns="http://www.w3.org/2000/svg" xmlns:xlink="http://www.w3.org/1999/xlink" xml:space="preserve" xmlns:serif="http://www.serif.com/" style="fill-rule:evenodd;clip-rule:evenodd;stroke-linejoin:round;stroke-miterlimit:2;"><path id="_02C-COKAPOO" serif:id="02C-COKAPOO" d="M269.353,2.81c15.689,5.395 25.443,19.203 20.25,28.662c-1.453,2.658 -0.12,3.978 7.669,7.584c5.183,2.403 9.855,5.736 10.386,7.417c1.133,3.635 -1.825,17.189 -4.11,18.801c-0.882,0.626 -2.456,3.577 -3.509,6.567c-3.288,9.421 -10.907,13.31 -26.084,13.32c-12.01,0.01 -13.353,0.381 -13.473,3.762c-0.071,2.062 -0.401,5.864 -0.732,8.443c-0.321,2.58 -1.203,11.815 -1.955,20.532c-1.273,14.824 -6.987,32.004 -10.646,32.004c-1.324,-0 -3.639,5.169 -4.622,10.319c-0.2,1.036 -1.423,5.395 -2.717,9.685c-1.293,4.299 -2.656,16.016 -3.037,26.052c-0.571,15.509 -0.17,18.724 2.727,21.548c4.26,4.153 14.575,5.622 11.797,15.909c-0.179,0.665 -5.357,3.557 -7.617,3.557c-10.639,-0 -15.821,0.141 -20.615,-0c-5.106,-0.151 -4.702,-4.947 -7.524,-7.798c-3.96,-3.997 -7.8,-10.28 -8.882,-14.541c-2.988,-11.756 -4.953,-25.632 -4.692,-33.118c0.221,-6.479 -22.856,-6.928 -29.553,-8.091c-3.89,-0.675 -9.674,-2.004 -12.852,-2.942c-3.177,-0.948 -12.27,-3.449 -20.21,-5.58c-7.939,-2.12 -16.601,-4.935 -19.247,-6.254c-6.416,-3.186 -45.36,3.148 -51.327,18.774c-4.823,12.63 -48.307,26.586 -35.217,41.325c1.516,1.707 0.792,4.632 1.855,5.268c2.656,1.602 2.416,9.801 -0.331,11.462c-4.631,2.785 -23.729,1.437 -29.202,-2.062c-5.143,-3.283 -5.333,-3.957 -4.922,-17.59c0.631,-21.049 3.037,-28.29 11.919,-35.785c7.078,-5.981 13.243,-15.929 14.035,-22.633c0.18,-1.544 0.802,-7.876 1.373,-14.072c1.303,-14.082 3.118,-21.47 6.456,-26.219c3.499,-4.984 3.288,-6.147 -1.373,-7.593c-2.176,-0.674 -7.589,-4.769 -12.03,-9.108c-6.265,-6.127 -8.621,-10.27 -10.566,-18.616c-1.383,-5.902 -1.875,-11.746 -1.093,-12.977c0.782,-1.232 1.705,-4.818 2.045,-7.955c0.351,-3.147 1.715,-6.557 3.038,-7.593c1.323,-1.036 3.468,-4.202 4.752,-7.036c2.065,-4.554 4.521,-6.176 7.077,-4.691c0.451,0.255 2.897,-1.436 5.444,-3.772c6.887,-6.303 23.287,-7.153 33.171,-1.729c9.434,5.189 10.456,8.257 3.569,10.661c-15.548,5.424 -23.578,12.87 -23.678,21.958c-0.161,15.216 9.032,20.356 26.144,14.61c6.917,-2.326 18.105,-3.352 42.385,-3.889c32.941,-0.743 55.577,-3.861 65.732,-9.059c2.877,-1.466 8.561,-6.03 12.631,-10.134c5.725,-5.756 7.118,-8.394 6.095,-11.512c-1.343,-4.124 4.662,-19.28 8.572,-21.636c1.092,-0.664 1.985,-2.746 1.985,-4.622c-0,-1.886 2.385,-4.935 5.293,-6.782c2.907,-1.837 6.425,-4.896 7.809,-6.782c1.383,-1.886 4.461,-3.43 6.827,-3.43c2.376,0 5.263,-0.918 6.406,-2.032c3.298,-3.215 25.623,-3.606 34.374,-0.587"/></svg>