<?xml version="1.0" encoding="UTF-8" standalone="no"?><!DOCTYPE svg PUBLIC "-//W3C//DTD SVG 1.1//EN" "http://www.w3.org/Graphics/SVG/1.1/DTD/svg11.dtd"><svg width="100%" height="100%" viewBox="0 0 308 237" version="1.1" xmlns="http://www.w3.org/2000/svg" xmlns:xlink="http://www.w3.org/1999/xlink" xml:space="preserve" xmlns:serif="http://www.serif.com/" style="fill-rule:evenodd;clip-rule:evenodd;stroke-linejoin:round;stroke-miterlimit:2;"><path id="_02B-BICHON" serif:id="02B-BICHON" d="M248.748,0.474c-10.582,-0.605 -17.971,1.634 -26.747,3.311c-10.836,2.069 -19.5,8.06 -26.511,15.25c-7.264,7.451 -13.274,15.898 -18.157,24.793c-2.885,5.255 0.703,18.745 -1.996,24.093c-1.792,3.551 -17.149,2.156 -21.243,2.391c-2.034,0.117 -14.404,-24.165 -30.553,-26.674c-10.585,-1.645 -66.318,-2.558 -72.264,23.338c-0.095,0.414 0.856,14.041 5.469,19.418c0.24,0.278 4.32,6.69 0.897,11.495c-2.057,2.888 -16.229,12.743 -17.531,16.678c-0.483,1.462 -6.734,13.953 -7.284,19.636c-2.267,23.404 -16.644,44.609 -22.204,48.122c-5.259,3.322 -8.369,7.49 -9.467,13.33c-1.723,9.169 3.809,17.478 2.593,26.637c-0.581,4.371 1.523,14.302 1.523,14.302l51.59,-0c-0,-0 5.993,-1.996 2.853,-8.437c-1.755,-3.599 0.23,-7.127 4.93,-7.648c4.833,-0.537 30.262,-8.121 35.924,-18.037c6.786,-11.884 7.522,-26.446 9.298,-27.166c3.238,-1.315 5.978,-0.042 8.867,1.483c11.357,5.994 44.205,13.691 57.89,12.967c4.747,-0.251 6.791,1.255 7.289,5.355c0.103,0.869 1.859,25.624 1.824,28.229c-0.062,4.674 4.117,9.959 9.822,11.329c4.178,1.004 12.827,1.922 12.827,1.922l25.211,0.003c-0,-0 14.735,-1.716 15.776,-5.249c1.876,-6.372 -1.993,-26.413 -2.951,-32.633c-0.616,-3.984 -1.68,-7.952 -1.818,-11.946c-0.109,-3.175 0.881,-6.381 1.385,-9.572c0.541,-3.443 2.388,-13.622 2.827,-15.259c0.124,-0.461 5.67,-18.327 6.509,-21.543c1.168,-4.488 2.05,-9.04 2.926,-13.584c0.349,-1.803 0.506,-9.343 -0.025,-11.146c-1.791,-6.096 0.343,-9.143 7.246,-10.395c8.995,-1.632 16.847,-5.575 24.472,-9.899c2.073,-1.175 9.417,-5.869 10.36,-7.316c5.815,-8.932 9.4,-18.346 6.673,-28.836c-1.042,-4.007 -3.839,-6.618 -8.396,-7.729c-1.424,-0.346 -2.837,-0.811 -4.164,-1.387c-6.594,-2.862 -8.347,-5.684 -6.151,-11.804c3.395,-9.466 0.898,-17.42 -6.772,-24.344c-2.756,-2.487 -5.379,-5.361 -8.519,-7.124c-10.993,-6.174 -24.22,-6.109 -24.228,-6.354" style="fill-rule:nonzero;"/></svg>