<?xml version="1.0" encoding="UTF-8" standalone="no"?><!DOCTYPE svg PUBLIC "-//W3C//DTD SVG 1.1//EN" "http://www.w3.org/Graphics/SVG/1.1/DTD/svg11.dtd"><svg width="100%" height="100%" viewBox="0 0 307 237" version="1.1" xmlns="http://www.w3.org/2000/svg" xmlns:xlink="http://www.w3.org/1999/xlink" xml:space="preserve" xmlns:serif="http://www.serif.com/" style="fill-rule:evenodd;clip-rule:evenodd;stroke-linejoin:round;stroke-miterlimit:2;"><path id="_02G-SILK" serif:id="02G-SILK" d="M231.478,4.499c1.017,2.246 3.071,8.789 4.577,14.539l2.735,10.446l2.972,-4.788c1.638,-2.639 3.89,-7.472 5.012,-10.753c4.307,-12.581 6.83,-8.933 6.658,9.64c-0.093,9.961 0.31,13.943 1.453,14.316c0.865,0.288 5.303,3.006 9.867,6.038c6.38,4.244 9.497,5.528 13.513,5.561c5.171,0.045 11.538,2.554 11.591,4.564c0.02,0.577 1.585,2.685 3.487,4.689c1.902,2.004 3.454,4.834 3.441,6.287c-0.013,2.221 -0.674,5.318 -0.37,7.047c0.502,2.856 -11.003,1.716 -14.431,-1.473c-1.611,-1.507 -2.932,-2.214 -2.932,-1.572c-0,0.635 6.281,7.001 13.948,14.139c14.748,13.721 16.307,16.582 11.413,20.97c-1.393,1.251 -2.556,3.746 -2.582,5.541c-0.06,4.565 -2.318,8.075 -8.104,12.626c-2.741,2.155 -5.772,5.037 -6.73,6.392c-0.964,1.362 -5.62,3.412 -6.895,4.558c-1.744,1.566 -16.214,9.85 -17,7.119c-0.449,-1.558 -1.493,-2.469 -2.437,-2.109c-1.037,0.393 -5.053,-8.14 -5.753,-7.014c-0.66,1.061 -1.77,-0.943 -3.183,-5.763c-1.196,-4.067 -2.992,-8.206 -3.996,-9.201c-1.004,-1.002 -2.708,-3.15 -3.784,-4.781c-1.077,-1.631 -2.365,-2.967 -2.853,-2.967c-1.836,0 -5.575,14.814 -6.162,24.395c-0.337,5.469 0.118,14.585 1.01,20.27c1.585,10.118 1.539,10.635 -2.523,25.895c-2.278,8.566 -4.709,20.636 -5.402,26.825c-1.255,11.133 -1.235,11.277 1.875,13.831c4.254,3.484 5.086,7.584 2.252,11.048c-2.047,2.509 -3.52,2.816 -14.219,2.96c-6.723,0.092 -13.209,0.845 -14.86,1.723c-2.034,1.08 -7.84,1.414 -18.949,1.094c-14.285,-0.413 -16.603,-0.799 -21.398,-3.583c-2.966,-1.716 -5.39,-3.7 -5.39,-4.414c-0.006,-0.707 -1.155,-2.109 -2.549,-3.104c-1.479,-1.054 -2.536,-3.255 -2.536,-5.279c-0,-3.215 -63.582,-8.553 -64.731,-8.553c-0.654,0 -12.396,8.573 -23.554,13.832c-8.321,3.923 -16.965,4.679 -16.965,5.776c0,4.264 -3.566,5.541 -15.448,5.534c-19.219,-0.013 -25.249,-3.458 -28.901,-16.53l-2.331,-8.337l3.018,-8.566c1.843,-5.219 2.536,-8.874 1.783,-9.332c-0.759,-0.465 -0.033,-4.296 1.856,-9.804c1.704,-4.971 2.596,-9.038 1.975,-9.038c-1.81,0 2.331,-12.109 7.06,-20.636c2.397,-4.329 4.366,-8.664 4.372,-9.646c0.027,-3.445 6.307,-15.135 11.281,-21.003c6.036,-7.112 6.842,-9.097 10.844,-26.681c1.711,-7.512 4.782,-17.925 6.829,-23.151c4.399,-11.231 14.174,-27.25 18.876,-30.911c2.939,-2.299 3.553,-2.384 5.211,-0.747c1.651,1.644 1.407,3.163 -2.094,12.934c-7.364,20.551 -9.358,33.42 -6.459,41.679c2.173,6.188 7.305,7.059 41.094,6.974c25.843,-0.065 30.321,-0.386 39.31,-2.809c5.58,-1.507 11.571,-3.773 13.314,-5.043c1.744,-1.264 5.059,-3.268 7.371,-4.453c6.921,-3.55 13.876,-10.577 25.758,-26.039c6.201,-8.069 13.202,-16.131 15.56,-17.912c6.195,-4.683 15.032,-25.004 19.093,-43.879c0.985,-4.597 2.86,-4.368 5.112,0.629"/></svg>