<?xml version="1.0" encoding="UTF-8" standalone="no"?><!DOCTYPE svg PUBLIC "-//W3C//DTD SVG 1.1//EN" "http://www.w3.org/Graphics/SVG/1.1/DTD/svg11.dtd"><svg width="100%" height="100%" viewBox="0 0 308 237" version="1.1" xmlns="http://www.w3.org/2000/svg" xmlns:xlink="http://www.w3.org/1999/xlink" xml:space="preserve" xmlns:serif="http://www.serif.com/" style="fill-rule:evenodd;clip-rule:evenodd;stroke-linejoin:round;stroke-miterlimit:2;"><path id="_02H-FOX" serif:id="02H-FOX" d="M254.276,1.788c2.214,1.68 6.614,2.939 9.788,2.806c3.164,-0.123 8.476,1.557 11.802,3.738c5.066,3.319 5.892,4.834 5.066,9.289c-0.894,4.783 0.114,6.073 9.864,12.617c5.968,4.005 11.299,8.859 11.859,10.784c0.552,1.926 2.224,6.514 3.716,10.201c1.521,3.758 1.986,7.21 1.064,7.865c-0.912,0.645 -2.147,4.598 -2.765,8.787c-0.618,4.189 -1.359,7.732 -1.653,7.886c-0.295,0.143 -3.973,3.134 -8.183,6.636c-4.209,3.513 -9.132,6.514 -10.947,6.688c-8.999,0.839 -10.71,-0.553 -18.626,-15.147c-9.018,-16.611 -10.235,-17.912 -13.808,-14.717c-5.065,4.527 -8.619,20.933 -10.215,47.1c-0.894,14.522 -2.452,27.303 -3.488,28.409c-1.026,1.106 -1.863,3.216 -1.863,4.69c0,1.475 -2.138,7.558 -4.761,13.519c-4.219,9.616 -4.865,13.989 -5.73,38.988c-0.95,27.293 -0.855,28.215 2.936,30.396c4.6,2.663 5.265,10.969 1.017,12.72c-1.587,0.666 -7.317,1.198 -12.743,1.198c-9.332,0 -10.301,-0.491 -18.094,-9.135c-7.308,-8.101 -9.522,-13.559 -8.458,-20.851c0.124,-0.809 -0.437,-1.475 -1.235,-1.475c-1.52,0 -1.606,-1.157 -1.977,-26.269c-0.171,-12.084 -0.75,-15.218 -2.679,-14.43c-3.174,1.321 -18.693,-2.048 -26.096,-5.653c-3.164,-1.546 -6.794,-2.806 -8.068,-2.806c-1.273,0 -3.611,-1.167 -5.198,-2.601c-3.269,-2.96 -28.823,-14.768 -32.985,-15.249c-8.486,-0.973 -10.71,0.297 -12.876,7.363c-4.714,15.403 -16.906,31.656 -29.089,38.773c-2.509,1.465 -9.484,5.531 -15.509,9.043c-18.607,10.836 -23.083,17.431 -22.351,32.865l0.456,9.442l-10.881,0.604c-19.196,1.065 -22.37,-3.881 -20.118,-31.307l1.283,-15.649l10.672,-7.804c17.001,-12.443 22.779,-22.51 24.546,-42.757c1.882,-21.486 3.127,-27.006 7.546,-33.335c7.916,-11.348 9.683,-17.933 6.804,-25.358c-3.516,-9.053 -3.079,-25.736 0.912,-35.209c6.206,-14.717 23.615,-25.49 34.525,-21.353c7.792,2.96 6.329,8.551 -3.241,12.361c-8.857,3.523 -16.469,13.263 -16.469,21.066c0,6.022 3.516,14.072 6.719,15.403c4.428,1.833 88.739,1.321 95.458,-0.573c17.058,-4.824 29.516,-14.871 39.342,-31.738c2.832,-4.864 6.937,-11.06 9.123,-13.764c2.186,-2.704 4.466,-7.169 5.065,-9.914c0.846,-3.891 3.896,-6.349 13.798,-11.091c11.794,-5.643 13.01,-5.868 16.745,-3.052"/></svg>