<?xml version="1.0" encoding="UTF-8" standalone="no"?><!DOCTYPE svg PUBLIC "-//W3C//DTD SVG 1.1//EN" "http://www.w3.org/Graphics/SVG/1.1/DTD/svg11.dtd"><svg width="100%" height="100%" viewBox="0 0 308 237" version="1.1" xmlns="http://www.w3.org/2000/svg" xmlns:xlink="http://www.w3.org/1999/xlink" xml:space="preserve" xmlns:serif="http://www.serif.com/" style="fill-rule:evenodd;clip-rule:evenodd;stroke-linejoin:round;stroke-miterlimit:2;"><path id="_02K-BERGER" serif:id="02K-BERGER" d="M266.232,3.98c-2.61,-5.231 -3.198,-4.865 -6.519,4.04c-3.236,8.67 -6.169,10.237 -6.169,3.307c0,-2.483 -1.176,-6.218 -2.619,-8.304c-2.325,-3.358 -2.923,-3.46 -5.191,-0.865c-1.414,1.608 -4.906,9.088 -7.762,16.608c-2.857,7.521 -7.829,16.893 -11.056,20.831c-3.226,3.939 -6.87,9.21 -8.104,11.724c-5.295,10.827 -13.675,19.783 -22.481,24.026c-19.406,9.363 -23.848,10.136 -66.798,11.744c-39.534,1.486 -55.04,6.574 -68.648,22.53c-4.736,5.557 -17.044,30.428 -15.744,31.822c0.465,0.499 -0.351,3.877 -1.812,7.5c-1.727,4.335 -3.369,8.701 -4.916,13.118c-2.562,7.388 -13.703,15.946 -20.754,15.946c-7.449,0 -15.601,9.373 -16.854,19.376c-0.93,7.419 -0.664,8.457 1.87,7.409c1.632,-0.672 3.454,-0.357 4.052,0.692c0.607,1.038 2.05,1.261 3.217,0.488c1.167,-0.773 3.369,-1.588 4.887,-1.811c1.519,-0.224 4.403,-0.835 6.406,-1.374c11.264,-2.982 11.729,-2.646 9.736,6.899c-2.23,10.635 -0.341,22.531 3.976,25.014c4.394,2.514 15.649,2.463 20.118,-0.102c4.593,-2.635 4.47,-6.594 -0.313,-10.003c-3.644,-2.585 -3.701,-3.094 -1.1,-9.77c2.381,-6.126 5.447,-9.891 8.578,-10.583c0.503,-0.102 2.145,-0.753 3.644,-1.435c8.38,-3.796 13.798,-5.862 14.814,-5.658c0.635,0.132 2.609,-1.486 4.384,-3.592c1.774,-2.107 4.574,-3.827 6.225,-3.827c1.651,0 6.235,-3.958 10.192,-8.782c17.176,-20.963 15.326,-19.457 21.077,-17.127c3.919,1.578 20.037,6.769 22.035,5.689c6.124,-3.31 23.762,5.861 24.872,7.042c1.101,1.191 5.39,2.381 9.518,2.656c8.712,0.59 19.2,0.845 19.892,6.93c0.285,2.514 1.452,8.202 2.6,12.629c1.139,4.437 2.363,10.696 2.715,13.921c0.683,6.32 8.478,19.829 14.082,22.073c5.111,2.047 11.736,1.793 17.495,1.793c1.031,-0 6.843,-0.628 7.291,-1.956c0.679,-2.013 -3.497,-7.566 -3.497,-7.566c-0,0 -4.712,-3.251 -9.257,-5.816c-3.531,-1.994 -4.1,-3.877 -4.1,-13.707c-0,-19 3.018,-31.517 9.129,-37.928c2.999,-3.144 5.447,-6.431 5.447,-7.296c0,-0.876 1.025,-2.748 2.278,-4.163c4.735,-5.373 11.852,-22.459 12.868,-30.916c2.22,-18.419 6.956,-44.023 8.445,-45.621c0.855,-0.916 5.229,0.652 9.746,3.481c10.638,6.686 15.545,5.536 18.477,-4.356c0.693,-2.371 2.439,-4.304 3.862,-4.304c3.16,-0 12.299,-15.021 10.761,-17.707c-0.607,-1.049 -6.139,-4.641 -12.279,-7.958c-9.822,-5.323 -10.79,-6.34 -8.066,-8.477c1.708,-1.344 3.103,-2.88 3.103,-3.42c-0,-0.549 -4.916,-3.5 -10.932,-6.564l-10.933,-5.566l0,-9.474c0,-5.211 -0.844,-11.174 -1.888,-13.26Z"/></svg>