<?xml version="1.0" encoding="UTF-8" standalone="no"?><!DOCTYPE svg PUBLIC "-//W3C//DTD SVG 1.1//EN" "http://www.w3.org/Graphics/SVG/1.1/DTD/svg11.dtd"><svg width="100%" height="100%" viewBox="0 0 308 238" version="1.1" xmlns="http://www.w3.org/2000/svg" xmlns:xlink="http://www.w3.org/1999/xlink" xml:space="preserve" xmlns:serif="http://www.serif.com/" style="fill-rule:evenodd;clip-rule:evenodd;stroke-linejoin:round;stroke-miterlimit:2;"><path id="_02J-SCHNAUZER" serif:id="02J-SCHNAUZER" d="M259.036,63.108c0.724,0.227 1.596,2.563 2.036,3.608c0.628,1.492 1.109,3.026 1.589,4.556c0.287,0.912 3.228,11.324 5.34,15.361c1.106,2.116 2.771,4.116 4.606,5.879c1.381,1.327 3.328,4.178 5.333,3.352c3.11,-1.281 9.894,-8.577 13.323,-11.037c0.778,-0.556 4.935,-3.804 5.186,-4.16c1.839,-2.618 3.749,-5.213 5.356,-7.925c0.652,-1.098 2.766,-10.486 4.369,-13.653c1.982,-3.917 1.844,-5.748 -2.525,-8.146c-4.785,-2.627 -9.782,-4.998 -14.658,-7.518c-1.126,-0.581 -5.518,-3.093 -3.201,-4.433c0.932,-0.538 6.829,-2.788 3.119,-5.002c-2.76,-1.647 -5.418,-3.411 -8.237,-4.99c-1.51,-0.846 -14.501,-5.942 -18.971,-8.316c-2.608,-1.385 -2.69,-3.774 -2.599,-6.031c0.173,-4.289 -0.446,-13.253 -2.289,-13.73c-1.842,-0.476 -5.77,7.288 -8.768,10.874c-2.778,3.325 -8.447,12.005 -9.231,12.506c-5.233,3.34 -10.556,6.589 -15.805,9.915c-5.499,3.486 -9.372,8.063 -13.073,12.785c-3.786,4.83 -7.771,9.558 -11.735,14.294c-2.573,3.072 -6.214,4.965 -10.514,6.198c-10.891,3.124 -21.63,6.629 -32.65,9.413c-6.402,1.618 -13.178,2.467 -19.867,3.088c-17.631,1.636 -35.313,2.905 -52.959,4.43c-9.352,0.807 -18.753,1.499 -27.974,2.92c-4.685,0.723 -8.859,1.384 -13.26,-0.582c-2.615,-1.168 -36.986,-37.329 -40.571,-32.362c-2.129,2.949 33.202,36.999 34.161,38.462c0.735,1.119 1.484,2.316 2.59,3.169c2.079,1.607 2.322,3.153 1.086,5.251c-6.046,10.26 -6.238,21.356 -6.996,32.4c-0.571,8.328 -0.837,16.85 -4.817,24.626c-3.453,6.746 -7.539,13.4 -15.418,17.877c-2.45,1.392 -4.635,3.502 -5.966,5.674c-1.522,2.485 -2.111,5.382 -2.814,8.149c-0.52,2.045 -0.555,4.168 -0.841,6.254c-0.234,1.715 -0.697,3.423 -0.74,5.139c-0.115,4.967 0.233,9.952 -0.181,14.898c-0.354,4.239 0.829,8.188 2.084,12.178c1.056,3.361 10.42,8.643 10.42,8.643l15.506,0c0,0 9.598,-0.522 10.791,-1.957c0.824,-0.992 0.351,-5.237 0,-6.478c-0.903,-3.196 -7.714,-9.434 -9.311,-12.452c-4.322,-8.158 0.367,-17.192 7.431,-23.641c0.378,-0.345 17.075,-14.631 25.138,-21.358c9.96,-8.307 25.089,-12.68 31.851,-22.891c2.49,-3.761 6.542,-4.504 10.544,-4.294c6.988,0.367 14.163,0.979 20.784,2.693c9.685,2.506 18.896,6.19 28.415,9.144c4.839,1.5 9.88,2.603 14.897,3.68c1.89,0.406 8.698,1.015 8.718,2.573c0.08,6.515 6.272,56.76 6.31,59.206c0.104,6.583 8.985,15.775 8.985,15.775l26.56,0c-0,0 5.961,0.156 7.623,-4.766c0.363,-1.077 0.224,-3.011 -0,-3.877c-0.612,-2.362 -3.04,-4.112 -4.84,-5.872c-3.313,-3.243 -4.836,-6.65 -5.095,-10.805c-0.472,-7.6 -1.791,-15.173 -2.08,-22.772c-0.46,-12.097 0.786,-24.132 3.385,-36.065c1.138,-5.227 5.808,-8.938 8.63,-13.441c3.372,-5.378 7.363,-10.515 10.456,-15.991c3.237,-5.733 2.385,-11.991 2.21,-18.115c-0.044,-1.559 0.106,-3.195 0.644,-4.681c2.811,-7.774 5.481,-15.596 8.807,-23.228c1.843,-4.232 4.851,-8.134 7.393,-12.16c0.379,-0.602 1.586,-2.469 2.31,-2.241Z" style="fill-rule:nonzero;"/></svg>