<?xml version="1.0" encoding="UTF-8" standalone="no"?><!DOCTYPE svg PUBLIC "-//W3C//DTD SVG 1.1//EN" "http://www.w3.org/Graphics/SVG/1.1/DTD/svg11.dtd"><svg width="100%" height="100%" viewBox="0 0 281 237" version="1.1" xmlns="http://www.w3.org/2000/svg" xmlns:xlink="http://www.w3.org/1999/xlink" xml:space="preserve" xmlns:serif="http://www.serif.com/" style="fill-rule:evenodd;clip-rule:evenodd;stroke-linejoin:round;stroke-miterlimit:2;"><path id="_03H-DOBERMANN" serif:id="03H-DOBERMANN" d="M234.991,0.965c0.417,0.419 0.802,2.678 0.853,5.022c0.052,2.343 3.474,21.364 3.474,21.364l7.068,3.768c8.72,4.647 10.943,7.029 11.867,12.715c0.636,3.914 1.993,5.39 11.371,12.378c5.858,4.364 10.825,8.458 11.038,9.099c0.667,2 -8.421,9.708 -13.149,11.152c-5.032,1.536 -11.887,-0.079 -25.071,-5.909c-8.594,-3.8 -8.254,-4.137 -14.511,14.367c-3.905,11.549 -4.606,15.302 -5.263,28.188c-0.831,16.262 -1.677,18.778 -10.93,32.43c-2.558,3.774 -5.405,9.001 -6.326,11.613c-2.544,7.208 -5.191,27.16 -6.075,45.792c-0.853,17.962 -0.143,20.13 4.481,20.817c3.793,0.564 10.58,8.109 8.955,10.7c-1.337,2.128 -15.214,3.138 -20.541,1.801c-2.806,-0.704 -5.679,-6.577 -7.061,-14.436c-0.452,-2.567 -1.563,-5.853 -2.471,-7.301c-0.908,-1.449 -1.666,-5.462 -1.686,-8.919c-0.039,-7.143 -3.117,-40.157 -3.808,-40.847c-0.248,-0.25 -4.435,-1.289 -9.303,-2.31c-4.869,-1.022 -14.204,-3.51 -20.744,-5.53c-27.062,-8.356 -50.674,-9.325 -56.284,-9.325c-7.784,-0 -11.696,2.22 -17.056,9.681c-10.087,14.041 -17.443,20.296 -38.68,32.893c-5.537,3.284 -11.784,7.76 -13.881,9.946c-4.351,4.531 -7.487,12.369 -7.476,18.681c0.006,3.527 0.646,4.673 3.524,6.311c4.55,2.587 6.029,7.808 2.886,10.179c-2.671,2.016 -16.5,1.407 -18.716,-0.824c-1.735,-1.748 -1.381,-15.499 0.835,-32.514l1.649,-12.66l7.651,-7.47c4.208,-4.107 8.634,-9.583 9.835,-12.169c1.201,-2.587 3.177,-10.881 4.39,-18.432c3.521,-21.904 4.481,-25.583 8.205,-31.456c4.159,-6.559 4.274,-7.745 1.138,-11.733c-5.076,-6.453 -1.112,-10.633 6.193,-6.528c4.37,2.457 4.589,2.463 18.439,0.519c7.708,-1.083 22.31,-3.071 32.447,-4.418c22.297,-2.964 49.771,-4.631 66.793,-10.23c17.821,-5.864 25.441,-9.37 30.13,-13.862c2.184,-2.092 7.74,-10.225 12.35,-18.073c4.781,-8.143 10.778,-16.567 13.968,-19.621c3.074,-2.943 5.977,-6.91 6.451,-8.816c0.475,-1.906 2.971,-7.766 5.548,-13.024c2.577,-5.257 4.685,-10.22 4.685,-11.031c0,-1.789 1.758,-3.028 2.808,-1.978"/></svg>