<?xml version="1.0" encoding="UTF-8" standalone="no"?><!DOCTYPE svg PUBLIC "-//W3C//DTD SVG 1.1//EN" "http://www.w3.org/Graphics/SVG/1.1/DTD/svg11.dtd"><svg width="100%" height="100%" viewBox="0 0 309 238" version="1.1" xmlns="http://www.w3.org/2000/svg" xmlns:xlink="http://www.w3.org/1999/xlink" xml:space="preserve" xmlns:serif="http://www.serif.com/" style="fill-rule:evenodd;clip-rule:evenodd;stroke-linejoin:round;stroke-miterlimit:2;"><path id="_03F-PHARAOH" serif:id="03F-PHARAOH" d="M263.078,11.299c0,9.967 0.316,10.597 7.207,14.392c3.965,2.181 8.623,6.565 10.336,9.749c3.414,6.317 4.464,7.061 18.164,12.882c5.117,2.171 9.296,5.159 9.296,6.648c-0,1.478 -3.017,5.666 -6.707,9.284l-6.697,6.596l-16.35,-1.385c-14.607,-1.23 -16.717,-0.982 -19.724,2.399c-4.903,5.489 -12.395,25.309 -15.198,40.176c-2.599,13.771 -7.828,26.23 -13.801,32.846c-5.494,6.111 -11.356,25.372 -13.506,44.447c-3.048,26.943 -2.763,29.372 4.179,35.813c8.572,7.93 6.605,11.952 -5.831,11.952c-10.702,-0 -11.885,-1.003 -16.604,-13.957c-2.447,-6.731 -3.272,-15.633 -3.272,-35.235l-0,-26.24l-5.382,-0.02c-9.582,-0.042 -24.449,-16.984 -43.296,-26.413c-22.15,-11.073 -38.849,-10.794 -45.444,-4.746c-2.253,2.068 -6.261,16.529 -8.829,21.678c-6.392,12.779 -14.138,21.298 -31.273,34.376c-15.137,11.549 -19.143,17.008 -21.385,29.114c-1.132,6.121 -0.694,7.548 2.894,9.502c2.742,1.488 6.321,5.488 5.924,8.311c-0.53,3.732 -4.354,2.72 -13.222,3.237c-13.006,0.765 -13.343,-0.041 -10.886,-26.26c1.875,-20.151 1.936,-20.326 9.969,-28.463c11.651,-11.828 14.545,-18.765 15.432,-36.982c0.428,-8.726 0.408,-15.467 -0.051,-14.981c-0.448,0.486 -3.211,6.689 -6.126,13.782c-9.062,22.073 -23.21,35.731 -36.991,35.731c-6.279,-0 -6.585,-2.637 -0.632,-5.387c13.17,-6.089 22.486,-19.302 29.795,-42.254c7.573,-23.8 18.47,-38.461 35.105,-47.207c9.714,-5.108 10.917,-5.242 60.792,-6.555c58.091,-1.52 65.532,-2.998 79.854,-15.787c4.943,-4.415 13.383,-14.02 18.745,-21.35c25.055,-34.201 29.703,-40.114 31.538,-40.114c1.08,-0 1.967,4.693 1.977,10.421"/></svg>