<?xml version="1.0" encoding="UTF-8" standalone="no"?><!DOCTYPE svg PUBLIC "-//W3C//DTD SVG 1.1//EN" "http://www.w3.org/Graphics/SVG/1.1/DTD/svg11.dtd"><svg width="100%" height="100%" viewBox="0 0 309 238" version="1.1" xmlns="http://www.w3.org/2000/svg" xmlns:xlink="http://www.w3.org/1999/xlink" xml:space="preserve" xmlns:serif="http://www.serif.com/" style="fill-rule:evenodd;clip-rule:evenodd;stroke-linejoin:round;stroke-miterlimit:2;"><path id="_03C-CRESTED" serif:id="03C-CRESTED" d="M280.354,10.006c0.628,-5.11 0.346,-9.242 -0.638,-9.192c-0.984,0.051 -4.952,4.428 -8.825,9.732c-6.511,8.917 -7.087,9.273 -7.673,4.794c-0.816,-6.219 -3.59,-6.138 -9.065,0.275c-7.464,8.755 -15.482,16.379 -17.23,16.379c-0.921,-0 -4.219,3.736 -7.328,8.306c-3.109,4.571 -5.359,8.307 -4.993,8.307c0.356,-0 -1.465,3.96 -4.051,8.795c-2.586,4.835 -4.752,9.853 -4.815,11.146c-0.063,1.303 -3.235,4.601 -7.035,7.329c-5.066,3.645 -5.945,4.978 -3.276,4.978c5.789,0 -0.115,5.711 -10.908,10.566c-8.154,3.665 -13.085,4.082 -50.246,4.317c-24.024,0.142 -44.08,1.15 -48.11,2.422c-10.688,3.37 -17.879,-1.7 -23.804,-16.775c-3.088,-7.879 -7.401,-14.384 -12.489,-18.853c-10.708,-9.406 -39.875,-17.154 -36.187,-9.039c3.03,6.668 -19.842,20.032 -22.108,26.996c-1.577,4.843 12.17,13.717 5.935,17.468c-9.799,5.894 -7.265,20.941 -0.775,19.727c0.421,-0.078 12.159,-2.627 9.574,5.742c-2.29,7.412 8.434,3.239 7.374,7.977c-1.176,5.257 2.078,12.088 3.412,11.995c7.781,-0.545 12.635,-11.422 11.013,-7.207c-1.581,4.122 3.548,1.384 4.647,-1.751c1.089,-3.136 2.806,-6.271 3.8,-6.973c1.696,-1.171 7.872,-8.347 4.868,-17.865c-3.099,-9.813 0.178,-17.02 7.736,-17.02c3.789,-0 8.018,2.647 14.131,8.856l8.72,8.846l-3.224,6.067c-2.376,4.469 -3.308,12.317 -3.538,29.907c-0.304,22.883 -0.534,24.115 -5.956,31.027c-3.109,3.96 -9.202,8.958 -13.535,11.106c-8.741,4.336 -15.032,12.093 -13.316,16.409c0.607,1.547 -0.199,3.858 -1.79,5.14c-1.601,1.293 -2.899,3.217 -2.899,4.296c-0,1.089 4.218,2.545 2.01,3.889c-5.182,3.145 5.589,8.153 4.94,9.792c-0.894,2.268 0.022,9.117 4.997,9.117c7.835,0 16.991,0 28.011,0c6.211,0 5.441,-5.564 -1.269,-10.99c-4.218,-3.41 -3.189,-8.315 -0.848,-9.558c0.949,-0.504 1.277,-3.624 0.785,-9.274c-0.963,-11.309 -2.229,-9.65 21.753,-28.492c5.694,-4.469 10.415,-10.739 14.194,-18.852c4.051,-8.693 14.812,-20.787 23.49,-19.626c5.109,0.682 18.371,5.375 29.478,10.424c15.43,7.034 23.103,9.375 32.576,9.975l12.384,0.784l1.423,18.415c1.204,15.564 0.911,18.974 -1.842,21.926c-1.79,1.924 -3.256,4.795 -3.256,6.383c0,1.578 -1.12,3.97 -2.491,5.303c-1.989,1.924 1.691,1.766 0.502,4.265c-1.091,2.296 -3.412,10.882 -1.266,12.053c1.811,0.987 4.647,7.264 7.275,7.264c8.877,0 22.381,0 32.033,0c4.428,0 1.339,-9.249 -4.356,-11.478c-2.512,-0.978 -3.973,-6.213 -4.061,-7.177c-0.165,-1.806 0.825,-3.376 -1.79,-8.632c-4.229,-8.52 -4.25,-9.009 -1.152,-30.498c2.669,-18.424 4.104,-23.097 9.222,-29.958c3.329,-4.479 14.09,-43.751 17.053,-40.096c3.004,3.695 3.171,3.389 3.245,-5.864c0.094,-12.093 3.433,-24.318 7.013,-25.652c1.476,-0.549 7.767,-0.091 13.985,1.028c12.844,2.311 19.293,0.479 24.254,-6.891c3.35,-4.957 4.47,-3.695 -12.038,-13.478c-2.763,-1.639 -5.024,-3.888 -5.024,-5.008c-0,-1.109 6.343,-9.731 8.657,-7.909c2.91,2.3 3.402,2.259 3.402,-0.245c-0,-1.608 -1.361,-4.021 -3.015,-5.364c-1.654,-1.344 -3.015,-3.522 -3.015,-4.856c0,-1.343 -4.135,-3.96 -9.18,-5.843c-7.035,-2.606 -8.877,-4.153 -7.893,-6.616c0.701,-1.761 1.79,-7.38 2.418,-12.491Z"/></svg>