<?xml version="1.0" encoding="UTF-8" standalone="no"?><!DOCTYPE svg PUBLIC "-//W3C//DTD SVG 1.1//EN" "http://www.w3.org/Graphics/SVG/1.1/DTD/svg11.dtd"><svg width="100%" height="100%" viewBox="0 0 273 236" version="1.1" xmlns="http://www.w3.org/2000/svg" xmlns:xlink="http://www.w3.org/1999/xlink" xml:space="preserve" xmlns:serif="http://www.serif.com/" style="fill-rule:evenodd;clip-rule:evenodd;stroke-linejoin:round;stroke-miterlimit:2;"><path id="_03B-PAPILLON" serif:id="03B-PAPILLON" d="M259.113,4.026c-1.694,-1.937 -5.568,-3.53 -8.6,-3.53c-6.638,0 -16.717,10.589 -22.463,23.585c-3.173,7.148 -4.791,8.664 -9.289,8.639c-4.561,-0.026 -6.473,-1.924 -11.658,-11.582c-9.722,-18.144 -25.178,-25.56 -36.581,-17.571c-4.651,3.249 -14.53,7.178 -11.047,14.309c1.621,3.32 3.045,-0.268 -0.37,6.409c-4.051,7.951 -11.645,12.438 -8.663,17.688c0.946,1.667 7.122,0.965 6.153,7.069c-0.853,5.287 2.243,10.945 1.797,18.602c-0.675,12.041 5.632,2.587 4.459,11.468c-0.879,6.612 3.02,3.453 3.046,6.332c0.012,1.822 -1.619,5.326 -3.619,7.798c-4.46,5.517 -22.247,7.288 -51.323,5.109l-19.099,-1.427l-1.071,-11.786c-1.962,-21.507 -18.104,-40.35 -33.752,-45.525c-8.03,-2.656 -4.431,3.074 -7.568,3.822c-10.589,2.526 -23.916,3.326 -31.778,11.531c-3.172,3.3 -4.791,6.002 -3.618,6.002c1.185,-0 4.781,-1.916 4.166,1.516c-1.024,5.712 -8.779,10.932 -10.499,15.06c-3.975,9.544 5.109,-0.739 0.828,11.672c-2.408,6.969 2.731,19.028 -3.695,25.177c-10.631,10.174 3.59,14.413 2.001,23.782c-0.982,5.784 4.446,10.849 2.79,14.825c-3.835,9.161 7.645,15.812 7.645,15.812l-2.039,4.026c-1.121,2.23 -1.618,5.199 -1.108,6.626c0.51,1.414 7.594,5.479 7.594,5.479c-0,-0 4.701,8.218 5.772,14.678c0.688,4.115 1.248,11.722 1.261,16.895c0.038,13.901 1.274,19.022 10.321,19.022c4.319,-0 11.811,-0 13.964,-0c5.428,-0 5.263,-8.181 1.249,-11.111c-3.746,-2.74 -4.383,-14.613 -1.249,-20.461c2.141,-4.001 18.135,-16.634 22.97,-15.024c1.347,0.448 17.141,-8.663 18.657,-10.587c2.612,-3.274 2.981,-3.211 5.95,0.981c2.905,4.09 19.418,-1.516 22.884,6.104c4.383,9.67 36.441,15.149 40.289,11.671c3.86,-3.491 3.911,-3.402 2.714,4.039c-0.892,5.479 9.287,8.662 8.365,11.783c-0.817,2.763 5.691,9.264 11.907,11.494c4.855,1.741 5.236,11.111 12.257,11.111c4.931,-0 18.123,-0 20.276,-0c5.518,-0 -0.017,-11.02 -5.751,-13.199c-2.625,-1.007 -5.351,-3.326 -6.052,-5.16c-1.809,-4.715 -1.516,-20.769 0.548,-29.65c2.166,-9.327 18.755,-28.872 20.501,-24.158c1.312,3.555 9.785,-12.232 10.129,-18.883c0.153,-3.032 4.14,2.139 4.766,0.663c0.917,-2.164 1.159,-9.187 0.739,-13.646c-0.574,-6.002 -0.102,-7.875 1.796,-7.148c3.237,1.248 3.326,1.949 -1.452,-12.997c-5.632,-17.608 -5.377,-20.157 2.013,-20.157c6.294,0 14.117,-6.001 14.117,-10.83c0,-1.529 -1.975,-4.09 -4.395,-5.695l-4.383,-2.918l4.383,-4.383c2.42,-2.408 4.485,-6.422 4.599,-8.919c0.191,-4.358 4.396,-10.944 6.622,-9.416c10.467,7.185 0.501,-30.363 -2.685,-36.441c-1.452,-2.778 -4.026,-6.626 -5.721,-8.575Z"/></svg>