<?xml version="1.0" encoding="UTF-8" standalone="no"?><!DOCTYPE svg PUBLIC "-//W3C//DTD SVG 1.1//EN" "http://www.w3.org/Graphics/SVG/1.1/DTD/svg11.dtd"><svg width="100%" height="100%" viewBox="0 0 263 237" version="1.1" xmlns="http://www.w3.org/2000/svg" xmlns:xlink="http://www.w3.org/1999/xlink" xml:space="preserve" xmlns:serif="http://www.serif.com/" style="fill-rule:evenodd;clip-rule:evenodd;stroke-linejoin:round;stroke-miterlimit:2;"><path id="_03D-PINSCHER" serif:id="03D-PINSCHER" d="M211.55,1.898c0.352,0.916 1.143,6.183 1.756,11.705c0.617,5.522 1.224,10.144 1.354,10.274c0.466,0.466 7.874,-10.041 10.719,-15.2c3.181,-5.76 4.021,-6.335 4.953,-3.387c0.618,1.94 -1.756,19.953 -3.062,23.215c-0.476,1.198 0.065,2.141 1.729,3.024c1.333,0.705 4.417,2.91 6.855,4.894c3.42,2.79 4.579,4.552 5.083,7.716c0.613,3.837 1.328,4.541 10.92,10.762c5.847,3.799 10.258,7.365 10.258,8.302c-0,2.488 -7.278,8.698 -11.797,10.074c-3.219,0.976 -6.135,0.867 -15.027,-0.563c-9.289,-1.49 -11.256,-1.55 -12.442,-0.363c-0.781,0.78 -2.108,6.053 -2.959,11.727c-0.851,5.673 -2.531,13.596 -3.734,17.601c-1.208,4.004 -2.514,11.965 -2.905,17.687c-0.607,8.871 -1.219,11.402 -4.134,17.168c-1.875,3.717 -4.509,8.221 -5.847,10.003c-5.257,7.007 -11.83,36.736 -12.621,57.106c-0.694,17.834 0.01,21.167 4.812,22.766c4.72,1.566 8.199,6.172 6.345,8.399c-1.696,2.043 -16.452,2.282 -19.015,0.309c-0.927,-0.715 -2.731,-4.807 -4.016,-9.093c-1.284,-4.287 -2.904,-8.373 -3.603,-9.066c-0.905,-0.905 -1.415,-8.985 -1.783,-28.103c-0.282,-14.756 -0.856,-27.881 -1.274,-29.171c-0.65,-1.989 -1.501,-2.341 -5.679,-2.341c-8.806,-0 -19.888,-3.68 -36.085,-11.982c-13.624,-6.979 -16.496,-8.068 -22.554,-8.556c-13.873,-1.111 -19.525,3.479 -24.234,19.687c-3.192,10.974 -7.57,17.504 -17.742,26.461c-18.826,16.566 -22.256,21.173 -24.787,33.273c-1.577,7.533 -1.176,10.416 1.534,11.126c2.569,0.672 5.408,5.256 4.59,7.397c-0.564,1.474 -1.994,1.701 -9.126,1.446l-8.459,-0.298l-0.52,-4.161c-0.287,-2.287 -0.19,-7.208 0.217,-10.925c0.493,-4.677 0.948,-9.359 1.354,-14.046c1.095,-12.887 1.236,-13.25 7.56,-19.796c10.898,-11.277 13.775,-21.221 11.602,-40.031c-1.122,-9.683 -1.523,-11.271 -2.119,-8.323l-2.493,12.458c-2.183,10.963 -5.224,17.081 -11.249,22.635c-7.425,6.839 -19.016,8.514 -25.54,3.68c-3.75,-2.775 -7.425,-8.394 -7.425,-11.353c0,-3.679 1.783,-2.953 4.151,1.691c4.011,7.863 13.51,9.7 22.067,4.275c7.039,-4.465 10.713,-12.631 12.713,-28.265c0.851,-6.628 2.509,-14.632 3.69,-17.786c5.452,-14.571 19.471,-26.851 36.974,-32.389c9.625,-3.051 20.874,-3.956 46.967,-3.793l25.865,0.157l10.161,-3.116c5.587,-1.718 11.315,-3.88 12.729,-4.807c3.089,-2.021 5.371,-6.367 9.868,-18.82c1.865,-5.148 5.089,-12.637 7.164,-16.637c3.273,-6.307 3.783,-8.247 3.81,-14.566c0.027,-6.286 0.639,-8.671 4.454,-17.254c6.173,-13.9 8.443,-16.821 9.977,-12.827"/></svg>