<?xml version="1.0" encoding="UTF-8" standalone="no"?><!DOCTYPE svg PUBLIC "-//W3C//DTD SVG 1.1//EN" "http://www.w3.org/Graphics/SVG/1.1/DTD/svg11.dtd"><svg width="100%" height="100%" viewBox="0 0 309 237" version="1.1" xmlns="http://www.w3.org/2000/svg" xmlns:xlink="http://www.w3.org/1999/xlink" xml:space="preserve" xmlns:serif="http://www.serif.com/" style="fill-rule:evenodd;clip-rule:evenodd;stroke-linejoin:round;stroke-miterlimit:2;"><path id="_03E-BASENJI" serif:id="03E-BASENJI" d="M261.1,7.539c0,-11.069 -4.281,-9.757 -13.006,3.974c-4.09,6.426 -12.503,16.459 -18.7,22.308c-6.21,5.836 -15.887,17.154 -21.513,25.14c-13.78,19.567 -20.154,22.505 -51.086,23.502c-14.256,0.459 -34.587,-0.59 -51.112,-2.649c-16.771,-2.086 -32.359,-2.872 -40.037,-2.046c-11.566,1.272 -12.857,0.983 -16.091,-3.476c-4.349,-5.98 -4.566,-15.029 -0.421,-18.334c5.3,-4.249 14.827,-1.783 18.02,4.682c2.324,4.695 3.466,5.338 5.939,3.371c8.413,-6.741 -3.221,-24.761 -16.009,-24.761c-21.568,0 -32.318,19.554 -21.744,39.554l4.376,8.249l-7.543,9.534c-8.358,10.544 -9.146,13.718 -10.573,42.387c-1.074,21.534 -3.914,30.36 -13.183,40.97c-5.395,6.177 -6.115,8.839 -7.053,26.098c-1.318,24.327 0.423,30.338 12.953,30.299c4.987,-0.026 10.315,-0.8 11.823,-1.731c3.561,-2.177 1.21,-8.092 -4.348,-10.951c-3.67,-1.901 -4.052,-5.696 -2.937,-13.486c1.889,-13.325 5.694,-18.99 22.437,-33.377c8.236,-7.082 19.461,-19.436 24.938,-27.462c14.215,-20.813 22.791,-21.77 56.386,-6.321c27.561,12.669 34.546,14.885 51.385,16.328l15.044,1.285l0.584,24.891c0.558,24.039 1.631,28.931 9.772,44.616c2.84,5.482 10.695,7.567 20.018,5.312c6.822,-1.653 6.469,-6.466 -0.802,-10.925c-9.051,-5.56 -9.472,-6.754 -8.249,-23.436c1.712,-23.396 7.787,-41.625 18.224,-54.674c6.605,-8.263 9.595,-14.413 11.348,-23.397c3.724,-19.082 12.259,-43.252 17.002,-48.17c4.783,-4.944 11.742,-5.573 24.299,-2.216c9.839,2.636 17.083,1.246 22.927,-4.38c6.591,-6.361 5.137,-9.81 -6.51,-15.502c-7.352,-3.606 -10.75,-6.544 -10.75,-9.298c0,-2.216 -3.914,-7.659 -8.684,-12.079c-7.869,-7.304 -8.467,-8.577 -6.455,-13.704c1.223,-3.109 2.188,-8.158 2.147,-11.226l-0.095,-5.561l-6.36,7.174l-6.361,7.186l0,-7.698Z"/></svg>