<?xml version="1.0" encoding="UTF-8" standalone="no"?><!DOCTYPE svg PUBLIC "-//W3C//DTD SVG 1.1//EN" "http://www.w3.org/Graphics/SVG/1.1/DTD/svg11.dtd"><svg width="100%" height="100%" viewBox="0 0 265 238" version="1.1" xmlns="http://www.w3.org/2000/svg" xmlns:xlink="http://www.w3.org/1999/xlink" xml:space="preserve" xmlns:serif="http://www.serif.com/" style="fill-rule:evenodd;clip-rule:evenodd;stroke-linejoin:round;stroke-miterlimit:2;"><path id="_03A-CHIUAUA" serif:id="03A-CHIUAUA" d="M17.423,228.509c6.591,1.988 3.237,8.576 3.237,8.576l-15.357,0.018c-0,-0 -4.904,-5.343 -4.927,-7.594c-0.121,-11.726 0.39,-23.464 1.095,-35.177c0.125,-2.036 1.752,-4.527 3.503,-5.844c10.987,-8.266 14.207,-18.716 12.906,-31.753c-1.133,-11.314 -0.85,-22.948 0.645,-34.222c0.672,-5.081 5.186,-10.178 9.139,-14.255c3.062,-3.163 3.129,-5.148 1.465,-8.81c-13.457,-29.67 9.199,-60.707 33.789,-69.815c1.26,-0.468 6.777,-2.756 5.979,-1.003c-1.005,2.206 -8.843,9.636 -12.009,14.239c-5.115,7.443 -10.144,15.019 -14.257,22.971c-4.42,8.548 -1.163,16.652 4.184,23.933c0.857,1.168 4.02,2.074 5.351,1.507c10.732,-4.565 21.924,-3.463 33.079,-2.894c9.666,0.494 19.326,1.162 28.989,1.767c12.224,0.772 23.043,-3.938 34.306,-7.307c7.176,-2.146 11.717,-6.192 15.246,-11.985c3.851,-6.322 7.965,-12.502 11.77,-18.849c6.836,-11.416 17.145,-19.897 29.496,-24.541c14.749,-5.54 31.412,-24.084 37.076,-26.355c4.252,-1.705 -1.99,8.896 -3.092,12.73c-1.123,3.894 -2.545,7.708 -4.034,12.14c12.467,5.11 13.808,16.079 14.9,27.131c0.111,1.095 -0.734,5.912 0.638,6.697c3.071,1.764 7.953,4.054 11.233,5.529c3.411,1.526 3.842,3.197 1.378,6.572c-9.434,12.91 -23.097,15.123 -38.127,14.363c-2.535,-0.13 -6.675,-3.357 -7.667,-1.108c-2.559,5.805 -8.897,23.313 -7.69,35.938c1.149,12.049 -0.074,23.195 -9.414,32.93c-2.85,2.969 -2.908,8.778 -3.234,13.35c-0.813,11.52 -1.025,23.075 -1.532,34.611c-0.198,4.565 2.078,20.767 6.745,23.281c13.4,7.217 4.602,12.538 -0.472,11.805l-8.717,0c0,0 -6.419,-1.915 -8.543,-9.858c-3.916,-14.632 -8.386,-32.677 -12.574,-47.246c-1.163,-4.055 1.031,-10.931 -3.21,-12.33c-11.398,-3.761 -45.185,-4.363 -65.177,-10.235c-11.206,-3.29 -22.455,-3.169 -33.829,-2.147c-1.418,0.13 -2.907,1.491 -3.996,2.599c-4.507,4.578 -7.367,11.375 -13.39,13.825c-40.07,16.307 -42.349,47.702 -34.901,56.816"/></svg>