<?xml version="1.0" encoding="UTF-8" standalone="no"?><!DOCTYPE svg PUBLIC "-//W3C//DTD SVG 1.1//EN" "http://www.w3.org/Graphics/SVG/1.1/DTD/svg11.dtd"><svg width="100%" height="100%" viewBox="0 0 308 238" version="1.1" xmlns="http://www.w3.org/2000/svg" xmlns:xlink="http://www.w3.org/1999/xlink" xml:space="preserve" xmlns:serif="http://www.serif.com/" style="fill-rule:evenodd;clip-rule:evenodd;stroke-linejoin:round;stroke-miterlimit:2;"><path id="_04C-MIX" serif:id="04C-MIX" d="M252.908,3.947c0.757,1.84 1.362,5.981 1.362,9.198c0,4.868 1.514,6.41 8.987,9.186c6.624,2.457 9.848,5.298 12.281,10.795c2.584,5.871 4.901,7.743 10.861,8.801c9.976,1.773 21.512,8.536 21.512,12.612c0,3.767 -8.544,16.897 -15.494,23.781c-5.902,5.86 -11.315,5.97 -26.436,0.529c-6.472,-2.324 -12.526,-4.23 -13.469,-4.23c-2.758,0 -13.48,29.355 -16.995,46.527c-1.781,8.724 -5.844,21.182 -9.01,27.681c-3.318,6.807 -7.183,20.73 -9.103,32.78c-4.878,30.622 -4.273,41.053 2.386,41.053c3.562,0 8.428,7.688 6.624,10.453c-1.979,3.029 -14.26,4.88 -22.584,3.404c-6.53,-1.157 -8.404,-2.952 -12.979,-12.359c-2.945,-6.058 -6.729,-19.54 -8.405,-29.95l-3.05,-18.934l-19.312,-2.622c-12.27,-1.663 -28.579,-6.069 -44.701,-12.083c-23.585,-8.779 -30.534,-10.685 -36.75,-10.057c-1.339,0.132 -6.287,5.541 -11.001,12.028c-4.715,6.477 -15.576,17.768 -24.143,25.093c-14.749,12.612 -15.611,13.867 -16.658,24.166c-0.908,8.955 -0.478,10.861 2.456,10.861c4.074,0 9.056,9.255 7.043,12.35c-1.158,1.765 -7.959,2.024 -14.668,2.024c-5.939,0 -11.707,-1.366 -13.166,-3.026c-1.478,-1.696 -3.818,-14.366 -5.18,-26.031c-0,0 -4.145,-14.753 -2.491,-21.941c2.613,-11.354 18.695,-24.311 18.171,-46.186c-0.326,-12.954 0.606,-22.427 2.666,-27.505c2.782,-6.84 2.712,-8.834 -0.582,-16.996c-6.321,-15.685 -3.446,-28.914 7.939,-36.459c6.484,-4.307 17.392,-4.384 17.392,-0.132c-0,1.74 -1.048,3.172 -2.34,3.172c-3.97,-0 -13.306,10.156 -13.306,14.474c0,2.247 1.793,6.19 3.993,8.756c3.76,4.395 4.575,4.506 13.969,1.906c6.787,-1.894 26.041,-2.842 60.265,-2.996c69.415,-0.297 71.952,-1.212 94.477,-33.849c5.658,-8.184 12.386,-16.688 14.971,-18.902c2.584,-2.214 6.612,-8.096 8.94,-13.085c2.514,-5.376 7.252,-10.806 11.652,-13.339c8.941,-5.155 12.084,-5.376 13.876,-0.948"/></svg>