<?xml version="1.0" encoding="UTF-8" standalone="no"?><!DOCTYPE svg PUBLIC "-//W3C//DTD SVG 1.1//EN" "http://www.w3.org/Graphics/SVG/1.1/DTD/svg11.dtd"><svg width="100%" height="100%" viewBox="0 0 283 237" version="1.1" xmlns="http://www.w3.org/2000/svg" xmlns:xlink="http://www.w3.org/1999/xlink" xml:space="preserve" xmlns:serif="http://www.serif.com/" style="fill-rule:evenodd;clip-rule:evenodd;stroke-linejoin:round;stroke-miterlimit:2;"><path id="_04D-WHIPPET" serif:id="04D-WHIPPET" d="M237.078,1.52c-15.57,-2.554 -19.538,-2.016 -26.568,3.589c-7.505,5.996 -7.495,8.719 0.042,8.719l4.898,0l-6.017,11.654c-3.315,6.407 -7.769,15.917 -9.901,21.132c-6.344,15.474 -9.933,16.53 -60.99,18.039c-37.821,1.109 -45.315,1.879 -56.747,5.837c-16.108,5.574 -19.169,7.157 -29.091,15.105c-11.157,8.93 -15.358,18.578 -17.311,39.679c-2.375,25.734 -10.123,35.699 -26.537,34.126c-9.722,-0.929 -10.587,1.119 -1.752,4.201c7.653,2.671 19.707,0.011 24.626,-5.425c1.805,-1.985 4.644,-6.777 6.323,-10.651c2.523,-5.806 3.061,-6.228 3.135,-2.386c0.126,7.706 -7.97,21.101 -19.465,32.174l-10.861,10.46l-0,15.126c-0,8.308 -0.927,20.204 -1.507,23.413c-1.383,7.536 0.191,10.129 9.181,10.129c8.773,0 14.425,0.912 8.079,-6.712c-1.677,-2.014 -2.9,-3.852 -4.892,-4.344c-3.447,-0.852 -1.93,-6.178 -1.857,-10.41c0.406,-23.662 11.192,-32.145 32.965,-37.071c27.745,-6.278 27.803,-22.937 31.16,-42.022c1.119,-6.375 2.987,-14.049 4.159,-17.036c2.163,-5.532 12.508,-11.823 19.285,-11.749c6.333,0.074 19.316,6.946 33.64,17.797c12.772,9.69 17.881,11.991 35.963,16.224c6.608,1.541 7.199,2.333 8.634,11.664c0.845,5.499 1.753,20.499 2.027,33.313c0.274,12.814 1.246,23.856 2.164,24.531c0.929,0.676 2.755,6.091 4.074,12.044c2.185,9.806 2.631,13.711 8.964,13.771c2.297,0.022 7.22,0.036 11.388,0c4.255,-0.036 7.738,-4.521 5.999,-7.776c-1.182,-2.185 -6.232,-6.09 -7.9,-6.09c-7.114,-0 -8.592,-18.462 -4.897,-60.8c1.499,-17.089 3.05,-24.679 5.795,-28.437c7.125,-9.721 12.476,-22.24 13.637,-31.846c1.246,-10.397 10.218,-53.073 12.298,-58.478c1.087,-2.829 3.504,-3.114 16.772,-1.952c13.902,1.213 16.055,0.907 20.974,-2.956c3.009,-2.364 5.468,-4.961 5.468,-5.763c0,-0.803 -5.035,-3.927 -11.199,-6.946c-7.051,-3.462 -11.896,-7.336 -13.079,-10.45c-2.47,-6.492 -10.692,-11.727 -21.079,-13.427Z"/></svg>