<?xml version="1.0" encoding="UTF-8" standalone="no"?><!DOCTYPE svg PUBLIC "-//W3C//DTD SVG 1.1//EN" "http://www.w3.org/Graphics/SVG/1.1/DTD/svg11.dtd"><svg width="100%" height="100%" viewBox="0 0 308 238" version="1.1" xmlns="http://www.w3.org/2000/svg" xmlns:xlink="http://www.w3.org/1999/xlink" xml:space="preserve" xmlns:serif="http://www.serif.com/" style="fill-rule:evenodd;clip-rule:evenodd;stroke-linejoin:round;stroke-miterlimit:2;"><path id="_04A--JACK" serif:id="04A- JACK" d="M76.888,143.262c13.325,-15.846 48.1,2.305 67.126,9.471c6.289,2.368 35.256,5.282 43.461,15.071c8.204,9.789 8.625,37.552 9.793,40.902c1.197,3.433 3.421,6.522 3.521,10.423c0.08,3.159 0.516,6.316 0.971,9.454c0.523,3.622 5.147,8.552 5.147,8.552l13.928,0c-0,0 5.574,-0.886 5.469,-3.941c-0.129,-3.762 -4.75,-4.528 -6.954,-5.628c-7.16,-3.572 -7.87,-9.559 -7.006,-15.986c1.288,-9.562 1.876,-42.202 2.757,-43.632c4.221,-6.851 13.859,-41.238 13.901,-43.737c0.107,-6.485 11.445,-62.459 14.009,-63.575c2.917,-1.27 9.945,0.102 14.708,-0.018c8.552,-0.225 17.155,-0.102 25.629,-1.03c7.428,-0.815 15.418,-1.629 18.942,-9.793c0.194,-0.445 0.468,-0.888 0.814,-1.241c6.179,-6.381 5.611,-8.391 -2.734,-11.852c-7.738,-3.209 -15.341,-6.722 -22.937,-10.229c-4.073,-1.888 -6.47,-4.857 -6.754,-9.489c-0.1,-1.586 -1.643,-3.55 -3.118,-4.515c-3.465,-2.262 -7.373,-3.904 -10.936,-6.043c-1.952,-1.165 -3.469,-2.981 -5.382,-4.217c-1.143,-0.737 -2.714,-1.368 -4.028,-1.266c-5.576,0.43 -11.113,1.346 -16.693,1.727c-8.923,0.609 -14.744,5.284 -18.258,12.67c-2.243,4.718 -5.167,8.818 -8.478,12.909c-6.108,7.54 -11.63,15.525 -17.161,23.474c-4.543,6.528 -10.039,11.323 -18.281,13.579c-8.448,2.311 -16.519,5.864 -24.796,8.775c-1.265,0.443 -43.667,0.215 -63.43,0.609c-8.632,0.172 -17.219,1.991 -25.861,2.468c-3.065,0.169 -6.731,-0.722 -9.271,-2.345c-7.164,-4.583 -10.652,-11.508 -10.746,-19.687c-0.084,-7.079 -1.706,-14.197 -2.155,-21.236c-0.387,-6.067 -1.681,-17.174 -4.173,-17.298c-2.492,-0.124 -5.186,10.518 -5.412,16.554c-0.497,13.174 -1.419,26.169 4.86,38.144c1.727,3.298 4.379,6.283 7.106,8.945c4.379,4.272 4.754,7.422 0.713,12.097c-2.039,2.361 -4.011,4.777 -6.005,7.174c-6.367,7.651 -10.197,16.014 -10.807,26.093c-0.536,8.852 -3.053,17.581 -4.434,26.405c-0.662,4.214 -1.01,8.523 -0.962,12.78c0.042,3.925 -0.887,7.223 -3.934,9.916c-5.372,4.752 -6.921,10.198 -6.17,17.455c0.749,7.245 -1.442,14.748 -2.081,22.158c-0.442,5.118 -0.432,10.269 -0.616,15.405c-0.01,0.24 0.013,3.259 0.093,3.484c0.568,1.564 2.241,3.937 2.241,3.937l14.081,0c0,0 7.395,0.377 6.237,-2.396c-1.408,-3.373 -3.071,-5.505 -4.862,-5.742c-7.375,-0.975 -4.553,-10.406 -3.795,-15.736c1.536,-10.788 2.42,-21.626 11.214,-30.088c4.934,-4.749 26.368,-10.014 51.509,-39.911Z"/></svg>