<?xml version="1.0" encoding="UTF-8" standalone="no"?><!DOCTYPE svg PUBLIC "-//W3C//DTD SVG 1.1//EN" "http://www.w3.org/Graphics/SVG/1.1/DTD/svg11.dtd"><svg width="100%" height="100%" viewBox="0 0 308 238" version="1.1" xmlns="http://www.w3.org/2000/svg" xmlns:xlink="http://www.w3.org/1999/xlink" xml:space="preserve" xmlns:serif="http://www.serif.com/" style="fill-rule:evenodd;clip-rule:evenodd;stroke-linejoin:round;stroke-miterlimit:2;"><path id="_04E-GREYHOUND" serif:id="04E-GREYHOUND" d="M0.464,142.726c1.216,0.069 5.18,-0.836 7.297,2.04c1.215,1.651 2.238,3.458 3.407,5.149c2.265,3.282 5.173,5.582 9.003,6.405c3.407,0.736 6.384,0.06 8.98,-2.618c6.452,-6.653 10.779,-14.58 12.684,-23.864c2.314,-11.285 4.431,-22.613 6.531,-33.945c2.234,-12.048 7.827,-21.914 16.938,-29.478c5.41,-4.493 11.968,-6.23 18.432,-8.13c15.044,-4.422 30.323,-4.768 45.806,-3.57c15.856,1.229 31.69,3.439 47.642,2.631c7.19,-0.365 14.621,-0.258 21.186,-3.844c6.73,-3.678 13.36,-7.705 19.514,-12.353c3.496,-2.639 5.961,-6.813 8.866,-10.318c1.348,-1.627 2.713,-3.248 3.943,-4.973c3.731,-5.236 8.488,-9.125 13.914,-12.181c1.166,-0.656 3.975,-1.808 3.794,-2.329c-0.181,-0.521 -5.323,0.882 -4.877,-0.795c0.445,-1.677 4.957,-6.454 7.552,-9.268c0.616,-0.667 2.429,-0.759 3.353,-0.32c2.518,1.198 5.045,1.229 7.688,1.026c3.089,-0.238 3.794,0.239 4.65,3.455c0.426,1.599 1.17,2.439 2.639,2.992c5.065,1.898 8.83,5.864 12.105,10.012c5.327,6.745 11.849,11.866 18.388,17.057c1.889,1.5 3.768,3.054 5.43,4.819c0.917,0.972 2.202,2.838 1.872,3.586c-0.596,1.355 -1.752,3.066 -2.942,3.719c-0.235,0.129 -0.472,0.217 -0.706,0.252c-7.609,1.154 -15.441,2.844 -22.476,-2.237c-6.041,-4.363 -12.788,-5.017 -19.776,-4.873c-2.488,0.049 -4.425,0.883 -5.761,3.236c-6.584,11.596 -13.162,23.236 -16.783,36.307c-1.423,5.131 -1.628,10.646 -2.327,15.995c-0.908,6.942 -0.918,14.095 -3.892,20.568c-1.557,3.393 -3.182,6.83 -5.295,9.842c-2.506,3.569 -3.633,7.456 -4.221,11.737c-2.09,15.247 -4.715,37.877 -6.298,53.179c-1.066,10.317 -0.721,20.796 -1.004,31.204c-0.038,1.333 4.199,3.365 5.442,3.633c3.227,0.693 8.739,1.615 9.263,9.654c0.034,0.523 -2.565,1.213 -2.565,1.213l-12.138,0c-0,0 -2.358,-1.646 -3.498,-2.591c-0.546,-0.449 -6.094,-6.836 -6.158,-6.934c-2.595,-4.003 -1.784,-14.7 -2.141,-15.317c-1.687,-2.896 -1.207,-56.909 -5.555,-69.773c-0.715,-2.117 -12.907,-1.404 -14.863,-1.644c-4.743,-0.582 -9.564,-0.719 -13.987,-3.043c-10.097,-5.306 -19.643,-11.559 -28.556,-18.859c-3.984,-3.262 -7.603,-7.039 -11.648,-10.208c-4.078,-3.195 -8.748,-5.2 -14.012,-5.973c-0.7,6.212 -6.524,34.4 -25.059,42.484c-11.395,4.97 -22.551,16.175 -23.723,17.737c-5.716,7.631 -11.514,15.188 -17.308,22.752c-3.032,3.956 -6.505,7.946 -7.113,13.017c-0.839,7.005 -1.052,20.162 -0.793,24.263c0.053,0.833 1.657,0.261 2.345,0.34c2.902,0.334 8.904,7.322 9.587,9.356c0.537,1.598 -0.2,3.856 -1.578,4.027c-1.521,0.19 -4.578,0.366 -4.578,0.366l-10.411,0c0,0 -0.288,-0.319 -5.183,-7.888c-0.975,-1.507 -1.366,-3.008 -1.214,-4.742c0.284,-3.231 0.887,-6.464 0.828,-9.688c-0.126,-6.82 -0.463,-16.547 -0.976,-23.349c-0.231,-3.051 0.107,-5.668 1.9,-8.166c4.171,-5.817 8.289,-11.681 12.24,-17.666c1.356,-2.057 2.559,-4.425 3.11,-6.837c1.016,-4.451 1.596,-9.023 2.178,-13.571c0.505,-3.949 1.072,-10.082 1.129,-11.901c0.013,-0.429 -0.637,0.628 -0.784,0.983c-2.184,5.259 -4.309,10.542 -6.56,15.766c-1.98,4.596 -5.08,8.243 -8.941,11.181c-7.634,5.801 -17.851,5.566 -23.687,-1.048c-2.377,-2.693 -3.737,-6.371 -5.69,-9.511c-1.409,-2.263 -3.799,-5.19 -4.559,-6.553c-0.26,-0.466 -0.511,-1.654 0,-1.625Z" style="fill-rule:nonzero;"/></svg>