<?xml version="1.0" encoding="UTF-8" standalone="no"?><!DOCTYPE svg PUBLIC "-//W3C//DTD SVG 1.1//EN" "http://www.w3.org/Graphics/SVG/1.1/DTD/svg11.dtd"><svg width="100%" height="100%" viewBox="0 0 308 237" version="1.1" xmlns="http://www.w3.org/2000/svg" xmlns:xlink="http://www.w3.org/1999/xlink" xml:space="preserve" xmlns:serif="http://www.serif.com/" style="fill-rule:evenodd;clip-rule:evenodd;stroke-linejoin:round;stroke-miterlimit:2;"><path id="_04H-AFGAN-HOUND" serif:id="04H-AFGAN HOUND" d="M266.625,1.599c-21.314,-6.659 -37.264,7.526 -53.129,47.25c-9.243,23.17 -10.974,25.369 -23.872,30.295c-9.619,3.678 -17.659,4.556 -52.624,5.761c-44.132,1.532 -52.613,3.224 -65.866,13.17c-8.34,6.258 -16.111,20.888 -22.023,41.437c-6.266,21.806 -18.466,32.271 -27.387,23.498c-3.826,-3.763 -5.449,-3.858 -5.449,-0.317c-0,5.644 7.717,9.925 16.402,9.111c4.6,-0.433 8.362,-0.444 8.362,-0.031c0,3.002 -10.512,14.058 -19.723,20.749c-8.814,6.406 -11.544,9.799 -13.425,16.659c-1.999,7.336 -4.525,13.985 -7.674,20.179c-0.957,1.893 12.156,5.021 27.548,6.575c11.146,1.131 29.44,-0.993 38.038,-4.408c1.699,-0.676 4.955,-1.437 7.223,-1.701c16.295,-1.871 22.701,-5.846 24.84,-15.412c0.741,-3.309 2.579,-6.48 4.084,-7.051c1.505,-0.57 4.17,-4.534 5.912,-8.815c1.741,-4.292 4.062,-8.341 5.159,-9.006c1.096,-0.666 2.633,-4.06 3.407,-7.548c1.043,-4.661 1.892,-5.592 3.225,-3.53c0.988,1.554 1.827,1.807 1.837,0.581c0.022,-1.216 1.817,-4.249 4.01,-6.733c3.923,-4.44 4.009,-4.45 6.169,-0.487c1.204,2.21 3.719,3.806 5.579,3.531c1.87,-0.264 5.675,1.586 8.448,4.112c2.773,2.526 6.363,4.101 7.975,3.499c1.612,-0.613 4.321,2.737 6.008,2.093c1.785,-0.666 11.834,7.78 12.952,6.046c1.064,-1.649 3.117,-1.047 6.922,2.029c4.267,3.468 5.632,6.723 6.514,15.624c0.612,6.268 0.15,12.927 -1.054,15.041c-1.805,3.182 6.825,8.552 9.448,6.691c0.398,-0.274 2.021,0.455 3.611,1.628c5.858,4.313 31.525,5.116 52.947,1.639c7.094,-1.152 13.543,-2.727 14.327,-3.489c0.796,-0.771 -1.386,-3.942 -4.826,-7.029c-5.675,-5.095 -6.384,-7.177 -7.663,-22.219c-1.397,-16.522 1.3,-34.967 5.116,-34.967c1,0 1.817,-2.685 1.817,-5.962c-0,-3.266 0.892,-8.255 1.977,-11.067c2.537,-6.564 3.526,-35.348 1.419,-41.309c-1.354,-3.837 -1.021,-4.334 2.15,-3.171c3.031,1.12 3.299,0.835 1.397,-1.533c-3.096,-3.858 -5.686,-24.957 -2.848,-23.234c1.15,0.708 2.096,0.254 2.096,-0.994c-0,-1.247 1.064,-1.617 2.364,-0.835c1.634,0.994 1.999,-0.074 1.183,-3.424c-2.72,-11.152 -3.859,-24.038 -2.516,-28.224c1.365,-4.217 2.236,-4.397 14.865,-3.065c12.769,1.342 13.694,1.142 19.39,-4.228c3.289,-3.097 5.987,-6.247 5.987,-6.998c0,-0.75 -5.632,-4.323 -12.5,-7.928c-7.008,-3.668 -13.264,-8.509 -14.231,-11.014c-2.171,-5.613 -6.46,-9.143 -13.898,-11.469Z"/></svg>