<?xml version="1.0" encoding="UTF-8" standalone="no"?><!DOCTYPE svg PUBLIC "-//W3C//DTD SVG 1.1//EN" "http://www.w3.org/Graphics/SVG/1.1/DTD/svg11.dtd"><svg width="100%" height="100%" viewBox="0 0 308 237" version="1.1" xmlns="http://www.w3.org/2000/svg" xmlns:xlink="http://www.w3.org/1999/xlink" xml:space="preserve" xmlns:serif="http://www.serif.com/" style="fill-rule:evenodd;clip-rule:evenodd;stroke-linejoin:round;stroke-miterlimit:2;"><path id="_04F-BORZOI" serif:id="04F-BORZOI" d="M270.455,0.995c-4.187,-0.86 -9.948,-1.214 -12.793,-0.809c-6.733,0.971 -22.602,13.159 -27.521,21.125c-9.978,16.186 -12.663,19.384 -19.546,23.302c-14.496,8.249 -22.932,9.596 -61.242,9.778c-41.947,0.192 -51.765,2.126 -78.134,15.366c-12.002,6.032 -17.442,10.061 -21.429,15.861c-11.051,16.095 -12.183,19.628 -13.776,43.02c-0.971,14.182 -6.592,24.446 -18.544,33.86c-17.081,13.452 -18.534,17.096 -16.69,42.058l0.46,6.215l4.809,-4.403c2.645,-2.419 7.294,-5.962 10.319,-7.865l5.51,-3.462l-1.382,19.536c-0,0 -1.957,15.936 -1.383,19.546c0.279,1.751 3.069,2.116 4.83,2.116l10.388,-0c7.113,-0 10.055,-1.89 6.846,-6.949c-1.026,-1.618 -12.026,-2.614 -11.454,-16.292c0.226,-5.417 2.705,-13.078 4.608,-17.087l3.457,-7.288c-0,0 15.498,-4.464 35.345,-20.781c18.363,-15.092 26.598,-26.773 29.784,-42.281c2.685,-13.027 4.188,-15.649 8.977,-15.649c5.229,-0 17.762,6.185 20.758,10.234c1.393,1.893 14.927,9.221 19.195,12.804c4.258,3.584 28.052,12.046 29.725,13.382c1.322,1.053 4.338,1.751 6.702,1.539c3.517,-0.314 4.539,0.891 5.59,6.549c0.712,3.816 1.373,9.272 1.473,12.116c0.1,2.855 5.56,25.003 6.893,25.003c1.192,-0 5.47,20.072 8.015,24.293c0.641,1.073 1.803,5.001 2.584,8.746c1.944,9.383 4.238,11.661 11.752,11.661c8.486,-0 18.191,1.161 15.596,-3.729c-1.031,-1.953 -3.845,-7.932 -5.358,-7.932c-4.788,0 -9.487,-8.958 -9.487,-26.187c0,-17.633 3.186,-51.391 5.41,-57.383c0.732,-1.944 4.378,-6.904 8.115,-11.003c8.095,-8.898 17.252,-24.304 17.252,-29.031c-0,-1.863 1.152,-4.768 2.555,-6.458c3.145,-3.766 6.431,-19.192 6.882,-32.22c0.782,-22.775 3.937,-29.587 12.684,-27.391c14.857,3.735 19.525,3.503 24.985,-1.245c6.452,-5.618 5.541,-7.855 -5.399,-13.361c-4.429,-2.227 -10.68,-7.137 -13.896,-10.902c-3.977,-4.656 -8.295,-7.359 -13.465,-8.402Z"/></svg>