<?xml version="1.0" encoding="UTF-8" standalone="no"?><!DOCTYPE svg PUBLIC "-//W3C//DTD SVG 1.1//EN" "http://www.w3.org/Graphics/SVG/1.1/DTD/svg11.dtd"><svg width="100%" height="100%" viewBox="0 0 308 237" version="1.1" xmlns="http://www.w3.org/2000/svg" xmlns:xlink="http://www.w3.org/1999/xlink" xml:space="preserve" xmlns:serif="http://www.serif.com/" style="fill-rule:evenodd;clip-rule:evenodd;stroke-linejoin:round;stroke-miterlimit:2;"><path id="_04G-SALUKI" serif:id="04G-SALUKI" d="M270.348,2.054c2.67,1.008 7.465,4.545 10.662,7.858c3.206,3.323 9.9,7.762 14.877,9.874c13.142,5.585 14.078,7.815 6.948,16.616c-5.885,7.269 -6.04,7.322 -17.275,6.154c-6.23,-0.654 -13.042,-1.769 -15.14,-2.477c-5.54,-1.876 -11.353,12.19 -10.989,26.587c0.145,5.832 0.109,11.535 -0.082,12.672c-0.191,1.136 -0.209,3.677 -0.036,5.66c0.172,1.983 -0.436,3.602 -1.345,3.602c-0.899,0 -2.079,1.973 -2.615,4.385c-0.663,2.991 -1.862,3.977 -3.779,3.109c-1.553,-0.697 -2.37,-0.418 -1.825,0.622c0.545,1.04 0.3,2.401 -0.554,3.012c-0.845,0.622 -2.016,4.621 -2.598,8.898c-0.581,4.267 -4.695,14.966 -9.136,23.767c-6.894,13.648 -8.429,18.783 -10.49,34.992c-2.516,19.736 -3.216,46.109 -1.381,51.748c0.581,1.79 2.025,3.259 3.215,3.259c3.506,-0 8.111,7.333 6.912,11.021c-0.827,2.54 -3.361,3.387 -10.154,3.387c-9.491,0 -13.242,-2.444 -13.242,-8.641c-0,-2.047 -1.69,-5.714 -3.769,-8.158c-5.132,-6.057 -8.538,-27.326 -9.074,-56.679l-0.236,-12.757l-11.398,-3.034c-6.267,-1.673 -20.226,-8.159 -31.007,-14.409c-10.79,-6.25 -23.124,-11.974 -27.41,-12.736c-11.044,-1.951 -15.095,1.855 -20.844,19.63c-6.367,19.65 -17.384,33.651 -35.594,45.219c-15.213,9.659 -18.21,13.54 -21.416,27.659c-1.971,8.694 -1.853,9.455 2.026,13.164c6.257,5.982 3.687,10.742 -5.795,10.742c-11.035,0 -11.852,-2.058 -10.49,-26.522l1.153,-20.884l8.402,-7.129c13.968,-11.835 20.989,-28.849 20.398,-49.411c-0.236,-7.997 -0.263,-8.029 -0.962,-1.232c-0.4,3.837 -2.035,9.391 -3.642,12.328c-4.233,7.719 -14.332,18.932 -15.976,17.742c-0.772,-0.568 -1.898,0.494 -2.498,2.348c-0.608,1.855 -1.607,2.766 -2.225,2.037c-0.617,-0.729 -2.561,0.204 -4.314,2.08c-1.762,1.876 -3.206,2.573 -3.224,1.554c-0.009,-1.029 -0.863,-0.471 -1.871,1.223c-1.444,2.401 -2.053,2.497 -2.761,0.428c-0.7,-2.047 -1.481,-2.101 -3.361,-0.268c-1.871,1.844 -2.443,1.801 -2.443,-0.16c0,-1.973 -0.636,-1.941 -2.788,0.16c-2.352,2.316 -3.052,2.155 -4.559,-1.018c-1.444,-3.045 -2.071,-3.216 -3.315,-0.933c-1.199,2.176 -1.79,1.78 -2.616,-1.79c-0.59,-2.53 -1.762,-4.095 -2.616,-3.484c-0.844,0.622 -1.544,-0.279 -1.544,-2.016c0,-1.854 -1.008,-2.691 -2.461,-2.026c-3.261,1.48 -5.231,-6.111 -2.915,-11.213c2.088,-4.61 4.886,-6.079 16.466,-8.684c10.935,-2.466 22.097,-12.211 38.154,-33.287c20.908,-27.455 34.023,-32.44 85.547,-32.483c36.374,-0.032 48.317,-2.134 64.938,-11.418c10.563,-5.896 23.478,-21.666 23.478,-28.666c-0,-5.06 7.184,-17.474 15.34,-26.501c5.831,-6.454 16.548,-8.802 25.249,-5.521"/></svg>