<?xml version="1.0" encoding="UTF-8" standalone="no"?><!DOCTYPE svg PUBLIC "-//W3C//DTD SVG 1.1//EN" "http://www.w3.org/Graphics/SVG/1.1/DTD/svg11.dtd"><svg width="100%" height="100%" viewBox="0 0 308 237" version="1.1" xmlns="http://www.w3.org/2000/svg" xmlns:xlink="http://www.w3.org/1999/xlink" xml:space="preserve" xmlns:serif="http://www.serif.com/" style="fill-rule:evenodd;clip-rule:evenodd;stroke-linejoin:round;stroke-miterlimit:2;"><path id="_04B-MIX" serif:id="04B-MIX" d="M264.485,1.688c6.722,1.794 12.722,6.924 13.905,11.9c0.859,3.589 4.387,5.967 14.439,9.688c7.308,2.72 13.737,6.143 14.271,7.619c1.55,4.238 -8.963,19.926 -14.962,22.337c-3.005,1.2 -8.167,1.64 -11.486,0.98c-19.601,-3.92 -21.182,-3.92 -25.192,-0.11c-3.906,3.721 -12.261,29.273 -20.072,61.353c-2.503,10.304 -6.398,19.695 -10.774,25.981c-9.455,13.574 -13.465,28.987 -14.774,56.818l-1.11,18.653c-0,0 12.145,3.859 14.139,12.069c1.923,7.915 -4.21,7.616 -15.765,7.616c-10.624,0 -10.949,-0.974 -15.598,-10.276c-4.754,-9.534 -6.837,-20.895 -9.329,-50.983l-1.33,-16.106c0,-0 -31.254,-4.331 -42.081,-10.195c-29.871,-16.179 -41.054,-18.32 -44.499,-13.585c-2.838,3.9 -16.052,10.778 -26.805,25.475c-5.644,7.707 -14.774,16.261 -25.024,23.438c-22.072,15.457 -33.102,32.743 -19.318,34.543c5.017,0.655 10.279,12.638 9.496,14.155c-1.057,2.048 -12.005,3.419 -19.631,3.419c0,0 -9.981,0.425 -11.77,-3.419c-1.913,-4.11 0.293,-21.241 0.293,-21.241c0,-0 -1.268,-18.363 0.283,-24c1.204,-4.372 9.026,-9.82 9.026,-9.82c4.973,-5.394 10.219,-12.187 11.664,-15.093c1.445,-2.907 3.246,-16.227 4.01,-29.592c1.089,-19.255 2.356,-26.433 6.125,-34.536c4.722,-10.15 4.722,-10.238 0.744,-13.277c-13.455,-10.26 -21.067,-21.005 -22.292,-31.486c-0.272,-2.344 -0.67,-5.196 -0.89,-6.341c-0.22,-1.145 -0.283,-4.976 -0.157,-8.532c0.251,-6.66 9.737,-24.198 13.099,-24.198c1.047,0 3.612,-1.618 5.685,-3.6c2.691,-2.565 6.973,-3.522 14.753,-3.335c9.057,0.22 12.366,1.431 18.993,6.946c4.408,3.677 8.021,7.564 8.021,8.643c-0,1.122 -4.67,1.376 -10.994,0.594c-12.198,-1.508 -22.083,1.552 -25.266,7.816c-5.371,10.536 0.838,28.855 11.549,34.095c4.21,2.059 20.659,2.742 65.923,2.72c78.193,-0.022 75.963,0.836 103.228,-39.446c17.057,-25.177 22.041,-29.295 35.139,-28.987c5.717,0.144 12.167,0.727 14.334,1.3"/></svg>