<?xml version="1.0" encoding="UTF-8" standalone="no"?><!DOCTYPE svg PUBLIC "-//W3C//DTD SVG 1.1//EN" "http://www.w3.org/Graphics/SVG/1.1/DTD/svg11.dtd"><svg width="100%" height="100%" viewBox="0 0 308 237" version="1.1" xmlns="http://www.w3.org/2000/svg" xmlns:xlink="http://www.w3.org/1999/xlink" xml:space="preserve" xmlns:serif="http://www.serif.com/" style="fill-rule:evenodd;clip-rule:evenodd;stroke-linejoin:round;stroke-miterlimit:2;"><path id="_05F-BEAGLE" serif:id="05F-BEAGLE" d="M237.621,92.522c-1.921,4.483 -3.88,8.811 -5.64,13.22c-4.048,10.138 -8.508,20.078 -13.076,29.972c-2.712,5.862 -5.027,11.911 -7.528,17.876c-1.033,2.463 -1.846,21.01 -2.33,27.661c-0.496,6.803 0.968,13.29 2.653,19.783c1.171,4.528 2.491,10.727 3.531,15.297c0.182,0.811 0.609,1.063 1.323,1.379c1.682,0.744 3.346,1.597 4.867,2.633c2.868,1.95 11.316,3.828 11.498,12.157c0.058,2.67 -4.233,3.859 -4.233,3.859l-16.059,0c0,0 -1.818,-0.439 -2.63,-1.235c-0.595,-0.586 -5.951,-5.43 -6.118,-5.943c-1.189,-3.599 -2.435,-7.192 -3.37,-10.864c-0.418,-1.643 -6.411,-13.028 -6.895,-15.91c-0.642,-3.83 -1.278,-7.666 -2.136,-11.45c-1.792,-7.92 -3.698,-15.816 -5.634,-23.7c-0.376,-1.54 -2.21,-2.838 -3.247,-2.896c-4.167,-0.227 -11.457,-2.105 -15.616,-2.466c-6.5,-0.568 -55.448,-10.663 -64.019,-14.76c-5.392,-2.576 -26.116,-3.921 -30.325,-2.214c-2.22,0.902 -9.959,22.78 -20.697,26.026c-12.097,3.658 -16.269,5.615 -25.697,14.574c-2.775,2.636 -4.932,5.943 -7.666,8.631c-2.679,2.636 -2.718,5.974 -3.148,9.266c-0.439,3.341 -0.696,6.703 -1.192,10.031c-0.544,3.635 0.648,6.347 3.713,8.233c1.213,0.747 6.87,4.932 7.358,5.607c6.081,8.407 -6.073,9.069 -6.073,9.069l-11.632,0.001c0,0 -1.984,-1.991 -2.266,-2.226c-1.798,-1.496 -2.419,-2.079 -2.461,-3.95c-0.042,-1.926 0.074,-3.857 0.015,-5.786c-0.23,-7.631 -0.395,-15.266 -0.81,-22.889c-0.164,-2.98 -0.911,-5.929 -1.434,-8.89c-1.06,-6.016 0.613,-11 5.327,-14.869c3.372,-2.763 6.022,-6.168 7.692,-10.21c0.777,-1.877 0.971,-4.036 1.234,-6.092c0.863,-6.7 1.539,-13.433 1.177,-20.187c-0.227,-4.273 -0.902,-8.528 -1.491,-12.774c-0.869,-6.238 -1.305,-12.451 0.123,-18.668c0.815,-3.529 2.402,-6.669 4.382,-9.645c4.111,-6.184 7.809,-12.616 11.018,-19.331c0.31,-0.641 0.236,-1.549 0.131,-2.305c-1.299,-9.442 -2.178,-18.917 -1.78,-28.46c0.313,-7.656 1.601,-15.151 4.499,-22.273c2.411,-5.922 5.715,-11.331 9.494,-16.436c2.276,-3.073 4.624,-6.089 6.96,-9.114c0.41,-0.525 0.902,-1.011 1.416,-1.436c1.395,-1.145 2.79,-0.839 3.328,0.895c0.445,1.431 0.61,2.965 0.759,4.471c0.191,1.865 -0.26,3.565 -1.162,5.266c-3.803,7.149 -6.767,14.644 -8.311,22.659c-1.234,6.423 -1.509,12.925 -0.553,19.391c0.619,4.182 1.751,8.285 2.614,12.434c0.171,0.82 13.506,2.101 19.586,2.572c9.452,0.729 18.907,1.449 28.365,2.108c9.386,0.656 18.77,1.387 28.165,1.794c9.219,0.401 18.423,-0.17 27.606,-1.05c11.385,-1.088 22.522,-3.508 33.584,-6.345c6.181,-1.588 11.152,-5.275 15.514,-9.882c5.302,-5.606 10.677,-11.146 15.815,-16.907c5.189,-5.804 10.289,-11.707 14.626,-18.246c1.273,-1.91 3.349,-2.758 5.425,-3.408c6.008,-1.873 12.102,-1.767 18.217,-0.616c6.883,1.297 13.064,4.309 18.755,8.346c2.865,2.028 5.727,4.166 7.442,7.419c0.361,0.689 0.636,1.494 0.69,2.265c0.191,2.652 1.425,4.541 3.746,5.677c4.672,2.289 9.371,4.525 14.038,6.824c1.729,0.856 3.459,1.734 5.093,2.76c3.113,1.962 4,4.355 2.635,7.799c-1.485,3.748 -3.17,7.417 -4.932,11.04c-1.135,2.332 -3.334,3.58 -5.548,4.668c-3.605,1.767 -7.486,2.599 -11.382,3.407c-1.705,0.355 -3.328,1.127 -4.994,1.704c-0.517,0.179 -1.07,0.279 -1.566,0.51c-2.022,0.935 -3.579,0.088 -4.986,-1.318c-1.042,-1.039 -2.076,-2.089 -3.071,-3.171c-0.75,-0.817 -1.58,-1.224 -2.712,-1.105c-1.449,0.149 -2.91,0.206 -4.365,0.231c-0.815,0.012 -1.15,0.31 -1.285,1.157c-0.755,4.744 -1.439,9.5 -2.416,14.195c-0.55,2.645 -1.437,5.263 -2.486,7.75c-1.604,3.784 -3.441,5.035 -8.182,3.386c-4.189,-1.46 -7.507,-4.65 -11.26,-6.976"/></svg>