<?xml version="1.0" encoding="UTF-8" standalone="no"?><!DOCTYPE svg PUBLIC "-//W3C//DTD SVG 1.1//EN" "http://www.w3.org/Graphics/SVG/1.1/DTD/svg11.dtd"><svg width="100%" height="100%" viewBox="0 0 308 237" version="1.1" xmlns="http://www.w3.org/2000/svg" xmlns:xlink="http://www.w3.org/1999/xlink" xml:space="preserve" xmlns:serif="http://www.serif.com/" style="fill-rule:evenodd;clip-rule:evenodd;stroke-linejoin:round;stroke-miterlimit:2;"><path id="_05B-CORGI" serif:id="05B-CORGI" d="M262.668,0.501c2.795,1.321 4.578,3.358 5.563,6.125c0.128,0.494 0.259,0.988 0.389,1.497c0.134,0.491 0.659,2.463 0.793,2.966c0.232,0.651 0.97,4.757 0.948,6.592c-0.004,0.538 -0.004,0.538 -0.004,1.081c-0.055,3.695 -0.198,7.612 -1.172,11.208c-0.438,1.651 -0.438,3.36 -0.194,5.039c0.88,0.98 0.88,0.98 2.108,1.569c0.711,0.643 1.412,1.298 2.108,1.96c0.392,0.345 0.392,0.345 0.792,0.699c0.889,0.793 1.737,1.603 2.58,2.438c0.38,0.358 0.38,0.358 0.764,0.726c2.055,2.313 2.053,4.691 2.017,7.577c0,2.136 3.588,6.74 3.832,6.815c2.171,0.666 22.541,8.999 24.159,11.156c0.549,2.91 -2.04,8.222 -2.068,8.49c-0.837,2.867 -14.822,13.594 -20.563,13.641c-3.17,0.088 -6.235,0.349 -9.355,0.907c-0.341,0.055 -4.966,1.356 -6.795,2.843c-0.56,1.483 -0.4,2.855 -0.29,4.412c0.028,0.418 0.028,0.418 0.057,0.847c0.141,1.826 0.388,3.615 0.681,5.427c1.279,9.054 0.07,17.015 -2.593,25.681c-0.406,1.341 -2.943,13.898 -3.098,17.748c-0.215,4.991 -7.105,21.01 -9.423,23.485c-0.24,0.255 -0.481,0.509 -0.725,0.772c-2.503,2.651 -5.141,5.174 -7.827,7.663c-0.814,0.752 -1.62,1.51 -2.424,2.27c-4.136,3.868 -14.363,10.176 -14.657,10.305c-1.049,0.468 -4.305,2.992 -4.358,3.464c-0.048,0.341 -1.232,8.057 -1.581,9.318c-0.553,2.281 -0.7,4.485 -0.737,6.813c-0.009,0.331 -0.018,0.66 -0.027,1.001c0.009,2.302 2.176,6.27 2.319,6.67c0.412,0 0.412,0 0.834,0.004c4.292,0.168 7.82,1.548 10.809,4.459c2.134,2.454 2.551,4.979 2.268,8.085c-0.856,1.032 -1.715,1.42 -3.03,1.812c-0.301,0.094 -0.604,0.188 -0.916,0.286c-3.444,0.789 -6.968,0.733 -10.492,0.742c-0.936,0.004 -1.869,0.016 -2.804,0.028c-11.313,0.078 -11.313,0.078 -14.964,-2.949c-2.543,-2.647 -3.945,-5.672 -5.408,-8.907c-1.085,-2.222 -2.011,-3.674 -4.119,-5.153c-3.102,-2.383 -7.023,-17.473 -7.166,-18.406c-0.283,0.027 -0.564,0.055 -0.86,0.082c-2.736,0.247 -9.028,0.429 -9.45,0.433c-14.905,0.141 -45.205,-4.287 -45.78,-4.412c-1.871,-0.4 -51.685,-16.631 -56.881,-16.102c-1.504,0.384 -2.828,0.913 -4.216,1.569c-0.7,0.267 -1.403,0.529 -2.107,0.784c-0,0.259 -0.62,1.352 -1.48,2.008c-1.847,1.462 -3.524,3.038 -5.214,4.658c-2.391,2.255 -4.738,4.203 -7.639,5.882c-0.48,0.341 -0.48,0.341 -0.974,0.686c-2.878,1.941 -5.871,2.77 -9.27,3.577c-4.674,1.117 -9.028,2.6 -11.616,6.576c-1.709,3.282 -1.919,5.839 -1.851,9.479c0.004,0.721 0.004,0.721 0.009,1.458c-0.027,2.486 -0.027,2.486 0.518,4.89c1.049,0.392 1.049,0.392 2.318,0.686c3.179,0.913 5.553,2.541 7.799,4.804c1.172,2.238 0.92,4.631 0.843,7.058c-0.696,0.259 -2.108,1.301 -2.108,1.569c-5.087,1.151 -9.969,1.27 -15.175,1.176c-0.477,-0.008 -0.949,-0.012 -1.438,-0.02c-3.364,-0.145 -6.846,-0.875 -9.463,-2.956c-1.324,-1.415 -3.183,-4.577 -3.271,-5.036c-0.114,-0.581 -0.233,-1.16 -0.345,-1.744c-0.055,-0.291 -0.114,-0.584 -0.173,-0.887c-0.297,-1.587 -0.297,-1.587 -0.907,-3.082c-0.079,-0.647 -0.239,-2.745 -0.274,-3.157c-0.029,-0.431 -0.064,-0.858 -0.097,-1.305c-0.439,-5.435 -0.907,-10.874 -2.659,-16.101c-0.865,-2.697 -1.734,-5.671 -0.425,-8.369c0.427,-0.729 0.875,-1.438 1.347,-2.145c1.682,-2.404 1.682,-2.404 2.025,-5.171c-0.944,-2.808 -2.455,-5.782 -4.402,-8.106c-0.758,-0.981 -1.032,-1.938 -1.39,-3.095c-0.549,-1.748 -1.126,-3.474 -1.763,-5.196c-1.893,-5.258 -2.137,-10.407 -2.163,-15.932c-0.013,-0.745 -0.013,-0.745 -0.026,-1.509c-0.02,-4.479 0.843,-8.521 2.661,-12.655c0.38,-0.913 0.755,-1.832 1.133,-2.745c0.325,-0.784 0.65,-1.568 0.975,-2.353c-0.468,0.26 -0.94,0.517 -1.425,0.785c-1.42,0.784 -1.42,0.784 -2.369,0.784c-1.059,-1.893 -0.957,-6.454 -0.957,-6.799c0.017,-5.707 2.511,-10.353 6.858,-14.377c5.192,-4.646 11.015,-7.05 18.159,-7.549c2.593,-0.199 4.727,-0.8 7.124,-1.768c1.751,-0.666 12.091,-2.89 13.578,-3.427c2.391,-0.805 4.902,-0.946 7.412,-1.189c1.888,-0.188 3.747,-0.47 5.613,-0.788c3.728,-0.552 7.373,-0.635 11.138,-0.639c0.602,-0 1.21,-0.005 1.814,-0.005c1.613,-0.002 3.227,-0.002 4.847,-0.002l3.013,0c9.017,0 18.012,0.113 27.022,0.442c0.468,0.016 0.935,0.033 1.416,0.051c3.818,0.145 7.638,0.292 11.452,0.582c3.651,0.257 7.302,0.261 10.959,0.27c1.228,0.004 2.451,0.016 3.678,0.028c5.88,0.031 10.85,-0.648 16.418,-2.484c1.947,-0.549 3.924,-0.861 5.93,-1.152c0.734,-0.114 12.824,-2.161 15.88,-2.922c1.054,-0.231 3.722,-1.33 4.229,-1.489c4.738,-1.663 8.817,-4.612 11.579,-8.545c0.237,-0.338 2.562,-3.913 3.266,-5.49c0.528,-1.177 2.703,-3.863 2.774,-4.203c0.375,-1.691 0.806,-3.24 1.585,-4.812c0.503,-1.028 0.953,-2.071 1.411,-3.117c0.967,-2.157 1.996,-4.264 3.247,-6.29c1.072,-1.808 1.696,-3.419 1.206,-5.499c-0.477,-0.968 -1.021,-1.893 -1.563,-2.83c-0.784,-1.577 -1.063,-3.17 -1.41,-4.868c-0.577,-2.638 -1.44,-5.211 -2.255,-7.791c-1.576,-5.082 -2.592,-9.973 -2.57,-15.259c-0,-0.819 -0.018,-1.638 -0.038,-2.459c-0.042,-4.536 0.674,-9.164 4.042,-12.673c1.585,-1.399 2.933,-1.717 5.059,-1.838c6.676,0.253 11.253,4.634 15.596,8.897c2.934,2.967 5.568,6.155 8.089,9.436c1.762,1.909 4.246,3.586 6.913,4.113c2.745,0.077 6.016,-0.315 8.137,-2.04c0.968,-1.036 5.732,-7.759 5.838,-8.254c0.582,-2.432 1.429,-4.769 2.296,-7.13c0.229,-0.651 0.229,-0.651 0.461,-1.313c1.825,-4.977 5.285,-12.058 12.106,-10.89Z" style="fill-rule:nonzero;"/></svg>