<?xml version="1.0" encoding="UTF-8" standalone="no"?><!DOCTYPE svg PUBLIC "-//W3C//DTD SVG 1.1//EN" "http://www.w3.org/Graphics/SVG/1.1/DTD/svg11.dtd"><svg width="100%" height="100%" viewBox="0 0 308 202" version="1.1" xmlns="http://www.w3.org/2000/svg" xmlns:xlink="http://www.w3.org/1999/xlink" xml:space="preserve" xmlns:serif="http://www.serif.com/" style="fill-rule:evenodd;clip-rule:evenodd;stroke-linejoin:round;stroke-miterlimit:2;"><path id="_05C-KOPOV" serif:id="05C-KOPOV" d="M274.59,3.466c7.834,3.75 10.287,6.577 10.287,11.856c0,2.404 3.028,4.683 10.452,7.885c5.755,2.471 11.063,5.125 11.792,5.894c1.87,1.971 -5.253,16.51 -9.703,19.798c-4.342,3.202 -13.352,3.49 -22.81,0.721c-9.512,-2.788 -15.121,-0.971 -15.121,4.894c0,2.558 -1.769,6.597 -3.94,8.952c-4.751,5.173 -4.906,5.731 -6.639,23.231c-2.089,21.173 -5.29,29.375 -15.769,40.423c-5.545,5.837 -8.673,21.433 -8.673,43.222c0,13.807 0.11,14.173 5.253,16.971c3.694,2.009 5.254,4.221 5.254,7.432c-0,4.395 -0.438,6.286 -11.41,6.286c-11.29,-0 -11.445,-1.786 -14.3,-8.103c-1.587,-3.509 -4.104,-6.634 -5.6,-6.933c-3.721,-0.759 -8.545,-21.586 -8.29,-35.788c0.201,-11.144 0.418,-22.252 -3.923,-20.993c-8.327,2.404 -39.123,1.974 -47.842,-6.824c-4.806,-4.856 -54.439,-8.808 -59.427,-6.789c-1.487,0.606 -5.746,5.798 -9.44,11.548c-9.612,14.923 -19.553,23.635 -36.197,31.75c-14.921,7.26 -20.838,11.183 -23.829,22.183c-1.459,5.356 9.599,6.38 10.843,12.191c1.205,5.63 -0.459,7.758 -10.843,7.758c-12.359,-0 -14.374,0.772 -14.374,-19.949c-0,-0 0.814,-16.244 2.248,-20.62c0.905,-2.761 6.36,-5.64 6.36,-5.64c11.665,-8.836 14.948,-17.442 13.699,-35.932c-0.849,-12.625 2.91,-24.86 2.91,-24.86c-0,0 -12.983,46.98 -16.609,52.844c-3.189,5.159 -5.145,-17.66 -5.145,-17.66c-0,0 6.696,-52.526 34.557,-62.834c24.971,-9.241 75.506,-11.375 103.432,-9.904c23.867,1.269 48.528,-1.192 59.809,-5.952c7.187,-3.029 19.362,-15.462 19.362,-19.769c0,-1.5 3.156,-6.75 7.004,-11.673c3.849,-4.914 7.005,-9.558 7.005,-10.308c-0,-0.76 3.119,-3.067 6.931,-5.115c8.846,-4.76 22.973,-4.837 32.686,-0.193"/></svg>