<?xml version="1.0" encoding="UTF-8" standalone="no"?><!DOCTYPE svg PUBLIC "-//W3C//DTD SVG 1.1//EN" "http://www.w3.org/Graphics/SVG/1.1/DTD/svg11.dtd"><svg width="100%" height="100%" viewBox="0 0 308 201" version="1.1" xmlns="http://www.w3.org/2000/svg" xmlns:xlink="http://www.w3.org/1999/xlink" xml:space="preserve" xmlns:serif="http://www.serif.com/" style="fill-rule:evenodd;clip-rule:evenodd;stroke-linejoin:round;stroke-miterlimit:2;"><path id="_05E-BASSET" serif:id="05E-BASSET" d="M266.843,0.55c3.854,0.478 8.202,2.061 9.645,3.538c1.444,1.466 4.458,3.315 6.696,4.101c3.416,1.211 3.973,2.603 3.507,8.67c-0.529,6.842 -0.182,7.352 6.458,9.657c14.195,4.941 15.145,6.173 13.866,18.052c-0.621,5.833 -2.165,13.355 -3.416,16.723c-1.251,3.368 -2.731,7.958 -3.279,10.2c-0.539,2.252 -5.125,6.991 -10.185,10.529l-9.189,6.438l-8.806,-3.888c-4.841,-2.146 -8.997,-3.9 -9.243,-3.9c-0.238,0 -0.439,1.839 -0.439,4.08c0,2.242 -0.858,4.08 -1.9,4.08c-1.151,0 -1.571,2.795 -1.059,7.161c0.447,3.931 0.118,7.661 -0.74,8.277c-0.859,0.616 -1.562,5.142 -1.562,10.062c-0,4.919 -0.786,9.509 -1.754,10.199c-0.968,0.691 -1.754,3.432 -1.754,6.099c0,2.656 -1.187,6.205 -2.63,7.894c-1.444,1.679 -2.631,4.069 -2.631,5.302c-0,1.243 -2.759,5.195 -6.138,8.808c-5.609,5.981 -6.139,7.532 -6.139,17.913c0,10.253 0.512,11.793 5.262,15.884c11.819,10.157 4.421,15.491 -19.648,14.141c-20.781,-1.169 -22.617,-2.741 -25.96,-22.312l-2.293,-13.387l-7.179,0.521c-3.946,0.287 -7.956,-0.021 -8.906,-0.691c-0.941,-0.669 -2.914,-1.434 -4.385,-1.689c-5.718,-1.009 -8.741,-2.04 -9.91,-3.4c-0.676,-0.786 -2.677,-1.424 -4.467,-1.424c-1.781,0 -4.604,-0.882 -6.284,-1.965c-4.147,-2.667 -21.238,-11.602 -27.138,-14.174c-5.326,-2.337 -5.189,-2.443 -13.629,11.518c-5.453,9.02 -15.747,17.796 -23.548,20.07c-2.521,0.733 -5.727,3.251 -7.143,5.599c-2.311,3.835 -2.192,4.707 1.142,8.84c7.682,9.509 -1.252,14.396 -22.672,12.399c-13.436,-1.254 -16.158,-4.07 -16.158,-16.681c-0,-11.39 2.667,-21.218 7.408,-27.274l3.991,-5.1l-5.261,4.399c-6.942,5.78 -29.887,10.115 -33.76,6.364c-0.238,-0.234 -1.032,-0.574 -1.754,-0.754c-2.329,-0.574 -9.947,-5.854 -12.14,-8.394c-1.169,-1.36 -1.699,-4.356 -1.178,-6.651c0.978,-4.377 6.047,-7.384 16.387,-9.743c7.6,-1.721 18.881,-8.138 24.096,-13.695c2.165,-2.305 5.563,-9.318 7.564,-15.586c4.019,-12.591 14.742,-26.934 24.461,-32.724c12.012,-7.161 23.631,-8.521 60.506,-7.045c41.122,1.637 55.975,-0.403 68.123,-9.36c9.08,-6.704 25.01,-28.984 26.645,-37.261c1.279,-6.555 15.181,-19.847 20.799,-19.889c2.028,-0.011 5.271,-0.33 7.198,-0.712c1.927,-0.382 6.668,-0.297 10.523,0.181"/></svg>