<?xml version="1.0" encoding="UTF-8" standalone="no"?><!DOCTYPE svg PUBLIC "-//W3C//DTD SVG 1.1//EN" "http://www.w3.org/Graphics/SVG/1.1/DTD/svg11.dtd"><svg width="100%" height="100%" viewBox="0 0 308 237" version="1.1" xmlns="http://www.w3.org/2000/svg" xmlns:xlink="http://www.w3.org/1999/xlink" xml:space="preserve" xmlns:serif="http://www.serif.com/" style="fill-rule:evenodd;clip-rule:evenodd;stroke-linejoin:round;stroke-miterlimit:2;"><path id="_05G-BLOODHOUND" serif:id="05G-BLOODHOUND" d="M86.864,2.65c2.248,-0.738 6.612,-2.919 7.151,-1.715c0.812,1.811 -2.32,2.569 -3.763,3.543c-3.136,2.117 -6.436,4.055 -9.707,6.018c-2.427,1.458 -4.911,2.846 -7.378,4.253c-0.485,0.277 -1.019,0.488 -1.512,0.755c-3.26,1.771 -6.644,3.394 -9.743,5.355c-8.033,5.082 -13.019,12.281 -17.554,19.689c-2.303,3.763 -3.868,7.81 -4.305,12.138c-0.397,3.937 -0.492,7.796 1.429,11.515c0.949,1.837 1.523,3.835 2.634,5.586c1.433,2.256 2.858,4.679 4.969,6.41c2.908,2.386 6.593,3.931 10.724,4.382c1.19,0.129 44.444,-0.14 50.559,0.985c8.997,1.655 68.364,-4.727 87.655,-16.179c2.369,-1.406 8.794,-9.116 10.004,-11.163c2.931,-4.961 7.088,-9.285 9.281,-14.662c3.759,-9.218 18.327,-18.716 23.303,-18.896c9.455,-0.343 18.725,0.728 27.679,3.373c4.875,1.439 9.052,4.021 11.577,7.915c1.667,2.571 2.195,7.169 5.423,7.712c0.482,0.081 13.714,1.572 20.168,5.641c2.427,1.529 2.387,2.967 1.089,5.461c-0.69,1.326 -6.116,23.325 -15.598,29.542c-4.449,2.917 -10.054,0.772 -16.95,-2.695c-0.712,-0.358 -1.046,0.341 -0.954,0.941c0.28,1.834 0.682,3.659 0.841,5.501c0.118,1.361 5.937,19.979 -2.48,21.673c-8.42,1.695 -14.425,-2.862 -15.723,-2.129c-2.82,1.592 2.617,17.134 -0.173,23.549c-4.023,9.249 -16.528,15.684 -23.084,21.127c-0.475,0.395 -13.184,16.593 -13.389,17.286c-0.764,2.583 -1.604,5.183 -1.924,7.821c-0.603,4.955 -1.045,9.936 -1.223,14.915c-0.26,7.268 0.35,26.918 1.478,29.374c0.877,1.907 2.169,2.562 4.459,2.315c1.778,-0.193 9.204,3.024 11.224,4.103c2.191,1.172 3.598,3.841 3.42,7.297c-0.167,3.252 -6.836,5.414 -6.836,5.414l-19.758,0c-0,0 -2.519,-2.939 -3.27,-3.975c-2.239,-3.087 -4.296,-6.243 -5.562,-9.762c-0.996,-2.768 -4.073,-9.08 -4.532,-9.246c-2.718,-0.977 -3.952,-2.842 -3.979,-5.416c-0.054,-5.294 -1.342,-20.39 -1.578,-22.66c-0.583,-5.603 -1.57,-11.151 -3.55,-16.508c-1.37,-3.706 -3.722,-7.034 -4.605,-7.109c-3.029,-0.258 -24.026,-2.372 -31.479,-3.285c-8.92,-1.095 -17.798,-2.316 -26.387,-4.84c-4.315,-1.268 -15.054,-6.673 -19.471,-7.681c-8.34,-1.904 -9.055,-5.659 -17.651,-5.677c-0.998,-0.003 -7.176,10.005 -8.318,11.081c-2.634,2.478 -4.942,5.245 -7.784,7.52c-4.622,3.702 -9.552,7.12 -14.38,10.629c-3.357,2.439 -6.71,4.886 -10.159,7.226c-2.496,1.693 -5.176,3.181 -7.72,4.823c-3.116,2.012 -6.426,3.865 -9.205,6.186c-4.556,3.805 -8.083,8.263 -9.597,13.73c-0.863,3.117 -2.113,6.163 -2.795,9.303c-0.623,2.876 -0.912,5.835 0.111,8.746c0.237,0.676 0.595,1.028 1.448,1.132c1.634,0.198 5.211,2.642 5.705,3.034c2.401,1.909 5.21,6.651 3.391,9.575c-1.338,2.15 -7.662,3.174 -7.662,3.174l-9.253,0c0,0 -2.438,-0.359 -3.559,-0.786c-1.261,-0.482 -2.409,-1.185 -3.606,-1.792c-1.359,-0.688 -2.148,-1.724 -2.475,-3.037c-1.323,-5.299 -1.634,-10.682 -1.613,-16.06c0.014,-3.365 0.605,-6.732 0.555,-10.096c-0.061,-4.021 -0.407,-8.038 -0.543,-12.059c-0.063,-1.823 0.077,-3.655 1.435,-5.205c2.351,-2.682 4.903,-5.252 7.017,-8.067c2.087,-2.779 4.237,-5.654 5.468,-8.751c2.058,-5.179 3.931,-10.442 4.93,-15.9c0.757,-4.134 1.393,-8.264 1.353,-12.451c-0.019,-2.047 -0.192,-4.094 -0.293,-6.142c-0.057,-1.156 -0.033,-2.32 -0.176,-3.469c-0.562,-4.553 -0.961,-9.123 0.108,-13.64c1.246,-5.27 2.979,-10.425 5.772,-15.275c1.316,-2.284 2.361,-4.7 3.863,-6.885c1.822,-2.65 3.977,-5.132 6.037,-7.657c0.492,-0.603 0.457,-1.021 0.022,-1.654c-2.008,-2.928 -4.017,-5.861 -5.864,-8.865c-3.599,-5.853 -5.021,-12.217 -5.529,-18.752c-0.307,-3.927 0.223,-7.786 1.621,-11.56c0.805,-2.169 1.183,-4.469 2.143,-6.579c1.356,-2.977 3.214,-5.782 4.605,-8.749c2.281,-4.864 6.537,-8.411 10.715,-11.928c2.721,-2.291 6.109,-4.002 9.248,-5.913c5.514,-3.355 11.789,-5.381 17.99,-7.518c5.326,-1.835 10.684,-3.602 16.045,-5.36Z" style="fill-rule:nonzero;"/></svg>