<?xml version="1.0" encoding="UTF-8" standalone="no"?><!DOCTYPE svg PUBLIC "-//W3C//DTD SVG 1.1//EN" "http://www.w3.org/Graphics/SVG/1.1/DTD/svg11.dtd"><svg width="100%" height="100%" viewBox="0 0 308 202" version="1.1" xmlns="http://www.w3.org/2000/svg" xmlns:xlink="http://www.w3.org/1999/xlink" xml:space="preserve" xmlns:serif="http://www.serif.com/" style="fill-rule:evenodd;clip-rule:evenodd;stroke-linejoin:round;stroke-miterlimit:2;"><path id="_05A-DACHSHUND" serif:id="05A-DACHSHUND" d="M219.466,201.153c-3.831,-0.329 -5.846,-3.158 -7.769,-6.883c-2.015,-3.91 -4.798,-7.296 -7.426,-10.711c-3.188,-4.136 -5.156,-8.751 -5.162,-14.474c-0.008,-5.943 -0.135,-11.882 -0.205,-17.825c-0.012,-0.999 -11.185,-13.661 -16.842,-11.593c-24.582,8.987 -92.642,-6.707 -92.688,-6.539c-4.213,15.528 -33.561,20.086 -40.388,27.847c-3.789,4.307 -0.449,12.534 -0.574,18.716c-0.06,2.948 1.715,7.29 3.466,8.878c3.126,2.836 6.927,2.738 6.856,9.884c-0.017,1.804 -4.944,2.7 -4.944,2.7l-10.732,-0c0,-0 -8.194,-5.23 -7.517,-11.925c1.006,-9.938 -0.146,-19.631 -1.667,-29.32c-0.936,-5.975 -0.287,-7.742 4.057,-10.287c7.5,-4.391 8.861,-17.951 6.984,-20.39c-1.876,-2.44 -11.982,6.294 -18.242,5.756c-13.349,-1.148 -18.557,-6.845 -24.835,-22.989c-0.716,-1.839 -1.5,-5.074 -1.497,-5.877c0.004,-1.051 2.221,0.565 2.819,1.325c5.565,7.071 10.651,14.1 18.158,17.802c14.158,6.983 16.756,-2.567 23.689,-18.811c1.66,-3.886 3.452,-7.691 5.143,-11.558c5.912,-13.51 15.65,-20.233 27.896,-23.092c11.971,-2.796 23.924,-1.688 35.891,-0.745c19.778,1.56 39.553,2.866 59.346,0.703c5.338,-0.582 10.664,-1.637 15.924,-2.897c9.367,-2.242 16.835,-8.235 22.238,-17.568c3.085,-5.33 9.669,-19.859 9.989,-21.559c1.359,-7.221 4.143,-13.559 8.107,-19.206c5.871,-8.361 13.707,-10.461 22.335,-9.774c8.251,0.656 16.065,3.392 23.604,7.399c2.464,1.311 4.343,3.263 4.835,6.332c1.53,9.584 7.105,13.859 14.347,16.134c3.311,1.038 6.597,2.216 9.94,3.099c2.206,0.582 3.091,2.081 2.757,4.561c-0.666,4.96 -2.046,9.379 -5.682,12.616c-4.975,4.431 -10.319,6.997 -16.622,6.962c-6.701,-0.039 -21.812,0.204 -22.37,0.815c-2.071,2.269 6.383,15.257 -10.809,13.086c-5.579,-0.704 0.578,11.056 0.666,16.33c0.09,5.197 0.33,10.389 0.527,15.584c0.685,18.127 -6.337,20.251 -18.248,31.328c-4.774,4.438 -8.92,20.513 -13.936,24.593c-0.73,0.594 -1.435,1.972 -1.427,2.983c0.031,4.636 0.139,9.297 0.605,13.896c0.166,1.644 1.166,3.451 2.224,4.624c2.045,2.266 4.591,3.903 6.572,6.234c1.832,2.151 5.654,1.064 5.962,7.395c0.293,6.013 -5.548,6.315 -5.997,6.441l-9.358,-0Z" style="fill-rule:nonzero;"/></svg>