<?xml version="1.0" encoding="UTF-8" standalone="no"?><!DOCTYPE svg PUBLIC "-//W3C//DTD SVG 1.1//EN" "http://www.w3.org/Graphics/SVG/1.1/DTD/svg11.dtd"><svg width="100%" height="100%" viewBox="0 0 308 202" version="1.1" xmlns="http://www.w3.org/2000/svg" xmlns:xlink="http://www.w3.org/1999/xlink" xml:space="preserve" xmlns:serif="http://www.serif.com/" style="fill-rule:evenodd;clip-rule:evenodd;stroke-linejoin:round;stroke-miterlimit:2;"><path id="_05D-BASSET" serif:id="05D-BASSET" d="M267.081,2.194c7.107,2.051 10.24,4.921 13.621,12.46c2.34,5.237 6.027,8.456 14.92,13.005c6.495,3.328 11.805,7.06 11.805,8.281c0,1.222 -2.053,5.936 -4.556,10.475c-3.476,6.273 -6.39,8.804 -12.235,10.605c-4.222,1.298 -9.59,1.811 -11.94,1.134l-8.606,-2.454c-6.371,-1.823 -6.973,2.727 -2.904,22.17c1.958,9.372 3.563,18.755 3.563,20.861c0,6.753 -5.96,12.754 -13.41,13.507c-6.113,0.611 -7.451,1.767 -10.717,9.307c-3.573,8.259 -8.071,13.507 -22.151,25.858c-4.575,4.004 -7.01,8.324 -8.491,15.067c-3.582,16.235 -2.818,21.701 3.534,25.454c4.098,2.423 5.464,4.561 5.043,7.911c-0.506,4.037 -1.846,5.64 -11.27,5.64c-11.25,0 -15.894,-2.051 -15.894,-8.488c-0,-2.073 -1.319,-5.292 -2.933,-7.125c-1.7,-1.953 -3.333,-8.477 -3.897,-15.624l-0.974,-12.274l-10.727,-1.386c-13.515,-1.745 -24.824,-5.553 -50.241,-16.9c-30.46,-13.595 -30.202,-13.584 -39.687,-1.986c-4.461,5.434 -13.373,12.864 -20.145,16.77c-13.296,7.659 -14.442,9.492 -14.442,22.956c0,7.19 0.755,9.383 3.573,10.408c3.839,1.386 6.562,8.074 4.689,11.533c-0.63,1.167 -6.065,2.116 -12.082,2.116c-13.086,0 -13.411,-0.589 -15.14,-27.232c-1.012,-15.592 -0.707,-18.592 2.474,-24.091c1.987,-3.458 3.572,-9.11 3.506,-12.569c-0.096,-5.477 -0.449,-5.03 -2.761,3.546c-4.871,18.09 -21.73,31.783 -34.596,28.095c-5.463,-1.571 -4.623,-5.455 1.175,-5.455c6.075,-0 15.053,-7.518 19.275,-16.137c2.149,-4.375 4.805,-15.319 5.894,-24.32c5.033,-41.514 20.545,-56.233 59.755,-56.68c10.086,-0.12 33.602,0.622 52.266,1.636c29.906,1.626 35.236,1.419 44.931,-1.789c18.244,-6.022 21.453,-9.328 30.193,-30.997c8.787,-21.777 13,-28.073 21.558,-32.24c6.008,-2.924 19.753,-3.437 28.024,-1.048"/></svg>