<?xml version="1.0" encoding="UTF-8" standalone="no"?><!DOCTYPE svg PUBLIC "-//W3C//DTD SVG 1.1//EN" "http://www.w3.org/Graphics/SVG/1.1/DTD/svg11.dtd"><svg width="100%" height="100%" viewBox="0 0 308 237" version="1.1" xmlns="http://www.w3.org/2000/svg" xmlns:xlink="http://www.w3.org/1999/xlink" xml:space="preserve" xmlns:serif="http://www.serif.com/" style="fill-rule:evenodd;clip-rule:evenodd;stroke-linejoin:round;stroke-miterlimit:2;"><path id="_08F-RITCHBACK" serif:id="08F-RITCHBACK" d="M270.533,2.992c-17.843,-6.216 -25.991,-3.303 -40.982,14.693c-6.215,7.457 -13.223,16.675 -15.562,20.469c-6.998,11.36 -12.188,14.953 -30.64,21.229l-17.581,5.975l-43.66,-0.54c0,-0 -34.447,-1.373 -43.65,-0.541c-4.232,0.383 -11.57,5.535 -11.57,5.535c-19.65,9.399 -33.897,29.747 -33.897,48.404c0,7.797 -5.993,23.541 -11.666,30.678c-3.093,3.883 -9.386,8.738 -13.987,10.77c-6.234,2.772 -7.829,4.273 -6.263,5.895c3.122,3.223 15.745,-1.231 23.517,-8.298c7.78,-7.066 15.136,-22.38 16.982,-35.332c1.363,-9.598 1.363,-9.608 2.706,-3.082c1.673,8.127 -0.618,25.693 -4.678,35.802c-1.682,4.204 -7.133,11.961 -12.101,17.246l-9.037,9.608l-1.315,24.502c-0.976,18.397 -0.735,25.233 0.996,27.385c2.938,3.673 17.33,3.844 20.22,0.24c2.774,-3.453 0.822,-8.427 -3.924,-9.979c-3.393,-1.121 -3.683,-2.392 -2.803,-12.441c1.372,-15.704 6.659,-24.082 22.965,-36.433c17.65,-13.362 30.486,-27.354 36.643,-39.936c4.707,-9.629 5.801,-17.055 11.6,-16.625c11.645,0.864 35.558,9.769 52.367,17.996c13.145,6.436 23.767,10.28 31.007,11.211l11.009,1.421l1.247,11.7c0.686,6.426 1.585,20.419 2.001,31.098c0.406,10.68 1.682,20.579 2.832,22.01c1.14,1.422 2.89,6.356 3.895,10.97c0.996,4.604 2.919,9.088 4.272,9.979c3.731,2.452 19.793,1.982 23.379,-0.73c2.909,-2.202 4.979,-3.17 2.302,-7.134c-1.614,-2.382 -6.243,-5.367 -7.606,-5.367c-3.712,-0 -7.269,-3.073 -7.269,-19.508c0,-19.918 4.891,-49.235 9.879,-59.164c3.354,-6.646 6.746,-13.272 10.178,-19.868c4.223,-8.127 6.669,-16.094 7.829,-25.573c3.141,-25.543 11.26,-49.254 16.895,-49.294c1.653,-0.01 5.935,1.241 9.492,2.782c12.807,5.535 27.45,-1.541 30.224,-14.613c1.45,-6.806 2.513,-5.635 -10.864,-11.881c-5.944,-2.782 -10.313,-5.875 -9.714,-6.876c1.895,-3.183 -7.007,-11.36 -15.668,-14.383Z"/></svg>