<?xml version="1.0" encoding="UTF-8" standalone="no"?><!DOCTYPE svg PUBLIC "-//W3C//DTD SVG 1.1//EN" "http://www.w3.org/Graphics/SVG/1.1/DTD/svg11.dtd"><svg width="100%" height="100%" viewBox="0 0 308 237" version="1.1" xmlns="http://www.w3.org/2000/svg" xmlns:xlink="http://www.w3.org/1999/xlink" xml:space="preserve" xmlns:serif="http://www.serif.com/" style="fill-rule:evenodd;clip-rule:evenodd;stroke-linejoin:round;stroke-miterlimit:2;"><path id="_09B-COKERSPANIEL" serif:id="09B-COKERSPANIEL" d="M55.498,202.675c4.806,-1.433 9.022,-2.189 12.91,-3.849c26.195,-11.185 30.605,-30.557 35.625,-32.7c2.302,-0.987 4.282,-3.51 5.702,-5.804c2.62,-4.212 6.078,-5.069 10.225,-3.482c2.382,0.912 21.985,10.9 22.95,11.962c5.404,5.934 30.67,13.597 33.179,14.359c3.749,1.129 5.181,3.336 5.334,7.094c0.192,4.71 1.486,9.43 1.015,14.094c-2.281,22.586 26.132,32.244 26.132,32.244l26.834,0c-0,0 11.296,-1.062 11.296,-14.135c0,-7.587 0.192,-12.527 -6.15,-16.388c-0.654,-0.398 -1.317,-0.789 -1.983,-1.164c-7.05,-3.936 -6.993,-4.45 -3.163,-11.879c1.221,-2.373 0.991,-5.563 1.348,-8.382c0.072,-0.592 -0.51,-1.409 -0.284,-1.812c4.079,-7.26 2.068,-16.589 7.958,-23.415c2.872,-3.332 4.254,-8.034 6.28,-12.136c0.816,-1.658 1.452,-3.415 2.332,-5.037c3.903,-7.17 6.001,-14.434 4.132,-22.945c-1.145,-5.204 -0.367,-10.853 -0.578,-16.293c-0.065,-1.682 -0.544,-3.348 -1.03,-6.155c8.528,7.292 16.562,2.811 24.076,-0.055c6.426,-2.456 7.272,-9.669 7.942,-15.891c0.632,-5.807 -0.938,-11.172 -5.265,-15.444c-1.593,-1.571 -2.788,-3.577 -4.63,-5.997c5.472,-1.836 10.129,-3.573 14.885,-4.95c13.679,-3.972 17.244,-15.855 13.809,-28.619c-0.452,-1.674 -3.381,-3.237 -5.419,-3.73c-3.373,-0.818 -7.015,-0.403 -10.416,-1.141c-1.65,-0.36 -4.136,-2.01 -4.3,-3.325c-0.751,-6.107 -4.825,-9.013 -9.18,-12.092c-4.832,-3.419 -10.086,-5.251 -15.831,-5.235c-15.03,0.032 -27.484,5.523 -35.353,19.329c-4.385,7.698 -8.464,15.63 -12.09,23.735c-5.139,11.488 -12.802,18.697 -25.026,22.613c-13.855,4.438 -27.469,7.158 -42.017,7.174c-24.895,0.027 -49.408,3.873 -73.53,10.501c-11.002,3.024 -21.866,6.321 -32.32,1.09c-2.203,-1.102 -20.031,-16.698 -33.474,-30.3c-4.507,-4.561 -6.125,-3.632 -6.414,-2.982c-5.446,12.207 35.599,56.598 48.676,59.78c-2.853,6.06 -2.888,15.022 -8.788,18.231c-11.321,6.159 -22.552,26.763 -23.54,31.035c-0.873,3.774 -2.612,7.513 -4.703,10.762c-1.976,3.067 -8.428,20.402 -8.287,24.106c0.096,2.514 -1.007,5.057 -1.451,7.615c-0.337,1.954 -0.858,3.987 -0.632,5.902c0.559,4.655 1.279,9.321 2.351,13.877c1.823,7.785 19.533,13.752 19.533,13.752l31.33,0c0,0 5.16,0.065 6.498,-3.022c2.836,-6.541 2.306,-20.007 -3.951,-27.453c-0.678,-0.81 -1.26,-1.702 -2.547,-3.443" style="fill-rule:nonzero;"/></svg>