<?xml version="1.0" encoding="UTF-8" standalone="no"?><!DOCTYPE svg PUBLIC "-//W3C//DTD SVG 1.1//EN" "http://www.w3.org/Graphics/SVG/1.1/DTD/svg11.dtd"><svg width="100%" height="100%" viewBox="0 0 308 237" version="1.1" xmlns="http://www.w3.org/2000/svg" xmlns:xlink="http://www.w3.org/1999/xlink" xml:space="preserve" xmlns:serif="http://www.serif.com/" style="fill-rule:evenodd;clip-rule:evenodd;stroke-linejoin:round;stroke-miterlimit:2;"><path id="_06B-WEIMARANER" serif:id="06B-WEIMARANER" d="M272.928,3.172c-3.478,-1.567 -11.632,-2.872 -18.144,-2.914c-14.625,-0.105 -18.335,2.601 -32.668,23.794c-13.134,19.418 -14.646,20.776 -31.015,27.952c-15.906,6.978 -31.923,9.788 -70.397,12.357c-17.881,1.191 -33.595,3.447 -42.778,6.142c-23.183,6.79 -32.225,6.978 -51.668,1.045c-18.023,-5.495 -25.744,-6.456 -25.744,-3.218c0,2.601 15.261,10.425 30.965,15.877c6.915,2.392 13.698,4.764 15.069,5.255c1.945,0.699 1.804,2.256 -0.655,7.186c-1.734,3.457 -3.972,15.376 -4.98,26.479c-1.008,11.104 -3.406,23.857 -5.332,28.338c-3.245,7.542 -16.399,22.03 -24.04,26.459c-2.469,1.431 -4.032,7.834 -6.431,26.259c-1.743,13.402 -2.691,25.654 -2.116,27.221c0.632,1.705 0.984,5.071 3.512,5.071c4.047,0 14.382,0 21.757,0c2.921,0 2.396,-1.992 2.336,-3.149c-0.449,-8.639 -5.796,-9.6 -8.561,-11.97c-3.494,-2.996 -5.315,-3.26 -3.521,-11.585c1.835,-8.523 7.71,-23.084 10.371,-23.084c0.676,0 20.24,-3.938 41.589,-22.269c4.99,-4.272 11.572,-13.182 16.138,-21.821c13.144,-24.839 20.119,-25.434 60.014,-5.066c11.713,5.975 25.633,11.605 30.945,12.503l12.065,1.64l1.462,9.986c0.796,5.494 1.673,19.22 1.945,30.511c0.313,12.712 0.588,21.476 1.918,22.009c1.179,0.47 2.144,4.717 2.829,8.947c1.14,7.07 -0.109,13.348 3.44,13.348c10.617,0 12.604,0 15.611,0c8.483,0 13.228,0.497 12.663,-5.071c-0.319,-3.132 -3.106,-6.538 -9.353,-8.277c-5.107,-1.421 -7.584,-10.493 -5.144,-36.283c2.772,-29.205 6.219,-43.035 12.438,-49.908c2.691,-2.967 7.6,-11.02 10.906,-17.872c4.708,-9.777 6.038,-15.219 6.159,-25.069c0.232,-18.771 3.629,-30.24 9.374,-31.629c3.165,-0.762 5.413,-3.384 6.945,-8.095l2.258,-6.967l14.545,-0.272c17.508,-0.334 21.58,-2.329 26.933,-13.192c3.921,-7.97 3.951,-8.43 0.605,-10.968c-1.926,-1.452 -4.415,-2.653 -5.544,-2.653c-7.469,-0.042 -16.924,-4.732 -18.577,-9.223c-1.008,-2.748 -4.667,-6.268 -8.124,-7.824Z"/></svg>