<?xml version="1.0" encoding="UTF-8" standalone="no"?><!DOCTYPE svg PUBLIC "-//W3C//DTD SVG 1.1//EN" "http://www.w3.org/Graphics/SVG/1.1/DTD/svg11.dtd"><svg width="100%" height="100%" viewBox="0 0 307 237" version="1.1" xmlns="http://www.w3.org/2000/svg" xmlns:xlink="http://www.w3.org/1999/xlink" xml:space="preserve" xmlns:serif="http://www.serif.com/" style="fill-rule:evenodd;clip-rule:evenodd;stroke-linejoin:round;stroke-miterlimit:2;"><path id="_06D-POINTER2" serif:id="06D-POINTER2" d="M273.313,3.555c3.604,2.095 7.112,6.304 9.032,10.859c2.464,5.857 5.446,8.775 13.891,13.605c6.296,3.6 10.743,7.382 10.725,9.141c-0.053,5.694 -7.673,18.628 -12.575,21.353c-4.017,2.237 -6.183,2.308 -11.734,0.376c-14.18,-4.921 -13.82,-4.962 -14.995,1.84c-0.597,3.447 -1.079,11.459 -1.079,17.804c-0,14.012 1.609,24.484 -8.954,26.894c-3.523,0.804 -4.2,3.468 -4.867,11.531c-0.806,9.69 -7.647,24.22 -16.521,35.12c-5.358,6.568 -8.463,21.708 -9.497,46.213l-0.895,21.474l5.209,3.325c5.63,3.589 7.007,10.107 2.552,12.08c-1.464,0.661 -6.384,1.189 -10.944,1.189c-8.217,0 -9.366,-0.742 -16.355,-10.615c-5.639,-7.962 -8.471,-23.285 -8.647,-46.722c-0.096,-12.628 -0.517,-14.987 -2.376,-13.197c-1.237,1.189 -2.71,1.647 -3.254,1.016c-0.552,-0.64 -3.516,-1.443 -6.585,-1.799c-3.07,-0.346 -33.131,-10.402 -36.499,-12.456c-19.424,-11.846 -29.78,-14.581 -37.375,-9.873c-1.789,1.118 -4.876,5.724 -6.866,10.249c-5.043,11.5 -15.776,22.807 -31.807,33.534c-11.374,7.605 -14.233,10.534 -16.89,17.306c-4.332,11.083 -4.069,15.058 1.368,20.152c6.823,6.386 3.719,11.236 -7.699,12.019c-14.698,0.996 -15.452,-0.214 -15.452,-24.993l0,-21.342l5.893,-6.833c3.245,-3.762 5.893,-7.372 5.893,-8.033c0,-0.661 -2.648,0.692 -5.893,3.02c-3.244,2.318 -5.893,3.732 -5.893,3.132c0,-0.6 -2.078,-0.163 -4.63,0.976c-6.209,2.756 -21.169,0.427 -25.536,-3.965c-6.692,-6.732 -3.841,-11.887 7.997,-14.49c13.216,-2.908 21.573,-15.343 26.984,-40.153c5.559,-25.501 14.215,-39.309 30.771,-49.1c13.672,-8.084 26.317,-9.68 66.315,-8.328c31.938,1.068 38.936,0.763 50.511,-2.206c7.393,-1.902 15.329,-4.596 17.644,-5.999c5.998,-3.63 17.118,-17.652 23.941,-30.189c3.209,-5.907 9.348,-14.469 13.645,-19.034c7.112,-7.565 8.576,-8.297 16.679,-8.297c5.078,-0 11.4,1.464 14.768,3.416"/></svg>