<?xml version="1.0" encoding="UTF-8" standalone="no"?><!DOCTYPE svg PUBLIC "-//W3C//DTD SVG 1.1//EN" "http://www.w3.org/Graphics/SVG/1.1/DTD/svg11.dtd"><svg width="100%" height="100%" viewBox="0 0 307 237" version="1.1" xmlns="http://www.w3.org/2000/svg" xmlns:xlink="http://www.w3.org/1999/xlink" xml:space="preserve" xmlns:serif="http://www.serif.com/" style="fill-rule:evenodd;clip-rule:evenodd;stroke-linejoin:round;stroke-miterlimit:2;"><path id="_06C-POINTER" serif:id="06C-POINTER" d="M268.716,3.503c3.052,1.534 7.083,5.836 8.959,9.553c2.65,5.22 6.234,7.987 15.827,12.202c6.822,2.994 12.683,6.43 13.028,7.63c1.055,3.653 -9.995,19.551 -15.183,21.863c-2.679,1.189 -7.69,1.535 -11.143,0.768c-3.453,-0.778 -8.623,-1.913 -11.488,-2.529c-6.309,-1.362 -10.004,3.361 -10.023,12.807c-0.018,9.424 -3.313,21.442 -6.999,25.548c-1.922,2.14 -3.77,8.29 -4.517,15.033c-1.446,13.207 -6.252,26.824 -12.468,35.384c-8.371,11.521 -14.325,45.359 -12.299,69.848c0.755,9.046 1.465,10.505 6.168,12.558c4.106,1.794 5.18,3.416 4.732,7.112c-0.514,4.204 -1.727,4.863 -9.911,5.414c-9.239,0.616 -9.379,0.541 -14.241,-8.3c-5.17,-9.424 -9.388,-35.87 -9.519,-59.819l-0.065,-11.456l-13.457,-2.485c-7.401,-1.362 -22.631,-6.679 -33.839,-11.813c-35.183,-16.114 -47.566,-16.081 -55.769,0.141c-6.962,13.757 -16.024,24.759 -30.871,37.501c-13.159,11.305 -18.553,19.951 -20.746,33.276c-0.859,5.188 -0.271,7.62 2.594,10.7c6.104,6.581 3.78,11.531 -5.767,12.244c-11.908,0.897 -12.804,-1.199 -11.292,-26.607c1.241,-20.902 1.353,-21.291 8.455,-30.791c10.881,-14.547 13.373,-22.998 14.064,-47.671l0.597,-21.442l-8.502,21.139c-4.675,11.618 -10.946,24.695 -13.923,29.061c-5.926,8.657 -18.096,16.557 -25.515,16.557c-7.783,0 -7.139,-3.393 1.354,-7.154c11.366,-5.026 21.1,-18.74 27.838,-39.231c7.447,-22.631 15.967,-37.232 25.477,-43.695c16.452,-11.164 20.857,-12.039 69.422,-13.79c60.435,-2.183 72.726,-5.836 81.694,-24.273c11.423,-23.485 24.348,-44.332 28.669,-46.234c6.476,-2.853 22.154,-2.324 28.659,0.951"/></svg>