<?xml version="1.0" encoding="UTF-8" standalone="no"?><!DOCTYPE svg PUBLIC "-//W3C//DTD SVG 1.1//EN" "http://www.w3.org/Graphics/SVG/1.1/DTD/svg11.dtd"><svg width="100%" height="100%" viewBox="0 0 270 237" version="1.1" xmlns="http://www.w3.org/2000/svg" xmlns:xlink="http://www.w3.org/1999/xlink" xml:space="preserve" xmlns:serif="http://www.serif.com/" style="fill-rule:evenodd;clip-rule:evenodd;stroke-linejoin:round;stroke-miterlimit:2;"><path id="_09D-POODLE" serif:id="09D-POODLE" d="M241.37,3.094c-8.103,-4.152 -25.542,-3.035 -37.702,2.413c-8.472,3.793 -9.747,5.353 -14.847,18.071c-8.799,21.949 -11.507,26.743 -19.062,33.708c-5.121,4.742 -10.221,9.515 -15.289,14.331c-4.521,4.289 -10.4,8.64 -13.066,9.663c-2.677,1.011 -19.083,1.654 -36.459,1.433c-20.99,-0.274 -33.561,0.4 -37.449,2.023c-4.931,2.065 -6.438,1.907 -9.61,-0.959c-3.667,-3.319 -3.667,-3.477 0.127,-6.143c6.069,-4.247 9.02,-15.479 6.259,-23.846c-3.393,-10.284 -14.594,-19.336 -23.877,-19.293c-8.599,0.031 -10.021,0.811 -16.185,8.84c-7.903,10.295 -4.805,26.259 6.88,35.458c2.951,2.328 7.503,4.225 10.106,4.225c3.234,0 5.742,1.96 7.923,6.164c2.993,5.806 2.93,6.597 -1.138,13.172c-3.572,5.774 -4.415,10.632 -4.805,27.723c-0.358,15.195 -1.454,22.602 -4.109,27.797c-5.69,11.106 -13.182,20.231 -16.607,20.231c-1.717,0 -6.153,1.433 -9.852,3.193c-12.876,6.112 -16.859,30.21 -6.891,41.78c2.171,2.529 5.237,6.417 6.796,8.64c2.255,3.214 5.143,5.082 13.973,5.082c12.528,0 15.352,-2.627 12.086,-7.853c-1.802,-2.887 -1.465,-4.078 1.749,-6.09c5.964,-3.72 10.337,-15.964 9.23,-25.827c-0.916,-8.061 -0.537,-8.82 7.366,-14.51c13.761,-9.915 23.266,-20.252 28.83,-31.348c7.333,-14.646 10.389,-17.576 18.324,-17.576c9.262,0 19.441,4.531 29.504,13.151c9.167,7.85 29.409,15.173 41.916,15.173c6.217,0 7.872,0.854 8.862,4.552c2.592,9.684 1.317,15.838 -4.288,20.664c-4.774,4.109 -5.522,6.196 -5.269,14.762c0.306,10.453 3.93,19.389 10.168,25.131c2.034,1.865 4.868,4.826 6.302,6.575c3.245,3.941 22.317,4.352 27.47,0.591c3.382,-2.477 2.866,-9.558 -0.706,-9.558c-0.854,0 0.263,-3.656 2.466,-8.124c5.479,-11.064 3.551,-24.583 -4.7,-32.823c-4.9,-4.9 -5.89,-7.566 -5.89,-15.764c-0,-9.42 0.411,-10.136 9.167,-16.164c9.631,-6.627 17.376,-17.08 20.189,-27.27c2.519,-9.146 2.824,-25.552 0.58,-31.305c-1.096,-2.814 -2.097,-11.486 -2.224,-19.273l-0.221,-14.162l11.443,-0.6c9.926,-0.527 12.15,-1.434 16.66,-6.807c4.078,-4.848 4.71,-6.807 2.887,-8.999c-1.275,-1.549 -3.161,-2.814 -4.173,-2.814c-1.011,0 -5.058,-1.348 -8.999,-2.992c-6.901,-2.887 -7.049,-3.151 -3.983,-7.534c1.75,-2.498 3.183,-6.238 3.183,-8.325c-0,-6.09 -6.375,-15.173 -13.045,-18.587Z"/></svg>