<?xml version="1.0" encoding="UTF-8" standalone="no"?><!DOCTYPE svg PUBLIC "-//W3C//DTD SVG 1.1//EN" "http://www.w3.org/Graphics/SVG/1.1/DTD/svg11.dtd"><svg width="100%" height="100%" viewBox="0 0 308 208" version="1.1" xmlns="http://www.w3.org/2000/svg" xmlns:xlink="http://www.w3.org/1999/xlink" xml:space="preserve" xmlns:serif="http://www.serif.com/" style="fill-rule:evenodd;clip-rule:evenodd;stroke-linejoin:round;stroke-miterlimit:2;"><path id="_09A-SPANIEL" serif:id="09A-SPANIEL" d="M283.389,3.488c-13.755,-7.62 -38.217,0.141 -45.44,14.422c-2.254,4.469 -9.375,16.047 -15.817,25.73c-16.701,25.089 -19.66,26.101 -81.404,28.035c-25.641,0.807 -49.398,2.369 -52.818,3.471c-16.24,5.251 -25.525,13.435 -33.645,29.623c-8.248,16.483 -18.263,24.155 -34.734,26.627c-11.987,1.793 -17.833,5.873 -18.98,15.151c-0.14,1.132 -0.172,9.013 5.597,10.131c3.331,0.645 10.212,2.821 8.929,6.826c-1.524,4.755 7.329,10.5 10.435,10.387c7.005,-0.255 7.006,-2.703 4.752,-0c-4.034,4.867 2.28,3.868 10.425,-1.665l6.929,-4.7l-2.497,14.331c-2.536,14.536 -1.934,21.235 2.138,23.924c3.83,2.51 25.136,0.77 30.167,-0.512c4.746,-1.209 4.629,-11.215 -3.015,-12.09c-3.852,-0.442 -1.78,-4.905 1.665,-9.593c2.28,-3.099 7.031,-7.108 10.553,-8.914c3.535,-1.806 7.762,-4.38 9.388,-5.738c1.627,-1.357 4.444,-2.676 6.263,-2.945c1.819,-0.269 6.276,-4.24 9.913,-8.825c6.34,-8.017 6.826,-8.235 12,-5.558c2.959,1.537 5.405,2.177 5.431,1.396c0.01,-0.312 5.975,-0.497 8.556,4.162c3.395,6.127 15.477,8.591 16.533,9.465c1.832,1.524 10.887,0.077 12.244,3.637c0.948,2.472 9.478,2.28 13.294,1.601c4.009,-0.704 34.833,-0.122 33.795,5.296c-0.537,2.792 8.607,18.618 8.607,19.518c0,3.048 7.192,9.062 9.254,7.781c0.896,-0.551 1.946,-0.333 2.651,0.807c1.844,2.984 5.073,1.99 14.873,-0c10.332,-2.098 10.905,-11.066 2.964,-14.075c-6.723,-2.562 -8.119,-8.902 -5.571,-25.269c1.896,-12.18 5.507,-19.34 9.798,-19.404c3.125,-0.051 18.43,-15.586 19.89,-20.21c1.101,-3.445 1.895,-3.932 3.138,-1.921c1.178,1.909 2.049,0.935 2.984,-3.278c0.717,-3.292 2.151,-8.248 3.189,-11.04c1.191,-3.202 1.127,-7.672 -0.154,-12.142c-2.485,-8.555 -2.574,-10.707 -0.41,-9.375c0.897,0.564 -0.166,-4.47 -2.369,-11.181c-5.213,-15.894 -3.356,-22.144 7.326,-24.667c9.964,-2.356 18.148,-11.949 17.328,-20.299c-0.512,-5.072 -1.806,-6.494 -7.211,-7.877c-4.162,-1.076 -6.608,-2.971 -6.659,-5.187c-0.103,-5.43 -4.957,-12.91 -10.285,-15.856Z"/></svg>