<?xml version="1.0" encoding="UTF-8" standalone="no"?><!DOCTYPE svg PUBLIC "-//W3C//DTD SVG 1.1//EN" "http://www.w3.org/Graphics/SVG/1.1/DTD/svg11.dtd"><svg width="100%" height="100%" viewBox="0 0 308 238" version="1.1" xmlns="http://www.w3.org/2000/svg" xmlns:xlink="http://www.w3.org/1999/xlink" xml:space="preserve" xmlns:serif="http://www.serif.com/" style="fill-rule:evenodd;clip-rule:evenodd;stroke-linejoin:round;stroke-miterlimit:2;"><path id="_06A-VISZLA" serif:id="06A-VISZLA" d="M298.268,37.43c-1.558,0.899 -3.184,1.438 -13.886,2.68c-6.722,0.783 -13.269,0.39 -16.111,1.611c-1.749,0.752 0.514,4.459 -0.942,5.72c-2.667,2.302 -7.61,-2.138 -12.299,-1.514c-9.589,1.282 -18.38,23.801 -17.438,45.114c0.613,13.875 5.017,19.656 0.894,30.647c-1.776,4.739 -3.624,6.405 -6.931,15.326c-2.243,6.048 -2.739,8.908 -5.589,16.19c-2.479,6.322 -3.062,6.621 -4.698,10.79c-2.239,5.717 -3.31,12.74 -5.364,26.548c-0.081,0.542 -2.108,29.427 -0,31.285c2.85,2.515 8.509,0.371 11.81,4.952c1.386,1.924 2.096,5.065 2.237,5.815c0.376,2.052 -1.343,4.44 -1.343,4.44l-14.45,0c-0,0 -6.335,-5.258 -8.092,-8.718c-1.847,-3.637 -1.275,-26.271 -2.225,-37.774c-1.78,-21.553 -1.115,-30.605 -7.167,-35.828c-5.233,-4.522 -7.819,-1.489 -24.37,-6.045c-15.378,-4.233 -15.92,-7.617 -32.644,-12.517c-13.877,-4.069 -21.104,-6.082 -29.288,-3.238c-4.569,1.584 -8.786,5.156 -17.218,12.301c-9.296,7.879 -23.183,24.404 -30.377,30.285c-11.321,9.253 -13.68,9.804 -19.705,18.347c-3.044,4.315 -6.853,11.283 -8.704,23.526c-0.735,4.855 -0.296,6.18 0.999,7.115c1.657,1.197 1.673,1.115 3.71,2.291c5.727,3.307 5.589,4.928 4.417,7.399c-1.101,2.321 -4.417,2.856 -4.417,2.856l-11.801,0c0,0 -2.544,-1.495 -4.197,-4.08c-1.995,-3.12 0.637,-25.064 1.687,-30.044c3.22,-15.261 5.173,-13.157 12.077,-26.115c6.51,-12.219 11.291,-31.351 14.054,-46.04c2.96,-15.752 13.249,-20.752 9.838,-28.062c-2.285,-4.891 -8.866,-6.861 -17.663,-9.496c-7.562,-2.263 -8.992,-1.215 -18.333,-3.237c-6.357,-1.374 -20.752,-8.516 -23.703,-11.223c-2.228,-2.044 3.388,-5.278 3.579,-5.397c5.463,-3.405 11.533,6.359 26.158,8.851c6.022,1.023 25.943,6.164 33.986,7.553c6.591,1.139 10.936,-0.311 19.003,-2.157c11.18,-2.558 25.638,-4.081 54.559,-7.123c18.416,-1.94 19.047,-1.273 27.052,-3.021c14.843,-3.244 25.644,-5.601 33.983,-14.031c2.064,-2.086 6.92,-11.707 16.548,-30.867c4.363,-8.683 5.337,-10.803 8.047,-14.244c3.058,-3.883 10.414,-12.965 23.03,-16.187c3.31,-0.847 9.12,-2.33 15.429,-0.216c6.01,2.013 6.872,5.418 11.626,8.631c12.702,8.588 27.249,-1.73 32.419,4.751c4.127,5.174 -3.903,17.964 -8.187,22.15" style="fill-rule:nonzero;"/></svg>