<?xml version="1.0" encoding="UTF-8" standalone="no"?><!DOCTYPE svg PUBLIC "-//W3C//DTD SVG 1.1//EN" "http://www.w3.org/Graphics/SVG/1.1/DTD/svg11.dtd"><svg width="100%" height="100%" viewBox="0 0 308 214" version="1.1" xmlns="http://www.w3.org/2000/svg" xmlns:xlink="http://www.w3.org/1999/xlink" xml:space="preserve" xmlns:serif="http://www.serif.com/" style="fill-rule:evenodd;clip-rule:evenodd;stroke-linejoin:round;stroke-miterlimit:2;"><path id="_08A-BULL" serif:id="08A-BULL" d="M184.791,141.397c0.529,4.037 1.359,7.811 1.455,11.603c0.264,10.328 2.436,20.631 0.312,31.018c-0.401,1.956 0.289,4.291 1.013,6.263c1.686,4.596 3.849,9.024 5.545,13.616c2.339,6.332 5.809,9.578 5.809,9.578l24.21,0c-0,0 3.318,-2.956 3.379,-5.296c0.048,-1.86 0.295,-2.837 -1.698,-4.276c-2.836,-2.048 -6.113,-3.505 -9.079,-5.396c-1.367,-0.87 -2.894,-1.956 -3.579,-3.314c-3.34,-6.63 -3.054,-13.837 -2.549,-20.896c0.795,-11.102 2.031,-22.176 3.284,-33.24c0.191,-1.692 1.198,-3.486 2.316,-4.852c2.933,-3.579 6.072,-7.004 9.246,-10.385c3.909,-4.163 6.084,-9.179 7.282,-14.54c3.543,-15.863 12.09,-28.038 27.059,-35.528c1.516,-0.758 3.67,-1.014 5.333,-0.652c5.454,1.185 10.825,2.731 16.211,4.201c4.759,1.299 9.315,1.042 13.602,-1.496c3.439,-2.036 7.007,-3.911 10.218,-6.249c4.264,-3.101 4.706,-6.024 1.94,-10.452c-7.017,-11.233 -15.85,-20.884 -26.888,-28.487c-5.202,-3.583 -10.605,-6.896 -16.011,-10.184c-2.114,-1.284 -2.528,-2.805 -1.815,-4.969c1.401,-4.251 2.776,-8.512 4.021,-12.809c0.298,-1.029 0.044,-2.211 0.044,-3.324c-0.348,-0.193 -0.695,-0.386 -1.042,-0.58c-3.586,3.677 -7.206,7.322 -10.75,11.037c-3.301,3.461 -6.739,6.592 -11.515,8.192c-2.372,0.795 -4.617,2.284 -6.568,3.87c-4.294,3.493 -8.769,6.899 -12.441,10.967c-7.748,8.582 -17.702,14.421 -27.01,20.951c-4.826,3.385 -11.291,4.613 -17.095,6.596c-15.858,5.416 -32.176,5.465 -48.731,4.384c-17.493,-1.143 -35.325,-3.583 -52.36,1.967c-13.272,4.325 -24.684,0.235 -36.118,-4.757c-9.628,-4.203 -16.899,-11.72 -24.636,-18.523c-4.054,-3.565 -8.449,-6.778 -12.824,-9.975c-1.12,-0.817 -2.754,-0.966 -3.605,-1.245c3.271,5.017 6.628,10.057 9.875,15.163c10.095,15.876 24.037,26.858 42.584,32.035c0.415,0.115 0.814,0.289 0.744,0.263c-2.58,7.066 -5.41,13.944 -7.551,21.02c-1.22,4.032 -1.626,8.371 -1.848,12.6c-0.393,7.499 -3.525,14.148 -6.15,20.976c-0.196,0.511 -0.472,1.005 -0.587,1.532c-1.694,7.733 -5.874,13.782 -11.987,19.038c-2.275,1.956 -3.393,5.848 -3.867,9.024c-1.575,10.558 -2.77,21.178 -3.774,31.805c-0.311,3.292 0.042,6.776 0.834,9.998c0.929,3.777 4.89,5.806 4.89,5.806l13.904,0c-0,0 6.259,-1.125 6.737,-4.102c0.487,-3.032 -2.269,-7.083 -4.891,-9.271c-1.629,-1.36 -4.311,-2.582 -4.592,-4.188c-0.535,-3.057 -0.515,-6.698 0.738,-9.468c3.558,-7.867 7.173,-15.866 12.086,-22.94c3.551,-5.114 8.954,-9.146 13.999,-13.09c5.837,-4.563 12.289,-8.369 18.268,-12.77c2.76,-2.031 5.335,-2.232 8.449,-1.214c7.21,2.358 14.344,5.159 21.746,6.69c18.948,3.919 38.052,3.349 57.132,0.552c5.626,-0.825 11.277,-1.489 17.296,-2.277" style="fill-rule:nonzero;"/></svg>