<?xml version="1.0" encoding="UTF-8" standalone="no"?><!DOCTYPE svg PUBLIC "-//W3C//DTD SVG 1.1//EN" "http://www.w3.org/Graphics/SVG/1.1/DTD/svg11.dtd"><svg width="100%" height="100%" viewBox="0 0 308 237" version="1.1" xmlns="http://www.w3.org/2000/svg" xmlns:xlink="http://www.w3.org/1999/xlink" xml:space="preserve" xmlns:serif="http://www.serif.com/" style="fill-rule:evenodd;clip-rule:evenodd;stroke-linejoin:round;stroke-miterlimit:2;"><path id="_08C-MIX" serif:id="08C-MIX" d="M95.743,149.309c-18.998,-4.295 -10.129,31.274 -51.781,35.884c-7.989,0.885 -20.913,33.43 -20.038,34.583c2.581,3.401 12.29,4.182 7.981,15.97c-0.189,0.518 -9.782,0.613 -9.782,0.613l-14.419,0c0,0 -6.943,-0.562 -6.943,-4.411c-0,-2.033 0.327,-3.272 0.676,-4.747c0.422,-1.788 11.606,-30.105 16.298,-42.008c0.624,-1.579 1.949,-3.166 3.36,-4.053c7.743,-4.865 10.895,-23.248 10.81,-25.583c-1.925,-52.92 12.787,-40.046 21.056,-71.836c1.501,-5.768 -52.06,-19.213 -52.2,-20.332c-0.354,-2.82 17.42,-1.197 19.388,-0c4.204,2.562 25.826,6.239 39.065,6.655c16.265,0.512 46.143,-4.525 58.523,-3.585c13.562,1.026 49.467,-0.669 53.56,-2.213c12.862,-4.858 26.067,-9.175 36.804,-18.459c5.204,-4.498 10.109,-9.436 14.699,-14.607c10.552,-11.89 0.899,-12.399 14.298,-20.79c1.029,-0.64 1.755,-2.302 2.036,-3.621c0.984,-4.703 3.035,-6.599 7.771,-6.629c2.516,-0.017 5.039,0.161 7.549,0.046c2.293,-0.102 3.589,0.947 4.064,3.153c0.86,4.007 3.354,5.752 7.147,6.655c2.65,0.627 5.128,2.312 7.488,3.846c2.119,1.369 4.132,3.011 5.88,4.848c1.169,1.227 2.29,2.912 2.558,4.542c0.481,2.918 1.774,4.795 4.411,5.719c5.134,1.807 10.307,3.505 15.413,5.392c2.118,0.785 4.94,0.963 6.153,2.935c0.074,0.116 0.274,1.085 0.274,2.025c0,1.125 -0.22,2.286 -0.274,2.533c-0.595,2.803 -2.487,5.145 -3.478,7.817c-2.038,5.514 -5.609,9.129 -11.351,9.946c-5.469,0.779 -10.266,4.588 -16.079,3.731c-0.621,-0.093 -1.312,0.079 -1.876,-0.139c-6.695,-2.563 -17.878,11.888 -20.33,15.157c-0.271,0.361 -5.099,2.492 -6.313,13.789c-1.946,18.034 1.427,34.732 -11.043,48.05c-3.213,3.429 -4.252,7.826 -5.644,12.14c-2.65,8.199 -2.557,16.286 -5.211,24.485c-1.156,3.568 -1.14,41.189 4.061,44.966c1.797,1.302 3.74,2.407 5.52,3.733c2.112,1.567 3.923,4.968 4.604,7.76c0.477,1.952 -5.691,3.09 -5.691,3.09l-14.186,0c0,0 -2.566,-3.487 -4.302,-5.227c-1.615,-1.62 -1.749,-6.352 -2.255,-8.971c-0.475,-2.43 -0.523,-4.947 -0.797,-7.42c-0.414,-3.767 -0.933,-7.418 -3.229,-10.686c-0.851,-1.207 -13.312,-49.544 -13.051,-51.73c0.461,-3.864 -6.83,1.347 -25.62,3.232c-33.505,3.361 -57.466,-2.158 -75.554,-6.248Z"/></svg>