<?xml version="1.0" encoding="UTF-8" standalone="no"?><!DOCTYPE svg PUBLIC "-//W3C//DTD SVG 1.1//EN" "http://www.w3.org/Graphics/SVG/1.1/DTD/svg11.dtd"><svg width="100%" height="100%" viewBox="0 0 308 238" version="1.1" xmlns="http://www.w3.org/2000/svg" xmlns:xlink="http://www.w3.org/1999/xlink" xml:space="preserve" xmlns:serif="http://www.serif.com/" style="fill-rule:evenodd;clip-rule:evenodd;stroke-linejoin:round;stroke-miterlimit:2;"><path id="_07A-FRENCHIE" serif:id="07A-FRENCHIE" d="M305.787,68.841c-3.498,4.163 -8.353,10.805 -19.07,12.957c-9.405,1.896 -17.718,5.388 -24.45,11.566c-8.019,7.294 -11.664,16.082 -12.521,26.008c-1.338,15.797 -8.843,28.813 -23.526,38.496c-1.001,0.663 -2.038,1.589 -2.384,2.556c-4.326,12.754 -8.856,25.49 -12.633,38.357c-1.672,5.692 -1.948,19.362 -1.235,19.909c1.96,1.542 4.193,2.806 6.147,4.326c2.866,2.241 3.486,4.972 3.648,8.238c0.218,4.379 -7.222,5.899 -7.222,5.899l-12.411,-0c0,-0 -6.164,-4.085 -7.846,-8.48c-4.864,-12.9 -5.849,-26.1 -4.094,-39.53c0.837,-6.56 4.027,-16.837 2.034,-20.161c-1.993,-3.325 -11.493,0.12 -13.993,0.215c-22.525,1.02 -44.014,-2.756 -64.255,-11.389c-4.476,-1.928 -8.856,-3.935 -13.303,-5.859c-7.743,-3.337 -15.319,-2.329 -20.953,3.429c-9.748,9.97 -19.814,19.696 -31.122,28.314c-7.409,5.657 -15.062,11.067 -22.705,16.489c-1.793,1.28 -3.33,8.874 -3.776,10.969c-0.841,4.023 -0.95,7.957 1.042,11.866c1.306,2.604 3.733,5.259 4.364,8.014c1.027,4.483 -5.471,6.123 -5.471,6.123l-12.27,-0c-0,-0 -4.971,-7.038 -6.225,-10.784c-1.24,-3.701 -0.818,-15.526 -0.728,-17.45c0.366,-7.761 0.635,-15.51 1.043,-23.299c0.208,-3.533 1.325,-4.51 5.368,-5.429c1.155,-0.263 5.529,-3.426 6.7,-7.013c2.467,-7.249 5.259,-14.441 7.672,-21.747c4.412,-13.276 17.487,-28.986 20.09,-36.322c0.99,-2.791 -3.912,-5.12 -4.473,-7.698c-1.98,-8.675 7.245,-15.086 16.871,-11.939c2.641,0.834 10.567,3.606 11.59,3.113c12.283,-5.673 25.699,-7.265 39.32,-8.311c15.835,-1.239 31.709,-2.585 47.518,-4.108c7.528,-0.702 15.203,-1.264 22.48,-2.984c11.494,-2.724 21.117,-8.693 26.598,-17.8c7.704,-12.666 18.456,-22.434 31.734,-30.495c1.123,-0.67 1.816,-2.184 2.285,-3.416c1.19,-3.344 1.787,-6.88 3.311,-10.081c2.769,-5.808 6.032,-11.392 9.049,-17.077c1.225,-2.272 3.006,-3.824 6.147,-3.267c3.203,0.568 3.906,2.695 4.169,5.147c0.584,5.698 -1.796,13.05 1.861,16.502c3.657,3.452 13.601,2.563 20.08,4.21c3.193,0.831 6.292,2.439 9.138,4.063c4.772,2.715 6.662,11.955 6.857,11.955c7.092,0.367 7.092,0.367 9.11,6.576c0.754,2.465 2.065,4.817 2.355,7.325c0.291,2.509 -0.292,10.086 -1.915,12.017Z"/></svg>