<?xml version="1.0" encoding="UTF-8" standalone="no"?><!DOCTYPE svg PUBLIC "-//W3C//DTD SVG 1.1//EN" "http://www.w3.org/Graphics/SVG/1.1/DTD/svg11.dtd"><svg width="100%" height="100%" viewBox="0 0 249 237" version="1.1" xmlns="http://www.w3.org/2000/svg" xmlns:xlink="http://www.w3.org/1999/xlink" xml:space="preserve" xmlns:serif="http://www.serif.com/" style="fill-rule:evenodd;clip-rule:evenodd;stroke-linejoin:round;stroke-miterlimit:2;"><path id="_07E-BOXER" serif:id="07E-BOXER" d="M162.678,157.332c-4.564,-3.131 -13.684,-4.159 -16.836,-4.862c-5.645,-1.258 -28.697,-9.949 -35.221,-10.351c-8.118,-0.5 -25.984,-0.161 -26.522,0.303c-0.527,0.453 -8.817,3.918 -10.244,8.812c-1.46,5.01 -3.56,10.199 -9.73,16.296c-8.112,8.013 -24.3,16.25 -24.814,16.601c-3.673,2.51 -7.215,5.203 -10.794,7.843c-7.748,5.713 -16.055,11.632 -16.684,22.077c-0.155,2.586 0.251,5.196 0.782,7.733c0.458,2.197 2.286,5.155 4.293,6.334c2.797,1.643 7.317,1.137 8.269,5.034c0.645,2.639 -2.706,3.513 -2.706,3.513l-16.502,0.017c-0,0 -1.885,-1.906 -2.719,-3.489c-1.647,-3.126 -2.2,-5.752 -2.406,-9.243c-0.704,-11.993 -1.017,-19.855 0.728,-31.787c0.104,-0.71 0.759,-1.246 1.288,-1.738c4.596,-4.274 9.447,-8.273 14.056,-12.532c4.546,-4.199 8.142,-11.09 11.601,-16.46c4.255,-6.605 -3.34,-42.753 10.794,-54.809c2.333,-1.99 10.543,-9.469 10.06,-13.85c-0.234,-2.112 -4.233,-8.534 -4.425,-8.998c-2.685,-6.507 -1.292,-13.551 2.284,-19.371c0.61,-0.993 2.785,-3.341 4.012,-3.538c5.055,-0.809 2.463,7.119 2.25,8.679c-0.805,5.921 -1.121,13.046 5.563,15.827c3.953,1.644 9.722,-1.391 13.34,-2.053c3.317,-0.607 6.701,-0.779 10.037,-1.274c23.737,-3.521 46.518,-6.453 68.897,-15.126c16.18,-6.271 18.336,-26.82 27.483,-39.294c2.091,-2.853 4.618,-5.403 7.302,-7.724c1.744,-1.508 5.932,-2.161 7.343,-4.265c2.277,-3.394 0.227,-5 1.705,-8.394c0.675,-1.552 3.085,-2.702 4.503,-3.26c3.282,-1.29 10.55,-4.83 14.716,-3.013c4.988,2.175 5.65,4.584 9.748,7.89c4.903,3.955 7.005,3.624 11.169,8.862c2.304,2.898 -1.427,9.612 2.026,11.829c3.053,1.961 3.572,-0.589 6.931,0.916c1.033,0.463 1.618,3.208 1.847,3.991c1.613,5.504 2.431,6.668 2.162,12.489c-0.296,6.414 -3.92,6.91 -9.41,9.319c-5.757,2.526 -10.548,5.561 -16.991,4.269c-3.192,-0.64 -11.442,-5.834 -13.678,-0.794c-0.566,1.275 -0.841,2.692 -0.892,4.084c-0.291,8.017 0.991,7.841 1.597,15.89c1.094,14.531 2.049,29.026 -0.851,43.401c-0.943,4.672 -2.776,9.744 -5.181,13.886c-2.373,4.087 -6.6,8.405 -8.49,12.804c-4.988,11.611 -4.199,26.248 -4.064,38.301c0.047,4.237 0.483,8.461 0.614,12.696c0.264,8.515 -0.549,14.439 3.963,22.072c2.716,4.595 6.447,2.569 10.462,5.818c0.443,0.358 2.102,6.255 1.221,7.219c-0.444,0.486 -3.706,0.77 -3.706,0.77l-11.94,0c0,0 -3.576,-1.072 -5.577,-2.265c-1.985,-1.184 -2.354,-2.547 -3.163,-4.928c-6.521,-19.181 -5.707,-46.205 -8.957,-58.231c-1.513,-5.598 -5.98,-10.795 -10.543,-13.926Z" style="fill-rule:nonzero;"/></svg>