<?xml version="1.0" encoding="UTF-8" standalone="no"?><!DOCTYPE svg PUBLIC "-//W3C//DTD SVG 1.1//EN" "http://www.w3.org/Graphics/SVG/1.1/DTD/svg11.dtd"><svg width="100%" height="100%" viewBox="0 0 308 237" version="1.1" xmlns="http://www.w3.org/2000/svg" xmlns:xlink="http://www.w3.org/1999/xlink" xml:space="preserve" xmlns:serif="http://www.serif.com/" style="fill-rule:evenodd;clip-rule:evenodd;stroke-linejoin:round;stroke-miterlimit:2;"><path id="_07B-PUG" serif:id="07B-PUG" d="M306.888,61.777c-2.304,4.835 -9.764,10.448 -20.615,12.681c-9.521,1.968 -1.774,5.979 -10.883,9.6c-11.519,4.578 -17.84,16.887 -18.681,29.855c-1.06,16.354 -12.824,30.242 -27.689,40.29c-1.014,0.689 -2.063,1.65 -2.414,2.653c-4.379,13.235 -8.966,26.451 -12.789,39.804c-1.693,5.906 -1.972,20.092 -1.251,20.659c1.985,1.601 4.246,2.912 6.224,4.49c2.901,2.325 3.529,5.159 3.693,8.549c0.221,4.543 -7.312,6.12 -7.312,6.12l-12.565,0c0,0 -6.241,-4.238 -7.943,-8.799c-4.925,-13.386 -5.922,-27.084 -4.145,-41.021c0.848,-6.808 4.077,-17.472 2.059,-20.922c-2.017,-3.449 -11.636,0.125 -14.167,0.223c-22.805,1.06 -44.56,-2.859 -65.052,-11.818c-4.532,-2.001 -8.966,-4.083 -13.469,-6.08c-7.839,-3.463 -15.508,-2.417 -21.213,3.558c-9.869,10.346 -20.06,20.44 -31.508,29.382c-7.501,5.87 -15.249,11.484 -22.987,17.112c-1.816,1.328 -3.372,9.208 -3.823,11.382c-0.851,4.174 -0.962,8.257 1.056,12.314c1.322,2.702 3.778,5.457 4.417,8.316c1.04,4.652 -5.538,6.353 -5.538,6.353l-12.423,0c-0,0 -5.032,-7.303 -6.302,-11.19c-1.255,-3.841 -0.828,-16.111 -0.737,-18.108c0.37,-8.054 0.643,-16.095 1.055,-24.178c0.212,-3.667 0.765,-3.587 4.167,-5.968c1.285,-0.9 5.694,-3.42 6.566,-7.221c2.17,-9.455 5.403,-33.537 4.583,-40.479c-1.935,-16.4 -0.553,-26.137 4.212,-33.535c1.621,-2.516 11.419,-14.003 9.74,-16.003c-15.122,-18.013 2.26,-47.417 23.781,-47.711c27.987,-0.382 26.847,22.986 30.532,24.507c6.118,2.525 9.929,0.4 21.598,-0c19.389,-0.666 54.094,-2.707 59.869,-2.377c7.639,0.437 12.592,-5.085 19.959,-6.869c11.637,-2.826 12.535,-5.81 18.084,-15.261c7.799,-13.143 8.187,-18.089 21.629,-26.454c0,-0 21.61,-5.795 24.79,-5.218c3.242,0.591 15.332,3.166 20.177,3.847c11.097,1.562 21.956,14.287 21.392,18.257c-0.192,1.346 3.206,1.743 5.957,4.348c4.331,4.1 2.317,8.838 3.54,12.764c0.793,2.546 4.812,8.491 5.106,11.095c0.294,2.603 0.425,8.735 -0.68,11.053Z"/></svg>