<?xml version="1.0" encoding="UTF-8" standalone="no"?><!DOCTYPE svg PUBLIC "-//W3C//DTD SVG 1.1//EN" "http://www.w3.org/Graphics/SVG/1.1/DTD/svg11.dtd"><svg width="100%" height="100%" viewBox="0 0 308 237" version="1.1" xmlns="http://www.w3.org/2000/svg" xmlns:xlink="http://www.w3.org/1999/xlink" xml:space="preserve" xmlns:serif="http://www.serif.com/" style="fill-rule:evenodd;clip-rule:evenodd;stroke-linejoin:round;stroke-miterlimit:2;"><path id="_07D-A.BULLDOG" serif:id="07D-A.BULLDOG" d="M246.142,0.055c0.498,0 1.007,-0.005 1.525,-0.005c1.06,-0.006 2.126,-0.006 3.186,-0c1.605,-0 3.203,-0.016 4.808,-0.029c12.708,-0.049 21.776,3.337 31.398,10.982c0.916,1.704 0.819,3.386 0.916,5.267c0.271,1.359 0.271,1.359 1.324,2.34c2.374,1.131 4.711,1.214 7.349,1.399c7.773,0.591 7.773,0.591 10.311,2.956c0.204,1.585 0.331,3.115 0.405,4.713c0.016,0.455 0.037,0.916 0.063,1.392c0.037,0.929 0.077,1.854 0.114,2.783c0.053,1.087 0.147,2.171 0.257,3.252c0.405,5.61 -2.002,10.606 -5.854,14.865c-2.601,2.219 -5.226,3.212 -8.709,3.726c-3.922,0.604 -5.862,1.405 -8.744,3.959c-2.594,0.807 -4.988,0.866 -7.703,0.599c-1.087,-0.574 -2.153,-1.172 -3.21,-1.795c-2.273,-0.358 -3.764,-0.395 -5.784,0.698c-1.337,0.922 -2.594,1.878 -3.845,2.891c-3.737,2.931 -3.737,2.931 -5.767,3.978c-2.501,1.816 -3.049,3.395 -3.939,6.152c-0.16,0.449 -0.321,0.904 -0.481,1.365c-0.471,1.352 -0.926,2.704 -1.367,4.056c-0.238,0.722 -0.475,1.442 -0.719,2.19c-0.398,1.212 -0.793,2.433 -1.17,3.66c-0.679,1.925 -0.679,1.925 -1.311,3.05c-2.862,5.389 -2.304,11.286 -2.297,17.152c-0,1.657 -0.007,3.308 -0.027,4.966c-0.01,1.022 -0.01,2.046 -0.006,3.068c-0.03,3.479 -0.826,6.339 -2.174,9.576c-0.27,0.698 -0.541,1.399 -0.822,2.121c-0.258,0.63 -0.515,1.265 -0.782,1.916c-0.258,0.639 -0.516,1.281 -0.786,1.938c-0.783,1.717 -1.675,3.212 -2.745,4.791c-0.335,0.515 -0.669,1.035 -1.017,1.561c-2.323,3.498 -4.697,6.996 -7.97,9.803l-1.284,0c-0.214,0.592 -0.425,1.184 -0.642,1.795l-1.284,-0l0,1.196c-0.375,0.312 -0.739,0.616 -1.123,0.931c-4.604,4.648 -4.965,11.247 -5.938,17.24c-0.328,1.944 -0.656,3.887 -0.99,5.832c-0.084,0.467 -0.161,0.937 -0.244,1.423c-0.585,3.389 -1.304,6.741 -2.137,10.09c-2.805,11.614 -5.77,28.579 1.02,39.423c1.328,1.27 2.304,1.498 4.152,1.881c3.846,0.963 5.909,2.365 8.346,5.349c0.969,1.984 1.367,3.564 1.408,5.754c-1.512,1.841 -2.839,2.859 -5.316,3.18c-15.37,1.268 -15.37,1.268 -21.646,-2.582c-1.862,-2.358 -2.357,-4.648 -2.805,-7.477c-1.253,-7.507 -1.253,-7.507 -5.296,-13.853c-1.123,-0.735 -1.123,-0.735 -2.812,-1.399c-0.642,-0.598 -0.642,-0.598 -0.725,-1.903c-0,-0.794 -0,-0.794 0.006,-1.607c-0.006,-0.533 -0.006,-1.059 -0.006,-1.605c0.083,-1.464 0.083,-1.464 0.725,-3.258c0.064,-1.664 0.088,-3.315 0.088,-4.978l-0,-1.517c-0,-1.651 -0,-3.296 -0.004,-4.941c0,-0.564 -0.007,-1.125 -0.007,-1.698c-0.02,-7.267 -0.059,-14.535 -0.244,-21.803c-0.02,-0.826 -0.04,-1.645 -0.053,-2.47c-0.083,-4.293 -0.365,-8.14 -1.926,-12.202c-0.635,-1.854 -2.828,-3.032 -2.989,-1.829c-4.567,0.175 -9.061,-0.116 -13.605,-0.52c-0.537,-0.05 -1.076,-0.096 -1.635,-0.143c-3.366,-0.324 -6.542,-0.876 -9.796,-1.729c-0.719,-0.187 -0.719,-0.187 -1.457,-0.378c-7.025,-1.831 -13.752,-3.925 -20.368,-6.8c-0,-0.395 -5.985,-3.1 -8.309,-4.302c-1.932,-0.963 -3.871,-1.919 -5.814,-2.875c-0.398,-0.199 -0.796,-0.402 -1.207,-0.605c-6.851,-3.355 -13.571,-4.09 -21.107,-2.464c-6.794,2.206 -9.335,8.056 -12.3,13.691c-0.649,1.256 -1.279,2.524 -1.906,3.792c-4.333,8.685 -10.896,15.473 -17.891,22.398c-1.437,1.408 -1.437,1.408 -2.518,2.86c-0.277,0.33 -0.558,0.657 -0.845,1l-1.284,-0c-0.214,0.508 -0.214,0.508 -0.432,1.028c-1.117,1.788 -2.524,2.776 -4.262,4.056c-0.609,0.449 -1.214,0.903 -1.836,1.364c-1.143,0.829 -2.287,1.654 -3.447,2.464c-1.862,1.483 -3.327,3.146 -4.788,4.957c-0.277,0.348 -0.558,0.694 -0.849,1.046c-6.47,8.112 -8.941,16.897 -8.82,26.953c0,0.467 0.007,0.925 0.007,1.405c0.007,1.124 0.02,2.255 0.033,3.379c0.378,0.1 0.763,0.203 1.154,0.312c4.249,1.212 7.108,2.439 9.314,6.196c1.027,2.093 1.548,3.732 1.087,6.053c-1.939,2.1 -4.226,2.087 -7.061,2.392c-12.348,0.605 -12.348,0.605 -17.089,-2.47c-1.36,-1.716 -1.601,-3.62 -1.972,-5.676c-0.077,-0.396 -0.16,-0.785 -0.25,-1.19c-0.81,-4.33 -0.656,-8.685 -0.603,-13.059c0.014,-1.638 0.014,-3.271 0.007,-4.903c-0.013,-3.05 0.007,-6.096 0.03,-9.14c0.014,-1.261 0.014,-2.523 0.007,-3.784c-0.013,-1.855 0.007,-3.705 0.033,-5.552c-0.007,-0.561 -0.02,-1.119 -0.026,-1.692c0.089,-3.803 1.129,-5.7 4.005,-8.398c0.361,-0.318 0.718,-0.633 1.093,-0.956c0.448,-0.437 0.896,-0.879 1.36,-1.327c0.372,-0.368 0.743,-0.733 1.131,-1.103c6.058,-6.418 9.378,-13.146 10.99,-21.495c0.087,-0.455 0.177,-0.91 0.274,-1.377c0.615,-3.122 1.164,-6.249 1.652,-9.389c0.087,-0.533 0.17,-1.066 0.261,-1.611c0.451,-3.367 0.444,-6.738 0.465,-10.124c-0,-0.479 0.003,-0.963 0.003,-1.455c-0.003,-2.619 -2.92,1.072 -5.865,7.209c-0.194,0.417 -0.394,0.838 -0.591,1.274c-4.313,8.738 -11.053,15.856 -20.626,19.616c-7.409,2.502 -14.681,3.172 -22.434,1.838c1.454,-2.997 3.406,-4.85 6.419,-6.579c1.738,-0.592 3.504,-1.028 5.296,-1.461c9.148,-2.231 14.995,-6.872 19.823,-14.371c4.517,-7.573 5.289,-15.762 6.336,-24.242c1.873,-14.42 4.844,-25.678 17.255,-35.475c5.193,-3.708 11.144,-5.489 17.266,-7.477c1.688,-0.579 3.243,-1.202 4.834,-1.978c12.635,-6.161 28.439,-6.031 42.341,-5.941c0.799,0 0.799,0 1.605,0.007c4.988,0.031 9.97,0.077 14.959,0.137c2.755,0.037 5.506,0.056 8.261,0.065c1.033,0.006 2.066,0.019 3.099,0.038c9.238,0.149 16.757,-1.15 24.992,-5.299c2.601,-1.1 5.213,-1.742 7.982,-2.393c4.53,-1.084 8.317,-2.443 12.112,-5.084c0.776,-0.514 0.776,-0.514 1.565,-1.046c2.023,-1.658 3.467,-3.49 5.015,-5.533c0.622,-0.807 1.244,-1.617 1.873,-2.424c0.3,-0.392 0.612,-0.794 0.933,-1.209c2.169,-2.809 4.402,-5.579 6.663,-8.329c0.421,-0.52 0.846,-1.035 1.284,-1.567c2.24,-2.658 4.467,-5.025 7.161,-7.281c5.279,-4.018 5.279,-4.018 7.961,-9.516c-0.288,-2.031 -0.288,-2.031 -0.763,-3.941c-0.237,-1.62 -0.237,-1.62 0.412,-2.769c1.217,-1.028 2.4,-1.717 3.845,-2.44c0.929,-0.48 0.929,-0.48 1.879,-0.962c5.028,-2.448 9.251,-4.009 14.978,-4.004Z" style="fill-rule:nonzero;"/></svg>