<?xml version="1.0" encoding="UTF-8" standalone="no"?><!DOCTYPE svg PUBLIC "-//W3C//DTD SVG 1.1//EN" "http://www.w3.org/Graphics/SVG/1.1/DTD/svg11.dtd"><svg width="100%" height="100%" viewBox="0 0 308 237" version="1.1" xmlns="http://www.w3.org/2000/svg" xmlns:xlink="http://www.w3.org/1999/xlink" xml:space="preserve" xmlns:serif="http://www.serif.com/" style="fill-rule:evenodd;clip-rule:evenodd;stroke-linejoin:round;stroke-miterlimit:2;"><path id="_08B-STAFORD" serif:id="08B-STAFORD" d="M98.82,140.119c-17.57,4.165 -10.854,39.483 -58.355,47.387c-7.423,1.235 -11.744,9.703 -17.019,15.216c-4.482,4.684 -6.931,10.799 -6.809,17.717c0.027,1.431 1.193,4.105 2.259,4.959c4.887,3.914 6.726,5.274 6.782,11.444c0.002,0.142 -4.936,0.037 -4.936,0.037l-13.49,-0.037c-6.285,0 -6.496,-3.996 -6.496,-8.519c-0,-1.759 11.491,-28.889 15.881,-40.311c0.584,-1.516 1.824,-3.038 3.144,-3.889c7.244,-4.669 13.607,-10.106 16.885,-18.809c0.783,-2.083 3.572,-3.501 3.492,-5.741c-1.801,-50.782 7.551,-32.657 15.288,-63.163c1.403,-5.535 -22.089,-9.181 -25.551,-10.93c-6.735,-3.402 -29.003,-19.558 -29.135,-20.631c-0.33,-2.706 16.294,5.13 18.136,6.279c3.933,2.459 23.007,11.683 35.394,12.082c15.217,0.492 44.327,-10.038 55.911,-9.136c12.689,0.984 46.283,-0.642 50.112,-2.123c12.033,-4.662 24.389,-8.805 34.434,-17.714c4.87,-4.317 9.459,-9.055 13.753,-14.017c9.873,-11.41 20.616,-21.635 33.153,-29.687c0.962,-0.614 1.642,-2.209 1.904,-3.475c0.921,-4.513 2.84,-6.333 7.271,-6.361c2.355,-0.016 4.715,0.155 7.063,0.044c2.146,-0.098 3.358,0.909 3.802,3.026c0.805,3.845 3.138,5.519 6.688,6.387c2.479,0.601 4.798,2.218 7.006,3.69c1.981,1.313 3.865,2.889 5.501,4.652c1.094,1.177 2.142,2.795 2.393,4.358c0.45,2.801 1.66,4.602 4.127,5.488c4.804,1.734 9.644,3.364 14.421,5.174c1.981,0.754 4.622,0.925 5.757,2.817c0.068,0.111 0.256,1.041 0.256,1.943c0,1.08 -0.205,2.194 -0.256,2.431c-0.557,2.69 -2.327,4.937 -3.254,7.501c-1.907,5.291 -5.248,8.76 -10.621,9.545c-5.117,0.747 -9.605,4.402 -15.043,3.579c-0.581,-0.088 -1.228,0.076 -1.755,-0.132c-6.265,-2.46 -30.4,4.778 -32.694,7.915c-6.425,8.782 -10.827,18.312 -12.01,29.598c-1.821,17.305 -7.39,33.06 -19.057,45.839c-3.007,3.292 -3.979,7.511 -5.281,11.65c-2.479,7.868 -5.242,15.628 -7.724,23.496c-1.082,3.425 -2.044,6.953 -2.47,10.517c-0.155,1.294 -3.435,7.988 -3.38,12.238c0.07,5.439 -1.067,16.771 3.8,20.395c1.68,1.25 3.498,2.31 5.164,3.582c1.976,1.504 3.671,4.768 4.308,7.447c0.445,1.874 -5.325,2.965 -5.325,2.965l-13.272,0c-0,0 -2.401,-3.346 -4.026,-5.016c-1.511,-1.554 -1.636,-6.095 -2.11,-8.608c-0.444,-2.332 -0.489,-4.747 -0.745,-7.121c-0.387,-3.614 -0.873,-7.118 -3.022,-10.254c-0.795,-1.158 -0.81,-3.352 -0.45,-4.88c1.037,-4.415 2.068,-22.73 2.313,-24.828c1.025,-8.811 4.185,-22.37 3.576,-26.731c-0.355,-2.539 -29.261,9.094 -46.15,0c-8.001,-4.308 -32.296,-11.002 -39.538,-9.285Z"/></svg>