<?xml version="1.0" encoding="UTF-8" standalone="no"?><!DOCTYPE svg PUBLIC "-//W3C//DTD SVG 1.1//EN" "http://www.w3.org/Graphics/SVG/1.1/DTD/svg11.dtd"><svg width="100%" height="100%" viewBox="0 0 308 237" version="1.1" xmlns="http://www.w3.org/2000/svg" xmlns:xlink="http://www.w3.org/1999/xlink" xml:space="preserve" xmlns:serif="http://www.serif.com/" style="fill-rule:evenodd;clip-rule:evenodd;stroke-linejoin:round;stroke-miterlimit:2;"><path id="_07F-SHARPEI" serif:id="07F-SHARPEI" d="M256.147,1.813c2.291,0.643 4.966,1.825 5.944,2.628c0.978,0.808 3.987,2.082 6.675,2.842c6.557,1.85 10.922,5.433 12.104,9.959c0.842,3.222 1.777,3.938 6.848,5.286c9.678,2.572 18.377,6.308 19.405,8.336c0.786,1.549 0.985,15.955 0.31,22.257c-0.093,0.839 -3.746,4.955 -8.118,9.133c-6.557,6.265 -9.3,8.011 -15.584,9.928c-4.192,1.286 -8.941,2.334 -10.551,2.334c-3.87,-0 -7.523,2.015 -7.523,4.152c0,0.95 -1.808,3.706 -4.012,6.131c-2.204,2.432 -4.384,6.113 -4.836,8.183c-0.458,2.07 -1.9,5.12 -3.213,6.768c-1.356,1.709 -2.83,6.094 -3.412,10.18c-0.613,4.293 -2.198,8.899 -3.944,11.459c-1.61,2.352 -3.263,6.707 -3.684,9.671c-0.774,5.458 -2.229,7.932 -10.811,18.344c-3.807,4.612 -6.074,9.574 -11.039,24.169c-5.282,15.502 -6.365,20.188 -6.978,30.049c-0.911,14.785 -0.254,17.419 4.835,19.52c6.991,2.891 10.173,10.002 5.567,12.439c-3.276,1.734 -26.154,1.519 -29.801,-0.281c-4.062,-2.003 -9.826,-20.274 -12.34,-39.083c-1.034,-7.767 -2.718,-16.899 -3.734,-20.286c-1.727,-5.757 -2.099,-6.161 -5.665,-6.204c-2.105,-0.019 -7.832,-0.778 -12.736,-1.679c-4.904,-0.894 -13.628,-2.474 -19.38,-3.497c-5.752,-1.029 -16.185,-4.024 -23.182,-6.658c-17.931,-6.749 -24.494,-8.544 -28.011,-7.674c-2.142,0.533 -5.077,3.742 -9.684,10.596c-8.452,12.562 -14.984,19.067 -28.054,27.923c-18,12.195 -22.433,17.916 -22.452,28.983c-0.006,2.971 0.638,4.092 2.811,4.906c3.462,1.305 7.883,6.676 7.883,9.586c-0,3.503 -3.901,4.587 -16.489,4.587c-13.17,0 -17.17,-0.998 -19.225,-4.789c-0.756,-1.403 -1.957,-11.711 -2.663,-22.895c-1.417,-22.436 -0.792,-27.042 4.551,-33.32c5.319,-6.253 7.882,-13.866 8.916,-26.49c2.434,-29.76 6.985,-46.959 16.142,-61.01c5.009,-7.674 5.201,-8.317 5.201,-17.131c0,-12.311 2.557,-20.316 8.551,-26.747c7.554,-8.103 20.327,-10.853 32.067,-6.897c10.829,3.651 17.361,14.92 11.826,20.396c-3.177,3.142 -6.099,3.148 -10.124,0.018c-4.786,-3.723 -11.721,-4.281 -14.841,-1.194c-1.381,1.366 -2.514,3.589 -2.514,4.943c-0,2.248 0.427,2.376 5.052,1.55c5.369,-0.962 27.733,-0.931 45.472,0.061c5.882,0.331 12.303,0.563 14.266,0.52c6,-0.14 10.557,-0.14 13.671,0.006c7.492,0.343 11.374,-0.575 13.523,-3.203c1.659,-2.027 3.226,-2.64 6.154,-2.389c2.446,0.209 4.786,-0.428 6.192,-1.684c1.238,-1.115 3.628,-2.021 5.3,-2.021c2.272,-0 3.238,-0.76 3.802,-2.977c0.452,-1.782 2.303,-3.699 4.631,-4.802c2.136,-1.004 4.923,-3.76 6.21,-6.137c1.282,-2.37 4.025,-5.108 6.087,-6.076c2.656,-1.249 4.148,-3.062 5.114,-6.21c0.917,-3.014 2.954,-5.592 6.334,-8.012c2.743,-1.966 5.975,-5.114 7.176,-6.994c2.669,-4.171 14.384,-10.07 23.256,-11.705c7.833,-1.445 17.164,-1.366 22.724,0.202"/></svg>