<?xml version="1.0" encoding="UTF-8" standalone="no"?><!DOCTYPE svg PUBLIC "-//W3C//DTD SVG 1.1//EN" "http://www.w3.org/Graphics/SVG/1.1/DTD/svg11.dtd"><svg width="100%" height="100%" viewBox="0 0 308 214" version="1.1" xmlns="http://www.w3.org/2000/svg" xmlns:xlink="http://www.w3.org/1999/xlink" xml:space="preserve" xmlns:serif="http://www.serif.com/" style="fill-rule:evenodd;clip-rule:evenodd;stroke-linejoin:round;stroke-miterlimit:2;"><path id="_07C-EBULLDOG" serif:id="07C-EBULLDOG" d="M260.753,2.272c-10.359,-2.681 -17.863,-2.484 -36.517,0.973c-10.743,1.991 -15.585,5.262 -18.204,12.296c-0.973,2.625 -6.339,7.11 -12.016,10.064c-5.655,2.921 -13.426,8.16 -17.285,11.628c-4.458,4.004 -9.268,6.301 -13.17,6.301c-3.378,0 -9.696,1.521 -14.046,3.38c-7.398,3.162 -9.6,3.085 -35.426,-1.334c-31.022,-5.295 -46.02,-4.824 -65.144,2.056c-6.574,2.363 -13.779,4.299 -16.002,4.299c-5.548,0 -13.544,8.128 -13.544,13.762c-0,2.549 -2.384,9.955 -5.292,16.453c-5.077,11.354 -5.227,12.831 -3.891,37.532c1.379,25.51 1.347,25.784 -4.094,33.911c-6.414,9.561 -6.414,9.605 -3.464,32.271c3.453,26.506 2.701,27.17 25.592,27.17c24.805,0 26.853,-4.745 18.012,-14.218c-5.537,-5.929 -6.221,-7.854 -5.067,-14.374c1.988,-11.289 4.875,-15.709 16.377,-24.963c5.751,-4.628 13.02,-12.876 16.141,-18.334c5.645,-9.867 5.709,-9.9 14.635,-8.642c4.928,0.689 16.141,4.944 24.918,9.462c21.144,10.885 35.34,14.987 51.813,14.987l13.587,-0l2.469,12.208c1.347,6.706 2.459,14.615 2.459,17.568c-0,2.954 1.689,7.614 3.752,10.371c2.074,2.756 4.351,6.673 5.077,8.718c2.106,5.896 11.374,8.292 26.223,6.772c7.418,-0.755 14.666,-2.123 16.109,-3.031c3.624,-2.297 1.999,-8.631 -2.929,-11.42c-8.701,-4.934 -9.097,-10.316 -2.961,-39.184c2.897,-13.587 5.73,-21.518 8.99,-25.106c6.745,-7.449 9.332,-13.346 8.039,-18.378c-0.674,-2.636 1.069,-8.16 4.404,-13.991c4.447,-7.767 6.628,-9.637 11.203,-9.637c3.132,-0 8.039,-1.893 10.903,-4.201c2.876,-2.308 8.082,-4.201 11.567,-4.201c8.306,0 21.764,-12.208 23.56,-21.353c1.935,-9.944 -8.103,-31.023 -15.522,-32.566c-3.42,-0.722 -5.099,-2.188 -4.457,-3.905c2.811,-7.515 -10.53,-19.133 -26.799,-23.344Z"/></svg>