<?xml version="1.0" encoding="UTF-8" standalone="no"?><!DOCTYPE svg PUBLIC "-//W3C//DTD SVG 1.1//EN" "http://www.w3.org/Graphics/SVG/1.1/DTD/svg11.dtd"><svg width="100%" height="100%" viewBox="0 0 308 238" version="1.1" xmlns="http://www.w3.org/2000/svg" xmlns:xlink="http://www.w3.org/1999/xlink" xml:space="preserve" xmlns:serif="http://www.serif.com/" style="fill-rule:evenodd;clip-rule:evenodd;stroke-linejoin:round;stroke-miterlimit:2;"><path id="_08E-ROTVEILER" serif:id="08E-ROTVEILER" d="M267.717,2.173c6.414,1.398 8.941,2.769 13.095,7.105c3.529,3.684 5.147,6.571 5.147,9.186c0,2.097 0.844,4.494 1.874,5.327c1.374,1.11 13.865,3.923 17.889,4.029c0.158,0.004 0.882,1.088 1.609,2.41c1.416,2.577 -0.769,14.186 -3.648,19.373c-2.554,4.603 -13.196,8.775 -24.376,9.56l-10.009,0.701l-1.608,7.845c-2.147,10.475 -5.292,19.645 -8.461,24.656c-1.427,2.261 -3.246,8.682 -4.039,14.268c-1.785,12.569 -5.735,20.356 -16.505,32.538c-7.594,8.592 -8.627,10.515 -12.123,22.576c-2.411,8.315 -4.379,19.463 -5.332,30.183c-1.774,19.982 -0.609,29.763 3.632,30.52c5.953,1.063 10.475,8.996 7.271,12.756c-2.212,2.593 -22.435,2.542 -26.261,-0.068c-1.632,-1.113 -3.722,-5.13 -5.03,-9.671c-1.231,-4.272 -3.132,-8.489 -4.224,-9.372c-1.274,-1.03 -1.986,-3.997 -1.993,-8.307c-0.004,-3.688 -1.208,-13.472 -2.676,-21.742c-1.468,-8.271 -2.673,-16.923 -2.677,-19.228c-0.008,-3.825 -0.448,-4.261 -5.046,-4.997c-13.039,-2.088 -32.017,-7.388 -46.676,-13.032c-12.018,-4.629 -18.528,-6.371 -25.635,-6.861c-12.454,-0.859 -17.232,1.362 -26.283,12.223c-9.447,11.337 -21.28,20.753 -38.446,30.595c-17.018,9.756 -21.265,13.255 -24.596,20.26c-3.057,6.428 -3.457,17.652 -0.63,17.652c2.487,0 7.485,6.198 7.485,9.284c-0,4.596 -8.888,6.342 -21.75,4.272c-6.874,-1.106 -6.983,-3.491 -6.983,-27.85c-0,0 0.248,-15.286 0.908,-20.127c0.476,-3.492 7.334,-7.768 7.334,-7.768c11.201,-11.861 13.438,-17.804 15.151,-40.233c1.673,-21.914 3.915,-32.609 8.799,-41.995c3.46,-6.646 3.47,-6.759 1.127,-11.819c-2.323,-5.015 -2.313,-5.162 0.536,-7.936c2.617,-2.548 3.451,-2.684 8.488,-1.375c4.853,1.262 6.686,1.048 14.002,-1.634c11.115,-4.073 24.021,-5.487 64.384,-7.059c18.784,-0.731 37.42,-2.129 42.304,-3.175c21.483,-4.599 32.495,-11.604 40.115,-25.523c4.91,-8.971 14.604,-21.8 21.881,-28.959c8.483,-8.345 26.338,-11.998 41.976,-8.588"/></svg>