<?xml version="1.0" encoding="UTF-8" standalone="no"?><!DOCTYPE svg PUBLIC "-//W3C//DTD SVG 1.1//EN" "http://www.w3.org/Graphics/SVG/1.1/DTD/svg11.dtd"><svg width="100%" height="100%" viewBox="0 0 308 237" version="1.1" xmlns="http://www.w3.org/2000/svg" xmlns:xlink="http://www.w3.org/1999/xlink" xml:space="preserve" xmlns:serif="http://www.serif.com/" style="fill-rule:evenodd;clip-rule:evenodd;stroke-linejoin:round;stroke-miterlimit:2;"><path id="L11-HEKTHOR" d="M47.287,118.567c-23.364,1.457 -15.294,48.551 -43.936,75.098c-6.17,5.007 1.066,-26.798 1.066,-26.798c0,-0 6.823,-13.306 11.168,-28.114c9.447,-28.303 36.264,-49.648 43.292,-53.78c13.244,-7.774 101.789,-16.709 117.226,-19.054c7.428,-1.122 17.864,-9.366 26.093,-18.434c9.334,-10.26 29.345,-40.729 33.228,-41.846c8.444,-2.424 21.89,-5.784 25.338,-5.481c6.129,0.528 5.906,2.283 6.333,8.132c0.426,5.386 7.184,13.643 7.31,13.913c2.679,5.15 26.58,10.37 32.681,14.081c3.47,2.113 -4.502,12.483 -7.05,14.559c-3.515,2.864 -29.241,4.605 -32.56,4.891c-4.381,0.368 -4.965,0.132 -6.183,2.048c-14.972,23.612 -14.737,46.518 -22.44,65.293c-1.864,4.542 -10.75,16.632 -18.794,23.119l-0.487,0.741c0,-0 -3.779,5.61 -5.48,12.269c-2.911,11.454 -4.768,20.432 -5.641,34.115c-0.696,10.916 -0.604,19.554 6.301,27.672c0.704,0.852 2.003,1.511 3.116,1.661c6.909,0.926 6.845,3.46 8.655,10.275c0.575,2.118 -0.199,2.74 -2.069,2.839c-5.132,0.23 -10.279,0.697 -15.401,0.57c-1.908,-0.056 -4.189,-1.109 -5.542,-2.454c-2.063,-2.055 -3.407,-4.824 -5.237,-7.15c-0.601,-0.789 -3.928,-21.593 -4.343,-25.433c-1.648,-15.396 -3.308,-21.374 -4.831,-36.787c-0.185,-1.772 0.507,-8.375 -0.309,-10.513c-31.777,6.392 -81.368,-25.791 -81.163,-24.55c2.521,14.477 -57.958,56.995 -65.865,65.47c-0.833,0.898 -1.759,2.128 -1.811,3.243c-0.357,7.27 -0.667,14.559 -0.592,21.841c0.029,2.51 1.57,4.177 4.662,4.657c4.986,0.779 7.262,3.478 7.444,7.433c0.105,2.238 -0.65,3.741 -3.155,3.838c-3.426,0.134 -6.767,0.456 -10.195,0.426c-5.606,-0.053 -6.714,-0.939 -8.653,-6.298c-0.502,-1.389 -0.93,-2.815 -1.231,-4.263c-1.358,-6.424 -2.246,-12.984 -4.081,-19.273c-2.101,-7.216 -1.658,-13.247 4.321,-18.658c3.121,-2.818 5.428,-6.604 5.514,-11.161c0.191,-10.479 0.463,-50.936 13.301,-58.112l-0,-0.025Z" style="fill-rule:nonzero;"/></svg>