<?xml version="1.0" encoding="UTF-8" standalone="no"?><!DOCTYPE svg PUBLIC "-//W3C//DTD SVG 1.1//EN" "http://www.w3.org/Graphics/SVG/1.1/DTD/svg11.dtd"><svg width="100%" height="100%" viewBox="0 0 308 238" version="1.1" xmlns="http://www.w3.org/2000/svg" xmlns:xlink="http://www.w3.org/1999/xlink" xml:space="preserve" xmlns:serif="http://www.serif.com/" style="fill-rule:evenodd;clip-rule:evenodd;stroke-linejoin:round;stroke-miterlimit:2;"><path id="_09E-LABRADOR" serif:id="09E-LABRADOR" d="M265.782,1.609c10.732,2.069 19.136,9.706 19.136,17.391c-0,4.38 2.816,6.858 12.322,10.844c4.28,1.794 8.572,4.051 9.538,5.012c3.696,3.682 -1.917,17.001 -9.202,21.836c-3.425,2.273 -6.566,2.811 -16.55,2.833c-6.777,0.015 -13.075,0.547 -13.997,1.184c-0.921,0.636 -4.043,7.135 -6.937,14.444c-4.194,10.585 -5.493,15.943 -6.4,26.362c-1.366,15.729 -4.445,24.144 -13.697,37.437c-6.079,8.734 -7.126,11.324 -10.029,24.809c-3.8,17.644 -6.515,43.632 -5.345,51.164c0.639,4.123 1.665,5.668 4.667,7.021c4.205,1.896 6.341,5.184 6.341,9.76c0,4.168 -5.56,6.122 -14.902,5.237c-9.401,-0.891 -12.675,-4.226 -14.816,-15.095c-0.785,-3.986 -2.332,-8.231 -3.44,-9.436c-1.106,-1.206 -1.689,-3.106 -1.296,-4.223c0.395,-1.118 -0.432,-10.407 -1.836,-20.644c-1.405,-10.236 -2.715,-20.464 -2.912,-22.728c-0.35,-4.031 -0.698,-4.211 -16.705,-8.697c-8.991,-2.52 -21.081,-6.21 -26.868,-8.201c-14.629,-5.03 -26.923,-10.703 -32.847,-8.967c-3.783,1.109 -4.902,7.386 -10.153,15.097c-8.167,11.994 -12.31,16.021 -25.451,24.742c-21.867,14.512 -24.27,17.435 -26.399,32.092c-0.986,6.786 -0.866,7.192 3.344,11.362c4.913,4.867 5.697,10.056 1.857,12.294c-1.38,0.803 -5.785,1.461 -9.787,1.461c-5.998,-0 -7.839,-0.61 -10.461,-3.466c-3.58,-3.896 -3.727,-6.344 -2.051,-34.327l0.952,-15.907l6.067,-6.704c7.293,-8.062 9.32,-14.193 11.305,-34.195c1.742,-17.554 3.296,-24.951 7.341,-34.946l3.002,-7.412l-8.915,-0c-11.866,-0 -20.02,-3.088 -35.232,-13.34c-6.973,-4.701 -15.352,-10.276 -18.621,-12.393c-3.27,-2.116 -5.944,-4.422 -5.944,-5.124c-0,-0.702 1.643,-2.016 3.653,-2.923c4.68,-2.11 11.846,-0.427 29.359,6.892c7.168,2.996 15.368,6.273 18.222,7.283c7.705,2.725 24.178,2.116 39.56,-1.463c9.408,-2.19 21.44,-3.559 38.912,-4.431c35.38,-1.766 44.008,-3.363 61.929,-11.459c11.193,-5.057 16.323,-10.807 25.245,-28.294c7.074,-13.866 16.228,-25.546 22.944,-29.275c5.772,-3.205 16.874,-4.491 25.097,-2.907"/></svg>