<?xml version="1.0" encoding="UTF-8" standalone="no"?><!DOCTYPE svg PUBLIC "-//W3C//DTD SVG 1.1//EN" "http://www.w3.org/Graphics/SVG/1.1/DTD/svg11.dtd"><svg width="100%" height="100%" viewBox="0 0 308 238" version="1.1" xmlns="http://www.w3.org/2000/svg" xmlns:xlink="http://www.w3.org/1999/xlink" xml:space="preserve" xmlns:serif="http://www.serif.com/" style="fill-rule:evenodd;clip-rule:evenodd;stroke-linejoin:round;stroke-miterlimit:2;"><path id="_09F-RETRIEVER" serif:id="09F-RETRIEVER" d="M47.664,236.976c2.657,-4.058 1.067,-11.034 -3.13,-12.714c-5.956,-2.384 -3.381,-5.504 -3.342,-13.575c0.049,-10.169 7.862,-8.851 10.787,-18.283c0.493,-1.59 45.194,-26.349 48.729,-34.314c2.116,-4.771 6.451,-0.956 14.68,-0c12.642,1.468 26.263,4.98 30.339,11.01c4.075,6.031 41.399,5.323 43.526,13.765c2.755,10.941 8.53,20.856 8.588,32.238c0.03,6.134 6.825,4.71 7.655,10.803c0.558,4.097 2.246,7.932 5.74,9.389c4.704,1.962 12.079,1.789 17.018,1.681c3.248,-0.075 7.231,-0.614 6.61,-4.384c-0.174,-1.049 -0.358,-2.101 -0.599,-3.132c-0.702,-2.991 -5.239,-5.868 -7.997,-6.284c-3.185,-0.474 -3.559,-8.563 -3.518,-12.489c0.071,-6.712 1.717,-11.636 1.137,-18.283c-0.728,-8.381 6.793,-12.9 8.232,-20.985c0.171,-0.958 0.515,-1.885 0.625,-2.847c0.56,-4.857 2.231,-8.363 6.575,-10.482c2.531,-1.238 4.514,-4.321 6.384,-6.917c4.921,-6.841 6.809,-16.574 7.269,-16.018c2.91,3.509 14.644,-17.317 16.976,-38.451c0.696,-6.308 -2.033,-12.657 -2.84,-18.377c-0.514,-3.639 4.635,-7.396 5.378,-10.814c1.043,-4.805 -1.957,-8.879 -0.873,-10.474c2.867,-4.217 19.166,-2.748 23.645,-3.414c7.701,-1.147 11.743,-15.553 12.331,-17.761c0.228,-0.86 0.677,-8.286 -0,-8.737c-1.354,-0.901 -18.484,-6.187 -22.916,-6.358c-3.283,-0.126 -2.387,-7.798 -2.837,-8.635c-2.083,-3.862 -7.987,-9.07 -11.888,-9.821c-3.303,-0.634 -6.634,-1.469 -9.956,-1.498c-6.458,-0.058 -21.306,2.225 -25.727,8.552c-3.271,4.686 -4.395,7.058 -7.997,11.402c-6.037,7.277 -8.84,17.434 -15.032,24.544c-1.605,1.84 -7.394,9.895 -9.009,11.726c-4.575,5.187 -44.544,18.431 -55.589,16.738c-8.533,-1.31 -61.564,-0.047 -69.951,1.993c-31.391,7.638 -21.573,10.241 -32.781,15.176c-44.412,19.553 -43.781,106.99 -42.763,107.115c17.335,2.125 25.03,-50.867 37.809,-69.19c2.557,-3.667 -0.386,15.409 -2.05,16.523c-1.209,0.812 -1.909,26.601 -2.386,28.192c-0.65,2.157 -1.02,4.557 -0.969,6.836c0.141,6.278 -7.476,5.715 -7.564,11.982c-0.159,11.308 -0.691,22.613 -1.21,33.912c-0.129,2.85 0.566,5.104 2.729,6.276c2.218,1.198 4.614,2.096 7.014,2.703c3.089,0.783 6.256,1.141 9.39,1.681l3.758,-0Z" style="fill-rule:nonzero;"/></svg>