<?xml version="1.0" encoding="UTF-8" standalone="no"?><!DOCTYPE svg PUBLIC "-//W3C//DTD SVG 1.1//EN" "http://www.w3.org/Graphics/SVG/1.1/DTD/svg11.dtd"><svg width="100%" height="100%" viewBox="0 0 305 237" version="1.1" xmlns="http://www.w3.org/2000/svg" xmlns:xlink="http://www.w3.org/1999/xlink" xml:space="preserve" xmlns:serif="http://www.serif.com/" style="fill-rule:evenodd;clip-rule:evenodd;stroke-linejoin:round;stroke-miterlimit:2;"><path id="_06D-POINTER2" serif:id="06D-POINTER2" d="M274.492,1.437c3.604,2.31 10.504,7.399 12.425,12.422c2.464,6.458 -8.445,15.852 -0,21.177c6.296,3.969 17.846,4.826 17.829,6.766c-0.053,6.278 0.385,15.262 -4.517,18.267c-4.017,2.467 -36.517,0.769 -34.826,7.422c5.276,20.747 -17.136,69.174 -31.382,75.799c-7.328,3.407 -8.463,23.936 -9.497,50.955l-0.895,23.679l5.209,3.666c5.63,3.957 7.007,11.144 2.552,13.319c-1.465,0.728 -6.384,1.311 -10.944,1.311c-8.217,0 -9.366,-0.818 -16.355,-11.704c-5.639,-8.779 -8.087,-26.874 -8.262,-52.716c-0.097,-13.924 -47.132,-15.092 -50.994,-15.976c-24.236,-5.547 -41.308,-17.523 -43.299,-12.534c-5.042,12.68 -14.823,26.122 -30.854,37.95c-11.374,8.386 -14.233,11.615 -16.89,19.082c-4.332,12.22 -4.069,16.604 1.368,22.221c6.823,7.04 3.719,12.388 -7.699,13.251c-14.698,1.099 -15.452,-0.235 -15.452,-27.557c0,-0 -0.982,-18.355 0,-23.533c0.655,-3.451 5.893,-7.534 5.893,-7.534c3.245,-4.148 5.893,-8.128 5.893,-8.857c0,-0.728 -2.648,0.763 -5.893,3.33c-2.218,1.748 -7.971,3.274 -10.523,4.53c-6.209,3.038 -18.82,11.725 -25.537,-4.373c-3.848,-9.222 -2.147,-28.845 9.692,-31.715c13.215,-3.207 19.879,-1.179 25.29,-28.535c5.559,-28.118 14.911,-29.373 31.467,-40.17c13.672,-8.913 26.317,-10.673 66.314,-9.182c31.938,1.177 37.048,-0.692 48.623,-3.966c7.393,-2.097 25.142,-16.584 31.965,-30.407c3.209,-6.514 9.348,-15.954 13.645,-20.988c7.112,-8.341 42.286,-7.553 45.654,-5.4"/></svg>