<?xml version="1.0" encoding="UTF-8" standalone="no"?><!DOCTYPE svg PUBLIC "-//W3C//DTD SVG 1.1//EN" "http://www.w3.org/Graphics/SVG/1.1/DTD/svg11.dtd"><svg width="100%" height="100%" viewBox="0 0 308 237" version="1.1" xmlns="http://www.w3.org/2000/svg" xmlns:xlink="http://www.w3.org/1999/xlink" xml:space="preserve" xmlns:serif="http://www.serif.com/" style="fill-rule:evenodd;clip-rule:evenodd;stroke-linejoin:round;stroke-miterlimit:2;"><path id="_09G-HEKTHOR" serif:id="09G-HEKTHOR" d="M52.627,106.636c-2.992,-16.007 22.268,-31.591 30.295,-36.162c15.125,-8.598 83.378,-2.006 101.007,-4.6c8.484,-1.24 20.402,-10.359 29.8,-20.388c10.66,-11.348 31.776,-42.286 36.211,-43.521c9.643,-2.681 10.078,-0.334 14.016,0c6.999,0.584 0.75,0.957 1.188,7.429c0.166,2.454 13.374,1.359 17.474,12.715c2.188,6.061 17.378,7.423 24.346,11.527c3.963,2.337 -5.142,13.807 -8.052,16.103c-1.722,1.359 -10.722,3.851 -12.886,4.031c-5.005,0.407 -13.231,1.18 -14.622,3.299c-17.099,26.116 -15.802,37.068 -18.58,58.502c-0.699,5.387 -19.568,28.837 -21.511,36.203c-3.324,12.668 -5.918,22.851 -6.914,37.985c-0.795,12.073 -2.917,18.815 -0,31.147c0.282,1.192 2.933,3.821 4.103,4.328c4.211,1.82 4.584,0.795 6.651,8.332c0.657,2.343 -0.227,3.031 -2.362,3.14c-5.861,0.255 -7.954,-0.123 -13.803,-0.263c-2.18,-0.061 -7.409,-1.388 -8.953,-2.877c-2.357,-2.272 0.481,-19.099 -2.855,-19.626c-2.954,-0.466 -2.559,-8.24 -3.033,-12.487c-1.882,-17.029 0.933,-50.104 0,-52.469c-20.804,2.541 -46.513,-3.4 -63.988,-14.406c-13.879,-8.741 -28.378,-4.944 -28.271,-4.319c2.879,16.012 -56.395,57.005 -65.569,60.824c-1.285,0.535 -2.008,2.353 -2.069,3.586c-0.408,8.041 -0.761,16.103 -0.676,24.157c0.033,2.777 1.793,4.62 5.325,5.15c5.694,0.862 8.293,3.848 8.501,8.222c0.12,2.475 -0.742,4.137 -3.604,4.245c-3.912,0.148 -7.727,0.504 -11.642,0.471c-6.403,-0.059 -7.667,-1.039 -9.882,-6.966c-0.573,-1.536 -1.063,-3.113 -1.406,-4.714c-1.551,-7.105 -2.565,-14.362 -4.661,-21.317c-2.399,-7.981 -1.894,-14.652 4.935,-20.636c3.564,-3.117 21.621,-26.604 17.759,-23.225c-16.316,14.274 -48.651,-10.475 -48.03,-19.379c0.334,-4.786 12.175,-5.962 25.336,2.669c20.183,13.237 26.422,-36.71 26.422,-36.71Z" style="fill-rule:nonzero;"/></svg>