<?xml version="1.0" encoding="UTF-8" standalone="no"?><!DOCTYPE svg PUBLIC "-//W3C//DTD SVG 1.1//EN" "http://www.w3.org/Graphics/SVG/1.1/DTD/svg11.dtd"><svg width="100%" height="100%" viewBox="0 0 308 237" version="1.1" xmlns="http://www.w3.org/2000/svg" xmlns:xlink="http://www.w3.org/1999/xlink" xml:space="preserve" xmlns:serif="http://www.serif.com/" style="fill-rule:evenodd;clip-rule:evenodd;stroke-linejoin:round;stroke-miterlimit:2;"><path id="_06E-SETTER" serif:id="06E-SETTER" d="M241.656,222.97c-1.265,-3.189 -1.771,-11.442 -2.087,-16.18c-0.507,-7.628 -0.37,-15.306 -0.758,-22.947c-0.255,-5.033 -1.127,-10.028 -1.398,-15.062c-0.212,-3.913 19.543,-26.697 22.709,-43.339c1.241,-6.522 2.059,-45.581 2.445,-49.936c0.077,-0.871 5.491,-6.665 5.841,-9.674c0.499,-4.302 -2.134,-11.106 -2.844,-17.535c-0.462,-4.181 6.907,-9.852 9.649,-9.66c3.606,0.252 7.352,0.407 10.739,1.606c6.653,2.352 11.325,-0.67 15.352,-5.74c3.803,-4.787 5.298,-10.774 6.528,-16.811c0.447,-2.197 -0.41,-3.601 -2.485,-3.949c-1.751,-0.295 -3.524,-0.437 -5.274,-0.737c-4.505,-0.774 -9.008,-1.554 -13.498,-2.421c-1.87,-0.361 -3.035,-1.519 -3.78,-3.615c-0.532,-1.498 -1.766,-3.334 -3.05,-3.78c-9.547,-3.314 -19.168,-4.67 -28.603,0.531c-2.823,1.556 -4.988,3.856 -6.381,7.072c-2.815,6.501 -6.245,12.51 -10.679,17.968c-3.192,3.927 -5.302,8.882 -8.025,13.283c-5.551,8.976 -12.878,15.213 -22.984,16.658c-17.246,2.466 -34.505,4.812 -51.769,7.13c-10.036,1.349 -20.151,2.139 -30.111,3.965c-5.962,1.092 -11.871,3.217 -17.494,5.709c-23.886,10.587 -48.389,18.238 -74.267,19.935c-7.711,0.506 -15.405,1.499 -23.129,1.621c-5.089,0.08 -5.912,1.85 -5.24,2.269c1.723,1.072 16.944,21.653 35.602,26.111c8.806,2.104 37.214,-6.425 38.384,-7.643c0.975,-1.015 2.835,-2.456 2.81,-1.943c-0.099,1.998 -0.206,3.995 -0.323,5.993c-0.074,1.256 -2.688,16.555 -3.77,22.976c-0.244,1.448 -4.507,8.206 -6.474,12.475c-3.321,7.204 -12.937,27.285 -13.45,30.75c-0.577,3.904 -4.985,20.646 -6.132,22.019c-1.326,1.584 4.543,16.969 6.132,18.048c0.793,0.538 4.761,8.358 4.761,8.358l16.446,0c-0,0 3.836,-2.893 2.81,-6.327c-0.525,-1.759 -4.652,-3.17 -6.051,-4.225c-5.74,-4.333 -7.316,-9.788 -7.102,-16.709c0.208,-6.67 2.862,-12.163 7.102,-16.827c0.513,-0.564 18.309,-7.953 24.794,-14.597c4.611,-4.723 9.678,-8.913 14.5,-13.394c8.741,-8.123 16.791,-16.996 23.523,-27.156c3.557,-5.366 8.481,-6.303 13.885,-6.112c1.232,0.042 7.095,2.376 8.722,3.075c1.391,0.598 17.912,7.638 19.79,8.817c2.167,1.362 4.127,3.117 6.176,4.702c0.037,0.028 4.286,2.291 5.322,3.23c1.422,1.291 7.337,6.225 9.977,6.537c1.754,0.207 0.984,-0.259 2.71,3.887c0.293,0.704 5.759,24.615 6.785,26.674c1.348,2.704 4.178,9.641 5.295,11.508c3.572,5.968 4.602,7.946 4.883,12.676c0.143,2.422 1.309,3.994 2.268,5.832c0.862,1.651 1.831,3.237 2.668,4.904c1.824,3.634 7.398,13.505 7.398,13.505l16.251,0c0,0 5.645,-1.056 5.636,-1.723c-0.09,-6.428 -3.027,-7.093 -5.233,-8.829c-1.657,-1.305 -4.691,-0.907 -5.502,-2.953Z" style="fill-rule:nonzero;"/></svg>