<?xml version="1.0" encoding="UTF-8" standalone="no"?><!DOCTYPE svg PUBLIC "-//W3C//DTD SVG 1.1//EN" "http://www.w3.org/Graphics/SVG/1.1/DTD/svg11.dtd"><svg width="100%" height="100%" viewBox="0 0 306 237" version="1.1" xmlns="http://www.w3.org/2000/svg" xmlns:xlink="http://www.w3.org/1999/xlink" xml:space="preserve" xmlns:serif="http://www.serif.com/" style="fill-rule:evenodd;clip-rule:evenodd;stroke-linejoin:round;stroke-miterlimit:2;"><path id="_09E-LABRADOR" serif:id="09E-LABRADOR" d="M260.113,0.391c-25.209,-0.445 -32.067,7.098 -47.839,39.813c-11.441,23.731 -12.49,29.686 -54.824,27.925c-60.067,-2.499 -91.127,-8.045 -119.432,12.521c-42.193,30.657 -33.175,57.564 -37.226,79.847c2.593,-5.635 6.938,-10.186 9.531,-15.821c3.548,-7.709 5.52,-16.17 8.802,-24.016c4.385,-10.479 22.243,-24.171 21.117,-22.946l-1.526,2.998c-8.32,20.411 -6.542,57.809 -19.591,72.132l-6.373,6.993l-1,16.595c-0.173,2.865 -1.922,31.868 2.154,35.812c5.813,5.624 31.52,7.566 19.322,-10.734c-16.91,-25.37 34.16,-51.754 39.552,-56.959c14.463,-13.962 12.496,-20.93 31.732,-18.987c33.424,3.376 33.035,5.728 66.737,7.29c1.785,0.083 18.551,0.859 21.973,4.274c2.75,2.744 7.338,66.116 16.857,75.746c6.977,7.058 33.647,3.829 24.625,-7.633c-2.24,-2.846 -6.001,-3.899 -8.37,-6.621c-0.285,-0.328 -6.458,-46.823 14.632,-84.005c10.937,-19.284 9.274,-19.951 14.39,-39.057c2.474,-9.237 6.226,-18.036 8.7,-27.272c28,-3.657 29.955,0.258 37.379,-9.338c1.562,-2.019 3.243,-4.152 3.875,-6.694c0.876,-3.526 0.635,-7.291 0.508,-10.939c-0.407,-11.693 -22.801,-1.213 -29.38,-21.306c-0.438,-1.34 -0.708,-14.075 -12.382,-16.309c-0,-0 -1.367,-3.263 -3.943,-3.309Z"/></svg>