<?xml version="1.0" encoding="UTF-8" standalone="no"?><!DOCTYPE svg PUBLIC "-//W3C//DTD SVG 1.1//EN" "http://www.w3.org/Graphics/SVG/1.1/DTD/svg11.dtd"><svg width="100%" height="100%" viewBox="0 0 308 214" version="1.1" xmlns="http://www.w3.org/2000/svg" xmlns:xlink="http://www.w3.org/1999/xlink" xml:space="preserve" xmlns:serif="http://www.serif.com/" style="fill-rule:evenodd;clip-rule:evenodd;stroke-linejoin:round;stroke-miterlimit:2;"><path id="_03G-CANAAN" serif:id="03G-CANAAN" d="M261.269,1.188c0.563,0.877 1.622,5.484 2.363,10.245l1.341,8.643l8.71,-9.394c4.791,-5.159 9.263,-8.861 9.929,-8.218c0.656,0.642 -0.244,5.783 -2.016,11.422l-3.216,10.263l4.726,5.991c2.606,3.295 4.735,7.865 4.735,10.164c-0,2.96 2.465,5.973 8.4,10.263c12.47,9.024 13.417,11.295 6.901,16.59c-5.082,4.127 -6.263,4.326 -19.914,3.394c-12.489,-0.86 -14.908,-0.561 -17.374,2.109c-4.003,4.353 -7.913,14.055 -10.463,25.966c-2.888,13.521 -5.551,18.137 -17.908,30.953c-11.786,12.236 -12.939,15.53 -16.211,46.61c-2.035,19.305 -0.947,25.559 4.463,25.559c3.994,-0 7.022,6.625 4.406,9.666c-2.709,3.158 -21.414,3.394 -25.549,0.325c-3.985,-2.95 -7.867,-18.988 -10.417,-43.008c-1.162,-10.987 -2.409,-20.454 -2.775,-21.033c-0.366,-0.579 -6.957,-1.503 -14.664,-2.064c-7.801,-0.561 -21.583,-3.33 -31.109,-6.245c-22.118,-6.769 -33.819,-9.24 -37.888,-7.991c-1.801,0.552 -5.317,4.362 -7.811,8.48c-5.391,8.879 -23.889,25.849 -33.2,30.455c-10.951,5.422 -15.217,11.105 -16.079,21.405c-0.694,8.281 -0.366,9.304 3.45,10.879c5.841,2.407 6.563,8.779 1.163,10.172c-7.36,1.91 -13.558,1.195 -17.683,-2.027c-3.535,-2.769 -4.145,-5.24 -4.951,-20.101l-0.919,-16.943l6.338,-6.399c3.488,-3.529 7.361,-8.362 8.598,-10.752l2.26,-4.344l-4.294,3.792c-2.363,2.091 -6.573,4.634 -9.358,5.648c-7.378,2.697 -28.662,2.344 -32.75,-0.543c-3.234,-2.29 -3.253,-2.598 -0.281,-6.978c1.716,-2.525 8.279,-6.942 14.58,-9.811c13.351,-6.091 15.564,-8.86 20.936,-26.174c7.454,-23.984 15.386,-35.044 29.122,-40.583c17.336,-6.996 26.468,-8.055 68.866,-8c34.559,0.045 43.935,-0.498 56.705,-3.295c13.924,-3.05 15.921,-4.036 22.193,-10.833c6.188,-6.689 12.414,-13.35 18.677,-19.975c6.479,-6.86 13.426,-15.603 15.433,-19.413c4.856,-9.223 11.279,-16.843 12.535,-14.87"/></svg>