<?xml version="1.0" encoding="UTF-8" standalone="no"?><!DOCTYPE svg PUBLIC "-//W3C//DTD SVG 1.1//EN" "http://www.w3.org/Graphics/SVG/1.1/DTD/svg11.dtd"><svg width="100%" height="100%" viewBox="0 0 308 237" version="1.1" xmlns="http://www.w3.org/2000/svg" xmlns:xlink="http://www.w3.org/1999/xlink" xml:space="preserve" xmlns:serif="http://www.serif.com/" style="fill-rule:evenodd;clip-rule:evenodd;stroke-linejoin:round;stroke-miterlimit:2;"><path id="_10D-MALINOS" serif:id="10D-MALINOS" d="M253.942,0.269c1.278,0.321 3.346,2.776 3.138,10.056c-0,-0 2.007,-6.41 5.615,-6.02c1.741,0.188 -0,15.62 -0,15.62c7.36,1.807 19.618,12.031 19.654,12.141c1.66,5.152 -0.313,6.696 10.679,13.574c12.282,7.687 14.092,8.328 14.092,10.769c0,3.046 -8.734,9.955 -13.3,12.503c-4.201,2.345 -5.428,-2.746 -13.612,-3.958c-4.805,-0.707 -9.714,-1.289 -10.915,-1.289c-3.296,0 -5.829,3.694 -6.598,9.631c-0.385,2.938 -4.278,14.511 -10.689,24.979c-5.844,9.543 -3.701,8.263 -13.729,19.734c-3.13,3.581 -11.762,22.142 -15.376,26.256c-7.228,8.233 -4.997,17.324 -8.793,34.33c-2.158,9.667 -4.16,29.965 -3.39,34.312l0.977,5.481c0.369,2.057 1.368,2.939 3.952,3.496c5.507,1.194 10.202,9.601 7.254,13.001c-1.144,1.319 -3.864,1.685 -11.793,1.571c-11.648,-0.162 -13.827,-1.415 -15.959,-9.181c-0.624,-2.285 -1.851,-5.445 -2.724,-7.028c-1.129,-2.045 -2.091,-9.702 -3.333,-26.451c-0.957,-12.97 3.457,-40.549 3.333,-41.956c-0.256,-2.895 -4.599,-2.496 -23.349,-3.042c-12.112,-0.352 -26.854,-3.178 -39.636,-8.407c-18.864,-7.717 -34.879,-13.791 -37.491,-9.444c-9.874,16.448 -32.29,51.096 -51.613,57.303c-5.714,1.834 -10.137,4.329 -12.201,5.546c-7.972,4.69 -7.707,14.464 -7.629,24.238c0.032,3.263 0.645,4.474 3.219,6.339c3.401,2.464 5.429,7.166 4.41,10.224c-0.515,1.547 -2.356,1.859 -10.977,1.859c-14.326,-0 -14.154,0.252 -14.159,-21.27l8.681,-29.198c-0,0 16.204,-18.409 16.455,-19.494c0.002,-0.011 9.085,-22.226 9.083,-22.229c-0.372,-0.429 2.369,-23.559 8.123,-41.976c0.331,-1.06 2.239,-3.627 -0,-4.014c-11.169,-1.933 -14.791,20.301 -36.634,18.727c-6.169,-0.444 -12.581,-7.145 -5.708,-22.164c1.246,-2.722 8.374,2.817 8.681,2.26c2.221,-4.035 43.987,-15.673 46.737,-16.766c11.595,-4.611 29.748,-11.051 63.355,-11.42c22.268,-0.244 25.788,3.448 35.449,4.384c6.284,0.608 21.223,-3.624 35.204,-8.342c9.426,-3.18 39.53,-28.437 47.801,-34.018c5.425,-3.659 7.702,-19.622 9.188,-22.535c1.705,-3.341 3.25,-8.452 4.528,-8.132Z"/></svg>