<?xml version="1.0" encoding="UTF-8" standalone="no"?><!DOCTYPE svg PUBLIC "-//W3C//DTD SVG 1.1//EN" "http://www.w3.org/Graphics/SVG/1.1/DTD/svg11.dtd"><svg width="100%" height="100%" viewBox="0 0 308 237" version="1.1" xmlns="http://www.w3.org/2000/svg" xmlns:xlink="http://www.w3.org/1999/xlink" xml:space="preserve" xmlns:serif="http://www.serif.com/" style="fill-rule:evenodd;clip-rule:evenodd;stroke-linejoin:round;stroke-miterlimit:2;"><path id="_10B-COLIE" serif:id="10B-COLIE" d="M270.382,0.97c-1.697,-1.806 -12.211,0.747 -17.195,4.172c-3.247,2.242 -4.837,2.408 -6.456,0.685c-3.433,-3.653 -10.309,-2.657 -13.332,1.92c-1.522,2.325 -5.315,5.864 -8.417,7.867c-3.101,2.014 -9.002,9.3 -13.108,16.212c-12.044,20.26 -15.311,23.768 -28.058,30.12c-11.889,5.916 -12.806,6.051 -52.539,7.504c-32.808,1.214 -42.727,2.263 -52.606,5.573c-28.235,9.487 -41.167,24.661 -47.916,56.213c-2.867,13.409 -3.999,15.526 -13.654,25.501c-15.078,15.568 -17.048,19.315 -17.067,32.454c-0.01,12.434 1.355,18.174 3.93,16.482c0.927,-0.612 18.813,0.696 25.279,-3.809c2.468,-1.723 4.536,-2.885 4.584,-2.584c0.059,0.29 0.8,7.597 1.648,16.212c0.947,9.559 2.546,16.357 4.116,17.405c3.365,2.273 17.965,2.294 19.281,0.042c0.566,-0.976 -0.653,-4.027 -2.701,-6.799c-4.369,-5.905 -4.779,-13.056 -1.063,-18.464c2.41,-3.501 27.844,-11.167 46.033,-19.502c8.778,-4.016 21.388,-16.782 24.207,-24.494c1.726,-4.722 3.169,-6.009 5.89,-5.252c0.505,0.14 6.124,-0.504 8.637,4.536c4.55,9.128 14.585,3.954 19.118,10.5c6.168,8.907 21.796,11.888 22.784,11.97c2.712,0.218 3.599,1.36 2.975,3.861c-0.498,2.052 12.085,22.204 11.842,26.197c-0.008,0.12 0.047,0.206 0.047,0.27c-0,1.774 4.583,6.663 5.598,5.988c1.024,-0.674 3.257,1.9 4.964,5.709c3.277,7.317 6.876,9.195 17.526,9.133c12.103,-0.073 14.102,-11.624 3.823,-14.489c-5.042,-1.401 -6.252,-9.497 -3.823,-25.657c1.999,-13.285 6.202,-21.847 9.635,-19.595c0.907,0.602 9.87,-1.972 13.02,-4.785c3.141,-2.823 6.866,-5.127 8.281,-5.127c1.404,0 3.735,-1.785 5.169,-3.975c1.443,-2.18 3.111,-3.446 3.715,-2.802c1.405,1.494 6.993,-9.902 6.993,-14.261c0,-2.034 1.024,-2.885 2.653,-2.221c2.828,1.152 4.837,-2.501 4.837,-8.791c0,-2.097 1.054,-3.601 2.341,-3.321c1.512,0.321 2.545,-2.512 2.916,-8.013c0.371,-5.48 1.307,-8.043 2.604,-7.192c1.404,0.923 1.58,-1.038 0.585,-6.425c-0.79,-4.266 -1.746,-10.005 -2.136,-12.745c-1.268,-9.009 -1.804,-10.898 -4.818,-16.939c-1.638,-3.29 -3.276,-8.666 -3.637,-11.956c-0.654,-5.843 -0.478,-5.978 7.763,-6.124c4.632,-0.072 9.743,-0.301 11.352,-0.498c3.784,-0.457 11.118,-7.743 11.118,-11.043c0,-1.412 -5.1,-5.065 -11.323,-8.127c-9.245,-4.535 -11.527,-6.622 -12.415,-11.323c-1.024,-5.491 -16.19,-21.671 -14.649,-21.671c2.751,-0 3.931,-6.114 1.649,-8.542Z"/></svg>