<?xml version="1.0" encoding="UTF-8" standalone="no"?><!DOCTYPE svg PUBLIC "-//W3C//DTD SVG 1.1//EN" "http://www.w3.org/Graphics/SVG/1.1/DTD/svg11.dtd"><svg width="100%" height="100%" viewBox="0 0 308 238" version="1.1" xmlns="http://www.w3.org/2000/svg" xmlns:xlink="http://www.w3.org/1999/xlink" xml:space="preserve" xmlns:serif="http://www.serif.com/" style="fill-rule:evenodd;clip-rule:evenodd;stroke-linejoin:round;stroke-miterlimit:2;"><path id="_10C-BELGIAN" serif:id="10C-BELGIAN" d="M273.501,1.746c0.656,0.62 1.2,6.839 1.2,13.81c0,11.65 0.432,13.138 5.404,18.48c2.973,3.198 5.403,7.698 5.403,10.01c-0,3.11 2.786,6.237 10.806,12.119c5.947,4.359 10.806,8.868 10.806,10.028c0,3.066 -12.166,12.66 -16.05,12.66c-1.819,-0 -6.65,-1.116 -10.74,-2.481l-7.43,-2.471l0.216,7.149c0.113,3.942 0.741,9.452 1.398,12.26c1.913,8.212 -9.109,49.973 -14.137,53.578c-0.656,0.47 -2.176,3.145 -3.377,5.954c-1.2,2.808 -4.99,6.918 -8.423,9.133c-7.073,4.562 -4.022,10.386 -11.867,30.527c-7.12,18.285 1.861,29.376 7.836,33.07c4.289,2.656 7.625,12.246 4.031,11.462c-1.003,-0.218 -7.74,0 -10.071,0c-13.47,0 -8.943,0.706 -16.597,-7.129c-0.213,-0.218 -12.796,-18.267 -16.098,-32.415c-0.5,-2.138 -15.225,-0.127 -26.18,-9.903c-9.02,-8.05 -24.17,-7.558 -32.011,-13.484c-9.839,-7.437 -23.016,-12.473 -27.809,-7.654c-2.326,2.338 -10.713,7.654 -15.112,11.809c-4.399,4.154 -12.879,9.886 -18.827,12.721c-13.311,6.343 -34.604,6.086 -34.604,6.086l-5.16,5.351c-3.086,3.206 -5.684,8.283 -6.463,12.632c-1.182,6.591 -0.853,7.592 3.405,10.524c2.599,1.781 4.719,6.413 4.719,8.202c-0,2.853 -1.36,3.26 -10.741,3.26c-13.367,0 -14.474,-3.249 -14.474,-21.959l0,-13.669l-4.756,1.7c-2.608,0.94 -5.168,1.312 -5.684,0.824c-0.516,-0.487 -1.923,-0.115 -3.124,0.833c-5.338,4.181 -11.641,-16.158 -7.748,-25.017c1.153,-2.64 2.185,-5.174 2.288,-5.643c0.113,-0.47 4.437,-4.917 9.615,-9.896c5.169,-4.969 9.409,-10.063 9.409,-11.303c0,-1.25 2.308,-6.405 5.112,-11.455c2.815,-5.058 5.685,-11.304 6.37,-13.89c1.679,-6.317 14.249,-23.476 21.772,-29.713c12.251,-10.152 41.058,-16.894 78.411,-18.329c35.571,-1.373 66.639,-7.344 66.639,-12.81c0,-0.655 2.233,-3.481 4.953,-6.263c2.73,-2.782 7.645,-8.389 10.928,-12.464c3.293,-4.066 10.572,-10.48 16.172,-14.245c10.075,-6.768 12.711,-9.754 22.448,-25.345c5.6,-8.983 8.48,-8.841 8.667,0.398l0.122,6.281l3.405,-7.229c3.537,-7.53 3.968,-7.964 5.948,-6.094"/></svg>