<?xml version="1.0" encoding="UTF-8" standalone="no"?><!DOCTYPE svg PUBLIC "-//W3C//DTD SVG 1.1//EN" "http://www.w3.org/Graphics/SVG/1.1/DTD/svg11.dtd"><svg width="100%" height="100%" viewBox="0 0 308 238" version="1.1" xmlns="http://www.w3.org/2000/svg" xmlns:xlink="http://www.w3.org/1999/xlink" xml:space="preserve" xmlns:serif="http://www.serif.com/" style="fill-rule:evenodd;clip-rule:evenodd;stroke-linejoin:round;stroke-miterlimit:2;"><path id="_10A-BORDER" serif:id="10A-BORDER" d="M113.86,231.764c-0.864,-3.767 -4.735,-6.604 -7.864,-7.48c-14.814,-4.145 -20.083,-18.887 -8.408,-29.706c1.1,-1.014 1.733,-2.672 2.875,-3.582c13.522,-10.773 25.864,-22.495 27.051,-43.528c8.623,2.521 18.947,-0.64 24.019,4.616c5.769,5.981 29.884,17.987 36.699,18.081c6.4,0.091 6.247,5.505 7.774,8.947c4.653,10.491 16.754,40.339 20.144,54.003c0.671,2.707 6.707,4.001 6.707,4.001l18.072,0.037c-0,-0 3.465,-4.132 2.704,-5.989c-2.63,-6.415 -8.645,-3.326 -11.969,-7.189c-1.981,-2.302 -4.957,-6.356 -6.203,-8.742c-6.555,-12.548 3.216,-48.808 15.438,-52.38c7.986,-2.335 12.473,-6.449 15.919,-13.562c1.806,-3.727 10.621,-23.106 10.51,-43.043c-0.037,-6.493 -2.17,-13.235 -1.86,-19.408c0.431,-8.508 4.959,-14.438 12.641,-14.455c5.661,-0.013 11.567,2.648 16.897,0.865c3.775,-1.263 7.404,-4.926 9.95,-8.541c3.246,-4.61 3.285,-9.287 -2.971,-11.871c-4.226,-1.749 -8.24,-4.3 -12.099,-6.952c-1.931,-1.327 -4.49,-3.511 -4.726,-5.6c-1.228,-10.85 -8.366,-14.93 -15.749,-19.058c-2.478,-1.385 -8.438,-2.339 -7.075,-4.849c1.363,-2.51 13.143,-4.222 15.253,-10.21c0.469,-1.327 -0.033,-3.261 -1.043,-4.121c-3.216,-2.732 -8.109,0.486 -12.07,-0.094c-10.745,-1.57 -19.168,1.543 -26.372,11.524c-7.054,9.775 -15.612,18.209 -23.789,26.892c-3.136,3.326 -14.557,17.424 -16.434,19.011c-3.446,2.908 -7.437,5.169 -11.457,6.962c-1.778,0.795 -11.738,5.115 -14.813,5.394c-7.829,0.711 -15.764,1.028 -23.59,0.422c-29.041,-2.261 -56.606,3.541 -82.64,18.226c-11.442,6.449 -19.061,17.434 -24.19,29.992c-5.846,14.324 -11.068,29.18 -14.766,44.36c-4.289,17.599 -12.255,30.239 -25.358,41.941c-1.873,1.672 -0.694,2.643 -0.352,3.017c9.628,10.52 33.033,0.514 39.86,2.307c2.257,0.592 -0.447,8.104 1.587,7.628c2.034,-0.475 8.095,-6.671 10.617,-10.482c8.4,-12.68 6.056,-27.89 5.303,-43.505c-0.559,-11.598 1.931,-31.938 4.331,-30.501c2.4,1.437 8.142,27.469 10.067,39.124c0.962,5.833 -0.084,12.71 -2,18.344c-1.817,5.347 -2.43,9.377 0.589,14.196c4.406,7.032 8.785,14.155 12.461,21.683c2.933,6.011 10.153,8.627 10.153,8.627l15.842,0c0,0 1.828,-0.911 3.363,-2.326c1.069,-0.984 1.004,-2.345 0.972,-3.026" style="fill-rule:nonzero;"/></svg>