<?xml version="1.0" encoding="UTF-8" standalone="no"?><!DOCTYPE svg PUBLIC "-//W3C//DTD SVG 1.1//EN" "http://www.w3.org/Graphics/SVG/1.1/DTD/svg11.dtd"><svg width="100%" height="100%" viewBox="0 0 308 237" version="1.1" xmlns="http://www.w3.org/2000/svg" xmlns:xlink="http://www.w3.org/1999/xlink" xml:space="preserve" xmlns:serif="http://www.serif.com/" style="fill-rule:evenodd;clip-rule:evenodd;stroke-linejoin:round;stroke-miterlimit:2;"><path id="_10E-WOLF-SHEPERD" serif:id="10E-WOLF/SHEPERD" d="M265.722,2.361c0.653,1.373 0.937,6.375 0.741,13.07l-0.319,10.853l4.362,2.951c6.103,4.136 10.131,8.614 10.759,11.978c0.942,5.057 1.82,5.934 12.417,12.397c11.589,7.07 13.438,8.559 13.438,10.803c0,2.802 -6.662,10.754 -10.97,13.098c-3.964,2.156 -4.749,2.222 -12.471,1.108c-4.534,-0.65 -9.165,-1.185 -10.298,-1.185c-3.111,-0 -5.5,3.397 -6.226,8.856c-0.363,2.702 -1.055,4.908 -1.541,4.908c-0.485,0 -2.767,6.872 -2.767,9.469c0,3.111 -4.724,12.778 -4.739,14.09c-0.015,1.313 -0.653,3.309 -1.413,4.44c-0.761,1.13 -6.427,15.463 -7.399,15.099c-0.51,-0.187 -2.011,2.068 -3.341,5.013c-1.329,2.951 -2.84,5.36 -3.361,5.366c-0.52,-0 -3.728,3.099 -7.138,6.882c-6.82,7.572 -10.563,15.933 -14.144,31.572c-2.037,8.89 -3.925,27.558 -3.199,31.556c-0,-0 2.212,7.743 4.651,8.255c5.195,1.098 9.626,8.83 6.844,11.956c-1.079,1.214 -3.645,1.55 -11.127,1.445c-10.99,-0.149 -13.046,-1.301 -15.057,-8.443c-0.589,-2.101 -1.747,-5.007 -2.571,-6.463c-1.065,-1.881 -1.972,-8.923 -3.145,-24.326c-0.903,-11.928 -1.884,-22.765 -2.183,-24.088c-0.643,-2.879 -3.459,-3.105 -13.836,-1.103c-1.88,0.361 -13.776,-0.597 -26.159,-4.186c-12.956,-3.756 -16.432,-0.552 -21.735,-4.407c-6.381,-4.64 -13.338,-3.82 -13.658,-3.882l-5.181,0c-3.268,-0.639 -3.346,-0.562 -9.229,8.979c-9.317,15.126 -15.724,19.974 -33.955,25.682c-5.392,1.687 -11.392,3.981 -13.34,5.101c-7.521,4.312 -11.333,11.123 -11.26,20.112c0.03,3 0.609,4.114 3.037,5.829c3.209,2.267 5.122,6.59 4.161,9.403c-0.486,1.423 -2.223,1.71 -10.357,1.71c-13.517,-0 -13.355,0.231 -13.36,-19.561l-2.36,-14.057c-6.113,2.746 -28.259,-1.296 -28.259,-5.162c-0,-2.873 6.26,-8.78 13.188,-12.43c7.158,-3.773 19.781,-18.337 19.781,-18.982c0,-0.64 1.894,-5.294 4.215,-10.34c2.32,-5.041 4.018,-9.392 3.777,-9.662c-0.554,-0.623 5.373,-17.217 9.17,-25.677c5.259,-11.713 17.677,-22.837 31.444,-28.169c10.94,-4.241 20.488,-5.388 52.186,-6.287c28.751,-0.822 31.189,-1.042 40.035,-3.673c9.949,-2.956 21.194,-8.25 21.194,-9.976c0,-0.563 1.982,-1.875 4.401,-2.918c2.419,-1.036 5.706,-3.215 7.301,-4.83c1.594,-1.622 3.537,-3.591 4.312,-4.379c0.775,-0.789 5.166,-6.204 9.754,-12.033c4.724,-6.017 10.268,-11.874 12.795,-13.534c4.145,-2.718 4.916,-3.959 10.945,-17.63c7.615,-17.261 8.989,-18.276 10.936,-8.107l1.266,6.596l3.582,-7.655c1.967,-4.208 3.748,-7.654 3.964,-7.654c0.211,-0 0.863,0.998 1.442,2.222"/></svg>