<?xml version="1.0" encoding="UTF-8" standalone="no"?><!DOCTYPE svg PUBLIC "-//W3C//DTD SVG 1.1//EN" "http://www.w3.org/Graphics/SVG/1.1/DTD/svg11.dtd"><svg width="100%" height="100%" viewBox="0 0 308 237" version="1.1" xmlns="http://www.w3.org/2000/svg" xmlns:xlink="http://www.w3.org/1999/xlink" xml:space="preserve" xmlns:serif="http://www.serif.com/" style="fill-rule:evenodd;clip-rule:evenodd;stroke-linejoin:round;stroke-miterlimit:2;"><path id="_11D-ASIAN" serif:id="11D-ASIAN" d="M211.001,236.475l22.525,0c-0,0 5.319,-2.56 4.856,-5.926c-0.656,-4.771 -0.697,-5.868 -2.37,-7.668c-2.78,-2.99 -7.374,-1.648 -10.576,-3.732c-3.119,-2.029 -4.825,-3 -6.822,-6.047c-4.54,-6.928 -8.282,-53.274 -1.087,-68.214c5.671,-11.773 15.438,-19.085 21.937,-30.243c2.559,-4.392 4.465,-9.118 5.82,-13.961c0.987,-3.531 3.036,-14.382 4.691,-17.716c2.309,-4.65 4.975,-9.209 8.353,-13.226c1.225,-1.458 13.339,-5.83 15.564,-6.428c5.923,-1.591 13.125,1.465 17.704,-3.921c2.425,-2.854 0.942,-5.928 2.321,-9.264c1.712,-4.143 5.204,-4.975 7.891,-8.622c2.294,-3.114 3.789,-6.717 5.218,-10.266c0.893,-2.219 -0.591,-3.379 -2.345,-4.435c-6.542,-3.939 -14.15,-5.746 -20.617,-9.791c-3.845,-2.405 -3.72,-6.379 -6.591,-9.35c-2.359,-2.44 -8.531,-4.068 -10.911,-4.668c-7.672,-1.933 -19.463,-4.688 -26.71,-0.681c-1.534,0.848 -2.572,2.322 -3.84,3.5c-4.373,4.064 -8.503,8.374 -13.084,12.227c-6.663,5.605 -13.468,11.079 -20.615,16.118c-4.721,3.328 -17.44,9.194 -22.489,11.402c-15.656,6.846 -33.242,13.377 -50.78,13.83c-5.932,0.153 -11.861,-0.44 -17.78,-0.843c-11.343,-0.773 -22.662,-1.841 -34,-2.687c-3.56,-0.265 -21.928,-0.978 -26.15,-2.655c-3.816,-1.515 -6.964,-4.304 -10.017,-6.953c-3.057,-2.653 -5.882,-5.602 -8.203,-8.857c-1.799,-2.523 -3.065,-5.395 -4.032,-8.3c-0.966,-2.902 -1.18,-5.984 -1.721,-8.985c-0.423,-2.347 -0.604,-4.737 -1.172,-7.057c-1.284,-5.241 -9.252,-8.701 -13.086,-10.627c-1.059,-0.532 -10.677,-2.291 -11.102,-2.168c-1.614,0.469 -0.965,6.789 0.013,9.471c5.085,13.946 2.343,32.419 13.742,43.179c4.219,3.982 9.969,6.361 13.987,10.527c1.024,1.061 3.128,3.464 2.746,5.417c-0.741,3.789 -6.416,7.23 -8.676,10.303c-3.188,4.337 -4.611,9.098 -5.858,14.303c-3.484,14.543 -1.425,28.334 0.65,42.88c0.593,4.163 2.154,9.086 1.668,13.33c-1.158,10.12 -9.317,18.167 -15.166,25.998c-1.475,1.974 -3.293,3.836 -4.093,6.134c-1.605,4.61 0.571,15.473 0.744,18.908c0.307,6.14 -0.092,12.301 0.256,18.438c0.256,4.52 1.558,7.499 3.914,11.4c1.245,2.061 2.712,3.997 4.174,5.926l18.638,0c0,0 2.614,-2.024 3.247,-3.443c1.006,-2.258 -1.096,-5.855 -1.927,-7.177c-2.778,-4.425 -5.545,-1.858 -7.885,-6.433c-1.342,-2.625 -0.481,-12.099 0.072,-14.718c3.998,-18.921 20.616,-33.141 32.323,-47.666c3.488,-4.328 6.456,-9.013 9.785,-13.453c5.493,-7.327 13.958,-23.129 26.686,-21.029c20.264,3.344 37.386,17.743 57.897,21.75c3.783,0.739 34.712,3.709 34.843,3.874c5.844,7.349 5.74,18.324 6.673,27.489c1.291,12.674 1.967,24.814 3.762,37.433c1.615,11.355 4.04,15.805 10.843,19.93c1.039,0.631 6.162,3.443 6.162,3.443Z" style="fill-rule:nonzero;"/></svg>