<?xml version="1.0" encoding="UTF-8" standalone="no"?><!DOCTYPE svg PUBLIC "-//W3C//DTD SVG 1.1//EN" "http://www.w3.org/Graphics/SVG/1.1/DTD/svg11.dtd"><svg width="100%" height="100%" viewBox="0 0 308 238" version="1.1" xmlns="http://www.w3.org/2000/svg" xmlns:xlink="http://www.w3.org/1999/xlink" xml:space="preserve" xmlns:serif="http://www.serif.com/" style="fill-rule:evenodd;clip-rule:evenodd;stroke-linejoin:round;stroke-miterlimit:2;"><path id="_11A-BERNESEE" serif:id="11A-BERNESEE" d="M268.395,2.132c-7.616,-1.632 -7.727,-1.632 -14.961,0.2c-8.77,2.217 -30.631,21.491 -28.554,25.164c0.318,0.567 -1.424,3.603 -3.876,6.753c-2.451,3.141 -4.488,6.518 -4.52,7.495c-0.087,2.452 -7.202,9.519 -14.698,14.615c-3.43,2.321 -11.953,5.915 -18.94,7.983c-11.794,3.49 -14.699,3.682 -40.372,2.661c-42.647,-1.692 -57.664,2.356 -73.747,19.894c-8.531,9.292 -9.789,11.595 -13.378,24.474c-3.008,10.81 -5.228,15.574 -9.295,19.893c-2.944,3.124 -5.348,6.527 -5.348,7.556c0,1.038 -4.122,4.04 -9.167,6.684c-5.046,2.643 -9.168,5.427 -9.168,6.186c0,0.759 -2.658,2.547 -5.913,3.978c-7.512,3.29 -14.738,14.161 -15.892,23.881c-0.7,5.924 -0.446,7.076 1.385,6.308c1.233,-0.523 1.886,-0.305 1.44,0.472c-0.438,0.785 0.04,3.411 1.066,5.837c1.608,3.778 4.696,5.366 9.073,4.65c0.604,-0.096 0.7,0.942 0.223,2.312c-1.107,3.15 1.153,3.159 7.958,0.044c2.944,-1.352 4.949,-1.728 4.448,-0.838c-1.48,2.618 2.865,1.85 6.852,-1.212c2.61,-2.007 3.86,-2.252 4.289,-0.838c0.9,2.966 2.674,2.452 7.823,-2.295l19.025,-20.103c-0,0 -12.677,15.945 -10.004,33.505c0.857,5.625 9.749,29.762 10.004,29.762c3.85,-0 11.312,-0 20.869,-0c11.325,-0 13.139,0.218 12.556,-7.295c-0.176,-2.271 0.848,-4.477 -9.655,-6.064c-5.019,-0.758 -7.818,-12.387 -6.84,-16.403c2.483,-10.217 11.245,-10.784 23.396,-20.094c5.683,-4.354 11.237,-9.318 12.335,-11.037c1.099,-1.71 2.818,-3.133 3.82,-3.141c1.003,-0.027 3.908,-3.604 6.454,-7.958c4.186,-7.18 5.117,-7.887 9.821,-7.468c2.865,0.261 6.215,1.396 7.448,2.512c1.242,1.126 3.526,1.815 5.086,1.527c0.456,-0.084 4.518,-0.903 7.429,2.149c9.602,10.071 25.114,9.008 25.867,10.005c1.074,1.414 2.483,2.208 3.136,1.772c0.652,-0.445 12.795,2.015 13.32,5.462c2.889,18.898 4.616,26.96 5.635,26.271c0.621,-0.419 1.615,1.684 2.204,4.685c0.589,3.011 2.061,6.597 3.271,7.975c1.21,1.379 4.846,5.794 8.077,9.807l7.768,7.295c28.419,0.008 25.934,0.928 24.973,-5.87c-0.891,-6.303 -11.539,-6.319 -13.696,-7.489c-2.825,-1.518 -4.21,-3.909 -4.91,-8.481c-1.719,-11.142 6.159,-55.57 9.86,-55.57c0.684,-0 2.666,-2.452 4.393,-5.445c1.735,-2.992 3.684,-5.112 4.353,-4.711c0.66,0.401 3.525,-2.609 6.374,-6.701c2.841,-4.092 5.913,-7.434 6.82,-7.434c0.915,0 2.762,-3.996 4.099,-8.891c1.345,-4.886 3.087,-8.803 3.867,-8.707c2.109,0.27 4.051,-11.492 3.255,-19.754c-0.477,-4.965 0.016,-7.966 1.584,-9.694c1.4,-1.536 2.021,-4.441 1.607,-7.538c-0.374,-2.766 -0.199,-5.358 0.39,-5.759c0.589,-0.401 0.366,-4.127 -0.501,-8.28c-1.138,-5.445 -1.09,-8.743 0.167,-11.77c1.552,-3.726 2.674,-4.206 9.9,-4.206c7.043,0 8.738,-0.681 12.486,-4.965c4.703,-5.374 7.823,-19.352 5.133,-22.99c-0.812,-1.091 -5.292,-2.513 -9.955,-3.15c-7.115,-0.977 -8.874,-1.911 -10.919,-5.82c-2.905,-5.549 -9.621,-10.199 -17.03,-11.796Z"/></svg>