<?xml version="1.0" encoding="UTF-8" standalone="no"?><!DOCTYPE svg PUBLIC "-//W3C//DTD SVG 1.1//EN" "http://www.w3.org/Graphics/SVG/1.1/DTD/svg11.dtd"><svg width="100%" height="100%" viewBox="0 0 308 237" version="1.1" xmlns="http://www.w3.org/2000/svg" xmlns:xlink="http://www.w3.org/1999/xlink" xml:space="preserve" xmlns:serif="http://www.serif.com/" style="fill-rule:evenodd;clip-rule:evenodd;stroke-linejoin:round;stroke-miterlimit:2;"><path id="_07H-MASTIF" serif:id="07H-MASTIF" d="M277.539,2.848c-8.71,-2.823 -23.611,-3.214 -29.722,-0.783c-2.459,0.973 -7.326,4.62 -10.818,8.109c-3.502,3.478 -12.072,11.998 -19.056,18.933c-12.102,12.01 -28.92,22.994 -35.292,23.046c-1.555,0.011 -6.041,1.237 -9.974,2.717c-5.82,2.21 -12.423,2.601 -35.724,2.136c-40.359,-0.804 -54.007,-0.391 -63.329,1.934c-20.561,5.117 -36.065,16.809 -42.186,31.81c-2.368,5.783 -3.913,14.483 -4.937,27.635c-1.696,21.967 -2.438,25.9 -6.422,34.294c-3.081,6.48 -11.45,14.842 -14.861,14.842c-1.134,0 -2.941,1.121 -4.024,2.495c-5.178,6.576 11.299,4.282 19.798,-2.759c2.398,-1.987 5.71,-5.941 7.356,-8.785c1.645,-2.833 2.99,-4.218 3,-3.055c0.01,4.429 -3.914,18.299 -10.356,25.869c0,-0 -3.567,4.42 -4.099,7.146c-0.864,4.424 -1.084,19.399 -1.084,19.399c-0.672,11.893 -0.471,21.111 0.512,23.828c1.525,4.229 1.085,5.005 6.995,4.98c10.015,-0.043 18.637,0.767 18.684,-3.097c0.091,-7.51 -4.897,-5.468 -6.484,-8.596c-4.943,-9.74 22.617,-43.808 31.172,-47.638c21.643,-9.688 30.969,-36.67 34.481,-35.793c2.218,0.539 6.884,1.427 10.376,1.956c3.492,0.529 13.517,3.467 22.277,6.512c18.775,6.544 31.74,9.229 45.769,9.483l10.225,0.18l0.893,6.036c0.482,3.309 1.726,16.185 2.74,28.596c1.023,12.422 6.195,30.413 9.78,37.381c1.98,3.848 11.732,4.43 11.732,4.43c6.723,0.285 27.948,2.463 25.719,-4.43c-1.299,-4.02 -4.043,-8.407 -7.846,-8.978c-7.426,-1.12 -7.626,-15.379 -4.525,-41.395c2.479,-20.826 7.185,-34.992 14.571,-43.809c8.579,-10.255 10.827,-15.297 12.553,-28.163c0.813,-6.015 2.107,-11.745 2.87,-12.739c0.763,-0.993 2.318,-5.19 3.442,-9.324c1.134,-4.144 3.703,-9.652 5.72,-12.252c2.017,-2.601 3.672,-5.455 3.672,-6.354c0,-0.951 2.338,-1.152 5.68,-0.497c3.131,0.624 7.245,0.339 9.132,-0.623c1.896,-0.973 5.418,-2.21 7.817,-2.76c2.739,-0.623 5.94,-3.509 8.609,-7.759c3.482,-5.54 4.275,-8.753 4.375,-17.866c0,-0 1.138,-8.938 0.121,-11.1c-0.958,-2.036 -12.917,1.145 -12.624,-8.162c0.195,-6.197 -8.168,-14.25 -16.708,-17.03Z"/></svg>