<?xml version="1.0" encoding="UTF-8" standalone="no"?><!DOCTYPE svg PUBLIC "-//W3C//DTD SVG 1.1//EN" "http://www.w3.org/Graphics/SVG/1.1/DTD/svg11.dtd"><svg width="100%" height="100%" viewBox="0 0 308 237" version="1.1" xmlns="http://www.w3.org/2000/svg" xmlns:xlink="http://www.w3.org/1999/xlink" xml:space="preserve" xmlns:serif="http://www.serif.com/" style="fill-rule:evenodd;clip-rule:evenodd;stroke-linejoin:round;stroke-miterlimit:2;"><path id="_11F-GREAT-DANE" serif:id="11F-GREAT DANE" d="M207.343,146.787c-0,0 -35.68,-4.027 -47.458,-8.792c-12.776,-5.171 -54.436,-13.69 -58.893,-7.638c-6.524,8.859 -33.674,33.839 -36.912,36.848c-6.651,6.188 -13.574,12.259 -21.045,17.828c-12.801,9.546 -21.328,20.456 -21.235,34.788c0.016,2.561 2.681,5.256 5.176,7.139c2.248,1.692 7.257,-0.052 7.588,6.526c0.02,0.412 0.185,2.873 0.185,2.873l-23.244,-0.045c-0,0 -1.675,-2.574 -2.137,-3.565c-1.844,-3.95 -2.96,-6.745 -1.488,-10.997c0.597,-1.71 1.174,-4.743 1.35,-6.503c0.77,-7.807 1.398,-15.623 2.062,-23.438c0.366,-4.273 1.491,-7.804 6.965,-10.4c13.753,-6.522 18.993,-17.35 20.112,-29.169c1.119,-11.798 0.494,-36.821 0.33,-37.457c-0.651,0.51 -3.354,21.837 -6.92,31.753c-3.123,8.678 -7.298,16.901 -15.812,23.254c-4.316,3.217 -14.119,5.541 -15.555,5.651c-1.437,0.11 5.089,-3.205 6.936,-4.989c11.172,-10.813 16.905,-23.347 19.089,-37.105c1.558,-9.789 3.729,-19.523 5.926,-29.239c2.216,-9.775 10.101,-16.415 20.118,-21.905c9.983,-5.472 21.382,-7.449 33.064,-7.866c14.718,-0.53 71.909,-1.143 85.624,-2.428c16.572,-1.548 28.674,-8.798 36.334,-20.383c3.117,-4.721 5.737,-9.672 8.132,-14.646c3.893,-8.071 7.122,-16.347 14.331,-23.157c0.859,-0.812 1.019,-2.102 1.417,-3.193c1.443,-3.901 3.531,-7.329 9.04,-8.634c1.577,-0.376 3.129,-1.301 4.572,-1.561c1.337,-0.241 2.763,-0.287 4.089,0c1.935,0.42 4.938,1.877 7.522,2.52c3.746,0.929 7.632,1.507 11.397,2.39c5.246,1.229 8.982,3.742 11.319,7.786c0.847,1.475 3.063,2.915 5.048,3.44c7.452,1.971 18.852,3.779 22.622,5.285c1.253,0.501 -1.744,10.496 -2.757,13.84c-1.828,6.038 -5.878,8.552 -13.673,8.619c-0.908,0.009 -11.91,0.434 -16.12,-2.537c-4.557,-3.214 -13.58,-3.284 -14.263,4.015c-0.898,9.584 -1.373,19.219 -1.267,28.829c0.103,9.432 1.373,18.852 1.674,28.287c0.096,3.026 -14.414,35.849 -17.197,39.134c-5.205,6.147 -12.606,60.869 -8.748,76.029c0.641,2.51 0.952,3.695 4.374,6.469c2.164,1.757 9.419,3.687 9.679,9.951c0.016,0.414 -0.484,1.665 -1.113,1.92l-23.769,0c0,0 -2.017,-6.134 -3.316,-6.413c-4.252,-0.9 0.119,-20.948 -0.516,-22.641c-2.571,-6.874 -9.282,-42.607 -12.637,-60.473"/></svg>