<?xml version="1.0" encoding="UTF-8" standalone="no"?><!DOCTYPE svg PUBLIC "-//W3C//DTD SVG 1.1//EN" "http://www.w3.org/Graphics/SVG/1.1/DTD/svg11.dtd"><svg width="100%" height="100%" viewBox="0 0 308 237" version="1.1" xmlns="http://www.w3.org/2000/svg" xmlns:xlink="http://www.w3.org/1999/xlink" xml:space="preserve" xmlns:serif="http://www.serif.com/" style="fill-rule:evenodd;clip-rule:evenodd;stroke-linejoin:round;stroke-miterlimit:2;"><path id="_08D-ARGENTINA" serif:id="08D-ARGENTINA" d="M247.952,7.895c-2.138,-4.026 -4.578,-7.315 -5.404,-7.315c-2.064,-0 -10.12,16.94 -10.12,21.283c0,1.984 -3.385,6.679 -7.789,10.797c-4.284,4.009 -11.688,13.073 -16.441,20.145c-8.872,13.182 -8.872,13.182 -29.496,21.853c-8.083,3.39 -12.166,3.783 -49.323,4.771c-45.479,1.205 -52.929,2.67 -71.342,14.01c-12.67,7.801 -19.506,17.442 -24.432,34.457c-5.478,18.915 -11.414,27.025 -23.836,32.566c-12.019,5.365 -12.753,7.951 -1.945,6.846c14.78,-1.523 26.01,-12.721 33.698,-33.637l4.331,-11.767l-0.844,13.726c-1.376,22.363 -8.45,34.892 -27.653,48.945c-4.046,2.954 -4.587,4.988 -6.807,25.543c-2.294,21.284 -2.257,22.422 0.853,24.506c3.395,2.26 12.588,2.896 17.423,1.197c4.238,-1.481 3.33,-6.654 -1.698,-9.667c-3.743,-2.234 -4.303,-3.507 -3.403,-7.666c1.623,-7.441 6.229,-20.121 7.587,-20.891c0.651,-0.368 20.927,-5.657 35.286,-14.855c17.569,-11.249 25.423,-18.564 31.946,-29.729c3.362,-5.758 13.627,-12.02 13.798,-12.077c4.181,-1.394 16.937,-1.799 36.901,6.001c9.422,3.683 23.212,7.792 30.652,9.139l22.267,2.444l1.064,7.399c0.588,4.076 1.386,15.869 1.78,26.205c0.395,10.345 1.56,20.237 2.588,21.995c1.027,1.749 1.913,5.155 1.913,8.553c-0,9.609 -1.319,14.128 3.268,14.128c4.587,0 7.034,0 14.37,0c7.335,0 10.191,0.285 13.1,0c7.257,-0.72 3.254,-11.603 -8.256,-14.128c-5.115,-1.122 -4.844,-2.41 -4.844,-16.328c-0,-19.1 5.963,-50.326 11.358,-59.533c13.395,-22.832 14.001,-24.447 15.239,-40.977c0.991,-13.257 4.165,-26.439 9.312,-38.667c0.606,-1.448 3.074,-1.355 10.193,0.36c8.313,2.001 10.45,1.959 18.68,-0.368c10.395,-2.938 13.872,-7.081 14.817,-17.643l0.551,-6.26l-10.57,-3.457c-9.073,-2.963 -10.697,-4.109 -11.459,-8.076c-0.669,-3.482 -3.119,-5.817 -9.899,-9.45c-7.982,-4.268 -9.184,-5.632 -10.56,-11.934c-1.954,-8.939 -5.01,-9.994 -7.679,-2.637c-3.01,8.319 -4.826,8.361 -9.175,0.193Z"/></svg>