<?xml version="1.0" encoding="UTF-8" standalone="no"?><!DOCTYPE svg PUBLIC "-//W3C//DTD SVG 1.1//EN" "http://www.w3.org/Graphics/SVG/1.1/DTD/svg11.dtd"><svg width="100%" height="100%" viewBox="0 0 308 237" version="1.1" xmlns="http://www.w3.org/2000/svg" xmlns:xlink="http://www.w3.org/1999/xlink" xml:space="preserve" xmlns:serif="http://www.serif.com/" style="fill-rule:evenodd;clip-rule:evenodd;stroke-linejoin:round;stroke-miterlimit:2;"><path id="_11B-CHUVACH" serif:id="11B-CHUVACH" d="M275.166,68.697c2.583,-2.825 13.011,2.035 14.668,1.944c1.763,-0.097 6.854,-3.345 8.777,-5.032c2.201,-1.93 5.871,-6.76 7.125,-9.491c0.726,-1.585 1.669,-5.102 1.547,-6.863c-0.075,-1.108 -0.851,-3.295 -1.547,-4.117c-2.909,-3.415 -12.978,-4.614 -15.367,-8.461c-1.75,-2.819 -0.254,-10.196 -0.965,-13.494c-1.343,-6.249 -8.265,-15.056 -16.379,-18.754c-0.66,-0.302 -15.585,-6.363 -22.056,-3.088c-1.418,0.716 -4.321,2.158 -5.459,3.316c-0.976,0.997 -1.917,3.935 -2.995,4.804c-1.415,1.134 -10.484,5.991 -10.484,5.991c-4.566,2.131 -30.476,33.231 -31.806,33.917c-13.211,6.817 -54.065,10.521 -54.492,10.404c-0.43,-0.111 -47.6,-3.942 -57.383,-4.342c-8.197,-0.339 -18.481,6.371 -21.733,8.462c-3.267,2.099 -19.055,21.382 -19.273,21.727c-0.212,0.345 -25.911,48.935 -29.011,52.605c-2.201,2.605 -6.044,4.549 -11.87,12.073c-8.245,10.649 -13.534,55.47 18.876,51.476c7.423,-0.919 13.87,-18.263 15.692,-18.95c1.819,-0.69 7.642,-3.009 7.492,-2.632c-3.687,9.319 0.979,39.133 1.086,39.475c0.108,0.345 4.253,12.53 8.172,16.843l21.24,0.084c4.231,-1.749 -1.68,-12.907 -2.069,-13.175c-4.225,-2.907 -7.761,-2.821 -8.689,-2.976c-3.225,-0.538 -4.319,-10.496 -3.425,-14.381c0.82,-3.561 4.689,-8.194 5.708,-9.884c1.544,-2.573 7.926,-6.012 10.201,-7.869c1.876,-1.526 6.436,-3.164 8.46,-4.456c4.99,-3.187 14.668,-10.208 18.948,-14.409c2.347,-2.307 6.306,-7.699 8.242,-10.41c1.576,-2.204 3.362,-8.502 5.888,-9.149c2.086,-0.53 8.19,7.13 21.293,11.935c13.598,4.987 34.534,7.097 55.118,4.846c1.498,-0.164 4.163,21.549 5.351,26.646c0.818,3.5 15.024,43.241 15.711,43.241c6.423,0 26.103,0.041 26.103,0.041c0,-0 1.842,-10.717 -6.74,-16.113c-0.796,-0.5 -5.454,-0.067 -6.314,-0.456c-0.979,-0.445 -2.819,-1.872 -3.285,-2.898c-0.764,-1.681 -0.143,-6.862 -0.427,-7.47c-0.283,-0.612 0.962,-12.971 1.711,-17.228c0.511,-2.892 4.426,-22.263 4.713,-22.871c0.283,-0.611 31.211,-41.061 34.544,-48.944c3.279,-7.751 5.151,-31.596 5.151,-32.815c0,-1.22 -3.192,-15.661 -0.048,-19.102"/></svg>