<?xml version="1.0" encoding="UTF-8" standalone="no"?><!DOCTYPE svg PUBLIC "-//W3C//DTD SVG 1.1//EN" "http://www.w3.org/Graphics/SVG/1.1/DTD/svg11.dtd"><svg width="100%" height="100%" viewBox="0 0 308 237" version="1.1" xmlns="http://www.w3.org/2000/svg" xmlns:xlink="http://www.w3.org/1999/xlink" xml:space="preserve" xmlns:serif="http://www.serif.com/" style="fill-rule:evenodd;clip-rule:evenodd;stroke-linejoin:round;stroke-miterlimit:2;"><path id="_11E-IRISH-WOLFHOUND" serif:id="11E-IRISH WOLFHOUND" d="M281.528,4.02c-8.095,-3.475 -22.435,-4.508 -23.961,-1.737c-0.595,1.081 -2.89,1.956 -5.108,1.956c-2.911,-0 -6.483,3.45 -12.825,12.393c-4.838,6.829 -11.05,14.544 -13.82,17.144c-6.093,5.759 -26.104,16.598 -30.639,16.598c-1.807,-0 -3.539,0.777 -3.853,1.725c-1.006,3.025 -32.294,7.691 -59.653,8.87c-33.648,1.47 -48.269,3.791 -59.297,9.453c-9.784,5.018 -22.911,17.375 -22.911,21.567c-0,1.494 -1.927,6.986 -4.286,12.199c-2.359,5.224 -4.286,11.737 -4.286,14.483c0,2.746 -0.725,6.537 -1.623,8.42c-0.898,1.883 -2.002,5.662 -2.435,8.408c-1.245,7.703 -9.459,22.174 -15.412,27.168c-2.943,2.467 -8.322,5.662 -11.937,7.096c-6.883,2.722 -11.147,8.53 -8.463,11.543c3.582,4.022 27.955,1.421 31.494,-3.354c1.071,-1.458 2.759,-2.636 3.744,-2.636c0.985,-0 3.366,-1.519 5.292,-3.366c2.209,-2.133 -2.478,1.43 -4.718,13.094c-1.295,6.739 -0.15,19.515 -0.574,26.856c-0.812,14.01 -0.628,22.187 0.52,23.475c2.381,2.661 16.926,1.069 21.439,1.069c9.448,0 9.481,-7.059 2.37,-12.296c-4.848,-3.56 -5.617,-11.592 -2.37,-24.811c1.97,-7.971 14.123,-23.086 16.981,-21.105c0.855,0.595 2.489,-0.608 3.625,-2.649c1.137,-2.053 3.02,-3.317 4.178,-2.819c1.168,0.498 2.619,-0.887 3.236,-3.074c0.627,-2.199 2.186,-3.985 3.474,-3.985c1.277,-0 2.824,-1.75 3.43,-3.876c0.596,-2.127 1.699,-3.451 2.435,-2.941c1.342,0.936 5.26,-7.047 5.26,-10.716c0,-1.082 1.158,-3.269 2.576,-4.848c1.407,-1.592 2.565,-5.103 2.565,-7.801c-0,-4.641 0.357,-4.848 6.418,-3.572c3.539,0.753 7.586,1.41 8.993,1.482c1.418,0.061 3.55,0.985 4.751,2.054c1.202,1.057 2.652,1.409 3.215,0.765c0.573,-0.632 3.225,0.122 5.898,1.677c2.684,1.555 5.476,2.673 6.212,2.503c0.736,-0.182 2.684,0.243 4.329,0.936l5.996,2.527c1.645,0.705 4.091,1.069 5.422,0.814c1.331,-0.255 4.026,0.413 5.995,1.482c3.788,2.066 17.295,4.642 25.834,4.921c5.487,0.182 5.476,0.17 8.495,27.083c0.347,3.172 1.429,9.611 2.392,14.313c0.953,4.703 1.396,9.186 0.963,9.964c-0.422,0.777 0.011,1.956 0.964,2.612c0.963,0.668 1.742,4.253 1.742,7.959c0,3.718 1.158,8.055 2.576,9.635c1.407,1.591 2.565,4.447 2.565,6.354c-0,6.185 4.437,8.311 15.433,7.412c5.671,-0.449 11.093,-1.713 12.045,-2.794c2.598,-2.904 0.108,-8.238 -4.448,-9.514c-5.39,-1.519 -6.548,-8.566 -5.119,-31.3c2.186,-34.98 3.842,-42.757 10.346,-48.771c3.182,-2.953 6.31,-7.217 6.959,-9.477c0.639,-2.272 2.998,-6.185 5.238,-8.7c2.241,-2.515 4.07,-6.804 4.07,-9.55c-0,-7.898 3.885,-29.44 5.314,-29.44c0.714,-0 2.196,-4.848 3.29,-10.754c1.093,-5.917 3.106,-13.778 4.48,-17.46c2.208,-5.929 2.836,-6.415 5.411,-4.143c1.602,1.41 3.539,3.657 4.308,5.006c0.768,1.337 2.11,1.932 2.998,1.325c0.887,-0.62 1.601,-0.195 1.601,0.923c0,1.118 1.158,2.029 2.576,2.029c1.407,0 2.565,0.936 2.565,2.066c0,3.219 4.935,-3.123 6.861,-8.834c0.964,-2.819 3.247,-5.577 5.087,-6.111c1.84,-0.547 4.946,-4.034 6.905,-7.752c3.42,-6.513 3.441,-6.902 0.487,-10.571c-1.688,-2.09 -5.985,-5.48 -9.546,-7.521c-5.995,-3.427 -7.878,-8.275 -4.372,-11.264c2.143,-1.822 -2.846,-6.877 -9.697,-9.817Z"/></svg>