<?xml version="1.0" encoding="UTF-8" standalone="no"?><!DOCTYPE svg PUBLIC "-//W3C//DTD SVG 1.1//EN" "http://www.w3.org/Graphics/SVG/1.1/DTD/svg11.dtd"><svg width="100%" height="100%" viewBox="0 0 308 238" version="1.1" xmlns="http://www.w3.org/2000/svg" xmlns:xlink="http://www.w3.org/1999/xlink" xml:space="preserve" xmlns:serif="http://www.serif.com/" style="fill-rule:evenodd;clip-rule:evenodd;stroke-linejoin:round;stroke-miterlimit:2;"><path id="_11C-TIETIAN" serif:id="11C-TIETIAN" d="M261.979,1.693c13.912,2.603 24.479,10.692 26.083,19.967c0.801,4.609 1.786,5.529 8.452,7.866c10.262,3.597 12.071,5.636 10.048,11.314c-0.87,2.47 -1.993,6.722 -2.489,9.457c-0.496,2.735 -2.359,6.457 -4.146,8.28c-4.719,4.808 -13.629,8.446 -17.874,7.294c-4.429,-1.21 -4.719,1.351 -1.482,13.013c2.207,7.974 1.65,23.747 -0.908,25.463c-0.695,0.464 -1.283,2.412 -1.298,4.327c-0.023,1.922 -1.672,6.713 -3.665,10.65c-1.993,3.937 -4.619,9.491 -5.841,12.334c-1.222,2.843 -2.772,5.172 -3.436,5.172c-0.664,-0 -1.978,1.832 -2.917,4.069c-0.939,2.238 -2.313,3.656 -3.061,3.158c-0.749,-0.497 -1.779,0.531 -2.291,2.296c-0.519,1.766 -1.825,3.208 -2.901,3.208c-3.94,0 -15.133,15.599 -17.279,26.706c-5.352,27.75 -2.775,40.952 4.787,43.639c14.484,5.147 11.862,17.128 -4.787,17.128l-16.404,0l-6.853,-8.499c-3.658,-4.369 -6.559,-8.306 -6.444,-8.745c0.358,-1.409 -10.308,-34.712 -11.224,-35.351c-0.901,-0.621 -15.577,-8.622 -19.531,-9.225c-1.633,-0.249 -56.18,-17.709 -54.997,-24.095c0.298,-1.612 -2.184,0.158 -4.429,4.965c-4.398,9.416 -13.644,21.227 -22.623,28.902c-9.147,7.816 -36.917,19.288 -36.917,19.288c-4.543,5.736 -4.833,16.784 -0.511,19.71c3.764,2.553 3.825,9.292 0.099,11.455c-3.512,2.039 -13.37,2.147 -18.096,0.191c-3.665,-1.509 -9.857,-14.497 -9.857,-20.68c0,-2.852 -0.473,-3.051 -3.871,-1.65c-2.901,1.202 -4.459,1.044 -6.23,-0.622c-1.298,-1.226 -3.184,-1.906 -4.192,-1.508c-1.008,0.398 -1.833,0.083 -1.833,-0.705c0,-0.779 -1.305,-2.95 -2.909,-4.815c-4.069,-4.733 -7.834,-15.981 -7.734,-23.067c0.053,-3.283 -0.581,-5.968 -1.398,-5.968c-0.931,-0 -1.068,-2.221 -0.381,-5.968c0.611,-3.282 1.214,-7.103 1.344,-8.487c0.503,-5.355 6.749,-14.141 14.4,-20.282c7.414,-5.943 8.169,-7.162 10.399,-16.801c1.321,-5.711 2.405,-11.604 2.405,-13.088c0,-3.796 8.032,-21.824 10.85,-24.36c1.29,-1.161 2.344,-3.1 2.344,-4.294c-0,-2.188 10.987,-11.753 13.499,-11.753c0.733,0 3.772,-2.13 6.75,-4.724c11.865,-10.353 41.062,-16.693 63.35,-13.759c22.134,2.909 39.039,2.122 49.217,-2.296c9.697,-4.211 15.591,-8.687 17.088,-12.972c0.526,-1.5 3.787,-4.84 7.253,-7.426c3.466,-2.595 7.948,-6.432 9.964,-8.538c8.674,-9.051 27.815,-19.146 39.581,-20.87c2.826,-0.415 8.628,-0.1 12.896,0.696"/></svg>