<?xml version="1.0" encoding="UTF-8" standalone="no"?><!DOCTYPE svg PUBLIC "-//W3C//DTD SVG 1.1//EN" "http://www.w3.org/Graphics/SVG/1.1/DTD/svg11.dtd"><svg width="100%" height="100%" viewBox="0 0 308 237" version="1.1" xmlns="http://www.w3.org/2000/svg" xmlns:xlink="http://www.w3.org/1999/xlink" xml:space="preserve" xmlns:serif="http://www.serif.com/" style="fill-rule:evenodd;clip-rule:evenodd;stroke-linejoin:round;stroke-miterlimit:2;"><path id="_07G-CANE-CORSO" serif:id="07G-CANE CORSO" d="M254.065,2.265c-1.857,-3.164 -2.005,-3.139 -6.832,1.075c-2.712,2.367 -6.298,6.614 -7.981,9.425c-1.673,2.82 -6.023,7.034 -9.664,9.375c-3.632,2.334 -10.5,9.174 -15.245,15.192c-10.372,13.127 -23.447,26.481 -25.929,26.481c-0.984,-0 -5.848,1.754 -10.795,3.886c-11.466,4.951 -30.775,7.394 -58.479,7.394c-12.036,-0 -29.92,0.797 -39.749,1.779c-16.772,1.662 -18.565,1.553 -28.762,-1.813c-5.986,-1.972 -14.353,-5.707 -18.601,-8.3c-8.662,-5.297 -13.204,-5.381 -14.004,-0.277c-0.671,4.263 8.892,13.101 19.999,18.473c8.735,4.23 9.535,6.018 4.542,10.147c-6.85,5.657 -10.73,17.567 -11.594,35.554c-1.003,20.999 -4.515,29.141 -17.204,39.842l-9.048,7.638l-2.28,19.782c-2.887,25.046 -2.961,33.959 -0.294,36.393c2.547,2.325 18.803,2.56 25.138,0.361c5.674,-1.972 5.701,-3.953 0.111,-9.048c-5.122,-4.675 -5.563,-9.895 -1.72,-20.211c3.908,-10.466 11.558,-18.045 29.111,-28.813c16.293,-9.997 24.339,-17.802 32.817,-31.81c4.79,-7.932 5.535,-8.461 11.916,-8.461c4.119,0 16.413,3.5 31.207,8.88c24.624,8.964 37.322,12.07 49.386,12.07c6.243,-0 6.648,0.319 7.714,6.043c0.616,3.323 1.619,16.199 2.225,28.604c0.782,15.888 1.849,23.333 3.605,25.179c1.37,1.444 2.961,5.43 3.54,8.863c0.579,3.433 1.83,7.151 2.786,8.259c2.05,2.375 29.019,2.787 32.982,0.495c3.705,-2.14 -0.359,-9.761 -5.205,-9.761c-2.298,0 -4.303,-1.611 -5.516,-4.431c-2.731,-6.337 -0.662,-31.416 4.468,-54.078c3.577,-15.812 5.499,-20.706 11.42,-29.006c9.462,-13.262 12.588,-20.505 12.588,-29.108c-0,-6.521 10.427,-35.125 14.077,-38.617c0.773,-0.738 3.982,-0.134 7.135,1.36c12.928,6.102 31.732,-2.585 34.472,-15.922c2.207,-10.751 0.598,-14.419 -8,-18.188c-6.408,-2.803 -7.999,-4.347 -8.303,-8.057c-0.202,-2.518 -1.664,-5.305 -3.255,-6.194c-1.581,-0.89 -4.533,-2.888 -6.555,-4.449c-2.014,-1.552 -6.713,-3.668 -10.437,-4.683c-5.47,-1.494 -6.776,-2.619 -6.776,-5.817c-0,-3.172 -0.708,-3.793 -3.549,-3.113c-2.391,0.57 -4.184,-0.21 -5.462,-2.393Z"/></svg>