<?xml version="1.0" encoding="UTF-8" standalone="no"?><!DOCTYPE svg PUBLIC "-//W3C//DTD SVG 1.1//EN" "http://www.w3.org/Graphics/SVG/1.1/DTD/svg11.dtd"><svg width="100%" height="100%" viewBox="0 0 14692 5696" version="1.1" xmlns="http://www.w3.org/2000/svg" xmlns:xlink="http://www.w3.org/1999/xlink" xml:space="preserve" xmlns:serif="http://www.serif.com/" style="fill-rule:evenodd;clip-rule:evenodd;stroke-miterlimit:10;"><rect id="HIEROGLYF-Ramiky" serif:id="HIEROGLYF Ramiky" x="-0.003" y="0" width="14691.7" height="5695.83" style="fill:none;"/><path d="M10870.8,3739.26c-0,104.218 -85.92,188.593 -192.014,188.593l-2610.03,0c-106.146,0 -192.014,-84.375 -192.014,-188.593l0,-1782.66c0,-104.027 85.868,-188.576 192.014,-188.576l2610.03,0c106.094,0 192.014,84.549 192.014,188.576l-0,1782.66Zm-63.542,-2118.37l-2866.96,-0c-116.406,-0 -210.955,95.885 -210.955,214.149l0,2025.78c0,118.264 94.549,214.184 210.955,214.184l2866.96,0c116.354,0 210.747,-95.92 210.747,-214.184l-0,-2025.78c-0,-118.264 -94.393,-214.149 -210.747,-214.149Z" style="fill-rule:nonzero;stroke:#201c19;stroke-width:4.17px;"/><path d="M13628.1,4142.36l-0,-2589.06c-0,-83.629 -67.778,-151.389 -151.424,-151.389l-12261.6,-0c-83.75,-0 -151.545,67.76 -151.545,151.389l-0,2589.06c-0,83.611 67.795,151.406 151.545,151.406l12261.6,0c83.646,0 151.424,-67.795 151.424,-151.406m209.687,-2772.55l0,2956.22c0,98.091 -79.479,177.604 -177.569,177.604l-12628.8,0c-98.125,0 -177.604,-79.513 -177.604,-177.604l-0,-2956.22c-0,-98.16 79.479,-177.604 177.604,-177.604l12628.8,-0c98.09,-0 177.569,79.444 177.569,177.604" style="fill-rule:nonzero;"/><rect x="1282.01" y="1620.84" width="1348.57" height="935.066" style="fill:none;stroke:#f00;stroke-width:8.68px;stroke-linecap:round;stroke-linejoin:round;stroke-miterlimit:1.5;"/><rect x="1282.01" y="2764.99" width="1348.57" height="1309.76" style="fill:none;stroke:#f00;stroke-width:8.68px;stroke-linecap:round;stroke-linejoin:round;stroke-miterlimit:1.5;"/><rect x="2849.34" y="2764.99" width="1307.09" height="1309.76" style="fill:none;stroke:#f00;stroke-width:8.68px;stroke-linecap:round;stroke-linejoin:round;stroke-miterlimit:1.5;"/><rect x="4375.44" y="1621.35" width="3134.22" height="2453.41" style="fill:none;stroke:#f00;stroke-width:8.68px;stroke-linecap:round;stroke-linejoin:round;stroke-miterlimit:1.5;"/><rect x="3034.87" y="1620.84" width="933.497" height="935.066" style="fill:none;stroke:#f00;stroke-width:8.68px;stroke-linecap:round;stroke-linejoin:round;stroke-miterlimit:1.5;"/><rect x="7974.66" y="1863.96" width="905.934" height="1968.27" style="fill:none;stroke:#f00;stroke-width:8.68px;stroke-linecap:round;stroke-linejoin:round;stroke-miterlimit:1.5;"/><rect x="8978.97" y="1866.85" width="971.914" height="931.476" style="fill:none;stroke:#f00;stroke-width:8.68px;stroke-linecap:round;stroke-linejoin:round;stroke-miterlimit:1.5;"/><rect x="10049.5" y="1866.85" width="723.081" height="931.741" style="fill:none;stroke:#f00;stroke-width:8.68px;stroke-linecap:round;stroke-linejoin:round;stroke-miterlimit:1.5;"/><rect x="11236.8" y="1620.97" width="2172.93" height="1117.48" style="fill:none;stroke:#f00;stroke-width:8.68px;stroke-linecap:round;stroke-linejoin:round;stroke-miterlimit:1.5;"/><rect x="11236.8" y="2957.29" width="2172.93" height="1116.7" style="fill:none;stroke:#f00;stroke-width:8.68px;stroke-linecap:round;stroke-linejoin:round;stroke-miterlimit:1.5;"/><rect x="10049.5" y="2898.53" width="723.081" height="933.7" style="fill:none;stroke:#f00;stroke-width:8.68px;stroke-linecap:round;stroke-linejoin:round;stroke-miterlimit:1.5;"/><rect x="8977.4" y="2895.72" width="975.488" height="936.514" style="fill:none;stroke:#f00;stroke-width:8.68px;stroke-linecap:round;stroke-linejoin:round;stroke-miterlimit:1.5;"/></svg>