<?xml version="1.0" encoding="UTF-8" standalone="no"?><!DOCTYPE svg PUBLIC "-//W3C//DTD SVG 1.1//EN" "http://www.w3.org/Graphics/SVG/1.1/DTD/svg11.dtd"><svg width="100%" height="100%" viewBox="0 0 2480 3504" version="1.1" xmlns="http://www.w3.org/2000/svg" xmlns:xlink="http://www.w3.org/1999/xlink" xml:space="preserve" xmlns:serif="http://www.serif.com/" style="fill-rule:evenodd;clip-rule:evenodd;stroke-linecap:round;stroke-linejoin:round;stroke-miterlimit:1.5;"><g id="LINES"><rect x="1313.13" y="475" width="224.039" height="224.091" style="fill:none;stroke:#f00;stroke-width:2.08px;"/><rect x="898.453" y="475" width="323.19" height="224.091" style="fill:none;stroke:#f00;stroke-width:2.08px;"/><rect x="898.767" y="751.933" width="322.889" height="313.596" style="fill:none;stroke:#f00;stroke-width:2.08px;"/><rect x="1268.43" y="751.933" width="313.561" height="312.991" style="fill:none;stroke:#f00;stroke-width:2.08px;"/><rect x="898.459" y="2675.15" width="683.777" height="353.396" style="fill:none;stroke:#f00;stroke-width:2.08px;"/><rect x="948.932" y="1755.42" width="188.442" height="409.417" style="fill:none;stroke:#f00;stroke-width:2.08px;"/><rect x="1157.84" y="1756.02" width="202.167" height="193.755" style="fill:none;stroke:#f00;stroke-width:2.08px;"/><rect x="1380.51" y="1756.02" width="150.407" height="193.81" style="fill:none;stroke:#f00;stroke-width:2.08px;"/><rect x="1380.51" y="1970.62" width="150.407" height="193.055" style="fill:none;stroke:#f00;stroke-width:2.08px;"/><rect x="1157.51" y="1970.04" width="202.91" height="194.803" style="fill:none;stroke:#f00;stroke-width:2.08px;"/><rect x="898.807" y="1116.58" width="682.7" height="534.378" style="fill:none;stroke:#f00;stroke-width:2.08px;"/><rect x="898.459" y="2268.7" width="683.547" height="353.512" style="fill:none;stroke:#f00;stroke-width:2.08px;"/></g><g id="RAMIKY"><path d="M1551.35,2145.5c0,21.678 -17.872,39.229 -39.94,39.229l-542.91,-0c-22.08,-0 -39.941,-17.551 -39.941,-39.229l0,-370.809c0,-21.638 17.861,-39.225 39.941,-39.225l542.91,-0c22.068,-0 39.94,17.587 39.94,39.225l0,370.809Zm-13.217,-440.64l-596.353,0c-24.214,0 -43.881,19.945 -43.881,44.545l0,421.381c0,24.6 19.667,44.552 43.881,44.552l596.353,-0c24.203,-0 43.837,-19.952 43.837,-44.552l0,-421.381c0,-24.6 -19.634,-44.545 -43.837,-44.545Z" style="fill-rule:nonzero;stroke:#1e1c1a;stroke-width:1px;stroke-linecap:butt;stroke-linejoin:miter;stroke-miterlimit:10;"/><path d="M1597.58,421.985l-715.32,-0c-20.346,-0 -36.85,16.492 -36.85,36.842l0.075,2586.18c-0,20.392 16.504,36.887 36.845,36.887l715.325,0c20.355,0 36.846,-16.495 36.846,-36.887l-0.075,-2586.18c0,-20.35 -16.491,-36.842 -36.846,-36.842m-759.983,-51.042l804.683,0c23.88,0 43.221,19.338 43.221,43.225l0.075,2675.54c0,23.879 -19.341,43.221 -43.221,43.221l-804.683,-0c-23.879,-0 -43.221,-19.342 -43.221,-43.221l-0.075,-2675.54c0,-23.887 19.346,-43.225 43.221,-43.225" style="fill:#1e1c1a;fill-rule:nonzero;"/></g></svg>