<?xml version="1.0" encoding="UTF-8" standalone="no"?><!DOCTYPE svg PUBLIC "-//W3C//DTD SVG 1.1//EN" "http://www.w3.org/Graphics/SVG/1.1/DTD/svg11.dtd"><svg width="100%" height="100%" viewBox="0 0 2175 1121" version="1.1" xmlns="http://www.w3.org/2000/svg" xmlns:xlink="http://www.w3.org/1999/xlink" xml:space="preserve" xmlns:serif="http://www.serif.com/" style="fill-rule:evenodd;clip-rule:evenodd;stroke-linejoin:round;stroke-miterlimit:2;"><rect id="CHARACTER-WATERLOVER" x="0" y="1.539" width="2172.93" height="1116.7" style="fill:none;"/><clipPath id="_clip1"><rect x="0" y="1.539" width="2172.93" height="1116.7"/></clipPath><g clip-path="url(#_clip1)"><g id="WATER"><path d="M2063.58,1099.4c-42.008,-41.645 -84.043,-83.395 -126.205,-125.026c-42.278,41.749 -84.711,83.775 -126.989,125.67c-15.774,15.628 -33.935,20.225 -50.762,17.335c-0.282,0.132 -0.539,0.132 -0.796,-0.131c-12.462,-1.051 -25.195,-6.567 -36.605,-17.848c-42.021,-41.645 -84.03,-83.395 -126.193,-125.026c-42.406,41.894 -84.71,83.775 -126.86,125.67c-15.774,15.628 -33.935,20.225 -50.775,17.335c-0.257,0.132 -0.526,0.132 -0.796,-0.131c-12.591,-1.051 -25.182,-6.567 -36.579,-17.848c-42.163,-41.645 -84.184,-83.395 -126.334,-125.171c-42.291,41.894 -84.569,83.92 -126.86,125.815c-15.775,15.628 -33.936,20.225 -50.775,17.335c-0.27,0.132 -0.527,0.132 -0.796,-0.131c-12.591,-1.051 -25.182,-6.567 -36.58,-17.848c-42.162,-41.645 -84.325,-83.395 -126.346,-125.171c-42.279,41.894 -84.57,83.92 -126.861,125.815c-15.774,15.628 -33.935,20.225 -50.762,17.335c-0.269,0.132 -0.539,0.132 -0.808,-0.131c-12.579,-1.051 -25.182,-6.567 -36.58,-17.848c-42.021,-41.645 -84.171,-83.395 -126.206,-125.026c-42.291,41.749 -84.71,83.775 -126.988,125.67c-15.774,15.628 -33.936,20.225 -50.775,17.335c-0.27,0.132 -0.539,0.132 -0.796,-0.131c-12.591,-1.051 -25.195,-6.567 -36.579,-17.848c-42.035,-41.645 -84.184,-83.395 -126.206,-125.026c-42.291,41.749 -84.71,83.775 -127.001,125.67c-56.872,56.34 -145.022,-30.981 -88.151,-87.335c57,-56.472 114,-112.944 171.013,-169.403c13.643,-13.54 29.289,-18.794 44.139,-18.137c14.85,-0.657 30.355,4.597 44.011,18.137c42.15,41.894 84.441,83.644 126.603,125.407c42.15,-41.763 84.441,-83.657 126.591,-125.407c13.644,-13.54 29.302,-18.794 44.139,-18.137l0.129,0c14.85,-0.657 30.239,4.597 43.895,18.137c42.15,41.894 84.3,83.644 126.591,125.407c42.15,-41.763 84.441,-83.657 126.591,-125.407c13.656,-13.54 29.173,-18.794 44.011,-18.137l0.141,0c14.85,-0.657 30.226,4.597 43.869,18.137c42.292,41.894 84.441,83.644 126.745,125.407c42.137,-41.763 84.3,-83.657 126.45,-125.407c13.784,-13.54 29.302,-18.794 44.152,-18.137l0.128,0c14.85,-0.657 30.226,4.597 43.87,18.137c42.304,41.894 84.454,83.644 126.745,125.407c42.15,-41.763 84.312,-83.657 126.462,-125.407c13.656,-13.54 29.302,-18.794 44.139,-18.137l0.141,0c14.85,-0.657 30.214,4.597 43.87,18.137l126.604,125.407c42.15,-41.763 84.441,-83.657 126.59,-125.407c13.657,-13.54 29.303,-18.794 44.14,-18.137l0.154,0c14.837,-0.657 30.213,4.597 43.869,18.137l170.333,168.746c57.012,56.341 -31.151,143.676 -88.151,87.348" style="fill-rule:nonzero;"/><path d="M2063.58,687.591c-42.008,-41.632 -84.043,-83.395 -126.205,-125.026c-42.278,41.763 -84.711,83.802 -126.989,125.683c-15.774,15.641 -33.935,20.238 -50.762,17.335c-0.282,0.145 -0.539,0.145 -0.796,-0.118c-12.462,-1.05 -25.195,-6.566 -36.605,-17.874c-42.021,-41.632 -84.03,-83.395 -126.193,-125.026c-42.406,41.894 -84.71,83.802 -126.86,125.683c-15.774,15.641 -33.935,20.238 -50.775,17.335c-0.257,0.145 -0.526,0.145 -0.796,-0.118c-12.591,-1.05 -25.182,-6.566 -36.579,-17.874c-42.163,-41.632 -84.184,-83.395 -126.334,-125.158c-42.291,41.895 -84.569,83.934 -126.86,125.815c-15.775,15.641 -33.936,20.238 -50.775,17.335c-0.27,0.145 -0.527,0.145 -0.796,-0.118c-12.591,-1.05 -25.182,-6.566 -36.58,-17.874c-42.162,-41.632 -84.325,-83.395 -126.346,-125.158c-42.279,41.895 -84.57,83.934 -126.861,125.815c-15.774,15.641 -33.935,20.238 -50.762,17.335c-0.269,0.145 -0.539,0.145 -0.808,-0.118c-12.579,-1.05 -25.182,-6.566 -36.58,-17.874c-42.021,-41.632 -84.171,-83.395 -126.206,-125.026c-42.291,41.763 -84.71,83.802 -126.988,125.683c-15.774,15.641 -33.936,20.238 -50.775,17.335c-0.27,0.145 -0.539,0.145 -0.796,-0.118c-12.591,-1.05 -25.195,-6.566 -36.579,-17.874c-42.035,-41.632 -84.184,-83.395 -126.206,-125.026c-42.291,41.763 -84.71,83.802 -127.001,125.683c-56.872,56.354 -145.022,-30.994 -88.151,-87.335c57,-56.472 114,-112.931 171.013,-169.416c13.643,-13.527 29.289,-18.78 44.139,-18.124c14.85,-0.656 30.355,4.597 44.011,18.124c42.15,41.894 84.441,83.657 126.603,125.42c42.15,-41.763 84.441,-83.657 126.591,-125.42c13.644,-13.527 29.302,-18.78 44.139,-18.124l0.129,0c14.85,-0.656 30.239,4.597 43.895,18.124c42.15,41.894 84.3,83.657 126.591,125.42c42.15,-41.763 84.441,-83.657 126.591,-125.42c13.656,-13.527 29.173,-18.78 44.011,-18.124l0.141,0c14.85,-0.656 30.226,4.597 43.869,18.124c42.292,41.894 84.441,83.657 126.745,125.42c42.137,-41.763 84.3,-83.657 126.45,-125.42c13.784,-13.527 29.302,-18.78 44.152,-18.124l0.128,0c14.85,-0.656 30.226,4.597 43.87,18.124c42.304,41.894 84.454,83.657 126.745,125.42c42.15,-41.763 84.312,-83.657 126.462,-125.42c13.656,-13.527 29.302,-18.78 44.139,-18.124l0.141,0c14.85,-0.656 30.214,4.597 43.87,18.124l126.604,125.42c42.15,-41.763 84.441,-83.657 126.59,-125.42c13.657,-13.527 29.303,-18.78 44.14,-18.124l0.154,0c14.837,-0.656 30.213,4.597 43.869,18.124l170.333,168.759c57.012,56.341 -31.151,143.676 -88.151,87.335" style="fill-rule:nonzero;"/><path d="M2063.58,275.811c-42.008,-41.631 -84.043,-83.395 -126.205,-125.013c-42.278,41.75 -84.711,83.789 -126.989,125.67c-15.774,15.628 -33.935,20.225 -50.762,17.336c-0.282,0.144 -0.539,0.144 -0.796,-0.119c-12.462,-1.063 -25.195,-6.566 -36.605,-17.874c-42.021,-41.631 -84.03,-83.395 -126.193,-125.013c-42.406,41.894 -84.71,83.789 -126.86,125.67c-15.774,15.628 -33.935,20.225 -50.775,17.336c-0.257,0.144 -0.526,0.144 -0.796,-0.119c-12.591,-1.063 -25.182,-6.566 -36.579,-17.874c-42.163,-41.631 -84.184,-83.395 -126.334,-125.158c-42.291,41.895 -84.569,83.934 -126.86,125.815c-15.775,15.628 -33.936,20.225 -50.775,17.336c-0.27,0.144 -0.527,0.144 -0.796,-0.119c-12.591,-1.063 -25.182,-6.566 -36.58,-17.874c-42.162,-41.631 -84.325,-83.395 -126.346,-125.158c-42.279,41.895 -84.57,83.934 -126.861,125.815c-15.774,15.628 -33.935,20.225 -50.762,17.336c-0.269,0.144 -0.539,0.144 -0.808,-0.119c-12.579,-1.063 -25.182,-6.566 -36.58,-17.874c-42.021,-41.631 -84.171,-83.395 -126.206,-125.013c-42.291,41.75 -84.71,83.789 -126.988,125.67c-15.774,15.628 -33.936,20.225 -50.775,17.336c-0.27,0.144 -0.539,0.144 -0.796,-0.119c-12.591,-1.063 -25.195,-6.566 -36.579,-17.874c-42.035,-41.631 -84.184,-83.395 -126.206,-125.013c-42.291,41.75 -84.71,83.789 -127.001,125.67c-56.872,56.354 -145.022,-30.981 -88.151,-87.322c57,-56.485 114,-112.957 171.013,-169.429c13.643,-13.527 29.289,-18.78 44.139,-18.124c14.85,-0.656 30.355,4.597 44.011,18.124c42.15,41.907 84.441,83.657 126.603,125.421c42.15,-41.764 84.441,-83.658 126.591,-125.421c13.644,-13.527 29.302,-18.78 44.139,-18.124l0.129,0c14.85,-0.656 30.239,4.597 43.895,18.124c42.15,41.907 84.3,83.657 126.591,125.421c42.15,-41.764 84.441,-83.658 126.591,-125.421c13.656,-13.527 29.173,-18.78 44.011,-18.124l0.141,0c14.85,-0.656 30.226,4.597 43.869,18.124c42.292,41.907 84.441,83.657 126.745,125.421c42.137,-41.764 84.3,-83.658 126.45,-125.421c13.784,-13.527 29.302,-18.78 44.152,-18.124l0.128,0c14.85,-0.656 30.226,4.597 43.87,18.124c42.304,41.907 84.454,83.657 126.745,125.421c42.15,-41.764 84.312,-83.658 126.462,-125.421c13.656,-13.527 29.302,-18.78 44.139,-18.124l0.141,0c14.85,-0.656 30.214,4.597 43.87,18.124l126.604,125.421c42.15,-41.764 84.441,-83.658 126.59,-125.421c13.657,-13.527 29.303,-18.78 44.14,-18.124l0.154,0c14.837,-0.656 30.213,4.597 43.869,18.124l170.333,168.76c57.012,56.34 -31.151,143.675 -88.151,87.334" style="fill-rule:nonzero;"/></g></g></svg>