<?xml version="1.0" encoding="UTF-8" standalone="no"?><!DOCTYPE svg PUBLIC "-//W3C//DTD SVG 1.1//EN" "http://www.w3.org/Graphics/SVG/1.1/DTD/svg11.dtd"><svg width="100%" height="100%" viewBox="0 0 2175 1121" version="1.1" xmlns="http://www.w3.org/2000/svg" xmlns:xlink="http://www.w3.org/1999/xlink" xml:space="preserve" xmlns:serif="http://www.serif.com/" style="fill-rule:evenodd;clip-rule:evenodd;stroke-linejoin:round;stroke-miterlimit:2;"><rect id="CHARACTER-HYPERACTIVE" x="0" y="1.539" width="2172.93" height="1116.7" style="fill:none;"/><g id="ENERGY"><path d="M2006.57,745.009l-0.016,88.128c-0,109.522 -77.539,186.715 -187.395,186.715c-271.476,0.025 -542.94,0.025 -814.416,0.025c-271.438,0 -542.927,0 -814.39,-0.025c-108.624,-0 -187.254,-77.052 -187.369,-184.611c-0.308,-242.829 -0.308,-308.116 -0,-550.983c0.128,-107.457 78.86,-184.354 187.638,-184.354l1628.74,-0c109.022,0.064 187.164,76.987 187.19,184.572l0.002,7.56c13.989,-4.034 29.328,-6.259 45.418,-6.259c65.274,-0 118.207,36.652 118.207,81.836l-0,301.74c-0,45.249 -52.933,81.914 -118.207,81.914c-16.09,0 -31.429,-2.226 -45.404,-6.258Zm-999.351,-571.761c-269.129,-0 -538.154,1.411 -807.245,-0.963c-73.318,-0.603 -125.019,49.495 -124.544,122.736c1.565,235.812 1.565,294.12 -0,529.867c-0.475,76.295 54.921,122.736 122.402,122.518c538.18,-1.565 1076.31,-0.86 1614.45,-0.885c77.59,-0 121.106,-42.939 121.132,-119.478c0.026,-236.568 -1.206,-295.659 0.782,-532.176c0.591,-68.943 -47.185,-123.262 -124.506,-122.582c-267.461,2.412 -534.947,0.963 -802.472,0.963Zm-396.337,88.137l16.935,-0c117.681,-0 235.362,0.115 353.031,-0.257c10.981,-0.051 17.717,2.527 23.425,12.38c106.764,184.162 213.887,368.118 320.882,552.126c1.757,3.027 3.168,6.273 5.606,11.238c-6.877,0.333 -12.021,0.821 -17.217,0.821c-117.065,0.051 -234.131,-0 -351.196,0.205c-10.43,0.026 -17.73,-1.257 -23.836,-11.777c-107.033,-184.713 -214.567,-369.118 -321.998,-553.639c-1.475,-2.527 -2.707,-5.286 -5.632,-11.097Zm545.7,-0l368.22,-0c80.913,-0 161.826,-0.064 242.765,0.013c35.549,0.038 56.974,21.321 56.987,56.666c0.025,154.462 0.025,308.911 -0.013,463.348c-0,35.139 -21.591,56.281 -57.333,56.307c-47.827,0.089 -214.477,0.41 -262.278,-0.437c-6.812,-0.166 -16.601,-4.9 -19.872,-10.494c-108.214,-184.739 -215.824,-369.85 -323.473,-554.909c-1.475,-2.515 -2.514,-5.196 -5.003,-10.494Zm-371.529,576.35l-19.578,0c-169.202,0 -361.934,0.013 -531.111,0c-40.527,0 -60.63,-20.052 -60.63,-60.386c-0.026,-151.974 -0.026,-303.947 -0,-455.997c-0,-40.091 20.244,-59.951 61.028,-59.963c59.463,-0 142.505,-0.373 201.942,0.436c6.979,0.077 17.089,4.554 20.347,10.109c109.125,186.291 217.582,372.993 326.077,559.63c0.603,0.988 0.732,2.207 1.925,6.171Z"/></g></svg>