<?xml version="1.0" encoding="UTF-8" standalone="no"?><!DOCTYPE svg PUBLIC "-//W3C//DTD SVG 1.1//EN" "http://www.w3.org/Graphics/SVG/1.1/DTD/svg11.dtd"><svg width="100%" height="100%" viewBox="0 0 2175 1121" version="1.1" xmlns="http://www.w3.org/2000/svg" xmlns:xlink="http://www.w3.org/1999/xlink" xml:space="preserve" xmlns:serif="http://www.serif.com/" style="fill-rule:evenodd;clip-rule:evenodd;stroke-linejoin:round;stroke-miterlimit:2;"><rect id="CHARACTER-PIRATE" x="0" y="1.539" width="2172.93" height="1116.7" style="fill:none;"/><clipPath id="_clip1"><rect x="0" y="1.539" width="2172.93" height="1116.7"/></clipPath><g clip-path="url(#_clip1)"><path id="PIRAT" d="M312.639,722.206c20.744,9.344 33.815,26.54 44.688,45.587c4.524,7.917 7.762,16.58 11.836,24.779c0.759,1.517 2.571,2.841 4.19,3.535c8.174,3.483 428.969,-180.047 447.296,-186.165c5.051,-1.696 8.74,-7.454 14.138,-12.325c-3.612,-2.339 -6.002,-4.511 -8.804,-5.578c-28.815,-10.873 -313.556,-123.883 -418.661,-163.647c-20.127,-7.622 -59.519,-26.887 -80.892,-29.522c-14.626,-1.812 -43.916,6.041 -58.658,6.144c-33.081,0.257 -102.625,3.842 -131.786,-11.76c-27.658,-14.793 -75.584,-66.536 -78.617,-97.754c-1.427,-14.703 16.502,-42.361 27.439,-52.257c14.163,-12.814 54.648,-18.469 70.829,-28.597c4.948,-3.097 14.703,-10.461 17.324,-15.679c3.509,-7.018 1.556,-23.533 2.982,-31.244c3.265,-17.633 9.922,-53.735 19.188,-69.081c17.184,-28.39 67.488,-75.237 96.791,-90.826c2.184,-1.157 7.171,-2.571 9.613,-2.198c27.581,4.37 79.684,34.547 95.929,57.256c13.508,18.893 16.592,67.835 19.278,90.904c0.81,7.069 -1.825,21.759 0.617,28.429c3.213,8.766 16.091,23.314 23.507,28.982c135.051,103.692 611.419,272.801 622.742,275.757c2.197,0.579 4.999,0.733 7.004,-0.141c19.51,-8.534 627.715,-275.23 641.519,-277.441c14.728,-2.378 18.648,-10.731 18.803,-23.34c0.167,-16.489 1.799,-33.184 -0.193,-49.416c-2.622,-21.489 4.035,-41.025 9.048,-60.907c8.122,-32.208 25.344,-57.668 57.012,-71.664c20.152,-8.881 87.485,8.341 100.697,13.958c18.263,7.762 29.252,23.069 41.359,37.901c35.408,43.325 46.833,95.055 55.097,148.224c1.735,11.156 47.913,21.104 59.519,27.183c21.335,11.156 39.713,27.131 52.643,47.784c12.016,19.214 12.402,39.56 2.66,60.496c-16.168,34.778 -43.787,57.321 -78.681,69.338c-31.257,10.744 -63.439,19.843 -97.857,12.325c-26.373,-5.758 -53.363,-8.765 -80.134,-12.595c-4.485,-0.643 -9.613,-0.219 -13.867,1.311c-23.391,8.444 -449.622,170.69 -464.017,176.448c-13.443,5.359 -26.643,11.413 -39.623,17.8c-2.776,1.362 -4.19,5.462 -6.221,8.303c2.686,1.478 5.295,3.161 8.097,4.434c19.163,8.675 281.618,128.111 311.011,142.222c12.762,6.131 17.646,0.502 22.054,-12.852c5.861,-17.826 9.961,-37.246 29.998,-48.093c29.791,-16.104 57.655,-12.338 85.762,2.506c17.711,9.357 106.712,85.378 115.503,102.111c21.875,41.641 17.916,74.119 -18.224,103.345c-19.51,15.795 -45.664,24.882 -70.237,32.426c-15.436,4.73 -17.955,10.847 -15.873,24.484c2.725,17.877 0.925,34.906 -8.598,51.473c-14.253,24.753 -36.333,37.374 -62.899,39.829c-20.229,1.863 -41.063,-1.62 -61.485,-3.894c-20.216,-2.25 -30.55,-18.765 -31.102,-34.933c-0.849,-24.83 11.297,-93.307 13.482,-106.185c-15.564,-6.927 -32.619,-14.754 -49.88,-22.144c-21.232,-9.125 -435.999,-167.696 -471.779,-182.078c-19.176,-7.711 -36.372,-12.364 -57.501,-2.776c-32.272,14.626 -631.79,239.514 -660.977,251.235c-8.817,3.548 -11.94,8.753 -9.344,20.885c7.121,33.532 17.467,66.909 13.045,102.214c-2.004,16.04 -11.618,32.825 -27.413,35.344c-24.574,3.958 -49.995,8.906 -74.325,6.362c-25.64,-2.674 -51.357,-15.05 -64.518,-38.519c-10.205,-18.211 -13.276,-40.6 -18.276,-61.42c-1.388,-5.771 4.563,-16.503 2.224,-18.212c-7.622,-5.552 -17.377,-8.38 -26.553,-11.541c-28.956,-9.974 -57.308,-20.988 -77.936,-45.099c-11.734,-13.726 -19.857,-52.784 -20.551,-54.981c-11.554,-37.182 13.315,-61.074 31.822,-87.241c13.225,-18.713 75.045,-58.401 87.755,-64.994c11.927,-6.169 25.178,-10.089 38.236,-13.572c4.652,-1.247 37.593,-7.454 52.745,-0.643" style="fill-rule:nonzero;"/></g></svg>