<?xml version="1.0" encoding="UTF-8" standalone="no"?><!DOCTYPE svg PUBLIC "-//W3C//DTD SVG 1.1//EN" "http://www.w3.org/Graphics/SVG/1.1/DTD/svg11.dtd"><svg width="100%" height="100%" viewBox="0 0 2175 1121" version="1.1" xmlns="http://www.w3.org/2000/svg" xmlns:xlink="http://www.w3.org/1999/xlink" xml:space="preserve" xmlns:serif="http://www.serif.com/" style="fill-rule:evenodd;clip-rule:evenodd;stroke-linejoin:round;stroke-miterlimit:2;"><rect id="CHARACTER-WATCHER" x="0" y="1.539" width="2172.93" height="1116.7" style="fill:none;"/><clipPath id="_clip1"><rect x="0" y="1.539" width="2172.93" height="1116.7"/></clipPath><g clip-path="url(#_clip1)"><g id="WATCHER"><path d="M355.16,389.314c-11.808,0 -23.553,-5.027 -31.898,-14.859c-15.349,-18.041 -13.509,-45.417 4.102,-61.127c3.463,-3.09 8.626,-8.379 15.515,-15.318c68.883,-69.479 278.499,-280.928 583.554,-296.011c123.236,-6.074 245.552,48.939 374.961,107.198c128.374,57.814 170.816,106.949 319.599,116.257c44.167,2.776 83.082,-5.119 105.485,-5.655c23.068,-0.59 42.723,18.355 43.273,42.274c0.562,23.919 -17.918,43.78 -41.266,44.342c-15.132,0.367 -61.459,8.746 -112.655,5.525c-163.825,-10.251 -219.596,-65.381 -348.469,-123.405c-120.028,-54.057 -233.398,-105.142 -336.851,-99.984c-272.787,13.485 -465.098,207.456 -528.294,271.201c-8.525,8.602 -15.004,15.082 -19.298,18.905c-8.013,7.149 -17.905,10.657 -27.758,10.657" style="fill-rule:nonzero;"/><path d="M1147.48,829.208c42.416,-58.299 68.41,-136.458 68.41,-222.46c0,-102.131 -36.601,-193.225 -93.906,-253.082c140.949,68.563 275.956,189.612 333.056,244.245c-53.65,51.321 -176.055,161.32 -307.56,231.297m-615.031,-231.297c38.608,-56.374 153.652,-210.127 295.624,-269.879c-73.178,57.343 -122.01,160.678 -122.01,278.716c0,96.488 32.64,183.131 84.526,242.883c-124.488,-68.353 -222.996,-200.412 -258.14,-251.72m337.593,78.5c-50.123,-0 -90.699,-52.198 -90.699,-116.402c-0,-64.216 40.576,-116.414 90.699,-116.414c50.276,0 90.852,52.198 90.852,116.414c-0,64.204 -40.576,116.402 -90.852,116.402m828.135,-119.675l-165.691,0c-64.321,-64.059 -350.935,-335.339 -592.526,-335.339c-273.706,0 -485.213,340.943 -494.082,355.449l-12.869,21.065l12.869,21.052c8.639,14.126 209.462,337.683 472.727,354.637l0,106.438c0,22.741 18.94,41.162 42.289,41.162c23.361,-0 42.288,-18.421 42.288,-41.162l0,-111.557c226.089,-39.446 470.517,-270.848 529.304,-329.409l165.691,0c23.349,0 42.289,-18.42 42.289,-41.161c-0,-22.741 -18.94,-41.175 -42.289,-41.175" style="fill-rule:nonzero;"/><path d="M364.814,1.54l-326.474,-0c-21.177,-0 -38.34,17.583 -38.34,39.276l-0,334.462c-0,21.681 17.163,39.276 38.34,39.276c21.163,0 38.339,-17.595 38.339,-39.276l0,-295.186l288.135,0c21.176,0 38.34,-17.582 38.34,-39.276c-0,-21.693 -17.164,-39.276 -38.34,-39.276" style="fill-rule:nonzero;"/><path d="M364.814,1042.9l-288.135,0l0,-295.186c0,-21.68 -17.176,-39.276 -38.339,-39.276c-21.177,-0 -38.34,17.596 -38.34,39.276l-0,334.462c-0,21.681 17.163,39.276 38.34,39.276l326.474,0c21.176,0 38.34,-17.595 38.34,-39.276c-0,-21.693 -17.164,-39.276 -38.34,-39.276" style="fill-rule:nonzero;"/><path d="M2134.59,708.433c-21.176,-0 -38.339,17.595 -38.339,39.276l-0,295.186l-288.148,-0c-21.176,-0 -38.34,17.582 -38.34,39.276c0,21.693 17.164,39.276 38.34,39.276l326.487,-0c21.176,-0 38.34,-17.583 38.34,-39.276l-0,-334.462c-0,-21.681 -17.164,-39.276 -38.34,-39.276" style="fill-rule:nonzero;"/><path d="M2134.59,1.54l-326.487,-0c-21.176,-0 -38.34,17.583 -38.34,39.276c0,21.694 17.164,39.276 38.34,39.276l288.148,0l-0,295.186c-0,21.681 17.163,39.276 38.339,39.276c21.176,0 38.34,-17.595 38.34,-39.276l-0,-334.462c-0,-21.693 -17.164,-39.276 -38.34,-39.276" style="fill-rule:nonzero;"/><path d="M355.16,389.314c-11.808,0 -23.553,-5.027 -31.898,-14.859c-15.349,-18.041 -13.509,-45.417 4.102,-61.127c3.463,-3.09 8.626,-8.379 15.515,-15.318c68.883,-69.479 278.499,-280.928 583.554,-296.011c123.236,-6.074 245.552,48.939 374.961,107.198c128.374,57.814 170.816,106.949 319.599,116.257c44.167,2.776 83.082,-5.119 105.485,-5.655c23.068,-0.59 42.723,18.355 43.273,42.274c0.562,23.919 -17.918,43.78 -41.266,44.342c-15.132,0.367 -61.459,8.746 -112.655,5.525c-163.825,-10.251 -219.596,-65.381 -348.469,-123.405c-120.028,-54.057 -233.398,-105.142 -336.851,-99.984c-272.787,13.485 -465.098,207.456 -528.294,271.201c-8.525,8.602 -15.004,15.082 -19.298,18.905c-8.013,7.149 -17.905,10.657 -27.758,10.657" style="fill-rule:nonzero;"/><path d="M1147.48,829.208c42.416,-58.299 68.41,-136.458 68.41,-222.46c0,-102.131 -36.601,-193.225 -93.906,-253.082c140.949,68.563 275.956,189.612 333.056,244.245c-53.65,51.321 -176.055,161.32 -307.56,231.297m-615.031,-231.297c38.608,-56.374 153.652,-210.127 295.624,-269.879c-73.178,57.343 -122.01,160.678 -122.01,278.716c0,96.488 32.64,183.131 84.526,242.883c-124.488,-68.353 -222.996,-200.412 -258.14,-251.72m337.593,78.5c-50.123,-0 -90.699,-52.198 -90.699,-116.402c-0,-64.216 40.576,-116.414 90.699,-116.414c50.276,0 90.852,52.198 90.852,116.414c-0,64.204 -40.576,116.402 -90.852,116.402m828.135,-119.675l-165.691,0c-64.321,-64.059 -350.935,-335.339 -592.526,-335.339c-273.706,0 -485.213,340.943 -494.082,355.449l-12.869,21.065l12.869,21.052c8.639,14.126 209.462,337.683 472.727,354.637l0,106.438c0,22.741 18.94,41.162 42.289,41.162c23.361,-0 42.288,-18.421 42.288,-41.162l0,-111.557c226.089,-39.446 470.517,-270.848 529.304,-329.409l165.691,0c23.349,0 42.289,-18.42 42.289,-41.161c-0,-22.741 -18.94,-41.175 -42.289,-41.175" style="fill-rule:nonzero;"/><path d="M364.814,1.54l-326.474,-0c-21.177,-0 -38.34,17.583 -38.34,39.276l-0,334.462c-0,21.681 17.163,39.276 38.34,39.276c21.163,0 38.339,-17.595 38.339,-39.276l0,-295.186l288.135,0c21.176,0 38.34,-17.582 38.34,-39.276c-0,-21.693 -17.164,-39.276 -38.34,-39.276" style="fill-rule:nonzero;"/><path d="M364.814,1042.9l-288.135,0l0,-295.186c0,-21.68 -17.176,-39.276 -38.339,-39.276c-21.177,-0 -38.34,17.596 -38.34,39.276l-0,334.462c-0,21.681 17.163,39.276 38.34,39.276l326.474,0c21.176,0 38.34,-17.595 38.34,-39.276c-0,-21.693 -17.164,-39.276 -38.34,-39.276" style="fill-rule:nonzero;"/><path d="M2134.59,708.433c-21.176,-0 -38.339,17.595 -38.339,39.276l-0,295.186l-288.148,-0c-21.176,-0 -38.34,17.582 -38.34,39.276c0,21.693 17.164,39.276 38.34,39.276l326.487,-0c21.176,-0 38.34,-17.583 38.34,-39.276l-0,-334.462c-0,-21.681 -17.164,-39.276 -38.34,-39.276" style="fill-rule:nonzero;"/><path d="M2134.59,1.54l-326.487,-0c-21.176,-0 -38.34,17.583 -38.34,39.276c0,21.694 17.164,39.276 38.34,39.276l288.148,0l-0,295.186c-0,21.681 17.163,39.276 38.339,39.276c21.176,0 38.34,-17.595 38.34,-39.276l-0,-334.462c-0,-21.693 -17.164,-39.276 -38.34,-39.276" style="fill-rule:nonzero;"/></g></g></svg>