<?xml version="1.0" encoding="UTF-8" standalone="no"?><!DOCTYPE svg PUBLIC "-//W3C//DTD SVG 1.1//EN" "http://www.w3.org/Graphics/SVG/1.1/DTD/svg11.dtd"><svg width="100%" height="100%" viewBox="0 0 2175 1121" version="1.1" xmlns="http://www.w3.org/2000/svg" xmlns:xlink="http://www.w3.org/1999/xlink" xml:space="preserve" xmlns:serif="http://www.serif.com/" style="fill-rule:evenodd;clip-rule:evenodd;stroke-linejoin:round;stroke-miterlimit:2;"><rect id="CHARACTER-PLAYFUL" x="0" y="1.539" width="2172.93" height="1116.7" style="fill:none;"/><clipPath id="_clip1"><rect x="0" y="1.539" width="2172.93" height="1116.7"/></clipPath><g clip-path="url(#_clip1)"><path id="PLAYFUL" d="M2066.15,341.748l-0.662,2.89c-3.179,16.03 -6.239,31.14 -17.617,41.783c-4.238,3.429 -75.38,51.111 -114.043,57.286c-67.022,14.979 -186.509,28.262 -244.246,29.695c-8.874,0.262 -15.365,5.137 -15.894,11.562c-0.53,4.467 2.516,9.999 11.92,11.825c19.326,2.628 41.724,4.743 65.83,6.176c24.107,1.182 49.936,1.971 76.426,1.971c73.645,-0 142.521,-5.519 190.735,-15.505c2.252,17.213 0.384,33.505 -5.709,49.403c-12.835,33.505 -35.352,59.258 -68.598,78.704c-35.233,20.234 -75.764,30.877 -123.845,32.453c-70.863,1.84 -136.56,-17.606 -191.132,-36.658l-1.987,-0.263c-4.371,0 -9.536,4.205 -10.993,8.804c-1.192,3.81 0.265,7.883 4.106,10.38c23.179,14.334 51.525,25.884 76.558,36.014l5.034,2.089c50.465,20.497 103.182,30.351 152.985,38.366l3.311,0.526c1.854,0.262 5.431,0.657 5.96,0.788c0.663,1.183 0.398,5.781 0.133,8.146l-0.133,2.378c-0.662,20.235 -7.947,39.155 -21.325,56.486c-25.034,32.059 -58.558,54.001 -103.579,67.14c-10.861,3.154 -20.928,6.058 -31.524,6.058c-2.782,-0 -5.563,-0.263 -9.405,-0.933c-7.814,-1.446 -15.894,-2.878 -23.987,-5.125c-5.682,-1.182 -10.98,-2.627 -16.557,-4.585c-30.054,-9.211 -59.472,-22.731 -87.804,-35.752l-34.438,-15.898c-26.888,-12.482 -54.704,-25.358 -83.062,-36.658c-0,-12.351 -0.517,-24.702 -1.576,-36.776l-0.133,-0c-0.132,-0 -0.265,0.118 -0.397,0.118l-0,-0.118l-0.398,-4.612c-0.145,-0.789 -0.145,-1.577 -0.264,-2.365c-0.133,-0.657 -0.133,-1.314 -0.265,-1.971c-0.146,-1.84 -0.398,-3.929 -0.663,-5.781c-0.132,-0.789 -0.265,-1.577 -0.397,-2.497c-0.397,-2.628 -0.662,-5.387 -1.06,-7.883c-0.132,-0.789 -0.265,-1.695 -0.397,-2.497c0.132,0 0.265,0 0.397,-0.131c-0.265,-1.564 -0.529,-3.154 -0.808,-4.848c-0.914,-5.401 -2.106,-10.656 -3.311,-15.899c-0,-0.407 -0.119,-0.67 -0.119,-1.064c-1.987,-11.3 -4.371,-22.337 -7.285,-33.373l-0.265,-0.92c-9.55,-35.739 -22.796,-93.8 -45.167,-116.807l-0.265,-0.263c-3.311,-4.979 -8.212,-8.409 -13.656,-8.934l-0.132,-0c-0.517,-0.119 -1.179,-0.119 -1.709,-0.119l-0.398,0c-4.768,0.119 -9.139,2.352 -12.583,5.9c-0.132,0.144 -0.132,0.144 -0.265,0.263c-10.066,8.54 -21.338,22.73 -27.153,31.008c-0.662,0.788 -1.192,1.577 -1.722,2.247c-19.47,27.316 -30.332,58.6 -32.054,94.063c-1.059,23.138 -0.145,46.644 -0.662,69.913c-0.397,18.92 -0.265,38.222 -2.119,57.011c-0,1.708 -0.146,3.416 -0.398,4.992c0,0.933 -0.132,1.709 -0.278,2.628c-0.781,6.846 -1.973,13.678 -3.695,20.248c-7.02,30.877 -21.458,58.981 -41.988,84.077c-8.875,10.774 -18.411,20.628 -28.743,29.431c-26.888,23.125 -58.412,39.024 -94.705,47.17c-38.544,8.672 -77.088,7.358 -114.838,-4.599c-29.405,-9.066 -55.101,-23.387 -77.353,-42.571c-12.054,-10.248 -23.047,-21.942 -32.981,-34.936c-14.173,-18.54 -25.034,-38.367 -32.332,-59.402c-5.02,-14.059 -8.332,-28.644 -9.935,-43.872c-0.251,-1.984 -0.529,-3.955 -0.529,-5.926c-0.252,-1.432 -0.252,-2.89 -0.384,-4.191c-1.855,-33.912 -1.457,-67.942 -1.06,-102.091c0.397,-40.876 -7.55,-79.767 -32.187,-111.945c-2.119,-2.641 -4.106,-5.4 -6.49,-7.897c-1.457,-1.576 -2.927,-3.153 -4.371,-4.598c-0.397,-0.382 -0.662,-0.789 -1.059,-1.052c-11.921,-12.35 -19.736,-19.038 -24.769,-22.467c-0.133,-0.119 -0.265,-0.119 -0.265,-0.119c-1.457,-1.064 -2.649,-1.852 -3.577,-2.378c-0.265,-0.118 -0.529,-0.263 -0.662,-0.263c-1.06,-0.525 -2.119,-0.788 -3.311,-0.788c-0.398,-0.118 -0.663,-0.118 -1.06,-0.118c-0.278,-0 -0.662,-0 -0.927,0.118c-5.166,0.263 -9.418,3.692 -10.994,8.278c-3.444,4.217 -6.755,9.591 -10.066,16.029c-0.133,0.132 -0.133,0.394 -0.265,0.657c-0.795,1.459 -1.59,2.891 -2.252,4.468c-1.06,2.365 -2.119,4.73 -3.311,7.226c-1.325,3.022 -2.517,6.044 -3.841,9.211c-1.325,3.271 -2.517,6.569 -3.842,9.972c-1.337,3.548 -2.649,7.24 -3.841,10.787c-1.324,3.666 -2.516,7.214 -3.709,10.893c-0.662,1.839 -1.192,3.81 -1.854,5.65c-8.358,26.541 -14.981,53.476 -18.676,69.374c-0.265,1.051 -0.53,2.102 -0.795,3.153c-2.265,8.804 -4.106,17.738 -5.576,26.804c-0.252,0.802 -0.384,1.708 -0.384,2.497c-0.53,2.496 -0.927,5.255 -1.325,7.883c0,0.92 -0.132,1.708 -0.132,2.497c-0.265,1.852 -0.53,3.941 -0.808,5.781c-0,0.657 -0.119,1.314 -0.119,1.971c-0.133,0.788 -0.265,1.576 -0.265,2.365c-0.146,1.445 -0.278,3.022 -0.398,4.612l0,0.118c-0.132,0.933 -0.265,1.971 -0.397,3.153c-0.927,10.393 -1.325,21.023 -1.192,31.534c-0,1.183 -0,2.628 0.132,4.349c-26.755,10.906 -53.114,23.112 -78.678,34.937l-22.649,10.38c-4.106,1.984 -8.345,3.942 -12.451,5.781c-27.815,12.627 -56.426,25.766 -85.976,35.095c-7.669,2.614 -15.617,4.322 -22.902,6.044c-5.563,1.169 -10.993,2.22 -16.556,3.271l-1.987,0.394c-13.246,2.379 -26.624,-1.576 -40.796,-5.649c-44.121,-12.877 -77.751,-34.819 -102.52,-66.878c-13.51,-17.213 -20.795,-36.251 -21.59,-56.367l0,-3.285c-0.265,-2.102 -0.53,-6.175 -0.265,-6.832c0.927,-0.657 4.371,-1.052 6.49,-1.314l3.312,-0.526c49.803,-8.015 102.519,-17.869 152.852,-38.366l5.166,-2.089c25.021,-10.13 53.379,-21.68 76.691,-36.146c3.576,-2.365 5.033,-6.438 3.841,-10.248c-1.457,-4.599 -6.49,-8.804 -10.861,-8.804l-2.384,0.408c-48.743,17.067 -113.514,36.645 -181.595,36.645c-3.06,-0 -6.093,-0 -9.153,-0.132c-48.068,-1.576 -88.731,-12.219 -123.964,-32.453c-33.379,-19.578 -55.631,-45.199 -68.479,-78.704c-5.96,-15.767 -8.08,-31.928 -5.828,-49.403c48.213,9.986 117.222,15.505 190.734,15.505c52.982,-0 103.447,-3.022 142.389,-8.278c9.272,-1.695 12.318,-7.227 11.921,-11.694c-0.53,-6.425 -7.285,-11.3 -15.895,-11.562c-57.882,-1.433 -177.237,-14.716 -244.775,-29.695c-38.28,-6.175 -109.54,-54.001 -113.249,-57.142c-11.802,-10.787 -14.835,-26.028 -18.014,-41.927l-0.543,-2.89c-8.861,-43.491 -12.172,-89.859 -10.186,-141.771c0.252,-9.329 1.192,-18.789 2.12,-28.644c-0,-0.656 -0,-1.182 0.132,-1.826c2.782,2.221 5.563,4.192 8.212,6.307c32.187,24.951 69.261,46.762 113.514,66.996c51.776,23.782 108.48,42.834 173.515,58.732c45.829,11.168 92.453,21.68 137.62,31.941l49.538,11.287c50.995,11.969 105.156,25.227 156.561,44.016c23.445,8.54 125.17,95.797 127.686,95.797c6.093,6.162 11.789,12.995 16.809,19.709c0.146,0.118 0.278,0.262 0.278,0.381c0.397,0.263 0.662,0.67 0.795,0.919c0.265,0.263 0.53,0.657 0.794,0.92c2.782,3.416 5.696,6.833 8.213,10.656c5.947,7.884 10.993,16.148 15.497,24.688c0.662,1.065 1.192,2.234 1.722,3.417c0.132,0.131 0.132,0.262 0.265,0.394c11.921,24.057 18.543,50.073 19.603,77.928c1.06,30.601 0.53,61.346 0.662,91.974c0.265,35.607 8.61,66.865 25.299,93.011c12.186,19.184 28.743,35.739 49.803,49.535c43.312,28.118 89.672,31.665 137.62,13.665c28.875,-10.906 52.055,-30.089 70.466,-55.71c4.636,-6.438 8.874,-13.139 12.451,-19.84c10.848,-20.497 17.086,-42.821 17.881,-66.747c1.059,-30.483 -0.133,-61.097 0.927,-91.58c0.53,-16.686 2.252,-33.636 5.563,-49.928c3.311,-16.293 8.875,-31.652 16.279,-46.119c6.622,-12.613 14.451,-24.307 23.722,-35.344c0.663,-0.788 1.457,-1.695 2.106,-2.483c1.338,-1.59 2.928,-3.298 4.517,-5.006c0.397,-0.394 1.457,-1.301 3.179,-2.628c15.484,-13.402 81.592,-67.128 120.004,-93.406c0.53,-0.407 1.059,-0.801 1.722,-1.196c1.589,-1.182 3.165,-2.233 4.636,-3.14c1.059,-0.801 2.119,-1.458 3.178,-2.115c3.047,-2.102 5.961,-3.81 8.597,-5.124c2.265,-1.183 4.119,-2.103 5.576,-2.628c52.055,-19.052 105.964,-32.191 156.429,-44.016l49.538,-11.287c45.167,-10.261 91.923,-20.773 137.752,-31.941c65.035,-15.898 121.594,-35.081 173.251,-58.732c43.696,-19.84 80.797,-41.651 113.765,-66.996l8.093,-6.307l-0,0.788c1.059,10.236 1.987,20.09 2.384,29.813c1.854,52.044 -1.457,98.412 -10.199,141.64m105.831,-143.085c-1.589,-29.038 -4.371,-63.331 -13.51,-97.098c-5.033,-18.658 -10.994,-37.315 -16.689,-55.579c-2.65,-8.54 -11.524,-35.738 -11.524,-35.738c-2.133,-5.505 -6.225,-9.329 -10.994,-9.592l-0.41,0c-3.166,0 -5.948,1.59 -8.067,4.087c0,-0 -0.53,0.643 -1.457,1.826c-5.563,7.227 -26.623,34.95 -33.246,42.571c-20.808,24.044 -39.206,42.176 -58.015,57.286c-37.352,30.233 -81.195,55.841 -134.574,78.441c-54.041,23.269 -109.142,40.481 -160.799,55.447c-18.014,5.269 -36.028,10.511 -54.042,15.635c-41.855,12.101 -85.036,24.57 -127.421,37.329c-60.399,18.381 -114.043,40.061 -163.846,66.746c-16.292,8.79 -132.984,38.366 -132.984,38.366c-50.995,-25.108 -107.421,-38.366 -165.039,-38.366c-57.617,0 -113.91,13.139 -164.773,38.222c3.484,-4.612 -104.255,-30.22 -118.944,-38.222c-49.803,-26.541 -103.314,-48.365 -163.714,-66.746c-42.12,-12.614 -85.035,-24.965 -126.494,-37.066c-18.411,-5.256 -36.69,-10.511 -55.233,-15.898c-51.525,-14.966 -106.772,-32.178 -160.8,-55.447c-53.247,-22.6 -97.221,-48.208 -134.574,-78.441c-19.484,-15.491 -37.749,-33.767 -58.015,-57.286c-6.887,-7.739 -29.14,-37.184 -33.378,-42.702c-0.398,-0.657 -0.795,-1.052 -0.795,-1.052c-2.252,-3.022 -5.298,-4.73 -8.609,-4.73l-0.265,0c-4.636,0.263 -8.61,3.679 -10.862,8.935c-0.278,0.394 -1.059,2.51 -1.192,2.891c0,-0 -0.53,1.97 -0.794,2.759c-2.914,9.329 -5.828,18.789 -8.888,28.249c-5.961,19.052 -12.305,38.629 -17.603,58.075c-9.14,33.767 -11.921,68.06 -13.378,97.098c-2,35.213 -1.192,70.557 2.781,104.981c4.636,40.745 13.113,93.945 37.088,143.217c3.576,7.752 8.212,14.847 12.45,21.824c2.252,3.534 4.504,7.095 6.623,10.892c0.53,0.92 0.795,1.708 0.795,1.984c-6.093,68.718 20,129.144 77.618,180.137c25.034,22.192 53.644,39.418 85.817,51.361c-0.251,48.878 19.617,92.907 59.605,130.734c38.425,36.396 85.486,71.845 141.607,68.455c75.287,-4.559 253.65,-73.053 288.87,-86.311c3.722,17.738 8.887,35.2 15.51,52.412c0.398,1.051 0.795,2.234 1.325,3.153c0.794,2.234 1.589,4.468 2.649,6.57c2.516,6.044 5.166,12.088 7.947,18.014c0.662,-0.276 0.795,-0.145 0.133,0.249c17.616,36.921 42.385,72.134 74.571,103.813c10.862,10.76 22.253,20.759 34.16,29.825c0,0 108.388,84.498 227.835,77.902c19.007,-1.051 56.148,1.813 115.805,-18.605c55.446,-18.973 113.474,-59.297 113.474,-59.297c15.749,-12.101 30.729,-25.752 44.769,-40.744c26.889,-28.762 48.081,-60.177 63.83,-92.631c-0.132,-0.131 -0.251,-0.263 -0.384,-0.263l0.662,0c0.252,-0.657 0.663,-1.3 0.928,-1.97c2.781,-6.044 5.563,-12.088 7.947,-17.988c1.06,-2.641 2.119,-5.137 3.046,-7.765c0.53,-1.445 1.192,-3.022 1.722,-4.599c0,-0.131 0.133,-0.394 0.133,-0.394c3.841,-10.235 8.477,-29.826 12.437,-48.615c33.392,12.877 215.715,106.453 289.691,89.74c6.398,-1.445 118.017,-34.555 156.694,-70.951c39.869,-37.972 59.869,-81.856 59.339,-130.734c32.187,-11.825 61.049,-29.169 85.831,-51.361c58.412,-51.387 83.83,-110.25 77.87,-180.137c-0,0 -0,-0.67 0.675,-2.115c2.252,-3.666 4.504,-7.227 6.756,-10.761c4.371,-6.977 8.874,-14.072 12.318,-21.693c24.239,-50.191 32.57,-102.866 37.087,-143.348c3.709,-35.213 4.901,-70.557 2.914,-104.981"/></g></svg>