<?xml version="1.0" encoding="UTF-8" standalone="no"?><!DOCTYPE svg PUBLIC "-//W3C//DTD SVG 1.1//EN" "http://www.w3.org/Graphics/SVG/1.1/DTD/svg11.dtd"><svg width="100%" height="100%" viewBox="0 0 2175 1121" version="1.1" xmlns="http://www.w3.org/2000/svg" xmlns:xlink="http://www.w3.org/1999/xlink" xml:space="preserve" xmlns:serif="http://www.serif.com/" style="fill-rule:evenodd;clip-rule:evenodd;stroke-linejoin:round;stroke-miterlimit:2;"><rect id="CHARACTER-GOURMET" x="0" y="1.539" width="2172.93" height="1116.7" style="fill:none;"/><clipPath id="_clip1"><rect x="0" y="1.539" width="2172.93" height="1116.7"/></clipPath><g clip-path="url(#_clip1)"><path id="GOURMET" d="M986.01,706.453c-28.594,-28.986 -57.841,-57.58 -91.527,-80.951c-40.606,-28.085 -84.477,-45.306 -135.006,-37.603c-39.039,6.006 -70.767,24.808 -94.791,55.895c-26.505,34.091 -36.689,72.974 -30.03,115.551c8.878,57.567 39.039,98.957 95.444,117.628c47.787,15.929 93.485,6.528 137.094,-16.191c58.494,-30.552 102.625,-78.339 146.496,-122.732c-9.532,-10.967 -18.018,-21.804 -27.68,-31.597m544.853,-10.432c-13.71,-62.685 -69.723,-108.644 -133.7,-109.95c-45.568,-0.914 -85.521,15.015 -122.733,39.588c-46.089,30.409 -83.693,70.218 -120.382,107.691c10.315,11.359 19.846,23.371 31.075,33.555c27.941,25.722 55.491,51.966 85.39,75.468c35.123,27.549 75.337,43.739 121.166,41.911c46.612,-1.828 84.346,-21.543 112.548,-58.102c29.9,-38.765 36.82,-82.779 26.636,-130.161m-0,-0c-13.71,-62.685 -69.723,-108.644 -133.7,-109.95c-45.568,-0.914 -85.521,15.015 -122.733,39.588c-46.089,30.409 -83.693,70.218 -120.382,107.691c10.315,11.359 19.846,23.371 31.075,33.555c27.941,25.722 55.491,51.966 85.39,75.468c35.123,27.549 75.337,43.739 121.166,41.911c46.612,-1.828 84.346,-21.543 112.548,-58.102c29.9,-38.765 36.82,-82.779 26.636,-130.161m-544.853,10.432c-28.594,-28.986 -57.841,-57.58 -91.527,-80.951c-40.606,-28.085 -84.477,-45.306 -135.006,-37.603c-39.039,6.006 -70.767,24.808 -94.791,55.895c-26.505,34.091 -36.689,72.974 -30.03,115.551c8.878,57.567 39.039,98.957 95.444,117.628c47.787,15.929 93.485,6.528 137.094,-16.191c58.494,-30.552 102.625,-78.339 146.496,-122.732c-9.532,-10.967 -18.018,-21.804 -27.68,-31.597m-91.527,-80.951c-40.606,-28.085 -84.477,-45.306 -135.006,-37.603c-39.039,6.006 -70.767,24.808 -94.791,55.895c-26.505,34.091 -36.689,72.974 -30.03,115.551c8.878,57.567 39.039,98.957 95.444,117.628c47.787,15.929 93.485,6.528 137.094,-16.191c58.494,-30.552 102.625,-78.339 146.496,-122.732c-9.532,-10.967 -18.018,-21.804 -27.68,-31.597c-28.594,-28.986 -57.841,-57.58 -91.527,-80.951m502.68,-39.431c-45.568,-0.914 -85.521,15.015 -122.733,39.588c-46.089,30.409 -83.693,70.218 -120.382,107.691c10.315,11.359 19.846,23.371 31.075,33.555c27.941,25.722 55.491,51.966 85.39,75.468c35.123,27.549 75.337,43.739 121.166,41.911c46.612,-1.828 84.346,-21.543 112.548,-58.102c29.9,-38.765 36.82,-82.779 26.636,-130.161c-13.71,-62.685 -69.723,-108.644 -133.7,-109.95m-311.662,-199.505c-381.253,-0 -690.173,-59.147 -690.173,-132.003c0,-72.83 308.92,-132.002 690.173,-132.002c381.254,-0 690.304,59.172 690.304,132.002c-0,72.856 -309.05,132.003 -690.304,132.003m555.298,375.378c-5.745,50.646 -24.546,95.574 -57.318,134.352c-43.218,50.921 -98.969,79.385 -164.644,88.263c-62.15,8.356 -119.077,-7.442 -172.348,-39.431c-47.004,-28.463 -86.957,-65.283 -125.735,-103.669c-12.012,-12.013 -23.894,-24.142 -36.036,-36.559c-21.544,20.747 -42.173,41.011 -63.194,60.857c-40.476,37.982 -83.04,73.496 -134.614,95.444c-84.868,36.284 -169.083,36.937 -249.904,-11.503c-58.232,-34.731 -90.743,-88.655 -104.975,-154.199c-10.315,-47.656 -9.27,-95.052 7.442,-141.011c31.858,-87.349 93.877,-142.043 184.36,-163.326c81.734,-19.323 154.59,2.729 221.701,50.255c45.829,32.511 85.39,72.203 125.474,111.243c4.178,4.047 7.834,8.5 12.273,13.318c27.158,-25.591 52.619,-50.517 78.993,-74.293c42.173,-38.125 87.349,-71.929 141.534,-91.004c46.22,-16.308 93.355,-20.356 141.795,-12.117c52.487,9.127 97.141,32.224 133.047,71.524c31.075,33.948 49.876,74.162 58.232,119.338c4.962,27.288 7.051,54.707 3.917,82.518m382.82,-65.923c-11.098,-15.276 -26.635,-29.913 -30.944,-47.017c-29.769,-119.86 -62.541,-239.315 -83.432,-360.755c-16.451,-95.052 -69.591,-149.354 -153.023,-184.359c-152.502,-63.978 -314.143,-85.129 -476.697,-95.823c-55.099,-3.669 -110.329,-5.888 -165.558,-6.528l-80.299,0c-120.382,1.815 -240.633,11.607 -360.101,31.976c-107.717,18.41 -214.26,41.794 -309.834,98.186c-46.873,27.549 -78.731,65.021 -90.744,121.557c-28.594,133.451 -61.366,265.976 -93.224,398.749c-3.264,13.057 -9.139,28.594 -18.932,36.558c-68.417,55.752 -84.607,123.908 -27.419,192.455c39.431,47.396 93.486,89.19 149.498,115.16c191.933,89.32 399.925,115.433 608.047,121.034c25.461,0.666 50.791,1.045 76.251,1.189c25.591,0.378 51.313,0.378 77.034,-0c142.579,-1.058 285.287,-8.37 427.474,-18.149c144.929,-10.067 287.507,-42.317 421.468,-103.291c83.562,-37.995 153.023,-89.96 179.267,-183.955c0,0 4.204,-40.175 0,-52.644c-8.617,-25.487 -33.033,-42.552 -48.832,-64.343m-1129.14,-70.519c-40.606,-28.085 -84.477,-45.306 -135.006,-37.603c-39.039,6.006 -70.767,24.808 -94.791,55.895c-26.505,34.091 -36.689,72.974 -30.03,115.551c8.878,57.567 39.039,98.957 95.444,117.628c47.787,15.929 93.485,6.528 137.094,-16.191c58.494,-30.552 102.625,-78.339 146.496,-122.732c-9.532,-10.967 -18.018,-21.804 -27.68,-31.597c-28.594,-28.986 -57.841,-57.58 -91.527,-80.951m636.38,70.519c-13.71,-62.685 -69.723,-108.644 -133.7,-109.95c-45.568,-0.914 -85.521,15.015 -122.733,39.588c-46.089,30.409 -83.693,70.218 -120.382,107.691c10.315,11.359 19.846,23.371 31.075,33.555c27.941,25.722 55.491,51.966 85.39,75.468c35.123,27.549 75.337,43.739 121.166,41.911c46.612,-1.828 84.346,-21.543 112.548,-58.102c29.9,-38.765 36.82,-82.779 26.636,-130.161m-0,-0c-13.71,-62.685 -69.723,-108.644 -133.7,-109.95c-45.568,-0.914 -85.521,15.015 -122.733,39.588c-46.089,30.409 -83.693,70.218 -120.382,107.691c10.315,11.359 19.846,23.371 31.075,33.555c27.941,25.722 55.491,51.966 85.39,75.468c35.123,27.549 75.337,43.739 121.166,41.911c46.612,-1.828 84.346,-21.543 112.548,-58.102c29.9,-38.765 36.82,-82.779 26.636,-130.161m-544.853,10.432c-28.594,-28.986 -57.841,-57.58 -91.527,-80.951c-40.606,-28.085 -84.477,-45.306 -135.006,-37.603c-39.039,6.006 -70.767,24.808 -94.791,55.895c-26.505,34.091 -36.689,72.974 -30.03,115.551c8.878,57.567 39.039,98.957 95.444,117.628c47.787,15.929 93.485,6.528 137.094,-16.191c58.494,-30.552 102.625,-78.339 146.496,-122.732c-9.532,-10.967 -18.018,-21.804 -27.68,-31.597"/></g></svg>