<?xml version="1.0" encoding="UTF-8" standalone="no"?><!DOCTYPE svg PUBLIC "-//W3C//DTD SVG 1.1//EN" "http://www.w3.org/Graphics/SVG/1.1/DTD/svg11.dtd"><svg width="100%" height="100%" viewBox="0 0 2175 1121" version="1.1" xmlns="http://www.w3.org/2000/svg" xmlns:xlink="http://www.w3.org/1999/xlink" xml:space="preserve" xmlns:serif="http://www.serif.com/" style="fill-rule:evenodd;clip-rule:evenodd;stroke-linejoin:round;stroke-miterlimit:2;"><rect id="CHARACTER-LOVER" x="0" y="1.539" width="2172.93" height="1116.7" style="fill:none;"/><clipPath id="_clip1"><rect x="0" y="1.539" width="2172.93" height="1116.7"/></clipPath><g clip-path="url(#_clip1)"><path id="LOVER" d="M1541.01,494.154c-5.096,11.708 -42.803,81.044 -42.803,81.044c-106.496,154.414 -242.928,266.419 -387.259,373.351c-17.325,-12.359 -35.159,-24.444 -52.229,-37.452c-104.076,-79.497 -202.419,-165.615 -284.712,-269.034c-49.044,-61.531 -93.885,-126.185 -109.554,-205.785c-21.528,-108.506 22.676,-241.065 151.847,-275.798c91.21,-24.326 190.827,15.48 245.349,100.297c18.344,28.346 33.503,58.8 51.337,90.281c11.847,-21.985 22.803,-43.059 34.395,-63.873c36.56,-65.174 87.77,-112.525 161.146,-128.526c117.452,-25.38 223.948,46.688 248.788,166.642c11.835,57.888 7.899,114.346 -16.305,168.853m629.169,51.645c-91.847,-50.735 -178.98,-98.867 -270.7,-149.471l0,109.534l-200.253,-0c-0.383,-2.472 -1.147,-4.293 -0.892,-5.724c1.019,-4.046 2.548,-7.935 3.822,-11.825c19.999,-61.154 24.585,-123.206 15.796,-187.222c-37.198,-267.966 -325.859,-389.468 -536.431,-224.647c-26.879,20.944 -50.063,46.844 -75.031,70.507c-127.006,-157.926 -302.929,-175.228 -433.247,-107.192c-61.401,32.015 -108.916,79.613 -139.362,142.706c-49.554,102.899 -55.032,209.18 -14.395,321.823l-176.178,-0l-59.999,-99.127l-283.311,0l59.872,139.857l-59.872,139.831l283.311,-0l59.999,-99.114l195.031,0c14.14,-0.26 23.185,4.553 30.574,16.378c20.382,32.145 40.636,64.524 63.821,94.587c128.407,166.121 288.151,296.339 456.94,416.279c12.357,8.846 21.019,7.532 32.102,-1.028c60.127,-45.803 122.165,-89.266 180.764,-137.125c131.846,-107.855 252.61,-226.599 341.909,-375.301c4.586,-7.546 18.089,-13.269 27.643,-13.399c65.223,-1.171 218.98,0.39 227.515,1.027l-0,108.116c91.082,-50.604 179.999,-99.257 270.572,-149.47"/></g></svg>